<svg xmlns="http://www.w3.org/2000/svg" width="466.3076923076924" height="672" viewBox="0 0 466.3076923076924 672"><rect width="100%" height="100%" fill="white"/><style>text { font-family: 'SF Mono', 'Menlo', 'Consolas', monospace; font-size: 13px; fill: #333; }</style><rect x="24" y="31" width="14" height="12" rx="1.5" fill="#f57f17"/><rect x="24" y="29" width="6" height="3" rx="1" fill="#f57f17"/><text x="44" y="40.55" font-weight="bold" fill="#1565c0">my-app/</text><line x1="110.80000000000001" y1="36" x2="288.00000000000006" y2="36" stroke="#ccc" stroke-width="1"/><circle cx="110.80000000000001" cy="36" r="2" fill="#ccc"/><text x="296.00000000000006" y="39.85" font-family="sans-serif" font-size="11" fill="#666">プロジェクトルート</text><line x1="36" y1="48" x2="36" y2="72" stroke="#999" stroke-width="1"/><line x1="36" y1="60" x2="48" y2="60" stroke="#999" stroke-width="1"/><rect x="48" y="55" width="14" height="12" rx="1.5" fill="#f57f17"/><rect x="48" y="53" width="6" height="3" rx="1" fill="#f57f17"/><text x="68" y="64.55" font-weight="bold" fill="#1565c0">src/</text><line x1="109.60000000000001" y1="60" x2="288.00000000000006" y2="60" stroke="#ccc" stroke-width="1"/><circle cx="109.60000000000001" cy="60" r="2" fill="#ccc"/><text x="296.00000000000006" y="63.85" font-family="sans-serif" font-size="11" fill="#666">ソースコード</text><line x1="60" y1="72" x2="60" y2="96" stroke="#999" stroke-width="1"/><line x1="60" y1="72" x2="60" y2="96" stroke="#999" stroke-width="1"/><line x1="60" y1="84" x2="72" y2="84" stroke="#999" stroke-width="1"/><rect x="72" y="79" width="14" height="12" rx="1.5" fill="#f57f17"/><rect x="72" y="77" width="6" height="3" rx="1" fill="#f57f17"/><text x="92" y="88.55" font-weight="bold" fill="#1565c0">components/</text><line x1="192.4" y1="84" x2="288.00000000000006" y2="84" stroke="#ccc" stroke-width="1"/><circle cx="192.4" cy="84" r="2" fill="#ccc"/><text x="296.00000000000006" y="87.85" font-family="sans-serif" font-size="11" fill="#666">UIコンポーネント</text><line x1="60" y1="96" x2="60" y2="120" stroke="#999" stroke-width="1"/><line x1="84" y1="96" x2="84" y2="120" stroke="#999" stroke-width="1"/><line x1="84" y1="96" x2="84" y2="120" stroke="#999" stroke-width="1"/><line x1="84" y1="108" x2="96" y2="108" stroke="#999" stroke-width="1"/><rect x="97" y="101" width="12" height="14" rx="1" fill="none" stroke="#999" stroke-width="1"/><polyline points="105,101 109,105 109,101" fill="none" stroke="#999" stroke-width="1"/><text x="116" y="112.55">Header.tsx</text><line x1="208" y1="108" x2="288.00000000000006" y2="108" stroke="#ccc" stroke-width="1"/><circle cx="208" cy="108" r="2" fill="#ccc"/><text x="296.00000000000006" y="104.35" font-family="sans-serif" font-size="11" fill="#666">ヘッダーコンポーネント</text><text x="296.00000000000006" y="119.35" font-family="sans-serif" font-size="11" fill="#666">ナビゲーション含む</text><line x1="60" y1="120" x2="60" y2="144" stroke="#999" stroke-width="1"/><line x1="84" y1="120" x2="84" y2="144" stroke="#999" stroke-width="1"/><line x1="84" y1="120" x2="84" y2="144" stroke="#999" stroke-width="1"/><line x1="84" y1="132" x2="96" y2="132" stroke="#999" stroke-width="1"/><rect x="97" y="125" width="12" height="14" rx="1" fill="none" stroke="#999" stroke-width="1"/><polyline points="105,125 109,129 109,125" fill="none" stroke="#999" stroke-width="1"/><text x="116" y="136.55">Footer.tsx</text><line x1="60" y1="144" x2="60" y2="168" stroke="#999" stroke-width="1"/><line x1="84" y1="144" x2="84" y2="168" stroke="#999" stroke-width="1"/><line x1="84" y1="144" x2="84" y2="156" stroke="#999" stroke-width="1"/><line x1="84" y1="156" x2="96" y2="156" stroke="#999" stroke-width="1"/><rect x="97" y="149" width="12" height="14" rx="1" fill="none" stroke="#999" stroke-width="1"/><polyline points="105,149 109,153 109,149" fill="none" stroke="#999" stroke-width="1"/><text x="116" y="160.55">Button.tsx</text><line x1="208" y1="156" x2="288.00000000000006" y2="156" stroke="#ccc" stroke-width="1"/><circle cx="208" cy="156" r="2" fill="#ccc"/><text x="296.00000000000006" y="159.85" font-family="sans-serif" font-size="11" fill="#666">汎用ボタン</text><line x1="60" y1="168" x2="60" y2="192" stroke="#999" stroke-width="1"/><line x1="60" y1="168" x2="60" y2="192" stroke="#999" stroke-width="1"/><line x1="60" y1="180" x2="72" y2="180" stroke="#999" stroke-width="1"/><rect x="72" y="175" width="14" height="12" rx="1.5" fill="#f57f17"/><rect x="72" y="173" width="6" height="3" rx="1" fill="#f57f17"/><text x="92" y="184.55" font-weight="bold" fill="#1565c0">hooks/</text><line x1="150.4" y1="180" x2="288.00000000000006" y2="180" stroke="#ccc" stroke-width="1"/><circle cx="150.4" cy="180" r="2" fill="#ccc"/><text x="296.00000000000006" y="183.85" font-family="sans-serif" font-size="11" fill="#666">カスタムフック</text><line x1="60" y1="192" x2="60" y2="216" stroke="#999" stroke-width="1"/><line x1="84" y1="192" x2="84" y2="216" stroke="#999" stroke-width="1"/><line x1="84" y1="192" x2="84" y2="216" stroke="#999" stroke-width="1"/><line x1="84" y1="204" x2="96" y2="204" stroke="#999" stroke-width="1"/><rect x="97" y="197" width="12" height="14" rx="1" fill="none" stroke="#999" stroke-width="1"/><polyline points="105,197 109,201 109,197" fill="none" stroke="#999" stroke-width="1"/><text x="116" y="208.55">useAuth.ts</text><line x1="208" y1="204" x2="288.00000000000006" y2="204" stroke="#ccc" stroke-width="1"/><circle cx="208" cy="204" r="2" fill="#ccc"/><text x="296.00000000000006" y="207.85" font-family="sans-serif" font-size="11" fill="#666">認証状態管理</text><line x1="60" y1="216" x2="60" y2="240" stroke="#999" stroke-width="1"/><line x1="84" y1="216" x2="84" y2="240" stroke="#999" stroke-width="1"/><line x1="84" y1="216" x2="84" y2="228" stroke="#999" stroke-width="1"/><line x1="84" y1="228" x2="96" y2="228" stroke="#999" stroke-width="1"/><rect x="97" y="221" width="12" height="14" rx="1" fill="none" stroke="#999" stroke-width="1"/><polyline points="105,221 109,225 109,221" fill="none" stroke="#999" stroke-width="1"/><text x="116" y="232.55">useFetch.ts</text><line x1="216.40000000000003" y1="228" x2="288.00000000000006" y2="228" stroke="#ccc" stroke-width="1"/><circle cx="216.40000000000003" cy="228" r="2" fill="#ccc"/><text x="296.00000000000006" y="231.85" font-family="sans-serif" font-size="11" fill="#666">データ取得</text><line x1="60" y1="240" x2="60" y2="264" stroke="#999" stroke-width="1"/><line x1="60" y1="240" x2="60" y2="264" stroke="#999" stroke-width="1"/><line x1="60" y1="252" x2="72" y2="252" stroke="#999" stroke-width="1"/><rect x="72" y="247" width="14" height="12" rx="1.5" fill="#f57f17"/><rect x="72" y="245" width="6" height="3" rx="1" fill="#f57f17"/><text x="92" y="256.55" font-weight="bold" fill="#1565c0">utils/</text><line x1="60" y1="264" x2="60" y2="288" stroke="#999" stroke-width="1"/><line x1="84" y1="264" x2="84" y2="288" stroke="#999" stroke-width="1"/><line x1="84" y1="264" x2="84" y2="288" stroke="#999" stroke-width="1"/><line x1="84" y1="276" x2="96" y2="276" stroke="#999" stroke-width="1"/><rect x="97" y="269" width="12" height="14" rx="1" fill="none" stroke="#999" stroke-width="1"/><polyline points="105,269 109,273 109,269" fill="none" stroke="#999" stroke-width="1"/><text x="116" y="280.55">format.ts</text><line x1="60" y1="288" x2="60" y2="312" stroke="#999" stroke-width="1"/><line x1="84" y1="288" x2="84" y2="312" stroke="#999" stroke-width="1"/><line x1="84" y1="288" x2="84" y2="300" stroke="#999" stroke-width="1"/><line x1="84" y1="300" x2="96" y2="300" stroke="#999" stroke-width="1"/><rect x="97" y="293" width="12" height="14" rx="1" fill="none" stroke="#999" stroke-width="1"/><polyline points="105,293 109,297 109,293" fill="none" stroke="#999" stroke-width="1"/><text x="116" y="304.55">validate.ts</text><line x1="216.40000000000003" y1="300" x2="288.00000000000006" y2="300" stroke="#ccc" stroke-width="1"/><circle cx="216.40000000000003" cy="300" r="2" fill="#ccc"/><text x="296.00000000000006" y="296.35" font-family="sans-serif" font-size="11" fill="#666">バリデーション関数</text><text x="296.00000000000006" y="311.35" font-family="sans-serif" font-size="11" fill="#666">入力検証・型チェック</text><line x1="60" y1="312" x2="60" y2="336" stroke="#999" stroke-width="1"/><line x1="60" y1="312" x2="60" y2="336" stroke="#999" stroke-width="1"/><line x1="60" y1="324" x2="72" y2="324" stroke="#999" stroke-width="1"/><rect x="73" y="317" width="12" height="14" rx="1" fill="none" stroke="#999" stroke-width="1"/><polyline points="81,317 85,321 85,317" fill="none" stroke="#999" stroke-width="1"/><text x="92" y="328.55">App.tsx</text><line x1="158.8" y1="324" x2="288.00000000000006" y2="324" stroke="#ccc" stroke-width="1"/><circle cx="158.8" cy="324" r="2" fill="#ccc"/><text x="296.00000000000006" y="327.85" font-family="sans-serif" font-size="11" fill="#666">ルートコンポーネント</text><line x1="60" y1="336" x2="60" y2="360" stroke="#999" stroke-width="1"/><line x1="60" y1="336" x2="60" y2="348" stroke="#999" stroke-width="1"/><line x1="60" y1="348" x2="72" y2="348" stroke="#999" stroke-width="1"/><rect x="73" y="341" width="12" height="14" rx="1" fill="none" stroke="#999" stroke-width="1"/><polyline points="81,341 85,345 85,341" fill="none" stroke="#999" stroke-width="1"/><text x="92" y="352.55">index.ts</text><line x1="167.2" y1="348" x2="288.00000000000006" y2="348" stroke="#ccc" stroke-width="1"/><circle cx="167.2" cy="348" r="2" fill="#ccc"/><text x="296.00000000000006" y="351.85" font-family="sans-serif" font-size="11" fill="#666">エントリポイント</text><line x1="36" y1="360" x2="36" y2="384" stroke="#999" stroke-width="1"/><line x1="36" y1="372" x2="48" y2="372" stroke="#999" stroke-width="1"/><rect x="48" y="367" width="14" height="12" rx="1.5" fill="#f57f17"/><rect x="48" y="365" width="6" height="3" rx="1" fill="#f57f17"/><text x="68" y="376.55" font-weight="bold" fill="#1565c0">public/</text><line x1="60" y1="384" x2="60" y2="408" stroke="#999" stroke-width="1"/><line x1="60" y1="384" x2="60" y2="408" stroke="#999" stroke-width="1"/><line x1="60" y1="396" x2="72" y2="396" stroke="#999" stroke-width="1"/><rect x="73" y="389" width="12" height="14" rx="1" fill="none" stroke="#999" stroke-width="1"/><polyline points="81,389 85,393 85,389" fill="none" stroke="#999" stroke-width="1"/><text x="92" y="400.55">index.html</text><line x1="60" y1="408" x2="60" y2="432" stroke="#999" stroke-width="1"/><line x1="60" y1="408" x2="60" y2="420" stroke="#999" stroke-width="1"/><line x1="60" y1="420" x2="72" y2="420" stroke="#999" stroke-width="1"/><rect x="73" y="413" width="12" height="14" rx="1" fill="none" stroke="#999" stroke-width="1"/><polyline points="81,413 85,417 85,413" fill="none" stroke="#999" stroke-width="1"/><text x="92" y="424.55">favicon.ico</text><line x1="36" y1="432" x2="36" y2="456" stroke="#999" stroke-width="1"/><line x1="36" y1="444" x2="48" y2="444" stroke="#999" stroke-width="1"/><rect x="48" y="439" width="14" height="12" rx="1.5" fill="#f57f17"/><rect x="48" y="437" width="6" height="3" rx="1" fill="#f57f17"/><text x="68" y="448.55" font-weight="bold" fill="#1565c0">tests/</text><line x1="126.4" y1="444" x2="288.00000000000006" y2="444" stroke="#ccc" stroke-width="1"/><circle cx="126.4" cy="444" r="2" fill="#ccc"/><text x="296.00000000000006" y="447.85" font-family="sans-serif" font-size="11" fill="#666">テストコード</text><line x1="60" y1="456" x2="60" y2="480" stroke="#999" stroke-width="1"/><line x1="60" y1="456" x2="60" y2="480" stroke="#999" stroke-width="1"/><line x1="60" y1="468" x2="72" y2="468" stroke="#999" stroke-width="1"/><rect x="72" y="463" width="14" height="12" rx="1.5" fill="#f57f17"/><rect x="72" y="461" width="6" height="3" rx="1" fill="#f57f17"/><text x="92" y="472.55" font-weight="bold" fill="#1565c0">components/</text><line x1="60" y1="480" x2="60" y2="504" stroke="#999" stroke-width="1"/><line x1="84" y1="480" x2="84" y2="504" stroke="#999" stroke-width="1"/><line x1="84" y1="480" x2="84" y2="504" stroke="#999" stroke-width="1"/><line x1="84" y1="492" x2="96" y2="492" stroke="#999" stroke-width="1"/><rect x="97" y="485" width="12" height="14" rx="1" fill="none" stroke="#999" stroke-width="1"/><polyline points="105,485 109,489 109,485" fill="none" stroke="#999" stroke-width="1"/><text x="116" y="496.55">Header.test.tsx</text><line x1="60" y1="504" x2="60" y2="528" stroke="#999" stroke-width="1"/><line x1="84" y1="504" x2="84" y2="528" stroke="#999" stroke-width="1"/><line x1="84" y1="504" x2="84" y2="516" stroke="#999" stroke-width="1"/><line x1="84" y1="516" x2="96" y2="516" stroke="#999" stroke-width="1"/><rect x="97" y="509" width="12" height="14" rx="1" fill="none" stroke="#999" stroke-width="1"/><polyline points="105,509 109,513 109,509" fill="none" stroke="#999" stroke-width="1"/><text x="116" y="520.55">Button.test.tsx</text><line x1="60" y1="528" x2="60" y2="552" stroke="#999" stroke-width="1"/><line x1="60" y1="528" x2="60" y2="540" stroke="#999" stroke-width="1"/><line x1="60" y1="540" x2="72" y2="540" stroke="#999" stroke-width="1"/><rect x="72" y="535" width="14" height="12" rx="1.5" fill="#f57f17"/><rect x="72" y="533" width="6" height="3" rx="1" fill="#f57f17"/><text x="92" y="544.55" font-weight="bold" fill="#1565c0">hooks/</text><line x1="60" y1="552" x2="60" y2="576" stroke="#999" stroke-width="1"/><line x1="84" y1="552" x2="84" y2="564" stroke="#999" stroke-width="1"/><line x1="84" y1="564" x2="96" y2="564" stroke="#999" stroke-width="1"/><rect x="97" y="557" width="12" height="14" rx="1" fill="none" stroke="#999" stroke-width="1"/><polyline points="105,557 109,561 109,557" fill="none" stroke="#999" stroke-width="1"/><text x="116" y="568.55">useAuth.test.ts</text><line x1="36" y1="576" x2="36" y2="600" stroke="#999" stroke-width="1"/><line x1="36" y1="588" x2="48" y2="588" stroke="#999" stroke-width="1"/><rect x="49" y="581" width="12" height="14" rx="1" fill="none" stroke="#999" stroke-width="1"/><polyline points="57,581 61,585 61,581" fill="none" stroke="#999" stroke-width="1"/><text x="68" y="592.55">package.json</text><line x1="176.8" y1="588" x2="288.00000000000006" y2="588" stroke="#ccc" stroke-width="1"/><circle cx="176.8" cy="588" r="2" fill="#ccc"/><text x="296.00000000000006" y="591.85" font-family="sans-serif" font-size="11" fill="#666">依存関係定義</text><line x1="36" y1="600" x2="36" y2="624" stroke="#999" stroke-width="1"/><line x1="36" y1="612" x2="48" y2="612" stroke="#999" stroke-width="1"/><rect x="49" y="605" width="12" height="14" rx="1" fill="none" stroke="#999" stroke-width="1"/><polyline points="57,605 61,609 61,605" fill="none" stroke="#999" stroke-width="1"/><text x="68" y="616.55">tsconfig.json</text><line x1="185.20000000000005" y1="612" x2="288.00000000000006" y2="612" stroke="#ccc" stroke-width="1"/><circle cx="185.20000000000005" cy="612" r="2" fill="#ccc"/><text x="296.00000000000006" y="615.85" font-family="sans-serif" font-size="11" fill="#666">TypeScript設定</text><line x1="36" y1="624" x2="36" y2="636" stroke="#999" stroke-width="1"/><line x1="36" y1="636" x2="48" y2="636" stroke="#999" stroke-width="1"/><rect x="49" y="629" width="12" height="14" rx="1" fill="none" stroke="#999" stroke-width="1"/><polyline points="57,629 61,633 61,629" fill="none" stroke="#999" stroke-width="1"/><text x="68" y="640.55">README.md</text><line x1="151.60000000000002" y1="636" x2="288.00000000000006" y2="636" stroke="#ccc" stroke-width="1"/><circle cx="151.60000000000002" cy="636" r="2" fill="#ccc"/><text x="296.00000000000006" y="639.85" font-family="sans-serif" font-size="11" fill="#666">プロジェクト説明</text></svg>