<svg xmlns="http://www.w3.org/2000/svg" width="332.3692307692308" height="192" viewBox="0 0 332.3692307692308 192"><rect width="100%" height="100%" fill="white"/><style>text { font-family: 'SF Mono', 'Menlo', 'Consolas', monospace; font-size: 13px; fill: #333; }</style><rect x="24" y="31" width="14" height="12" rx="1.5" fill="#f57f17"/><rect x="24" y="29" width="6" height="3" rx="1" fill="#f57f17"/><text x="44" y="40.55" font-weight="bold" fill="#1565c0">src/</text><line x1="36" y1="48" x2="36" y2="72" stroke="#999" stroke-width="1"/><line x1="36" y1="48" x2="36" y2="72" stroke="#999" stroke-width="1"/><line x1="36" y1="60" x2="48" y2="60" stroke="#999" stroke-width="1"/><rect x="49" y="53" width="12" height="14" rx="1" fill="none" stroke="#999" stroke-width="1"/><polyline points="57,53 61,57 61,53" fill="none" stroke="#999" stroke-width="1"/><text x="68" y="64.55">main.rs</text><line x1="134.8" y1="60" x2="189.60000000000002" y2="60" stroke="#ccc" stroke-width="1"/><circle cx="134.8" cy="60" r="2" fill="#ccc"/><text x="197.60000000000002" y="63.85" font-family="sans-serif" font-size="11" fill="#666">エントリポイント</text><line x1="36" y1="72" x2="36" y2="96" stroke="#999" stroke-width="1"/><line x1="36" y1="72" x2="36" y2="96" stroke="#999" stroke-width="1"/><line x1="36" y1="84" x2="48" y2="84" stroke="#999" stroke-width="1"/><rect x="49" y="77" width="12" height="14" rx="1" fill="none" stroke="#999" stroke-width="1"/><polyline points="57,77 61,81 61,77" fill="none" stroke="#999" stroke-width="1"/><text x="68" y="88.55">lib.rs</text><line x1="126.4" y1="84" x2="189.60000000000002" y2="84" stroke="#ccc" stroke-width="1"/><circle cx="126.4" cy="84" r="2" fill="#ccc"/><text x="197.60000000000002" y="87.85" font-family="sans-serif" font-size="11" fill="#666">ライブラリルート</text><line x1="36" y1="96" x2="36" y2="120" stroke="#999" stroke-width="1"/><line x1="36" y1="96" x2="36" y2="108" stroke="#999" stroke-width="1"/><line x1="36" y1="108" x2="48" y2="108" stroke="#999" stroke-width="1"/><rect x="49" y="101" width="12" height="14" rx="1" fill="none" stroke="#999" stroke-width="1"/><polyline points="57,101 61,105 61,101" fill="none" stroke="#999" stroke-width="1"/><text x="68" y="112.55">config.rs</text><rect x="25" y="125" width="12" height="14" rx="1" fill="none" stroke="#999" stroke-width="1"/><polyline points="33,125 37,129 37,125" fill="none" stroke="#999" stroke-width="1"/><text x="44" y="136.55">Cargo.toml</text><line x1="136" y1="132" x2="189.60000000000002" y2="132" stroke="#ccc" stroke-width="1"/><circle cx="136" cy="132" r="2" fill="#ccc"/><text x="197.60000000000002" y="135.85" font-family="sans-serif" font-size="11" fill="#666">依存関係</text><rect x="25" y="149" width="12" height="14" rx="1" fill="none" stroke="#999" stroke-width="1"/><polyline points="33,149 37,153 37,149" fill="none" stroke="#999" stroke-width="1"/><text x="44" y="160.55">README.md</text></svg>