<svg xmlns="http://www.w3.org/2000/svg" width="618.7692307692307" height="234" viewBox="0 0 618.7692307692307 234"><rect width="100%" height="100%" fill="white"/><style>text { font-family: sans-serif; font-size: 13px; fill: #333; }</style><circle cx="118.61538461538461" cy="108" r="14" fill="none" stroke="#1565c0" stroke-width="2"/><line x1="118.61538461538461" y1="122" x2="118.61538461538461" y2="152" stroke="#1565c0" stroke-width="2"/><line x1="100.61538461538461" y1="136" x2="136.6153846153846" y2="136" stroke="#1565c0" stroke-width="2"/><line x1="118.61538461538461" y1="152" x2="104.61538461538461" y2="174" stroke="#1565c0" stroke-width="2"/><line x1="118.61538461538461" y1="152" x2="132.6153846153846" y2="174" stroke="#1565c0" stroke-width="2"/><text x="118.61538461538461" y="194" text-anchor="middle" font-size="12" font-weight="bold" fill="#666">Customer</text><rect x="40" y="40" width="157.23076923076923" height="36" rx="8" fill="#f7f8fc" stroke="#ccc" stroke-width="1"/><polygon points="112.61538461538461,76 124.61538461538461,76 118.61538461538461,84" fill="#f7f8fc" stroke="#ccc" stroke-width="1"/><line x1="113.61538461538461" y1="76" x2="123.61538461538461" y2="76" stroke="#f7f8fc" stroke-width="2"/><text x="118.61538461538461" y="62.8" text-anchor="middle" font-size="12" fill="#444">使いやすくしてほしい</text><circle cx="322.3076923076923" cy="108" r="14" fill="none" stroke="#2e7d32" stroke-width="2"/><line x1="322.3076923076923" y1="122" x2="322.3076923076923" y2="152" stroke="#2e7d32" stroke-width="2"/><line x1="304.3076923076923" y1="136" x2="340.3076923076923" y2="136" stroke="#2e7d32" stroke-width="2"/><line x1="322.3076923076923" y1="152" x2="308.3076923076923" y2="174" stroke="#2e7d32" stroke-width="2"/><line x1="322.3076923076923" y1="152" x2="336.3076923076923" y2="174" stroke="#2e7d32" stroke-width="2"/><text x="322.3076923076923" y="194" text-anchor="middle" font-size="12" font-weight="bold" fill="#666">Developer</text><rect x="237.23076923076923" y="40" width="170.15384615384616" height="36" rx="8" fill="#f7f8fc" stroke="#ccc" stroke-width="1"/><polygon points="316.3076923076923,76 328.3076923076923,76 322.3076923076923,84" fill="#f7f8fc" stroke="#ccc" stroke-width="1"/><line x1="317.3076923076923" y1="76" x2="327.3076923076923" y2="76" stroke="#f7f8fc" stroke-width="2"/><text x="322.3076923076923" y="62.8" text-anchor="middle" font-size="12" fill="#444">技術的負債を解消したい</text><circle cx="513.0769230769231" cy="108" r="14" fill="none" stroke="#f57f17" stroke-width="2"/><line x1="513.0769230769231" y1="122" x2="513.0769230769231" y2="152" stroke="#f57f17" stroke-width="2"/><line x1="495.0769230769231" y1="136" x2="531.0769230769231" y2="136" stroke="#f57f17" stroke-width="2"/><line x1="513.0769230769231" y1="152" x2="499.0769230769231" y2="174" stroke="#f57f17" stroke-width="2"/><line x1="513.0769230769231" y1="152" x2="527.0769230769231" y2="174" stroke="#f57f17" stroke-width="2"/><text x="513.0769230769231" y="194" text-anchor="middle" font-size="12" font-weight="bold" fill="#666">Manager</text><rect x="447.3846153846154" y="40" width="131.3846153846154" height="36" rx="8" fill="#f7f8fc" stroke="#ccc" stroke-width="1"/><polygon points="507.0769230769231,76 519.0769230769231,76 513.0769230769231,84" fill="#f7f8fc" stroke="#ccc" stroke-width="1"/><line x1="508.0769230769231" y1="76" x2="518.0769230769231" y2="76" stroke="#f7f8fc" stroke-width="2"/><text x="513.0769230769231" y="62.8" text-anchor="middle" font-size="12" fill="#444">コストを抑えたい</text></svg>