<svg xmlns="http://www.w3.org/2000/svg" width="618.7692307692307" height="290" viewBox="0 0 618.7692307692307 290"><rect width="100%" height="100%" fill="white"/><style>text { font-family: sans-serif; font-size: 13px; fill: #333; }</style><text x="309.38461538461536" y="58" text-anchor="middle" font-size="16" font-weight="bold">ユーザーの声</text><circle cx="131.53846153846155" cy="164" r="14" fill="none" stroke="#1565c0" stroke-width="2"/><line x1="131.53846153846155" y1="178" x2="131.53846153846155" y2="208" stroke="#1565c0" stroke-width="2"/><line x1="113.53846153846155" y1="192" x2="149.53846153846155" y2="192" stroke="#1565c0" stroke-width="2"/><line x1="131.53846153846155" y1="208" x2="117.53846153846155" y2="230" stroke="#1565c0" stroke-width="2"/><line x1="131.53846153846155" y1="208" x2="145.53846153846155" y2="230" stroke="#1565c0" stroke-width="2"/><text x="131.53846153846155" y="250" text-anchor="middle" font-size="12" font-weight="bold" fill="#666">プロダクトマネージャー</text><rect x="40" y="80" width="183.0769230769231" height="52" rx="8" fill="#f7f8fc" stroke="#ccc" stroke-width="1"/><polygon points="125.53846153846155,132 137.53846153846155,132 131.53846153846155,140" fill="#f7f8fc" stroke="#ccc" stroke-width="1"/><line x1="126.53846153846155" y1="132" x2="136.53846153846155" y2="132" stroke="#f7f8fc" stroke-width="2"/><text x="131.53846153846155" y="102.8" text-anchor="middle" font-size="12" fill="#444">もっと早くリリースしたい</text><text x="131.53846153846155" y="118.8" text-anchor="middle" font-size="12" fill="#444">品質も落としたくない</text><circle cx="341.69230769230774" cy="164" r="14" fill="none" stroke="#2e7d32" stroke-width="2"/><line x1="341.69230769230774" y1="178" x2="341.69230769230774" y2="208" stroke="#2e7d32" stroke-width="2"/><line x1="323.69230769230774" y1="192" x2="359.69230769230774" y2="192" stroke="#2e7d32" stroke-width="2"/><line x1="341.69230769230774" y1="208" x2="327.69230769230774" y2="230" stroke="#2e7d32" stroke-width="2"/><line x1="341.69230769230774" y1="208" x2="355.69230769230774" y2="230" stroke="#2e7d32" stroke-width="2"/><text x="341.69230769230774" y="250" text-anchor="middle" font-size="12" font-weight="bold" fill="#666">エンジニア</text><rect x="263.0769230769231" y="80" width="157.23076923076923" height="52" rx="8" fill="#f7f8fc" stroke="#ccc" stroke-width="1"/><polygon points="335.69230769230774,132 347.69230769230774,132 341.69230769230774,140" fill="#f7f8fc" stroke="#ccc" stroke-width="1"/><line x1="336.69230769230774" y1="132" x2="346.69230769230774" y2="132" stroke="#f7f8fc" stroke-width="2"/><text x="341.69230769230774" y="102.8" text-anchor="middle" font-size="12" fill="#444">テストを自動化すれば</text><text x="341.69230769230774" y="118.8" text-anchor="middle" font-size="12" fill="#444">両立できます</text><circle cx="519.5384615384615" cy="164" r="14" fill="none" stroke="#f57f17" stroke-width="2"/><line x1="519.5384615384615" y1="178" x2="519.5384615384615" y2="208" stroke="#f57f17" stroke-width="2"/><line x1="501.53846153846155" y1="192" x2="537.5384615384615" y2="192" stroke="#f57f17" stroke-width="2"/><line x1="519.5384615384615" y1="208" x2="505.53846153846155" y2="230" stroke="#f57f17" stroke-width="2"/><line x1="519.5384615384615" y1="208" x2="533.5384615384615" y2="230" stroke="#f57f17" stroke-width="2"/><text x="519.5384615384615" y="250" text-anchor="middle" font-size="12" font-weight="bold" fill="#666">デザイナー</text><rect x="460.3076923076923" y="80" width="118.46153846153847" height="52" rx="8" fill="#f7f8fc" stroke="#ccc" stroke-width="1"/><polygon points="513.5384615384615,132 525.5384615384615,132 519.5384615384615,140" fill="#f7f8fc" stroke="#ccc" stroke-width="1"/><line x1="514.5384615384615" y1="132" x2="524.5384615384615" y2="132" stroke="#f7f8fc" stroke-width="2"/><text x="519.5384615384615" y="102.8" text-anchor="middle" font-size="12" fill="#444">UIの改善も</text><text x="519.5384615384615" y="118.8" text-anchor="middle" font-size="12" fill="#444">優先してほしい</text></svg>