<svg xmlns="http://www.w3.org/2000/svg" width="610.3105241712915" height="552.3105241712915" viewBox="0 0 610.3105241712915 552.3105241712915"><rect width="100%" height="100%" fill="white"/><style>text { font-family: sans-serif; font-size: 13px; fill: #333; }</style><defs><marker id="arrow" viewBox="0 0 10 10" refX="10" refY="5" markerWidth="8" markerHeight="8" orient="auto"><polygon points="0,1 10,5 0,9" fill="#666"/></marker></defs><text x="305.15526208564575" y="282.15526208564575" text-anchor="middle" font-size="16" font-weight="bold" fill="#333">DevOps</text><path d="M351.3492387112101,91.80171894439707 Q363.20235523376135,136.0171825511307 395.54268110270635,130.77214749862375" fill="none" stroke="#666" stroke-width="2" marker-end="url(#arrow)"/><path d="M460.87082934652517,160.8230956907804 Q445.29334162016085,218.10816893753017 479.176352553037,254.90603283788616" fill="none" stroke="#666" stroke-width="2" marker-end="url(#arrow)"/><path d="M479.176352553037,297.40449133340536 Q445.29334162016085,334.20235523376135 460.87082934652517,391.487428480511" fill="none" stroke="#666" stroke-width="2" marker-end="url(#arrow)"/><path d="M395.54268110270635,421.5383766726677 Q363.9876528363959,416.2933416201608 353.19699777623265,460.5088052268944" fill="none" stroke="#666" stroke-width="2" marker-end="url(#arrow)"/><path d="M257.11352639505884,460.5088052268944 Q246.32287133489555,416.29334162016085 214.76784306858517,421.53837667266777" fill="none" stroke="#666" stroke-width="2" marker-end="url(#arrow)"/><path d="M149.43969482476632,391.4874284805111 Q165.34246346864103,334.20235523376135 131.89953848298467,297.40449133340536" fill="none" stroke="#666" stroke-width="2" marker-end="url(#arrow)"/><path d="M131.89953848298467,254.90603283788616 Q165.01718255113067,218.10816893753017 148.6743279600361,160.8230956907804" fill="none" stroke="#666" stroke-width="2" marker-end="url(#arrow)"/><path d="M216.61560213360767,130.77214749862375 Q247.89346654016472,136.0171825511307 258.9612854600814,91.80171894439707" fill="none" stroke="#666" stroke-width="2" marker-end="url(#arrow)"/><rect x="255.15526208564575" y="60" width="100" height="46" rx="8" fill="#e3f2fd" stroke="#1565c0" stroke-width="2"/><text x="305.15526208564575" y="89.3" text-anchor="middle" font-weight="bold">Plan</text><rect x="391.7366577282707" y="116.57386644302082" width="100" height="46" rx="8" fill="#e8f5e9" stroke="#2e7d32" stroke-width="2"/><text x="441.7366577282707" y="145.87386644302083" text-anchor="middle" font-weight="bold">Code</text><rect x="448.3105241712915" y="253.15526208564575" width="100" height="46" rx="8" fill="#fff8e1" stroke="#f57f17" stroke-width="2"/><text x="498.3105241712915" y="282.45526208564576" text-anchor="middle" font-weight="bold">Build</text><rect x="391.7366577282707" y="389.73665772827064" width="100" height="46" rx="8" fill="#f3e5f5" stroke="#7b1fa2" stroke-width="2"/><text x="441.7366577282707" y="419.03665772827065" text-anchor="middle" font-weight="bold">Test</text><rect x="253.15526208564575" y="446.3105241712915" width="104" height="46" rx="8" fill="#e0f2f1" stroke="#00695c" stroke-width="2"/><text x="305.15526208564575" y="475.6105241712915" text-anchor="middle" font-weight="bold">Release</text><rect x="118.57386644302082" y="389.7366577282707" width="100" height="46" rx="8" fill="#fce4ec" stroke="#c62828" stroke-width="2"/><text x="168.57386644302082" y="419.0366577282707" text-anchor="middle" font-weight="bold">Deploy</text><rect x="60" y="253.15526208564575" width="104" height="46" rx="8" fill="#e8eaf6" stroke="#283593" stroke-width="2"/><text x="112" y="282.45526208564576" text-anchor="middle" font-weight="bold">Operate</text><rect x="116.57386644302076" y="116.57386644302082" width="104" height="46" rx="8" fill="#fff3e0" stroke="#e65100" stroke-width="2"/><text x="168.57386644302076" y="145.87386644302083" text-anchor="middle" font-weight="bold">Monitor</text></svg>