<svg xmlns="http://www.w3.org/2000/svg" width="582.7692307692307" height="528.7692307692307" viewBox="0 0 582.7692307692307 528.7692307692307"><rect width="100%" height="100%" fill="white"/><style>text { font-family: sans-serif; font-size: 13px; fill: #333; }</style><defs><marker id="arrow" viewBox="0 0 10 10" refX="10" refY="5" markerWidth="8" markerHeight="8" orient="auto"><polygon points="0,1 10,5 0,9" fill="#666"/></marker></defs><text x="291.38461538461536" y="270.38461538461536" text-anchor="middle" font-size="16" font-weight="bold" fill="#333">PDCA</text><path d="M326.73995444394274,160.64807135190594 Q342.38461538461536,213.38461538461536 376.029276325288,248.12115941732478" fill="none" stroke="#666" stroke-width="2" marker-end="url(#arrow)"/><path d="M376.029276325288,280.64807135190597 Q342.38461538461536,315.38461538461536 326.73995444394274,368.12115941732475" fill="none" stroke="#666" stroke-width="2" marker-end="url(#arrow)"/><path d="M256.029276325288,368.12115941732475 Q240.38461538461536,315.38461538461536 206.73995444394274,280.64807135190597" fill="none" stroke="#666" stroke-width="2" marker-end="url(#arrow)"/><path d="M206.73995444394274,248.12115941732478 Q240.38461538461536,213.38461538461536 256.029276325288,160.64807135190594" fill="none" stroke="#666" stroke-width="2" marker-end="url(#arrow)"/><rect x="241.38461538461536" y="121.38461538461536" width="100" height="46" rx="8" fill="#e3f2fd" stroke="#1565c0" stroke-width="2"/><text x="291.38461538461536" y="150.68461538461537" text-anchor="middle" font-weight="bold">計画</text><line x1="291.38461538461536" y1="121.38461538461536" x2="291.38461538461536" y2="68.06153846153843" stroke="#ccc" stroke-width="1"/><circle cx="291.38461538461536" cy="121.38461538461536" r="2.5" fill="#1565c0"/><text x="291.38461538461536" y="56.911538461538434" text-anchor="middle" font-size="11" fill="#666">目標設定</text><text x="291.38461538461536" y="70.91153846153843" text-anchor="middle" font-size="11" fill="#666">行動計画策定</text><rect x="361.38461538461536" y="241.38461538461536" width="100" height="46" rx="8" fill="#e8f5e9" stroke="#2e7d32" stroke-width="2"/><text x="411.38461538461536" y="270.68461538461537" text-anchor="middle" font-weight="bold">実行</text><line x1="461.38461538461536" y1="264.38461538461536" x2="521.8153846153846" y2="264.38461538461536" stroke="#ccc" stroke-width="1"/><circle cx="461.38461538461536" cy="264.38461538461536" r="2.5" fill="#2e7d32"/><text x="529.8153846153846" y="268.2346153846154" text-anchor="start" font-size="11" fill="#666">計画に基づき実施</text><rect x="241.38461538461536" y="361.38461538461536" width="100" height="46" rx="8" fill="#fff8e1" stroke="#f57f17" stroke-width="2"/><text x="291.38461538461536" y="390.68461538461537" text-anchor="middle" font-weight="bold">評価</text><line x1="291.38461538461536" y1="407.38461538461536" x2="291.38461538461536" y2="457.15384615384613" stroke="#ccc" stroke-width="1"/><circle cx="291.38461538461536" cy="407.38461538461536" r="2.5" fill="#f57f17"/><text x="291.38461538461536" y="462.00384615384615" text-anchor="middle" font-size="11" fill="#666">結果の測定</text><text x="291.38461538461536" y="476.00384615384615" text-anchor="middle" font-size="11" fill="#666">分析・検証</text><rect x="121.38461538461536" y="241.38461538461536" width="100" height="46" rx="8" fill="#f3e5f5" stroke="#7b1fa2" stroke-width="2"/><text x="171.38461538461536" y="270.68461538461537" text-anchor="middle" font-weight="bold">改善</text><line x1="121.38461538461536" y1="264.38461538461536" x2="68.06153846153843" y2="264.38461538461536" stroke="#ccc" stroke-width="1"/><circle cx="121.38461538461536" cy="264.38461538461536" r="2.5" fill="#7b1fa2"/><text x="60.06153846153843" y="261.2346153846154" text-anchor="end" font-size="11" fill="#666">改善策の立案</text><text x="60.06153846153843" y="275.2346153846154" text-anchor="end" font-size="11" fill="#666">標準化</text></svg>