<svg xmlns="http://www.w3.org/2000/svg" width="761.9422186552524" height="633.9422186552524" viewBox="0 0 761.9422186552524 633.9422186552524"><rect width="100%" height="100%" fill="white"/><style>text { font-family: sans-serif; font-size: 13px; fill: #333; }</style><defs><marker id="arrow" viewBox="0 0 10 10" refX="10" refY="5" markerWidth="8" markerHeight="8" orient="auto"><polygon points="0,1 10,5 0,9" fill="#666"/></marker></defs><text x="380.9711093276262" y="322.9711093276262" text-anchor="middle" font-size="16" font-weight="bold" fill="#333">Scrum</text><path d="M444.1909638038902,94.5 Q467.0867022101002,167.8145271312645 520.3761792807128,188.4855546638131" fill="none" stroke="#666" stroke-width="2" marker-end="url(#arrow)"/><path d="M583.5960337569768,222.9855546638131 Q553.2022950925742,316.9711093276262 583.5960337569768,410.95666399143926" fill="none" stroke="#666" stroke-width="2" marker-end="url(#arrow)"/><path d="M540.2947635677549,445.45666399143926 Q478.1285261083518,466.1276915239879 450.25314163038126,539.4422186552524" fill="none" stroke="#666" stroke-width="2" marker-end="url(#arrow)"/><path d="M311.6890770248711,539.4422186552524 Q284.5498141401174,466.12769152398795 223.37950589506653,445.45666399143937" fill="none" stroke="#666" stroke-width="2" marker-end="url(#arrow)"/><path d="M178.34618489827568,410.95666399143937 Q208.73992356267826,316.9711093276263 178.34618489827565,222.98555466381325" fill="none" stroke="#666" stroke-width="2" marker-end="url(#arrow)"/><path d="M253.69039502752173,188.48555466381325 Q300.0083675976696,167.81452713126455 317.7512548513622,94.5" fill="none" stroke="#666" stroke-width="2" marker-end="url(#arrow)"/><rect x="307.9711093276262" y="60" width="146" height="46" rx="8" fill="#e3f2fd" stroke="#1565c0" stroke-width="2"/><text x="380.9711093276262" y="89.3" text-anchor="middle" font-weight="bold">バックログ整理</text><rect x="510.5960337569768" y="176.9855546638131" width="146" height="46" rx="8" fill="#e8f5e9" stroke="#2e7d32" stroke-width="2"/><text x="583.5960337569768" y="206.28555466381312" text-anchor="middle" font-weight="bold">スプリント計画</text><rect x="533.5960337569768" y="410.95666399143926" width="100" height="46" rx="8" fill="#fff8e1" stroke="#f57f17" stroke-width="2"/><text x="583.5960337569768" y="440.25666399143927" text-anchor="middle" font-weight="bold">開発</text><rect x="300.9711093276262" y="527.9422186552524" width="160" height="46" rx="8" fill="#f3e5f5" stroke="#7b1fa2" stroke-width="2"/><text x="380.9711093276262" y="557.2422186552524" text-anchor="middle" font-weight="bold">デイリースクラム</text><rect x="126.34618489827571" y="410.95666399143937" width="104" height="46" rx="8" fill="#e0f2f1" stroke="#00695c" stroke-width="2"/><text x="178.3461848982757" y="440.2566639914394" text-anchor="middle" font-weight="bold">レビュー</text><rect x="91.3461848982756" y="176.98555466381325" width="174" height="46" rx="8" fill="#fce4ec" stroke="#c62828" stroke-width="2"/><text x="178.3461848982756" y="206.28555466381326" text-anchor="middle" font-weight="bold">レトロスペクティブ</text></svg>