<svg xmlns="http://www.w3.org/2000/svg" width="460" height="406" viewBox="0 0 460 406"><rect width="100%" height="100%" fill="white"/><style>text { font-family: sans-serif; font-size: 13px; fill: #333; }</style><defs><marker id="arrow" viewBox="0 0 10 10" refX="10" refY="5" markerWidth="8" markerHeight="8" orient="auto"><polygon points="0,1 10,5 0,9" fill="#666"/></marker></defs><path d="M265.3553390593274,99.2634559672906 Q281,152 314.6446609406726,186.73654403270942" fill="none" stroke="#666" stroke-width="2" marker-end="url(#arrow)"/><path d="M314.6446609406726,219.26345596729058 Q281,254 265.3553390593274,306.7365440327094" fill="none" stroke="#666" stroke-width="2" marker-end="url(#arrow)"/><path d="M194.64466094067262,306.7365440327094 Q179,254 145.35533905932738,219.2634559672906" fill="none" stroke="#666" stroke-width="2" marker-end="url(#arrow)"/><path d="M145.35533905932738,186.73654403270945 Q179,152.00000000000003 194.64466094067262,99.2634559672906" fill="none" stroke="#666" stroke-width="2" marker-end="url(#arrow)"/><rect x="180" y="60" width="100" height="46" rx="8" fill="#e3f2fd" stroke="#1565c0" stroke-width="2"/><text x="230" y="89.3" text-anchor="middle" font-weight="bold">Plan</text><rect x="300" y="180" width="100" height="46" rx="8" fill="#e8f5e9" stroke="#2e7d32" stroke-width="2"/><text x="350" y="209.3" text-anchor="middle" font-weight="bold">Do</text><rect x="180" y="300" width="100" height="46" rx="8" fill="#fff8e1" stroke="#f57f17" stroke-width="2"/><text x="230" y="329.3" text-anchor="middle" font-weight="bold">Check</text><rect x="60" y="180.00000000000003" width="100" height="46" rx="8" fill="#f3e5f5" stroke="#7b1fa2" stroke-width="2"/><text x="110" y="209.30000000000004" text-anchor="middle" font-weight="bold">Act</text></svg>