<svg xmlns="http://www.w3.org/2000/svg" width="965.9099999999997" height="683" viewBox="0 0 965.9099999999997 683"><rect width="100%" height="100%" fill="white"/><style>text { font-family: sans-serif; font-size: 13px; fill: #333; }</style><rect x="40" y="40" width="368.70000000000005" height="126" rx="4" fill="#fff" stroke="#aaa" stroke-width="1"/><rect x="40" y="40" width="368.70000000000005" height="28" rx="4" fill="#e8f5e9"/><rect x="40" y="64" width="368.70000000000005" height="4" fill="#e8f5e9"/><text x="224.35000000000002" y="59.599999999999994" text-anchor="middle" font-weight="bold" fill="#2e7d32">users (ユーザー)</text><rect x="56" y="72.5" width="20" height="12" rx="2" fill="#fff8e1" stroke="none"/><text x="66" y="80.5" font-size="8" font-weight="bold" fill="#c8a415" text-anchor="middle">PK</text><text x="80" y="81.5" font-size="11" fill="#333" font-weight="bold">id</text><text x="192" y="81.5" font-size="10" fill="#999">ID</text><text x="311.1" y="81.5" font-size="10" font-family="monospace" fill="#aaa">BIGINT</text><rect x="56" y="90.5" width="20" height="12" rx="2" fill="#e3f2fd" stroke="none"/><text x="66" y="98.5" font-size="8" font-weight="bold" fill="#1565c0" text-anchor="middle">UK</text><text x="80" y="99.5" font-size="11" fill="#333" font-weight="bold">email</text><text x="192" y="99.5" font-size="10" fill="#999">メールアドレス</text><text x="311.1" y="99.5" font-size="10" font-family="monospace" fill="#aaa">VARCHAR(255)</text><text x="80" y="117.5" font-size="11" fill="#555">name</text><text x="192" y="117.5" font-size="10" fill="#999">氏名</text><text x="311.1" y="117.5" font-size="10" font-family="monospace" fill="#aaa">VARCHAR(100)</text><text x="80" y="135.5" font-size="11" fill="#555">password_hash</text><text x="192" y="135.5" font-size="10" fill="#999">パスワードハッシュ</text><text x="311.1" y="135.5" font-size="10" font-family="monospace" fill="#aaa">VARCHAR(255)</text><text x="80" y="153.5" font-size="11" fill="#555">created_at</text><text x="192" y="153.5" font-size="10" fill="#999">作成日時</text><text x="311.1" y="153.5" font-size="10" font-family="monospace" fill="#aaa">TIMESTAMP</text><rect x="40.00000000000006" y="260.5" width="353.59999999999997" height="144" rx="4" fill="#fff" stroke="#aaa" stroke-width="1"/><rect x="40.00000000000006" y="260.5" width="353.59999999999997" height="28" rx="4" fill="#e8f5e9"/><rect x="40.00000000000006" y="284.5" width="353.59999999999997" height="4" fill="#e8f5e9"/><text x="216.80000000000004" y="280.1" text-anchor="middle" font-weight="bold" fill="#2e7d32">orders (注文)</text><rect x="56.00000000000006" y="293" width="20" height="12" rx="2" fill="#fff8e1" stroke="none"/><text x="66.00000000000006" y="301" font-size="8" font-weight="bold" fill="#c8a415" text-anchor="middle">PK</text><text x="80.00000000000006" y="302" font-size="11" fill="#333" font-weight="bold">id</text><text x="216.00000000000006" y="302" font-size="10" fill="#999">ID</text><text x="289.20000000000005" y="302" font-size="10" font-family="monospace" fill="#aaa">BIGINT</text><rect x="56.00000000000006" y="311" width="20" height="12" rx="2" fill="#f3e5f5" stroke="none"/><text x="66.00000000000006" y="319" font-size="8" font-weight="bold" fill="#7b1fa2" text-anchor="middle">FK</text><text x="80.00000000000006" y="320" font-size="11" fill="#555">user_id</text><text x="216.00000000000006" y="320" font-size="10" fill="#999">ユーザーID</text><text x="289.20000000000005" y="320" font-size="10" font-family="monospace" fill="#aaa">BIGINT</text><text x="80.00000000000006" y="338" font-size="11" fill="#555">order_date</text><text x="216.00000000000006" y="338" font-size="10" fill="#999">注文日</text><text x="289.20000000000005" y="338" font-size="10" font-family="monospace" fill="#aaa">DATE</text><text x="80.00000000000006" y="356" font-size="11" fill="#555">total</text><text x="216.00000000000006" y="356" font-size="10" fill="#999">合計金額</text><text x="289.20000000000005" y="356" font-size="10" font-family="monospace" fill="#aaa">DECIMAL(10,2)</text><text x="80.00000000000006" y="374" font-size="11" fill="#555">status</text><text x="216.00000000000006" y="374" font-size="10" fill="#999">ステータス</text><text x="289.20000000000005" y="374" font-size="10" font-family="monospace" fill="#aaa">VARCHAR(20)</text><text x="80.00000000000006" y="392" font-size="11" fill="#555">shipping_address</text><text x="216.00000000000006" y="392" font-size="10" fill="#999">配送先</text><text x="289.20000000000005" y="392" font-size="10" font-family="monospace" fill="#aaa">TEXT</text><rect x="260.7699999999998" y="499" width="281.8" height="126" rx="4" fill="#fff" stroke="#aaa" stroke-width="1"/><rect x="260.7699999999998" y="499" width="281.8" height="28" rx="4" fill="#e8f5e9"/><rect x="260.7699999999998" y="523" width="281.8" height="4" fill="#e8f5e9"/><text x="401.66999999999985" y="518.6" text-anchor="middle" font-weight="bold" fill="#2e7d32">order_items (注文明細)</text><rect x="276.7699999999998" y="531.5" width="20" height="12" rx="2" fill="#fff8e1" stroke="none"/><text x="286.7699999999998" y="539.5" font-size="8" font-weight="bold" fill="#c8a415" text-anchor="middle">PK</text><text x="300.7699999999998" y="540.5" font-size="11" fill="#333" font-weight="bold">id</text><text x="388.7699999999998" y="540.5" font-size="10" fill="#999">ID</text><text x="438.1699999999998" y="540.5" font-size="10" font-family="monospace" fill="#aaa">BIGINT</text><rect x="276.7699999999998" y="549.5" width="20" height="12" rx="2" fill="#f3e5f5" stroke="none"/><text x="286.7699999999998" y="557.5" font-size="8" font-weight="bold" fill="#7b1fa2" text-anchor="middle">FK</text><text x="300.7699999999998" y="558.5" font-size="11" fill="#555">order_id</text><text x="388.7699999999998" y="558.5" font-size="10" fill="#999">注文ID</text><text x="438.1699999999998" y="558.5" font-size="10" font-family="monospace" fill="#aaa">BIGINT</text><rect x="276.7699999999998" y="567.5" width="20" height="12" rx="2" fill="#f3e5f5" stroke="none"/><text x="286.7699999999998" y="575.5" font-size="8" font-weight="bold" fill="#7b1fa2" text-anchor="middle">FK</text><text x="300.7699999999998" y="576.5" font-size="11" fill="#555">product_id</text><text x="388.7699999999998" y="576.5" font-size="10" fill="#999">商品ID</text><text x="438.1699999999998" y="576.5" font-size="10" font-family="monospace" fill="#aaa">BIGINT</text><text x="300.7699999999998" y="594.5" font-size="11" fill="#555">quantity</text><text x="388.7699999999998" y="594.5" font-size="10" fill="#999">数量</text><text x="438.1699999999998" y="594.5" font-size="10" font-family="monospace" fill="#aaa">INT</text><text x="300.7699999999998" y="612.5" font-size="11" fill="#555">unit_price</text><text x="388.7699999999998" y="612.5" font-size="10" fill="#999">単価</text><text x="438.1699999999998" y="612.5" font-size="10" font-family="monospace" fill="#aaa">DECIMAL(10,2)</text><rect x="498.54" y="260.5" width="313.59999999999997" height="144" rx="4" fill="#fff" stroke="#aaa" stroke-width="1"/><rect x="498.54" y="260.5" width="313.59999999999997" height="28" rx="4" fill="#e8f5e9"/><rect x="498.54" y="284.5" width="313.59999999999997" height="4" fill="#e8f5e9"/><text x="655.34" y="280.1" text-anchor="middle" font-weight="bold" fill="#2e7d32">products (商品)</text><rect x="514.54" y="293" width="20" height="12" rx="2" fill="#fff8e1" stroke="none"/><text x="524.54" y="301" font-size="8" font-weight="bold" fill="#c8a415" text-anchor="middle">PK</text><text x="538.54" y="302" font-size="11" fill="#333" font-weight="bold">id</text><text x="634.54" y="302" font-size="10" fill="#999">ID</text><text x="707.74" y="302" font-size="10" font-family="monospace" fill="#aaa">BIGINT</text><text x="538.54" y="320" font-size="11" fill="#555">name</text><text x="634.54" y="320" font-size="10" fill="#999">商品名</text><text x="707.74" y="320" font-size="10" font-family="monospace" fill="#aaa">VARCHAR(200)</text><text x="538.54" y="338" font-size="11" fill="#555">description</text><text x="634.54" y="338" font-size="10" fill="#999">説明</text><text x="707.74" y="338" font-size="10" font-family="monospace" fill="#aaa">TEXT</text><text x="538.54" y="356" font-size="11" fill="#555">price</text><text x="634.54" y="356" font-size="10" fill="#999">価格</text><text x="707.74" y="356" font-size="10" font-family="monospace" fill="#aaa">DECIMAL(10,2)</text><text x="538.54" y="374" font-size="11" fill="#555">stock</text><text x="634.54" y="374" font-size="10" fill="#999">在庫数</text><text x="707.74" y="374" font-size="10" font-family="monospace" fill="#aaa">INT</text><rect x="514.54" y="383" width="20" height="12" rx="2" fill="#f3e5f5" stroke="none"/><text x="524.54" y="391" font-size="8" font-weight="bold" fill="#7b1fa2" text-anchor="middle">FK</text><text x="538.54" y="392" font-size="11" fill="#555">category_id</text><text x="634.54" y="392" font-size="10" fill="#999">カテゴリID</text><text x="707.74" y="392" font-size="10" font-family="monospace" fill="#aaa">BIGINT</text><rect x="513.64" y="40" width="302.7" height="90" rx="4" fill="#fff" stroke="#aaa" stroke-width="1"/><rect x="513.64" y="40" width="302.7" height="28" rx="4" fill="#e8f5e9"/><rect x="513.64" y="64" width="302.7" height="4" fill="#e8f5e9"/><text x="664.99" y="59.599999999999994" text-anchor="middle" font-weight="bold" fill="#2e7d32">categories (カテゴリ)</text><rect x="529.64" y="72.5" width="20" height="12" rx="2" fill="#fff8e1" stroke="none"/><text x="539.64" y="80.5" font-size="8" font-weight="bold" fill="#c8a415" text-anchor="middle">PK</text><text x="553.64" y="81.5" font-size="11" fill="#333" font-weight="bold">id</text><text x="633.64" y="81.5" font-size="10" fill="#999">ID</text><text x="718.74" y="81.5" font-size="10" font-family="monospace" fill="#aaa">BIGINT</text><rect x="529.64" y="90.5" width="20" height="12" rx="2" fill="#e3f2fd" stroke="none"/><text x="539.64" y="98.5" font-size="8" font-weight="bold" fill="#1565c0" text-anchor="middle">UK</text><text x="553.64" y="99.5" font-size="11" fill="#333" font-weight="bold">name</text><text x="633.64" y="99.5" font-size="10" fill="#999">カテゴリ名</text><text x="718.74" y="99.5" font-size="10" font-family="monospace" fill="#aaa">VARCHAR(100)</text><rect x="529.64" y="108.5" width="20" height="12" rx="2" fill="#f3e5f5" stroke="none"/><text x="539.64" y="116.5" font-size="8" font-weight="bold" fill="#7b1fa2" text-anchor="middle">FK</text><text x="553.64" y="117.5" font-size="11" fill="#555">parent_id</text><text x="633.64" y="117.5" font-size="10" fill="#999">親カテゴリID</text><text x="718.74" y="117.5" font-size="10" font-family="monospace" fill="#aaa">BIGINT</text><rect x="647.5099999999998" y="499" width="278.4" height="144" rx="4" fill="#fff" stroke="#aaa" stroke-width="1"/><rect x="647.5099999999998" y="499" width="278.4" height="28" rx="4" fill="#e8f5e9"/><rect x="647.5099999999998" y="523" width="278.4" height="4" fill="#e8f5e9"/><text x="786.7099999999998" y="518.6" text-anchor="middle" font-weight="bold" fill="#2e7d32">reviews (レビュー)</text><rect x="663.5099999999998" y="531.5" width="20" height="12" rx="2" fill="#fff8e1" stroke="none"/><text x="673.5099999999998" y="539.5" font-size="8" font-weight="bold" fill="#c8a415" text-anchor="middle">PK</text><text x="687.5099999999998" y="540.5" font-size="11" fill="#333" font-weight="bold">id</text><text x="775.5099999999998" y="540.5" font-size="10" fill="#999">ID</text><text x="848.7099999999998" y="540.5" font-size="10" font-family="monospace" fill="#aaa">BIGINT</text><rect x="663.5099999999998" y="549.5" width="20" height="12" rx="2" fill="#f3e5f5" stroke="none"/><text x="673.5099999999998" y="557.5" font-size="8" font-weight="bold" fill="#7b1fa2" text-anchor="middle">FK</text><text x="687.5099999999998" y="558.5" font-size="11" fill="#555">user_id</text><text x="775.5099999999998" y="558.5" font-size="10" fill="#999">ユーザーID</text><text x="848.7099999999998" y="558.5" font-size="10" font-family="monospace" fill="#aaa">BIGINT</text><rect x="663.5099999999998" y="567.5" width="20" height="12" rx="2" fill="#f3e5f5" stroke="none"/><text x="673.5099999999998" y="575.5" font-size="8" font-weight="bold" fill="#7b1fa2" text-anchor="middle">FK</text><text x="687.5099999999998" y="576.5" font-size="11" fill="#555">product_id</text><text x="775.5099999999998" y="576.5" font-size="10" fill="#999">商品ID</text><text x="848.7099999999998" y="576.5" font-size="10" font-family="monospace" fill="#aaa">BIGINT</text><text x="687.5099999999998" y="594.5" font-size="11" fill="#555">rating</text><text x="775.5099999999998" y="594.5" font-size="10" fill="#999">評価</text><text x="848.7099999999998" y="594.5" font-size="10" font-family="monospace" fill="#aaa">SMALLINT</text><text x="687.5099999999998" y="612.5" font-size="11" fill="#555">comment</text><text x="775.5099999999998" y="612.5" font-size="10" fill="#999">コメント</text><text x="848.7099999999998" y="612.5" font-size="10" font-family="monospace" fill="#aaa">TEXT</text><text x="687.5099999999998" y="630.5" font-size="11" fill="#555">created_at</text><text x="775.5099999999998" y="630.5" font-size="10" fill="#999">作成日時</text><text x="848.7099999999998" y="630.5" font-size="10" font-family="monospace" fill="#aaa">TIMESTAMP</text><path d="M223.15158730158734,110 L217.99841269841272,260.5" fill="none" stroke="#666" stroke-width="1.5"/><text x="217.99841269841272" y="254.5" text-anchor="middle" font-size="12" font-weight="bold" fill="#666">1</text><text x="223.15158730158734" y="104" text-anchor="middle" font-size="12" font-weight="bold" fill="#666">*</text><path d="M243.92976939203356,330.5 L374.54023060796635,499" fill="none" stroke="#666" stroke-width="1.5"/><text x="374.54023060796635" y="493" text-anchor="middle" font-size="12" font-weight="bold" fill="#666">1</text><text x="243.92976939203356" y="324.5" text-anchor="middle" font-size="12" font-weight="bold" fill="#666">*</text><path d="M618.1137945492662,330.5 L438.89620545073365,499" fill="none" stroke="#666" stroke-width="1.5"/><text x="438.89620545073365" y="493" text-anchor="middle" font-size="12" font-weight="bold" fill="#666">1</text><text x="618.1137945492662" y="324.5" text-anchor="middle" font-size="12" font-weight="bold" fill="#666">*</text><path d="M663.458253968254,110 L656.871746031746,260.5" fill="none" stroke="#666" stroke-width="1.5"/><text x="656.871746031746" y="254.5" text-anchor="middle" font-size="12" font-weight="bold" fill="#666">1</text><text x="663.458253968254" y="104" text-anchor="middle" font-size="12" font-weight="bold" fill="#666">*</text><path d="M334.465873015873,110 Q918.0799999999998,295.5 805.9886163522011,499" fill="none" stroke="#666" stroke-width="1.5"/><text x="352.5339645059454" y="109.80126953125" text-anchor="middle" font-size="12" font-weight="bold" fill="#666">1</text><text x="814.9685337655477" y="473.96142578125" text-anchor="middle" font-size="12" font-weight="bold" fill="#666">*</text><path d="M674.6186163522012,330.5 L767.4313836477986,499" fill="none" stroke="#666" stroke-width="1.5"/><text x="767.4313836477986" y="493" text-anchor="middle" font-size="12" font-weight="bold" fill="#666">1</text><text x="674.6186163522012" y="324.5" text-anchor="middle" font-size="12" font-weight="bold" fill="#666">*</text></svg>