<svg xmlns="http://www.w3.org/2000/svg" width="701.5899999999999" height="683" viewBox="0 0 701.5899999999999 683"><rect width="100%" height="100%" fill="white"/><style>text { font-family: sans-serif; font-size: 13px; fill: #333; }</style><rect x="40" y="40" width="278.4" height="126" rx="4" fill="#fff" stroke="#aaa" stroke-width="1"/><rect x="40" y="40" width="278.4" height="28" rx="4" fill="#e8f5e9"/><rect x="40" y="64" width="278.4" height="4" fill="#e8f5e9"/><text x="179.2" y="59.599999999999994" text-anchor="middle" font-weight="bold" fill="#2e7d32">ユーザー (users)</text><rect x="56" y="72.5" width="20" height="12" rx="2" fill="#fff8e1" stroke="none"/><text x="66" y="80.5" font-size="8" font-weight="bold" fill="#c8a415" text-anchor="middle">PK</text><text x="80" y="81.5" font-size="11" fill="#333" font-weight="bold">ID</text><text x="214" y="81.5" font-size="10" font-family="monospace" fill="#999">id</text><rect x="56" y="90.5" width="20" height="12" rx="2" fill="#e3f2fd" stroke="none"/><text x="66" y="98.5" font-size="8" font-weight="bold" fill="#1565c0" text-anchor="middle">UK</text><text x="80" y="99.5" font-size="11" fill="#333" font-weight="bold">メールアドレス</text><text x="214" y="99.5" font-size="10" font-family="monospace" fill="#999">email</text><text x="80" y="117.5" font-size="11" fill="#555">氏名</text><text x="214" y="117.5" font-size="10" font-family="monospace" fill="#999">name</text><text x="80" y="135.5" font-size="11" fill="#555">パスワードハッシュ</text><text x="214" y="135.5" font-size="10" font-family="monospace" fill="#999">password_hash</text><text x="80" y="153.5" font-size="11" fill="#555">作成日時</text><text x="214" y="153.5" font-size="10" font-family="monospace" fill="#999">created_at</text><rect x="40" y="260.5" width="244.8" height="144" rx="4" fill="#fff" stroke="#aaa" stroke-width="1"/><rect x="40" y="260.5" width="244.8" height="28" rx="4" fill="#e8f5e9"/><rect x="40" y="284.5" width="244.8" height="4" fill="#e8f5e9"/><text x="162.4" y="280.1" text-anchor="middle" font-weight="bold" fill="#2e7d32">注文 (orders)</text><rect x="56" y="293" width="20" height="12" rx="2" fill="#fff8e1" stroke="none"/><text x="66" y="301" font-size="8" font-weight="bold" fill="#c8a415" text-anchor="middle">PK</text><text x="80" y="302" font-size="11" fill="#333" font-weight="bold">ID</text><text x="160" y="302" font-size="10" font-family="monospace" fill="#999">id</text><rect x="56" y="311" width="20" height="12" rx="2" fill="#f3e5f5" stroke="none"/><text x="66" y="319" font-size="8" font-weight="bold" fill="#7b1fa2" text-anchor="middle">FK</text><text x="80" y="320" font-size="11" fill="#555">ユーザーID</text><text x="160" y="320" font-size="10" font-family="monospace" fill="#999">user_id</text><text x="80" y="338" font-size="11" fill="#555">注文日</text><text x="160" y="338" font-size="10" font-family="monospace" fill="#999">order_date</text><text x="80" y="356" font-size="11" fill="#555">合計金額</text><text x="160" y="356" font-size="10" font-family="monospace" fill="#999">total</text><text x="80" y="374" font-size="11" fill="#555">ステータス</text><text x="160" y="374" font-size="10" font-family="monospace" fill="#999">status</text><text x="80" y="392" font-size="11" fill="#555">配送先</text><text x="160" y="392" font-size="10" font-family="monospace" fill="#999">shipping_address</text><rect x="180.12999999999994" y="499" width="200" height="126" rx="4" fill="#fff" stroke="#aaa" stroke-width="1"/><rect x="180.12999999999994" y="499" width="200" height="28" rx="4" fill="#e8f5e9"/><rect x="180.12999999999994" y="523" width="200" height="4" fill="#e8f5e9"/><text x="280.12999999999994" y="518.6" text-anchor="middle" font-weight="bold" fill="#2e7d32">注文明細 (order_items)</text><rect x="196.12999999999994" y="531.5" width="20" height="12" rx="2" fill="#fff8e1" stroke="none"/><text x="206.12999999999994" y="539.5" font-size="8" font-weight="bold" fill="#c8a415" text-anchor="middle">PK</text><text x="220.12999999999994" y="540.5" font-size="11" fill="#333" font-weight="bold">ID</text><text x="272.12999999999994" y="540.5" font-size="10" font-family="monospace" fill="#999">id</text><rect x="196.12999999999994" y="549.5" width="20" height="12" rx="2" fill="#f3e5f5" stroke="none"/><text x="206.12999999999994" y="557.5" font-size="8" font-weight="bold" fill="#7b1fa2" text-anchor="middle">FK</text><text x="220.12999999999994" y="558.5" font-size="11" fill="#555">注文ID</text><text x="272.12999999999994" y="558.5" font-size="10" font-family="monospace" fill="#999">order_id</text><rect x="196.12999999999994" y="567.5" width="20" height="12" rx="2" fill="#f3e5f5" stroke="none"/><text x="206.12999999999994" y="575.5" font-size="8" font-weight="bold" fill="#7b1fa2" text-anchor="middle">FK</text><text x="220.12999999999994" y="576.5" font-size="11" fill="#555">商品ID</text><text x="272.12999999999994" y="576.5" font-size="10" font-family="monospace" fill="#999">product_id</text><text x="220.12999999999994" y="594.5" font-size="11" fill="#555">数量</text><text x="272.12999999999994" y="594.5" font-size="10" font-family="monospace" fill="#999">quantity</text><text x="220.12999999999994" y="612.5" font-size="11" fill="#555">単価</text><text x="272.12999999999994" y="612.5" font-size="10" font-family="monospace" fill="#999">unit_price</text><rect x="362.26" y="260.5" width="210.8" height="144" rx="4" fill="#fff" stroke="#aaa" stroke-width="1"/><rect x="362.26" y="260.5" width="210.8" height="28" rx="4" fill="#e8f5e9"/><rect x="362.26" y="284.5" width="210.8" height="4" fill="#e8f5e9"/><text x="467.65999999999997" y="280.1" text-anchor="middle" font-weight="bold" fill="#2e7d32">商品 (products)</text><rect x="378.26" y="293" width="20" height="12" rx="2" fill="#fff8e1" stroke="none"/><text x="388.26" y="301" font-size="8" font-weight="bold" fill="#c8a415" text-anchor="middle">PK</text><text x="402.26" y="302" font-size="11" fill="#333" font-weight="bold">ID</text><text x="482.26" y="302" font-size="10" font-family="monospace" fill="#999">id</text><text x="402.26" y="320" font-size="11" fill="#555">商品名</text><text x="482.26" y="320" font-size="10" font-family="monospace" fill="#999">name</text><text x="402.26" y="338" font-size="11" fill="#555">説明</text><text x="482.26" y="338" font-size="10" font-family="monospace" fill="#999">description</text><text x="402.26" y="356" font-size="11" fill="#555">価格</text><text x="482.26" y="356" font-size="10" font-family="monospace" fill="#999">price</text><text x="402.26" y="374" font-size="11" fill="#555">在庫数</text><text x="482.26" y="374" font-size="10" font-family="monospace" fill="#999">stock</text><rect x="378.26" y="383" width="20" height="12" rx="2" fill="#f3e5f5" stroke="none"/><text x="388.26" y="391" font-size="8" font-weight="bold" fill="#7b1fa2" text-anchor="middle">FK</text><text x="402.26" y="392" font-size="11" fill="#555">カテゴリID</text><text x="482.26" y="392" font-size="10" font-family="monospace" fill="#999">category_id</text><rect x="395.85999999999996" y="40" width="211.2" height="90" rx="4" fill="#fff" stroke="#aaa" stroke-width="1"/><rect x="395.85999999999996" y="40" width="211.2" height="28" rx="4" fill="#e8f5e9"/><rect x="395.85999999999996" y="64" width="211.2" height="4" fill="#e8f5e9"/><text x="501.4599999999999" y="59.599999999999994" text-anchor="middle" font-weight="bold" fill="#2e7d32">カテゴリ (categories)</text><rect x="411.85999999999996" y="72.5" width="20" height="12" rx="2" fill="#fff8e1" stroke="none"/><text x="421.85999999999996" y="80.5" font-size="8" font-weight="bold" fill="#c8a415" text-anchor="middle">PK</text><text x="435.85999999999996" y="81.5" font-size="11" fill="#333" font-weight="bold">ID</text><text x="529.8599999999999" y="81.5" font-size="10" font-family="monospace" fill="#999">id</text><rect x="411.85999999999996" y="90.5" width="20" height="12" rx="2" fill="#e3f2fd" stroke="none"/><text x="421.85999999999996" y="98.5" font-size="8" font-weight="bold" fill="#1565c0" text-anchor="middle">UK</text><text x="435.85999999999996" y="99.5" font-size="11" fill="#333" font-weight="bold">カテゴリ名</text><text x="529.8599999999999" y="99.5" font-size="10" font-family="monospace" fill="#999">name</text><rect x="411.85999999999996" y="108.5" width="20" height="12" rx="2" fill="#f3e5f5" stroke="none"/><text x="421.85999999999996" y="116.5" font-size="8" font-weight="bold" fill="#7b1fa2" text-anchor="middle">FK</text><text x="435.85999999999996" y="117.5" font-size="11" fill="#555">親カテゴリID</text><text x="529.8599999999999" y="117.5" font-size="10" font-family="monospace" fill="#999">parent_id</text><rect x="457.5899999999999" y="499" width="204" height="144" rx="4" fill="#fff" stroke="#aaa" stroke-width="1"/><rect x="457.5899999999999" y="499" width="204" height="28" rx="4" fill="#e8f5e9"/><rect x="457.5899999999999" y="523" width="204" height="4" fill="#e8f5e9"/><text x="559.5899999999999" y="518.6" text-anchor="middle" font-weight="bold" fill="#2e7d32">レビュー (reviews)</text><rect x="473.5899999999999" y="531.5" width="20" height="12" rx="2" fill="#fff8e1" stroke="none"/><text x="483.5899999999999" y="539.5" font-size="8" font-weight="bold" fill="#c8a415" text-anchor="middle">PK</text><text x="497.5899999999999" y="540.5" font-size="11" fill="#333" font-weight="bold">ID</text><text x="577.5899999999999" y="540.5" font-size="10" font-family="monospace" fill="#999">id</text><rect x="473.5899999999999" y="549.5" width="20" height="12" rx="2" fill="#f3e5f5" stroke="none"/><text x="483.5899999999999" y="557.5" font-size="8" font-weight="bold" fill="#7b1fa2" text-anchor="middle">FK</text><text x="497.5899999999999" y="558.5" font-size="11" fill="#555">ユーザーID</text><text x="577.5899999999999" y="558.5" font-size="10" font-family="monospace" fill="#999">user_id</text><rect x="473.5899999999999" y="567.5" width="20" height="12" rx="2" fill="#f3e5f5" stroke="none"/><text x="483.5899999999999" y="575.5" font-size="8" font-weight="bold" fill="#7b1fa2" text-anchor="middle">FK</text><text x="497.5899999999999" y="576.5" font-size="11" fill="#555">商品ID</text><text x="577.5899999999999" y="576.5" font-size="10" font-family="monospace" fill="#999">product_id</text><text x="497.5899999999999" y="594.5" font-size="11" fill="#555">評価</text><text x="577.5899999999999" y="594.5" font-size="10" font-family="monospace" fill="#999">rating</text><text x="497.5899999999999" y="612.5" font-size="11" fill="#555">コメント</text><text x="577.5899999999999" y="612.5" font-size="10" font-family="monospace" fill="#999">comment</text><text x="497.5899999999999" y="630.5" font-size="11" fill="#555">作成日時</text><text x="577.5899999999999" y="630.5" font-size="10" font-family="monospace" fill="#999">created_at</text><path d="M174.58823529411765,166 L167.6705882352941,260.5" fill="none" stroke="#666" stroke-width="1.5"/><text x="167.6705882352941" y="254.5" text-anchor="middle" font-size="12" font-weight="bold" fill="#666">1</text><text x="174.58823529411765" y="160" text-anchor="middle" font-size="12" font-weight="bold" fill="#666">*</text><path d="M199.3349019607843,404.5 L247.81196078431367,499" fill="none" stroke="#666" stroke-width="1.5"/><text x="247.81196078431367" y="493" text-anchor="middle" font-size="12" font-weight="bold" fill="#666">1</text><text x="199.3349019607843" y="398.5" text-anchor="middle" font-size="12" font-weight="bold" fill="#666">*</text><path d="M408.82705882352934,404.5 L331.6088235294117,499" fill="none" stroke="#666" stroke-width="1.5"/><text x="331.6088235294117" y="493" text-anchor="middle" font-size="12" font-weight="bold" fill="#666">1</text><text x="408.82705882352934" y="398.5" text-anchor="middle" font-size="12" font-weight="bold" fill="#666">*</text><path d="M495.3145454545454,130 L477.4927272727272,260.5" fill="none" stroke="#666" stroke-width="1.5"/><text x="477.4927272727272" y="254.5" text-anchor="middle" font-size="12" font-weight="bold" fill="#666">1</text><text x="495.3145454545454" y="124" text-anchor="middle" font-size="12" font-weight="bold" fill="#666">*</text><path d="M318.4,159.73272357723576 Q651.52,295.5 583.6152631578947,499" fill="none" stroke="#666" stroke-width="1.5"/><text x="338.82837428042757" y="162.2843235915269" text-anchor="middle" font-size="12" font-weight="bold" fill="#666">1</text><text x="589.1001743678042" y="474.0707017852039" text-anchor="middle" font-size="12" font-weight="bold" fill="#666">*</text><path d="M495.4124528301886,404.5 L531.8375471698113,499" fill="none" stroke="#666" stroke-width="1.5"/><text x="531.8375471698113" y="493" text-anchor="middle" font-size="12" font-weight="bold" fill="#666">1</text><text x="495.4124528301886" y="398.5" text-anchor="middle" font-size="12" font-weight="bold" fill="#666">*</text></svg>