<svg xmlns="http://www.w3.org/2000/svg" width="701.5899999999999" height="739" viewBox="0 0 701.5899999999999 739"><rect width="100%" height="100%" fill="white"/><style>text { font-family: sans-serif; font-size: 13px; fill: #333; }</style><rect x="40" y="40" width="278.4" height="140" fill="#fff" stroke="none"/><line x1="40" y1="40" x2="318.4" y2="40" stroke="#2e7d32" stroke-width="1.5"/><line x1="40" y1="180" x2="318.4" y2="180" stroke="#2e7d32" stroke-width="1.5"/><rect x="40" y="40" width="278.4" height="32" fill="#e8f5e9"/><line x1="40" y1="72" x2="318.4" y2="72" stroke="#2e7d32" stroke-width="0.5" stroke-dasharray="3,3"/><text x="179.2" y="62.4" text-anchor="middle" font-weight="bold" fill="#2e7d32">ユーザー (users)</text><rect x="56" y="86.5" width="20" height="12" rx="2" fill="#fff8e1" stroke="none"/><text x="66" y="94.5" font-size="8" font-weight="bold" fill="#c8a415" text-anchor="middle">PK</text><text x="80" y="95.5" font-size="11" fill="#333" font-weight="bold">ID</text><text x="214" y="95.5" font-size="10" font-family="monospace" fill="#999">id</text><rect x="56" y="104.5" width="20" height="12" rx="2" fill="#e3f2fd" stroke="none"/><text x="66" y="112.5" font-size="8" font-weight="bold" fill="#1565c0" text-anchor="middle">UK</text><text x="80" y="113.5" font-size="11" fill="#333" font-weight="bold">メールアドレス</text><text x="214" y="113.5" font-size="10" font-family="monospace" fill="#999">email</text><text x="80" y="131.5" font-size="11" fill="#555">氏名</text><text x="214" y="131.5" font-size="10" font-family="monospace" fill="#999">name</text><text x="80" y="149.5" font-size="11" fill="#555">パスワードハッシュ</text><text x="214" y="149.5" font-size="10" font-family="monospace" fill="#999">password_hash</text><text x="80" y="167.5" font-size="11" fill="#555">作成日時</text><text x="214" y="167.5" font-size="10" font-family="monospace" fill="#999">created_at</text><rect x="40" y="281.5" width="244.8" height="158" fill="#fff" stroke="none"/><line x1="40" y1="281.5" x2="284.8" y2="281.5" stroke="#2e7d32" stroke-width="1.5"/><line x1="40" y1="439.5" x2="284.8" y2="439.5" stroke="#2e7d32" stroke-width="1.5"/><rect x="40" y="281.5" width="244.8" height="32" fill="#e8f5e9"/><line x1="40" y1="313.5" x2="284.8" y2="313.5" stroke="#2e7d32" stroke-width="0.5" stroke-dasharray="3,3"/><text x="162.4" y="303.9" text-anchor="middle" font-weight="bold" fill="#2e7d32">注文 (orders)</text><rect x="56" y="328" width="20" height="12" rx="2" fill="#fff8e1" stroke="none"/><text x="66" y="336" font-size="8" font-weight="bold" fill="#c8a415" text-anchor="middle">PK</text><text x="80" y="337" font-size="11" fill="#333" font-weight="bold">ID</text><text x="160" y="337" font-size="10" font-family="monospace" fill="#999">id</text><rect x="56" y="346" width="20" height="12" rx="2" fill="#f3e5f5" stroke="none"/><text x="66" y="354" font-size="8" font-weight="bold" fill="#7b1fa2" text-anchor="middle">FK</text><text x="80" y="355" font-size="11" fill="#555">ユーザーID</text><text x="160" y="355" font-size="10" font-family="monospace" fill="#999">user_id</text><text x="80" y="373" font-size="11" fill="#555">注文日</text><text x="160" y="373" font-size="10" font-family="monospace" fill="#999">order_date</text><text x="80" y="391" font-size="11" fill="#555">合計金額</text><text x="160" y="391" font-size="10" font-family="monospace" fill="#999">total</text><text x="80" y="409" font-size="11" fill="#555">ステータス</text><text x="160" y="409" font-size="10" font-family="monospace" fill="#999">status</text><text x="80" y="427" font-size="11" fill="#555">配送先</text><text x="160" y="427" font-size="10" font-family="monospace" fill="#999">shipping_address</text><rect x="180.12999999999994" y="541" width="200" height="140" fill="#fff" stroke="none"/><line x1="180.12999999999994" y1="541" x2="380.12999999999994" y2="541" stroke="#2e7d32" stroke-width="1.5"/><line x1="180.12999999999994" y1="681" x2="380.12999999999994" y2="681" stroke="#2e7d32" stroke-width="1.5"/><rect x="180.12999999999994" y="541" width="200" height="32" fill="#e8f5e9"/><line x1="180.12999999999994" y1="573" x2="380.12999999999994" y2="573" stroke="#2e7d32" stroke-width="0.5" stroke-dasharray="3,3"/><text x="280.12999999999994" y="563.4" text-anchor="middle" font-weight="bold" fill="#2e7d32">注文明細 (order_items)</text><rect x="196.12999999999994" y="587.5" width="20" height="12" rx="2" fill="#fff8e1" stroke="none"/><text x="206.12999999999994" y="595.5" font-size="8" font-weight="bold" fill="#c8a415" text-anchor="middle">PK</text><text x="220.12999999999994" y="596.5" font-size="11" fill="#333" font-weight="bold">ID</text><text x="272.12999999999994" y="596.5" font-size="10" font-family="monospace" fill="#999">id</text><rect x="196.12999999999994" y="605.5" width="20" height="12" rx="2" fill="#f3e5f5" stroke="none"/><text x="206.12999999999994" y="613.5" font-size="8" font-weight="bold" fill="#7b1fa2" text-anchor="middle">FK</text><text x="220.12999999999994" y="614.5" font-size="11" fill="#555">注文ID</text><text x="272.12999999999994" y="614.5" font-size="10" font-family="monospace" fill="#999">order_id</text><rect x="196.12999999999994" y="623.5" width="20" height="12" rx="2" fill="#f3e5f5" stroke="none"/><text x="206.12999999999994" y="631.5" font-size="8" font-weight="bold" fill="#7b1fa2" text-anchor="middle">FK</text><text x="220.12999999999994" y="632.5" font-size="11" fill="#555">商品ID</text><text x="272.12999999999994" y="632.5" font-size="10" font-family="monospace" fill="#999">product_id</text><text x="220.12999999999994" y="650.5" font-size="11" fill="#555">数量</text><text x="272.12999999999994" y="650.5" font-size="10" font-family="monospace" fill="#999">quantity</text><text x="220.12999999999994" y="668.5" font-size="11" fill="#555">単価</text><text x="272.12999999999994" y="668.5" font-size="10" font-family="monospace" fill="#999">unit_price</text><rect x="362.26" y="281.5" width="210.8" height="158" fill="#fff" stroke="none"/><line x1="362.26" y1="281.5" x2="573.06" y2="281.5" stroke="#2e7d32" stroke-width="1.5"/><line x1="362.26" y1="439.5" x2="573.06" y2="439.5" stroke="#2e7d32" stroke-width="1.5"/><rect x="362.26" y="281.5" width="210.8" height="32" fill="#e8f5e9"/><line x1="362.26" y1="313.5" x2="573.06" y2="313.5" stroke="#2e7d32" stroke-width="0.5" stroke-dasharray="3,3"/><text x="467.65999999999997" y="303.9" text-anchor="middle" font-weight="bold" fill="#2e7d32">商品 (products)</text><rect x="378.26" y="328" width="20" height="12" rx="2" fill="#fff8e1" stroke="none"/><text x="388.26" y="336" font-size="8" font-weight="bold" fill="#c8a415" text-anchor="middle">PK</text><text x="402.26" y="337" font-size="11" fill="#333" font-weight="bold">ID</text><text x="482.26" y="337" font-size="10" font-family="monospace" fill="#999">id</text><text x="402.26" y="355" font-size="11" fill="#555">商品名</text><text x="482.26" y="355" font-size="10" font-family="monospace" fill="#999">name</text><text x="402.26" y="373" font-size="11" fill="#555">説明</text><text x="482.26" y="373" font-size="10" font-family="monospace" fill="#999">description</text><text x="402.26" y="391" font-size="11" fill="#555">価格</text><text x="482.26" y="391" font-size="10" font-family="monospace" fill="#999">price</text><text x="402.26" y="409" font-size="11" fill="#555">在庫数</text><text x="482.26" y="409" font-size="10" font-family="monospace" fill="#999">stock</text><rect x="378.26" y="418" width="20" height="12" rx="2" fill="#f3e5f5" stroke="none"/><text x="388.26" y="426" font-size="8" font-weight="bold" fill="#7b1fa2" text-anchor="middle">FK</text><text x="402.26" y="427" font-size="11" fill="#555">カテゴリID</text><text x="482.26" y="427" font-size="10" font-family="monospace" fill="#999">category_id</text><rect x="395.85999999999996" y="40" width="211.2" height="104" fill="#fff" stroke="none"/><line x1="395.85999999999996" y1="40" x2="607.06" y2="40" stroke="#2e7d32" stroke-width="1.5"/><line x1="395.85999999999996" y1="144" x2="607.06" y2="144" stroke="#2e7d32" stroke-width="1.5"/><rect x="395.85999999999996" y="40" width="211.2" height="32" fill="#e8f5e9"/><line x1="395.85999999999996" y1="72" x2="607.06" y2="72" stroke="#2e7d32" stroke-width="0.5" stroke-dasharray="3,3"/><text x="501.4599999999999" y="62.4" text-anchor="middle" font-weight="bold" fill="#2e7d32">カテゴリ (categories)</text><rect x="411.85999999999996" y="86.5" width="20" height="12" rx="2" fill="#fff8e1" stroke="none"/><text x="421.85999999999996" y="94.5" font-size="8" font-weight="bold" fill="#c8a415" text-anchor="middle">PK</text><text x="435.85999999999996" y="95.5" font-size="11" fill="#333" font-weight="bold">ID</text><text x="529.8599999999999" y="95.5" font-size="10" font-family="monospace" fill="#999">id</text><rect x="411.85999999999996" y="104.5" width="20" height="12" rx="2" fill="#e3f2fd" stroke="none"/><text x="421.85999999999996" y="112.5" font-size="8" font-weight="bold" fill="#1565c0" text-anchor="middle">UK</text><text x="435.85999999999996" y="113.5" font-size="11" fill="#333" font-weight="bold">カテゴリ名</text><text x="529.8599999999999" y="113.5" font-size="10" font-family="monospace" fill="#999">name</text><rect x="411.85999999999996" y="122.5" width="20" height="12" rx="2" fill="#f3e5f5" stroke="none"/><text x="421.85999999999996" y="130.5" font-size="8" font-weight="bold" fill="#7b1fa2" text-anchor="middle">FK</text><text x="435.85999999999996" y="131.5" font-size="11" fill="#555">親カテゴリID</text><text x="529.8599999999999" y="131.5" font-size="10" font-family="monospace" fill="#999">parent_id</text><rect x="457.5899999999999" y="541" width="204" height="158" fill="#fff" stroke="none"/><line x1="457.5899999999999" y1="541" x2="661.5899999999999" y2="541" stroke="#2e7d32" stroke-width="1.5"/><line x1="457.5899999999999" y1="699" x2="661.5899999999999" y2="699" stroke="#2e7d32" stroke-width="1.5"/><rect x="457.5899999999999" y="541" width="204" height="32" fill="#e8f5e9"/><line x1="457.5899999999999" y1="573" x2="661.5899999999999" y2="573" stroke="#2e7d32" stroke-width="0.5" stroke-dasharray="3,3"/><text x="559.5899999999999" y="563.4" text-anchor="middle" font-weight="bold" fill="#2e7d32">レビュー (reviews)</text><rect x="473.5899999999999" y="587.5" width="20" height="12" rx="2" fill="#fff8e1" stroke="none"/><text x="483.5899999999999" y="595.5" font-size="8" font-weight="bold" fill="#c8a415" text-anchor="middle">PK</text><text x="497.5899999999999" y="596.5" font-size="11" fill="#333" font-weight="bold">ID</text><text x="577.5899999999999" y="596.5" font-size="10" font-family="monospace" fill="#999">id</text><rect x="473.5899999999999" y="605.5" width="20" height="12" rx="2" fill="#f3e5f5" stroke="none"/><text x="483.5899999999999" y="613.5" font-size="8" font-weight="bold" fill="#7b1fa2" text-anchor="middle">FK</text><text x="497.5899999999999" y="614.5" font-size="11" fill="#555">ユーザーID</text><text x="577.5899999999999" y="614.5" font-size="10" font-family="monospace" fill="#999">user_id</text><rect x="473.5899999999999" y="623.5" width="20" height="12" rx="2" fill="#f3e5f5" stroke="none"/><text x="483.5899999999999" y="631.5" font-size="8" font-weight="bold" fill="#7b1fa2" text-anchor="middle">FK</text><text x="497.5899999999999" y="632.5" font-size="11" fill="#555">商品ID</text><text x="577.5899999999999" y="632.5" font-size="10" font-family="monospace" fill="#999">product_id</text><text x="497.5899999999999" y="650.5" font-size="11" fill="#555">評価</text><text x="577.5899999999999" y="650.5" font-size="10" font-family="monospace" fill="#999">rating</text><text x="497.5899999999999" y="668.5" font-size="11" fill="#555">コメント</text><text x="577.5899999999999" y="668.5" font-size="10" font-family="monospace" fill="#999">comment</text><text x="497.5899999999999" y="686.5" font-size="11" fill="#555">作成日時</text><text x="577.5899999999999" y="686.5" font-size="10" font-family="monospace" fill="#999">created_at</text><path d="M174.50538922155687,180 L167.69820359281437,281.5" fill="none" stroke="#666" stroke-width="1.5"/><text x="167.69820359281437" y="275.5" text-anchor="middle" font-size="12" font-weight="bold" fill="#666">1</text><text x="174.50538922155687" y="174" text-anchor="middle" font-size="12" font-weight="bold" fill="#666">*</text><path d="M199.5284231536926,439.5 L247.2313972055888,541" fill="none" stroke="#666" stroke-width="1.5"/><text x="247.2313972055888" y="535" text-anchor="middle" font-size="12" font-weight="bold" fill="#666">1</text><text x="199.5284231536926" y="433.5" text-anchor="middle" font-size="12" font-weight="bold" fill="#666">*</text><path d="M408.51880239520955,439.5 L332.5335928143712,541" fill="none" stroke="#666" stroke-width="1.5"/><text x="332.5335928143712" y="535" text-anchor="middle" font-size="12" font-weight="bold" fill="#666">1</text><text x="408.51880239520955" y="433.5" text-anchor="middle" font-size="12" font-weight="bold" fill="#666">*</text><path d="M494.9140037243947,144 L477.60487895716943,281.5" fill="none" stroke="#666" stroke-width="1.5"/><text x="477.60487895716943" y="275.5" text-anchor="middle" font-size="12" font-weight="bold" fill="#666">1</text><text x="494.9140037243947" y="138" text-anchor="middle" font-size="12" font-weight="bold" fill="#666">*</text><path d="M318.4,170.85873983739836 Q651.52,316.5 583.5190609555189,541" fill="none" stroke="#666" stroke-width="1.5"/><text x="338.8282803329643" y="174.03832908568342" text-anchor="middle" font-size="12" font-weight="bold" fill="#666">1</text><text x="589.0127797401088" y="514.1263985982755" text-anchor="middle" font-size="12" font-weight="bold" fill="#666">*</text><path d="M495.6463969171483,439.5 L531.6036030828516,541" fill="none" stroke="#666" stroke-width="1.5"/><text x="531.6036030828516" y="535" text-anchor="middle" font-size="12" font-weight="bold" fill="#666">1</text><text x="495.6463969171483" y="433.5" text-anchor="middle" font-size="12" font-weight="bold" fill="#666">*</text></svg>