<svg xmlns="http://www.w3.org/2000/svg" width="495" height="683" viewBox="0 0 495 683"><rect width="100%" height="100%" fill="white"/><style>text { font-family: sans-serif; font-size: 13px; fill: #333; }</style><rect x="60" y="40" width="140" height="126" rx="4" fill="#fff" stroke="#aaa" stroke-width="1"/><rect x="60" y="40" width="140" height="28" rx="4" fill="#e8f5e9"/><rect x="60" y="64" width="140" height="4" fill="#e8f5e9"/><text x="130" y="59.599999999999994" text-anchor="middle" font-weight="bold" fill="#2e7d32">Users</text><text x="78" y="81.5" font-size="11" fill="#c8a415">🔑</text><text x="96" y="81.5" font-size="11" font-weight="bold">id</text><text x="78" y="99.5" font-size="11" fill="#555">name</text><text x="78" y="117.5" font-size="11" fill="#555">email</text><text x="78" y="135.5" font-size="11" fill="#555">password_hash</text><text x="78" y="153.5" font-size="11" fill="#555">created_at</text><rect x="40" y="260.5" width="160" height="144" rx="4" fill="#fff" stroke="#aaa" stroke-width="1"/><rect x="40" y="260.5" width="160" height="28" rx="4" fill="#e8f5e9"/><rect x="40" y="284.5" width="160" height="4" fill="#e8f5e9"/><text x="120" y="280.1" text-anchor="middle" font-weight="bold" fill="#2e7d32">Orders</text><text x="56" y="302" font-size="11" fill="#c8a415">🔑</text><text x="74" y="302" font-size="11" font-weight="bold">id</text><text x="56" y="320" font-size="11" fill="#555">user_id</text><text x="56" y="338" font-size="11" fill="#555">order_date</text><text x="56" y="356" font-size="11" fill="#555">total</text><text x="56" y="374" font-size="11" fill="#555">status</text><text x="56" y="392" font-size="11" fill="#555">shipping_address</text><rect x="122" y="499" width="140" height="126" rx="4" fill="#fff" stroke="#aaa" stroke-width="1"/><rect x="122" y="499" width="140" height="28" rx="4" fill="#e8f5e9"/><rect x="122" y="523" width="140" height="4" fill="#e8f5e9"/><text x="192" y="518.6" text-anchor="middle" font-weight="bold" fill="#2e7d32">OrderItems</text><text x="152" y="540.5" font-size="11" fill="#c8a415">🔑</text><text x="170" y="540.5" font-size="11" font-weight="bold">id</text><text x="152" y="558.5" font-size="11" fill="#555">order_id</text><text x="152" y="576.5" font-size="11" fill="#555">product_id</text><text x="152" y="594.5" font-size="11" fill="#555">quantity</text><text x="152" y="612.5" font-size="11" fill="#555">unit_price</text><rect x="253" y="260.5" width="140" height="144" rx="4" fill="#fff" stroke="#aaa" stroke-width="1"/><rect x="253" y="260.5" width="140" height="28" rx="4" fill="#e8f5e9"/><rect x="253" y="284.5" width="140" height="4" fill="#e8f5e9"/><text x="323" y="280.1" text-anchor="middle" font-weight="bold" fill="#2e7d32">Products</text><text x="279" y="302" font-size="11" fill="#c8a415">🔑</text><text x="297" y="302" font-size="11" font-weight="bold">id</text><text x="279" y="320" font-size="11" fill="#555">name</text><text x="279" y="338" font-size="11" fill="#555">description</text><text x="279" y="356" font-size="11" fill="#555">price</text><text x="279" y="374" font-size="11" fill="#555">stock</text><text x="279" y="392" font-size="11" fill="#555">category_id</text><rect x="253" y="40" width="140" height="90" rx="4" fill="#fff" stroke="#aaa" stroke-width="1"/><rect x="253" y="40" width="140" height="28" rx="4" fill="#e8f5e9"/><rect x="253" y="64" width="140" height="4" fill="#e8f5e9"/><text x="323" y="59.599999999999994" text-anchor="middle" font-weight="bold" fill="#2e7d32">Categories</text><text x="287" y="81.5" font-size="11" fill="#c8a415">🔑</text><text x="305" y="81.5" font-size="11" font-weight="bold">id</text><text x="287" y="99.5" font-size="11" fill="#555">name</text><text x="287" y="117.5" font-size="11" fill="#555">parent_id</text><rect x="315" y="499" width="140" height="144" rx="4" fill="#fff" stroke="#aaa" stroke-width="1"/><rect x="315" y="499" width="140" height="28" rx="4" fill="#e8f5e9"/><rect x="315" y="523" width="140" height="4" fill="#e8f5e9"/><text x="385" y="518.6" text-anchor="middle" font-weight="bold" fill="#2e7d32">Reviews</text><text x="345" y="540.5" font-size="11" fill="#c8a415">🔑</text><text x="363" y="540.5" font-size="11" font-weight="bold">id</text><text x="345" y="558.5" font-size="11" fill="#555">user_id</text><text x="345" y="576.5" font-size="11" fill="#555">product_id</text><text x="345" y="594.5" font-size="11" fill="#555">rating</text><text x="345" y="612.5" font-size="11" fill="#555">comment</text><text x="345" y="630.5" font-size="11" fill="#555">created_at</text><path d="M128.4126984126984,110 L121.58730158730158,260.5" fill="none" stroke="#666" stroke-width="1.5"/><text x="121.58730158730158" y="254.5" text-anchor="middle" font-size="12" font-weight="bold" fill="#666">1</text><text x="128.4126984126984" y="104" text-anchor="middle" font-size="12" font-weight="bold" fill="#666">*</text><path d="M130.56603773584905,330.5 L181.43396226415095,499" fill="none" stroke="#666" stroke-width="1.5"/><text x="181.43396226415095" y="493" text-anchor="middle" font-size="12" font-weight="bold" fill="#666">1</text><text x="130.56603773584905" y="324.5" text-anchor="middle" font-size="12" font-weight="bold" fill="#666">*</text><path d="M303.77568134171906,330.5 L211.22431865828094,499" fill="none" stroke="#666" stroke-width="1.5"/><text x="211.22431865828094" y="493" text-anchor="middle" font-size="12" font-weight="bold" fill="#666">1</text><text x="303.77568134171906" y="324.5" text-anchor="middle" font-size="12" font-weight="bold" fill="#666">*</text><path d="M323,110 L323,260.5" fill="none" stroke="#666" stroke-width="1.5"/><text x="323" y="254.5" text-anchor="middle" font-size="12" font-weight="bold" fill="#666">1</text><text x="323" y="104" text-anchor="middle" font-size="12" font-weight="bold" fill="#666">*</text><path d="M180.3174603174603,110 Q447,295.5 394.0985324947589,499" fill="none" stroke="#666" stroke-width="1.5"/><text x="196.67302529059972" y="115.611328125" text-anchor="middle" font-size="12" font-weight="bold" fill="#666">1</text><text x="398.35583412008174" y="473.96142578125" text-anchor="middle" font-size="12" font-weight="bold" fill="#666">*</text><path d="M332.0985324947589,330.5 L375.9014675052411,499" fill="none" stroke="#666" stroke-width="1.5"/><text x="375.9014675052411" y="493" text-anchor="middle" font-size="12" font-weight="bold" fill="#666">1</text><text x="332.0985324947589" y="324.5" text-anchor="middle" font-size="12" font-weight="bold" fill="#666">*</text></svg>