<svg xmlns="http://www.w3.org/2000/svg" width="699.79" height="795" viewBox="0 0 699.79 795"><rect width="100%" height="100%" fill="white"/><style>text { font-family: sans-serif; font-size: 13px; fill: #333; }</style><rect x="40" y="40" width="278.4" height="154" fill="#fff" stroke="none"/><line x1="40" y1="40" x2="318.4" y2="40" stroke="#2e7d32" stroke-width="1.5"/><line x1="40" y1="194" x2="318.4" y2="194" stroke="#2e7d32" stroke-width="1.5"/><rect x="40" y="40" width="278.4" height="46" fill="#e8f5e9"/><line x1="40" y1="86" x2="318.4" y2="86" stroke="#2e7d32" stroke-width="0.5" stroke-dasharray="3,3"/><text x="179.2" y="57.480000000000004" text-anchor="middle" font-weight="bold" fill="#2e7d32">ユーザー</text><text x="179.2" y="76.80000000000001" text-anchor="middle" font-size="10" font-family="monospace" fill="#888">users</text><rect x="56" y="100.5" width="20" height="12" rx="2" fill="#fff8e1" stroke="none"/><text x="66" y="108.5" font-size="8" font-weight="bold" fill="#c8a415" text-anchor="middle">PK</text><text x="80" y="109.5" font-size="11" fill="#333" font-weight="bold">ID</text><text x="214" y="109.5" font-size="10" font-family="monospace" fill="#999">id</text><rect x="56" y="118.5" width="20" height="12" rx="2" fill="#e3f2fd" stroke="none"/><text x="66" y="126.5" font-size="8" font-weight="bold" fill="#1565c0" text-anchor="middle">UK</text><text x="80" y="127.5" font-size="11" fill="#333" font-weight="bold">メールアドレス</text><text x="214" y="127.5" font-size="10" font-family="monospace" fill="#999">email</text><text x="80" y="145.5" font-size="11" fill="#555">氏名</text><text x="214" y="145.5" font-size="10" font-family="monospace" fill="#999">name</text><text x="80" y="163.5" font-size="11" fill="#555">パスワードハッシュ</text><text x="214" y="163.5" font-size="10" font-family="monospace" fill="#999">password_hash</text><text x="80" y="181.5" font-size="11" fill="#555">作成日時</text><text x="214" y="181.5" font-size="10" font-family="monospace" fill="#999">created_at</text><rect x="40" y="302.5" width="244.8" height="172" fill="#fff" stroke="none"/><line x1="40" y1="302.5" x2="284.8" y2="302.5" stroke="#2e7d32" stroke-width="1.5"/><line x1="40" y1="474.5" x2="284.8" y2="474.5" stroke="#2e7d32" stroke-width="1.5"/><rect x="40" y="302.5" width="244.8" height="46" fill="#e8f5e9"/><line x1="40" y1="348.5" x2="284.8" y2="348.5" stroke="#2e7d32" stroke-width="0.5" stroke-dasharray="3,3"/><text x="162.4" y="319.98" text-anchor="middle" font-weight="bold" fill="#2e7d32">注文</text><text x="162.4" y="339.3" text-anchor="middle" font-size="10" font-family="monospace" fill="#888">orders</text><rect x="56" y="363" width="20" height="12" rx="2" fill="#fff8e1" stroke="none"/><text x="66" y="371" font-size="8" font-weight="bold" fill="#c8a415" text-anchor="middle">PK</text><text x="80" y="372" font-size="11" fill="#333" font-weight="bold">ID</text><text x="160" y="372" font-size="10" font-family="monospace" fill="#999">id</text><rect x="56" y="381" width="20" height="12" rx="2" fill="#f3e5f5" stroke="none"/><text x="66" y="389" font-size="8" font-weight="bold" fill="#7b1fa2" text-anchor="middle">FK</text><text x="80" y="390" font-size="11" fill="#555">ユーザーID</text><text x="160" y="390" font-size="10" font-family="monospace" fill="#999">user_id</text><text x="80" y="408" font-size="11" fill="#555">注文日</text><text x="160" y="408" font-size="10" font-family="monospace" fill="#999">order_date</text><text x="80" y="426" font-size="11" fill="#555">合計金額</text><text x="160" y="426" font-size="10" font-family="monospace" fill="#999">total</text><text x="80" y="444" font-size="11" fill="#555">ステータス</text><text x="160" y="444" font-size="10" font-family="monospace" fill="#999">status</text><text x="80" y="462" font-size="11" fill="#555">配送先</text><text x="160" y="462" font-size="10" font-family="monospace" fill="#999">shipping_address</text><rect x="203.52999999999997" y="583" width="176" height="154" fill="#fff" stroke="none"/><line x1="203.52999999999997" y1="583" x2="379.53" y2="583" stroke="#2e7d32" stroke-width="1.5"/><line x1="203.52999999999997" y1="737" x2="379.53" y2="737" stroke="#2e7d32" stroke-width="1.5"/><rect x="203.52999999999997" y="583" width="176" height="46" fill="#e8f5e9"/><line x1="203.52999999999997" y1="629" x2="379.53" y2="629" stroke="#2e7d32" stroke-width="0.5" stroke-dasharray="3,3"/><text x="291.53" y="600.48" text-anchor="middle" font-weight="bold" fill="#2e7d32">注文明細</text><text x="291.53" y="619.8" text-anchor="middle" font-size="10" font-family="monospace" fill="#888">order_items</text><rect x="219.52999999999997" y="643.5" width="20" height="12" rx="2" fill="#fff8e1" stroke="none"/><text x="229.52999999999997" y="651.5" font-size="8" font-weight="bold" fill="#c8a415" text-anchor="middle">PK</text><text x="243.52999999999997" y="652.5" font-size="11" fill="#333" font-weight="bold">ID</text><text x="295.53" y="652.5" font-size="10" font-family="monospace" fill="#999">id</text><rect x="219.52999999999997" y="661.5" width="20" height="12" rx="2" fill="#f3e5f5" stroke="none"/><text x="229.52999999999997" y="669.5" font-size="8" font-weight="bold" fill="#7b1fa2" text-anchor="middle">FK</text><text x="243.52999999999997" y="670.5" font-size="11" fill="#555">注文ID</text><text x="295.53" y="670.5" font-size="10" font-family="monospace" fill="#999">order_id</text><rect x="219.52999999999997" y="679.5" width="20" height="12" rx="2" fill="#f3e5f5" stroke="none"/><text x="229.52999999999997" y="687.5" font-size="8" font-weight="bold" fill="#7b1fa2" text-anchor="middle">FK</text><text x="243.52999999999997" y="688.5" font-size="11" fill="#555">商品ID</text><text x="295.53" y="688.5" font-size="10" font-family="monospace" fill="#999">product_id</text><text x="243.52999999999997" y="706.5" font-size="11" fill="#555">数量</text><text x="295.53" y="706.5" font-size="10" font-family="monospace" fill="#999">quantity</text><text x="243.52999999999997" y="724.5" font-size="11" fill="#555">単価</text><text x="295.53" y="724.5" font-size="10" font-family="monospace" fill="#999">unit_price</text><rect x="361.06" y="302.5" width="210.8" height="172" fill="#fff" stroke="none"/><line x1="361.06" y1="302.5" x2="571.86" y2="302.5" stroke="#2e7d32" stroke-width="1.5"/><line x1="361.06" y1="474.5" x2="571.86" y2="474.5" stroke="#2e7d32" stroke-width="1.5"/><rect x="361.06" y="302.5" width="210.8" height="46" fill="#e8f5e9"/><line x1="361.06" y1="348.5" x2="571.86" y2="348.5" stroke="#2e7d32" stroke-width="0.5" stroke-dasharray="3,3"/><text x="466.46000000000004" y="319.98" text-anchor="middle" font-weight="bold" fill="#2e7d32">商品</text><text x="466.46000000000004" y="339.3" text-anchor="middle" font-size="10" font-family="monospace" fill="#888">products</text><rect x="377.06" y="363" width="20" height="12" rx="2" fill="#fff8e1" stroke="none"/><text x="387.06" y="371" font-size="8" font-weight="bold" fill="#c8a415" text-anchor="middle">PK</text><text x="401.06" y="372" font-size="11" fill="#333" font-weight="bold">ID</text><text x="481.06" y="372" font-size="10" font-family="monospace" fill="#999">id</text><text x="401.06" y="390" font-size="11" fill="#555">商品名</text><text x="481.06" y="390" font-size="10" font-family="monospace" fill="#999">name</text><text x="401.06" y="408" font-size="11" fill="#555">説明</text><text x="481.06" y="408" font-size="10" font-family="monospace" fill="#999">description</text><text x="401.06" y="426" font-size="11" fill="#555">価格</text><text x="481.06" y="426" font-size="10" font-family="monospace" fill="#999">price</text><text x="401.06" y="444" font-size="11" fill="#555">在庫数</text><text x="481.06" y="444" font-size="10" font-family="monospace" fill="#999">stock</text><rect x="377.06" y="453" width="20" height="12" rx="2" fill="#f3e5f5" stroke="none"/><text x="387.06" y="461" font-size="8" font-weight="bold" fill="#7b1fa2" text-anchor="middle">FK</text><text x="401.06" y="462" font-size="11" fill="#555">カテゴリID</text><text x="481.06" y="462" font-size="10" font-family="monospace" fill="#999">category_id</text><rect x="394.65999999999997" y="40" width="211.2" height="118" fill="#fff" stroke="none"/><line x1="394.65999999999997" y1="40" x2="605.8599999999999" y2="40" stroke="#2e7d32" stroke-width="1.5"/><line x1="394.65999999999997" y1="158" x2="605.8599999999999" y2="158" stroke="#2e7d32" stroke-width="1.5"/><rect x="394.65999999999997" y="40" width="211.2" height="46" fill="#e8f5e9"/><line x1="394.65999999999997" y1="86" x2="605.8599999999999" y2="86" stroke="#2e7d32" stroke-width="0.5" stroke-dasharray="3,3"/><text x="500.26" y="57.480000000000004" text-anchor="middle" font-weight="bold" fill="#2e7d32">カテゴリ</text><text x="500.26" y="76.80000000000001" text-anchor="middle" font-size="10" font-family="monospace" fill="#888">categories</text><rect x="410.65999999999997" y="100.5" width="20" height="12" rx="2" fill="#fff8e1" stroke="none"/><text x="420.65999999999997" y="108.5" font-size="8" font-weight="bold" fill="#c8a415" text-anchor="middle">PK</text><text x="434.65999999999997" y="109.5" font-size="11" fill="#333" font-weight="bold">ID</text><text x="528.66" y="109.5" font-size="10" font-family="monospace" fill="#999">id</text><rect x="410.65999999999997" y="118.5" width="20" height="12" rx="2" fill="#e3f2fd" stroke="none"/><text x="420.65999999999997" y="126.5" font-size="8" font-weight="bold" fill="#1565c0" text-anchor="middle">UK</text><text x="434.65999999999997" y="127.5" font-size="11" fill="#333" font-weight="bold">カテゴリ名</text><text x="528.66" y="127.5" font-size="10" font-family="monospace" fill="#999">name</text><rect x="410.65999999999997" y="136.5" width="20" height="12" rx="2" fill="#f3e5f5" stroke="none"/><text x="420.65999999999997" y="144.5" font-size="8" font-weight="bold" fill="#7b1fa2" text-anchor="middle">FK</text><text x="434.65999999999997" y="145.5" font-size="11" fill="#555">親カテゴリID</text><text x="528.66" y="145.5" font-size="10" font-family="monospace" fill="#999">parent_id</text><rect x="455.78999999999996" y="583" width="204" height="172" fill="#fff" stroke="none"/><line x1="455.78999999999996" y1="583" x2="659.79" y2="583" stroke="#2e7d32" stroke-width="1.5"/><line x1="455.78999999999996" y1="755" x2="659.79" y2="755" stroke="#2e7d32" stroke-width="1.5"/><rect x="455.78999999999996" y="583" width="204" height="46" fill="#e8f5e9"/><line x1="455.78999999999996" y1="629" x2="659.79" y2="629" stroke="#2e7d32" stroke-width="0.5" stroke-dasharray="3,3"/><text x="557.79" y="600.48" text-anchor="middle" font-weight="bold" fill="#2e7d32">レビュー</text><text x="557.79" y="619.8" text-anchor="middle" font-size="10" font-family="monospace" fill="#888">reviews</text><rect x="471.78999999999996" y="643.5" width="20" height="12" rx="2" fill="#fff8e1" stroke="none"/><text x="481.78999999999996" y="651.5" font-size="8" font-weight="bold" fill="#c8a415" text-anchor="middle">PK</text><text x="495.78999999999996" y="652.5" font-size="11" fill="#333" font-weight="bold">ID</text><text x="575.79" y="652.5" font-size="10" font-family="monospace" fill="#999">id</text><rect x="471.78999999999996" y="661.5" width="20" height="12" rx="2" fill="#f3e5f5" stroke="none"/><text x="481.78999999999996" y="669.5" font-size="8" font-weight="bold" fill="#7b1fa2" text-anchor="middle">FK</text><text x="495.78999999999996" y="670.5" font-size="11" fill="#555">ユーザーID</text><text x="575.79" y="670.5" font-size="10" font-family="monospace" fill="#999">user_id</text><rect x="471.78999999999996" y="679.5" width="20" height="12" rx="2" fill="#f3e5f5" stroke="none"/><text x="481.78999999999996" y="687.5" font-size="8" font-weight="bold" fill="#7b1fa2" text-anchor="middle">FK</text><text x="495.78999999999996" y="688.5" font-size="11" fill="#555">商品ID</text><text x="575.79" y="688.5" font-size="10" font-family="monospace" fill="#999">product_id</text><text x="495.78999999999996" y="706.5" font-size="11" fill="#555">評価</text><text x="575.79" y="706.5" font-size="10" font-family="monospace" fill="#999">rating</text><text x="495.78999999999996" y="724.5" font-size="11" fill="#555">コメント</text><text x="575.79" y="724.5" font-size="10" font-family="monospace" fill="#999">comment</text><text x="495.78999999999996" y="742.5" font-size="11" fill="#555">作成日時</text><text x="575.79" y="742.5" font-size="10" font-family="monospace" fill="#999">created_at</text><path d="M174.43535911602208,194 L167.72154696132597,302.5" fill="none" stroke="#666" stroke-width="1.5"/><text x="153.74827283752987" y="305.63535541333414" text-anchor="middle" font-size="12" font-weight="bold" fill="#666">1</text><text x="160.46208499222598" y="197.13535541333417" text-anchor="middle" font-size="12" font-weight="bold" fill="#666">*</text><path d="M203.3030570902394,474.5 L254.90749539594842,583" fill="none" stroke="#666" stroke-width="1.5"/><text x="242.26463485403815" y="593.0131586805778" text-anchor="middle" font-size="12" font-weight="bold" fill="#666">1</text><text x="190.66019654832914" y="484.5131586805778" text-anchor="middle" font-size="12" font-weight="bold" fill="#666">*</text><path d="M411.0493922651934,474.5 L341.1418232044199,583" fill="none" stroke="#666" stroke-width="1.5"/><text x="329.37310505584134" y="579.417304361949" text-anchor="middle" font-size="12" font-weight="bold" fill="#666">1</text><text x="399.2806741166148" y="470.917304361949" text-anchor="middle" font-size="12" font-weight="bold" fill="#666">*</text><path d="M493.3715716753022,158 L476.5007599309154,302.5" fill="none" stroke="#666" stroke-width="1.5"/><text x="462.5952142490721" y="304.8764855127934" text-anchor="middle" font-size="12" font-weight="bold" fill="#666">1</text><text x="479.4660259934589" y="160.37648551279344" text-anchor="middle" font-size="12" font-weight="bold" fill="#666">*</text><path d="M318.4,182.31664964249234 Q649.12,337.5 581.4834539969834,583" fill="none" stroke="#666" stroke-width="1.5"/><text x="332.73393089826726" y="208.77790088210534" text-anchor="middle" font-size="12" font-weight="bold" fill="#666">1</text><text x="573.4519546201327" y="560.4642939872032" text-anchor="middle" font-size="12" font-weight="bold" fill="#666">*</text><path d="M494.4613547237077,474.5 L529.7886452762923,583" fill="none" stroke="#666" stroke-width="1.5"/><text x="516.4765069678239" y="591.3343942663545" text-anchor="middle" font-size="12" font-weight="bold" fill="#666">1</text><text x="481.1492164152392" y="482.8343942663544" text-anchor="middle" font-size="12" font-weight="bold" fill="#666">*</text></svg>