<svg xmlns="http://www.w3.org/2000/svg" width="1138.397669040601" height="1512.15102283438" viewBox="0 0 1138.397669040601 1512.15102283438"><rect width="100%" height="100%" fill="white"/><style>text { font-family: sans-serif; font-size: 13px; fill: #333; }</style><rect x="436.415392522817" y="40" width="278.4" height="154" fill="#fff" stroke="none"/><line x1="436.415392522817" y1="40" x2="714.815392522817" y2="40" stroke="#2e7d32" stroke-width="1.5"/><line x1="436.415392522817" y1="194" x2="714.815392522817" y2="194" stroke="#2e7d32" stroke-width="1.5"/><rect x="436.415392522817" y="40" width="278.4" height="46" fill="#e8f5e9"/><line x1="436.415392522817" y1="86" x2="714.815392522817" y2="86" stroke="#2e7d32" stroke-width="0.5" stroke-dasharray="3,3"/><text x="575.615392522817" y="57.480000000000004" text-anchor="middle" font-weight="bold" fill="#2e7d32">ユーザー</text><text x="575.615392522817" y="76.80000000000001" text-anchor="middle" font-size="10" font-family="monospace" fill="#888">users</text><rect x="452.415392522817" y="100.5" width="20" height="12" rx="2" fill="#fff8e1" stroke="none"/><text x="462.415392522817" y="108.5" font-size="8" font-weight="bold" fill="#c8a415" text-anchor="middle">PK</text><text x="476.415392522817" y="109.5" font-size="11" fill="#333" font-weight="bold">ID</text><text x="610.415392522817" y="109.5" font-size="10" font-family="monospace" fill="#999">id</text><rect x="452.415392522817" y="118.5" width="20" height="12" rx="2" fill="#e3f2fd" stroke="none"/><text x="462.415392522817" y="126.5" font-size="8" font-weight="bold" fill="#1565c0" text-anchor="middle">UK</text><text x="476.415392522817" y="127.5" font-size="11" fill="#333" font-weight="bold">メールアドレス</text><text x="610.415392522817" y="127.5" font-size="10" font-family="monospace" fill="#999">email</text><text x="476.415392522817" y="145.5" font-size="11" fill="#555">氏名</text><text x="610.415392522817" y="145.5" font-size="10" font-family="monospace" fill="#999">name</text><text x="476.415392522817" y="163.5" font-size="11" fill="#555">パスワードハッシュ</text><text x="610.415392522817" y="163.5" font-size="10" font-family="monospace" fill="#999">password_hash</text><text x="476.415392522817" y="181.5" font-size="11" fill="#555">作成日時</text><text x="610.415392522817" y="181.5" font-size="10" font-family="monospace" fill="#999">created_at</text><rect x="853.5976690406009" y="243.4760915111284" width="244.8" height="172" fill="#fff" stroke="none"/><line x1="853.5976690406009" y1="243.4760915111284" x2="1098.397669040601" y2="243.4760915111284" stroke="#2e7d32" stroke-width="1.5"/><line x1="853.5976690406009" y1="415.4760915111284" x2="1098.397669040601" y2="415.4760915111284" stroke="#2e7d32" stroke-width="1.5"/><rect x="853.5976690406009" y="243.4760915111284" width="244.8" height="46" fill="#e8f5e9"/><line x1="853.5976690406009" y1="289.4760915111284" x2="1098.397669040601" y2="289.4760915111284" stroke="#2e7d32" stroke-width="0.5" stroke-dasharray="3,3"/><text x="975.9976690406008" y="260.9560915111284" text-anchor="middle" font-weight="bold" fill="#2e7d32">注文</text><text x="975.9976690406008" y="280.2760915111284" text-anchor="middle" font-size="10" font-family="monospace" fill="#888">orders</text><rect x="869.5976690406009" y="303.9760915111284" width="20" height="12" rx="2" fill="#fff8e1" stroke="none"/><text x="879.5976690406009" y="311.9760915111284" font-size="8" font-weight="bold" fill="#c8a415" text-anchor="middle">PK</text><text x="893.5976690406009" y="312.9760915111284" font-size="11" fill="#333" font-weight="bold">ID</text><text x="973.5976690406009" y="312.9760915111284" font-size="10" font-family="monospace" fill="#999">id</text><rect x="869.5976690406009" y="321.9760915111284" width="20" height="12" rx="2" fill="#f3e5f5" stroke="none"/><text x="879.5976690406009" y="329.9760915111284" font-size="8" font-weight="bold" fill="#7b1fa2" text-anchor="middle">FK</text><text x="893.5976690406009" y="330.9760915111284" font-size="11" fill="#555">ユーザーID</text><text x="973.5976690406009" y="330.9760915111284" font-size="10" font-family="monospace" fill="#999">user_id</text><text x="893.5976690406009" y="348.9760915111284" font-size="11" fill="#555">注文日</text><text x="973.5976690406009" y="348.9760915111284" font-size="10" font-family="monospace" fill="#999">order_date</text><text x="893.5976690406009" y="366.9760915111284" font-size="11" fill="#555">合計金額</text><text x="973.5976690406009" y="366.9760915111284" font-size="10" font-family="monospace" fill="#999">total</text><text x="893.5976690406009" y="384.9760915111284" font-size="11" fill="#555">ステータス</text><text x="973.5976690406009" y="384.9760915111284" font-size="10" font-family="monospace" fill="#999">status</text><text x="893.5976690406009" y="402.9760915111284" font-size="11" fill="#555">配送先</text><text x="973.5976690406009" y="402.9760915111284" font-size="10" font-family="monospace" fill="#999">shipping_address</text><rect x="768.0384199730736" y="714.1447600638651" width="176" height="154" fill="#fff" stroke="none"/><line x1="768.0384199730736" y1="714.1447600638651" x2="944.0384199730736" y2="714.1447600638651" stroke="#2e7d32" stroke-width="1.5"/><line x1="768.0384199730736" y1="868.1447600638651" x2="944.0384199730736" y2="868.1447600638651" stroke="#2e7d32" stroke-width="1.5"/><rect x="768.0384199730736" y="714.1447600638651" width="176" height="46" fill="#e8f5e9"/><line x1="768.0384199730736" y1="760.1447600638651" x2="944.0384199730736" y2="760.1447600638651" stroke="#2e7d32" stroke-width="0.5" stroke-dasharray="3,3"/><text x="856.0384199730736" y="731.6247600638651" text-anchor="middle" font-weight="bold" fill="#2e7d32">注文明細</text><text x="856.0384199730736" y="750.944760063865" text-anchor="middle" font-size="10" font-family="monospace" fill="#888">order_items</text><rect x="784.0384199730736" y="774.6447600638651" width="20" height="12" rx="2" fill="#fff8e1" stroke="none"/><text x="794.0384199730736" y="782.6447600638651" font-size="8" font-weight="bold" fill="#c8a415" text-anchor="middle">PK</text><text x="808.0384199730736" y="783.6447600638651" font-size="11" fill="#333" font-weight="bold">ID</text><text x="860.0384199730736" y="783.6447600638651" font-size="10" font-family="monospace" fill="#999">id</text><rect x="784.0384199730736" y="792.6447600638651" width="20" height="12" rx="2" fill="#f3e5f5" stroke="none"/><text x="794.0384199730736" y="800.6447600638651" font-size="8" font-weight="bold" fill="#7b1fa2" text-anchor="middle">FK</text><text x="808.0384199730736" y="801.6447600638651" font-size="11" fill="#555">注文ID</text><text x="860.0384199730736" y="801.6447600638651" font-size="10" font-family="monospace" fill="#999">order_id</text><rect x="784.0384199730736" y="810.6447600638651" width="20" height="12" rx="2" fill="#f3e5f5" stroke="none"/><text x="794.0384199730736" y="818.6447600638651" font-size="8" font-weight="bold" fill="#7b1fa2" text-anchor="middle">FK</text><text x="808.0384199730736" y="819.6447600638651" font-size="11" fill="#555">商品ID</text><text x="860.0384199730736" y="819.6447600638651" font-size="10" font-family="monospace" fill="#999">product_id</text><text x="808.0384199730736" y="837.6447600638651" font-size="11" fill="#555">数量</text><text x="860.0384199730736" y="837.6447600638651" font-size="10" font-family="monospace" fill="#999">quantity</text><text x="808.0384199730736" y="855.6447600638651" font-size="11" fill="#555">単価</text><text x="860.0384199730736" y="855.6447600638651" font-size="10" font-family="monospace" fill="#999">unit_price</text><rect x="272.81607385060386" y="887.4898760666902" width="210.8" height="172" fill="#fff" stroke="none"/><line x1="272.81607385060386" y1="887.4898760666902" x2="483.61607385060387" y2="887.4898760666902" stroke="#2e7d32" stroke-width="1.5"/><line x1="272.81607385060386" y1="1059.4898760666902" x2="483.61607385060387" y2="1059.4898760666902" stroke="#2e7d32" stroke-width="1.5"/><rect x="272.81607385060386" y="887.4898760666902" width="210.8" height="46" fill="#e8f5e9"/><line x1="272.81607385060386" y1="933.4898760666902" x2="483.61607385060387" y2="933.4898760666902" stroke="#2e7d32" stroke-width="0.5" stroke-dasharray="3,3"/><text x="378.21607385060383" y="904.9698760666902" text-anchor="middle" font-weight="bold" fill="#2e7d32">商品</text><text x="378.21607385060383" y="924.2898760666901" text-anchor="middle" font-size="10" font-family="monospace" fill="#888">products</text><rect x="288.81607385060386" y="947.9898760666902" width="20" height="12" rx="2" fill="#fff8e1" stroke="none"/><text x="298.81607385060386" y="955.9898760666902" font-size="8" font-weight="bold" fill="#c8a415" text-anchor="middle">PK</text><text x="312.81607385060386" y="956.9898760666902" font-size="11" fill="#333" font-weight="bold">ID</text><text x="392.81607385060386" y="956.9898760666902" font-size="10" font-family="monospace" fill="#999">id</text><text x="312.81607385060386" y="974.9898760666902" font-size="11" fill="#555">商品名</text><text x="392.81607385060386" y="974.9898760666902" font-size="10" font-family="monospace" fill="#999">name</text><text x="312.81607385060386" y="992.9898760666902" font-size="11" fill="#555">説明</text><text x="392.81607385060386" y="992.9898760666902" font-size="10" font-family="monospace" fill="#999">description</text><text x="312.81607385060386" y="1010.9898760666902" font-size="11" fill="#555">価格</text><text x="392.81607385060386" y="1010.9898760666902" font-size="10" font-family="monospace" fill="#999">price</text><text x="312.81607385060386" y="1028.9898760666902" font-size="11" fill="#555">在庫数</text><text x="392.81607385060386" y="1028.9898760666902" font-size="10" font-family="monospace" fill="#999">stock</text><rect x="288.81607385060386" y="1037.9898760666902" width="20" height="12" rx="2" fill="#f3e5f5" stroke="none"/><text x="298.81607385060386" y="1045.9898760666902" font-size="8" font-weight="bold" fill="#7b1fa2" text-anchor="middle">FK</text><text x="312.81607385060386" y="1046.9898760666902" font-size="11" fill="#555">カテゴリID</text><text x="392.81607385060386" y="1046.9898760666902" font-size="10" font-family="monospace" fill="#999">category_id</text><rect x="40" y="1354.15102283438" width="211.2" height="118" fill="#fff" stroke="none"/><line x1="40" y1="1354.15102283438" x2="251.2" y2="1354.15102283438" stroke="#2e7d32" stroke-width="1.5"/><line x1="40" y1="1472.15102283438" x2="251.2" y2="1472.15102283438" stroke="#2e7d32" stroke-width="1.5"/><rect x="40" y="1354.15102283438" width="211.2" height="46" fill="#e8f5e9"/><line x1="40" y1="1400.15102283438" x2="251.2" y2="1400.15102283438" stroke="#2e7d32" stroke-width="0.5" stroke-dasharray="3,3"/><text x="145.6" y="1371.63102283438" text-anchor="middle" font-weight="bold" fill="#2e7d32">カテゴリ</text><text x="145.6" y="1390.95102283438" text-anchor="middle" font-size="10" font-family="monospace" fill="#888">categories</text><rect x="56" y="1414.65102283438" width="20" height="12" rx="2" fill="#fff8e1" stroke="none"/><text x="66" y="1422.65102283438" font-size="8" font-weight="bold" fill="#c8a415" text-anchor="middle">PK</text><text x="80" y="1423.65102283438" font-size="11" fill="#333" font-weight="bold">ID</text><text x="174" y="1423.65102283438" font-size="10" font-family="monospace" fill="#999">id</text><rect x="56" y="1432.65102283438" width="20" height="12" rx="2" fill="#e3f2fd" stroke="none"/><text x="66" y="1440.65102283438" font-size="8" font-weight="bold" fill="#1565c0" text-anchor="middle">UK</text><text x="80" y="1441.65102283438" font-size="11" fill="#333" font-weight="bold">カテゴリ名</text><text x="174" y="1441.65102283438" font-size="10" font-family="monospace" fill="#999">name</text><rect x="56" y="1450.65102283438" width="20" height="12" rx="2" fill="#f3e5f5" stroke="none"/><text x="66" y="1458.65102283438" font-size="8" font-weight="bold" fill="#7b1fa2" text-anchor="middle">FK</text><text x="80" y="1459.65102283438" font-size="11" fill="#555">親カテゴリID</text><text x="174" y="1459.65102283438" font-size="10" font-family="monospace" fill="#999">parent_id</text><rect x="159.04436581335528" y="389.4137045315481" width="204" height="172" fill="#fff" stroke="none"/><line x1="159.04436581335528" y1="389.4137045315481" x2="363.0443658133553" y2="389.4137045315481" stroke="#2e7d32" stroke-width="1.5"/><line x1="159.04436581335528" y1="561.4137045315481" x2="363.0443658133553" y2="561.4137045315481" stroke="#2e7d32" stroke-width="1.5"/><rect x="159.04436581335528" y="389.4137045315481" width="204" height="46" fill="#e8f5e9"/><line x1="159.04436581335528" y1="435.4137045315481" x2="363.0443658133553" y2="435.4137045315481" stroke="#2e7d32" stroke-width="0.5" stroke-dasharray="3,3"/><text x="261.0443658133553" y="406.8937045315481" text-anchor="middle" font-weight="bold" fill="#2e7d32">レビュー</text><text x="261.0443658133553" y="426.2137045315481" text-anchor="middle" font-size="10" font-family="monospace" fill="#888">reviews</text><rect x="175.04436581335528" y="449.9137045315481" width="20" height="12" rx="2" fill="#fff8e1" stroke="none"/><text x="185.04436581335528" y="457.9137045315481" font-size="8" font-weight="bold" fill="#c8a415" text-anchor="middle">PK</text><text x="199.04436581335528" y="458.9137045315481" font-size="11" fill="#333" font-weight="bold">ID</text><text x="279.0443658133553" y="458.9137045315481" font-size="10" font-family="monospace" fill="#999">id</text><rect x="175.04436581335528" y="467.9137045315481" width="20" height="12" rx="2" fill="#f3e5f5" stroke="none"/><text x="185.04436581335528" y="475.9137045315481" font-size="8" font-weight="bold" fill="#7b1fa2" text-anchor="middle">FK</text><text x="199.04436581335528" y="476.9137045315481" font-size="11" fill="#555">ユーザーID</text><text x="279.0443658133553" y="476.9137045315481" font-size="10" font-family="monospace" fill="#999">user_id</text><rect x="175.04436581335528" y="485.9137045315481" width="20" height="12" rx="2" fill="#f3e5f5" stroke="none"/><text x="185.04436581335528" y="493.9137045315481" font-size="8" font-weight="bold" fill="#7b1fa2" text-anchor="middle">FK</text><text x="199.04436581335528" y="494.9137045315481" font-size="11" fill="#555">商品ID</text><text x="279.0443658133553" y="494.9137045315481" font-size="10" font-family="monospace" fill="#999">product_id</text><text x="199.04436581335528" y="512.9137045315481" font-size="11" fill="#555">評価</text><text x="279.0443658133553" y="512.9137045315481" font-size="10" font-family="monospace" fill="#999">rating</text><text x="199.04436581335528" y="530.9137045315481" font-size="11" fill="#555">コメント</text><text x="279.0443658133553" y="530.9137045315481" font-size="10" font-family="monospace" fill="#999">comment</text><text x="199.04436581335528" y="548.9137045315481" font-size="11" fill="#555">作成日時</text><text x="279.0443658133553" y="548.9137045315481" font-size="10" font-family="monospace" fill="#999">created_at</text><path d="M714.8153925228171,190.87108189599238 L853.5976690406009,264.5204850163765" fill="none" stroke="#666" stroke-width="1.5"/><line x1="717.1943313240872" y1="203.4544300267488" x2="726.5696236452275" y2="185.78796762214813" stroke="#666" stroke-width="2"/><line x1="841.2311453573805" y1="257.9577803915783" x2="853.5976690406009" y2="264.5204850163765" stroke="#666" stroke-width="1.5"/><line x1="841.2311453573805" y1="257.9577803915783" x2="856.410256736943" y2="259.22054629499627" stroke="#666" stroke-width="1.5"/><line x1="841.2311453573805" y1="257.9577803915783" x2="850.7850813442587" y2="269.8204237377567" stroke="#666" stroke-width="1.5"/><path d="M953.6515664728263,415.4760915111284 L876.0459769232903,714.1447600638651" fill="none" stroke="#666" stroke-width="1.5"/><line x1="941.9610618297372" y1="420.70410271902693" x2="961.3182735485273" y2="425.73384967826195" stroke="#666" stroke-width="2"/><line x1="879.5667997947547" y1="700.594711860712" x2="876.0459769232903" y2="714.1447600638651" stroke="#666" stroke-width="1.5"/><line x1="879.5667997947547" y1="700.594711860712" x2="881.8531404389273" y2="715.6536841516356" stroke="#666" stroke-width="1.5"/><line x1="879.5667997947547" y1="700.594711860712" x2="870.2388134076532" y2="712.6358359760945" stroke="#666" stroke-width="1.5"/><path d="M483.6160738506038,933.2674474116441 L768.0384199730736,824.7270534380971" fill="none" stroke="#666" stroke-width="1.5"/><line x1="494.65569688981867" y1="939.7579576498331" x2="487.52494707437523" y2="921.0723373211003" stroke="#666" stroke-width="2"/><line x1="754.9584857429606" y1="829.7185783089075" x2="768.0384199730736" y2="824.7270534380971" stroke="#666" stroke-width="1.5"/><line x1="754.9584857429606" y1="829.7185783089075" x2="765.8991950284405" y2="819.1213673394773" stroke="#666" stroke-width="1.5"/><line x1="754.9584857429606" y1="829.7185783089075" x2="770.1776449177066" y2="830.3327395367169" stroke="#666" stroke-width="1.5"/><path d="M176.81574070869027,1354.15102283438 L332.7151636650553,1059.4898760666902" fill="none" stroke="#666" stroke-width="1.5"/><line x1="189.39610208214035" y1="1351.7563396166233" x2="171.7179216581703" y2="1342.4031617129608" stroke="#666" stroke-width="2"/><line x1="326.1679391324915" y1="1071.8646023634692" x2="332.7151636650553" y2="1059.4898760666902" stroke="#666" stroke-width="1.5"/><line x1="326.1679391324915" y1="1071.8646023634692" x2="327.4117095378643" y2="1056.6839226955915" stroke="#666" stroke-width="1.5"/><line x1="326.1679391324915" y1="1071.8646023634692" x2="338.0186177922463" y2="1062.2958294377888" stroke="#666" stroke-width="1.5"/><path d="M508.03435767291637,194 L336.5244826586989,389.4137045315481" fill="none" stroke="#666" stroke-width="1.5"/><line x1="495.24142277066653" y1="193.41620501304158" x2="510.27300681052395" y2="206.60906221884437" stroke="#666" stroke-width="2"/><line x1="345.75948270276086" y1="378.8915957036479" x2="336.5244826586989" y2="389.4137045315481" stroke="#666" stroke-width="1.5"/><line x1="345.75948270276086" y1="378.8915957036479" x2="341.03395787065614" y2="393.3715616932889" stroke="#666" stroke-width="1.5"/><line x1="345.75948270276086" y1="378.8915957036479" x2="332.01500744674166" y2="385.45584736980726" stroke="#666" stroke-width="1.5"/><path d="M357.98469666958886,887.4898760666902 L281.27574299437026,561.4137045315481" fill="none" stroke="#666" stroke-width="1.5"/><line x1="365.88698859964336" y1="877.412486412013" x2="346.4184475584284" y2="881.9924328883955" stroke="#666" stroke-width="2"/><line x1="284.48170552783796" y1="575.0416832603986" x2="281.27574299437026" y2="561.4137045315481" stroke="#666" stroke-width="1.5"/><line x1="284.48170552783796" y1="575.0416832603986" x2="275.43518068200575" y2="562.7876884744628" stroke="#666" stroke-width="1.5"/><line x1="284.48170552783796" y1="575.0416832603986" x2="287.1163053067348" y2="560.0397205886334" stroke="#666" stroke-width="1.5"/></svg>