<svg xmlns="http://www.w3.org/2000/svg" width="943.4099999999999" height="683" viewBox="0 0 943.4099999999999 683"><rect width="100%" height="100%" fill="white"/><style>text { font-family: sans-serif; font-size: 13px; fill: #333; }</style><rect x="40" y="40" width="368" height="126" rx="4" fill="#fff" stroke="#aaa" stroke-width="1"/><rect x="40" y="40" width="368" height="28" rx="4" fill="#e8f5e9"/><rect x="40" y="64" width="368" height="4" fill="#e8f5e9"/><text x="224" y="59.599999999999994" text-anchor="middle" font-weight="bold" fill="#2e7d32">ユーザー (users)</text><rect x="56" y="72.5" width="20" height="12" rx="2" fill="#fff8e1" stroke="none"/><text x="66" y="80.5" font-size="8" font-weight="bold" fill="#c8a415" text-anchor="middle">PK</text><text x="80" y="81.5" font-size="11" fill="#333" font-weight="bold">ID</text><text x="214" y="81.5" font-size="10" font-family="monospace" fill="#999">id</text><text x="310.4" y="81.5" font-size="10" font-family="monospace" fill="#bbb">BIGINT</text><rect x="56" y="90.5" width="20" height="12" rx="2" fill="#e3f2fd" stroke="none"/><text x="66" y="98.5" font-size="8" font-weight="bold" fill="#1565c0" text-anchor="middle">UK</text><text x="80" y="99.5" font-size="11" fill="#333" font-weight="bold">メールアドレス</text><text x="214" y="99.5" font-size="10" font-family="monospace" fill="#999">email</text><text x="310.4" y="99.5" font-size="10" font-family="monospace" fill="#bbb">VARCHAR(255)</text><text x="80" y="117.5" font-size="11" fill="#555">氏名</text><text x="214" y="117.5" font-size="10" font-family="monospace" fill="#999">name</text><text x="310.4" y="117.5" font-size="10" font-family="monospace" fill="#bbb">VARCHAR(100)</text><text x="80" y="135.5" font-size="11" fill="#555">パスワードハッシュ</text><text x="214" y="135.5" font-size="10" font-family="monospace" fill="#999">password_hash</text><text x="310.4" y="135.5" font-size="10" font-family="monospace" fill="#bbb">VARCHAR(255)</text><text x="80" y="153.5" font-size="11" fill="#555">作成日時</text><text x="214" y="153.5" font-size="10" font-family="monospace" fill="#999">created_at</text><text x="310.4" y="153.5" font-size="10" font-family="monospace" fill="#bbb">TIMESTAMP</text><rect x="40" y="260.5" width="341.2" height="144" rx="4" fill="#fff" stroke="#aaa" stroke-width="1"/><rect x="40" y="260.5" width="341.2" height="28" rx="4" fill="#e8f5e9"/><rect x="40" y="284.5" width="341.2" height="4" fill="#e8f5e9"/><text x="210.6" y="280.1" text-anchor="middle" font-weight="bold" fill="#2e7d32">注文 (orders)</text><rect x="56" y="293" width="20" height="12" rx="2" fill="#fff8e1" stroke="none"/><text x="66" y="301" font-size="8" font-weight="bold" fill="#c8a415" text-anchor="middle">PK</text><text x="80" y="302" font-size="11" fill="#333" font-weight="bold">ID</text><text x="160" y="302" font-size="10" font-family="monospace" fill="#999">id</text><text x="276.8" y="302" font-size="10" font-family="monospace" fill="#bbb">BIGINT</text><rect x="56" y="311" width="20" height="12" rx="2" fill="#f3e5f5" stroke="none"/><text x="66" y="319" font-size="8" font-weight="bold" fill="#7b1fa2" text-anchor="middle">FK</text><text x="80" y="320" font-size="11" fill="#555">ユーザーID</text><text x="160" y="320" font-size="10" font-family="monospace" fill="#999">user_id</text><text x="276.8" y="320" font-size="10" font-family="monospace" fill="#bbb">BIGINT</text><text x="80" y="338" font-size="11" fill="#555">注文日</text><text x="160" y="338" font-size="10" font-family="monospace" fill="#999">order_date</text><text x="276.8" y="338" font-size="10" font-family="monospace" fill="#bbb">DATE</text><text x="80" y="356" font-size="11" fill="#555">合計金額</text><text x="160" y="356" font-size="10" font-family="monospace" fill="#999">total</text><text x="276.8" y="356" font-size="10" font-family="monospace" fill="#bbb">DECIMAL(10,2)</text><text x="80" y="374" font-size="11" fill="#555">ステータス</text><text x="160" y="374" font-size="10" font-family="monospace" fill="#999">status</text><text x="276.8" y="374" font-size="10" font-family="monospace" fill="#bbb">VARCHAR(20)</text><text x="80" y="392" font-size="11" fill="#555">配送先</text><text x="160" y="392" font-size="10" font-family="monospace" fill="#999">shipping_address</text><text x="276.8" y="392" font-size="10" font-family="monospace" fill="#bbb">TEXT</text><rect x="254.66999999999996" y="499" width="272.4" height="126" rx="4" fill="#fff" stroke="#aaa" stroke-width="1"/><rect x="254.66999999999996" y="499" width="272.4" height="28" rx="4" fill="#e8f5e9"/><rect x="254.66999999999996" y="523" width="272.4" height="4" fill="#e8f5e9"/><text x="390.86999999999995" y="518.6" text-anchor="middle" font-weight="bold" fill="#2e7d32">注文明細 (order_items)</text><rect x="270.66999999999996" y="531.5" width="20" height="12" rx="2" fill="#fff8e1" stroke="none"/><text x="280.66999999999996" y="539.5" font-size="8" font-weight="bold" fill="#c8a415" text-anchor="middle">PK</text><text x="294.66999999999996" y="540.5" font-size="11" fill="#333" font-weight="bold">ID</text><text x="346.66999999999996" y="540.5" font-size="10" font-family="monospace" fill="#999">id</text><text x="422.66999999999996" y="540.5" font-size="10" font-family="monospace" fill="#bbb">BIGINT</text><rect x="270.66999999999996" y="549.5" width="20" height="12" rx="2" fill="#f3e5f5" stroke="none"/><text x="280.66999999999996" y="557.5" font-size="8" font-weight="bold" fill="#7b1fa2" text-anchor="middle">FK</text><text x="294.66999999999996" y="558.5" font-size="11" fill="#555">注文ID</text><text x="346.66999999999996" y="558.5" font-size="10" font-family="monospace" fill="#999">order_id</text><text x="422.66999999999996" y="558.5" font-size="10" font-family="monospace" fill="#bbb">BIGINT</text><rect x="270.66999999999996" y="567.5" width="20" height="12" rx="2" fill="#f3e5f5" stroke="none"/><text x="280.66999999999996" y="575.5" font-size="8" font-weight="bold" fill="#7b1fa2" text-anchor="middle">FK</text><text x="294.66999999999996" y="576.5" font-size="11" fill="#555">商品ID</text><text x="346.66999999999996" y="576.5" font-size="10" font-family="monospace" fill="#999">product_id</text><text x="422.66999999999996" y="576.5" font-size="10" font-family="monospace" fill="#bbb">BIGINT</text><text x="294.66999999999996" y="594.5" font-size="11" fill="#555">数量</text><text x="346.66999999999996" y="594.5" font-size="10" font-family="monospace" fill="#999">quantity</text><text x="422.66999999999996" y="594.5" font-size="10" font-family="monospace" fill="#bbb">INT</text><text x="294.66999999999996" y="612.5" font-size="11" fill="#555">単価</text><text x="346.66999999999996" y="612.5" font-size="10" font-family="monospace" fill="#999">unit_price</text><text x="422.66999999999996" y="612.5" font-size="10" font-family="monospace" fill="#bbb">DECIMAL(10,2)</text><rect x="484.34" y="260.5" width="307.2" height="144" rx="4" fill="#fff" stroke="#aaa" stroke-width="1"/><rect x="484.34" y="260.5" width="307.2" height="28" rx="4" fill="#e8f5e9"/><rect x="484.34" y="284.5" width="307.2" height="4" fill="#e8f5e9"/><text x="637.9399999999999" y="280.1" text-anchor="middle" font-weight="bold" fill="#2e7d32">商品 (products)</text><rect x="500.34" y="293" width="20" height="12" rx="2" fill="#fff8e1" stroke="none"/><text x="510.34" y="301" font-size="8" font-weight="bold" fill="#c8a415" text-anchor="middle">PK</text><text x="524.3399999999999" y="302" font-size="11" fill="#333" font-weight="bold">ID</text><text x="604.3399999999999" y="302" font-size="10" font-family="monospace" fill="#999">id</text><text x="687.1399999999999" y="302" font-size="10" font-family="monospace" fill="#bbb">BIGINT</text><text x="524.3399999999999" y="320" font-size="11" fill="#555">商品名</text><text x="604.3399999999999" y="320" font-size="10" font-family="monospace" fill="#999">name</text><text x="687.1399999999999" y="320" font-size="10" font-family="monospace" fill="#bbb">VARCHAR(200)</text><text x="524.3399999999999" y="338" font-size="11" fill="#555">説明</text><text x="604.3399999999999" y="338" font-size="10" font-family="monospace" fill="#999">description</text><text x="687.1399999999999" y="338" font-size="10" font-family="monospace" fill="#bbb">TEXT</text><text x="524.3399999999999" y="356" font-size="11" fill="#555">価格</text><text x="604.3399999999999" y="356" font-size="10" font-family="monospace" fill="#999">price</text><text x="687.1399999999999" y="356" font-size="10" font-family="monospace" fill="#bbb">DECIMAL(10,2)</text><text x="524.3399999999999" y="374" font-size="11" fill="#555">在庫数</text><text x="604.3399999999999" y="374" font-size="10" font-family="monospace" fill="#999">stock</text><text x="687.1399999999999" y="374" font-size="10" font-family="monospace" fill="#bbb">INT</text><rect x="500.34" y="383" width="20" height="12" rx="2" fill="#f3e5f5" stroke="none"/><text x="510.34" y="391" font-size="8" font-weight="bold" fill="#7b1fa2" text-anchor="middle">FK</text><text x="524.3399999999999" y="392" font-size="11" fill="#555">カテゴリID</text><text x="604.3399999999999" y="392" font-size="10" font-family="monospace" fill="#999">category_id</text><text x="687.1399999999999" y="392" font-size="10" font-family="monospace" fill="#bbb">BIGINT</text><rect x="511.14" y="40" width="300.79999999999995" height="90" rx="4" fill="#fff" stroke="#aaa" stroke-width="1"/><rect x="511.14" y="40" width="300.79999999999995" height="28" rx="4" fill="#e8f5e9"/><rect x="511.14" y="64" width="300.79999999999995" height="4" fill="#e8f5e9"/><text x="661.54" y="59.599999999999994" text-anchor="middle" font-weight="bold" fill="#2e7d32">カテゴリ (categories)</text><rect x="527.14" y="72.5" width="20" height="12" rx="2" fill="#fff8e1" stroke="none"/><text x="537.14" y="80.5" font-size="8" font-weight="bold" fill="#c8a415" text-anchor="middle">PK</text><text x="551.14" y="81.5" font-size="11" fill="#333" font-weight="bold">ID</text><text x="645.14" y="81.5" font-size="10" font-family="monospace" fill="#999">id</text><text x="714.34" y="81.5" font-size="10" font-family="monospace" fill="#bbb">BIGINT</text><rect x="527.14" y="90.5" width="20" height="12" rx="2" fill="#e3f2fd" stroke="none"/><text x="537.14" y="98.5" font-size="8" font-weight="bold" fill="#1565c0" text-anchor="middle">UK</text><text x="551.14" y="99.5" font-size="11" fill="#333" font-weight="bold">カテゴリ名</text><text x="645.14" y="99.5" font-size="10" font-family="monospace" fill="#999">name</text><text x="714.34" y="99.5" font-size="10" font-family="monospace" fill="#bbb">VARCHAR(100)</text><rect x="527.14" y="108.5" width="20" height="12" rx="2" fill="#f3e5f5" stroke="none"/><text x="537.14" y="116.5" font-size="8" font-weight="bold" fill="#7b1fa2" text-anchor="middle">FK</text><text x="551.14" y="117.5" font-size="11" fill="#555">親カテゴリID</text><text x="645.14" y="117.5" font-size="10" font-family="monospace" fill="#999">parent_id</text><text x="714.34" y="117.5" font-size="10" font-family="monospace" fill="#bbb">BIGINT</text><rect x="630.2099999999999" y="499" width="273.2" height="144" rx="4" fill="#fff" stroke="#aaa" stroke-width="1"/><rect x="630.2099999999999" y="499" width="273.2" height="28" rx="4" fill="#e8f5e9"/><rect x="630.2099999999999" y="523" width="273.2" height="4" fill="#e8f5e9"/><text x="766.81" y="518.6" text-anchor="middle" font-weight="bold" fill="#2e7d32">レビュー (reviews)</text><rect x="646.2099999999999" y="531.5" width="20" height="12" rx="2" fill="#fff8e1" stroke="none"/><text x="656.2099999999999" y="539.5" font-size="8" font-weight="bold" fill="#c8a415" text-anchor="middle">PK</text><text x="670.2099999999999" y="540.5" font-size="11" fill="#333" font-weight="bold">ID</text><text x="750.2099999999999" y="540.5" font-size="10" font-family="monospace" fill="#999">id</text><text x="826.2099999999999" y="540.5" font-size="10" font-family="monospace" fill="#bbb">BIGINT</text><rect x="646.2099999999999" y="549.5" width="20" height="12" rx="2" fill="#f3e5f5" stroke="none"/><text x="656.2099999999999" y="557.5" font-size="8" font-weight="bold" fill="#7b1fa2" text-anchor="middle">FK</text><text x="670.2099999999999" y="558.5" font-size="11" fill="#555">ユーザーID</text><text x="750.2099999999999" y="558.5" font-size="10" font-family="monospace" fill="#999">user_id</text><text x="826.2099999999999" y="558.5" font-size="10" font-family="monospace" fill="#bbb">BIGINT</text><rect x="646.2099999999999" y="567.5" width="20" height="12" rx="2" fill="#f3e5f5" stroke="none"/><text x="656.2099999999999" y="575.5" font-size="8" font-weight="bold" fill="#7b1fa2" text-anchor="middle">FK</text><text x="670.2099999999999" y="576.5" font-size="11" fill="#555">商品ID</text><text x="750.2099999999999" y="576.5" font-size="10" font-family="monospace" fill="#999">product_id</text><text x="826.2099999999999" y="576.5" font-size="10" font-family="monospace" fill="#bbb">BIGINT</text><text x="670.2099999999999" y="594.5" font-size="11" fill="#555">評価</text><text x="750.2099999999999" y="594.5" font-size="10" font-family="monospace" fill="#999">rating</text><text x="826.2099999999999" y="594.5" font-size="10" font-family="monospace" fill="#bbb">SMALLINT</text><text x="670.2099999999999" y="612.5" font-size="11" fill="#555">コメント</text><text x="750.2099999999999" y="612.5" font-size="10" font-family="monospace" fill="#999">comment</text><text x="826.2099999999999" y="612.5" font-size="10" font-family="monospace" fill="#bbb">TEXT</text><text x="670.2099999999999" y="630.5" font-size="11" fill="#555">作成日時</text><text x="750.2099999999999" y="630.5" font-size="10" font-family="monospace" fill="#999">created_at</text><text x="826.2099999999999" y="630.5" font-size="10" font-family="monospace" fill="#bbb">TIMESTAMP</text><path d="M220.32156862745097,166 L214.80392156862746,260.5" fill="none" stroke="#666" stroke-width="1.5"/><text x="214.80392156862746" y="254.5" text-anchor="middle" font-size="12" font-weight="bold" fill="#666">1</text><text x="220.32156862745097" y="160" text-anchor="middle" font-size="12" font-weight="bold" fill="#666">*</text><path d="M267.15529411764703,404.5 L341.38411764705876,499" fill="none" stroke="#666" stroke-width="1.5"/><text x="341.38411764705876" y="493" text-anchor="middle" font-size="12" font-weight="bold" fill="#666">1</text><text x="267.15529411764703" y="398.5" text-anchor="middle" font-size="12" font-weight="bold" fill="#666">*</text><path d="M560.4278431372549,404.5 L458.6931372549019,499" fill="none" stroke="#666" stroke-width="1.5"/><text x="458.6931372549019" y="493" text-anchor="middle" font-size="12" font-weight="bold" fill="#666">1</text><text x="560.4278431372549" y="398.5" text-anchor="middle" font-size="12" font-weight="bold" fill="#666">*</text><path d="M657.2490909090909,130 L644.8054545454545,260.5" fill="none" stroke="#666" stroke-width="1.5"/><text x="644.8054545454545" y="254.5" text-anchor="middle" font-size="12" font-weight="bold" fill="#666">1</text><text x="657.2490909090909" y="124" text-anchor="middle" font-size="12" font-weight="bold" fill="#666">*</text><path d="M408,155.7334444973797 Q895.68,295.5 800.4892740471869,499" fill="none" stroke="#666" stroke-width="1.5"/><text x="437.9107903066867" y="158.53109390818545" text-anchor="middle" font-size="12" font-weight="bold" fill="#666">1</text><text x="808.1326827953081" y="474.06191430675693" text-anchor="middle" font-size="12" font-weight="bold" fill="#666">*</text><path d="M676.8441509433961,404.5 L727.9058490566038,499" fill="none" stroke="#666" stroke-width="1.5"/><text x="727.9058490566038" y="493" text-anchor="middle" font-size="12" font-weight="bold" fill="#666">1</text><text x="676.8441509433961" y="398.5" text-anchor="middle" font-size="12" font-weight="bold" fill="#666">*</text></svg>