<svg xmlns="http://www.w3.org/2000/svg" width="1051.119370399726" height="1756.2141114652377" viewBox="0 0 1051.119370399726 1756.2141114652377"><rect width="100%" height="100%" fill="white"/><style>text { font-family: sans-serif; font-size: 13px; fill: #333; }</style><rect x="238.9860608633304" y="40" width="278.4" height="154" fill="#fff" stroke="none"/><line x1="238.9860608633304" y1="40" x2="517.3860608633304" y2="40" stroke="#2e7d32" stroke-width="1.5"/><line x1="238.9860608633304" y1="194" x2="517.3860608633304" y2="194" stroke="#2e7d32" stroke-width="1.5"/><rect x="238.9860608633304" y="40" width="278.4" height="46" fill="#e8f5e9"/><line x1="238.9860608633304" y1="86" x2="517.3860608633304" y2="86" stroke="#2e7d32" stroke-width="0.5" stroke-dasharray="3,3"/><text x="378.1860608633304" y="57.480000000000004" text-anchor="middle" font-weight="bold" fill="#2e7d32">ユーザー</text><text x="378.1860608633304" y="76.80000000000001" text-anchor="middle" font-size="10" font-family="monospace" fill="#888">users</text><rect x="254.9860608633304" y="100.5" width="20" height="12" rx="2" fill="#fff8e1" stroke="none"/><text x="264.9860608633304" y="108.5" font-size="8" font-weight="bold" fill="#c8a415" text-anchor="middle">PK</text><text x="278.9860608633304" y="109.5" font-size="11" fill="#333" font-weight="bold">ID</text><text x="412.9860608633304" y="109.5" font-size="10" font-family="monospace" fill="#999">id</text><rect x="254.9860608633304" y="118.5" width="20" height="12" rx="2" fill="#e3f2fd" stroke="none"/><text x="264.9860608633304" y="126.5" font-size="8" font-weight="bold" fill="#1565c0" text-anchor="middle">UK</text><text x="278.9860608633304" y="127.5" font-size="11" fill="#333" font-weight="bold">メールアドレス</text><text x="412.9860608633304" y="127.5" font-size="10" font-family="monospace" fill="#999">email</text><text x="278.9860608633304" y="145.5" font-size="11" fill="#555">氏名</text><text x="412.9860608633304" y="145.5" font-size="10" font-family="monospace" fill="#999">name</text><text x="278.9860608633304" y="163.5" font-size="11" fill="#555">パスワードハッシュ</text><text x="412.9860608633304" y="163.5" font-size="10" font-family="monospace" fill="#999">password_hash</text><text x="278.9860608633304" y="181.5" font-size="11" fill="#555">作成日時</text><text x="412.9860608633304" y="181.5" font-size="10" font-family="monospace" fill="#999">created_at</text><rect x="766.319370399726" y="137.58105628494695" width="244.8" height="172" fill="#fff" stroke="none"/><line x1="766.319370399726" y1="137.58105628494695" x2="1011.119370399726" y2="137.58105628494695" stroke="#2e7d32" stroke-width="1.5"/><line x1="766.319370399726" y1="309.58105628494695" x2="1011.119370399726" y2="309.58105628494695" stroke="#2e7d32" stroke-width="1.5"/><rect x="766.319370399726" y="137.58105628494695" width="244.8" height="46" fill="#e8f5e9"/><line x1="766.319370399726" y1="183.58105628494695" x2="1011.119370399726" y2="183.58105628494695" stroke="#2e7d32" stroke-width="0.5" stroke-dasharray="3,3"/><text x="888.719370399726" y="155.06105628494694" text-anchor="middle" font-weight="bold" fill="#2e7d32">注文</text><text x="888.719370399726" y="174.38105628494696" text-anchor="middle" font-size="10" font-family="monospace" fill="#888">orders</text><rect x="782.319370399726" y="198.08105628494695" width="20" height="12" rx="2" fill="#fff8e1" stroke="none"/><text x="792.319370399726" y="206.08105628494695" font-size="8" font-weight="bold" fill="#c8a415" text-anchor="middle">PK</text><text x="806.319370399726" y="207.08105628494695" font-size="11" fill="#333" font-weight="bold">ID</text><text x="886.319370399726" y="207.08105628494695" font-size="10" font-family="monospace" fill="#999">id</text><rect x="782.319370399726" y="216.08105628494695" width="20" height="12" rx="2" fill="#f3e5f5" stroke="none"/><text x="792.319370399726" y="224.08105628494695" font-size="8" font-weight="bold" fill="#7b1fa2" text-anchor="middle">FK</text><text x="806.319370399726" y="225.08105628494695" font-size="11" fill="#555">ユーザーID</text><text x="886.319370399726" y="225.08105628494695" font-size="10" font-family="monospace" fill="#999">user_id</text><text x="806.319370399726" y="243.08105628494695" font-size="11" fill="#555">注文日</text><text x="886.319370399726" y="243.08105628494695" font-size="10" font-family="monospace" fill="#999">order_date</text><text x="806.319370399726" y="261.08105628494695" font-size="11" fill="#555">合計金額</text><text x="886.319370399726" y="261.08105628494695" font-size="10" font-family="monospace" fill="#999">total</text><text x="806.319370399726" y="279.08105628494695" font-size="11" fill="#555">ステータス</text><text x="886.319370399726" y="279.08105628494695" font-size="10" font-family="monospace" fill="#999">status</text><text x="806.319370399726" y="297.08105628494695" font-size="11" fill="#555">配送先</text><text x="886.319370399726" y="297.08105628494695" font-size="10" font-family="monospace" fill="#999">shipping_address</text><rect x="820.0684529736178" y="690.9437205071204" width="176" height="154" fill="#fff" stroke="none"/><line x1="820.0684529736178" y1="690.9437205071204" x2="996.0684529736178" y2="690.9437205071204" stroke="#2e7d32" stroke-width="1.5"/><line x1="820.0684529736178" y1="844.9437205071204" x2="996.0684529736178" y2="844.9437205071204" stroke="#2e7d32" stroke-width="1.5"/><rect x="820.0684529736178" y="690.9437205071204" width="176" height="46" fill="#e8f5e9"/><line x1="820.0684529736178" y1="736.9437205071204" x2="996.0684529736178" y2="736.9437205071204" stroke="#2e7d32" stroke-width="0.5" stroke-dasharray="3,3"/><text x="908.0684529736178" y="708.4237205071204" text-anchor="middle" font-weight="bold" fill="#2e7d32">注文明細</text><text x="908.0684529736178" y="727.7437205071203" text-anchor="middle" font-size="10" font-family="monospace" fill="#888">order_items</text><rect x="836.0684529736178" y="751.4437205071204" width="20" height="12" rx="2" fill="#fff8e1" stroke="none"/><text x="846.0684529736178" y="759.4437205071204" font-size="8" font-weight="bold" fill="#c8a415" text-anchor="middle">PK</text><text x="860.0684529736178" y="760.4437205071204" font-size="11" fill="#333" font-weight="bold">ID</text><text x="912.0684529736178" y="760.4437205071204" font-size="10" font-family="monospace" fill="#999">id</text><rect x="836.0684529736178" y="769.4437205071204" width="20" height="12" rx="2" fill="#f3e5f5" stroke="none"/><text x="846.0684529736178" y="777.4437205071204" font-size="8" font-weight="bold" fill="#7b1fa2" text-anchor="middle">FK</text><text x="860.0684529736178" y="778.4437205071204" font-size="11" fill="#555">注文ID</text><text x="912.0684529736178" y="778.4437205071204" font-size="10" font-family="monospace" fill="#999">order_id</text><rect x="836.0684529736178" y="787.4437205071204" width="20" height="12" rx="2" fill="#f3e5f5" stroke="none"/><text x="846.0684529736178" y="795.4437205071204" font-size="8" font-weight="bold" fill="#7b1fa2" text-anchor="middle">FK</text><text x="860.0684529736178" y="796.4437205071204" font-size="11" fill="#555">商品ID</text><text x="912.0684529736178" y="796.4437205071204" font-size="10" font-family="monospace" fill="#999">product_id</text><text x="860.0684529736178" y="814.4437205071204" font-size="11" fill="#555">数量</text><text x="912.0684529736178" y="814.4437205071204" font-size="10" font-family="monospace" fill="#999">quantity</text><text x="860.0684529736178" y="832.4437205071204" font-size="11" fill="#555">単価</text><text x="912.0684529736178" y="832.4437205071204" font-size="10" font-family="monospace" fill="#999">unit_price</text><rect x="331.02925460951815" y="1025.7044865648031" width="210.8" height="172" fill="#fff" stroke="none"/><line x1="331.02925460951815" y1="1025.7044865648031" x2="541.8292546095181" y2="1025.7044865648031" stroke="#2e7d32" stroke-width="1.5"/><line x1="331.02925460951815" y1="1197.7044865648031" x2="541.8292546095181" y2="1197.7044865648031" stroke="#2e7d32" stroke-width="1.5"/><rect x="331.02925460951815" y="1025.7044865648031" width="210.8" height="46" fill="#e8f5e9"/><line x1="331.02925460951815" y1="1071.7044865648031" x2="541.8292546095181" y2="1071.7044865648031" stroke="#2e7d32" stroke-width="0.5" stroke-dasharray="3,3"/><text x="436.4292546095181" y="1043.1844865648031" text-anchor="middle" font-weight="bold" fill="#2e7d32">商品</text><text x="436.4292546095181" y="1062.504486564803" text-anchor="middle" font-size="10" font-family="monospace" fill="#888">products</text><rect x="347.02925460951815" y="1086.2044865648031" width="20" height="12" rx="2" fill="#fff8e1" stroke="none"/><text x="357.02925460951815" y="1094.2044865648031" font-size="8" font-weight="bold" fill="#c8a415" text-anchor="middle">PK</text><text x="371.02925460951815" y="1095.2044865648031" font-size="11" fill="#333" font-weight="bold">ID</text><text x="451.02925460951815" y="1095.2044865648031" font-size="10" font-family="monospace" fill="#999">id</text><text x="371.02925460951815" y="1113.2044865648031" font-size="11" fill="#555">商品名</text><text x="451.02925460951815" y="1113.2044865648031" font-size="10" font-family="monospace" fill="#999">name</text><text x="371.02925460951815" y="1131.2044865648031" font-size="11" fill="#555">説明</text><text x="451.02925460951815" y="1131.2044865648031" font-size="10" font-family="monospace" fill="#999">description</text><text x="371.02925460951815" y="1149.2044865648031" font-size="11" fill="#555">価格</text><text x="451.02925460951815" y="1149.2044865648031" font-size="10" font-family="monospace" fill="#999">price</text><text x="371.02925460951815" y="1167.2044865648031" font-size="11" fill="#555">在庫数</text><text x="451.02925460951815" y="1167.2044865648031" font-size="10" font-family="monospace" fill="#999">stock</text><rect x="347.02925460951815" y="1176.2044865648031" width="20" height="12" rx="2" fill="#f3e5f5" stroke="none"/><text x="357.02925460951815" y="1184.2044865648031" font-size="8" font-weight="bold" fill="#7b1fa2" text-anchor="middle">FK</text><text x="371.02925460951815" y="1185.2044865648031" font-size="11" fill="#555">カテゴリID</text><text x="451.02925460951815" y="1185.2044865648031" font-size="10" font-family="monospace" fill="#999">category_id</text><rect x="217.0496003342435" y="1598.2141114652377" width="211.2" height="118" fill="#fff" stroke="none"/><line x1="217.0496003342435" y1="1598.2141114652377" x2="428.2496003342435" y2="1598.2141114652377" stroke="#2e7d32" stroke-width="1.5"/><line x1="217.0496003342435" y1="1716.2141114652377" x2="428.2496003342435" y2="1716.2141114652377" stroke="#2e7d32" stroke-width="1.5"/><rect x="217.0496003342435" y="1598.2141114652377" width="211.2" height="46" fill="#e8f5e9"/><line x1="217.0496003342435" y1="1644.2141114652377" x2="428.2496003342435" y2="1644.2141114652377" stroke="#2e7d32" stroke-width="0.5" stroke-dasharray="3,3"/><text x="322.6496003342435" y="1615.6941114652377" text-anchor="middle" font-weight="bold" fill="#2e7d32">カテゴリ</text><text x="322.6496003342435" y="1635.0141114652376" text-anchor="middle" font-size="10" font-family="monospace" fill="#888">categories</text><rect x="233.0496003342435" y="1658.7141114652377" width="20" height="12" rx="2" fill="#fff8e1" stroke="none"/><text x="243.0496003342435" y="1666.7141114652377" font-size="8" font-weight="bold" fill="#c8a415" text-anchor="middle">PK</text><text x="257.0496003342435" y="1667.7141114652377" font-size="11" fill="#333" font-weight="bold">ID</text><text x="351.0496003342435" y="1667.7141114652377" font-size="10" font-family="monospace" fill="#999">id</text><rect x="233.0496003342435" y="1676.7141114652377" width="20" height="12" rx="2" fill="#e3f2fd" stroke="none"/><text x="243.0496003342435" y="1684.7141114652377" font-size="8" font-weight="bold" fill="#1565c0" text-anchor="middle">UK</text><text x="257.0496003342435" y="1685.7141114652377" font-size="11" fill="#333" font-weight="bold">カテゴリ名</text><text x="351.0496003342435" y="1685.7141114652377" font-size="10" font-family="monospace" fill="#999">name</text><rect x="233.0496003342435" y="1694.7141114652377" width="20" height="12" rx="2" fill="#f3e5f5" stroke="none"/><text x="243.0496003342435" y="1702.7141114652377" font-size="8" font-weight="bold" fill="#7b1fa2" text-anchor="middle">FK</text><text x="257.0496003342435" y="1703.7141114652377" font-size="11" fill="#555">親カテゴリID</text><text x="351.0496003342435" y="1703.7141114652377" font-size="10" font-family="monospace" fill="#999">parent_id</text><rect x="40" y="521.9137892876622" width="204" height="172" fill="#fff" stroke="none"/><line x1="40" y1="521.9137892876622" x2="244" y2="521.9137892876622" stroke="#2e7d32" stroke-width="1.5"/><line x1="40" y1="693.9137892876622" x2="244" y2="693.9137892876622" stroke="#2e7d32" stroke-width="1.5"/><rect x="40" y="521.9137892876622" width="204" height="46" fill="#e8f5e9"/><line x1="40" y1="567.9137892876622" x2="244" y2="567.9137892876622" stroke="#2e7d32" stroke-width="0.5" stroke-dasharray="3,3"/><text x="142" y="539.3937892876622" text-anchor="middle" font-weight="bold" fill="#2e7d32">レビュー</text><text x="142" y="558.7137892876622" text-anchor="middle" font-size="10" font-family="monospace" fill="#888">reviews</text><rect x="56" y="582.4137892876622" width="20" height="12" rx="2" fill="#fff8e1" stroke="none"/><text x="66" y="590.4137892876622" font-size="8" font-weight="bold" fill="#c8a415" text-anchor="middle">PK</text><text x="80" y="591.4137892876622" font-size="11" fill="#333" font-weight="bold">ID</text><text x="160" y="591.4137892876622" font-size="10" font-family="monospace" fill="#999">id</text><rect x="56" y="600.4137892876622" width="20" height="12" rx="2" fill="#f3e5f5" stroke="none"/><text x="66" y="608.4137892876622" font-size="8" font-weight="bold" fill="#7b1fa2" text-anchor="middle">FK</text><text x="80" y="609.4137892876622" font-size="11" fill="#555">ユーザーID</text><text x="160" y="609.4137892876622" font-size="10" font-family="monospace" fill="#999">user_id</text><rect x="56" y="618.4137892876622" width="20" height="12" rx="2" fill="#f3e5f5" stroke="none"/><text x="66" y="626.4137892876622" font-size="8" font-weight="bold" fill="#7b1fa2" text-anchor="middle">FK</text><text x="80" y="627.4137892876622" font-size="11" fill="#555">商品ID</text><text x="160" y="627.4137892876622" font-size="10" font-family="monospace" fill="#999">product_id</text><text x="80" y="645.4137892876622" font-size="11" fill="#555">評価</text><text x="160" y="645.4137892876622" font-size="10" font-family="monospace" fill="#999">rating</text><text x="80" y="663.4137892876622" font-size="11" fill="#555">コメント</text><text x="160" y="663.4137892876622" font-size="10" font-family="monospace" fill="#999">comment</text><text x="80" y="681.4137892876622" font-size="11" fill="#555">作成日時</text><text x="160" y="681.4137892876622" font-size="10" font-family="monospace" fill="#999">created_at</text><path d="M517.3860608633304,146.05997073596814 L766.319370399726,198.02832339642325" fill="none" stroke="#666" stroke-width="1.5"/><line x1="523.1736456451005" y1="157.48379944589823" x2="527.2608141648249" y2="137.90587684181753" stroke="#666" stroke-width="2"/><line x1="752.6148245768695" y1="195.1673054326162" x2="766.319370399726" y2="198.02832339642325" stroke="#666" stroke-width="1.5"/><line x1="752.6148245768695" y1="195.1673054326162" x2="767.5455209556434" y2="192.15494661519904" stroke="#666" stroke-width="1.5"/><line x1="752.6148245768695" y1="195.1673054326162" x2="765.0932198438087" y2="203.90170017764746" stroke="#666" stroke-width="1.5"/><path d="M891.7761948491625,309.58105628494695 L905.3315287572619,690.9437205071204" fill="none" stroke="#666" stroke-width="1.5"/><line x1="882.066682220455" y1="317.93122781090807" x2="902.05406008567" y2="317.22078705115786" stroke="#666" stroke-width="2"/><line x1="904.8342202254369" y1="676.9525560014699" x2="905.3315287572619" y2="690.9437205071204" stroke="#666" stroke-width="1.5"/><line x1="904.8342202254369" y1="676.9525560014699" x2="911.3277421168265" y2="690.7305882791953" stroke="#666" stroke-width="1.5"/><line x1="904.8342202254369" y1="676.9525560014699" x2="899.3353153976974" y2="691.1568527350454" stroke="#666" stroke-width="1.5"/><path d="M541.8292546095181,1034.882235852493 L820.0684529736178,832.0837400771704" fill="none" stroke="#666" stroke-width="1.5"/><line x1="554.1843705052928" y1="1038.2513768709093" x2="542.4041228454859" y2="1022.0888967062313" stroke="#666" stroke-width="2"/><line x1="808.754716858343" y1="840.3299134390352" x2="820.0684529736178" y2="832.0837400771704" stroke="#666" stroke-width="1.5"/><line x1="808.754716858343" y1="840.3299134390352" x2="816.5343786756757" y2="827.234996027767" stroke="#666" stroke-width="1.5"/><line x1="808.754716858343" y1="840.3299134390352" x2="823.6025272715599" y2="836.9324841265739" stroke="#666" stroke-width="1.5"/><path d="M334.9555236320523,1598.2141114652377 L418.49180709067815,1197.7044865648031" fill="none" stroke="#666" stroke-width="1.5"/><line x1="346.37830290898887" y1="1592.4244557250067" x2="326.7996396539629" y2="1588.3408366014478" stroke="#666" stroke-width="2"/><line x1="415.6332737041869" y1="1211.4095508433213" x2="418.49180709067815" y2="1197.7044865648031" stroke="#666" stroke-width="1.5"/><line x1="415.6332737041869" y1="1211.4095508433213" x2="412.6182081141704" y2="1196.4794008277354" stroke="#666" stroke-width="1.5"/><line x1="415.6332737041869" y1="1211.4095508433213" x2="424.3654060671859" y2="1198.9295723018708" stroke="#666" stroke-width="1.5"/><path d="M341.1401943928334,194 L183.37590281120447,521.9137892876622" fill="none" stroke="#666" stroke-width="1.5"/><line x1="328.66050688670634" y1="196.87356916558753" x2="346.6831201045077" y2="205.54452140865357" stroke="#666" stroke-width="2"/><line x1="189.44556938135068" y1="509.29796003520124" x2="183.37590281120447" y2="521.9137892876622" stroke="#666" stroke-width="1.5"/><line x1="189.44556938135068" y1="509.29796003520124" x2="188.78268677654486" y2="524.5150749605821" stroke="#666" stroke-width="1.5"/><line x1="189.44556938135068" y1="509.29796003520124" x2="177.96911884586407" y2="519.3125036147424" stroke="#666" stroke-width="1.5"/><path d="M386.1684696580063,1025.7044865648031 L192.2607849515118,693.9137892876622" fill="none" stroke="#666" stroke-width="1.5"/><line x1="390.7655367147155" y1="1013.7517891924056" x2="373.4981892090725" y2="1023.8433059326862" stroke="#666" stroke-width="2"/><line x1="199.3248466697083" y1="706.0009325416123" x2="192.2607849515118" y2="693.9137892876622" stroke="#666" stroke-width="1.5"/><line x1="199.3248466697083" y1="706.0009325416123" x2="187.0805806998189" y2="696.9412443097465" stroke="#666" stroke-width="1.5"/><line x1="199.3248466697083" y1="706.0009325416123" x2="197.44098920320468" y2="690.886334265578" stroke="#666" stroke-width="1.5"/></svg>