<svg xmlns="http://www.w3.org/2000/svg" width="1341.8423236349656" height="874.1586193793551" viewBox="0 0 1341.8423236349656 874.1586193793551"><style>text { font-family: sans-serif; font-size: 13px; fill: #333; }</style><rect x="40" y="202.5396548448388" width="140" height="126" rx="4" fill="#fff" stroke="#aaa" stroke-width="1"/><rect x="40" y="202.5396548448388" width="140" height="28" rx="4" fill="#336699"/><rect x="40" y="226.5396548448388" width="140" height="4" fill="#336699"/><text x="110" y="222.1396548448388" text-anchor="middle" font-weight="bold" fill="#fff">Users</text><text x="58" y="244.0396548448388" font-size="11" fill="#c8a415">🔑</text><text x="76" y="244.0396548448388" font-size="11" font-weight="bold">id</text><text x="58" y="262.03965484483876" font-size="11" fill="#555">name</text><text x="58" y="280.03965484483876" font-size="11" fill="#555">email</text><text x="58" y="298.03965484483876" font-size="11" fill="#555">password_hash</text><text x="58" y="316.03965484483876" font-size="11" fill="#555">created_at</text><rect x="600.9211618174828" y="365.0793096896776" width="160" height="144" rx="4" fill="#fff" stroke="#aaa" stroke-width="1"/><rect x="600.9211618174828" y="365.0793096896776" width="160" height="28" rx="4" fill="#336699"/><rect x="600.9211618174828" y="389.0793096896776" width="160" height="4" fill="#336699"/><text x="680.9211618174828" y="384.6793096896776" text-anchor="middle" font-weight="bold" fill="#fff">Orders</text><text x="616.9211618174828" y="406.5793096896776" font-size="11" fill="#c8a415">🔑</text><text x="634.9211618174828" y="406.5793096896776" font-size="11" font-weight="bold">id</text><text x="616.9211618174828" y="424.5793096896776" font-size="11" fill="#555">user_id</text><text x="616.9211618174828" y="442.5793096896776" font-size="11" fill="#555">order_date</text><text x="616.9211618174828" y="460.5793096896776" font-size="11" fill="#555">total</text><text x="616.9211618174828" y="478.5793096896776" font-size="11" fill="#555">status</text><text x="616.9211618174828" y="496.5793096896776" font-size="11" fill="#555">shipping_address</text><rect x="1161.8423236349656" y="527.6189645345164" width="140" height="126" rx="4" fill="#fff" stroke="#aaa" stroke-width="1"/><rect x="1161.8423236349656" y="527.6189645345164" width="140" height="28" rx="4" fill="#336699"/><rect x="1161.8423236349656" y="551.6189645345164" width="140" height="4" fill="#336699"/><text x="1231.8423236349656" y="547.2189645345164" text-anchor="middle" font-weight="bold" fill="#fff">OrderItems</text><text x="1191.8423236349656" y="569.1189645345164" font-size="11" fill="#c8a415">🔑</text><text x="1209.8423236349656" y="569.1189645345164" font-size="11" font-weight="bold">id</text><text x="1191.8423236349656" y="587.1189645345164" font-size="11" fill="#555">order_id</text><text x="1191.8423236349656" y="605.1189645345164" font-size="11" fill="#555">product_id</text><text x="1191.8423236349656" y="623.1189645345164" font-size="11" fill="#555">quantity</text><text x="1191.8423236349656" y="641.1189645345164" font-size="11" fill="#555">unit_price</text><rect x="600.9211618174828" y="690.1586193793551" width="140" height="144" rx="4" fill="#fff" stroke="#aaa" stroke-width="1"/><rect x="600.9211618174828" y="690.1586193793551" width="140" height="28" rx="4" fill="#336699"/><rect x="600.9211618174828" y="714.1586193793551" width="140" height="4" fill="#336699"/><text x="670.9211618174828" y="709.7586193793551" text-anchor="middle" font-weight="bold" fill="#fff">Products</text><text x="626.9211618174828" y="731.6586193793551" font-size="11" fill="#c8a415">🔑</text><text x="644.9211618174828" y="731.6586193793551" font-size="11" font-weight="bold">id</text><text x="626.9211618174828" y="749.6586193793551" font-size="11" fill="#555">name</text><text x="626.9211618174828" y="767.6586193793551" font-size="11" fill="#555">description</text><text x="626.9211618174828" y="785.6586193793551" font-size="11" fill="#555">price</text><text x="626.9211618174828" y="803.6586193793551" font-size="11" fill="#555">stock</text><text x="626.9211618174828" y="821.6586193793551" font-size="11" fill="#555">category_id</text><rect x="40" y="690.1586193793551" width="140" height="90" rx="4" fill="#fff" stroke="#aaa" stroke-width="1"/><rect x="40" y="690.1586193793551" width="140" height="28" rx="4" fill="#336699"/><rect x="40" y="714.1586193793551" width="140" height="4" fill="#336699"/><text x="110" y="709.7586193793551" text-anchor="middle" font-weight="bold" fill="#fff">Categories</text><text x="74" y="731.6586193793551" font-size="11" fill="#c8a415">🔑</text><text x="92" y="731.6586193793551" font-size="11" font-weight="bold">id</text><text x="74" y="749.6586193793551" font-size="11" fill="#555">name</text><text x="74" y="767.6586193793551" font-size="11" fill="#555">parent_id</text><rect x="1161.8423236349656" y="40" width="140" height="144" rx="4" fill="#fff" stroke="#aaa" stroke-width="1"/><rect x="1161.8423236349656" y="40" width="140" height="28" rx="4" fill="#336699"/><rect x="1161.8423236349656" y="64" width="140" height="4" fill="#336699"/><text x="1231.8423236349656" y="59.599999999999994" text-anchor="middle" font-weight="bold" fill="#fff">Reviews</text><text x="1191.8423236349656" y="81.5" font-size="11" fill="#c8a415">🔑</text><text x="1209.8423236349656" y="81.5" font-size="11" font-weight="bold">id</text><text x="1191.8423236349656" y="99.5" font-size="11" fill="#555">user_id</text><text x="1191.8423236349656" y="117.5" font-size="11" fill="#555">product_id</text><text x="1191.8423236349656" y="135.5" font-size="11" fill="#555">rating</text><text x="1191.8423236349656" y="153.5" font-size="11" fill="#555">comment</text><text x="1191.8423236349656" y="171.5" font-size="11" fill="#555">created_at</text><path d="M180,286.5719385333833 L600.9211618174828,413.04241404562674" fill="none" stroke="#666" stroke-width="1.5"/><text x="199.7306794601945" y="286.5002420730197" text-anchor="middle" font-size="12" font-weight="bold" fill="#666">1</text><text x="581.1904823572884" y="401.1141105059903" text-anchor="middle" font-size="12" font-weight="bold" fill="#666">*</text><path d="M760.9211618174828,459.37500867329453 L1161.8423236349656,571.1102279238517" fill="none" stroke="#666" stroke-width="1.5"/><text x="779.7143412776774" y="458.6125970756644" text-anchor="middle" font-size="12" font-weight="bold" fill="#666">1</text><text x="1143.049144174771" y="559.8726395214818" text-anchor="middle" font-size="12" font-weight="bold" fill="#666">*</text><path d="M740.9211618174828,740.7513759795314 L1161.8423236349656,612.02620793434" fill="none" stroke="#666" stroke-width="1.5"/><text x="760.6518412776774" y="728.7173837274131" text-anchor="middle" font-size="12" font-weight="bold" fill="#666">1</text><text x="1142.111644174771" y="612.0602001864584" text-anchor="middle" font-size="12" font-weight="bold" fill="#666">*</text><path d="M180,738.5280768515532 L600.9211618174828,758.7891619071569" fill="none" stroke="#666" stroke-width="1.5"/><text x="199.7306794601945" y="733.4778152135347" text-anchor="middle" font-size="12" font-weight="bold" fill="#666">1</text><text x="581.1904823572884" y="751.8394235451755" text-anchor="middle" font-size="12" font-weight="bold" fill="#666">*</text><path d="M180,255.95918563565968 L1161.8423236349656,121.58046920917909" fill="none" stroke="#666" stroke-width="1.5"/><text x="210.68257261359267" y="245.75985074733217" text-anchor="middle" font-size="12" font-weight="bold" fill="#666">1</text><text x="1131.1597510213728" y="119.7798040975066" text-anchor="middle" font-size="12" font-weight="bold" fill="#666">*</text><path d="M733.0388088763063,690.1586193793551 L1169.7246765761422,184" fill="none" stroke="#666" stroke-width="1.5"/><text x="746.6852422419262" y="668.3411625237502" text-anchor="middle" font-size="12" font-weight="bold" fill="#666">1</text><text x="1156.0782432105223" y="193.81745685560486" text-anchor="middle" font-size="12" font-weight="bold" fill="#666">*</text></svg>