<svg xmlns="http://www.w3.org/2000/svg" width="765.8975270800843" height="1103.1180916074622" viewBox="0 0 765.8975270800843 1103.1180916074622"><rect width="100%" height="100%" fill="white"/><style>text { font-family: sans-serif; font-size: 13px; fill: #333; }</style><rect x="181.14316907482834" y="40" width="278.4" height="154" fill="#fff" stroke="none"/><line x1="181.14316907482834" y1="40" x2="459.5431690748283" y2="40" stroke="#2e7d32" stroke-width="1.5"/><line x1="181.14316907482834" y1="194" x2="459.5431690748283" y2="194" stroke="#2e7d32" stroke-width="1.5"/><rect x="181.14316907482834" y="40" width="278.4" height="46" fill="#e8f5e9"/><line x1="181.14316907482834" y1="86" x2="459.5431690748283" y2="86" stroke="#2e7d32" stroke-width="0.5" stroke-dasharray="3,3"/><text x="320.3431690748283" y="57.480000000000004" text-anchor="middle" font-weight="bold" fill="#2e7d32">ユーザー</text><text x="320.3431690748283" y="76.80000000000001" text-anchor="middle" font-size="10" font-family="monospace" fill="#888">users</text><rect x="197.14316907482834" y="100.5" width="20" height="12" rx="2" fill="#fff8e1" stroke="none"/><text x="207.14316907482834" y="108.5" font-size="8" font-weight="bold" fill="#c8a415" text-anchor="middle">PK</text><text x="221.14316907482834" y="109.5" font-size="11" fill="#333" font-weight="bold">ID</text><text x="355.14316907482834" y="109.5" font-size="10" font-family="monospace" fill="#999">id</text><rect x="197.14316907482834" y="118.5" width="20" height="12" rx="2" fill="#e3f2fd" stroke="none"/><text x="207.14316907482834" y="126.5" font-size="8" font-weight="bold" fill="#1565c0" text-anchor="middle">UK</text><text x="221.14316907482834" y="127.5" font-size="11" fill="#333" font-weight="bold">メールアドレス</text><text x="355.14316907482834" y="127.5" font-size="10" font-family="monospace" fill="#999">email</text><text x="221.14316907482834" y="145.5" font-size="11" fill="#555">氏名</text><text x="355.14316907482834" y="145.5" font-size="10" font-family="monospace" fill="#999">name</text><text x="221.14316907482834" y="163.5" font-size="11" fill="#555">パスワードハッシュ</text><text x="355.14316907482834" y="163.5" font-size="10" font-family="monospace" fill="#999">password_hash</text><text x="221.14316907482834" y="181.5" font-size="11" fill="#555">作成日時</text><text x="355.14316907482834" y="181.5" font-size="10" font-family="monospace" fill="#999">created_at</text><rect x="481.0975270800842" y="137.9215141900023" width="244.8" height="172" fill="#fff" stroke="none"/><line x1="481.0975270800842" y1="137.9215141900023" x2="725.8975270800843" y2="137.9215141900023" stroke="#2e7d32" stroke-width="1.5"/><line x1="481.0975270800842" y1="309.9215141900023" x2="725.8975270800843" y2="309.9215141900023" stroke="#2e7d32" stroke-width="1.5"/><rect x="481.0975270800842" y="137.9215141900023" width="244.8" height="46" fill="#e8f5e9"/><line x1="481.0975270800842" y1="183.9215141900023" x2="725.8975270800843" y2="183.9215141900023" stroke="#2e7d32" stroke-width="0.5" stroke-dasharray="3,3"/><text x="603.4975270800842" y="155.4015141900023" text-anchor="middle" font-weight="bold" fill="#2e7d32">注文</text><text x="603.4975270800842" y="174.72151419000232" text-anchor="middle" font-size="10" font-family="monospace" fill="#888">orders</text><rect x="497.0975270800842" y="198.4215141900023" width="20" height="12" rx="2" fill="#fff8e1" stroke="none"/><text x="507.0975270800842" y="206.4215141900023" font-size="8" font-weight="bold" fill="#c8a415" text-anchor="middle">PK</text><text x="521.0975270800842" y="207.4215141900023" font-size="11" fill="#333" font-weight="bold">ID</text><text x="601.0975270800842" y="207.4215141900023" font-size="10" font-family="monospace" fill="#999">id</text><rect x="497.0975270800842" y="216.4215141900023" width="20" height="12" rx="2" fill="#f3e5f5" stroke="none"/><text x="507.0975270800842" y="224.4215141900023" font-size="8" font-weight="bold" fill="#7b1fa2" text-anchor="middle">FK</text><text x="521.0975270800842" y="225.4215141900023" font-size="11" fill="#555">ユーザーID</text><text x="601.0975270800842" y="225.4215141900023" font-size="10" font-family="monospace" fill="#999">user_id</text><text x="521.0975270800842" y="243.4215141900023" font-size="11" fill="#555">注文日</text><text x="601.0975270800842" y="243.4215141900023" font-size="10" font-family="monospace" fill="#999">order_date</text><text x="521.0975270800842" y="261.4215141900023" font-size="11" fill="#555">合計金額</text><text x="601.0975270800842" y="261.4215141900023" font-size="10" font-family="monospace" fill="#999">total</text><text x="521.0975270800842" y="279.4215141900023" font-size="11" fill="#555">ステータス</text><text x="601.0975270800842" y="279.4215141900023" font-size="10" font-family="monospace" fill="#999">status</text><text x="521.0975270800842" y="297.4215141900023" font-size="11" fill="#555">配送先</text><text x="601.0975270800842" y="297.4215141900023" font-size="10" font-family="monospace" fill="#999">shipping_address</text><rect x="476.9604029232071" y="461.37082365439375" width="176" height="154" fill="#fff" stroke="none"/><line x1="476.9604029232071" y1="461.37082365439375" x2="652.9604029232071" y2="461.37082365439375" stroke="#2e7d32" stroke-width="1.5"/><line x1="476.9604029232071" y1="615.3708236543937" x2="652.9604029232071" y2="615.3708236543937" stroke="#2e7d32" stroke-width="1.5"/><rect x="476.9604029232071" y="461.37082365439375" width="176" height="46" fill="#e8f5e9"/><line x1="476.9604029232071" y1="507.37082365439375" x2="652.9604029232071" y2="507.37082365439375" stroke="#2e7d32" stroke-width="0.5" stroke-dasharray="3,3"/><text x="564.9604029232071" y="478.85082365439376" text-anchor="middle" font-weight="bold" fill="#2e7d32">注文明細</text><text x="564.9604029232071" y="498.17082365439376" text-anchor="middle" font-size="10" font-family="monospace" fill="#888">order_items</text><rect x="492.9604029232071" y="521.8708236543937" width="20" height="12" rx="2" fill="#fff8e1" stroke="none"/><text x="502.9604029232071" y="529.8708236543937" font-size="8" font-weight="bold" fill="#c8a415" text-anchor="middle">PK</text><text x="516.9604029232071" y="530.8708236543937" font-size="11" fill="#333" font-weight="bold">ID</text><text x="568.9604029232071" y="530.8708236543937" font-size="10" font-family="monospace" fill="#999">id</text><rect x="492.9604029232071" y="539.8708236543937" width="20" height="12" rx="2" fill="#f3e5f5" stroke="none"/><text x="502.9604029232071" y="547.8708236543937" font-size="8" font-weight="bold" fill="#7b1fa2" text-anchor="middle">FK</text><text x="516.9604029232071" y="548.8708236543937" font-size="11" fill="#555">注文ID</text><text x="568.9604029232071" y="548.8708236543937" font-size="10" font-family="monospace" fill="#999">order_id</text><rect x="492.9604029232071" y="557.8708236543937" width="20" height="12" rx="2" fill="#f3e5f5" stroke="none"/><text x="502.9604029232071" y="565.8708236543937" font-size="8" font-weight="bold" fill="#7b1fa2" text-anchor="middle">FK</text><text x="516.9604029232071" y="566.8708236543937" font-size="11" fill="#555">商品ID</text><text x="568.9604029232071" y="566.8708236543937" font-size="10" font-family="monospace" fill="#999">product_id</text><text x="516.9604029232071" y="584.8708236543937" font-size="11" fill="#555">数量</text><text x="568.9604029232071" y="584.8708236543937" font-size="10" font-family="monospace" fill="#999">quantity</text><text x="516.9604029232071" y="602.8708236543937" font-size="11" fill="#555">単価</text><text x="568.9604029232071" y="602.8708236543937" font-size="10" font-family="monospace" fill="#999">unit_price</text><rect x="158.6290371173649" y="609.7801008365386" width="210.8" height="172" fill="#fff" stroke="none"/><line x1="158.6290371173649" y1="609.7801008365386" x2="369.42903711736494" y2="609.7801008365386" stroke="#2e7d32" stroke-width="1.5"/><line x1="158.6290371173649" y1="781.7801008365386" x2="369.42903711736494" y2="781.7801008365386" stroke="#2e7d32" stroke-width="1.5"/><rect x="158.6290371173649" y="609.7801008365386" width="210.8" height="46" fill="#e8f5e9"/><line x1="158.6290371173649" y1="655.7801008365386" x2="369.42903711736494" y2="655.7801008365386" stroke="#2e7d32" stroke-width="0.5" stroke-dasharray="3,3"/><text x="264.0290371173649" y="627.2601008365386" text-anchor="middle" font-weight="bold" fill="#2e7d32">商品</text><text x="264.0290371173649" y="646.5801008365386" text-anchor="middle" font-size="10" font-family="monospace" fill="#888">products</text><rect x="174.6290371173649" y="670.2801008365386" width="20" height="12" rx="2" fill="#fff8e1" stroke="none"/><text x="184.6290371173649" y="678.2801008365386" font-size="8" font-weight="bold" fill="#c8a415" text-anchor="middle">PK</text><text x="198.6290371173649" y="679.2801008365386" font-size="11" fill="#333" font-weight="bold">ID</text><text x="278.6290371173649" y="679.2801008365386" font-size="10" font-family="monospace" fill="#999">id</text><text x="198.6290371173649" y="697.2801008365386" font-size="11" fill="#555">商品名</text><text x="278.6290371173649" y="697.2801008365386" font-size="10" font-family="monospace" fill="#999">name</text><text x="198.6290371173649" y="715.2801008365386" font-size="11" fill="#555">説明</text><text x="278.6290371173649" y="715.2801008365386" font-size="10" font-family="monospace" fill="#999">description</text><text x="198.6290371173649" y="733.2801008365386" font-size="11" fill="#555">価格</text><text x="278.6290371173649" y="733.2801008365386" font-size="10" font-family="monospace" fill="#999">price</text><text x="198.6290371173649" y="751.2801008365386" font-size="11" fill="#555">在庫数</text><text x="278.6290371173649" y="751.2801008365386" font-size="10" font-family="monospace" fill="#999">stock</text><rect x="174.6290371173649" y="760.2801008365386" width="20" height="12" rx="2" fill="#f3e5f5" stroke="none"/><text x="184.6290371173649" y="768.2801008365386" font-size="8" font-weight="bold" fill="#7b1fa2" text-anchor="middle">FK</text><text x="198.6290371173649" y="769.2801008365386" font-size="11" fill="#555">カテゴリID</text><text x="278.6290371173649" y="769.2801008365386" font-size="10" font-family="monospace" fill="#999">category_id</text><rect x="43.059058630984964" y="945.1180916074624" width="211.2" height="118" fill="#fff" stroke="none"/><line x1="43.059058630984964" y1="945.1180916074624" x2="254.25905863098495" y2="945.1180916074624" stroke="#2e7d32" stroke-width="1.5"/><line x1="43.059058630984964" y1="1063.1180916074622" x2="254.25905863098495" y2="1063.1180916074622" stroke="#2e7d32" stroke-width="1.5"/><rect x="43.059058630984964" y="945.1180916074624" width="211.2" height="46" fill="#e8f5e9"/><line x1="43.059058630984964" y1="991.1180916074624" x2="254.25905863098495" y2="991.1180916074624" stroke="#2e7d32" stroke-width="0.5" stroke-dasharray="3,3"/><text x="148.65905863098496" y="962.5980916074624" text-anchor="middle" font-weight="bold" fill="#2e7d32">カテゴリ</text><text x="148.65905863098496" y="981.9180916074623" text-anchor="middle" font-size="10" font-family="monospace" fill="#888">categories</text><rect x="59.059058630984964" y="1005.6180916074624" width="20" height="12" rx="2" fill="#fff8e1" stroke="none"/><text x="69.05905863098496" y="1013.6180916074624" font-size="8" font-weight="bold" fill="#c8a415" text-anchor="middle">PK</text><text x="83.05905863098496" y="1014.6180916074624" font-size="11" fill="#333" font-weight="bold">ID</text><text x="177.05905863098496" y="1014.6180916074624" font-size="10" font-family="monospace" fill="#999">id</text><rect x="59.059058630984964" y="1023.6180916074622" width="20" height="12" rx="2" fill="#e3f2fd" stroke="none"/><text x="69.05905863098496" y="1031.6180916074622" font-size="8" font-weight="bold" fill="#1565c0" text-anchor="middle">UK</text><text x="83.05905863098496" y="1032.6180916074622" font-size="11" fill="#333" font-weight="bold">カテゴリ名</text><text x="177.05905863098496" y="1032.6180916074622" font-size="10" font-family="monospace" fill="#999">name</text><rect x="59.059058630984964" y="1041.6180916074622" width="20" height="12" rx="2" fill="#f3e5f5" stroke="none"/><text x="69.05905863098496" y="1049.6180916074622" font-size="8" font-weight="bold" fill="#7b1fa2" text-anchor="middle">FK</text><text x="83.05905863098496" y="1050.6180916074622" font-size="11" fill="#555">親カテゴリID</text><text x="177.05905863098496" y="1050.6180916074622" font-size="10" font-family="monospace" fill="#999">parent_id</text><rect x="40" y="292.3354641288888" width="204" height="172" fill="#fff" stroke="none"/><line x1="40" y1="292.3354641288888" x2="244" y2="292.3354641288888" stroke="#2e7d32" stroke-width="1.5"/><line x1="40" y1="464.3354641288888" x2="244" y2="464.3354641288888" stroke="#2e7d32" stroke-width="1.5"/><rect x="40" y="292.3354641288888" width="204" height="46" fill="#e8f5e9"/><line x1="40" y1="338.3354641288888" x2="244" y2="338.3354641288888" stroke="#2e7d32" stroke-width="0.5" stroke-dasharray="3,3"/><text x="142" y="309.81546412888883" text-anchor="middle" font-weight="bold" fill="#2e7d32">レビュー</text><text x="142" y="329.1354641288888" text-anchor="middle" font-size="10" font-family="monospace" fill="#888">reviews</text><rect x="56" y="352.8354641288888" width="20" height="12" rx="2" fill="#fff8e1" stroke="none"/><text x="66" y="360.8354641288888" font-size="8" font-weight="bold" fill="#c8a415" text-anchor="middle">PK</text><text x="80" y="361.8354641288888" font-size="11" fill="#333" font-weight="bold">ID</text><text x="160" y="361.8354641288888" font-size="10" font-family="monospace" fill="#999">id</text><rect x="56" y="370.8354641288888" width="20" height="12" rx="2" fill="#f3e5f5" stroke="none"/><text x="66" y="378.8354641288888" font-size="8" font-weight="bold" fill="#7b1fa2" text-anchor="middle">FK</text><text x="80" y="379.8354641288888" font-size="11" fill="#555">ユーザーID</text><text x="160" y="379.8354641288888" font-size="10" font-family="monospace" fill="#999">user_id</text><rect x="56" y="388.8354641288888" width="20" height="12" rx="2" fill="#f3e5f5" stroke="none"/><text x="66" y="396.8354641288888" font-size="8" font-weight="bold" fill="#7b1fa2" text-anchor="middle">FK</text><text x="80" y="397.8354641288888" font-size="11" fill="#555">商品ID</text><text x="160" y="397.8354641288888" font-size="10" font-family="monospace" fill="#999">product_id</text><text x="80" y="415.8354641288888" font-size="11" fill="#555">評価</text><text x="160" y="415.8354641288888" font-size="10" font-family="monospace" fill="#999">rating</text><text x="80" y="433.8354641288888" font-size="11" fill="#555">コメント</text><text x="160" y="433.8354641288888" font-size="10" font-family="monospace" fill="#999">comment</text><text x="80" y="451.8354641288888" font-size="11" fill="#555">作成日時</text><text x="160" y="451.8354641288888" font-size="10" font-family="monospace" fill="#999">created_at</text><path d="M459.5431690748283,169.5631139146093 L481.0975270800842,177.70222436853552" fill="none" stroke="#666" stroke-width="1.5"/><line x1="463.4947439598935" y1="181.74445439617048" x2="470.55998481377617" y2="163.03396611615418" stroke="#666" stroke-width="2"/><line x1="468.00018528407276" y1="172.7565557708177" x2="481.0975270800842" y2="177.70222436853552" stroke="#666" stroke-width="1.5"/><line x1="468.00018528407276" y1="172.7565557708177" x2="483.21709933624896" y2="172.08907788453064" stroke="#666" stroke-width="1.5"/><line x1="468.00018528407276" y1="172.7565557708177" x2="478.97795482391945" y2="183.3153708525404" stroke="#666" stroke-width="1.5"/><path d="M592.9578547776181,309.9215141900023 L574.3970862637872,461.3708236543937" fill="none" stroke="#666" stroke-width="1.5"/><line x1="582.0589633959936" y1="316.64566221421705" x2="601.9104387630622" y2="319.07854645944246" stroke="#666" stroke-width="2"/><line x1="576.100105235445" y1="447.47479089744564" x2="574.3970862637872" y2="461.3708236543937" stroke="#666" stroke-width="1.5"/><line x1="576.100105235445" y1="447.47479089744564" x2="580.3525288739078" y2="462.1006889279613" stroke="#666" stroke-width="1.5"/><line x1="576.100105235445" y1="447.47479089744564" x2="568.4416436536666" y2="460.6409583808261" stroke="#666" stroke-width="1.5"/><path d="M369.42903711736494,640.648134879549 L476.9604029232071,584.4013075653528" fill="none" stroke="#666" stroke-width="1.5"/><line x1="381.1527849686093" y1="645.801166639634" x2="371.88287955010145" y2="628.0791787846579" stroke="#666" stroke-width="2"/><line x1="464.55501142472383" y1="590.8902413583082" x2="476.9604029232071" y2="584.4013075653528" stroke="#666" stroke-width="1.5"/><line x1="464.55501142472383" y1="590.8902413583082" x2="474.17943129765473" y2="579.08471120886" stroke="#666" stroke-width="1.5"/><line x1="464.55501142472383" y1="590.8902413583082" x2="479.74137454875944" y2="589.7179039218456" stroke="#666" stroke-width="1.5"/><path d="M170.73492645926524,945.1180916074624 L231.85065350326147,781.7801008365386" fill="none" stroke="#666" stroke-width="1.5"/><line x1="182.9042964432922" y1="941.1298044824093" x2="164.17258951150023" y2="934.1210131870819" stroke="#666" stroke-width="2"/><line x1="226.94449959653224" y1="794.892295688793" x2="231.85065350326147" y2="781.7801008365386" stroke="#666" stroke-width="1.5"/><line x1="226.94449959653224" y1="794.892295688793" x2="226.2311414237239" y2="779.6774634479403" stroke="#666" stroke-width="1.5"/><line x1="226.94449959653224" y1="794.892295688793" x2="237.47016558279904" y2="783.8827382251369" stroke="#666" stroke-width="1.5"/><path d="M267.79605663245025,194 L200.68898272785083,292.3354641288888" fill="none" stroke="#666" stroke-width="1.5"/><line x1="255.0266819924118" y1="194.97111858304865" x2="271.5465228539696" y2="206.24475410619758" stroke="#666" stroke-width="2"/><line x1="208.5805275940551" y1="280.77157552579837" x2="200.68898272785083" y2="292.3354641288888" stroke="#666" stroke-width="1.5"/><line x1="208.5805275940551" y1="280.77157552579837" x2="205.64493498631816" y2="295.7175547858335" stroke="#666" stroke-width="1.5"/><line x1="208.5805275940551" y1="280.77157552579837" x2="195.7330304693835" y2="288.95337347194413" stroke="#666" stroke-width="1.5"/><path d="M230.9697380189893,609.7801008365386 L175.05929909837562,464.3354641288888" fill="none" stroke="#666" stroke-width="1.5"/><line x1="237.43333531175296" y1="598.7246989878051" x2="218.7651416876671" y2="605.9009477860034" stroke="#666" stroke-width="2"/><line x1="180.08267325711432" y1="477.4031996657489" x2="175.05929909837562" y2="464.3354641288888" stroke="#666" stroke-width="1.5"/><line x1="180.08267325711432" y1="477.4031996657489" x2="169.45884101114987" y2="466.4883387683483" stroke="#666" stroke-width="1.5"/><line x1="180.08267325711432" y1="477.4031996657489" x2="180.65975718560136" y2="462.18258948942935" stroke="#666" stroke-width="1.5"/></svg>