<svg xmlns="http://www.w3.org/2000/svg" width="731.0176114474014" height="842.0038113196138" viewBox="0 0 731.0176114474014 842.0038113196138"><rect width="100%" height="100%" fill="white"/><style>text { font-family: sans-serif; font-size: 13px; fill: #333; }</style><rect x="234.002913127546" y="40" width="278.4" height="154" fill="#fff" stroke="none"/><line x1="234.002913127546" y1="40" x2="512.402913127546" y2="40" stroke="#2e7d32" stroke-width="1.5"/><line x1="234.002913127546" y1="194" x2="512.402913127546" y2="194" stroke="#2e7d32" stroke-width="1.5"/><rect x="234.002913127546" y="40" width="278.4" height="46" fill="#e8f5e9"/><line x1="234.002913127546" y1="86" x2="512.402913127546" y2="86" stroke="#2e7d32" stroke-width="0.5" stroke-dasharray="3,3"/><text x="373.202913127546" y="57.480000000000004" text-anchor="middle" font-weight="bold" fill="#2e7d32">ユーザー</text><text x="373.202913127546" y="76.80000000000001" text-anchor="middle" font-size="10" font-family="monospace" fill="#888">users</text><rect x="250.002913127546" y="100.5" width="20" height="12" rx="2" fill="#fff8e1" stroke="none"/><text x="260.002913127546" y="108.5" font-size="8" font-weight="bold" fill="#c8a415" text-anchor="middle">PK</text><text x="274.002913127546" y="109.5" font-size="11" fill="#333" font-weight="bold">ID</text><text x="408.002913127546" y="109.5" font-size="10" font-family="monospace" fill="#999">id</text><rect x="250.002913127546" y="118.5" width="20" height="12" rx="2" fill="#e3f2fd" stroke="none"/><text x="260.002913127546" y="126.5" font-size="8" font-weight="bold" fill="#1565c0" text-anchor="middle">UK</text><text x="274.002913127546" y="127.5" font-size="11" fill="#333" font-weight="bold">メールアドレス</text><text x="408.002913127546" y="127.5" font-size="10" font-family="monospace" fill="#999">email</text><text x="274.002913127546" y="145.5" font-size="11" fill="#555">氏名</text><text x="408.002913127546" y="145.5" font-size="10" font-family="monospace" fill="#999">name</text><text x="274.002913127546" y="163.5" font-size="11" fill="#555">パスワードハッシュ</text><text x="408.002913127546" y="163.5" font-size="10" font-family="monospace" fill="#999">password_hash</text><text x="274.002913127546" y="181.5" font-size="11" fill="#555">作成日時</text><text x="408.002913127546" y="181.5" font-size="10" font-family="monospace" fill="#999">created_at</text><rect x="446.2176114474014" y="143.6033621216368" width="244.8" height="172" fill="#fff" stroke="none"/><line x1="446.2176114474014" y1="143.6033621216368" x2="691.0176114474014" y2="143.6033621216368" stroke="#2e7d32" stroke-width="1.5"/><line x1="446.2176114474014" y1="315.6033621216368" x2="691.0176114474014" y2="315.6033621216368" stroke="#2e7d32" stroke-width="1.5"/><rect x="446.2176114474014" y="143.6033621216368" width="244.8" height="46" fill="#e8f5e9"/><line x1="446.2176114474014" y1="189.6033621216368" x2="691.0176114474014" y2="189.6033621216368" stroke="#2e7d32" stroke-width="0.5" stroke-dasharray="3,3"/><text x="568.6176114474014" y="161.08336212163678" text-anchor="middle" font-weight="bold" fill="#2e7d32">注文</text><text x="568.6176114474014" y="180.4033621216368" text-anchor="middle" font-size="10" font-family="monospace" fill="#888">orders</text><rect x="462.2176114474014" y="204.1033621216368" width="20" height="12" rx="2" fill="#fff8e1" stroke="none"/><text x="472.2176114474014" y="212.1033621216368" font-size="8" font-weight="bold" fill="#c8a415" text-anchor="middle">PK</text><text x="486.2176114474014" y="213.1033621216368" font-size="11" fill="#333" font-weight="bold">ID</text><text x="566.2176114474014" y="213.1033621216368" font-size="10" font-family="monospace" fill="#999">id</text><rect x="462.2176114474014" y="222.1033621216368" width="20" height="12" rx="2" fill="#f3e5f5" stroke="none"/><text x="472.2176114474014" y="230.1033621216368" font-size="8" font-weight="bold" fill="#7b1fa2" text-anchor="middle">FK</text><text x="486.2176114474014" y="231.1033621216368" font-size="11" fill="#555">ユーザーID</text><text x="566.2176114474014" y="231.1033621216368" font-size="10" font-family="monospace" fill="#999">user_id</text><text x="486.2176114474014" y="249.1033621216368" font-size="11" fill="#555">注文日</text><text x="566.2176114474014" y="249.1033621216368" font-size="10" font-family="monospace" fill="#999">order_date</text><text x="486.2176114474014" y="267.1033621216368" font-size="11" fill="#555">合計金額</text><text x="566.2176114474014" y="267.1033621216368" font-size="10" font-family="monospace" fill="#999">total</text><text x="486.2176114474014" y="285.1033621216368" font-size="11" fill="#555">ステータス</text><text x="566.2176114474014" y="285.1033621216368" font-size="10" font-family="monospace" fill="#999">status</text><text x="486.2176114474014" y="303.1033621216368" font-size="11" fill="#555">配送先</text><text x="566.2176114474014" y="303.1033621216368" font-size="10" font-family="monospace" fill="#999">shipping_address</text><rect x="417.0843452863037" y="378.74791293448106" width="176" height="154" fill="#fff" stroke="none"/><line x1="417.0843452863037" y1="378.74791293448106" x2="593.0843452863037" y2="378.74791293448106" stroke="#2e7d32" stroke-width="1.5"/><line x1="417.0843452863037" y1="532.7479129344811" x2="593.0843452863037" y2="532.7479129344811" stroke="#2e7d32" stroke-width="1.5"/><rect x="417.0843452863037" y="378.74791293448106" width="176" height="46" fill="#e8f5e9"/><line x1="417.0843452863037" y1="424.74791293448106" x2="593.0843452863037" y2="424.74791293448106" stroke="#2e7d32" stroke-width="0.5" stroke-dasharray="3,3"/><text x="505.0843452863037" y="396.2279129344811" text-anchor="middle" font-weight="bold" fill="#2e7d32">注文明細</text><text x="505.0843452863037" y="415.5479129344811" text-anchor="middle" font-size="10" font-family="monospace" fill="#888">order_items</text><rect x="433.0843452863037" y="439.24791293448106" width="20" height="12" rx="2" fill="#fff8e1" stroke="none"/><text x="443.0843452863037" y="447.24791293448106" font-size="8" font-weight="bold" fill="#c8a415" text-anchor="middle">PK</text><text x="457.0843452863037" y="448.24791293448106" font-size="11" fill="#333" font-weight="bold">ID</text><text x="509.0843452863037" y="448.24791293448106" font-size="10" font-family="monospace" fill="#999">id</text><rect x="433.0843452863037" y="457.24791293448106" width="20" height="12" rx="2" fill="#f3e5f5" stroke="none"/><text x="443.0843452863037" y="465.24791293448106" font-size="8" font-weight="bold" fill="#7b1fa2" text-anchor="middle">FK</text><text x="457.0843452863037" y="466.24791293448106" font-size="11" fill="#555">注文ID</text><text x="509.0843452863037" y="466.24791293448106" font-size="10" font-family="monospace" fill="#999">order_id</text><rect x="433.0843452863037" y="475.24791293448106" width="20" height="12" rx="2" fill="#f3e5f5" stroke="none"/><text x="443.0843452863037" y="483.24791293448106" font-size="8" font-weight="bold" fill="#7b1fa2" text-anchor="middle">FK</text><text x="457.0843452863037" y="484.24791293448106" font-size="11" fill="#555">商品ID</text><text x="509.0843452863037" y="484.24791293448106" font-size="10" font-family="monospace" fill="#999">product_id</text><text x="457.0843452863037" y="502.24791293448106" font-size="11" fill="#555">数量</text><text x="509.0843452863037" y="502.24791293448106" font-size="10" font-family="monospace" fill="#999">quantity</text><text x="457.0843452863037" y="520.2479129344811" font-size="11" fill="#555">単価</text><text x="509.0843452863037" y="520.2479129344811" font-size="10" font-family="monospace" fill="#999">unit_price</text><rect x="160.38270984637245" y="445.7548275726389" width="210.8" height="172" fill="#fff" stroke="none"/><line x1="160.38270984637245" y1="445.7548275726389" x2="371.18270984637246" y2="445.7548275726389" stroke="#2e7d32" stroke-width="1.5"/><line x1="160.38270984637245" y1="617.7548275726389" x2="371.18270984637246" y2="617.7548275726389" stroke="#2e7d32" stroke-width="1.5"/><rect x="160.38270984637245" y="445.7548275726389" width="210.8" height="46" fill="#e8f5e9"/><line x1="160.38270984637245" y1="491.7548275726389" x2="371.18270984637246" y2="491.7548275726389" stroke="#2e7d32" stroke-width="0.5" stroke-dasharray="3,3"/><text x="265.7827098463724" y="463.2348275726389" text-anchor="middle" font-weight="bold" fill="#2e7d32">商品</text><text x="265.7827098463724" y="482.5548275726389" text-anchor="middle" font-size="10" font-family="monospace" fill="#888">products</text><rect x="176.38270984637245" y="506.2548275726389" width="20" height="12" rx="2" fill="#fff8e1" stroke="none"/><text x="186.38270984637245" y="514.2548275726389" font-size="8" font-weight="bold" fill="#c8a415" text-anchor="middle">PK</text><text x="200.38270984637245" y="515.2548275726389" font-size="11" fill="#333" font-weight="bold">ID</text><text x="280.38270984637245" y="515.2548275726389" font-size="10" font-family="monospace" fill="#999">id</text><text x="200.38270984637245" y="533.2548275726389" font-size="11" fill="#555">商品名</text><text x="280.38270984637245" y="533.2548275726389" font-size="10" font-family="monospace" fill="#999">name</text><text x="200.38270984637245" y="551.2548275726389" font-size="11" fill="#555">説明</text><text x="280.38270984637245" y="551.2548275726389" font-size="10" font-family="monospace" fill="#999">description</text><text x="200.38270984637245" y="569.2548275726389" font-size="11" fill="#555">価格</text><text x="280.38270984637245" y="569.2548275726389" font-size="10" font-family="monospace" fill="#999">price</text><text x="200.38270984637245" y="587.2548275726389" font-size="11" fill="#555">在庫数</text><text x="280.38270984637245" y="587.2548275726389" font-size="10" font-family="monospace" fill="#999">stock</text><rect x="176.38270984637245" y="596.2548275726389" width="20" height="12" rx="2" fill="#f3e5f5" stroke="none"/><text x="186.38270984637245" y="604.2548275726389" font-size="8" font-weight="bold" fill="#7b1fa2" text-anchor="middle">FK</text><text x="200.38270984637245" y="605.2548275726389" font-size="11" fill="#555">カテゴリID</text><text x="280.38270984637245" y="605.2548275726389" font-size="10" font-family="monospace" fill="#999">category_id</text><rect x="40" y="684.0038113196138" width="211.2" height="118" fill="#fff" stroke="none"/><line x1="40" y1="684.0038113196138" x2="251.2" y2="684.0038113196138" stroke="#2e7d32" stroke-width="1.5"/><line x1="40" y1="802.0038113196138" x2="251.2" y2="802.0038113196138" stroke="#2e7d32" stroke-width="1.5"/><rect x="40" y="684.0038113196138" width="211.2" height="46" fill="#e8f5e9"/><line x1="40" y1="730.0038113196138" x2="251.2" y2="730.0038113196138" stroke="#2e7d32" stroke-width="0.5" stroke-dasharray="3,3"/><text x="145.6" y="701.4838113196138" text-anchor="middle" font-weight="bold" fill="#2e7d32">カテゴリ</text><text x="145.6" y="720.8038113196137" text-anchor="middle" font-size="10" font-family="monospace" fill="#888">categories</text><rect x="56" y="744.5038113196138" width="20" height="12" rx="2" fill="#fff8e1" stroke="none"/><text x="66" y="752.5038113196138" font-size="8" font-weight="bold" fill="#c8a415" text-anchor="middle">PK</text><text x="80" y="753.5038113196138" font-size="11" fill="#333" font-weight="bold">ID</text><text x="174" y="753.5038113196138" font-size="10" font-family="monospace" fill="#999">id</text><rect x="56" y="762.5038113196138" width="20" height="12" rx="2" fill="#e3f2fd" stroke="none"/><text x="66" y="770.5038113196138" font-size="8" font-weight="bold" fill="#1565c0" text-anchor="middle">UK</text><text x="80" y="771.5038113196138" font-size="11" fill="#333" font-weight="bold">カテゴリ名</text><text x="174" y="771.5038113196138" font-size="10" font-family="monospace" fill="#999">name</text><rect x="56" y="780.5038113196138" width="20" height="12" rx="2" fill="#f3e5f5" stroke="none"/><text x="66" y="788.5038113196138" font-size="8" font-weight="bold" fill="#7b1fa2" text-anchor="middle">FK</text><text x="80" y="789.5038113196138" font-size="11" fill="#555">親カテゴリID</text><text x="174" y="789.5038113196138" font-size="10" font-family="monospace" fill="#999">parent_id</text><rect x="108.53715314124798" y="200.2700620789696" width="204" height="172" fill="#fff" stroke="none"/><line x1="108.53715314124798" y1="200.2700620789696" x2="312.537153141248" y2="200.2700620789696" stroke="#2e7d32" stroke-width="1.5"/><line x1="108.53715314124798" y1="372.2700620789696" x2="312.537153141248" y2="372.2700620789696" stroke="#2e7d32" stroke-width="1.5"/><rect x="108.53715314124798" y="200.2700620789696" width="204" height="46" fill="#e8f5e9"/><line x1="108.53715314124798" y1="246.2700620789696" x2="312.537153141248" y2="246.2700620789696" stroke="#2e7d32" stroke-width="0.5" stroke-dasharray="3,3"/><text x="210.53715314124798" y="217.7500620789696" text-anchor="middle" font-weight="bold" fill="#2e7d32">レビュー</text><text x="210.53715314124798" y="237.0700620789696" text-anchor="middle" font-size="10" font-family="monospace" fill="#888">reviews</text><rect x="124.53715314124798" y="260.7700620789696" width="20" height="12" rx="2" fill="#fff8e1" stroke="none"/><text x="134.53715314124798" y="268.7700620789696" font-size="8" font-weight="bold" fill="#c8a415" text-anchor="middle">PK</text><text x="148.53715314124798" y="269.7700620789696" font-size="11" fill="#333" font-weight="bold">ID</text><text x="228.53715314124798" y="269.7700620789696" font-size="10" font-family="monospace" fill="#999">id</text><rect x="124.53715314124798" y="278.7700620789696" width="20" height="12" rx="2" fill="#f3e5f5" stroke="none"/><text x="134.53715314124798" y="286.7700620789696" font-size="8" font-weight="bold" fill="#7b1fa2" text-anchor="middle">FK</text><text x="148.53715314124798" y="287.7700620789696" font-size="11" fill="#555">ユーザーID</text><text x="228.53715314124798" y="287.7700620789696" font-size="10" font-family="monospace" fill="#999">user_id</text><rect x="124.53715314124798" y="296.7700620789696" width="20" height="12" rx="2" fill="#f3e5f5" stroke="none"/><text x="134.53715314124798" y="304.7700620789696" font-size="8" font-weight="bold" fill="#7b1fa2" text-anchor="middle">FK</text><text x="148.53715314124798" y="305.7700620789696" font-size="11" fill="#555">商品ID</text><text x="228.53715314124798" y="305.7700620789696" font-size="10" font-family="monospace" fill="#999">product_id</text><text x="148.53715314124798" y="323.7700620789696" font-size="11" fill="#555">評価</text><text x="228.53715314124798" y="323.7700620789696" font-size="10" font-family="monospace" fill="#999">rating</text><text x="148.53715314124798" y="341.7700620789696" font-size="11" fill="#555">コメント</text><text x="228.53715314124798" y="341.7700620789696" font-size="10" font-family="monospace" fill="#999">comment</text><text x="148.53715314124798" y="359.7700620789696" font-size="11" fill="#555">作成日時</text><text x="228.53715314124798" y="359.7700620789696" font-size="10" font-family="monospace" fill="#999">created_at</text><path d="M506.83064401514434,194 L446.2176114474014,159.07309166506724" fill="none" stroke="#666" stroke-width="1.5"/><line x1="504.8917772788332" y1="181.34137464892706" x2="494.9063705171903" y2="198.67029994175857" stroke="#666" stroke-width="2"/><line x1="458.3478591523834" y1="166.0628763982173" x2="446.2176114474014" y2="159.07309166506724" stroke="#666" stroke-width="1.5"/><line x1="458.3478591523834" y1="166.0628763982173" x2="443.2219894189085" y2="164.2717692529167" stroke="#666" stroke-width="1.5"/><line x1="458.3478591523834" y1="166.0628763982173" x2="449.2132334758943" y2="153.87441407721778" stroke="#666" stroke-width="1.5"/><path d="M544.4566892840535,315.6033621216368 L526.7167988511617,378.74791293448106" fill="none" stroke="#666" stroke-width="1.5"/><line x1="532.6656460298763" y1="320.60049119522716" x2="551.9202149482293" y2="326.0098881827289" stroke="#666" stroke-width="2"/><line x1="530.5033767424129" y1="365.2697146916339" x2="526.7167988511617" y2="378.74791293448106" stroke="#666" stroke-width="1.5"/><line x1="530.5033767424129" y1="365.2697146916339" x2="532.4931695266677" y2="380.3707320307316" stroke="#666" stroke-width="1.5"/><line x1="530.5033767424129" y1="365.2697146916339" x2="520.9404281756557" y2="377.12509383823055" stroke="#666" stroke-width="1.5"/><path d="M371.1827098463724,498.27771076090374 L417.0843452863037,483.698446894943" fill="none" stroke="#666" stroke-width="1.5"/><line x1="381.83452472336285" y1="505.38677819808044" x2="375.78018212915663" y2="486.3251692483621" stroke="#666" stroke-width="2"/><line x1="403.7412190215009" y1="487.9364867108874" x2="417.0843452863037" y2="483.698446894943" stroke="#666" stroke-width="1.5"/><line x1="403.7412190215009" y1="487.9364867108874" x2="415.26804250804184" y2="477.9799642100275" stroke="#666" stroke-width="1.5"/><line x1="403.7412190215009" y1="487.9364867108874" x2="418.90064806456553" y2="489.4169295798585" stroke="#666" stroke-width="1.5"/><path d="M179.16598339629888,684.0038113196138 L216.85602218397065,617.7548275726389" fill="none" stroke="#666" stroke-width="1.5"/><line x1="191.81373902448175" y1="681.9952602075509" x2="174.43008473444135" y2="672.1054389996443" stroke="#666" stroke-width="2"/><line x1="209.93314733843596" y1="629.9233855756671" x2="216.85602218397065" y2="617.7548275726389" stroke="#666" stroke-width="1.5"/><line x1="209.93314733843596" y1="629.9233855756671" x2="211.64092589695855" y2="614.7878812102668" stroke="#666" stroke-width="1.5"/><line x1="209.93314733843596" y1="629.9233855756671" x2="222.07111847098275" y2="620.7217739350109" stroke="#666" stroke-width="1.5"/><path d="M299.20717303558854,194 L293.1817459712265,200.2700620789696" fill="none" stroke="#666" stroke-width="1.5"/><line x1="286.45363740616597" y1="192.83925500257413" x2="300.874295493339" y2="206.69727146716428" stroke="#666" stroke-width="2"/><line x1="302.8823574964396" y1="190.1756014179485" x2="293.1817459712265" y2="200.2700620789696" stroke="#666" stroke-width="1.5"/><line x1="302.8823574964396" y1="190.1756014179485" x2="297.5079433973784" y2="204.42746701834665" stroke="#666" stroke-width="1.5"/><line x1="302.8823574964396" y1="190.1756014179485" x2="288.8555485450746" y2="196.11265713959256" stroke="#666" stroke-width="1.5"/><path d="M246.4286865240444,445.7548275726389 L229.89117646357602,372.2700620789696" fill="none" stroke="#666" stroke-width="1.5"/><line x1="254.4282412349806" y1="435.7544713576464" x2="234.91624162165112" y2="440.14558409696775" stroke="#666" stroke-width="2"/><line x1="232.96495538110094" y1="385.92846180830026" x2="229.89117646357602" y2="372.2700620789696" stroke="#666" stroke-width="1.5"/><line x1="232.96495538110094" y1="385.92846180830026" x2="224.03757657957718" y2="373.587395900766" stroke="#666" stroke-width="1.5"/><line x1="232.96495538110094" y1="385.92846180830026" x2="235.74477634757486" y2="370.9527282571732" stroke="#666" stroke-width="1.5"/></svg>