<svg xmlns="http://www.w3.org/2000/svg" width="855.2056336165632" height="188" viewBox="0 0 855.2056336165632 188"><style>text { font-family: sans-serif; font-size: 13px; fill: #333; }</style><rect x="40" y="40" width="140" height="90" rx="4" fill="#fff" stroke="#aaa" stroke-width="1"/><rect x="40" y="40" width="140" height="28" rx="4" fill="#e8f5e9"/><rect x="40" y="64" width="140" height="4" fill="#e8f5e9"/><text x="110" y="59.599999999999994" text-anchor="middle" font-weight="bold" fill="#2e7d32">Users</text><text x="90" y="81.5" font-size="11" fill="#c8a415">🔑</text><text x="108" y="81.5" font-size="11" font-weight="bold">id</text><text x="90" y="99.5" font-size="11" fill="#555">name</text><text x="90" y="117.5" font-size="11" fill="#555">email</text><rect x="675.2056336165632" y="40" width="140" height="108" rx="4" fill="#fff" stroke="#aaa" stroke-width="1"/><rect x="675.2056336165632" y="40" width="140" height="28" rx="4" fill="#e8f5e9"/><rect x="675.2056336165632" y="64" width="140" height="4" fill="#e8f5e9"/><text x="745.2056336165632" y="59.599999999999994" text-anchor="middle" font-weight="bold" fill="#2e7d32">Posts</text><text x="717.2056336165632" y="81.5" font-size="11" fill="#c8a415">🔑</text><text x="735.2056336165632" y="81.5" font-size="11" font-weight="bold">id</text><text x="717.2056336165632" y="99.5" font-size="11" fill="#555">user_id</text><text x="717.2056336165632" y="117.5" font-size="11" fill="#555">title</text><text x="717.2056336165632" y="135.5" font-size="11" fill="#555">body</text><path d="M180,85.99180480565494 L675.2056336165632,93.00819519434506" fill="none" stroke="#666" stroke-width="1.5"/><text x="203.2127640757764" y="80.32069810512479" text-anchor="middle" font-size="12" font-weight="bold" fill="#666">1</text><text x="651.9928695407868" y="86.67930189487521" text-anchor="middle" font-size="12" font-weight="bold" fill="#666">*</text></svg>