<svg xmlns="http://www.w3.org/2000/svg" width="319" height="273" viewBox="0 0 319 273"><rect width="100%" height="100%" fill="white"/><style>text { font-family: sans-serif; font-size: 13px; fill: #333; }</style><polygon points="135.3,67.5 135.3,122.5 87.6,150.0 40.0,122.5 40.0,67.5 87.6,40.0" fill="#e3f2fd" stroke="#1565c0" stroke-width="2"/><text x="87.63139720814412" y="95" text-anchor="middle" dominant-baseline="central" fill="#1565c0">戦略</text><polygon points="230.5,67.5 230.5,122.5 182.9,150.0 135.3,122.5 135.3,67.5 182.9,40.0" fill="#e8f5e9" stroke="#2e7d32" stroke-width="2"/><text x="182.89419162443238" y="95" text-anchor="middle" dominant-baseline="central" fill="#2e7d32">人材</text><polygon points="182.9,150.0 182.9,205.0 135.3,232.5 87.6,205.0 87.6,150.0 135.3,122.5" fill="#fff8e1" stroke="#f57f17" stroke-width="2"/><text x="135.26279441628824" y="177.5" text-anchor="middle" dominant-baseline="central" fill="#f57f17">技術</text><polygon points="278.2,150.0 278.2,205.0 230.5,232.5 182.9,205.0 182.9,150.0 230.5,122.5" fill="#f3e5f5" stroke="#7b1fa2" stroke-width="2"/><text x="230.5255888325765" y="177.5" text-anchor="middle" dominant-baseline="central" fill="#7b1fa2">プロセス</text></svg>