<svg xmlns="http://www.w3.org/2000/svg" width="414" height="395" viewBox="0 0 414 395"><rect width="100%" height="100%" fill="white"/><style>text { font-family: sans-serif; font-size: 13px; fill: #333; }</style><text x="206.70989022850443" y="58" text-anchor="middle" font-size="16" font-weight="bold">チーム構成</text><polygon points="135.3,107.5 135.3,162.5 87.6,190.0 40.0,162.5 40.0,107.5 87.6,80.0" fill="#e3f2fd" stroke="#1565c0" stroke-width="2"/><text x="87.63139720814412" y="135" text-anchor="middle" dominant-baseline="central" fill="#1565c0">リーダー</text><polygon points="230.5,107.5 230.5,162.5 182.9,190.0 135.3,162.5 135.3,107.5 182.9,80.0" fill="#e8f5e9" stroke="#2e7d32" stroke-width="2"/><text x="182.89419162443238" y="135" text-anchor="middle" dominant-baseline="central" fill="#2e7d32">デザイナー</text><polygon points="325.8,107.5 325.8,162.5 278.2,190.0 230.5,162.5 230.5,107.5 278.2,80.0" fill="#fff8e1" stroke="#f57f17" stroke-width="2"/><text x="278.1569860407206" y="135" text-anchor="middle" dominant-baseline="central" fill="#f57f17">フロントエンド</text><polygon points="182.9,190.0 182.9,245.0 135.3,272.5 87.6,245.0 87.6,190.0 135.3,162.5" fill="#f3e5f5" stroke="#7b1fa2" stroke-width="2"/><text x="135.26279441628824" y="217.5" text-anchor="middle" dominant-baseline="central" fill="#7b1fa2">バックエンド</text><polygon points="278.2,190.0 278.2,245.0 230.5,272.5 182.9,245.0 182.9,190.0 230.5,162.5" fill="#e0f2f1" stroke="#00695c" stroke-width="2"/><text x="230.5255888325765" y="217.5" text-anchor="middle" dominant-baseline="central" fill="#00695c">インフラ</text><polygon points="373.4,190.0 373.4,245.0 325.8,272.5 278.2,245.0 278.2,190.0 325.8,162.5" fill="#fce4ec" stroke="#c62828" stroke-width="2"/><text x="325.7883832488647" y="217.5" text-anchor="middle" dominant-baseline="central" fill="#c62828">QA</text><polygon points="135.3,272.5 135.3,327.5 87.6,355.0 40.0,327.5 40.0,272.5 87.6,245.0" fill="#e8eaf6" stroke="#283593" stroke-width="2"/><text x="87.63139720814412" y="300" text-anchor="middle" dominant-baseline="central" fill="#283593">PM</text></svg>