<svg xmlns="http://www.w3.org/2000/svg" width="1861.311357332749" height="582.6738057475482" viewBox="0 0 1861.311357332749 582.6738057475482"><rect width="100%" height="100%" fill="white"/><style>text { font-family: sans-serif; font-size: 13px; fill: #333; }</style><defs><marker id="arrow" viewBox="0 0 10 10" refX="10" refY="5" markerWidth="8" markerHeight="8" orient="auto"><polygon points="0,1 10,5 0,9" fill="#666"/></marker></defs><rect x="1070.6099884993225" y="468.33804822872986" width="100" height="42" rx="12" fill="#f3e5f5" stroke="#7b1fa2" stroke-width="2"/><text x="1120.6099884993225" y="495.6380482287299" text-anchor="middle" font-weight="bold">未認証</text><rect x="1655.311357332749" y="269.89394729132454" width="110" height="42" rx="12" fill="#f3e5f5" stroke="#7b1fa2" stroke-width="2"/><text x="1710.311357332749" y="297.19394729132455" text-anchor="middle" font-weight="bold">ログイン中</text><rect x="506.57988018020905" y="40" width="100" height="42" rx="12" fill="#f3e5f5" stroke="#7b1fa2" stroke-width="2"/><text x="556.5798801802091" y="67.3" text-anchor="middle" font-weight="bold">認証済み</text><rect x="40" y="270.7798584562237" width="100" height="42" rx="12" fill="#f3e5f5" stroke="#7b1fa2" stroke-width="2"/><text x="90" y="298.0798584562237" text-anchor="middle" font-weight="bold">MFA待ち</text><rect x="1655.311357332749" y="500.6738057475482" width="166" height="42" rx="12" fill="#f3e5f5" stroke="#7b1fa2" stroke-width="2"/><text x="1738.311357332749" y="527.9738057475481" text-anchor="middle" font-weight="bold">パスワードリセット</text><rect x="506.57988018020905" y="468.33804822872986" width="152" height="42" rx="12" fill="#f3e5f5" stroke="#7b1fa2" stroke-width="2"/><text x="582.5798801802091" y="495.6380482287299" text-anchor="middle" font-weight="bold">アカウントロック</text><rect x="1070.6099884993225" y="204.3365210887888" width="166" height="42" rx="12" fill="#f3e5f5" stroke="#7b1fa2" stroke-width="2"/><text x="1153.6099884993225" y="231.6365210887888" text-anchor="middle" font-weight="bold">セッション期限切れ</text><rect x="1070.6099884993225" y="73.22166868371741" width="138" height="42" rx="12" fill="#f3e5f5" stroke="#7b1fa2" stroke-width="2"/><text x="1139.6099884993225" y="100.52166868371741" text-anchor="middle" font-weight="bold">ログアウト済み</text><path d="M1170.6099884993225,472.51223507774665 L1655.311357332749,309.4023417574061" fill="none" stroke="#666" stroke-width="1.5" marker-end="url(#arrow)"/><rect x="1367.9606729160357" y="372.95728841757636" width="90" height="16" rx="3" fill="white" opacity="0.85"/><text x="1412.9606729160357" y="384.95728841757636" text-anchor="middle" font-size="11" fill="#666">ログイン試行</text><path d="M1655.311357332749,279.9345799242928 L606.5798801802091,70.96306124275611" fill="none" stroke="#666" stroke-width="1.5" marker-end="url(#arrow)"/><rect x="1099.945618756479" y="157.44882058352445" width="62" height="16" rx="3" fill="white" opacity="0.85"/><text x="1130.945618756479" y="169.44882058352445" text-anchor="middle" font-size="11" fill="#666">認証成功</text><path d="M1655.311357332749,290.9240187426224 L140,291.75252077322557" fill="none" stroke="#666" stroke-width="1.5" marker-end="url(#arrow)"/><rect x="868.6556786663745" y="273.33826975792397" width="58" height="16" rx="3" fill="white" opacity="0.85"/><text x="897.6556786663745" y="285.33826975792397" text-anchor="middle" font-size="11" fill="#666">MFA要求</text><path d="M1655.311357332749,300.5721603878638 L658.5798801802091,475.96451740442103" fill="none" stroke="#666" stroke-width="1.5" marker-end="url(#arrow)"/><rect x="1111.945618756479" y="370.2683388961424" width="90" height="16" rx="3" fill="white" opacity="0.85"/><text x="1156.945618756479" y="382.2683388961424" text-anchor="middle" font-size="11" fill="#666">試行回数超過</text><path d="M132.45681381957775,270.7798584562237 L514.1230663606314,82" fill="none" stroke="#666" stroke-width="1.5" marker-end="url(#arrow)"/><rect x="294.28994009010455" y="158.38992922811184" width="58" height="16" rx="3" fill="white" opacity="0.85"/><text x="323.28994009010455" y="170.38992922811184" text-anchor="middle" font-size="11" fill="#666">MFA成功</text><path d="M140,311.83327493968113 L530.2197249484974,468.33804822872986" fill="none" stroke="#666" stroke-width="1.5" marker-end="url(#arrow)"/><rect x="295.1098624742487" y="372.08566158420547" width="80" height="16" rx="3" fill="white" opacity="0.85"/><text x="335.1098624742487" y="384.08566158420547" text-anchor="middle" font-size="11" fill="#666">MFA失敗3回</text><path d="M606.5798801802091,74.76283363258379 L1077.3175600626303,204.3365210887888" fill="none" stroke="#666" stroke-width="1.5" marker-end="url(#arrow)"/><rect x="796.9487201214197" y="121.5496773606863" width="90" height="16" rx="3" fill="white" opacity="0.85"/><text x="841.9487201214197" y="133.5496773606863" text-anchor="middle" font-size="11" fill="#666">タイムアウト</text><path d="M606.5798801802091,63.849052579762656 L1070.6099884993225,90.28997612364495" fill="none" stroke="#666" stroke-width="1.5" marker-end="url(#arrow)"/><rect x="800.5949343397658" y="59.0695143517038" width="76" height="16" rx="3" fill="white" opacity="0.85"/><text x="838.5949343397658" y="71.0695143517038" text-anchor="middle" font-size="11" fill="#666">ログアウト</text><path d="M1236.6099884993225,235.1106417923407 L1655.311357332749,284.41712031909134" fill="none" stroke="#666" stroke-width="1.5" marker-end="url(#arrow)"/><rect x="1407.9606729160357" y="241.763881055716" width="76" height="16" rx="3" fill="white" opacity="0.85"/><text x="1445.9606729160357" y="253.763881055716" text-anchor="middle" font-size="11" fill="#666">再ログイン</text><path d="M1200.5475483341452,115.22166868371741 L1655.311357332749,271.9401197483323" fill="none" stroke="#666" stroke-width="1.5" marker-end="url(#arrow)"/><rect x="1389.9294528334472" y="175.58089421602483" width="76" height="16" rx="3" fill="white" opacity="0.85"/><text x="1427.9294528334472" y="187.58089421602483" text-anchor="middle" font-size="11" fill="#666">再ログイン</text><path d="M1170.6099884993225,491.347939531628 L1655.311357332749,516.3190885454035" fill="none" stroke="#666" stroke-width="1.5" marker-end="url(#arrow)"/><rect x="1367.9606729160357" y="485.8335140385158" width="90" height="16" rx="3" fill="white" opacity="0.85"/><text x="1412.9606729160357" y="497.8335140385158" text-anchor="middle" font-size="11" fill="#666">リセット要求</text><path d="M1655.311357332749,516.3190885454035 L1170.6099884993225,491.347939531628" fill="none" stroke="#666" stroke-width="1.5" marker-end="url(#arrow)"/><rect x="1367.9606729160357" y="485.8335140385158" width="90" height="16" rx="3" fill="white" opacity="0.85"/><text x="1412.9606729160357" y="497.8335140385158" text-anchor="middle" font-size="11" fill="#666">リセット完了</text><path d="M658.5798801802091,489.33804822872986 L1070.6099884993225,489.33804822872986" fill="none" stroke="#666" stroke-width="1.5" marker-end="url(#arrow)"/><rect x="826.5949343397658" y="471.33804822872986" width="76" height="16" rx="3" fill="white" opacity="0.85"/><text x="864.5949343397658" y="483.33804822872986" text-anchor="middle" font-size="11" fill="#666">ロック解除</text><path d="M658.5798801802091,483.5465507793866 L889.5949343397658,465.94229950405827 Q1120.6099884993225,448.33804822872986 1387.9606729160357,480.0788957549418 L1655.311357332749,511.81974328115376" fill="none" stroke="#666" stroke-width="1.5" marker-end="url(#arrow)"/><rect x="1105.8566423403677" y="443.6498153740654" width="104" height="16" rx="3" fill="white" opacity="0.85"/><text x="1157.8566423403677" y="455.6498153740654" text-anchor="middle" font-size="11" fill="#666">管理者リセット</text></svg>