<svg xmlns="http://www.w3.org/2000/svg" width="2944.8663786355473" height="240.07258556450734" viewBox="0 0 2944.8663786355473 240.07258556450734"><style>text { font-family: sans-serif; font-size: 13px; fill: #333; }</style><defs><marker id="arrow" viewBox="0 0 10 10" refX="10" refY="5" markerWidth="8" markerHeight="8" orient="auto"><polygon points="0,1 10,5 0,9" fill="#666"/></marker></defs><rect x="40" y="99.03629278225367" width="100" height="42" rx="12" fill="#f3e5f5" stroke="#7b1fa2" stroke-width="2"/><text x="90" y="126.33629278225366" text-anchor="middle" font-weight="bold">下書き</text><rect x="379.45868349795876" y="99.03629278225367" width="100" height="42" rx="12" fill="#f3e5f5" stroke="#7b1fa2" stroke-width="2"/><text x="429.45868349795876" y="126.33629278225366" text-anchor="middle" font-weight="bold">確認待ち</text><rect x="718.9173669959174" y="158.07258556450734" width="100" height="42" rx="12" fill="#f3e5f5" stroke="#7b1fa2" stroke-width="2"/><text x="768.9173669959174" y="185.37258556450735" text-anchor="middle" font-weight="bold">決済中</text><rect x="1070.6752781568455" y="158.07258556450734" width="100" height="42" rx="12" fill="#f3e5f5" stroke="#7b1fa2" stroke-width="2"/><text x="1120.6752781568455" y="185.37258556450735" text-anchor="middle" font-weight="bold">決済済み</text><rect x="1434.7324169807432" y="158.07258556450734" width="110" height="42" rx="12" fill="#f3e5f5" stroke="#7b1fa2" stroke-width="2"/><text x="1489.7324169807432" y="185.37258556450735" text-anchor="middle" font-weight="bold">出荷準備中</text><rect x="1786.4903281416714" y="158.07258556450734" width="100" height="42" rx="12" fill="#f3e5f5" stroke="#7b1fa2" stroke-width="2"/><text x="1836.4903281416714" y="185.37258556450735" text-anchor="middle" font-weight="bold">出荷済み</text><rect x="2125.94901163963" y="158.07258556450734" width="100" height="42" rx="12" fill="#f3e5f5" stroke="#7b1fa2" stroke-width="2"/><text x="2175.94901163963" y="185.37258556450735" text-anchor="middle" font-weight="bold">配達完了</text><rect x="1070.6752781568455" y="40" width="110" height="42" rx="12" fill="#f3e5f5" stroke="#7b1fa2" stroke-width="2"/><text x="1125.6752781568455" y="67.3" text-anchor="middle" font-weight="bold">キャンセル</text><rect x="2465.4076951375887" y="158.07258556450734" width="100" height="42" rx="12" fill="#f3e5f5" stroke="#7b1fa2" stroke-width="2"/><text x="2515.4076951375887" y="185.37258556450735" text-anchor="middle" font-weight="bold">返品中</text><rect x="2804.8663786355473" y="158.07258556450734" width="100" height="42" rx="12" fill="#f3e5f5" stroke="#7b1fa2" stroke-width="2"/><text x="2854.8663786355473" y="185.37258556450735" text-anchor="middle" font-weight="bold">返金済み</text><path d="M140,120.03629278225367 L379.45868349795876,120.03629278225367" fill="none" stroke="#666" stroke-width="1.5" marker-end="url(#arrow)"/><rect x="228.72934174897938" y="102.03629278225367" width="62" height="16" rx="3" fill="white" opacity="0.85"/><text x="259.7293417489794" y="114.03629278225367" text-anchor="middle" font-size="11" fill="#666">注文確定</text><path d="M479.45868349795876,128.7319449561667 L718.9173669959174,170.3769333905943" fill="none" stroke="#666" stroke-width="1.5" marker-end="url(#arrow)"/><rect x="568.1880252469381" y="131.5544391733805" width="62" height="16" rx="3" fill="white" opacity="0.85"/><text x="599.1880252469381" y="143.5544391733805" text-anchor="middle" font-size="11" fill="#666">決済開始</text><path d="M818.9173669959174,179.07258556450734 L1070.6752781568455,179.07258556450734" fill="none" stroke="#666" stroke-width="1.5" marker-end="url(#arrow)"/><rect x="913.7963225763815" y="161.07258556450734" width="62" height="16" rx="3" fill="white" opacity="0.85"/><text x="944.7963225763815" y="173.07258556450734" text-anchor="middle" font-size="11" fill="#666">決済成功</text><path d="M818.9173669959174,162.5245873462917 L1070.6752781568455,79.2027980400372" fill="none" stroke="#666" stroke-width="1.5" marker-end="url(#arrow)"/><rect x="913.7963225763815" y="102.86369269316444" width="62" height="16" rx="3" fill="white" opacity="0.85"/><text x="944.7963225763815" y="114.86369269316444" text-anchor="middle" font-size="11" fill="#666">決済失敗</text><path d="M1170.6752781568455,179.07258556450734 L1434.7324169807432,179.07258556450734" fill="none" stroke="#666" stroke-width="1.5" marker-end="url(#arrow)"/><rect x="1271.7038475687943" y="161.07258556450734" width="62" height="16" rx="3" fill="white" opacity="0.85"/><text x="1302.7038475687943" y="173.07258556450734" text-anchor="middle" font-size="11" fill="#666">出荷指示</text><path d="M1544.7324169807432,179.07258556450734 L1786.4903281416714,179.07258556450734" fill="none" stroke="#666" stroke-width="1.5" marker-end="url(#arrow)"/><rect x="1634.6113725612072" y="161.07258556450734" width="62" height="16" rx="3" fill="white" opacity="0.85"/><text x="1665.6113725612072" y="173.07258556450734" text-anchor="middle" font-size="11" fill="#666">出荷完了</text><path d="M1886.4903281416714,179.07258556450734 L2125.94901163963,179.07258556450734" fill="none" stroke="#666" stroke-width="1.5" marker-end="url(#arrow)"/><rect x="1975.2196698906507" y="161.07258556450734" width="62" height="16" rx="3" fill="white" opacity="0.85"/><text x="2006.2196698906507" y="173.07258556450734" text-anchor="middle" font-size="11" fill="#666">配達確認</text><path d="M479.45868349795876,115.7964992154845 L1070.6752781568455,65.66377292344607" fill="none" stroke="#666" stroke-width="1.5" marker-end="url(#arrow)"/><rect x="709.0669808274022" y="72.73013606946529" width="132" height="16" rx="3" fill="white" opacity="0.85"/><text x="775.0669808274022" y="84.73013606946529" text-anchor="middle" font-size="11" fill="#666">ユーザーキャンセル</text><path d="M2225.94901163963,179.07258556450734 L2465.4076951375887,179.07258556450734" fill="none" stroke="#666" stroke-width="1.5" marker-end="url(#arrow)"/><rect x="2314.678353388609" y="161.07258556450734" width="62" height="16" rx="3" fill="white" opacity="0.85"/><text x="2345.678353388609" y="173.07258556450734" text-anchor="middle" font-size="11" fill="#666">返品申請</text><path d="M2565.4076951375887,179.07258556450734 L2804.8663786355473,179.07258556450734" fill="none" stroke="#666" stroke-width="1.5" marker-end="url(#arrow)"/><rect x="2654.1370368865682" y="161.07258556450734" width="62" height="16" rx="3" fill="white" opacity="0.85"/><text x="2685.1370368865682" y="173.07258556450734" text-anchor="middle" font-size="11" fill="#666">返金処理</text><path d="M818.9173669959174,170.67258556450733 C853.9173669959174,155.67258556450733 853.9173669959174,202.47258556450734 818.9173669959174,187.47258556450734" fill="none" stroke="#666" stroke-width="1.5" marker-end="url(#arrow)"/><text x="859.9173669959174" y="183.07258556450734" font-size="11" fill="#666">リトライ</text></svg>