<svg xmlns="http://www.w3.org/2000/svg" width="931.7893276880823" height="296.7910186874791" viewBox="0 0 931.7893276880823 296.7910186874791"><rect width="100%" height="100%" fill="white"/><style>text { font-family: sans-serif; font-size: 13px; fill: #333; }</style><defs><marker id="arrow" viewBox="0 0 10 10" refX="10" refY="5" markerWidth="8" markerHeight="8" orient="auto"><polygon points="0,1 10,5 0,9" fill="#666"/></marker></defs><rect x="791.7893276880823" y="40" width="100" height="42" rx="12" fill="#f3e5f5" stroke="#7b1fa2" stroke-width="2"/><text x="841.7893276880823" y="67.3" text-anchor="middle" font-weight="bold">待機中</text><rect x="40" y="98.26367289582637" width="100" height="42" rx="12" fill="#f3e5f5" stroke="#7b1fa2" stroke-width="2"/><text x="90" y="125.56367289582637" text-anchor="middle" font-weight="bold">処理中</text><rect x="415.89466384404113" y="214.7910186874791" width="100" height="42" rx="12" fill="#f3e5f5" stroke="#7b1fa2" stroke-width="2"/><text x="465.89466384404113" y="242.0910186874791" text-anchor="middle" font-weight="bold">完了</text><rect x="415.89466384404113" y="98.26367289582637" width="100" height="42" rx="12" fill="#f3e5f5" stroke="#7b1fa2" stroke-width="2"/><text x="465.89466384404113" y="125.56367289582637" text-anchor="middle" font-weight="bold">エラー</text><path d="M791.7893276880823,63.29634450237754 L628.8419957660617,70.78000869910196 Q465.89466384404113,78.26367289582637 302.94733192202057,96.03684514701516 L140,113.81001739820393" fill="none" stroke="#666" stroke-width="1.5" marker-end="url(#arrow)"/><rect x="448.3008499145556" y="62.88790354343023" width="34" height="16" rx="3" fill="white" opacity="0.85"/><text x="465.3008499145556" y="74.88790354343023" text-anchor="middle" font-size="11" fill="#666">開始</text><path d="M140,134.76367289582637 L415.89466384404113,220.2910186874791" fill="none" stroke="#666" stroke-width="1.5" marker-end="url(#arrow)"/><rect x="260.94733192202057" y="159.52734579165275" width="34" height="16" rx="3" fill="white" opacity="0.85"/><text x="277.94733192202057" y="171.52734579165275" text-anchor="middle" font-size="11" fill="#666">成功</text><path d="M140,119.26367289582637 L415.89466384404113,119.26367289582637" fill="none" stroke="#666" stroke-width="1.5" marker-end="url(#arrow)"/><rect x="260.94733192202057" y="101.26367289582637" width="34" height="16" rx="3" fill="white" opacity="0.85"/><text x="277.94733192202057" y="113.26367289582637" text-anchor="middle" font-size="11" fill="#666">失敗</text><path d="M515.8946638440411,111.51367289582637 L791.7893276880823,68.75" fill="none" stroke="#666" stroke-width="1.5" marker-end="url(#arrow)"/><rect x="622.8419957660617" y="72.13183644791319" width="62" height="16" rx="3" fill="white" opacity="0.85"/><text x="653.8419957660617" y="84.13183644791319" text-anchor="middle" font-size="11" fill="#666">リトライ</text></svg>