<svg xmlns="http://www.w3.org/2000/svg" width="565.7386845599251" height="385.7386845599251" viewBox="0 0 565.7386845599251 385.7386845599251"><rect width="100%" height="100%" fill="white"/><style>text { font-family: sans-serif; font-size: 13px; fill: #333; }</style><defs><marker id="arrow" viewBox="0 0 10 10" refX="10" refY="5" markerWidth="8" markerHeight="8" orient="auto"><polygon points="0,1 10,5 0,9" fill="#666"/></marker></defs><path d="M147.7912083823338,100 L133.53507430225008,285.7386845599251" fill="none" stroke="#666" stroke-width="1.5" marker-end="url(#arrow)"/><rect x="122.66314134229194" y="183.36934227996255" width="36" height="19" rx="3" fill="white" stroke="#666" stroke-width="0.5"/><text x="140.66314134229194" y="196.86934227996255" text-anchor="middle" font-size="11">構築</text><path d="M393.6315801576534,100 L157.43338708685565,285.7386845599251" fill="none" stroke="#666" stroke-width="1.5" marker-end="url(#arrow)"/><rect x="257.5324836222545" y="183.36934227996255" width="36" height="19" rx="3" fill="white" stroke="#666" stroke-width="0.5"/><text x="275.5324836222545" y="196.86934227996255" text-anchor="middle" font-size="11">利用</text><path d="M175.76502998720883,100 L421.29993725730014,285.7386845599251" fill="none" stroke="#666" stroke-width="1.5"/><rect x="280.5324836222545" y="183.36934227996255" width="36" height="19" rx="3" fill="white" stroke="#666" stroke-width="0.5"/><text x="298.5324836222545" y="196.86934227996255" text-anchor="middle" font-size="11">参加</text><path d="M421.6054017625284,100 L445.19825004190574,285.7386845599251" fill="none" stroke="#666" stroke-width="1.5"/><rect x="380.40182590221707" y="183.36934227996255" width="106" height="19" rx="3" fill="white" stroke="#666" stroke-width="0.5"/><text x="433.40182590221707" y="196.86934227996255" text-anchor="middle" font-size="11">フィードバック</text><path d="M421.29993725730014,285.7386845599251 L175.76502998720883,100" fill="none" stroke="#666" stroke-width="1.5" marker-end="url(#arrow)"/><rect x="280.5324836222545" y="183.36934227996255" width="36" height="19" rx="3" fill="white" stroke="#666" stroke-width="0.5"/><text x="298.5324836222545" y="196.86934227996255" text-anchor="middle" font-size="11">貢献</text><rect x="109.32628268458387" y="60" width="80" height="40" rx="8" fill="#e3f2fd" stroke="#1565c0" stroke-width="1.5"/><text x="149.32628268458387" y="85" text-anchor="middle" font-weight="bold">開発者</text><rect x="375.06496724450903" y="60" width="88" height="40" rx="8" fill="#e8f5e9" stroke="#2e7d32" stroke-width="1.5"/><text x="419.06496724450903" y="85" text-anchor="middle" font-weight="bold">ユーザー</text><rect x="60" y="285.7386845599251" width="144" height="40" rx="8" fill="#fff8e1" stroke="#f57f17" stroke-width="1.5"/><text x="132" y="310.7386845599251" text-anchor="middle" font-weight="bold">プラットフォーム</text><rect x="389.7386845599251" y="285.7386845599251" width="116" height="40" rx="8" fill="#f3e5f5" stroke="#7b1fa2" stroke-width="1.5"/><text x="447.7386845599251" y="310.7386845599251" text-anchor="middle" font-weight="bold">コミュニティ</text></svg>