   Compiling mdd-concept v0.1.0 (/Users/fujis/ghq/github-home/ppdx999/mdd/crates/mdd-concept)
    Finished `dev` profile [unoptimized + debuginfo] target(s) in 0.14s
     Running `target/debug/mdd-concept`
<svg xmlns="http://www.w3.org/2000/svg" width="564" height="500" viewBox="0 0 564 500"><rect width="100%" height="100%" fill="white"/><style>text { font-family: sans-serif; font-size: 13px; fill: #333; }</style><defs><marker id="arrow" viewBox="0 0 10 10" refX="10" refY="5" markerWidth="8" markerHeight="8" orient="auto"><polygon points="0,1 10,5 0,9" fill="#666"/></marker></defs><text x="282" y="78" text-anchor="middle" font-size="16" font-weight="bold">ソフトウェアエコシステム</text><line x1="282" y1="120" x2="282" y2="420" stroke="#666" stroke-width="1.5" marker-end="url(#arrow)"/><rect x="264" y="260.5" width="36" height="19" rx="3" fill="white" stroke="#666" stroke-width="0.5"/><text x="282" y="274" text-anchor="middle" font-size="11">構築</text><line x1="432" y1="270" x2="282" y2="420" stroke="#666" stroke-width="1.5" marker-end="url(#arrow)"/><rect x="339" y="335.5" width="36" height="19" rx="3" fill="white" stroke="#666" stroke-width="0.5"/><text x="357" y="349" text-anchor="middle" font-size="11">利用</text><line x1="282" y1="120" x2="132" y2="270" stroke="#666" stroke-width="1.5"/><rect x="189" y="185.5" width="36" height="19" rx="3" fill="white" stroke="#666" stroke-width="0.5"/><text x="207" y="199" text-anchor="middle" font-size="11">参加</text><line x1="432" y1="270" x2="132" y2="270" stroke="#666" stroke-width="1.5"/><rect x="229" y="260.5" width="106" height="19" rx="3" fill="white" stroke="#666" stroke-width="0.5"/><text x="282" y="274" text-anchor="middle" font-size="11">フィードバック</text><line x1="132" y1="270" x2="282" y2="120" stroke="#666" stroke-width="1.5" marker-end="url(#arrow)"/><rect x="189" y="185.5" width="36" height="19" rx="3" fill="white" stroke="#666" stroke-width="0.5"/><text x="207" y="199" text-anchor="middle" font-size="11">貢献</text><rect x="242" y="100" width="80" height="40" rx="8" fill="#e3f2fd" stroke="#1565c0" stroke-width="1.5"/><text x="282" y="125" text-anchor="middle" font-weight="bold">開発者</text><rect x="388" y="250" width="88" height="40" rx="8" fill="#e8f5e9" stroke="#2e7d32" stroke-width="1.5"/><text x="432" y="275" text-anchor="middle" font-weight="bold">ユーザー</text><rect x="210" y="400" width="144" height="40" rx="8" fill="#fff8e1" stroke="#f57f17" stroke-width="1.5"/><text x="282" y="425" text-anchor="middle" font-weight="bold">プラットフォーム</text><rect x="74" y="250" width="116" height="40" rx="8" fill="#f3e5f5" stroke="#7b1fa2" stroke-width="1.5"/><text x="132" y="275" text-anchor="middle" font-weight="bold">コミュニティ</text></svg>