<svg xmlns="http://www.w3.org/2000/svg" width="500" height="460" viewBox="0 0 500 460"><rect width="100%" height="100%" fill="white"/><style>text { font-family: sans-serif; font-size: 13px; fill: #333; }</style><defs><marker id="arrow" viewBox="0 0 10 10" refX="10" refY="5" markerWidth="8" markerHeight="8" orient="auto"><polygon points="0,1 10,5 0,9" fill="#666"/></marker></defs><line x1="250" y1="80" x2="379.9038105676658" y2="305" stroke="#666" stroke-width="1.5" marker-end="url(#arrow)"/><rect x="296.9519052838329" y="183" width="36" height="19" rx="3" fill="white" stroke="#666" stroke-width="0.5"/><text x="314.9519052838329" y="196.5" text-anchor="middle" font-size="11">仕様</text><line x1="379.9038105676658" y1="305" x2="120.09618943233423" y2="305.00000000000006" stroke="#666" stroke-width="1.5" marker-end="url(#arrow)"/><rect x="225" y="295.5" width="50" height="19" rx="3" fill="white" stroke="#666" stroke-width="0.5"/><text x="250" y="309" text-anchor="middle" font-size="11">成果物</text><line x1="120.09618943233423" y1="305.00000000000006" x2="250" y2="80" stroke="#666" stroke-width="1.5" marker-end="url(#arrow)"/><rect x="153.0480947161671" y="183.00000000000003" width="64" height="19" rx="3" fill="white" stroke="#666" stroke-width="0.5"/><text x="185.0480947161671" y="196.50000000000003" text-anchor="middle" font-size="11">改善要求</text><rect x="210" y="60" width="80" height="40" rx="8" fill="#e3f2fd" stroke="#1565c0" stroke-width="1.5"/><text x="250" y="85" text-anchor="middle" font-weight="bold">設計</text><rect x="339.9038105676658" y="285" width="80" height="40" rx="8" fill="#e8f5e9" stroke="#2e7d32" stroke-width="1.5"/><text x="379.9038105676658" y="310" text-anchor="middle" font-weight="bold">実装</text><rect x="80.09618943233423" y="285.00000000000006" width="80" height="40" rx="8" fill="#fff8e1" stroke="#f57f17" stroke-width="1.5"/><text x="120.09618943233423" y="310.00000000000006" text-anchor="middle" font-weight="bold">テスト</text></svg>