<svg xmlns="http://www.w3.org/2000/svg" width="1073.8" height="6062.8" viewBox="0 0 1073.8 6062.8"><rect width="100%" height="100%" fill="white"/><style>text { font-family: sans-serif; font-size: 13px; fill: #333; }</style><defs><marker id="arrow" viewBox="0 0 10 10" refX="10" refY="5" markerWidth="8" markerHeight="8" orient="auto"><polygon points="0,1 10,5 0,9" fill="#666"/></marker></defs><rect x="30" y="30" width="180" height="6002.8" fill="#fafafa" stroke="#ddd" stroke-width="0.5"/><rect x="30" y="30" width="180" height="36" fill="#455a64"/><text x="120" y="54.3" text-anchor="middle" font-weight="bold" fill="#fff" font-size="14">監視システム</text><rect x="210" y="30" width="180" height="6002.8" fill="#f5f5f5" stroke="#ddd" stroke-width="0.5"/><rect x="210" y="30" width="180" height="36" fill="#455a64"/><text x="300" y="54.3" text-anchor="middle" font-weight="bold" fill="#fff" font-size="14">オンコール担当</text><rect x="390" y="30" width="229.8" height="6002.8" fill="#fafafa" stroke="#ddd" stroke-width="0.5"/><rect x="390" y="30" width="229.8" height="36" fill="#455a64"/><text x="504.9" y="54.3" text-anchor="middle" font-weight="bold" fill="#fff" font-size="14">チームリード</text><rect x="619.8" y="30" width="212" height="6002.8" fill="#f5f5f5" stroke="#ddd" stroke-width="0.5"/><rect x="619.8" y="30" width="212" height="36" fill="#455a64"/><text x="725.8" y="54.3" text-anchor="middle" font-weight="bold" fill="#fff" font-size="14">開発チーム</text><rect x="831.8" y="30" width="212" height="6002.8" fill="#fafafa" stroke="#ddd" stroke-width="0.5"/><rect x="831.8" y="30" width="212" height="36" fill="#455a64"/><text x="937.8" y="54.3" text-anchor="middle" font-weight="bold" fill="#fff" font-size="14">広報</text><ellipse cx="120" cy="110" rx="58" ry="19" fill="#e8f5e9" stroke="#2e7d32" stroke-width="2"/><text x="120" y="116.3" text-anchor="middle" font-weight="bold">アラート検知</text><rect x="242" y="179" width="116" height="38" rx="4" fill="#e3f2fd" stroke="#1565c0" stroke-width="1.5"/><text x="300" y="204.3" text-anchor="middle" font-weight="bold">アラート確認</text><polygon points="300,267 363,330 300,393 237,330" fill="#fff8e1" stroke="#f57f17" stroke-width="1.5"/><text x="300" y="335.4" text-anchor="middle" font-weight="bold" font-size="12">誤検知？</text><rect x="250" y="443" width="100" height="38" rx="4" fill="#e3f2fd" stroke="#1565c0" stroke-width="1.5"/><text x="300" y="468.3" text-anchor="middle" font-weight="bold">初期調査</text><rect x="418.9" y="531" width="172" height="38" rx="4" fill="#e3f2fd" stroke="#1565c0" stroke-width="1.5"/><text x="504.9" y="556.3" text-anchor="middle" font-weight="bold">エスカレーション判断</text><polygon points="504.9,619 599.8,713.9 504.9,808.8 410,713.9" fill="#fff8e1" stroke="#f57f17" stroke-width="1.5"/><text x="504.9" y="719.3" text-anchor="middle" font-weight="bold" font-size="12">重大インシデント？</text><rect x="675.8" y="5856.8" width="100" height="38" rx="4" fill="#e3f2fd" stroke="#1565c0" stroke-width="1.5"/><text x="725.8" y="5882.1" text-anchor="middle" font-weight="bold">原因調査</text><rect x="639.8" y="5504.8" width="172" height="38" rx="4" fill="#e3f2fd" stroke="#1565c0" stroke-width="1.5"/><text x="725.8" y="5530.1" text-anchor="middle" font-weight="bold">ホットフィックス作成</text><rect x="675.8" y="5592.8" width="100" height="38" rx="4" fill="#e3f2fd" stroke="#1565c0" stroke-width="1.5"/><text x="725.8" y="5618.1" text-anchor="middle" font-weight="bold">デプロイ</text><polygon points="504.9,5680.8 567.9,5743.8 504.9,5806.8 441.9,5743.8" fill="#fff8e1" stroke="#f57f17" stroke-width="1.5"/><text x="504.9" y="5749.2" text-anchor="middle" font-weight="bold" font-size="12">復旧確認</text><rect x="851.8" y="1202.8" width="172" height="38" rx="4" fill="#e3f2fd" stroke="#1565c0" stroke-width="1.5"/><text x="937.8" y="1228.1" text-anchor="middle" font-weight="bold">ステータスページ更新</text><rect x="425.9" y="5856.8" width="158" height="38" rx="4" fill="#e3f2fd" stroke="#1565c0" stroke-width="1.5"/><text x="504.9" y="5882.1" text-anchor="middle" font-weight="bold">ポストモーテム作成</text><ellipse cx="300" cy="5963.8" rx="50" ry="19" fill="#f5f5f5" stroke="#616161" stroke-width="2"/><text x="300" y="5970.1" text-anchor="middle" font-weight="bold">クローズ</text><line x1="172.10629293331365" y1="118.34499250809391" x2="261.1363636363636" y2="179" stroke="#666" stroke-width="1.5" marker-end="url(#arrow)"/><line x1="300" y1="217" x2="300" y2="267" stroke="#666" stroke-width="1.5" marker-end="url(#arrow)"/><line x1="300" y1="393" x2="300" y2="5944.8" stroke="#666" stroke-width="1.5" marker-end="url(#arrow)"/><rect x="285" y="3150.9" width="30" height="16" rx="3" fill="white" opacity="0.9"/><text x="300" y="3162.9" text-anchor="middle" font-size="11" font-weight="bold" fill="#666">Yes</text><line x1="300" y1="393" x2="300" y2="443" stroke="#666" stroke-width="1.5" marker-end="url(#arrow)"/><rect x="289" y="400" width="22" height="16" rx="3" fill="white" opacity="0.9"/><text x="300" y="412" text-anchor="middle" font-size="11" font-weight="bold" fill="#666">No</text><line x1="344.23977272727274" y1="481" x2="460.66022727272724" y2="531" stroke="#666" stroke-width="1.5" marker-end="url(#arrow)"/><line x1="504.9" y1="569" x2="504.9" y2="619" stroke="#666" stroke-width="1.5" marker-end="url(#arrow)"/><line x1="548.5673150510204" y1="765.1326849489795" x2="921.6056704075605" y2="1202.8" stroke="#666" stroke-width="1.5" marker-end="url(#arrow)"/><rect x="720.0864927292905" y="965.9663424744897" width="30" height="16" rx="3" fill="white" opacity="0.9"/><text x="735.0864927292905" y="977.9663424744897" text-anchor="middle" font-size="11" font-weight="bold" fill="#666">Yes</text><line x1="508.7945177231181" y1="804.9054822768819" x2="724.9869079215017" y2="5856.8" stroke="#666" stroke-width="1.5" marker-end="url(#arrow)"/><rect x="605.8907128223099" y="3312.852741138441" width="22" height="16" rx="3" fill="white" opacity="0.9"/><text x="616.8907128223099" y="3324.852741138441" text-anchor="middle" font-size="11" font-weight="bold" fill="#666">No</text><line x1="936.9345079501504" y1="1240.8" x2="726.6654920498495" y2="5856.8" stroke="#666" stroke-width="1.5" marker-end="url(#arrow)"/><line x1="725.8" y1="5856.8" x2="725.8" y2="5542.8" stroke="#666" stroke-width="1.5" marker-end="url(#arrow)"/><line x1="725.8" y1="5542.8" x2="725.8" y2="5592.8" stroke="#666" stroke-width="1.5" marker-end="url(#arrow)"/><line x1="694.0037878787879" y1="5630.8" x2="544.3352507792575" y2="5720.2352507792575" stroke="#666" stroke-width="1.5" marker-end="url(#arrow)"/><line x1="504.9" y1="5806.8" x2="504.9" y2="5856.8" stroke="#666" stroke-width="1.5" marker-end="url(#arrow)"/><rect x="489.9" y="5813.8" width="30" height="16" rx="3" fill="white" opacity="0.9"/><text x="504.9" y="5825.8" text-anchor="middle" font-size="11" font-weight="bold" fill="#666">Yes</text><line x1="544.3352507792575" y1="5767.364749220743" x2="694.0037878787879" y2="5856.8" stroke="#666" stroke-width="1.5" marker-end="url(#arrow)"/><rect x="608.1695193290227" y="5794.0823746103715" width="22" height="16" rx="3" fill="white" opacity="0.9"/><text x="619.1695193290227" y="5806.0823746103715" text-anchor="middle" font-size="11" font-weight="bold" fill="#666">No</text><line x1="460.66022727272724" y1="5894.8" x2="345.94216134414626" y2="5956.302167519042" stroke="#666" stroke-width="1.5" marker-end="url(#arrow)"/></svg>