<svg xmlns="http://www.w3.org/2000/svg" width="1111.4" height="1300.3999999999999" viewBox="0 0 1111.4 1300.3999999999999"><rect width="100%" height="100%" fill="white"/><style>text { font-family: sans-serif; font-size: 13px; fill: #333; }</style><defs><marker id="arrow" viewBox="0 0 10 10" refX="10" refY="5" markerWidth="8" markerHeight="8" orient="auto"><polygon points="0,1 10,5 0,9" fill="#666"/></marker></defs><rect x="30" y="30" width="180" height="1240.3999999999999" fill="#ffffff" stroke="#ddd" stroke-width="0.5"/><rect x="30" y="30" width="180" height="36" fill="#f0f0f0"/><text x="120" y="54.3" text-anchor="middle" font-weight="bold" fill="#333" font-size="14">監視システム</text><rect x="210" y="30" width="186" height="1240.3999999999999" fill="#fcfcfc" stroke="#ddd" stroke-width="0.5"/><rect x="210" y="30" width="186" height="36" fill="#f0f0f0"/><text x="303" y="54.3" text-anchor="middle" font-weight="bold" fill="#333" font-size="14">オンコール担当</text><rect x="396" y="30" width="261.4" height="1240.3999999999999" fill="#ffffff" stroke="#ddd" stroke-width="0.5"/><rect x="396" y="30" width="261.4" height="36" fill="#f0f0f0"/><text x="526.7" y="54.3" text-anchor="middle" font-weight="bold" fill="#333" font-size="14">チームリード</text><rect x="657.4" y="30" width="212" height="1240.3999999999999" fill="#fcfcfc" stroke="#ddd" stroke-width="0.5"/><rect x="657.4" y="30" width="212" height="36" fill="#f0f0f0"/><text x="763.4" y="54.3" text-anchor="middle" font-weight="bold" fill="#333" font-size="14">開発チーム</text><rect x="869.4" y="30" width="212" height="1240.3999999999999" fill="#ffffff" stroke="#ddd" stroke-width="0.5"/><rect x="869.4" y="30" width="212" height="36" fill="#f0f0f0"/><text x="975.4" y="54.3" text-anchor="middle" font-weight="bold" fill="#333" font-size="14">広報</text><ellipse cx="120" cy="110" rx="58" ry="19" fill="#f7fcf7" stroke="#2e7d32" stroke-width="2"/><text x="120" y="116.3" text-anchor="middle" font-weight="bold">アラート検知</text><rect x="245" y="179" width="116" height="38" rx="4" fill="#f7faff" stroke="#1565c0" stroke-width="1.5"/><text x="303" y="204.3" text-anchor="middle" font-weight="bold">アラート確認</text><polygon points="303,267 376,291.9 303,316.79999999999995 230,291.9" fill="#fffef7" stroke="#f57f17" stroke-width="1.5"/><text x="303" y="297.29999999999995" text-anchor="middle" font-weight="bold" font-size="12">誤検知？</text><rect x="253" y="366.8" width="100" height="38" rx="4" fill="#f7faff" stroke="#1565c0" stroke-width="1.5"/><text x="303" y="392.1" text-anchor="middle" font-weight="bold">初期調査</text><rect x="440.70000000000005" y="454.8" width="172" height="38" rx="4" fill="#f7faff" stroke="#1565c0" stroke-width="1.5"/><text x="526.7" y="480.1" text-anchor="middle" font-weight="bold">エスカレーション判断</text><polygon points="526.7,542.8 637.4000000000001,567.6999999999999 526.7,592.5999999999999 416.00000000000006,567.6999999999999" fill="#fffef7" stroke="#f57f17" stroke-width="1.5"/><text x="526.7" y="573.0999999999999" text-anchor="middle" font-weight="bold" font-size="12">重大インシデント？</text><rect x="713.4" y="642.5999999999999" width="100" height="38" rx="4" fill="#f7faff" stroke="#1565c0" stroke-width="1.5"/><text x="763.4" y="667.8999999999999" text-anchor="middle" font-weight="bold">原因調査</text><rect x="677.4" y="730.5999999999999" width="172" height="38" rx="4" fill="#f7faff" stroke="#1565c0" stroke-width="1.5"/><text x="763.4" y="755.8999999999999" text-anchor="middle" font-weight="bold">ホットフィックス作成</text><rect x="713.4" y="818.5999999999999" width="100" height="38" rx="4" fill="#f7faff" stroke="#1565c0" stroke-width="1.5"/><text x="763.4" y="843.8999999999999" text-anchor="middle" font-weight="bold">デプロイ</text><polygon points="526.7,906.5999999999999 599.7,931.4999999999999 526.7,956.3999999999999 453.70000000000005,931.4999999999999" fill="#fffef7" stroke="#f57f17" stroke-width="1.5"/><text x="526.7" y="936.8999999999999" text-anchor="middle" font-weight="bold" font-size="12">復旧確認</text><rect x="889.4" y="1006.3999999999999" width="172" height="38" rx="4" fill="#f7faff" stroke="#1565c0" stroke-width="1.5"/><text x="975.4" y="1031.6999999999998" text-anchor="middle" font-weight="bold">ステータスページ更新</text><rect x="447.70000000000005" y="1094.3999999999999" width="158" height="38" rx="4" fill="#f7faff" stroke="#1565c0" stroke-width="1.5"/><text x="526.7" y="1119.6999999999998" text-anchor="middle" font-weight="bold">ポストモーテム作成</text><ellipse cx="303" cy="1201.3999999999999" rx="50" ry="19" fill="#fcfcfc" stroke="#616161" stroke-width="2"/><text x="303" y="1207.6999999999998" text-anchor="middle" font-weight="bold">クローズ</text><line x1="172.27049541010558" y1="118.23405580607655" x2="263.4886363636364" y2="179" stroke="#666" stroke-width="1.5" marker-end="url(#arrow)"/><line x1="303" y1="217" x2="303" y2="267" stroke="#666" stroke-width="1.5" marker-end="url(#arrow)"/><path d="M303,316.79999999999995 C583,316.79999999999995 583,1182.3999999999999 303,1182.3999999999999" fill="none" stroke="#666" stroke-width="1.5" marker-end="url(#arrow)"/><rect x="588" y="737.5999999999999" width="30" height="16" rx="3" fill="white" opacity="0.9"/><text x="591" y="749.5999999999999" font-size="11" font-weight="bold" fill="#666">Yes</text><line x1="303" y1="316.79999999999995" x2="303" y2="366.8" stroke="#666" stroke-width="1.5" marker-end="url(#arrow)"/><rect x="381" y="319.79999999999995" width="22" height="16" rx="3" fill="white" opacity="0.9"/><text x="392" y="331.79999999999995" text-anchor="middle" font-size="11" font-weight="bold" fill="#666">No</text><line x1="351.29886363636365" y1="404.8" x2="478.4011363636364" y2="454.8" stroke="#666" stroke-width="1.5" marker-end="url(#arrow)"/><line x1="526.7" y1="492.8" x2="526.7" y2="542.8" stroke="#666" stroke-width="1.5" marker-end="url(#arrow)"/><line x1="546.700157519354" y1="588.1013195823675" x2="956.7736071662661" y2="1006.3999999999999" stroke="#666" stroke-width="1.5" marker-end="url(#arrow)"/><rect x="634.218519931082" y="672.6759896867757" width="30" height="16" rx="3" fill="white" opacity="0.9"/><text x="649.218519931082" y="684.6759896867757" text-anchor="middle" font-size="11" font-weight="bold" fill="#666">Yes</text><line x1="566.7555347434028" y1="583.5902184723511" x2="715.5054313099041" y2="642.5999999999999" stroke="#666" stroke-width="1.5" marker-end="url(#arrow)"/><rect x="592.9430088850281" y="578.3426638542633" width="22" height="16" rx="3" fill="white" opacity="0.9"/><text x="603.9430088850281" y="590.3426638542633" text-anchor="middle" font-size="11" font-weight="bold" fill="#666">No</text><line x1="964.3279824079165" y1="1006.3999999999999" x2="774.4720175920835" y2="680.5999999999999" stroke="#666" stroke-width="1.5" marker-end="url(#arrow)"/><line x1="763.4" y1="680.5999999999999" x2="763.4" y2="730.5999999999999" stroke="#666" stroke-width="1.5" marker-end="url(#arrow)"/><line x1="763.4" y1="768.5999999999999" x2="763.4" y2="818.5999999999999" stroke="#666" stroke-width="1.5" marker-end="url(#arrow)"/><line x1="715.5054313099041" y1="856.5999999999999" x2="560.4489569385647" y2="918.1116305174007" stroke="#666" stroke-width="1.5" marker-end="url(#arrow)"/><path d="M526.7,956.3999999999999 C646.7,956.3999999999999 646.7,1094.3999999999999 526.7,1094.3999999999999" fill="none" stroke="#666" stroke-width="1.5" marker-end="url(#arrow)"/><rect x="651.7" y="1013.3999999999999" width="30" height="16" rx="3" fill="white" opacity="0.9"/><text x="654.7" y="1025.3999999999999" font-size="11" font-weight="bold" fill="#666">Yes</text><line x1="543.5089030036494" y1="912.3334477368611" x2="746.7371619118192" y2="680.5999999999999" stroke="#666" stroke-width="1.5" marker-end="url(#arrow)"/><rect x="583.3159677306918" y="834.4000858026458" width="22" height="16" rx="3" fill="white" opacity="0.9"/><text x="594.3159677306918" y="846.4000858026458" text-anchor="middle" font-size="11" font-weight="bold" fill="#666">No</text><line x1="478.4011363636364" y1="1132.3999999999999" x2="349.5292269100538" y2="1194.4445357716932" stroke="#666" stroke-width="1.5" marker-end="url(#arrow)"/></svg>