<svg xmlns="http://www.w3.org/2000/svg" width="1073.8" height="1592.8" viewBox="0 0 1073.8 1592.8"><rect width="100%" height="100%" fill="white"/><style>text { font-family: sans-serif; font-size: 13px; fill: #333; }</style><defs><marker id="arrow" viewBox="0 0 10 10" refX="10" refY="5" markerWidth="8" markerHeight="8" orient="auto"><polygon points="0,1 10,5 0,9" fill="#666"/></marker></defs><rect x="30" y="30" width="180" height="1532.8" fill="#ffffff" stroke="#ddd" stroke-width="0.5"/><rect x="30" y="30" width="180" height="36" fill="#f0f0f0"/><text x="120" y="54.3" text-anchor="middle" font-weight="bold" fill="#333" font-size="14">監視システム</text><rect x="210" y="30" width="180" height="1532.8" fill="#fcfcfc" stroke="#ddd" stroke-width="0.5"/><rect x="210" y="30" width="180" height="36" fill="#f0f0f0"/><text x="300" y="54.3" text-anchor="middle" font-weight="bold" fill="#333" font-size="14">オンコール担当</text><rect x="390" y="30" width="229.8" height="1532.8" fill="#ffffff" stroke="#ddd" stroke-width="0.5"/><rect x="390" y="30" width="229.8" height="36" fill="#f0f0f0"/><text x="504.9" y="54.3" text-anchor="middle" font-weight="bold" fill="#333" font-size="14">チームリード</text><rect x="619.8" y="30" width="212" height="1532.8" fill="#fcfcfc" stroke="#ddd" stroke-width="0.5"/><rect x="619.8" y="30" width="212" height="36" fill="#f0f0f0"/><text x="725.8" y="54.3" text-anchor="middle" font-weight="bold" fill="#333" font-size="14">開発チーム</text><rect x="831.8" y="30" width="212" height="1532.8" fill="#ffffff" stroke="#ddd" stroke-width="0.5"/><rect x="831.8" y="30" width="212" height="36" fill="#f0f0f0"/><text x="937.8" y="54.3" text-anchor="middle" font-weight="bold" fill="#333" font-size="14">広報</text><ellipse cx="120" cy="110" rx="58" ry="19" fill="#f7fcf7" stroke="#2e7d32" stroke-width="2"/><text x="120" y="116.3" text-anchor="middle" font-weight="bold">アラート検知</text><rect x="242" y="179" width="116" height="38" rx="4" fill="#f7faff" stroke="#1565c0" stroke-width="1.5"/><text x="300" y="204.3" text-anchor="middle" font-weight="bold">アラート確認</text><polygon points="300,267 363,330 300,393 237,330" fill="#fffef7" stroke="#f57f17" stroke-width="1.5"/><text x="300" y="335.4" text-anchor="middle" font-weight="bold" font-size="12">誤検知？</text><rect x="250" y="443" width="100" height="38" rx="4" fill="#f7faff" stroke="#1565c0" stroke-width="1.5"/><text x="300" y="468.3" text-anchor="middle" font-weight="bold">初期調査</text><rect x="418.9" y="531" width="172" height="38" rx="4" fill="#f7faff" stroke="#1565c0" stroke-width="1.5"/><text x="504.9" y="556.3" text-anchor="middle" font-weight="bold">エスカレーション判断</text><polygon points="504.9,619 599.8,713.9 504.9,808.8 410,713.9" fill="#fffef7" stroke="#f57f17" stroke-width="1.5"/><text x="504.9" y="719.3" text-anchor="middle" font-weight="bold" font-size="12">重大インシデント？</text><rect x="675.8" y="858.8" width="100" height="38" rx="4" fill="#f7faff" stroke="#1565c0" stroke-width="1.5"/><text x="725.8" y="884.0999999999999" text-anchor="middle" font-weight="bold">原因調査</text><rect x="639.8" y="946.8" width="172" height="38" rx="4" fill="#f7faff" stroke="#1565c0" stroke-width="1.5"/><text x="725.8" y="972.0999999999999" text-anchor="middle" font-weight="bold">ホットフィックス作成</text><rect x="675.8" y="1034.8" width="100" height="38" rx="4" fill="#f7faff" stroke="#1565c0" stroke-width="1.5"/><text x="725.8" y="1060.1" text-anchor="middle" font-weight="bold">デプロイ</text><polygon points="504.9,1122.8 567.9,1185.8 504.9,1248.8 441.9,1185.8" fill="#fffef7" stroke="#f57f17" stroke-width="1.5"/><text x="504.9" y="1191.2" text-anchor="middle" font-weight="bold" font-size="12">復旧確認</text><rect x="851.8" y="1298.8" width="172" height="38" rx="4" fill="#f7faff" stroke="#1565c0" stroke-width="1.5"/><text x="937.8" y="1324.1" text-anchor="middle" font-weight="bold">ステータスページ更新</text><rect x="425.9" y="1386.8" width="158" height="38" rx="4" fill="#f7faff" stroke="#1565c0" stroke-width="1.5"/><text x="504.9" y="1412.1" text-anchor="middle" font-weight="bold">ポストモーテム作成</text><ellipse cx="300" cy="1493.8" rx="50" ry="19" fill="#fcfcfc" stroke="#616161" stroke-width="2"/><text x="300" y="1500.1" text-anchor="middle" font-weight="bold">クローズ</text><line x1="172.10629293331365" y1="118.34499250809391" x2="261.1363636363636" y2="179" stroke="#666" stroke-width="1.5" marker-end="url(#arrow)"/><line x1="300" y1="217" x2="300" y2="267" stroke="#666" stroke-width="1.5" marker-end="url(#arrow)"/><line x1="300" y1="393" x2="300" y2="1474.8" stroke="#666" stroke-width="1.5" marker-end="url(#arrow)"/><rect x="285" y="915.9" width="30" height="16" rx="3" fill="white" opacity="0.9"/><text x="300" y="927.9" text-anchor="middle" font-size="11" font-weight="bold" fill="#666">Yes</text><line x1="300" y1="393" x2="300" y2="443" stroke="#666" stroke-width="1.5" marker-end="url(#arrow)"/><rect x="289" y="400" width="22" height="16" rx="3" fill="white" opacity="0.9"/><text x="300" y="412" text-anchor="middle" font-size="11" font-weight="bold" fill="#666">No</text><line x1="344.23977272727274" y1="481" x2="460.66022727272724" y2="531" stroke="#666" stroke-width="1.5" marker-end="url(#arrow)"/><line x1="504.9" y1="569" x2="504.9" y2="619" stroke="#666" stroke-width="1.5" marker-end="url(#arrow)"/><line x1="544.5240451388888" y1="769.1759548611111" x2="924.1800298062593" y2="1298.8" stroke="#666" stroke-width="1.5" marker-end="url(#arrow)"/><rect x="719.352037472574" y="1015.9879774305555" width="30" height="16" rx="3" fill="white" opacity="0.9"/><text x="734.352037472574" y="1027.9879774305555" text-anchor="middle" font-size="11" font-weight="bold" fill="#666">Yes</text><line x1="559.3787162162162" y1="754.3212837837838" x2="700.192312385601" y2="858.8" stroke="#666" stroke-width="1.5" marker-end="url(#arrow)"/><rect x="618.7855143009085" y="788.5606418918919" width="22" height="16" rx="3" fill="white" opacity="0.9"/><text x="629.7855143009085" y="800.5606418918919" text-anchor="middle" font-size="11" font-weight="bold" fill="#666">No</text><line x1="928.6454545454545" y1="1298.8" x2="734.9545454545454" y2="896.8" stroke="#666" stroke-width="1.5" marker-end="url(#arrow)"/><line x1="725.8" y1="896.8" x2="725.8" y2="946.8" stroke="#666" stroke-width="1.5" marker-end="url(#arrow)"/><line x1="725.8" y1="984.8" x2="725.8" y2="1034.8" stroke="#666" stroke-width="1.5" marker-end="url(#arrow)"/><line x1="694.0037878787879" y1="1072.8" x2="544.3352507792575" y2="1162.2352507792575" stroke="#666" stroke-width="1.5" marker-end="url(#arrow)"/><line x1="504.9" y1="1248.8" x2="504.9" y2="1386.8" stroke="#666" stroke-width="1.5" marker-end="url(#arrow)"/><rect x="489.9" y="1299.8" width="30" height="16" rx="3" fill="white" opacity="0.9"/><text x="504.9" y="1311.8" text-anchor="middle" font-size="11" font-weight="bold" fill="#666">Yes</text><line x1="531.2125354509359" y1="1149.1125354509359" x2="712.1730519480519" y2="896.8" stroke="#666" stroke-width="1.5" marker-end="url(#arrow)"/><rect x="610.6927936994939" y="1004.9562677254679" width="22" height="16" rx="3" fill="white" opacity="0.9"/><text x="621.6927936994939" y="1016.9562677254679" text-anchor="middle" font-size="11" font-weight="bold" fill="#666">No</text><line x1="460.66022727272724" y1="1424.8" x2="345.94216134414626" y2="1486.302167519042" stroke="#666" stroke-width="1.5" marker-end="url(#arrow)"/></svg>