<svg xmlns="http://www.w3.org/2000/svg" width="780" height="1181.4" viewBox="0 0 780 1181.4"><rect width="100%" height="100%" fill="white"/><style>text { font-family: sans-serif; font-size: 13px; fill: #333; }</style><defs><marker id="arrow" viewBox="0 0 10 10" refX="10" refY="5" markerWidth="8" markerHeight="8" orient="auto"><polygon points="0,1 10,5 0,9" fill="#666"/></marker></defs><rect x="30" y="30" width="180" height="1121.4" fill="#ffffff" stroke="#ddd" stroke-width="0.5"/><rect x="30" y="30" width="180" height="36" fill="#f0f0f0"/><text x="120" y="54.3" text-anchor="middle" font-weight="bold" fill="#333" font-size="14">顧客</text><rect x="210" y="30" width="180" height="1121.4" fill="#fcfcfc" stroke="#ddd" stroke-width="0.5"/><rect x="210" y="30" width="180" height="36" fill="#f0f0f0"/><text x="300" y="54.3" text-anchor="middle" font-weight="bold" fill="#333" font-size="14">営業部</text><rect x="390" y="30" width="180" height="1121.4" fill="#ffffff" stroke="#ddd" stroke-width="0.5"/><rect x="390" y="30" width="180" height="36" fill="#f0f0f0"/><text x="480" y="54.3" text-anchor="middle" font-weight="bold" fill="#333" font-size="14">システム</text><rect x="570" y="30" width="180" height="1121.4" fill="#fcfcfc" stroke="#ddd" stroke-width="0.5"/><rect x="570" y="30" width="180" height="36" fill="#f0f0f0"/><text x="660" y="54.3" text-anchor="middle" font-weight="bold" fill="#333" font-size="14">経理部</text><ellipse cx="120" cy="110" rx="51" ry="19" fill="#f7fcf7" stroke="#2e7d32" stroke-width="2"/><text x="120" y="116.3" text-anchor="middle" font-weight="bold">問い合わせ</text><rect x="250" y="179" width="100" height="38" rx="4" fill="#f7faff" stroke="#1565c0" stroke-width="1.5"/><text x="300" y="204.3" text-anchor="middle" font-weight="bold">受付対応</text><polygon points="300,267 364.1,331.1 300,395.20000000000005 235.9,331.1" fill="#fffef7" stroke="#f57f17" stroke-width="1.5"/><text x="300" y="336.5" text-anchor="middle" font-weight="bold" font-size="12">見積必要？</text><rect x="430" y="445.2" width="100" height="38" rx="4" fill="#f7faff" stroke="#1565c0" stroke-width="1.5"/><text x="480" y="470.5" text-anchor="middle" font-weight="bold">見積作成</text><rect x="250" y="533.2" width="100" height="38" rx="4" fill="#f7faff" stroke="#1565c0" stroke-width="1.5"/><text x="300" y="558.5" text-anchor="middle" font-weight="bold">見積提示</text><polygon points="120,621.2 184.1,685.3000000000001 120,749.4000000000001 55.900000000000006,685.3000000000001" fill="#fffef7" stroke="#f57f17" stroke-width="1.5"/><text x="120" y="690.7" text-anchor="middle" font-weight="bold" font-size="12">発注する？</text><rect x="250" y="799.4000000000001" width="100" height="38" rx="4" fill="#f7faff" stroke="#1565c0" stroke-width="1.5"/><text x="300" y="824.7" text-anchor="middle" font-weight="bold">受注処理</text><rect x="430" y="887.4000000000001" width="100" height="38" rx="4" fill="#f7faff" stroke="#1565c0" stroke-width="1.5"/><text x="480" y="912.7" text-anchor="middle" font-weight="bold">在庫引当</text><rect x="609" y="975.4000000000001" width="102" height="38" rx="4" fill="#f7faff" stroke="#1565c0" stroke-width="1.5"/><text x="660" y="1000.7" text-anchor="middle" font-weight="bold">請求書発行</text><ellipse cx="120" cy="1082.4" rx="50" ry="19" fill="#fcfcfc" stroke="#616161" stroke-width="2"/><text x="120" y="1088.7" text-anchor="middle" font-weight="bold">完了</text><line x1="165.81760240687925" y1="118.34499250809391" x2="261.1363636363636" y2="179" stroke="#666" stroke-width="1.5" marker-end="url(#arrow)"/><line x1="300" y1="217" x2="300" y2="267" stroke="#666" stroke-width="1.5" marker-end="url(#arrow)"/><line x1="336.8508463749601" y1="358.34915362503995" x2="454.30503380916605" y2="445.2" stroke="#666" stroke-width="1.5" marker-end="url(#arrow)"/><rect x="380.57794009206305" y="383.77457681251997" width="30" height="16" rx="3" fill="white" opacity="0.9"/><text x="395.57794009206305" y="395.77457681251997" text-anchor="middle" font-size="11" font-weight="bold" fill="#666">Yes</text><line x1="300" y1="395.20000000000005" x2="300" y2="533.2" stroke="#666" stroke-width="1.5" marker-end="url(#arrow)"/><rect x="289" y="446.20000000000005" width="22" height="16" rx="3" fill="white" opacity="0.9"/><text x="300" y="458.20000000000005" text-anchor="middle" font-size="11" font-weight="bold" fill="#666">No</text><line x1="441.1363636363637" y1="483.2" x2="338.8636363636363" y2="533.2" stroke="#666" stroke-width="1.5" marker-end="url(#arrow)"/><line x1="274.30503380916605" y1="571.2" x2="156.85084637496007" y2="658.0508463749602" stroke="#666" stroke-width="1.5" marker-end="url(#arrow)"/><line x1="156.85084637496007" y1="712.5491536250399" x2="274.30503380916605" y2="799.4000000000001" stroke="#666" stroke-width="1.5" marker-end="url(#arrow)"/><rect x="200.57794009206305" y="737.97457681252" width="30" height="16" rx="3" fill="white" opacity="0.9"/><text x="215.57794009206305" y="749.97457681252" text-anchor="middle" font-size="11" font-weight="bold" fill="#666">Yes</text><line x1="120" y1="749.4000000000001" x2="120" y2="1063.4" stroke="#666" stroke-width="1.5" marker-end="url(#arrow)"/><rect x="109" y="888.4000000000001" width="22" height="16" rx="3" fill="white" opacity="0.9"/><text x="120" y="900.4000000000001" text-anchor="middle" font-size="11" font-weight="bold" fill="#666">No</text><line x1="338.8636363636364" y1="837.4000000000001" x2="441.1363636363636" y2="887.4000000000001" stroke="#666" stroke-width="1.5" marker-end="url(#arrow)"/><line x1="518.8636363636364" y1="925.4000000000001" x2="621.1363636363636" y2="975.4000000000001" stroke="#666" stroke-width="1.5" marker-end="url(#arrow)"/><line x1="609" y1="1002.7111111111112" x2="169.34901462577258" y2="1079.344016575767" stroke="#666" stroke-width="1.5" marker-end="url(#arrow)"/></svg>