<svg xmlns="http://www.w3.org/2000/svg" width="797.2" height="1024.6" viewBox="0 0 797.2 1024.6"><rect width="100%" height="100%" fill="white"/><style>text { font-family: sans-serif; font-size: 13px; fill: #333; }</style><defs><marker id="arrow" viewBox="0 0 10 10" refX="10" refY="5" markerWidth="8" markerHeight="8" orient="auto"><polygon points="0,1 10,5 0,9" fill="#666"/></marker></defs><rect x="30" y="30" width="188.6" height="964.5999999999999" fill="#ffffff" stroke="#ddd" stroke-width="0.5"/><rect x="30" y="30" width="188.6" height="36" fill="#f0f0f0"/><text x="124.3" y="54.3" text-anchor="middle" font-weight="bold" fill="#333" font-size="14">顧客</text><rect x="218.6" y="30" width="188.6" height="964.5999999999999" fill="#fcfcfc" stroke="#ddd" stroke-width="0.5"/><rect x="218.6" y="30" width="188.6" height="36" fill="#f0f0f0"/><text x="312.9" y="54.3" text-anchor="middle" font-weight="bold" fill="#333" font-size="14">営業部</text><rect x="407.2" y="30" width="180" height="964.5999999999999" fill="#ffffff" stroke="#ddd" stroke-width="0.5"/><rect x="407.2" y="30" width="180" height="36" fill="#f0f0f0"/><text x="497.2" y="54.3" text-anchor="middle" font-weight="bold" fill="#333" font-size="14">システム</text><rect x="587.2" y="30" width="180" height="964.5999999999999" fill="#fcfcfc" stroke="#ddd" stroke-width="0.5"/><rect x="587.2" y="30" width="180" height="36" fill="#f0f0f0"/><text x="677.2" y="54.3" text-anchor="middle" font-weight="bold" fill="#333" font-size="14">経理部</text><ellipse cx="124.3" cy="110" rx="51" ry="19" fill="#f7fcf7" stroke="#2e7d32" stroke-width="2"/><text x="124.3" y="116.3" text-anchor="middle" font-weight="bold">問い合わせ</text><rect x="262.9" y="179" width="100" height="38" rx="4" fill="#f7faff" stroke="#1565c0" stroke-width="1.5"/><text x="312.9" y="204.3" text-anchor="middle" font-weight="bold">受付対応</text><polygon points="312.9,267 387.2,291.9 312.9,316.79999999999995 238.59999999999997,291.9" fill="#fffef7" stroke="#f57f17" stroke-width="1.5"/><text x="312.9" y="297.29999999999995" text-anchor="middle" font-weight="bold" font-size="12">見積必要？</text><rect x="447.2" y="366.8" width="100" height="38" rx="4" fill="#f7faff" stroke="#1565c0" stroke-width="1.5"/><text x="497.2" y="392.1" text-anchor="middle" font-weight="bold">見積作成</text><rect x="262.9" y="454.8" width="100" height="38" rx="4" fill="#f7faff" stroke="#1565c0" stroke-width="1.5"/><text x="312.9" y="480.1" text-anchor="middle" font-weight="bold">見積提示</text><polygon points="124.3,542.8 198.6,567.6999999999999 124.3,592.5999999999999 50,567.6999999999999" fill="#fffef7" stroke="#f57f17" stroke-width="1.5"/><text x="124.3" y="573.0999999999999" text-anchor="middle" font-weight="bold" font-size="12">発注する？</text><rect x="262.9" y="642.5999999999999" width="100" height="38" rx="4" fill="#f7faff" stroke="#1565c0" stroke-width="1.5"/><text x="312.9" y="667.8999999999999" text-anchor="middle" font-weight="bold">受注処理</text><rect x="447.2" y="730.5999999999999" width="100" height="38" rx="4" fill="#f7faff" stroke="#1565c0" stroke-width="1.5"/><text x="497.2" y="755.8999999999999" text-anchor="middle" font-weight="bold">在庫引当</text><rect x="626.2" y="818.5999999999999" width="102" height="38" rx="4" fill="#f7faff" stroke="#1565c0" stroke-width="1.5"/><text x="677.2" y="843.8999999999999" text-anchor="middle" font-weight="bold">請求書発行</text><ellipse cx="124.3" cy="925.5999999999999" rx="50" ry="19" fill="#fcfcfc" stroke="#616161" stroke-width="2"/><text x="124.3" y="931.8999999999999" text-anchor="middle" font-weight="bold">完了</text><line x1="170.5165921465612" y1="118.03382426434725" x2="272.17954545454546" y2="179" stroke="#666" stroke-width="1.5" marker-end="url(#arrow)"/><line x1="312.9" y1="217" x2="312.9" y2="267" stroke="#666" stroke-width="1.5" marker-end="url(#arrow)"/><line x1="342.38059985266955" y1="306.92022965906494" x2="459.90820021299254" y2="366.8" stroke="#666" stroke-width="1.5" marker-end="url(#arrow)"/><rect x="386.1444000328311" y="318.86011482953245" width="30" height="16" rx="3" fill="white" opacity="0.9"/><text x="401.1444000328311" y="330.86011482953245" text-anchor="middle" font-size="11" font-weight="bold" fill="#666">Yes</text><line x1="312.9" y1="316.79999999999995" x2="312.9" y2="454.8" stroke="#666" stroke-width="1.5" marker-end="url(#arrow)"/><rect x="301.9" y="367.79999999999995" width="22" height="16" rx="3" fill="white" opacity="0.9"/><text x="312.9" y="379.79999999999995" text-anchor="middle" font-size="11" font-weight="bold" fill="#666">No</text><line x1="457.4079545454545" y1="404.8" x2="352.69204545454545" y2="454.8" stroke="#666" stroke-width="1.5" marker-end="url(#arrow)"/><line x1="274.7381256656017" y1="492.8" x2="154.19170669524567" y2="552.8175436973299" stroke="#666" stroke-width="1.5" marker-end="url(#arrow)"/><line x1="154.19170669524567" y1="582.5824563026699" x2="274.7381256656017" y2="642.5999999999999" stroke="#666" stroke-width="1.5" marker-end="url(#arrow)"/><rect x="199.46491618042367" y="594.5912281513349" width="30" height="16" rx="3" fill="white" opacity="0.9"/><text x="214.46491618042367" y="606.5912281513349" text-anchor="middle" font-size="11" font-weight="bold" fill="#666">Yes</text><line x1="124.3" y1="592.5999999999999" x2="124.3" y2="906.5999999999999" stroke="#666" stroke-width="1.5" marker-end="url(#arrow)"/><rect x="113.3" y="731.5999999999999" width="22" height="16" rx="3" fill="white" opacity="0.9"/><text x="124.3" y="743.5999999999999" text-anchor="middle" font-size="11" font-weight="bold" fill="#666">No</text><line x1="352.69204545454545" y1="680.5999999999999" x2="457.4079545454545" y2="730.5999999999999" stroke="#666" stroke-width="1.5" marker-end="url(#arrow)"/><line x1="536.0636363636363" y1="768.5999999999999" x2="638.3363636363637" y2="818.5999999999999" stroke="#666" stroke-width="1.5" marker-end="url(#arrow)"/><line x1="626.2" y1="845.7172002170373" x2="173.6784798030499" y2="922.6135352421522" stroke="#666" stroke-width="1.5" marker-end="url(#arrow)"/></svg>