<svg xmlns="http://www.w3.org/2000/svg" width="420" height="473" viewBox="0 0 420 473"><rect width="100%" height="100%" fill="white"/><style>text { font-family: sans-serif; font-size: 13px; fill: #333; }</style><defs><marker id="arrow" viewBox="0 0 10 10" refX="10" refY="5" markerWidth="8" markerHeight="8" orient="auto"><polygon points="0,1 10,5 0,9" fill="#666"/></marker></defs><rect x="30" y="30" width="180" height="413" fill="#fafafa" stroke="#ddd" stroke-width="0.5"/><rect x="30" y="30" width="180" height="36" fill="#e0e0e0"/><text x="120" y="54.3" text-anchor="middle" font-weight="bold" fill="#333" font-size="14">顧客</text><rect x="210" y="30" width="180" height="413" fill="#f5f5f5" stroke="#ddd" stroke-width="0.5"/><rect x="210" y="30" width="180" height="36" fill="#e0e0e0"/><text x="300" y="54.3" text-anchor="middle" font-weight="bold" fill="#333" font-size="14">営業部</text><ellipse cx="120" cy="110" rx="51" ry="19" fill="#e8f5e9" stroke="#2e7d32" stroke-width="2"/><text x="120" y="116.3" text-anchor="middle" font-weight="bold">問い合わせ</text><rect x="250" y="179" width="100" height="38" rx="4" fill="#e3f2fd" stroke="#1565c0" stroke-width="1.5"/><text x="300" y="204.3" text-anchor="middle" font-weight="bold">受付対応</text><rect x="250" y="267" width="100" height="38" rx="4" fill="#e3f2fd" stroke="#1565c0" stroke-width="1.5"/><text x="300" y="292.3" text-anchor="middle" font-weight="bold">回答作成</text><ellipse cx="120" cy="374" rx="50" ry="19" fill="#f5f5f5" stroke="#616161" stroke-width="2"/><text x="120" y="380.3" text-anchor="middle" font-weight="bold">回答受領</text><line x1="165.81760240687925" y1="118.34499250809391" x2="261.1363636363636" y2="179" stroke="#666" stroke-width="1.5" marker-end="url(#arrow)"/><line x1="300" y1="217" x2="300" y2="267" stroke="#666" stroke-width="1.5" marker-end="url(#arrow)"/><line x1="261.1363636363636" y1="305" x2="164.91921804596004" y2="365.6550074919061" stroke="#666" stroke-width="1.5" marker-end="url(#arrow)"/></svg>