<svg xmlns="http://www.w3.org/2000/svg" width="612" height="320" viewBox="0 0 612 320"><rect width="100%" height="100%" fill="white"/><style>text { font-family: sans-serif; font-size: 13px; fill: #333; }</style><text x="24" y="44" font-size="16" font-weight="bold">Sprint 3</text><rect x="24" y="64" width="180" height="232" rx="8" fill="#f0f0f0"/><text x="34" y="85" font-weight="bold" font-size="13">Todo</text><rect x="34" y="106" width="160" height="52" rx="4" fill="white" stroke="#e0e0e0" stroke-width="1"/><rect x="42" y="112" width="59.6" height="14" rx="3" fill="#e3f2fd"/><text x="48" y="122" font-size="10" fill="#1565c0">feature</text><text x="42" y="142" font-size="12">ユーザー通知</text><rect x="34" y="166" width="160" height="52" rx="4" fill="white" stroke="#e0e0e0" stroke-width="1"/><rect x="42" y="172" width="32.4" height="14" rx="3" fill="#e8f5e9"/><text x="48" y="182" font-size="10" fill="#2e7d32">bug</text><text x="42" y="202" font-size="12">バグ修正 #234</text><rect x="34" y="226" width="160" height="40" rx="4" fill="white" stroke="#e0e0e0" stroke-width="1"/><text x="42" y="250" font-size="12">ドキュメント更新</text><rect x="216" y="64" width="180" height="172" rx="8" fill="#f0f0f0"/><text x="226" y="85" font-weight="bold" font-size="13">In Progress</text><rect x="226" y="106" width="160" height="52" rx="4" fill="white" stroke="#e0e0e0" stroke-width="1"/><rect x="234" y="112" width="66.4" height="14" rx="3" fill="#e3f2fd"/><text x="240" y="122" font-size="10" fill="#1565c0">refactor</text><text x="234" y="142" font-size="12">API リファクタリング</text><rect x="226" y="166" width="160" height="52" rx="4" fill="white" stroke="#e0e0e0" stroke-width="1"/><rect x="234" y="172" width="59.6" height="14" rx="3" fill="#e8f5e9"/><text x="240" y="182" font-size="10" fill="#2e7d32">feature</text><text x="234" y="202" font-size="12">検索機能改善</text><rect x="408" y="64" width="180" height="232" rx="8" fill="#f0f0f0"/><text x="418" y="85" font-weight="bold" font-size="13">Done</text><rect x="418" y="106" width="160" height="52" rx="4" fill="white" stroke="#e0e0e0" stroke-width="1"/><rect x="426" y="112" width="59.6" height="14" rx="3" fill="#e3f2fd"/><text x="432" y="122" font-size="10" fill="#1565c0">feature</text><text x="426" y="142" font-size="12">ログイン画面</text><rect x="418" y="166" width="160" height="52" rx="4" fill="white" stroke="#e0e0e0" stroke-width="1"/><rect x="426" y="172" width="46" height="14" rx="3" fill="#e8f5e9"/><text x="432" y="182" font-size="10" fill="#2e7d32">infra</text><text x="426" y="202" font-size="12">CI/CD 設定</text><rect x="418" y="226" width="160" height="52" rx="4" fill="white" stroke="#e0e0e0" stroke-width="1"/><rect x="426" y="232" width="39.2" height="14" rx="3" fill="#fff8e1"/><text x="432" y="242" font-size="10" fill="#f57f17">perf</text><text x="426" y="262" font-size="12">パフォーマンス改善</text></svg>