<svg xmlns="http://www.w3.org/2000/svg" width="596" height="408" viewBox="0 0 596 408"><rect width="100%" height="100%" fill="white"/><style>text { font-family: sans-serif; font-size: 13px; fill: #333; }</style><text x="20" y="35" font-weight="bold" font-size="15px">プロジェクト予算消化</text><line x1="116" y1="44" x2="116" y2="392" stroke="#999" stroke-width="1" stroke-dasharray="4,3"/><text x="104" y="69" text-anchor="end" font-weight="bold">初期予算</text><rect x="116" y="48" width="400" height="32" rx="4" fill="#e8f5e9"/><text x="522" y="69" fill="#2e7d32">+500</text><line x1="516" y1="80" x2="516" y2="92" stroke="#999" stroke-width="1" stroke-dasharray="3,2"/><text x="104" y="113" text-anchor="end" font-weight="bold">インフラ構築</text><rect x="452" y="92" width="64" height="32" rx="4" fill="#ffebee"/><text x="522" y="113" fill="#c62828">-80</text><line x1="452" y1="124" x2="452" y2="136" stroke="#999" stroke-width="1" stroke-dasharray="3,2"/><text x="104" y="157" text-anchor="end" font-weight="bold">開発費</text><rect x="292" y="136" width="160" height="32" rx="4" fill="#ffebee"/><text x="458" y="157" fill="#c62828">-200</text><line x1="292" y1="168" x2="292" y2="180" stroke="#999" stroke-width="1" stroke-dasharray="3,2"/><text x="104" y="201" text-anchor="end" font-weight="bold">中間残高</text><rect x="116" y="180" width="176" height="32" rx="4" fill="#e8eaf6"/><text x="298" y="201" fill="#333">220</text><line x1="292" y1="212" x2="292" y2="224" stroke="#999" stroke-width="1" stroke-dasharray="3,2"/><text x="104" y="245" text-anchor="end" font-weight="bold">テスト費</text><rect x="244" y="224" width="48" height="32" rx="4" fill="#ffebee"/><text x="298" y="245" fill="#c62828">-60</text><line x1="244" y1="256" x2="244" y2="268" stroke="#999" stroke-width="1" stroke-dasharray="3,2"/><text x="104" y="289" text-anchor="end" font-weight="bold">予備費追加</text><rect x="244" y="268" width="40" height="32" rx="4" fill="#e8f5e9"/><text x="290" y="289" fill="#2e7d32">+50</text><line x1="284" y1="300" x2="284" y2="312" stroke="#999" stroke-width="1" stroke-dasharray="3,2"/><text x="104" y="333" text-anchor="end" font-weight="bold">運用移行</text><rect x="252" y="312" width="32" height="32" rx="4" fill="#ffebee"/><text x="290" y="333" fill="#c62828">-40</text><line x1="252" y1="344" x2="252" y2="356" stroke="#999" stroke-width="1" stroke-dasharray="3,2"/><text x="104" y="377" text-anchor="end" font-weight="bold">最終残高</text><rect x="116" y="356" width="136" height="32" rx="4" fill="#e8eaf6"/><text x="258" y="377" fill="#333">170</text></svg>