<svg xmlns="http://www.w3.org/2000/svg" width="582" height="452" viewBox="0 0 582 452"><rect width="100%" height="100%" fill="white"/><style>text { font-family: sans-serif; font-size: 13px; fill: #333; }</style><text x="20" y="35" font-weight="bold" font-size="15px">損益計算</text><line x1="102" y1="44" x2="102" y2="436" stroke="#999" stroke-width="1" stroke-dasharray="4,3"/><text x="90" y="69" text-anchor="end" font-weight="bold">売上高</text><rect x="102" y="48" width="400" height="32" rx="4" fill="#e8f5e9"/><text x="508" y="69" fill="#2e7d32">+1000</text><line x1="502" y1="80" x2="502" y2="92" stroke="#999" stroke-width="1" stroke-dasharray="3,2"/><text x="90" y="113" text-anchor="end" font-weight="bold">売上原価</text><rect x="342" y="92" width="160" height="32" rx="4" fill="#ffebee"/><text x="508" y="113" fill="#c62828">-400</text><line x1="342" y1="124" x2="342" y2="136" stroke="#999" stroke-width="1" stroke-dasharray="3,2"/><text x="90" y="157" text-anchor="end" font-weight="bold">売上総利益</text><rect x="102" y="136" width="240" height="32" rx="4" fill="#e8eaf6"/><text x="348" y="157" fill="#333">600</text><line x1="342" y1="168" x2="342" y2="180" stroke="#999" stroke-width="1" stroke-dasharray="3,2"/><text x="90" y="201" text-anchor="end" font-weight="bold">販管費</text><rect x="242" y="180" width="100" height="32" rx="4" fill="#ffebee"/><text x="348" y="201" fill="#c62828">-250</text><line x1="242" y1="212" x2="242" y2="224" stroke="#999" stroke-width="1" stroke-dasharray="3,2"/><text x="90" y="245" text-anchor="end" font-weight="bold">研究開発費</text><rect x="210" y="224" width="32" height="32" rx="4" fill="#ffebee"/><text x="248" y="245" fill="#c62828">-80</text><line x1="210" y1="256" x2="210" y2="268" stroke="#999" stroke-width="1" stroke-dasharray="3,2"/><text x="90" y="289" text-anchor="end" font-weight="bold">営業利益</text><rect x="102" y="268" width="108" height="32" rx="4" fill="#e8eaf6"/><text x="216" y="289" fill="#333">270</text><line x1="210" y1="300" x2="210" y2="312" stroke="#999" stroke-width="1" stroke-dasharray="3,2"/><text x="90" y="333" text-anchor="end" font-weight="bold">営業外収益</text><rect x="210" y="312" width="12" height="32" rx="4" fill="#e8f5e9"/><text x="228" y="333" fill="#2e7d32">+30</text><line x1="222" y1="344" x2="222" y2="356" stroke="#999" stroke-width="1" stroke-dasharray="3,2"/><text x="90" y="377" text-anchor="end" font-weight="bold">営業外費用</text><rect x="214" y="356" width="8" height="32" rx="4" fill="#ffebee"/><text x="228" y="377" fill="#c62828">-20</text><line x1="214" y1="388" x2="214" y2="400" stroke="#999" stroke-width="1" stroke-dasharray="3,2"/><text x="90" y="421" text-anchor="end" font-weight="bold">経常利益</text><rect x="102" y="400" width="112" height="32" rx="4" fill="#e8eaf6"/><text x="220" y="421" fill="#333">280</text></svg>