<svg xmlns="http://www.w3.org/2000/svg" width="512" height="228" viewBox="0 0 512 228"><rect width="100%" height="100%" fill="white"/><style>text { font-family: sans-serif; font-size: 13px; fill: #333; }</style><text x="20" y="35" font-weight="bold" font-size="15px">部門別売上構成</text><text x="80" y="69" text-anchor="end" font-weight="bold">2022年</text><rect x="92" y="48" width="159.2920353982301" height="32" rx="4" fill="#e3f2fd"/><text x="171.64601769911505" y="69" text-anchor="middle" fill="#1565c0">450</text><rect x="251.2920353982301" y="48" width="70.79646017699115" height="32" rx="4" fill="#e8f5e9"/><text x="286.69026548672565" y="69" text-anchor="middle" fill="#2e7d32">200</text><rect x="322.08849557522126" y="48" width="53.09734513274337" height="32" rx="4" fill="#f3e5f5"/><text x="348.63716814159295" y="69" text-anchor="middle" fill="#6a1b9a">150</text><text x="381.18584070796464" y="69" fill="#999">800</text><text x="80" y="113" text-anchor="end" font-weight="bold">2023年</text><rect x="92" y="92" width="148.67256637168143" height="32" rx="4" fill="#e3f2fd"/><text x="166.33628318584073" y="113" text-anchor="middle" fill="#1565c0">420</text><rect x="240.67256637168143" y="92" width="99.11504424778761" height="32" rx="4" fill="#e8f5e9"/><text x="290.2300884955752" y="113" text-anchor="middle" fill="#2e7d32">280</text><rect x="339.78761061946904" y="92" width="88.49557522123894" height="32" rx="4" fill="#f3e5f5"/><text x="384.0353982300885" y="113" text-anchor="middle" fill="#6a1b9a">250</text><text x="434.283185840708" y="113" fill="#999">950</text><text x="80" y="157" text-anchor="end" font-weight="bold">2024年</text><rect x="92" y="136" width="141.5929203539823" height="32" rx="4" fill="#e3f2fd"/><text x="162.79646017699116" y="157" text-anchor="middle" fill="#1565c0">400</text><rect x="233.5929203539823" y="136" width="123.8938053097345" height="32" rx="4" fill="#e8f5e9"/><text x="295.53982300884957" y="157" text-anchor="middle" fill="#2e7d32">350</text><rect x="357.4867256637168" y="136" width="134.5132743362832" height="32" rx="4" fill="#f3e5f5"/><text x="424.7433628318584" y="157" text-anchor="middle" fill="#6a1b9a">380</text><text x="498" y="157" fill="#999">1130</text><rect x="92" y="188" width="12" height="12" rx="2" fill="#e3f2fd"/><text x="110" y="199" fill="#1565c0">国内営業</text><rect x="186" y="188" width="12" height="12" rx="2" fill="#e8f5e9"/><text x="204" y="199" fill="#2e7d32">海外営業</text><rect x="280" y="188" width="12" height="12" rx="2" fill="#f3e5f5"/><text x="298" y="199" fill="#6a1b9a">オンライン</text></svg>