<svg xmlns="http://www.w3.org/2000/svg" width="512" height="200" viewBox="0 0 512 200"><rect width="100%" height="100%" fill="white"/><style>text { font-family: sans-serif; font-size: 13px; fill: #333; }</style><text x="80" y="41" text-anchor="end" font-weight="bold">Q1</text><rect x="92" y="20" width="176.47058823529412" height="32" rx="4" fill="#e3f2fd"/><text x="180.23529411764707" y="41" text-anchor="middle" fill="#1565c0">300</text><rect x="268.47058823529414" y="20" width="117.64705882352942" height="32" rx="4" fill="#e8f5e9"/><text x="327.29411764705884" y="41" text-anchor="middle" fill="#2e7d32">200</text><rect x="386.11764705882354" y="20" width="58.82352941176471" height="32" rx="4" fill="#fff3e0"/><text x="415.5294117647059" y="41" text-anchor="middle" fill="#e65100">100</text><text x="450.94117647058823" y="41" fill="#999">600</text><text x="80" y="85" text-anchor="end" font-weight="bold">Q2</text><rect x="92" y="64" width="205.88235294117646" height="32" rx="4" fill="#e3f2fd"/><text x="194.94117647058823" y="85" text-anchor="middle" fill="#1565c0">350</text><rect x="297.88235294117646" y="64" width="105.88235294117648" height="32" rx="4" fill="#e8f5e9"/><text x="350.8235294117647" y="85" text-anchor="middle" fill="#2e7d32">180</text><rect x="403.7647058823529" y="64" width="70.58823529411765" height="32" rx="4" fill="#fff3e0"/><text x="439.05882352941177" y="85" text-anchor="middle" fill="#e65100">120</text><text x="480.3529411764706" y="85" fill="#999">650</text><text x="80" y="129" text-anchor="end" font-weight="bold">Q3</text><rect x="92" y="108" width="164.70588235294116" height="32" rx="4" fill="#e3f2fd"/><text x="174.35294117647058" y="129" text-anchor="middle" fill="#1565c0">280</text><rect x="256.70588235294116" y="108" width="147.05882352941177" height="32" rx="4" fill="#e8f5e9"/><text x="330.2352941176471" y="129" text-anchor="middle" fill="#2e7d32">250</text><rect x="403.7647058823529" y="108" width="88.23529411764706" height="32" rx="4" fill="#fff3e0"/><text x="447.88235294117646" y="129" text-anchor="middle" fill="#e65100">150</text><text x="498" y="129" fill="#999">680</text><rect x="92" y="160" width="12" height="12" rx="2" fill="#e3f2fd"/><text x="110" y="171" fill="#1565c0">製品A</text><rect x="166" y="160" width="12" height="12" rx="2" fill="#e8f5e9"/><text x="184" y="171" fill="#2e7d32">製品B</text><rect x="240" y="160" width="12" height="12" rx="2" fill="#fff3e0"/><text x="258" y="171" fill="#e65100">製品C</text></svg>