<svg xmlns="http://www.w3.org/2000/svg" width="316.9230769230769" height="392" viewBox="0 0 316.9230769230769 392"><rect width="100%" height="100%" fill="white"/><style>text { font-family: sans-serif; fill: #333; }</style><line x1="97.92307692307693" y1="66" x2="97.92307692307693" y2="326" stroke="#e0e0e0" stroke-width="2"/><text x="76.92307692307693" y="70.2" text-anchor="end" font-size="12" font-weight="bold" fill="#888">09:00</text><circle cx="97.92307692307693" cy="66" r="5" fill="#1565c0"/><line x1="102.92307692307693" y1="66" x2="122.92307692307693" y2="66" stroke="#1565c0" stroke-width="1.5"/><rect x="122.92307692307693" y="51.5" width="154" height="29" rx="6" fill="#e3f2fd" stroke="#1565c0" stroke-width="1"/><text x="136.92307692307693" y="70.55" font-size="13" font-weight="bold" fill="#1565c0">朝会</text><text x="76.92307692307693" y="122.2" text-anchor="end" font-size="12" font-weight="bold" fill="#888">09:30</text><circle cx="97.92307692307693" cy="118" r="5" fill="#2e7d32"/><line x1="102.92307692307693" y1="118" x2="122.92307692307693" y2="118" stroke="#2e7d32" stroke-width="1.5"/><rect x="122.92307692307693" y="103.5" width="154" height="29" rx="6" fill="#e8f5e9" stroke="#2e7d32" stroke-width="1"/><text x="136.92307692307693" y="122.55" font-size="13" font-weight="bold" fill="#2e7d32">開発</text><text x="76.92307692307693" y="174.2" text-anchor="end" font-size="12" font-weight="bold" fill="#888">12:00</text><circle cx="97.92307692307693" cy="170" r="5" fill="#f57f17"/><line x1="102.92307692307693" y1="170" x2="122.92307692307693" y2="170" stroke="#f57f17" stroke-width="1.5"/><rect x="122.92307692307693" y="155.5" width="154" height="29" rx="6" fill="#fff8e1" stroke="#f57f17" stroke-width="1"/><text x="136.92307692307693" y="174.55" font-size="13" font-weight="bold" fill="#f57f17">昼休み</text><text x="76.92307692307693" y="226.2" text-anchor="end" font-size="12" font-weight="bold" fill="#888">13:00</text><circle cx="97.92307692307693" cy="222" r="5" fill="#7b1fa2"/><line x1="102.92307692307693" y1="222" x2="122.92307692307693" y2="222" stroke="#7b1fa2" stroke-width="1.5"/><rect x="122.92307692307693" y="207.5" width="154" height="29" rx="6" fill="#f3e5f5" stroke="#7b1fa2" stroke-width="1"/><text x="136.92307692307693" y="226.55" font-size="13" font-weight="bold" fill="#7b1fa2">コードレビュー</text><text x="76.92307692307693" y="278.2" text-anchor="end" font-size="12" font-weight="bold" fill="#888">15:00</text><circle cx="97.92307692307693" cy="274" r="5" fill="#00695c"/><line x1="102.92307692307693" y1="274" x2="122.92307692307693" y2="274" stroke="#00695c" stroke-width="1.5"/><rect x="122.92307692307693" y="259.5" width="154" height="29" rx="6" fill="#e0f2f1" stroke="#00695c" stroke-width="1"/><text x="136.92307692307693" y="278.55" font-size="13" font-weight="bold" fill="#00695c">チームミーティング</text><text x="76.92307692307693" y="330.2" text-anchor="end" font-size="12" font-weight="bold" fill="#888">17:00</text><circle cx="97.92307692307693" cy="326" r="5" fill="#c62828"/><line x1="102.92307692307693" y1="326" x2="122.92307692307693" y2="326" stroke="#c62828" stroke-width="1.5"/><rect x="122.92307692307693" y="311.5" width="154" height="29" rx="6" fill="#fce4ec" stroke="#c62828" stroke-width="1"/><text x="136.92307692307693" y="330.55" font-size="13" font-weight="bold" fill="#c62828">振り返り</text></svg>