    Finished `dev` profile [unoptimized + debuginfo] target(s) in 0.01s
     Running `target/debug/mdd-timetable`
<svg xmlns="http://www.w3.org/2000/svg" width="325.84615384615387" height="288" viewBox="0 0 325.84615384615387 288"><rect width="100%" height="100%" fill="white"/><style>text { font-family: sans-serif; fill: #333; }</style><line x1="134.84615384615387" y1="66" x2="134.84615384615387" y2="222" stroke="#e0e0e0" stroke-width="2"/><text x="113.84615384615385" y="70.2" text-anchor="end" font-size="12" font-weight="bold" fill="#888">2025-01-15</text><circle cx="134.84615384615387" cy="66" r="5" fill="#1565c0"/><line x1="139.84615384615387" y1="66" x2="159.84615384615387" y2="66" stroke="#1565c0" stroke-width="1.5"/><rect x="159.84615384615387" y="51.5" width="126" height="29" rx="6" fill="#e3f2fd" stroke="#1565c0" stroke-width="1"/><text x="173.84615384615387" y="70.55" font-size="13" font-weight="bold" fill="#1565c0">企画開始</text><text x="113.84615384615385" y="122.2" text-anchor="end" font-size="12" font-weight="bold" fill="#888">2025-03-01</text><circle cx="134.84615384615387" cy="118" r="5" fill="#2e7d32"/><line x1="139.84615384615387" y1="118" x2="159.84615384615387" y2="118" stroke="#2e7d32" stroke-width="1.5"/><rect x="159.84615384615387" y="103.5" width="126" height="29" rx="6" fill="#e8f5e9" stroke="#2e7d32" stroke-width="1"/><text x="173.84615384615387" y="122.55" font-size="13" font-weight="bold" fill="#2e7d32">開発着手</text><text x="113.84615384615385" y="174.2" text-anchor="end" font-size="12" font-weight="bold" fill="#888">2025-06-01</text><circle cx="134.84615384615387" cy="170" r="5" fill="#f57f17"/><line x1="139.84615384615387" y1="170" x2="159.84615384615387" y2="170" stroke="#f57f17" stroke-width="1.5"/><rect x="159.84615384615387" y="155.5" width="126" height="29" rx="6" fill="#fff8e1" stroke="#f57f17" stroke-width="1"/><text x="173.84615384615387" y="174.55" font-size="13" font-weight="bold" fill="#f57f17">ベータリリース</text><text x="113.84615384615385" y="226.2" text-anchor="end" font-size="12" font-weight="bold" fill="#888">2025-09-01</text><circle cx="134.84615384615387" cy="222" r="5" fill="#7b1fa2"/><line x1="139.84615384615387" y1="222" x2="159.84615384615387" y2="222" stroke="#7b1fa2" stroke-width="1.5"/><rect x="159.84615384615387" y="207.5" width="126" height="29" rx="6" fill="#f3e5f5" stroke="#7b1fa2" stroke-width="1"/><text x="173.84615384615387" y="226.55" font-size="13" font-weight="bold" fill="#7b1fa2">正式リリース</text></svg>