<svg xmlns="http://www.w3.org/2000/svg" width="1055.6" height="596" viewBox="0 0 1055.6 596"><rect width="100%" height="100%" fill="white"/><style>text { font-family: sans-serif; font-size: 13px; fill: #333; }</style><rect x="24" y="24" width="462.6" height="92" rx="6" fill="#fafafa" stroke="#e0e0e0" stroke-width="1"/><text x="36" y="46.4" font-weight="bold" font-size="13" fill="#555">認証</text><rect x="28" y="68" width="454.6" height="36" rx="4" fill="#ffffff" stroke="#eee" stroke-width="0.5"/><rect x="36" y="79" width="16" height="14" rx="2" fill="none" stroke="#90caf9" stroke-width="1.5"/><line x1="36" y1="83.5" x2="52" y2="83.5" stroke="#90caf9" stroke-width="1"/><text x="68" y="90.375" font-family="monospace" font-size="12.5" font-weight="bold" fill="#1565c0">/login</text><text x="128.8" y="90.55" font-weight="bold" fill="#333">ログイン</text><text x="200.8" y="90" font-size="12" fill="#666">メール・パスワード認証</text><rect x="24" y="132" width="462.6" height="132" rx="6" fill="#fafafa" stroke="#e0e0e0" stroke-width="1"/><text x="36" y="154.4" font-weight="bold" font-size="13" fill="#555">入出力</text><rect x="28" y="176" width="454.6" height="36" rx="4" fill="#ffffff" stroke="#eee" stroke-width="0.5"/><rect x="36" y="187" width="16" height="14" rx="2" fill="none" stroke="#90caf9" stroke-width="1.5"/><line x1="36" y1="191.5" x2="52" y2="191.5" stroke="#90caf9" stroke-width="1"/><text x="68" y="198.375" font-family="monospace" font-size="12.5" font-weight="bold" fill="#1565c0">/import</text><text x="136.6" y="198.55" font-weight="bold" fill="#333">ファイル取込</text><text x="236.6" y="198" font-size="12" fill="#666">商品体系・在庫・営業日カレンダー</text><rect x="28" y="216" width="454.6" height="36" rx="4" fill="#ffffff" stroke="#eee" stroke-width="0.5"/><rect x="36" y="227" width="16" height="14" rx="2" fill="none" stroke="#90caf9" stroke-width="1.5"/><line x1="36" y1="231.5" x2="52" y2="231.5" stroke="#90caf9" stroke-width="1"/><text x="68" y="238.375" font-family="monospace" font-size="12.5" font-weight="bold" fill="#1565c0">/export</text><text x="136.6" y="238.55" font-weight="bold" fill="#333">データ書き出し</text><text x="250.6" y="238" font-size="12" fill="#666">注文データ・栄養指導料</text><rect x="24" y="280" width="462.6" height="172" rx="6" fill="#fafafa" stroke="#e0e0e0" stroke-width="1"/><text x="36" y="302.4" font-weight="bold" font-size="13" fill="#555">QRコード管理</text><rect x="28" y="324" width="454.6" height="36" rx="4" fill="#ffffff" stroke="#eee" stroke-width="0.5"/><rect x="36" y="335" width="16" height="14" rx="2" fill="none" stroke="#90caf9" stroke-width="1.5"/><line x1="36" y1="339.5" x2="52" y2="339.5" stroke="#90caf9" stroke-width="1"/><text x="68" y="346.375" font-family="monospace" font-size="12.5" font-weight="bold" fill="#1565c0">/qr/upload</text><text x="160" y="346.55" font-weight="bold" fill="#333">資料アップロード</text><text x="288" y="346" font-size="12" fill="#666">PDF・QR設定・公開期間</text><rect x="28" y="364" width="454.6" height="36" rx="4" fill="#ffffff" stroke="#eee" stroke-width="0.5"/><rect x="36" y="375" width="16" height="14" rx="2" fill="none" stroke="#90caf9" stroke-width="1.5"/><line x1="36" y1="379.5" x2="52" y2="379.5" stroke="#90caf9" stroke-width="1"/><text x="68" y="386.375" font-family="monospace" font-size="12.5" font-weight="bold" fill="#1565c0">/qr/list</text><text x="144.4" y="386.55" font-weight="bold" fill="#333">アップロード資料一覧</text><text x="300.4" y="386" font-size="12" fill="#666">資料テーブル・公開管理</text><rect x="28" y="404" width="454.6" height="36" rx="4" fill="#ffffff" stroke="#eee" stroke-width="0.5"/><rect x="36" y="415" width="16" height="14" rx="2" fill="none" stroke="#90caf9" stroke-width="1.5"/><line x1="36" y1="419.5" x2="52" y2="419.5" stroke="#90caf9" stroke-width="1"/><text x="68" y="426.375" font-family="monospace" font-size="12.5" font-weight="bold" fill="#1565c0">/qr/stats</text><text x="152.2" y="426.55" font-weight="bold" fill="#333">QRアクセス集計</text><text x="268.2" y="426" font-size="12" fill="#666">営業所別・病院別集計</text><rect x="506.6" y="24" width="525" height="212" rx="6" fill="#fafafa" stroke="#e0e0e0" stroke-width="1"/><text x="518.6" y="46.4" font-weight="bold" font-size="13" fill="#555">メイン</text><rect x="510.6" y="68" width="517" height="36" rx="4" fill="#ffffff" stroke="#eee" stroke-width="0.5"/><rect x="518.6" y="79" width="16" height="14" rx="2" fill="none" stroke="#90caf9" stroke-width="1.5"/><line x1="518.6" y1="83.5" x2="534.6" y2="83.5" stroke="#90caf9" stroke-width="1"/><text x="550.6" y="90.375" font-family="monospace" font-size="12.5" font-weight="bold" fill="#1565c0">/dashboard</text><text x="642.6" y="90.55" font-weight="bold" fill="#333">ダッシュボード</text><text x="756.6" y="90" font-size="12" fill="#666">各機能への遷移カード</text><rect x="510.6" y="108" width="517" height="36" rx="4" fill="#ffffff" stroke="#eee" stroke-width="0.5"/><rect x="518.6" y="119" width="16" height="14" rx="2" fill="none" stroke="#90caf9" stroke-width="1.5"/><line x1="518.6" y1="123.5" x2="534.6" y2="123.5" stroke="#90caf9" stroke-width="1"/><text x="550.6" y="130.375" font-family="monospace" font-size="12.5" font-weight="bold" fill="#1565c0">/purchase-limit</text><text x="681.6" y="130.55" font-weight="bold" fill="#333">購入上限管理</text><text x="781.6" y="130" font-size="12" fill="#666">設定取込・一覧出力・購入状況確認</text><rect x="510.6" y="148" width="517" height="36" rx="4" fill="#ffffff" stroke="#eee" stroke-width="0.5"/><rect x="518.6" y="159" width="16" height="14" rx="2" fill="none" stroke="#90caf9" stroke-width="1.5"/><line x1="518.6" y1="163.5" x2="534.6" y2="163.5" stroke="#90caf9" stroke-width="1"/><text x="550.6" y="170.375" font-family="monospace" font-size="12.5" font-weight="bold" fill="#1565c0">/nutrition-fee</text><text x="673.8000000000001" y="170.55" font-weight="bold" fill="#333">栄養指導料率</text><text x="773.8000000000001" y="170" font-size="12" fill="#666">料率設定・検索・計算結果</text><rect x="510.6" y="188" width="517" height="36" rx="4" fill="#ffffff" stroke="#eee" stroke-width="0.5"/><rect x="518.6" y="199" width="16" height="14" rx="2" fill="none" stroke="#90caf9" stroke-width="1.5"/><line x1="518.6" y1="203.5" x2="534.6" y2="203.5" stroke="#90caf9" stroke-width="1"/><text x="550.6" y="210.375" font-family="monospace" font-size="12.5" font-weight="bold" fill="#1565c0">/product-price</text><text x="673.8000000000001" y="210.55" font-weight="bold" fill="#333">企業商品価格</text><text x="773.8000000000001" y="210" font-size="12" fill="#666">企業別商品価格の取込・検索</text><rect x="506.6" y="252" width="525" height="132" rx="6" fill="#fafafa" stroke="#e0e0e0" stroke-width="1"/><text x="518.6" y="274.4" font-weight="bold" font-size="13" fill="#555">設定</text><rect x="510.6" y="296" width="517" height="36" rx="4" fill="#ffffff" stroke="#eee" stroke-width="0.5"/><rect x="518.6" y="307" width="16" height="14" rx="2" fill="none" stroke="#90caf9" stroke-width="1.5"/><line x1="518.6" y1="311.5" x2="534.6" y2="311.5" stroke="#90caf9" stroke-width="1"/><text x="550.6" y="318.375" font-family="monospace" font-size="12.5" font-weight="bold" fill="#1565c0">/access-log</text><text x="650.4" y="318.55" font-weight="bold" fill="#333">アクセスログ</text><text x="750.4" y="318" font-size="12" fill="#666">日時範囲検索・CSV出力</text><rect x="510.6" y="336" width="517" height="36" rx="4" fill="#ffffff" stroke="#eee" stroke-width="0.5"/><rect x="518.6" y="347" width="16" height="14" rx="2" fill="none" stroke="#90caf9" stroke-width="1.5"/><line x1="518.6" y1="351.5" x2="534.6" y2="351.5" stroke="#90caf9" stroke-width="1"/><text x="550.6" y="358.375" font-family="monospace" font-size="12.5" font-weight="bold" fill="#1565c0">/process-log</text><text x="658.2" y="358.55" font-weight="bold" fill="#333">処理状況ログ</text><text x="758.2" y="358" font-size="12" fill="#666">ログ区分検索・CSV出力</text><rect x="506.6" y="400" width="525" height="172" rx="6" fill="#fafafa" stroke="#e0e0e0" stroke-width="1"/><text x="518.6" y="422.4" font-weight="bold" font-size="13" fill="#555">Public</text><rect x="510.6" y="444" width="517" height="36" rx="4" fill="#ffffff" stroke="#eee" stroke-width="0.5"/><rect x="518.6" y="455" width="16" height="14" rx="2" fill="none" stroke="#90caf9" stroke-width="1.5"/><line x1="518.6" y1="459.5" x2="534.6" y2="459.5" stroke="#90caf9" stroke-width="1"/><text x="550.6" y="466.375" font-family="monospace" font-size="12.5" font-weight="bold" fill="#1565c0">/qr/scan</text><text x="627" y="466.55" font-weight="bold" fill="#333">QRスキャン</text><text x="715" y="466" font-size="12" fill="#666">遷移先URLへリダイレクト</text><rect x="510.6" y="484" width="517" height="36" rx="4" fill="#ffffff" stroke="#eee" stroke-width="0.5"/><rect x="518.6" y="495" width="16" height="14" rx="2" fill="none" stroke="#90caf9" stroke-width="1.5"/><line x1="518.6" y1="499.5" x2="534.6" y2="499.5" stroke="#90caf9" stroke-width="1"/><text x="550.6" y="506.375" font-family="monospace" font-size="12.5" font-weight="bold" fill="#1565c0">/qr/download</text><text x="658.2" y="506.55" font-weight="bold" fill="#333">QRダウンロード</text><text x="774.2" y="506" font-size="12" fill="#666">QR付きPDFダウンロード</text><rect x="510.6" y="524" width="517" height="36" rx="4" fill="#ffffff" stroke="#eee" stroke-width="0.5"/><rect x="518.6" y="535" width="16" height="14" rx="2" fill="none" stroke="#90caf9" stroke-width="1.5"/><line x1="518.6" y1="539.5" x2="534.6" y2="539.5" stroke="#90caf9" stroke-width="1"/><text x="550.6" y="546.375" font-family="monospace" font-size="12.5" font-weight="bold" fill="#1565c0">/404</text><text x="595.8000000000001" y="546.55" font-weight="bold" fill="#333">NotFound</text></svg>