<svg xmlns="http://www.w3.org/2000/svg" width="657.4000000000001" height="592" viewBox="0 0 657.4000000000001 592"><rect width="100%" height="100%" fill="white"/><style>text { font-family: sans-serif; font-size: 13px; fill: #333; }</style><text x="328.70000000000005" y="58" text-anchor="middle" font-size="16" font-weight="bold">組織図</text><rect x="278.70000000000005" y="80" width="100" height="58" rx="6" fill="#e3f2fd" stroke="#1565c0" stroke-width="1.5"/><text x="328.70000000000005" y="100" text-anchor="middle" font-weight="bold" fill="#1565c0">CEO</text><text x="328.70000000000005" y="118" text-anchor="middle" font-size="11" fill="#666">代表取締役</text><line x1="328.70000000000005" y1="138" x2="328.70000000000005" y2="168" stroke="#ccc" stroke-width="1.5"/><line x1="266.70000000000005" y1="168" x2="328.70000000000005" y2="168" stroke="#ccc" stroke-width="1.5"/><line x1="266.70000000000005" y1="168" x2="266.70000000000005" y2="198" stroke="#ccc" stroke-width="1.5"/><rect x="216.70000000000005" y="198" width="100" height="58" rx="6" fill="#e8f5e9" stroke="#2e7d32" stroke-width="1.5"/><text x="266.70000000000005" y="218" text-anchor="middle" font-weight="bold" fill="#2e7d32">CTO</text><text x="266.70000000000005" y="236" text-anchor="middle" font-size="11" fill="#666">技術統括</text><line x1="266.70000000000005" y1="256" x2="266.70000000000005" y2="286" stroke="#ccc" stroke-width="1.5"/><line x1="197.05000000000004" y1="286" x2="266.70000000000005" y2="286" stroke="#ccc" stroke-width="1.5"/><line x1="197.05000000000004" y1="286" x2="197.05000000000004" y2="316" stroke="#ccc" stroke-width="1.5"/><rect x="121.55000000000004" y="316" width="151" height="58" rx="6" fill="#fff8e1" stroke="#f57f17" stroke-width="1.5"/><text x="197.05000000000004" y="336" text-anchor="middle" font-weight="bold" fill="#f57f17">VP_Eng</text><text x="197.05000000000004" y="354" text-anchor="middle" font-size="11" fill="#666">エンジニアリング部長</text><line x1="197.05000000000004" y1="374" x2="197.05000000000004" y2="404" stroke="#ccc" stroke-width="1.5"/><line x1="115.50000000000003" y1="404" x2="197.05000000000004" y2="404" stroke="#ccc" stroke-width="1.5"/><line x1="115.50000000000003" y1="404" x2="115.50000000000003" y2="434" stroke="#ccc" stroke-width="1.5"/><rect x="40.00000000000003" y="434" width="151" height="58" rx="6" fill="#f3e5f5" stroke="#7b1fa2" stroke-width="1.5"/><text x="115.50000000000003" y="454" text-anchor="middle" font-weight="bold" fill="#7b1fa2">Lead_FE</text><text x="115.50000000000003" y="472" text-anchor="middle" font-size="11" fill="#666">フロントエンドリード</text><line x1="197.05000000000004" y1="404" x2="284.55" y2="404" stroke="#ccc" stroke-width="1.5"/><line x1="284.55" y1="404" x2="284.55" y2="434" stroke="#ccc" stroke-width="1.5"/><rect x="215" y="434" width="139.1" height="58" rx="6" fill="#f3e5f5" stroke="#7b1fa2" stroke-width="1.5"/><text x="284.55" y="454" text-anchor="middle" font-weight="bold" fill="#7b1fa2">Lead_BE</text><text x="284.55" y="472" text-anchor="middle" font-size="11" fill="#666">バックエンドリード</text><line x1="266.70000000000005" y1="286" x2="435.75" y2="286" stroke="#ccc" stroke-width="1.5"/><line x1="435.75" y1="286" x2="435.75" y2="316" stroke="#ccc" stroke-width="1.5"/><rect x="378.1" y="316" width="115.3" height="58" rx="6" fill="#fff8e1" stroke="#f57f17" stroke-width="1.5"/><text x="435.75" y="336" text-anchor="middle" font-weight="bold" fill="#f57f17">VP_Product</text><text x="435.75" y="354" text-anchor="middle" font-size="11" fill="#666">プロダクト部長</text><line x1="328.70000000000005" y1="168" x2="567.4000000000001" y2="168" stroke="#ccc" stroke-width="1.5"/><line x1="567.4000000000001" y1="168" x2="567.4000000000001" y2="198" stroke="#ccc" stroke-width="1.5"/><rect x="517.4000000000001" y="198" width="100" height="58" rx="6" fill="#e8f5e9" stroke="#2e7d32" stroke-width="1.5"/><text x="567.4000000000001" y="218" text-anchor="middle" font-weight="bold" fill="#2e7d32">CFO</text><text x="567.4000000000001" y="236" text-anchor="middle" font-size="11" fill="#666">財務統括</text></svg>