<svg xmlns="http://www.w3.org/2000/svg" width="657.4000000000001" height="552" viewBox="0 0 657.4000000000001 552"><rect width="100%" height="100%" fill="white"/><style>text { font-family: sans-serif; font-size: 13px; fill: #333; }</style><rect x="278.70000000000005" y="40" width="100" height="58" rx="6" fill="#e3f2fd" stroke="#1565c0" stroke-width="1.5"/><text x="328.70000000000005" y="60" text-anchor="middle" font-weight="bold" fill="#1565c0">CEO</text><text x="328.70000000000005" y="78" text-anchor="middle" font-size="11" fill="#666">代表取締役</text><line x1="328.70000000000005" y1="98" x2="328.70000000000005" y2="128" stroke="#ccc" stroke-width="1.5"/><line x1="266.70000000000005" y1="128" x2="328.70000000000005" y2="128" stroke="#ccc" stroke-width="1.5"/><line x1="266.70000000000005" y1="128" x2="266.70000000000005" y2="158" stroke="#ccc" stroke-width="1.5"/><rect x="216.70000000000005" y="158" width="100" height="58" rx="6" fill="#e8f5e9" stroke="#2e7d32" stroke-width="1.5"/><text x="266.70000000000005" y="178" text-anchor="middle" font-weight="bold" fill="#2e7d32">CTO</text><text x="266.70000000000005" y="196" text-anchor="middle" font-size="11" fill="#666">技術統括</text><line x1="266.70000000000005" y1="216" x2="266.70000000000005" y2="246" stroke="#ccc" stroke-width="1.5"/><line x1="197.05000000000004" y1="246" x2="266.70000000000005" y2="246" stroke="#ccc" stroke-width="1.5"/><line x1="197.05000000000004" y1="246" x2="197.05000000000004" y2="276" stroke="#ccc" stroke-width="1.5"/><rect x="121.55000000000004" y="276" width="151" height="58" rx="6" fill="#fff8e1" stroke="#f57f17" stroke-width="1.5"/><text x="197.05000000000004" y="296" text-anchor="middle" font-weight="bold" fill="#f57f17">VP_Eng</text><text x="197.05000000000004" y="314" text-anchor="middle" font-size="11" fill="#666">エンジニアリング部長</text><line x1="197.05000000000004" y1="334" x2="197.05000000000004" y2="364" stroke="#ccc" stroke-width="1.5"/><line x1="115.50000000000003" y1="364" x2="197.05000000000004" y2="364" stroke="#ccc" stroke-width="1.5"/><line x1="115.50000000000003" y1="364" x2="115.50000000000003" y2="394" stroke="#ccc" stroke-width="1.5"/><rect x="40.00000000000003" y="394" width="151" height="58" rx="6" fill="#f3e5f5" stroke="#7b1fa2" stroke-width="1.5"/><text x="115.50000000000003" y="414" text-anchor="middle" font-weight="bold" fill="#7b1fa2">Lead_FE</text><text x="115.50000000000003" y="432" text-anchor="middle" font-size="11" fill="#666">フロントエンドリード</text><line x1="197.05000000000004" y1="364" x2="284.55" y2="364" stroke="#ccc" stroke-width="1.5"/><line x1="284.55" y1="364" x2="284.55" y2="394" stroke="#ccc" stroke-width="1.5"/><rect x="215" y="394" width="139.1" height="58" rx="6" fill="#f3e5f5" stroke="#7b1fa2" stroke-width="1.5"/><text x="284.55" y="414" text-anchor="middle" font-weight="bold" fill="#7b1fa2">Lead_BE</text><text x="284.55" y="432" text-anchor="middle" font-size="11" fill="#666">バックエンドリード</text><line x1="266.70000000000005" y1="246" x2="435.75" y2="246" stroke="#ccc" stroke-width="1.5"/><line x1="435.75" y1="246" x2="435.75" y2="276" stroke="#ccc" stroke-width="1.5"/><rect x="378.1" y="276" width="115.3" height="58" rx="6" fill="#fff8e1" stroke="#f57f17" stroke-width="1.5"/><text x="435.75" y="296" text-anchor="middle" font-weight="bold" fill="#f57f17">VP_Product</text><text x="435.75" y="314" text-anchor="middle" font-size="11" fill="#666">プロダクト部長</text><line x1="328.70000000000005" y1="128" x2="567.4000000000001" y2="128" stroke="#ccc" stroke-width="1.5"/><line x1="567.4000000000001" y1="128" x2="567.4000000000001" y2="158" stroke="#ccc" stroke-width="1.5"/><rect x="517.4000000000001" y="158" width="100" height="58" rx="6" fill="#e8f5e9" stroke="#2e7d32" stroke-width="1.5"/><text x="567.4000000000001" y="178" text-anchor="middle" font-weight="bold" fill="#2e7d32">CFO</text><text x="567.4000000000001" y="196" text-anchor="middle" font-size="11" fill="#666">財務統括</text></svg>