<svg xmlns="http://www.w3.org/2000/svg" width="544" height="630" viewBox="0 0 544 630"><rect width="100%" height="100%" fill="white"/><style>text { font-family: monospace, sans-serif; font-size: 12px; fill: #333; }</style><rect x="18" y="12" width="44" height="20" rx="4" fill="#1565c0" opacity="0.15"/><text x="40" y="26" text-anchor="middle" font-size="11" font-weight="bold" fill="#1565c0">main</text><rect x="46" y="12" width="108" height="20" rx="4" fill="#2e7d32" opacity="0.15"/><text x="100" y="26" text-anchor="middle" font-size="11" font-weight="bold" fill="#2e7d32">feature/auth</text><rect x="110" y="12" width="100" height="20" rx="4" fill="#f57f17" opacity="0.15"/><text x="160" y="26" text-anchor="middle" font-size="11" font-weight="bold" fill="#f57f17">feature/api</text><line x1="40" y1="40" x2="40" y2="540" stroke="#1565c0" stroke-width="3" opacity="0.4"/><line x1="100" y1="140" x2="100" y2="190" stroke="#2e7d32" stroke-width="3" opacity="0.4"/><line x1="160" y1="290" x2="160" y2="340" stroke="#f57f17" stroke-width="3" opacity="0.4"/><path d="M100,190 C100,290 40,290 40,390" fill="none" stroke="#2e7d32" stroke-width="2" stroke-dasharray="6,3"/><path d="M160,340 C160,415 40,415 40,490" fill="none" stroke="#f57f17" stroke-width="2" stroke-dasharray="6,3"/><circle cx="40" cy="40" r="8" fill="#1565c0" stroke="white" stroke-width="3"/><text x="240" y="44" font-size="12">Initial commit</text><rect x="54" y="30" width="48" height="20" rx="4" fill="#1565c0" opacity="0.15"/><text x="58" y="44" font-size="10" font-weight="bold" fill="#1565c0">🏷 v0.1</text><circle cx="40" cy="90" r="8" fill="#1565c0" stroke="white" stroke-width="3"/><text x="240" y="94" font-size="12">Add README</text><circle cx="100" cy="140" r="8" fill="#2e7d32" stroke="white" stroke-width="3"/><text x="240" y="144" font-size="12">Add login page</text><circle cx="100" cy="190" r="8" fill="#2e7d32" stroke="white" stroke-width="3"/><text x="240" y="194" font-size="12">Add JWT auth</text><circle cx="40" cy="240" r="8" fill="#1565c0" stroke="white" stroke-width="3"/><text x="240" y="244" font-size="12">Fix typo in docs</text><circle cx="160" cy="290" r="8" fill="#f57f17" stroke="white" stroke-width="3"/><text x="240" y="294" font-size="12">Add REST endpoints</text><circle cx="160" cy="340" r="8" fill="#f57f17" stroke="white" stroke-width="3"/><text x="240" y="344" font-size="12">Add validation</text><circle cx="40" cy="390" r="8" fill="#1565c0" stroke="white" stroke-width="3"/><text x="240" y="394" font-size="12">Merge feature/auth into main</text><circle cx="40" cy="440" r="8" fill="#1565c0" stroke="white" stroke-width="3"/><text x="240" y="444" font-size="12">Update config</text><rect x="54" y="430" width="48" height="20" rx="4" fill="#1565c0" opacity="0.15"/><text x="58" y="444" font-size="10" font-weight="bold" fill="#1565c0">🏷 v0.2</text><circle cx="40" cy="490" r="8" fill="#1565c0" stroke="white" stroke-width="3"/><text x="240" y="494" font-size="12">Merge feature/api into main</text><circle cx="40" cy="540" r="8" fill="#1565c0" stroke="white" stroke-width="3"/><text x="240" y="544" font-size="12">Release prep</text><rect x="54" y="530" width="48" height="20" rx="4" fill="#1565c0" opacity="0.15"/><text x="58" y="544" font-size="10" font-weight="bold" fill="#1565c0">🏷 v1.0</text></svg>