<svg xmlns="http://www.w3.org/2000/svg" width="444" height="380" viewBox="0 0 444 380"><rect width="100%" height="100%" fill="white"/><style>text { font-family: monospace, sans-serif; font-size: 12px; fill: #333; }</style><rect x="18" y="12" width="44" height="20" rx="4" fill="#1565c0" opacity="0.15"/><text x="40" y="26" text-anchor="middle" font-size="11" font-weight="bold" fill="#1565c0">main</text><rect x="66" y="12" width="68" height="20" rx="4" fill="#2e7d32" opacity="0.15"/><text x="100" y="26" text-anchor="middle" font-size="11" font-weight="bold" fill="#2e7d32">develop</text><line x1="40" y1="40" x2="40" y2="290" stroke="#1565c0" stroke-width="3" opacity="0.4"/><line x1="100" y1="140" x2="100" y2="190" stroke="#2e7d32" stroke-width="3" opacity="0.4"/><path d="M100,190 C100,215 40,215 40,240" fill="none" stroke="#2e7d32" stroke-width="2" stroke-dasharray="6,3"/><circle cx="40" cy="40" r="8" fill="#1565c0" stroke="white" stroke-width="3"/><text x="180" y="44" font-size="12">Initial commit</text><circle cx="40" cy="90" r="8" fill="#1565c0" stroke="white" stroke-width="3"/><text x="180" y="94" font-size="12">Add feature A</text><circle cx="100" cy="140" r="8" fill="#2e7d32" stroke="white" stroke-width="3"/><text x="180" y="144" font-size="12">Start feature B</text><circle cx="100" cy="190" r="8" fill="#2e7d32" stroke="white" stroke-width="3"/><text x="180" y="194" font-size="12">Complete feature B</text><circle cx="40" cy="240" r="8" fill="#1565c0" stroke="white" stroke-width="3"/><text x="180" y="244" font-size="12">Merge develop into main</text><circle cx="40" cy="290" r="8" fill="#1565c0" stroke="white" stroke-width="3"/><text x="180" y="294" font-size="12">Release</text><rect x="54" y="280" width="48" height="20" rx="4" fill="#1565c0" opacity="0.15"/><text x="58" y="294" font-size="10" font-weight="bold" fill="#1565c0">v1.0</text></svg>