<svg xmlns="http://www.w3.org/2000/svg" width="1355.3958650817035" height="448.87688152895527" viewBox="0 0 1355.3958650817035 448.87688152895527"><style>text { font-family: sans-serif; font-size: 13px; fill: #333; }</style><defs><marker id="arrow" viewBox="0 0 10 10" refX="10" refY="5" markerWidth="8" markerHeight="8" orient="auto"><polygon points="0,1 10,5 0,9" fill="#666"/></marker></defs><rect x="40" y="62.087688152895524" width="120" height="42" rx="4" fill="#fff5ee" stroke="#996633" stroke-width="1.5"/><text x="100" y="87.58768815289552" text-anchor="middle" font-weight="bold">Customer</text><rect x="1155.3958650817035" y="260.87688152895527" width="160" height="42" rx="4" fill="#fff5ee" stroke="#996633" stroke-width="1.5"/><text x="1235.3958650817035" y="286.37688152895527" text-anchor="middle" font-weight="bold">Payment Gateway</text><circle cx="447.12797402963895" cy="206.3009225561329" r="58" fill="#f0f8ff" stroke="#336699" stroke-width="2"/><text x="447.12797402963895" y="210.8009225561329" text-anchor="middle" font-weight="bold">Handle Order</text><circle cx="821.3242071249828" cy="334.87688152895527" r="74" fill="#f0f8ff" stroke="#336699" stroke-width="2"/><text x="821.3242071249828" y="339.37688152895527" text-anchor="middle" font-weight="bold">Validate Payment</text><rect x="1155.3958650817035" y="40" width="140" height="104" fill="#f0fff0" stroke="none"/><line x1="1155.3958650817035" y1="40" x2="1295.3958650817035" y2="40" stroke="#339966" stroke-width="1.5"/><line x1="1155.3958650817035" y1="144" x2="1295.3958650817035" y2="144" stroke="#339966" stroke-width="1.5"/><text x="1225.3958650817035" y="58" text-anchor="middle" font-weight="bold">Orders</text><line x1="1155.3958650817035" y1="64" x2="1295.3958650817035" y2="64" stroke="#339966" stroke-width="0.5" stroke-dasharray="3,3"/><text x="1190.3958650817035" y="77.5" font-size="11" fill="#555">注文ID</text><text x="1190.3958650817035" y="95.5" font-size="11" fill="#555">顧客ID</text><text x="1190.3958650817035" y="113.5" font-size="11" fill="#555">合計金額</text><text x="1190.3958650817035" y="131.5" font-size="11" fill="#555">ステータス</text><rect x="40" y="245.2017480010939" width="140" height="104" fill="#f0fff0" stroke="none"/><line x1="40" y1="245.2017480010939" x2="180" y2="245.2017480010939" stroke="#339966" stroke-width="1.5"/><line x1="40" y1="349.2017480010939" x2="180" y2="349.2017480010939" stroke="#339966" stroke-width="1.5"/><text x="110" y="263.2017480010939" text-anchor="middle" font-weight="bold">Products</text><line x1="40" y1="269.2017480010939" x2="180" y2="269.2017480010939" stroke="#339966" stroke-width="0.5" stroke-dasharray="3,3"/><text x="88" y="282.7017480010939" font-size="11" fill="#555">商品ID</text><text x="88" y="300.7017480010939" font-size="11" fill="#555">商品名</text><text x="88" y="318.7017480010939" font-size="11" fill="#555">価格</text><text x="88" y="336.7017480010939" font-size="11" fill="#555">在庫数</text><line x1="159.16318559389174" y1="104.08768815289552" x2="392.4690901042314" y2="186.899726509785" stroke="#666" stroke-width="1.5" marker-end="url(#arrow)"/><rect x="244.81613784906153" y="127.49370733134026" width="62" height="16" rx="3" fill="white" opacity="0.85"/><text x="275.81613784906153" y="139.49370733134026" text-anchor="middle" font-size="11" fill="#666">注文情報</text><line x1="504.5123974257109" y1="197.87311432976992" x2="1155.3958650817035" y2="102.28060475180781" stroke="#666" stroke-width="1.5" marker-end="url(#arrow)"/><rect x="791.9541312537071" y="132.07685954078886" width="76" height="16" rx="3" fill="white" opacity="0.85"/><text x="829.9541312537071" y="144.07685954078886" text-anchor="middle" font-size="11" fill="#666">注文データ</text><line x1="501.98022962932953" y1="225.14847029121546" x2="751.3402948081362" y2="310.8300102807465" stroke="#666" stroke-width="1.5" marker-end="url(#arrow)"/><rect x="588.6602622187329" y="249.98924028598094" width="76" height="16" rx="3" fill="white" opacity="0.85"/><text x="626.6602622187329" y="261.98924028598094" text-anchor="middle" font-size="11" fill="#666">支払い依頼</text><line x1="894.7253741096978" y1="325.48173995035313" x2="1155.3958650817035" y2="292.11665505251085" stroke="#666" stroke-width="1.5" marker-end="url(#arrow)"/><rect x="973.0606195957007" y="290.799197501432" width="104" height="16" rx="3" fill="white" opacity="0.85"/><text x="1025.0606195957007" y="302.799197501432" text-anchor="middle" font-size="11" fill="#666">決済リクエスト</text><line x1="1155.3958650817035" y1="292.11665505251085" x2="894.7253741096978" y2="325.48173995035313" stroke="#666" stroke-width="1.5" marker-end="url(#arrow)"/><rect x="994.0606195957007" y="290.799197501432" width="62" height="16" rx="3" fill="white" opacity="0.85"/><text x="1025.0606195957007" y="302.799197501432" text-anchor="middle" font-size="11" fill="#666">決済結果</text><line x1="884.74861785955" y1="296.7541308022185" x2="1155.3958650817035" y2="134.07516506601374" stroke="#666" stroke-width="1.5" marker-end="url(#arrow)"/><rect x="968.0722414706268" y="197.41464793411615" width="104" height="16" rx="3" fill="white" opacity="0.85"/><text x="1020.0722414706268" y="209.41464793411615" text-anchor="middle" font-size="11" fill="#666">ステータス更新</text><line x1="180" y1="278.32743832844756" x2="391.1279184456952" y2="221.40038528151518" stroke="#666" stroke-width="1.5" marker-end="url(#arrow)"/><rect x="254.5639592228476" y="231.86391180498137" width="62" height="16" rx="3" fill="white" opacity="0.85"/><text x="285.5639592228476" y="243.86391180498137" text-anchor="middle" font-size="11" fill="#666">商品情報</text></svg>