<svg xmlns="http://www.w3.org/2000/svg" width="1824.8139130434784" height="1043.8309565217392" viewBox="0 0 1824.8139130434784 1043.8309565217392"><style>text { font-family: sans-serif; font-size: 13px; fill: #333; }</style><defs><marker id="arrow" viewBox="0 0 10 10" refX="10" refY="5" markerWidth="8" markerHeight="8" orient="auto"><polygon points="0,1 10,5 0,9" fill="#666"/></marker></defs><rect x="861.4956521739131" y="331.39478260869566" width="120" height="42" rx="4" fill="#fff5ee" stroke="#996633" stroke-width="1.5"/><text x="921.4956521739131" y="356.89478260869566" text-anchor="middle" font-weight="bold">Customer</text><rect x="1117.1478260869567" y="474.09252173913046" width="120" height="42" rx="4" fill="#fff5ee" stroke="#996633" stroke-width="1.5"/><text x="1177.1478260869567" y="499.59252173913046" text-anchor="middle" font-weight="bold">Admin</text><rect x="317.4678260869565" y="40" width="152" height="42" rx="4" fill="#fff5ee" stroke="#996633" stroke-width="1.5"/><text x="393.4678260869565" y="65.5" text-anchor="middle" font-weight="bold">External A P I</text><rect x="861.4956521739131" y="653.6431304347826" width="136" height="60" rx="4" fill="#fff5ee" stroke="#996633" stroke-width="1.5"/><text x="929.4956521739131" y="679.1431304347826" text-anchor="middle" font-weight="bold">Notification</text><text x="929.4956521739131" y="697.1431304347826" text-anchor="middle" font-weight="bold">Service</text><circle cx="1179.1478260869567" cy="393.39478260869566" r="62" fill="#f0f8ff" stroke="#336699" stroke-width="2"/><text x="1179.1478260869567" y="397.89478260869566" text-anchor="middle" font-weight="bold">Receive Order</text><circle cx="1441.526956521739" cy="231.55686956521737" r="66" fill="#f0f8ff" stroke="#336699" stroke-width="2"/><text x="1441.526956521739" y="236.05686956521737" text-anchor="middle" font-weight="bold">Validate Stock</text><circle cx="110" cy="397.9666086956522" r="70" fill="#f0f8ff" stroke="#336699" stroke-width="2"/><text x="110" y="402.4666086956522" text-anchor="middle" font-weight="bold">Process Payment</text><circle cx="367.4678260869565" cy="779.2772173913044" r="50" fill="#f0f8ff" stroke="#336699" stroke-width="2"/><text x="367.4678260869565" y="783.7772173913044" text-anchor="middle" font-weight="bold">Ship Order</text><circle cx="391.4678260869565" cy="488.3137391304348" r="74" fill="#f0f8ff" stroke="#336699" stroke-width="2"/><text x="391.4678260869565" y="492.8137391304348" text-anchor="middle" font-weight="bold">Generate Invoice</text><circle cx="652.935652173913" cy="711.6431304347826" r="58" fill="#f0f8ff" stroke="#336699" stroke-width="2"/><text x="652.935652173913" y="707.1431304347826" text-anchor="middle" font-weight="bold">Send</text><text x="652.935652173913" y="725.1431304347826" text-anchor="middle" font-weight="bold">Notification</text><rect x="1375.526956521739" y="331.39478260869566" width="140" height="122" fill="#f0fff0" stroke="none"/><line x1="1375.526956521739" y1="331.39478260869566" x2="1515.526956521739" y2="331.39478260869566" stroke="#339966" stroke-width="1.5"/><line x1="1375.526956521739" y1="453.39478260869566" x2="1515.526956521739" y2="453.39478260869566" stroke="#339966" stroke-width="1.5"/><text x="1445.526956521739" y="349.39478260869566" text-anchor="middle" font-weight="bold">Orders</text><line x1="1375.526956521739" y1="355.39478260869566" x2="1515.526956521739" y2="355.39478260869566" stroke="#339966" stroke-width="0.5" stroke-dasharray="3,3"/><text x="1410.526956521739" y="368.89478260869566" font-size="11" fill="#555">注文ID</text><text x="1410.526956521739" y="386.89478260869566" font-size="11" fill="#555">顧客ID</text><text x="1410.526956521739" y="404.89478260869566" font-size="11" fill="#555">注文日</text><text x="1410.526956521739" y="422.89478260869566" font-size="11" fill="#555">合計金額</text><text x="1410.526956521739" y="440.89478260869566" font-size="11" fill="#555">ステータス</text><rect x="1644.8139130434784" y="260.90295652173916" width="140" height="122" fill="#f0fff0" stroke="none"/><line x1="1644.8139130434784" y1="260.90295652173916" x2="1784.8139130434784" y2="260.90295652173916" stroke="#339966" stroke-width="1.5"/><line x1="1644.8139130434784" y1="382.90295652173916" x2="1784.8139130434784" y2="382.90295652173916" stroke="#339966" stroke-width="1.5"/><text x="1714.8139130434784" y="278.90295652173916" text-anchor="middle" font-weight="bold">Products</text><line x1="1644.8139130434784" y1="284.90295652173916" x2="1784.8139130434784" y2="284.90295652173916" stroke="#339966" stroke-width="0.5" stroke-dasharray="3,3"/><text x="1686.8139130434784" y="298.40295652173916" font-size="11" fill="#555">商品ID</text><text x="1686.8139130434784" y="316.40295652173916" font-size="11" fill="#555">商品名</text><text x="1686.8139130434784" y="334.40295652173916" font-size="11" fill="#555">価格</text><text x="1686.8139130434784" y="352.40295652173916" font-size="11" fill="#555">在庫数</text><text x="1686.8139130434784" y="370.40295652173916" font-size="11" fill="#555">カテゴリ</text><rect x="317.4678260869565" y="881.8309565217392" width="140" height="122" fill="#f0fff0" stroke="none"/><line x1="317.4678260869565" y1="881.8309565217392" x2="457.4678260869565" y2="881.8309565217392" stroke="#339966" stroke-width="1.5"/><line x1="317.4678260869565" y1="1003.8309565217392" x2="457.4678260869565" y2="1003.8309565217392" stroke="#339966" stroke-width="1.5"/><text x="387.4678260869565" y="899.8309565217392" text-anchor="middle" font-weight="bold">Payments</text><line x1="317.4678260869565" y1="905.8309565217392" x2="457.4678260869565" y2="905.8309565217392" stroke="#339966" stroke-width="0.5" stroke-dasharray="3,3"/><text x="359.4678260869565" y="919.3309565217392" font-size="11" fill="#555">決済ID</text><text x="359.4678260869565" y="937.3309565217392" font-size="11" fill="#555">注文ID</text><text x="359.4678260869565" y="955.3309565217392" font-size="11" fill="#555">決済方法</text><text x="359.4678260869565" y="973.3309565217392" font-size="11" fill="#555">金額</text><text x="359.4678260869565" y="991.3309565217392" font-size="11" fill="#555">決済日</text><rect x="594.935652173913" y="804.9113043478261" width="140" height="122" fill="#f0fff0" stroke="none"/><line x1="594.935652173913" y1="804.9113043478261" x2="734.935652173913" y2="804.9113043478261" stroke="#339966" stroke-width="1.5"/><line x1="594.935652173913" y1="926.9113043478261" x2="734.935652173913" y2="926.9113043478261" stroke="#339966" stroke-width="1.5"/><text x="664.935652173913" y="822.9113043478261" text-anchor="middle" font-weight="bold">Shipments</text><line x1="594.935652173913" y1="828.9113043478261" x2="734.935652173913" y2="828.9113043478261" stroke="#339966" stroke-width="0.5" stroke-dasharray="3,3"/><text x="629.935652173913" y="842.4113043478261" font-size="11" fill="#555">出荷ID</text><text x="629.935652173913" y="860.4113043478261" font-size="11" fill="#555">注文ID</text><text x="629.935652173913" y="878.4113043478261" font-size="11" fill="#555">追跡番号</text><text x="629.935652173913" y="896.4113043478261" font-size="11" fill="#555">出荷日</text><text x="629.935652173913" y="914.4113043478261" font-size="11" fill="#555">配達予定日</text><rect x="594.935652173913" y="496.8041739130434" width="140" height="122" fill="#f0fff0" stroke="none"/><line x1="594.935652173913" y1="496.8041739130434" x2="734.935652173913" y2="496.8041739130434" stroke="#339966" stroke-width="1.5"/><line x1="594.935652173913" y1="618.8041739130434" x2="734.935652173913" y2="618.8041739130434" stroke="#339966" stroke-width="1.5"/><text x="664.935652173913" y="514.8041739130434" text-anchor="middle" font-weight="bold">Invoices</text><line x1="594.935652173913" y1="520.8041739130434" x2="734.935652173913" y2="520.8041739130434" stroke="#339966" stroke-width="0.5" stroke-dasharray="3,3"/><text x="635.935652173913" y="534.3041739130434" font-size="11" fill="#555">請求書ID</text><text x="635.935652173913" y="552.3041739130434" font-size="11" fill="#555">注文ID</text><text x="635.935652173913" y="570.3041739130434" font-size="11" fill="#555">発行日</text><text x="635.935652173913" y="588.3041739130434" font-size="11" fill="#555">金額</text><text x="635.935652173913" y="606.3041739130434" font-size="11" fill="#555">PDF</text><path d="M981.4956521739131,361.94253826175 L1117.9182115026467,383.6513592956676" fill="none" stroke="#666" stroke-width="1.5" marker-end="url(#arrow)"/><rect x="997.7069318382798" y="354.7969487787088" width="104" height="16" rx="3" fill="white" opacity="0.85"/><text x="1049.7069318382798" y="366.7969487787088" text-anchor="middle" font-size="11" fill="#666">注文リクエスト</text><path d="M1241.147389212443,393.16203328248423 L1375.526956521739,392.65756595769807" fill="none" stroke="#666" stroke-width="1.5" marker-end="url(#arrow)"/><rect x="1277.3371728670909" y="374.9097996200911" width="62" height="16" rx="3" fill="white" opacity="0.85"/><text x="1308.3371728670909" y="386.9097996200911" text-anchor="middle" font-size="11" fill="#666">注文登録</text><path d="M1231.9170547758843,360.8462265182073 L1385.353261465784,266.20533250025335" fill="none" stroke="#666" stroke-width="1.5" marker-end="url(#arrow)"/><rect x="1263.6351581208341" y="295.52577950923035" width="90" height="16" rx="3" fill="white" opacity="0.85"/><text x="1308.6351581208341" y="307.52577950923035" text-anchor="middle" font-size="11" fill="#666">在庫確認依頼</text><path d="M1504.7097784805528,250.63384546080496 L1644.8139130434784,296.72072458940534" fill="none" stroke="#666" stroke-width="1.5" marker-end="url(#arrow)"/><rect x="1543.7618457620156" y="255.67728502510516" width="62" height="16" rx="3" fill="white" opacity="0.85"/><text x="1574.7618457620156" y="267.67728502510516" text-anchor="middle" font-size="11" fill="#666">在庫照会</text><path d="M1644.8139130434784,296.72072458940534 L1504.7097784805528,250.63384546080496" fill="none" stroke="#666" stroke-width="1.5" marker-end="url(#arrow)"/><rect x="1543.7618457620156" y="255.67728502510516" width="62" height="16" rx="3" fill="white" opacity="0.85"/><text x="1574.7618457620156" y="267.67728502510516" text-anchor="middle" font-size="11" fill="#666">在庫情報</text><path d="M1376.0364282285034,239.7416544660507 L179.45965122009835,389.2857762250714" fill="none" stroke="#666" stroke-width="1.5" marker-end="url(#arrow)"/><rect x="738.7480397243008" y="296.5137153455611" width="78" height="16" rx="3" fill="white" opacity="0.85"/><text x="777.7480397243008" y="308.5137153455611" text-anchor="middle" font-size="11" fill="#666">在庫確認OK</text><path d="M154.14343061473457,343.6402105676508 L375.18223355453347,82" fill="none" stroke="#666" stroke-width="1.5" marker-end="url(#arrow)"/><rect x="212.66283208463403" y="194.8201052838254" width="104" height="16" rx="3" fill="white" opacity="0.85"/><text x="264.66283208463403" y="206.8201052838254" text-anchor="middle" font-size="11" fill="#666">決済リクエスト</text><path d="M375.18223355453347,82 L154.14343061473457,343.6402105676508" fill="none" stroke="#666" stroke-width="1.5" marker-end="url(#arrow)"/><rect x="233.66283208463403" y="194.8201052838254" width="62" height="16" rx="3" fill="white" opacity="0.85"/><text x="264.66283208463403" y="206.8201052838254" text-anchor="middle" font-size="11" fill="#666">決済結果</text><path d="M155.60596752596754,451.07118219003587 L296.53689680646204,615.1741997906702 Q437.4678260869565,779.2772173913044 421.791978552733,830.5540869565218 L406.1161310185094,881.8309565217392" fill="none" stroke="#666" stroke-width="1.5" marker-end="url(#arrow)"/><rect x="295.0881123415826" y="632.4943287871766" width="62" height="16" rx="3" fill="white" opacity="0.85"/><text x="326.0881123415826" y="644.4943287871766" text-anchor="middle" font-size="11" fill="#666">決済記録</text><path d="M149.17179187039838,455.98014781939634 L339.4879747509577,737.8389751600586" fill="none" stroke="#666" stroke-width="1.5" marker-end="url(#arrow)"/><rect x="213.32988331067804" y="578.9095614897275" width="62" height="16" rx="3" fill="white" opacity="0.85"/><text x="244.32988331067804" y="590.9095614897275" text-anchor="middle" font-size="11" fill="#666">出荷指示</text><path d="M415.4733472110082,793.2582739181992 L594.935652173913,845.5246085268677" fill="none" stroke="#666" stroke-width="1.5" marker-end="url(#arrow)"/><rect x="474.2044996924606" y="801.3914412225334" width="62" height="16" rx="3" fill="white" opacity="0.85"/><text x="505.2044996924606" y="813.3914412225334" text-anchor="middle" font-size="11" fill="#666">出荷登録</text><path d="M416.1209502846025,767.750140319972 L596.4980281046437,725.0145398375281" fill="none" stroke="#666" stroke-width="1.5" marker-end="url(#arrow)"/><rect x="461.3094891946231" y="728.3823400787501" width="90" height="16" rx="3" fill="white" opacity="0.85"/><text x="506.3094891946231" y="740.3823400787501" text-anchor="middle" font-size="11" fill="#666">出荷完了通知</text><path d="M710.6406588623597,705.8008532172656 L861.4956521739131,690.5277124423036" fill="none" stroke="#666" stroke-width="1.5" marker-end="url(#arrow)"/><rect x="748.0681555181363" y="680.1642828297846" width="76" height="16" rx="3" fill="white" opacity="0.85"/><text x="786.0681555181363" y="692.1642828297846" text-anchor="middle" font-size="11" fill="#666">メール送信</text><path d="M684.9864904434294,663.3032528364549 L719.9610713086712,610.5537133747491 Q754.935652173913,557.8041739130434 829.7015331801581,465.59947826086955 L904.4674141864031,373.39478260869566" fill="none" stroke="#666" stroke-width="1.5" marker-end="url(#arrow)"/><rect x="759.2647268505835" y="497.0183333877894" width="62" height="16" rx="3" fill="white" opacity="0.85"/><text x="790.2647268505835" y="509.0183333877894" text-anchor="middle" font-size="11" fill="#666">出荷通知</text><path d="M176.65059443370967,419.36049243921667 L321.00862625703485,465.697347744381" fill="none" stroke="#666" stroke-width="1.5" marker-end="url(#arrow)"/><rect x="196.82961034537226" y="424.5289200917988" width="104" height="16" rx="3" fill="white" opacity="0.85"/><text x="248.82961034537226" y="436.5289200917988" text-anchor="middle" font-size="11" fill="#666">請求書作成依頼</text><path d="M463.1885066476741,506.5385568224586 L594.935652173913,540.0165953726857" fill="none" stroke="#666" stroke-width="1.5" marker-end="url(#arrow)"/><rect x="491.06207941079356" y="505.27757609757214" width="76" height="16" rx="3" fill="white" opacity="0.85"/><text x="529.0620794107936" y="517.2775760975721" text-anchor="middle" font-size="11" fill="#666">請求書保存</text><path d="M463.1484840744939,469.9321377183245 L861.4956521739131,367.7810264810436" fill="none" stroke="#666" stroke-width="1.5" marker-end="url(#arrow)"/><rect x="624.3220681242035" y="400.85658209968403" width="76" height="16" rx="3" fill="white" opacity="0.85"/><text x="662.3220681242035" y="412.85658209968403" text-anchor="middle" font-size="11" fill="#666">請求書送付</text><path d="M1232.0269479337608,474.09252173913046 L1375.526956521739,419.1809255084222" fill="none" stroke="#666" stroke-width="1.5" marker-end="url(#arrow)"/><rect x="1272.77695222775" y="428.63672362377633" width="62" height="16" rx="3" fill="white" opacity="0.85"/><text x="1303.77695222775" y="440.63672362377633" text-anchor="middle" font-size="11" fill="#666">注文管理</text><path d="M1207.8284526739208,474.09252173913046 L1326.67770459783,392.74365217391306 Q1445.526956521739,311.39478260869566 1545.1704347826087,315.2830919883639 L1644.8139130434784,319.1714013680321" fill="none" stroke="#666" stroke-width="1.5" marker-end="url(#arrow)"/><rect x="1378.6824920548952" y="327.29722816944724" width="62" height="16" rx="3" fill="white" opacity="0.85"/><text x="1409.6824920548952" y="339.29722816944724" text-anchor="middle" font-size="11" fill="#666">商品管理</text></svg>