<svg xmlns="http://www.w3.org/2000/svg" width="1165.917050155846" height="872.2320539308834" viewBox="0 0 1165.917050155846 872.2320539308834"><style>text { font-family: sans-serif; font-size: 13px; fill: #333; }</style><defs><marker id="arrow" viewBox="0 0 10 10" refX="10" refY="5" markerWidth="8" markerHeight="8" orient="auto"><polygon points="0,1 10,5 0,9" fill="#666"/></marker></defs><line x1="160" y1="216.45442979353282" x2="316.72052235875645" y2="226.9173951277604" stroke="#666" stroke-width="1.5" marker-end="url(#arrow)"/><text x="238.36026117937823" y="215.6859124606466" text-anchor="middle" font-size="11" fill="#666">注文リクエスト</text><line x1="377.91862787783646" y1="259.48077579709366" x2="615.5816012740761" y2="566.0417673015187" stroke="#666" stroke-width="1.5" marker-end="url(#arrow)"/><text x="496.7501145759563" y="406.7612715493062" text-anchor="middle" font-size="11" fill="#666">注文登録</text><line x1="388.53425496348456" y1="212.2755852524447" x2="619.6834647523956" y2="95.17312843827565" stroke="#666" stroke-width="1.5" marker-end="url(#arrow)"/><text x="504.10885985794005" y="147.72435684536018" text-anchor="middle" font-size="11" fill="#666">在庫引当依頼</text><line x1="690.7421516703077" y1="85.94314133382527" x2="985.917050155846" y2="149.0373611951627" stroke="#666" stroke-width="1.5" marker-end="url(#arrow)"/><text x="838.3296009130769" y="111.49025126449399" text-anchor="middle" font-size="11" fill="#666">在庫更新</text><line x1="985.917050155846" y1="149.0373611951627" x2="690.7421516703077" y2="85.94314133382527" stroke="#666" stroke-width="1.5" marker-end="url(#arrow)"/><text x="838.3296009130769" y="111.49025126449399" text-anchor="middle" font-size="11" fill="#666">在庫情報</text><line x1="687.9219116434542" y1="790.2320539308834" x2="985.917050155846" y2="283.12180131609455" stroke="#666" stroke-width="1.5" marker-end="url(#arrow)"/><text x="836.9194808996501" y="530.676927623489" text-anchor="middle" font-size="11" fill="#666">商品管理</text><rect x="40" y="191.44871369072035" width="120" height="42" rx="4" fill="#fff5ee" stroke="#996633" stroke-width="1.5"/><text x="100" y="216.94871369072035" text-anchor="middle" font-weight="bold">顧客</text><rect x="615.5816012740761" y="790.2320539308834" width="120" height="42" rx="4" fill="#fff5ee" stroke="#996633" stroke-width="1.5"/><text x="675.5816012740761" y="815.7320539308834" text-anchor="middle" font-weight="bold">管理者</text><circle cx="354.63611844180406" cy="229.44871369072035" r="38" fill="#f0f8ff" stroke="#336699" stroke-width="2"/><text x="354.63611844180406" y="233.94871369072035" text-anchor="middle" font-weight="bold">受注処理</text><circle cx="653.5816012740761" cy="78" r="38" fill="#f0f8ff" stroke="#336699" stroke-width="2"/><text x="653.5816012740761" y="82.5" text-anchor="middle" font-weight="bold">在庫管理</text><rect x="615.5816012740761" y="487.3346265494426" width="140" height="338" fill="#f0fff0" stroke="none"/><line x1="615.5816012740761" y1="487.3346265494426" x2="755.5816012740761" y2="487.3346265494426" stroke="#339966" stroke-width="1.5"/><line x1="615.5816012740761" y1="825.3346265494426" x2="755.5816012740761" y2="825.3346265494426" stroke="#339966" stroke-width="1.5"/><text x="685.5816012740761" y="505.3346265494426" text-anchor="middle" font-weight="bold">注文マスタ</text><line x1="615.5816012740761" y1="511.3346265494426" x2="755.5816012740761" y2="511.3346265494426" stroke="#339966" stroke-width="0.5" stroke-dasharray="3,3"/><text x="631.5816012740761" y="524.8346265494426" font-size="11" fill="#555">注文ID</text><text x="631.5816012740761" y="542.8346265494426" font-size="11" fill="#555">顧客ID</text><text x="631.5816012740761" y="560.8346265494426" font-size="11" fill="#555">注文日時</text><text x="631.5816012740761" y="578.8346265494426" font-size="11" fill="#555">配送先郵便番号</text><text x="631.5816012740761" y="596.8346265494426" font-size="11" fill="#555">配送先住所</text><text x="631.5816012740761" y="614.8346265494426" font-size="11" fill="#555">配送先氏名</text><text x="631.5816012740761" y="632.8346265494426" font-size="11" fill="#555">配送先電話番号</text><text x="631.5816012740761" y="650.8346265494426" font-size="11" fill="#555">希望配送日</text><text x="631.5816012740761" y="668.8346265494426" font-size="11" fill="#555">希望時間帯</text><text x="631.5816012740761" y="686.8346265494426" font-size="11" fill="#555">注文ステータス</text><text x="631.5816012740761" y="704.8346265494426" font-size="11" fill="#555">合計金額</text><text x="631.5816012740761" y="722.8346265494426" font-size="11" fill="#555">消費税</text><text x="631.5816012740761" y="740.8346265494426" font-size="11" fill="#555">割引額</text><text x="631.5816012740761" y="758.8346265494426" font-size="11" fill="#555">ポイント利用額</text><text x="631.5816012740761" y="776.8346265494426" font-size="11" fill="#555">決済方法</text><text x="631.5816012740761" y="794.8346265494426" font-size="11" fill="#555">決済ステータス</text><text x="631.5816012740761" y="812.8346265494426" font-size="11" fill="#555">備考</text><rect x="985.917050155846" y="40" width="140" height="248" fill="#f0fff0" stroke="none"/><line x1="985.917050155846" y1="40" x2="1125.917050155846" y2="40" stroke="#339966" stroke-width="1.5"/><line x1="985.917050155846" y1="288" x2="1125.917050155846" y2="288" stroke="#339966" stroke-width="1.5"/><text x="1055.917050155846" y="58" text-anchor="middle" font-weight="bold">商品マスタ</text><line x1="985.917050155846" y1="64" x2="1125.917050155846" y2="64" stroke="#339966" stroke-width="0.5" stroke-dasharray="3,3"/><text x="1001.917050155846" y="77.5" font-size="11" fill="#555">商品ID</text><text x="1001.917050155846" y="95.5" font-size="11" fill="#555">商品名</text><text x="1001.917050155846" y="113.5" font-size="11" fill="#555">商品カテゴリ</text><text x="1001.917050155846" y="131.5" font-size="11" fill="#555">価格</text><text x="1001.917050155846" y="149.5" font-size="11" fill="#555">原価</text><text x="1001.917050155846" y="167.5" font-size="11" fill="#555">在庫数</text><text x="1001.917050155846" y="185.5" font-size="11" fill="#555">安全在庫数</text><text x="1001.917050155846" y="203.5" font-size="11" fill="#555">入荷予定日</text><text x="1001.917050155846" y="221.5" font-size="11" fill="#555">販売開始日</text><text x="1001.917050155846" y="239.5" font-size="11" fill="#555">販売終了日</text><text x="1001.917050155846" y="257.5" font-size="11" fill="#555">重量</text><text x="1001.917050155846" y="275.5" font-size="11" fill="#555">サイズ</text></svg>