<svg xmlns="http://www.w3.org/2000/svg" width="1757.1108590880328" height="518.8517219858691" viewBox="0 0 1757.1108590880328 518.8517219858691"><style>text { font-family: sans-serif; font-size: 13px; fill: #333; }</style><defs><marker id="arrow" viewBox="0 0 10 10" refX="10" refY="5" markerWidth="8" markerHeight="8" orient="auto"><polygon points="0,1 10,5 0,9" fill="#666"/></marker></defs><line x1="160" y1="147.04043601861935" x2="316.72052235875645" y2="157.5034013528469" stroke="#666" stroke-width="1.5" marker-end="url(#arrow)"/><text x="238.36026117937823" y="146.2719186857331" text-anchor="middle" font-size="11" fill="#666">注文リクエスト</text><line x1="391.29759584633086" y1="170.0315231307037" x2="849.8299273739908" y2="295.063513395882" stroke="#666" stroke-width="1.5" marker-end="url(#arrow)"/><text x="620.5637616101608" y="226.54751826329286" text-anchor="middle" font-size="11" fill="#666">注文登録</text><line x1="392.194191044572" y1="154.25620952252984" x2="850.2718547712228" y2="83.77851039327703" stroke="#666" stroke-width="1.5" marker-end="url(#arrow)"/><text x="621.2330229078974" y="113.01735995790344" text-anchor="middle" font-size="11" fill="#666">在庫引当依頼</text><line x1="925.7934982461152" y1="79.66351634713595" x2="1519.1108590880328" y2="105.66194342146605" stroke="#666" stroke-width="1.5" marker-end="url(#arrow)"/><text x="1222.452178667074" y="86.662729884301" text-anchor="middle" font-size="11" fill="#666">在庫更新</text><line x1="1519.1108590880328" y1="105.66194342146605" x2="925.7934982461152" y2="79.66351634713595" stroke="#666" stroke-width="1.5" marker-end="url(#arrow)"/><text x="1222.452178667074" y="86.662729884301" text-anchor="middle" font-size="11" fill="#666">在庫情報</text><line x1="952.589237234757" y1="436.8517219858691" x2="1519.1108590880328" y2="158.62099053445166" stroke="#666" stroke-width="1.5" marker-end="url(#arrow)"/><text x="1235.8500481613949" y="291.7363562601604" text-anchor="middle" font-size="11" fill="#666">商品管理</text><rect x="40" y="122.03471991580686" width="120" height="42" rx="4" fill="#fff5ee" stroke="#996633" stroke-width="1.5"/><text x="100" y="147.53471991580687" text-anchor="middle" font-weight="bold">顧客</text><rect x="849.8299273739908" y="436.8517219858691" width="120" height="42" rx="4" fill="#fff5ee" stroke="#996633" stroke-width="1.5"/><text x="909.8299273739908" y="462.3517219858691" text-anchor="middle" font-weight="bold">管理者</text><circle cx="354.63611844180406" cy="160.03471991580687" r="38" fill="#f0f8ff" stroke="#336699" stroke-width="2"/><text x="354.63611844180406" y="164.53471991580687" text-anchor="middle" font-weight="bold">受注処理</text><circle cx="887.8299273739908" cy="78" r="38" fill="#f0f8ff" stroke="#336699" stroke-width="2"/><text x="887.8299273739908" y="82.5" text-anchor="middle" font-weight="bold">在庫管理</text><rect x="849.8299273739908" y="272.78228215425537" width="350" height="140" fill="#f0fff0" stroke="none"/><line x1="849.8299273739908" y1="272.78228215425537" x2="1199.8299273739908" y2="272.78228215425537" stroke="#339966" stroke-width="1.5"/><line x1="849.8299273739908" y1="412.78228215425537" x2="1199.8299273739908" y2="412.78228215425537" stroke="#339966" stroke-width="1.5"/><text x="1024.8299273739908" y="290.78228215425537" text-anchor="middle" font-weight="bold">注文マスタ</text><line x1="849.8299273739908" y1="296.78228215425537" x2="1199.8299273739908" y2="296.78228215425537" stroke="#339966" stroke-width="0.5" stroke-dasharray="3,3"/><text x="865.8299273739908" y="310.28228215425537" font-size="11" fill="#555">注文ID</text><text x="865.8299273739908" y="328.28228215425537" font-size="11" fill="#555">顧客ID</text><text x="865.8299273739908" y="346.28228215425537" font-size="11" fill="#555">注文日時</text><text x="865.8299273739908" y="364.28228215425537" font-size="11" fill="#555">配送先郵便番号</text><text x="865.8299273739908" y="382.28228215425537" font-size="11" fill="#555">配送先住所</text><text x="865.8299273739908" y="400.28228215425537" font-size="11" fill="#555">配送先氏名</text><text x="975.8299273739908" y="310.28228215425537" font-size="11" fill="#555">配送先電話番号</text><text x="975.8299273739908" y="328.28228215425537" font-size="11" fill="#555">希望配送日</text><text x="975.8299273739908" y="346.28228215425537" font-size="11" fill="#555">希望時間帯</text><text x="975.8299273739908" y="364.28228215425537" font-size="11" fill="#555">注文ステータス</text><text x="975.8299273739908" y="382.28228215425537" font-size="11" fill="#555">合計金額</text><text x="975.8299273739908" y="400.28228215425537" font-size="11" fill="#555">消費税</text><text x="1085.8299273739908" y="310.28228215425537" font-size="11" fill="#555">割引額</text><text x="1085.8299273739908" y="328.28228215425537" font-size="11" fill="#555">ポイント利用額</text><text x="1085.8299273739908" y="346.28228215425537" font-size="11" fill="#555">決済方法</text><text x="1085.8299273739908" y="364.28228215425537" font-size="11" fill="#555">決済ステータス</text><text x="1085.8299273739908" y="382.28228215425537" font-size="11" fill="#555">備考</text><rect x="1519.1108590880328" y="40" width="198" height="140" fill="#f0fff0" stroke="none"/><line x1="1519.1108590880328" y1="40" x2="1717.1108590880328" y2="40" stroke="#339966" stroke-width="1.5"/><line x1="1519.1108590880328" y1="180" x2="1717.1108590880328" y2="180" stroke="#339966" stroke-width="1.5"/><text x="1618.1108590880328" y="58" text-anchor="middle" font-weight="bold">商品マスタ</text><line x1="1519.1108590880328" y1="64" x2="1717.1108590880328" y2="64" stroke="#339966" stroke-width="0.5" stroke-dasharray="3,3"/><text x="1535.1108590880328" y="77.5" font-size="11" fill="#555">商品ID</text><text x="1535.1108590880328" y="95.5" font-size="11" fill="#555">商品名</text><text x="1535.1108590880328" y="113.5" font-size="11" fill="#555">商品カテゴリ</text><text x="1535.1108590880328" y="131.5" font-size="11" fill="#555">価格</text><text x="1535.1108590880328" y="149.5" font-size="11" fill="#555">原価</text><text x="1535.1108590880328" y="167.5" font-size="11" fill="#555">在庫数</text><text x="1631.1108590880328" y="77.5" font-size="11" fill="#555">安全在庫数</text><text x="1631.1108590880328" y="95.5" font-size="11" fill="#555">入荷予定日</text><text x="1631.1108590880328" y="113.5" font-size="11" fill="#555">販売開始日</text><text x="1631.1108590880328" y="131.5" font-size="11" fill="#555">販売終了日</text><text x="1631.1108590880328" y="149.5" font-size="11" fill="#555">重量</text><text x="1631.1108590880328" y="167.5" font-size="11" fill="#555">サイズ</text></svg>