<svg xmlns="http://www.w3.org/2000/svg" width="970.5806451612902" height="196" viewBox="0 0 970.5806451612902 196"><style>text { font-family: sans-serif; font-size: 13px; fill: #333; }</style><defs><marker id="arrow" viewBox="0 0 10 10" refX="10" refY="5" markerWidth="8" markerHeight="8" orient="auto"><polygon points="0,1 10,5 0,9" fill="#666"/></marker></defs><rect x="40" y="40" width="120" height="42" rx="4" fill="#fff5ee" stroke="#996633" stroke-width="1.5"/><text x="100" y="65.5" text-anchor="middle" font-weight="bold">Customer</text><circle cx="459.7419354838709" cy="98" r="58" fill="#f0f8ff" stroke="#336699" stroke-width="2"/><text x="459.7419354838709" y="102.5" text-anchor="middle" font-weight="bold">Handle Order</text><rect x="790.5806451612902" y="40" width="140" height="86" fill="#f0fff0" stroke="none"/><line x1="790.5806451612902" y1="40" x2="930.5806451612902" y2="40" stroke="#339966" stroke-width="1.5"/><line x1="790.5806451612902" y1="126" x2="930.5806451612902" y2="126" stroke="#339966" stroke-width="1.5"/><text x="860.5806451612902" y="58" text-anchor="middle" font-weight="bold">Orders</text><line x1="790.5806451612902" y1="64" x2="930.5806451612902" y2="64" stroke="#339966" stroke-width="0.5" stroke-dasharray="3,3"/><text x="832.5806451612902" y="77.5" font-size="11" fill="#555">注文ID</text><text x="832.5806451612902" y="95.5" font-size="11" fill="#555">顧客ID</text><text x="832.5806451612902" y="113.5" font-size="11" fill="#555">合計金額</text><line x1="160" y1="67.17109038737446" x2="402.04629738655245" y2="92.0659167057367" stroke="#666" stroke-width="1.5" marker-end="url(#arrow)"/><rect x="250.0231486932762" y="61.61850354655559" width="62" height="16" rx="3" fill="white" opacity="0.85"/><text x="281.0231486932762" y="73.61850354655559" text-anchor="middle" font-size="11" fill="#666">注文情報</text><line x1="517.7013673185388" y1="95.83106906461286" x2="790.5806451612902" y2="85.61950748430709" stroke="#666" stroke-width="1.5" marker-end="url(#arrow)"/><rect x="616.1410062399145" y="72.72528827445998" width="76" height="16" rx="3" fill="white" opacity="0.85"/><text x="654.1410062399145" y="84.72528827445998" text-anchor="middle" font-size="11" fill="#666">注文データ</text></svg>