<svg xmlns="http://www.w3.org/2000/svg" width="572" height="316" viewBox="0 0 572 316"><rect width="100%" height="100%" fill="white"/><style>text { font-family: sans-serif; font-size: 13px; fill: #333; }</style><rect x="24" y="24" width="178" height="138" rx="8" fill="white" stroke="#ccc" stroke-width="1"/><clipPath id="clip-header-0"><rect x="24" y="24" width="178" height="32" rx="8"/></clipPath><rect x="24" y="24" width="178" height="32" fill="#e3f2fd" clip-path="url(#clip-header-0)"/><line x1="24" y1="56" x2="202" y2="56" stroke="#ccc" stroke-width="1"/><text x="38" y="44.55" font-weight="bold" fill="#333">営業部</text><text x="50" y="72.55">法人営業</text><text x="50" y="96.55">個人営業</text><text x="50" y="120.55">営業企画</text><text x="50" y="144.55">カスタマーサクセス</text><rect x="218" y="24" width="164" height="138" rx="8" fill="white" stroke="#ccc" stroke-width="1"/><clipPath id="clip-header-1"><rect x="218" y="24" width="164" height="32" rx="8"/></clipPath><rect x="218" y="24" width="164" height="32" fill="#e8f5e9" clip-path="url(#clip-header-1)"/><line x1="218" y1="56" x2="382" y2="56" stroke="#ccc" stroke-width="1"/><text x="232" y="44.55" font-weight="bold" fill="#333">開発部</text><text x="244" y="72.55">フロントエンド</text><text x="244" y="96.55">バックエンド</text><text x="244" y="120.55">SRE</text><text x="244" y="144.55">QA</text><rect x="398" y="24" width="150" height="138" rx="8" fill="white" stroke="#ccc" stroke-width="1"/><clipPath id="clip-header-2"><rect x="398" y="24" width="150" height="32" rx="8"/></clipPath><rect x="398" y="24" width="150" height="32" fill="#f3e5f5" clip-path="url(#clip-header-2)"/><line x1="398" y1="56" x2="548" y2="56" stroke="#ccc" stroke-width="1"/><text x="412" y="44.55" font-weight="bold" fill="#333">人事部</text><text x="424" y="72.55">採用</text><text x="424" y="96.55">研修</text><text x="424" y="120.55">労務</text><rect x="24" y="178" width="178" height="114" rx="8" fill="white" stroke="#ccc" stroke-width="1"/><clipPath id="clip-header-3"><rect x="24" y="178" width="178" height="32" rx="8"/></clipPath><rect x="24" y="178" width="178" height="32" fill="#fff8e1" clip-path="url(#clip-header-3)"/><line x1="24" y1="210" x2="202" y2="210" stroke="#ccc" stroke-width="1"/><text x="38" y="198.55" font-weight="bold" fill="#333">経理部</text><text x="50" y="226.55">財務会計</text><text x="50" y="250.55">管理会計</text><text x="50" y="274.55">経費精算</text><rect x="218" y="178" width="164" height="114" rx="8" fill="white" stroke="#ccc" stroke-width="1"/><clipPath id="clip-header-4"><rect x="218" y="178" width="164" height="32" rx="8"/></clipPath><rect x="218" y="178" width="164" height="32" fill="#e0f2f1" clip-path="url(#clip-header-4)"/><line x1="218" y1="210" x2="382" y2="210" stroke="#ccc" stroke-width="1"/><text x="232" y="198.55" font-weight="bold" fill="#333">法務部</text><text x="244" y="226.55">契約管理</text><text x="244" y="250.55">コンプライアンス</text><rect x="398" y="178" width="150" height="114" rx="8" fill="white" stroke="#ccc" stroke-width="1"/><clipPath id="clip-header-5"><rect x="398" y="178" width="150" height="32" rx="8"/></clipPath><rect x="398" y="178" width="150" height="32" fill="#fff3e0" clip-path="url(#clip-header-5)"/><line x1="398" y1="210" x2="548" y2="210" stroke="#ccc" stroke-width="1"/><text x="412" y="198.55" font-weight="bold" fill="#333">広報部</text><text x="424" y="226.55">プレスリリース</text><text x="424" y="250.55">SNS運用</text><text x="424" y="274.55">イベント企画</text></svg>