<svg xmlns="http://www.w3.org/2000/svg" width="468" height="162" viewBox="0 0 468 162"><rect width="100%" height="100%" fill="white"/><style>text { font-family: sans-serif; font-size: 13px; fill: #333; }</style><rect x="24" y="24" width="132" height="114" rx="8" fill="white" stroke="#ccc" stroke-width="1"/><clipPath id="clip-header-0"><rect x="24" y="24" width="132" height="32" rx="8"/></clipPath><rect x="24" y="24" width="132" height="32" fill="#e3f2fd" clip-path="url(#clip-header-0)"/><line x1="24" y1="56" x2="156" y2="56" stroke="#ccc" stroke-width="1"/><text x="38" y="44.55" font-weight="bold" fill="#333">Frontend</text><text x="50" y="72.55">React</text><text x="50" y="96.55">TypeScript</text><text x="50" y="120.55">CSS</text><rect x="172" y="24" width="132" height="114" rx="8" fill="white" stroke="#ccc" stroke-width="1"/><clipPath id="clip-header-1"><rect x="172" y="24" width="132" height="32" rx="8"/></clipPath><rect x="172" y="24" width="132" height="32" fill="#e8f5e9" clip-path="url(#clip-header-1)"/><line x1="172" y1="56" x2="304" y2="56" stroke="#ccc" stroke-width="1"/><text x="186" y="44.55" font-weight="bold" fill="#333">Backend</text><text x="198" y="72.55">Rust</text><text x="198" y="96.55">PostgreSQL</text><text x="198" y="120.55">Redis</text><rect x="320" y="24" width="124" height="114" rx="8" fill="white" stroke="#ccc" stroke-width="1"/><clipPath id="clip-header-2"><rect x="320" y="24" width="124" height="32" rx="8"/></clipPath><rect x="320" y="24" width="124" height="32" fill="#fff8e1" clip-path="url(#clip-header-2)"/><line x1="320" y1="56" x2="444" y2="56" stroke="#ccc" stroke-width="1"/><text x="334" y="44.55" font-weight="bold" fill="#333">Infra</text><text x="346" y="72.55">AWS</text><text x="346" y="96.55">Docker</text><text x="346" y="120.55">Terraform</text></svg>