<svg xmlns="http://www.w3.org/2000/svg" width="672" height="340" viewBox="0 0 672 340"><rect width="100%" height="100%" fill="white"/><style>text { font-family: sans-serif; font-size: 13px; fill: #333; }</style><rect x="24" y="24" width="164" height="138" rx="8" fill="white" stroke="#ccc" stroke-width="1"/><clipPath id="clip-header-0"><rect x="24" y="24" width="164" height="32" rx="8"/></clipPath><rect x="24" y="24" width="164" height="32" fill="#e3f2fd" clip-path="url(#clip-header-0)"/><line x1="24" y1="56" x2="188" y2="56" stroke="#ccc" stroke-width="1"/><text x="38" y="44.55" font-weight="bold" fill="#333">Languages</text><text x="50" y="72.55">Rust</text><text x="50" y="96.55">TypeScript</text><text x="50" y="120.55">Python</text><text x="50" y="144.55">Go</text><rect x="204" y="24" width="132" height="138" rx="8" fill="white" stroke="#ccc" stroke-width="1"/><clipPath id="clip-header-1"><rect x="204" y="24" width="132" height="32" rx="8"/></clipPath><rect x="204" y="24" width="132" height="32" fill="#e8f5e9" clip-path="url(#clip-header-1)"/><line x1="204" y1="56" x2="336" y2="56" stroke="#ccc" stroke-width="1"/><text x="218" y="44.55" font-weight="bold" fill="#333">Frameworks</text><text x="230" y="72.55">React</text><text x="230" y="96.55">Next.js</text><text x="230" y="120.55">Actix Web</text><text x="230" y="144.55">FastAPI</text><rect x="352" y="24" width="132" height="138" rx="8" fill="white" stroke="#ccc" stroke-width="1"/><clipPath id="clip-header-2"><rect x="352" y="24" width="132" height="32" rx="8"/></clipPath><rect x="352" y="24" width="132" height="32" fill="#fff8e1" clip-path="url(#clip-header-2)"/><line x1="352" y1="56" x2="484" y2="56" stroke="#ccc" stroke-width="1"/><text x="366" y="44.55" font-weight="bold" fill="#333">Databases</text><text x="378" y="72.55">PostgreSQL</text><text x="378" y="96.55">Redis</text><text x="378" y="120.55">MongoDB</text><text x="378" y="144.55">DynamoDB</text><rect x="500" y="24" width="148" height="138" rx="8" fill="white" stroke="#ccc" stroke-width="1"/><clipPath id="clip-header-3"><rect x="500" y="24" width="148" height="32" rx="8"/></clipPath><rect x="500" y="24" width="148" height="32" fill="#f3e5f5" clip-path="url(#clip-header-3)"/><line x1="500" y1="56" x2="648" y2="56" stroke="#ccc" stroke-width="1"/><text x="514" y="44.55" font-weight="bold" fill="#333">Cloud</text><text x="526" y="72.55">AWS</text><text x="526" y="96.55">GCP</text><text x="526" y="120.55">Azure</text><text x="526" y="144.55">Cloudflare</text><rect x="24" y="178" width="164" height="138" rx="8" fill="white" stroke="#ccc" stroke-width="1"/><clipPath id="clip-header-4"><rect x="24" y="178" width="164" height="32" rx="8"/></clipPath><rect x="24" y="178" width="164" height="32" fill="#e0f2f1" clip-path="url(#clip-header-4)"/><line x1="24" y1="210" x2="188" y2="210" stroke="#ccc" stroke-width="1"/><text x="38" y="198.55" font-weight="bold" fill="#333">DevOps</text><text x="50" y="226.55">Docker</text><text x="50" y="250.55">Kubernetes</text><text x="50" y="274.55">Terraform</text><text x="50" y="298.55">GitHub Actions</text><rect x="204" y="178" width="132" height="138" rx="8" fill="white" stroke="#ccc" stroke-width="1"/><clipPath id="clip-header-5"><rect x="204" y="178" width="132" height="32" rx="8"/></clipPath><rect x="204" y="178" width="132" height="32" fill="#fff3e0" clip-path="url(#clip-header-5)"/><line x1="204" y1="210" x2="336" y2="210" stroke="#ccc" stroke-width="1"/><text x="218" y="198.55" font-weight="bold" fill="#333">Testing</text><text x="230" y="226.55">Jest</text><text x="230" y="250.55">Playwright</text><text x="230" y="274.55">cargo test</text><text x="230" y="298.55">pytest</text><rect x="352" y="178" width="132" height="138" rx="8" fill="white" stroke="#ccc" stroke-width="1"/><clipPath id="clip-header-6"><rect x="352" y="178" width="132" height="32" rx="8"/></clipPath><rect x="352" y="178" width="132" height="32" fill="#fce4ec" clip-path="url(#clip-header-6)"/><line x1="352" y1="210" x2="484" y2="210" stroke="#ccc" stroke-width="1"/><text x="366" y="198.55" font-weight="bold" fill="#333">Monitoring</text><text x="378" y="226.55">Datadog</text><text x="378" y="250.55">Grafana</text><text x="378" y="274.55">Sentry</text><text x="378" y="298.55">PagerDuty</text><rect x="500" y="178" width="148" height="138" rx="8" fill="white" stroke="#ccc" stroke-width="1"/><clipPath id="clip-header-7"><rect x="500" y="178" width="148" height="32" rx="8"/></clipPath><rect x="500" y="178" width="148" height="32" fill="#e8eaf6" clip-path="url(#clip-header-7)"/><line x1="500" y1="210" x2="648" y2="210" stroke="#ccc" stroke-width="1"/><text x="514" y="198.55" font-weight="bold" fill="#333">Design</text><text x="526" y="226.55">Figma</text><text x="526" y="250.55">Storybook</text><text x="526" y="274.55">Tailwind CSS</text><text x="526" y="298.55">shadcn/ui</text></svg>