<svg xmlns="http://www.w3.org/2000/svg" width="550" height="442" viewBox="0 0 550 442"><rect width="100%" height="100%" fill="white"/><style>text { font-family: sans-serif; font-size: 13px; fill: #333; }</style><rect x="20" y="20" width="224" height="150" rx="6" fill="#fafafa" stroke="#999" stroke-width="1.5" stroke-dasharray="6,3"/><text x="32" y="38" font-weight="bold" font-size="12" fill="#555">Frontend</text><rect x="32" y="60" width="200" height="48" rx="4" fill="#e3f2fd" stroke="#ccc" stroke-width="1"/><text x="132" y="89" text-anchor="middle" font-weight="bold">UI Components</text><line x1="232" y1="84" x2="266" y2="84" stroke="#ccc" stroke-width="1"/><circle cx="232" cy="84" r="2.5" fill="#999"/><text x="274" y="88.2" font-size="12" fill="#666">React, Vue</text><rect x="32" y="110" width="200" height="48" rx="4" fill="#e8f5e9" stroke="#ccc" stroke-width="1"/><text x="132" y="139" text-anchor="middle" font-weight="bold">State Management</text><line x1="232" y1="134" x2="266" y2="134" stroke="#ccc" stroke-width="1"/><circle cx="232" cy="134" r="2.5" fill="#999"/><text x="274" y="138.2" font-size="12" fill="#666">Redux, Vuex</text><rect x="20" y="172" width="224" height="200" rx="6" fill="#fafafa" stroke="#999" stroke-width="1.5" stroke-dasharray="6,3"/><text x="32" y="190" font-weight="bold" font-size="12" fill="#555">Backend</text><rect x="32" y="212" width="200" height="48" rx="4" fill="#fff8e1" stroke="#ccc" stroke-width="1"/><text x="132" y="241" text-anchor="middle" font-weight="bold">API Gateway</text><line x1="232" y1="236" x2="266" y2="236" stroke="#ccc" stroke-width="1"/><circle cx="232" cy="236" r="2.5" fill="#999"/><text x="274" y="240.2" font-size="12" fill="#666">REST, GraphQL</text><rect x="32" y="262" width="200" height="48" rx="4" fill="#fce4ec" stroke="#ccc" stroke-width="1"/><text x="132" y="291" text-anchor="middle" font-weight="bold">Business Logic</text><line x1="232" y1="286" x2="266" y2="286" stroke="#ccc" stroke-width="1"/><circle cx="232" cy="286" r="2.5" fill="#999"/><text x="274" y="290.2" font-size="12" fill="#666">Services, Domain Models</text><rect x="32" y="312" width="200" height="48" rx="4" fill="#f3e5f5" stroke="#ccc" stroke-width="1"/><text x="132" y="341" text-anchor="middle" font-weight="bold">Data Access</text><line x1="232" y1="336" x2="266" y2="336" stroke="#ccc" stroke-width="1"/><circle cx="232" cy="336" r="2.5" fill="#999"/><text x="274" y="340.2" font-size="12" fill="#666">ORM, Repository Pattern</text><rect x="20" y="374" width="224" height="48" rx="4" fill="#e0f2f1" stroke="#ccc" stroke-width="1"/><text x="132" y="403" text-anchor="middle" font-weight="bold">Infrastructure</text><line x1="244" y1="398" x2="266" y2="398" stroke="#ccc" stroke-width="1"/><circle cx="244" cy="398" r="2.5" fill="#999"/><text x="274" y="402.2" font-size="12" fill="#666">Database, Cache, Message Queue</text></svg>