<svg xmlns="http://www.w3.org/2000/svg" width="291.0769230769231" height="514" viewBox="0 0 291.0769230769231 514"><rect width="100%" height="100%" fill="white"/><style>text { font-family: sans-serif; font-size: 13px; fill: #333; }</style><rect x="20" y="20" width="251.07692307692307" height="174" rx="6" fill="#fafafa" stroke="#999" stroke-width="1.5" stroke-dasharray="6,3"/><text x="32" y="38" font-weight="bold" font-size="12" fill="#555">Frontend</text><rect x="32" y="60" width="227.07692307692307" height="60" rx="4" fill="#e3f2fd" stroke="#ccc" stroke-width="1"/><text x="145.53846153846155" y="86" text-anchor="middle" font-weight="bold">UI Components</text><text x="145.53846153846155" y="102" text-anchor="middle" font-size="11" fill="#666">React, Vue</text><rect x="32" y="122" width="227.07692307692307" height="60" rx="4" fill="#e8f5e9" stroke="#ccc" stroke-width="1"/><text x="145.53846153846155" y="148" text-anchor="middle" font-weight="bold">State Management</text><text x="145.53846153846155" y="164" text-anchor="middle" font-size="11" fill="#666">Redux, Vuex</text><rect x="20" y="196" width="251.07692307692307" height="236" rx="6" fill="#fafafa" stroke="#999" stroke-width="1.5" stroke-dasharray="6,3"/><text x="32" y="214" font-weight="bold" font-size="12" fill="#555">Backend</text><rect x="32" y="236" width="227.07692307692307" height="60" rx="4" fill="#fff8e1" stroke="#ccc" stroke-width="1"/><text x="145.53846153846155" y="262" text-anchor="middle" font-weight="bold">API Gateway</text><text x="145.53846153846155" y="278" text-anchor="middle" font-size="11" fill="#666">REST, GraphQL</text><rect x="32" y="298" width="227.07692307692307" height="60" rx="4" fill="#fce4ec" stroke="#ccc" stroke-width="1"/><text x="145.53846153846155" y="324" text-anchor="middle" font-weight="bold">Business Logic</text><text x="145.53846153846155" y="340" text-anchor="middle" font-size="11" fill="#666">Services, Domain Models</text><rect x="32" y="360" width="227.07692307692307" height="60" rx="4" fill="#f3e5f5" stroke="#ccc" stroke-width="1"/><text x="145.53846153846155" y="386" text-anchor="middle" font-weight="bold">Data Access</text><text x="145.53846153846155" y="402" text-anchor="middle" font-size="11" fill="#666">ORM, Repository Pattern</text><rect x="20" y="434" width="251.07692307692307" height="60" rx="4" fill="#e0f2f1" stroke="#ccc" stroke-width="1"/><text x="145.53846153846155" y="460" text-anchor="middle" font-weight="bold">Infrastructure</text><text x="145.53846153846155" y="476" text-anchor="middle" font-size="11" fill="#666">Database, Cache, Message Queue</text></svg>