<svg xmlns="http://www.w3.org/2000/svg" width="446" height="388" viewBox="0 0 446 388"><rect width="100%" height="100%" fill="white"/><style>text { font-family: sans-serif; font-size: 13px; fill: #333; }</style><rect x="20" y="20" width="200" height="48" rx="4" fill="#e3f2fd" stroke="#ccc" stroke-width="1"/><text x="120" y="49" text-anchor="middle" font-weight="bold">アプリケーション層</text><line x1="220" y1="44" x2="242" y2="44" stroke="#ccc" stroke-width="1"/><circle cx="220" cy="44" r="2.5" fill="#999"/><text x="250" y="48.2" font-size="12" fill="#666">HTTP, FTP, SMTP</text><rect x="20" y="70" width="200" height="48" rx="4" fill="#e8f5e9" stroke="#ccc" stroke-width="1"/><text x="120" y="99" text-anchor="middle" font-weight="bold">プレゼンテーション層</text><line x1="220" y1="94" x2="242" y2="94" stroke="#ccc" stroke-width="1"/><circle cx="220" cy="94" r="2.5" fill="#999"/><text x="250" y="98.2" font-size="12" fill="#666">SSL/TLS, JPEG, ASCII</text><rect x="20" y="120" width="200" height="48" rx="4" fill="#fff8e1" stroke="#ccc" stroke-width="1"/><text x="120" y="149" text-anchor="middle" font-weight="bold">セッション層</text><line x1="220" y1="144" x2="242" y2="144" stroke="#ccc" stroke-width="1"/><circle cx="220" cy="144" r="2.5" fill="#999"/><text x="250" y="148.2" font-size="12" fill="#666">NetBIOS, RPC</text><rect x="20" y="170" width="200" height="48" rx="4" fill="#fce4ec" stroke="#ccc" stroke-width="1"/><text x="120" y="199" text-anchor="middle" font-weight="bold">トランスポート層</text><line x1="220" y1="194" x2="242" y2="194" stroke="#ccc" stroke-width="1"/><circle cx="220" cy="194" r="2.5" fill="#999"/><text x="250" y="198.2" font-size="12" fill="#666">TCP, UDP</text><rect x="20" y="220" width="200" height="48" rx="4" fill="#f3e5f5" stroke="#ccc" stroke-width="1"/><text x="120" y="249" text-anchor="middle" font-weight="bold">ネットワーク層</text><line x1="220" y1="244" x2="242" y2="244" stroke="#ccc" stroke-width="1"/><circle cx="220" cy="244" r="2.5" fill="#999"/><text x="250" y="248.2" font-size="12" fill="#666">IP, ICMP, ARP</text><rect x="20" y="270" width="200" height="48" rx="4" fill="#e0f2f1" stroke="#ccc" stroke-width="1"/><text x="120" y="299" text-anchor="middle" font-weight="bold">データリンク層</text><line x1="220" y1="294" x2="242" y2="294" stroke="#ccc" stroke-width="1"/><circle cx="220" cy="294" r="2.5" fill="#999"/><text x="250" y="298.2" font-size="12" fill="#666">Ethernet, Wi-Fi</text><rect x="20" y="320" width="200" height="48" rx="4" fill="#fff3e0" stroke="#ccc" stroke-width="1"/><text x="120" y="349" text-anchor="middle" font-weight="bold">物理層</text><line x1="220" y1="344" x2="242" y2="344" stroke="#ccc" stroke-width="1"/><circle cx="220" cy="344" r="2.5" fill="#999"/><text x="250" y="348.2" font-size="12" fill="#666">電気信号, 光ファイバー</text></svg>