<svg xmlns="http://www.w3.org/2000/svg" width="240" height="472" viewBox="0 0 240 472"><rect width="100%" height="100%" fill="white"/><style>text { font-family: sans-serif; font-size: 13px; fill: #333; }</style><rect x="20" y="20" width="200" height="60" rx="4" fill="#e3f2fd" stroke="#ccc" stroke-width="1"/><text x="120" y="46" text-anchor="middle" font-weight="bold">アプリケーション層</text><text x="120" y="62" text-anchor="middle" font-size="11" fill="#666">HTTP, FTP, SMTP</text><rect x="20" y="82" width="200" height="60" rx="4" fill="#e8f5e9" stroke="#ccc" stroke-width="1"/><text x="120" y="108" text-anchor="middle" font-weight="bold">プレゼンテーション層</text><text x="120" y="124" text-anchor="middle" font-size="11" fill="#666">SSL/TLS, JPEG, ASCII</text><rect x="20" y="144" width="200" height="60" rx="4" fill="#fff8e1" stroke="#ccc" stroke-width="1"/><text x="120" y="170" text-anchor="middle" font-weight="bold">セッション層</text><text x="120" y="186" text-anchor="middle" font-size="11" fill="#666">NetBIOS, RPC</text><rect x="20" y="206" width="200" height="60" rx="4" fill="#fce4ec" stroke="#ccc" stroke-width="1"/><text x="120" y="232" text-anchor="middle" font-weight="bold">トランスポート層</text><text x="120" y="248" text-anchor="middle" font-size="11" fill="#666">TCP, UDP</text><rect x="20" y="268" width="200" height="60" rx="4" fill="#f3e5f5" stroke="#ccc" stroke-width="1"/><text x="120" y="294" text-anchor="middle" font-weight="bold">ネットワーク層</text><text x="120" y="310" text-anchor="middle" font-size="11" fill="#666">IP, ICMP, ARP</text><rect x="20" y="330" width="200" height="60" rx="4" fill="#e0f2f1" stroke="#ccc" stroke-width="1"/><text x="120" y="356" text-anchor="middle" font-weight="bold">データリンク層</text><text x="120" y="372" text-anchor="middle" font-size="11" fill="#666">Ethernet, Wi-Fi</text><rect x="20" y="392" width="200" height="60" rx="4" fill="#fff3e0" stroke="#ccc" stroke-width="1"/><text x="120" y="418" text-anchor="middle" font-weight="bold">物理層</text><text x="120" y="434" text-anchor="middle" font-size="11" fill="#666">電気信号, 光ファイバー</text></svg>