<svg xmlns="http://www.w3.org/2000/svg" width="2143.3966158065537" height="534.4692083810096" viewBox="0 0 2143.3966158065537 534.4692083810096"><rect width="100%" height="100%" fill="white"/><style>text { font-family: sans-serif; font-size: 13px; fill: #333; }</style><defs><marker id="arrow" viewBox="0 0 10 10" refX="10" refY="5" markerWidth="8" markerHeight="8" orient="auto"><polygon points="0,1 10,5 0,9" fill="#666"/></marker></defs><ellipse cx="90" cy="201.62164951046938" rx="50" ry="21" fill="#e8f5e9" stroke="#2e7d32" stroke-width="2"/><text x="90" y="207.9216495104694" text-anchor="middle" font-weight="bold">注文受付</text><rect x="300.01738966086793" y="180.62164951046938" width="138" height="42" rx="4" fill="#e3f2fd" stroke="#1565c0" stroke-width="1.5"/><text x="369.01738966086793" y="207.9216495104694" text-anchor="middle" font-weight="bold">カート内容確認</text><polygon points="682.0242496018894,246.95261626069077 758.0242496018894,322.9526162606908 682.0242496018894,398.9526162606908 606.0242496018894,322.9526162606908" fill="#fff8e1" stroke="#f57f17" stroke-width="1.5"/><text x="682.0242496018894" y="328.35261626069075" text-anchor="middle" font-weight="bold" font-size="12">在庫あり？</text><rect x="899.6493290828696" y="342.4692083810096" width="100" height="42" rx="4" fill="#e3f2fd" stroke="#1565c0" stroke-width="1.5"/><text x="949.6493290828696" y="369.7692083810096" text-anchor="middle" font-weight="bold">在庫引当</text><rect x="899.6493290828696" y="143.4763081303454" width="124" height="42" rx="4" fill="#e3f2fd" stroke="#1565c0" stroke-width="1.5"/><text x="961.6493290828696" y="170.7763081303454" text-anchor="middle" font-weight="bold">在庫切れ通知</text><polygon points="1269.2744085638496,342.4692083810096 1345.2744085638496,418.4692083810096 1269.2744085638496,494.4692083810096 1193.2744085638496,418.4692083810096" fill="#fff8e1" stroke="#f57f17" stroke-width="1.5"/><text x="1269.2744085638496" y="423.86920838100957" text-anchor="middle" font-weight="bold" font-size="12">決済成功？</text><rect x="1499.2812685048712" y="342.4692083810096" width="100" height="42" rx="4" fill="#e3f2fd" stroke="#1565c0" stroke-width="1.5"/><text x="1549.2812685048712" y="369.7692083810096" text-anchor="middle" font-weight="bold">注文確定</text><rect x="1499.2812685048712" y="40" width="138" height="42" rx="4" fill="#e3f2fd" stroke="#1565c0" stroke-width="1.5"/><text x="1568.2812685048712" y="67.3" text-anchor="middle" font-weight="bold">決済エラー処理</text><rect x="1768.1427870657685" y="408.800175131231" width="100" height="42" rx="4" fill="#e3f2fd" stroke="#1565c0" stroke-width="1.5"/><text x="1818.1427870657685" y="436.100175131231" text-anchor="middle" font-weight="bold">出荷指示</text><rect x="1768.1427870657685" y="276.13824163078823" width="110" height="42" rx="4" fill="#e3f2fd" stroke="#1565c0" stroke-width="1.5"/><text x="1823.1427870657685" y="303.43824163078824" text-anchor="middle" font-weight="bold">メール送信</text><ellipse cx="2053.3966158065537" cy="267.9526162606908" rx="50" ry="21" fill="#f5f5f5" stroke="#616161" stroke-width="2"/><text x="2053.3966158065537" y="274.2526162606908" text-anchor="middle" font-weight="bold">完了</text><path d="M140,201.62164951046938 L300.01738966086793,201.62164951046938" fill="none" stroke="#666" stroke-width="1.5" marker-end="url(#arrow)"/><path d="M423.1927105605463,222.62164951046938 L627.2546212304969,301.72224463208323" fill="none" stroke="#666" stroke-width="1.5" marker-end="url(#arrow)"/><path d="M748.0312454582355,332.9456204043447 L899.6493290828696,355.899553063411" fill="none" stroke="#666" stroke-width="1.5" marker-end="url(#arrow)"/><rect x="808.8402872705526" y="326.4225867338779" width="30" height="16" rx="3" fill="white" opacity="0.9"/><text x="823.8402872705526" y="338.4225867338779" text-anchor="middle" font-size="11" font-weight="bold" fill="#666">Yes</text><path d="M730.5324411792427,295.46080783804405 L924.5956726822496,185.4763081303454" fill="none" stroke="#666" stroke-width="1.5" marker-end="url(#arrow)"/><rect x="816.5640569307461" y="222.46855798419472" width="22" height="16" rx="3" fill="white" opacity="0.9"/><text x="827.5640569307461" y="234.46855798419472" text-anchor="middle" font-size="11" font-weight="bold" fill="#666">No</text><path d="M1023.6493290828696,170.35269654192948 L2003.619697296496,265.97110701906684" fill="none" stroke="#666" stroke-width="1.5" marker-end="url(#arrow)"/><path d="M999.6493290828696,372.0730388578469 L1204.432230687748,407.3113862571114" fill="none" stroke="#666" stroke-width="1.5" marker-end="url(#arrow)"/><path d="M1332.7970521278176,405.9918519449775 L1499.2812685048712,373.29039633540197" fill="none" stroke="#666" stroke-width="1.5" marker-end="url(#arrow)"/><rect x="1401.0391603163444" y="371.64112414018973" width="30" height="16" rx="3" fill="white" opacity="0.9"/><text x="1416.0391603163444" y="383.64112414018973" text-anchor="middle" font-size="11" font-weight="bold" fill="#666">Yes</text><path d="M1303.890325962944,377.0851257801039 L1550.715716251574,82" fill="none" stroke="#666" stroke-width="1.5" marker-end="url(#arrow)"/><rect x="1416.303021107259" y="211.54256289005195" width="22" height="16" rx="3" fill="white" opacity="0.9"/><text x="1427.303021107259" y="223.54256289005195" text-anchor="middle" font-size="11" font-weight="bold" fill="#666">No</text><path d="M1499.2812685048712,68.1062286385732 L1230.4652987938703,95.7912683844593 Q961.6493290828696,123.47630813034539 699.8333593718687,157.99975678515273 L438.01738966086793,192.52320543996007" fill="none" stroke="#666" stroke-width="1.5" marker-end="url(#arrow)"/><path d="M1599.2812685048712,375.8047346967991 L1768.1427870657685,417.46464881544154" fill="none" stroke="#666" stroke-width="1.5" marker-end="url(#arrow)"/><path d="M1599.2812685048712,351.35889673540476 L1768.1427870657685,310.45958444095356" fill="none" stroke="#666" stroke-width="1.5" marker-end="url(#arrow)"/><path d="M1848.6673772297029,408.800175131231 L2012.2035586816253,279.85524171415693" fill="none" stroke="#666" stroke-width="1.5" marker-end="url(#arrow)"/><path d="M1878.1427870657685,290.1667640917004 L2003.793504942871,270.5933240564566" fill="none" stroke="#666" stroke-width="1.5" marker-end="url(#arrow)"/></svg>