<svg xmlns="http://www.w3.org/2000/svg" width="3006.0350240375924" height="680.2595104739062" viewBox="0 0 3006.0350240375924 680.2595104739062"><rect width="100%" height="100%" fill="white"/><style>text { font-family: sans-serif; font-size: 13px; fill: #333; }</style><defs><marker id="arrow" viewBox="0 0 10 10" refX="10" refY="5" markerWidth="8" markerHeight="8" orient="auto"><polygon points="0,1 10,5 0,9" fill="#666"/></marker></defs><ellipse cx="90" cy="275.5998286363267" rx="50" ry="21" fill="#e8f5e9" stroke="#2e7d32" stroke-width="2"/><text x="90" y="281.89982863632673" text-anchor="middle" font-weight="bold">注文受付</text><rect x="416.49092743215215" y="254.59982863632672" width="138" height="42" rx="4" fill="#e3f2fd" stroke="#1565c0" stroke-width="1.5"/><text x="485.49092743215215" y="281.89982863632673" text-anchor="middle" font-weight="bold">カート内容確認</text><polygon points="930.1616305720291,352.01685610939614 1006.1616305720291,428.01685610939614 930.1616305720291,504.01685610939614 854.1616305720291,428.01685610939614" fill="#fff8e1" stroke="#f57f17" stroke-width="1.5"/><text x="930.1616305720291" y="433.4168561093961" text-anchor="middle" font-weight="bold" font-size="12">在庫あり？</text><rect x="1275.3608556367494" y="488.2595104739062" width="100" height="42" rx="4" fill="#e3f2fd" stroke="#1565c0" stroke-width="1.5"/><text x="1325.3608556367494" y="515.5595104739061" text-anchor="middle" font-weight="bold">在庫引当</text><rect x="1275.3608556367494" y="196.00842805469804" width="124" height="42" rx="4" fill="#e3f2fd" stroke="#1565c0" stroke-width="1.5"/><text x="1337.3608556367494" y="223.30842805469806" text-anchor="middle" font-weight="bold">在庫切れ通知</text><polygon points="1772.5600807014698,488.2595104739062 1848.5600807014698,564.2595104739062 1772.5600807014698,640.2595104739062 1696.5600807014698,564.2595104739062" fill="#fff8e1" stroke="#f57f17" stroke-width="1.5"/><text x="1772.5600807014698" y="569.6595104739062" text-anchor="middle" font-weight="bold" font-size="12">決済成功？</text><rect x="2134.2307838413467" y="488.2595104739062" width="100" height="42" rx="4" fill="#e3f2fd" stroke="#1565c0" stroke-width="1.5"/><text x="2184.2307838413467" y="515.5595104739061" text-anchor="middle" font-weight="bold">注文確定</text><rect x="2134.2307838413467" y="40" width="138" height="42" rx="4" fill="#e3f2fd" stroke="#1565c0" stroke-width="1.5"/><text x="2203.2307838413467" y="67.3" text-anchor="middle" font-weight="bold">決済エラー処理</text><rect x="2522.4870527557537" y="585.6765379469755" width="100" height="42" rx="4" fill="#e3f2fd" stroke="#1565c0" stroke-width="1.5"/><text x="2572.4870527557537" y="612.9765379469754" text-anchor="middle" font-weight="bold">出荷指示</text><rect x="2522.4870527557537" y="390.8424830008368" width="110" height="42" rx="4" fill="#e3f2fd" stroke="#1565c0" stroke-width="1.5"/><text x="2577.4870527557537" y="418.1424830008368" text-anchor="middle" font-weight="bold">メール送信</text><ellipse cx="2916.0350240375924" cy="373.01685610939614" rx="50" ry="21" fill="#f5f5f5" stroke="#616161" stroke-width="2"/><text x="2916.0350240375924" y="379.31685610939616" text-anchor="middle" font-weight="bold">完了</text><path d="M140,275.5998286363267 L416.49092743215215,275.5998286363267" fill="none" stroke="#666" stroke-width="1.5" marker-end="url(#arrow)"/><path d="M546.7576042644855,296.5998286363267 L873.561952323846,408.6165343575793" fill="none" stroke="#666" stroke-width="1.5" marker-end="url(#arrow)"/><path d="M993.2021448544855,440.9763418269398 L1275.3608556367494,498.98081441229255" fill="none" stroke="#666" stroke-width="1.5" marker-end="url(#arrow)"/><rect x="1119.2815002456175" y="451.97857811961615" width="30" height="16" rx="3" fill="white" opacity="0.9"/><text x="1134.2815002456175" y="463.97857811961615" text-anchor="middle" font-size="11" font-weight="bold" fill="#666">Yes</text><path d="M980.2210902839274,402.0763158212945 L1296.835537263483,238.00842805469804" fill="none" stroke="#666" stroke-width="1.5" marker-end="url(#arrow)"/><rect x="1127.5283137737051" y="302.0423719379963" width="22" height="16" rx="3" fill="white" opacity="0.9"/><text x="1138.5283137737051" y="314.0423719379963" text-anchor="middle" font-size="11" font-weight="bold" fill="#666">No</text><path d="M1399.3608556367494,223.13541912923327 L2866.2773970866324,370.95164473501217" fill="none" stroke="#666" stroke-width="1.5" marker-end="url(#arrow)"/><path d="M1375.3608556367494,515.4088950118646 L1704.8834706857162,555.9361204896597" fill="none" stroke="#666" stroke-width="1.5" marker-end="url(#arrow)"/><path d="M1839.6030153192294,555.3024450916657 L2134.2307838413467,515.9396069175572" fill="none" stroke="#666" stroke-width="1.5" marker-end="url(#arrow)"/><rect x="1971.916899580288" y="517.6210260046114" width="30" height="16" rx="3" fill="white" opacity="0.9"/><text x="1986.916899580288" y="529.6210260046114" text-anchor="middle" font-size="11" font-weight="bold" fill="#666">Yes</text><path d="M1807.6065680744184,523.3059978468548 L2185.259767739891,82" fill="none" stroke="#666" stroke-width="1.5" marker-end="url(#arrow)"/><rect x="1985.4331679071547" y="284.6529989234274" width="22" height="16" rx="3" fill="white" opacity="0.9"/><text x="1996.4331679071547" y="296.6529989234274" text-anchor="middle" font-size="11" font-weight="bold" fill="#666">No</text><path d="M2134.2307838413467,69.62027397260273 L554.4909274321521,266.979554663724" fill="none" stroke="#666" stroke-width="1.5" marker-end="url(#arrow)"/><path d="M2234.2307838413467,521.8049650193607 L2522.4870527557537,594.131083401521" fill="none" stroke="#666" stroke-width="1.5" marker-end="url(#arrow)"/><path d="M2234.2307838413467,496.87356329727356 L2522.4870527557537,425.4670248951327" fill="none" stroke="#666" stroke-width="1.5" marker-end="url(#arrow)"/><path d="M2603.363185686267,585.6765379469755 L2874.6913325900355,384.8269930649565" fill="none" stroke="#666" stroke-width="1.5" marker-end="url(#arrow)"/><path d="M2632.4870527557537,405.5349293890282 L2866.3606194020326,375.40951188315717" fill="none" stroke="#666" stroke-width="1.5" marker-end="url(#arrow)"/></svg>