<svg xmlns="http://www.w3.org/2000/svg" width="960" height="310" viewBox="0 0 960 310"><rect width="100%" height="100%" fill="white"/><style>text { font-family: sans-serif; font-size: 12px; fill: #333; }</style><text x="40" y="56" font-size="16" font-weight="bold">ECサイト購入体験</text><text x="40" y="74" font-size="12" fill="#666">30代会社員・初めての利用者</text><rect x="40" y="80" width="140" height="190" fill="#f7f8fc"/><text x="110" y="100" text-anchor="middle" font-weight="bold" font-size="13">認知</text><text x="110" y="118" text-anchor="middle" font-size="11" fill="#666">SNS広告を見る</text><rect x="188" y="80" width="140" height="190" fill="#fff"/><text x="258" y="100" text-anchor="middle" font-weight="bold" font-size="13">検索</text><text x="258" y="118" text-anchor="middle" font-size="11" fill="#666">商品を検索する</text><rect x="336" y="80" width="140" height="190" fill="#f7f8fc"/><text x="406" y="100" text-anchor="middle" font-weight="bold" font-size="13">比較</text><text x="406" y="118" text-anchor="middle" font-size="11" fill="#666">レビューを読む</text><rect x="484" y="80" width="140" height="190" fill="#fff"/><text x="554" y="100" text-anchor="middle" font-weight="bold" font-size="13">購入</text><text x="554" y="118" text-anchor="middle" font-size="11" fill="#666">カートに入れて決済</text><rect x="632" y="80" width="140" height="190" fill="#f7f8fc"/><text x="702" y="100" text-anchor="middle" font-weight="bold" font-size="13">配送</text><text x="702" y="118" text-anchor="middle" font-size="11" fill="#666">配送状況を確認</text><rect x="780" y="80" width="140" height="190" fill="#fff"/><text x="850" y="100" text-anchor="middle" font-weight="bold" font-size="13">利用</text><text x="850" y="118" text-anchor="middle" font-size="11" fill="#666">商品を使う</text><line x1="40" y1="200" x2="928" y2="200" stroke="#e0e0e0" stroke-width="1" stroke-dasharray="4,4"/><line x1="110" y1="200" x2="258" y2="175" stroke="#1565c0" stroke-width="2"/><line x1="258" y1="175" x2="406" y2="175" stroke="#1565c0" stroke-width="2"/><line x1="406" y1="175" x2="554" y2="225" stroke="#1565c0" stroke-width="2"/><line x1="554" y1="225" x2="702" y2="200" stroke="#1565c0" stroke-width="2"/><line x1="702" y1="200" x2="850" y2="150" stroke="#1565c0" stroke-width="2"/><circle cx="110" cy="200" r="6" fill="#757575" stroke="white" stroke-width="2"/><text x="110" y="188" text-anchor="middle" font-size="16">😐</text><circle cx="258" cy="175" r="6" fill="#2e7d32" stroke="white" stroke-width="2"/><text x="258" y="163" text-anchor="middle" font-size="16">🙂</text><circle cx="406" cy="175" r="6" fill="#2e7d32" stroke="white" stroke-width="2"/><text x="406" y="163" text-anchor="middle" font-size="16">🙂</text><circle cx="554" cy="225" r="6" fill="#f57f17" stroke="white" stroke-width="2"/><text x="554" y="213" text-anchor="middle" font-size="16">😟</text><circle cx="702" cy="200" r="6" fill="#757575" stroke="white" stroke-width="2"/><text x="702" y="188" text-anchor="middle" font-size="16">😐</text><circle cx="850" cy="150" r="6" fill="#1565c0" stroke="white" stroke-width="2"/><text x="850" y="138" text-anchor="middle" font-size="16">😄</text></svg>