<svg xmlns="http://www.w3.org/2000/svg" width="1637.3000000000002" height="1381.6000000000001" viewBox="0 0 1637.3000000000002 1381.6000000000001"><rect width="100%" height="100%" fill="white"/><style>text { font-family: sans-serif; font-size: 13px; fill: #333; }</style><path d="M812.4000000000001,97 C812.4000000000001,278.74 812.4000000000001,521.0600000000001 812.4000000000001,702.8000000000001" fill="none" stroke="#2e7d32" stroke-width="1.5" opacity="0.5"/><path d="M1240.7652880428107,274.43471195718956 C1112.2557016299675,402.9442983700327 940.9095864128433,574.290413587157 812.4000000000001,702.8000000000001" fill="none" stroke="#2e7d32" stroke-width="1.5" opacity="0.5"/><path d="M1418.2000000000003,702.8000000000001 C1236.4600000000003,702.8000000000001 994.1400000000001,702.8000000000001 812.4000000000001,702.8000000000001" fill="none" stroke="#1565c0" stroke-width="1.5" opacity="0.5"/><path d="M1240.7652880428107,1131.1652880428105 C1112.2557016299675,1002.6557016299673 940.9095864128433,831.3095864128431 812.4000000000001,702.8000000000001" fill="none" stroke="#1565c0" stroke-width="1.5" opacity="0.5"/><path d="M812.4000000000001,1308.6000000000001 C812.4000000000001,1126.8600000000001 812.4000000000001,884.5400000000001 812.4000000000001,702.8000000000001" fill="none" stroke="#f57f17" stroke-width="1.5" opacity="0.5"/><path d="M384.0347119571896,1131.1652880428105 C512.5442983700327,1002.6557016299673 683.8904135871569,831.3095864128431 812.4000000000001,702.8000000000001" fill="none" stroke="#f57f17" stroke-width="1.5" opacity="0.5"/><path d="M206.60000000000002,702.8000000000002 C388.34000000000003,702.8000000000002 630.6600000000001,702.8000000000001 812.4000000000001,702.8000000000001" fill="none" stroke="#f57f17" stroke-width="1.5" opacity="0.5"/><path d="M384.0347119571895,274.43471195718956 C512.5442983700327,402.9442983700327 683.8904135871569,574.290413587157 812.4000000000001,702.8000000000001" fill="none" stroke="#c62828" stroke-width="1.5" opacity="0.5"/><rect x="677.4000000000001" y="597.8000000000001" width="270" height="210" fill="#fff" stroke="none"/><line x1="677.4000000000001" y1="597.8000000000001" x2="947.4000000000001" y2="597.8000000000001" stroke="#2e7d32" stroke-width="1.5"/><line x1="677.4000000000001" y1="807.8000000000001" x2="947.4000000000001" y2="807.8000000000001" stroke="#2e7d32" stroke-width="1.5"/><rect x="677.4000000000001" y="597.8000000000001" width="270" height="32" fill="#e8f5e9"/><line x1="677.4000000000001" y1="629.8000000000001" x2="947.4000000000001" y2="629.8000000000001" stroke="#2e7d32" stroke-width="0.5" stroke-dasharray="3,3"/><text x="812.4000000000001" y="620.2" text-anchor="middle" font-weight="bold" fill="#2e7d32">receive_order_goods</text><rect x="693.4000000000001" y="643.3000000000001" width="18" height="11" rx="2" fill="#fff8e1"/><text x="702.4000000000001" y="650.3000000000001" font-size="7" font-weight="bold" fill="#c8a415" text-anchor="middle">PK</text><text x="715.4000000000001" y="651.3000000000001" font-size="11" fill="#555">receive_order_goods_id</text><rect x="693.4000000000001" y="661.3000000000001" width="18" height="11" rx="2" fill="#f3e5f5"/><text x="702.4000000000001" y="668.3000000000001" font-size="7" font-weight="bold" fill="#7b1fa2" text-anchor="middle">FK</text><text x="715.4000000000001" y="669.3000000000001" font-size="11" fill="#555">fk_receive_order_id</text><rect x="693.4000000000001" y="679.3000000000001" width="18" height="11" rx="2" fill="#f3e5f5"/><text x="702.4000000000001" y="686.3000000000001" font-size="7" font-weight="bold" fill="#7b1fa2" text-anchor="middle">FK</text><text x="715.4000000000001" y="687.3000000000001" font-size="11" fill="#555">fk_goods_id</text><text x="693.4000000000001" y="705.3000000000001" font-size="11" fill="#555">goods_amount</text><text x="693.4000000000001" y="723.3000000000001" font-size="11" fill="#555">stock_status_code</text><text x="693.4000000000001" y="741.3000000000001" font-size="11" fill="#555">receive_order_status_code</text><text x="693.4000000000001" y="759.3000000000001" font-size="11" fill="#555">cancel_code</text><text x="693.4000000000001" y="777.3000000000001" font-size="11" fill="#555">ks_order_goods_status_code</text><text x="693.4000000000001" y="795.3000000000001" font-size="11" fill="#555">delivery_reference_number</text><rect x="628.8000000000001" y="30" width="367.2" height="134" rx="4" fill="#fafafa" stroke="#ddd" stroke-width="1"/><rect x="640.8000000000001" y="36" width="24" height="18" rx="3" fill="#e8f5e9" stroke="#2e7d32" stroke-width="1"/><text x="652.8000000000001" y="49" text-anchor="middle" font-size="11" font-weight="bold" fill="#2e7d32">C</text><text x="672.8000000000001" y="49" font-family="monospace" font-size="11" fill="#333">front/api/order/complete</text><text x="872" y="49" font-size="11" fill="#888">フロント注文完了</text><line x1="628.8000000000001" y1="60" x2="996" y2="60" stroke="#ddd" stroke-width="0.5"/><circle cx="644.8000000000001" cy="76" r="2" fill="#2e7d32"/><text x="652.8000000000001" y="80" font-size="11" fill="#555">fk_receive_order_id</text><circle cx="644.8000000000001" cy="100" r="2" fill="#2e7d32"/><text x="652.8000000000001" y="104" font-size="11" fill="#555">fk_goods_id</text><circle cx="644.8000000000001" cy="124" r="2" fill="#2e7d32"/><text x="652.8000000000001" y="128" font-size="11" fill="#555">goods_amount</text><circle cx="644.8000000000001" cy="148" r="2" fill="#2e7d32"/><text x="652.8000000000001" y="152" font-size="11" fill="#555">stock_status_code</text><rect x="1029.8652880428108" y="219.43471195718956" width="421.79999999999995" height="110" rx="4" fill="#fafafa" stroke="#ddd" stroke-width="1"/><rect x="1041.8652880428108" y="225.43471195718956" width="24" height="18" rx="3" fill="#e8f5e9" stroke="#2e7d32" stroke-width="1"/><text x="1053.8652880428108" y="238.43471195718956" text-anchor="middle" font-size="11" font-weight="bold" fill="#2e7d32">C</text><text x="1073.8652880428108" y="238.43471195718956" font-family="monospace" font-size="11" fill="#333">manage/api/receive_order/regist</text><text x="1327.6652880428107" y="238.43471195718956" font-size="11" fill="#888">管理画面受注登録</text><line x1="1029.8652880428108" y1="249.43471195718956" x2="1451.6652880428107" y2="249.43471195718956" stroke="#ddd" stroke-width="0.5"/><circle cx="1045.8652880428108" cy="265.43471195718956" r="2" fill="#2e7d32"/><text x="1053.8652880428108" y="269.43471195718956" font-size="11" fill="#555">fk_receive_order_id</text><circle cx="1045.8652880428108" cy="289.43471195718956" r="2" fill="#2e7d32"/><text x="1053.8652880428108" y="293.43471195718956" font-size="11" fill="#555">fk_goods_id</text><circle cx="1045.8652880428108" cy="313.43471195718956" r="2" fill="#2e7d32"/><text x="1053.8652880428108" y="317.43471195718956" font-size="11" fill="#555">goods_amount</text><rect x="1229.1000000000004" y="659.8000000000001" width="378.2" height="86" rx="4" fill="#fafafa" stroke="#ddd" stroke-width="1"/><rect x="1241.1000000000004" y="665.8000000000001" width="24" height="18" rx="3" fill="#e3f2fd" stroke="#1565c0" stroke-width="1"/><text x="1253.1000000000004" y="678.8000000000001" text-anchor="middle" font-size="11" font-weight="bold" fill="#1565c0">R</text><text x="1273.1000000000004" y="678.8000000000001" font-family="monospace" font-size="11" fill="#333">front/api/mypage/history_list</text><text x="1511.3000000000004" y="678.8000000000001" font-size="11" fill="#888">購入履歴一覧</text><line x1="1229.1000000000004" y1="689.8000000000001" x2="1607.3000000000004" y2="689.8000000000001" stroke="#ddd" stroke-width="0.5"/><circle cx="1245.1000000000004" cy="705.8000000000001" r="2" fill="#1565c0"/><text x="1253.1000000000004" y="709.8000000000001" font-size="11" fill="#555">goods_amount</text><circle cx="1245.1000000000004" cy="729.8000000000001" r="2" fill="#1565c0"/><text x="1253.1000000000004" y="733.8000000000001" font-size="11" fill="#555">receive_order_status_code</text><rect x="1050.0652880428106" y="1076.1652880428105" width="381.4" height="110" rx="4" fill="#fafafa" stroke="#ddd" stroke-width="1"/><rect x="1062.0652880428106" y="1082.1652880428105" width="24" height="18" rx="3" fill="#e3f2fd" stroke="#1565c0" stroke-width="1"/><text x="1074.0652880428106" y="1095.1652880428105" text-anchor="middle" font-size="11" font-weight="bold" fill="#1565c0">R</text><text x="1094.0652880428106" y="1095.1652880428105" font-family="monospace" font-size="11" fill="#333">manage/screens/receive_order/list</text><text x="1363.4652880428107" y="1095.1652880428105" font-size="11" fill="#888">受注一覧</text><line x1="1050.0652880428106" y1="1106.1652880428105" x2="1431.4652880428107" y2="1106.1652880428105" stroke="#ddd" stroke-width="0.5"/><circle cx="1066.0652880428106" cy="1122.1652880428105" r="2" fill="#1565c0"/><text x="1074.0652880428106" y="1126.1652880428105" font-size="11" fill="#555">goods_amount</text><circle cx="1066.0652880428106" cy="1146.1652880428105" r="2" fill="#1565c0"/><text x="1074.0652880428106" y="1150.1652880428105" font-size="11" fill="#555">stock_status_code</text><circle cx="1066.0652880428106" cy="1170.1652880428105" r="2" fill="#1565c0"/><text x="1074.0652880428106" y="1174.1652880428105" font-size="11" fill="#555">receive_order_status_code</text><rect x="645.1000000000001" y="1265.6000000000001" width="334.6" height="86" rx="4" fill="#fafafa" stroke="#ddd" stroke-width="1"/><rect x="657.1000000000001" y="1271.6000000000001" width="24" height="18" rx="3" fill="#fff8e1" stroke="#f57f17" stroke-width="1"/><text x="669.1000000000001" y="1284.6000000000001" text-anchor="middle" font-size="11" font-weight="bold" fill="#f57f17">U</text><text x="689.1000000000001" y="1284.6000000000001" font-family="monospace" font-size="11" fill="#333">manage/api/send_order/close</text><text x="911.7000000000002" y="1284.6000000000001" font-size="11" fill="#888">出荷締め</text><line x1="645.1000000000001" y1="1295.6000000000001" x2="979.7000000000002" y2="1295.6000000000001" stroke="#ddd" stroke-width="0.5"/><circle cx="661.1000000000001" cy="1311.6000000000001" r="2" fill="#f57f17"/><text x="669.1000000000001" y="1315.6000000000001" font-size="11" fill="#555">receive_order_status_code</text><circle cx="661.1000000000001" cy="1335.6000000000001" r="2" fill="#f57f17"/><text x="669.1000000000001" y="1339.6000000000001" font-size="11" fill="#555">fk_send_order_id</text><rect x="133.0347119571896" y="1088.1652880428105" width="502" height="86" rx="4" fill="#fafafa" stroke="#ddd" stroke-width="1"/><rect x="145.0347119571896" y="1094.1652880428105" width="24" height="18" rx="3" fill="#fff8e1" stroke="#f57f17" stroke-width="1"/><text x="157.0347119571896" y="1107.1652880428105" text-anchor="middle" font-size="11" font-weight="bold" fill="#f57f17">U</text><text x="177.0347119571896" y="1107.1652880428105" font-family="monospace" font-size="11" fill="#333">ks_ec_lsc_ext/batch/import_data_shipping</text><text x="501.0347119571896" y="1107.1652880428105" font-size="11" fill="#888">UMI出荷データ取込</text><line x1="133.0347119571896" y1="1118.1652880428105" x2="635.0347119571895" y2="1118.1652880428105" stroke="#ddd" stroke-width="0.5"/><circle cx="149.0347119571896" cy="1134.1652880428105" r="2" fill="#f57f17"/><text x="157.0347119571896" y="1138.1652880428105" font-size="11" fill="#555">ks_order_goods_status_code</text><circle cx="149.0347119571896" cy="1158.1652880428105" r="2" fill="#f57f17"/><text x="157.0347119571896" y="1162.1652880428105" font-size="11" fill="#555">delivery_reference_number</text><rect x="30.00000000000003" y="659.8000000000002" width="353.2" height="86" rx="4" fill="#fafafa" stroke="#ddd" stroke-width="1"/><rect x="42.00000000000003" y="665.8000000000002" width="24" height="18" rx="3" fill="#fff8e1" stroke="#f57f17" stroke-width="1"/><text x="54.00000000000003" y="678.8000000000002" text-anchor="middle" font-size="11" font-weight="bold" fill="#f57f17">U</text><text x="74.00000000000003" y="678.8000000000002" font-family="monospace" font-size="11" fill="#333">manage/batch/auto_cancel</text><text x="273.20000000000005" y="678.8000000000002" font-size="11" fill="#888">自動キャンセル</text><line x1="30.00000000000003" y1="689.8000000000002" x2="383.20000000000005" y2="689.8000000000002" stroke="#ddd" stroke-width="0.5"/><circle cx="46.00000000000003" cy="705.8000000000002" r="2" fill="#f57f17"/><text x="54.00000000000003" y="709.8000000000002" font-size="11" fill="#555">cancel_code</text><circle cx="46.00000000000003" cy="729.8000000000002" r="2" fill="#f57f17"/><text x="54.00000000000003" y="733.8000000000002" font-size="11" fill="#555">cancel_date</text><rect x="187.1347119571895" y="259.43471195718956" width="393.79999999999995" height="30" rx="4" fill="#fafafa" stroke="#ddd" stroke-width="1"/><rect x="199.1347119571895" y="265.43471195718956" width="24" height="18" rx="3" fill="#ffebee" stroke="#c62828" stroke-width="1"/><text x="211.1347119571895" y="278.43471195718956" text-anchor="middle" font-size="11" font-weight="bold" fill="#c62828">D</text><text x="231.1347119571895" y="278.43471195718956" font-family="monospace" font-size="11" fill="#333">manage/api/receive_order/delete</text><text x="484.9347119571895" y="278.43471195718956" font-size="11" fill="#888">受注一括削除</text></svg>