<svg xmlns="http://www.w3.org/2000/svg" width="942.211325086836" height="690.566581712555" viewBox="0 0 942.211325086836 690.566581712555"><rect width="100%" height="100%" fill="white"/><style>text { font-family: sans-serif; font-size: 13px; fill: #333; }</style><path d="M471.10566254341796,73 C471.10566254341796,181.913316342511 471.10566254341796,327.13107146585907 471.10566254341796,436.04438780837006" fill="none" stroke="#2e7d32" stroke-width="1.5" opacity="0.5"/><path d="M785.511325086836,617.566581712555 C691.1896263238106,563.1099235412995 565.4273613064433,490.50104597962553 471.10566254341796,436.04438780837006" fill="none" stroke="#1565c0" stroke-width="1.5" opacity="0.5"/><path d="M156.7,617.5665817125553 C251.02169876302537,563.1099235412997 376.7839637803926,490.50104597962564 471.10566254341796,436.04438780837006" fill="none" stroke="#c62828" stroke-width="1.5" opacity="0.5"/><rect x="371.10566254341796" y="385.04438780837006" width="200" height="102" fill="#fff" stroke="none"/><line x1="371.10566254341796" y1="385.04438780837006" x2="571.105662543418" y2="385.04438780837006" stroke="#2e7d32" stroke-width="1.5"/><line x1="371.10566254341796" y1="487.04438780837006" x2="571.105662543418" y2="487.04438780837006" stroke="#2e7d32" stroke-width="1.5"/><rect x="371.10566254341796" y="385.04438780837006" width="200" height="32" fill="#e8f5e9"/><line x1="371.10566254341796" y1="417.04438780837006" x2="571.105662543418" y2="417.04438780837006" stroke="#2e7d32" stroke-width="0.5" stroke-dasharray="3,3"/><text x="471.10566254341796" y="407.44438780837004" text-anchor="middle" font-weight="bold" fill="#2e7d32">users</text><rect x="387.10566254341796" y="430.54438780837006" width="18" height="11" rx="2" fill="#fff8e1"/><text x="396.10566254341796" y="437.54438780837006" font-size="7" font-weight="bold" fill="#c8a415" text-anchor="middle">PK</text><text x="409.10566254341796" y="438.54438780837006" font-size="11" fill="#555">id</text><text x="387.10566254341796" y="456.54438780837006" font-size="11" fill="#555">name</text><text x="387.10566254341796" y="474.54438780837006" font-size="11" fill="#555">email</text><rect x="360.005662543418" y="30" width="222.2" height="86" rx="4" fill="#fafafa" stroke="#ddd" stroke-width="1"/><rect x="372.005662543418" y="36" width="24" height="18" rx="3" fill="#e8f5e9" stroke="#2e7d32" stroke-width="1"/><text x="384.005662543418" y="49" text-anchor="middle" font-size="11" font-weight="bold" fill="#2e7d32">C</text><text x="404.005662543418" y="49" font-family="monospace" font-size="11" fill="#333">api/users</text><text x="486.205662543418" y="49" font-size="11" fill="#888">ユーザー作成</text><line x1="360.005662543418" y1="60" x2="582.2056625434179" y2="60" stroke="#ddd" stroke-width="0.5"/><circle cx="376.005662543418" cy="76" r="2" fill="#2e7d32"/><text x="384.005662543418" y="80" font-size="11" fill="#555">name</text><circle cx="376.005662543418" cy="100" r="2" fill="#2e7d32"/><text x="384.005662543418" y="104" font-size="11" fill="#555">email</text><rect x="658.811325086836" y="574.566581712555" width="253.39999999999998" height="86" rx="4" fill="#fafafa" stroke="#ddd" stroke-width="1"/><rect x="670.811325086836" y="580.566581712555" width="24" height="18" rx="3" fill="#e3f2fd" stroke="#1565c0" stroke-width="1"/><text x="682.811325086836" y="593.566581712555" text-anchor="middle" font-size="11" font-weight="bold" fill="#1565c0">R</text><text x="702.811325086836" y="593.566581712555" font-family="monospace" font-size="11" fill="#333">api/users/:id</text><text x="816.2113250868359" y="593.566581712555" font-size="11" fill="#888">ユーザー取得</text><line x1="658.811325086836" y1="604.566581712555" x2="912.2113250868359" y2="604.566581712555" stroke="#ddd" stroke-width="0.5"/><circle cx="674.811325086836" cy="620.566581712555" r="2" fill="#1565c0"/><text x="682.811325086836" y="624.566581712555" font-size="11" fill="#555">name</text><circle cx="674.811325086836" cy="644.566581712555" r="2" fill="#1565c0"/><text x="682.811325086836" y="648.566581712555" font-size="11" fill="#555">email</text><rect x="30" y="602.5665817125553" width="253.39999999999998" height="30" rx="4" fill="#fafafa" stroke="#ddd" stroke-width="1"/><rect x="42" y="608.5665817125553" width="24" height="18" rx="3" fill="#ffebee" stroke="#c62828" stroke-width="1"/><text x="54" y="621.5665817125553" text-anchor="middle" font-size="11" font-weight="bold" fill="#c62828">D</text><text x="74" y="621.5665817125553" font-family="monospace" font-size="11" fill="#333">api/users/:id</text><text x="187.39999999999998" y="621.5665817125553" font-size="11" fill="#888">ユーザー削除</text></svg>