<svg xmlns="http://www.w3.org/2000/svg" width="507" height="134" viewBox="0 0 507 134"><rect width="100%" height="100%" fill="white"/><style>text { font-family: -apple-system, BlinkMacSystemFont, 'Segoe UI', sans-serif; }</style><rect x="1" y="1" width="505" height="132" rx="8" fill="white" stroke="#d0d7de" stroke-width="1"/><g transform="translate(25,19)"><rect x="0" y="0" width="16" height="18" rx="2" fill="none" stroke="#57606a" stroke-width="1.5"/><line x1="5" y1="0" x2="5" y2="18" stroke="#57606a" stroke-width="1.5"/></g><text x="47" y="35" font-size="16"><tspan fill="#0969da">ppdx999</tspan><tspan fill="#57606a"> / </tspan><tspan fill="#0969da" font-weight="bold">mdd</tspan></text><text x="25" y="63" font-size="13" fill="#57606a">Markdown with Diagrams — テキストから図を生成する軽量プリプロセッサ</text><circle cx="30" cy="97" r="5" fill="#dea584"/><text x="39" y="101" font-size="12" fill="#57606a">Rust</text><g transform="translate(84.44,91)"><polygon points="6,0 7.8,4.5 12,4.5 8.7,7.2 9.9,12 6,9.3 2.1,12 3.3,7.2 0,4.5 4.2,4.5" fill="none" stroke="#57606a" stroke-width="1"/></g><text x="100.44" y="101" font-size="12" fill="#57606a">50</text><g transform="translate(131.16,91)" fill="none" stroke="#57606a" stroke-width="1.2"><circle cx="4" cy="3" r="2"/><circle cx="10" cy="3" r="2"/><circle cx="7" cy="11" r="2"/><line x1="4" y1="5" x2="4" y2="7"/><line x1="10" y1="5" x2="10" y2="7"/><path d="M4,7 Q4,9 7,9 Q10,9 10,7"/></g><text x="147.16" y="101" font-size="12" fill="#57606a">5</text><g transform="translate(170.51999999999998,90)" fill="none" stroke="#57606a" stroke-width="1.2"><rect x="0" y="2" width="12" height="10" rx="2"/><line x1="3" y1="5" x2="9" y2="5"/><line x1="3" y1="8" x2="7" y2="8"/></g><text x="186.51999999999998" y="101" font-size="12" fill="#57606a">MIT</text></svg>