<svg xmlns="http://www.w3.org/2000/svg" width="842" height="408" viewBox="0 0 842 408"><rect width="100%" height="100%" fill="white"/><style>text { font-family: sans-serif; font-size: 13px; fill: #333; }</style><rect x="24" y="24" width="384" height="212" rx="6" fill="#fafafa" stroke="#e0e0e0" stroke-width="1"/><text x="36" y="46.4" font-weight="bold" font-size="13" fill="#555">データ連携</text><rect x="28" y="68" width="376" height="36" rx="4" fill="#ffffff" stroke="#eee" stroke-width="0.5"/><rect x="36" y="75" width="84" height="22" rx="4" fill="#e3f2fd" stroke="#1565c0" stroke-width="1"/><text x="78" y="90" text-anchor="middle" font-size="11" font-weight="bold" fill="#1565c0">毎日 2:00</text><text x="154" y="90.55" font-weight="bold" fill="#333">import-orders</text><text x="274" y="90" font-size="12" fill="#666">受注データ取込</text><rect x="28" y="108" width="376" height="36" rx="4" fill="#ffffff" stroke="#eee" stroke-width="0.5"/><rect x="36" y="115" width="84" height="22" rx="4" fill="#e3f2fd" stroke="#1565c0" stroke-width="1"/><text x="78" y="130" text-anchor="middle" font-size="11" font-weight="bold" fill="#1565c0">毎日 3:00</text><text x="154" y="130.55" font-weight="bold" fill="#333">import-inventory</text><text x="298" y="130" font-size="12" fill="#666">在庫データ取込</text><rect x="28" y="148" width="376" height="36" rx="4" fill="#ffffff" stroke="#eee" stroke-width="0.5"/><rect x="36" y="155" width="84" height="22" rx="4" fill="#e3f2fd" stroke="#1565c0" stroke-width="1"/><text x="78" y="170" text-anchor="middle" font-size="11" font-weight="bold" fill="#1565c0">毎日 5:00</text><text x="154" y="170.55" font-weight="bold" fill="#333">export-shipments</text><text x="298" y="170" font-size="12" fill="#666">出荷データ連携</text><rect x="28" y="188" width="376" height="36" rx="4" fill="#ffffff" stroke="#eee" stroke-width="0.5"/><rect x="36" y="195" width="106" height="22" rx="4" fill="#fff8e1" stroke="#f57f17" stroke-width="1"/><text x="89" y="210" text-anchor="middle" font-size="11" font-weight="bold" fill="#f57f17">毎月1日 0:00</text><text x="154" y="210.55" font-weight="bold" fill="#333">import-prices</text><text x="274" y="210" font-size="12" fill="#666">価格マスタ更新</text><rect x="24" y="252" width="384" height="132" rx="6" fill="#fafafa" stroke="#e0e0e0" stroke-width="1"/><text x="36" y="274.4" font-weight="bold" font-size="13" fill="#555">通知</text><rect x="28" y="296" width="376" height="36" rx="4" fill="#ffffff" stroke="#eee" stroke-width="0.5"/><rect x="36" y="303" width="52" height="22" rx="4" fill="#ffebee" stroke="#c62828" stroke-width="1"/><text x="62" y="318" text-anchor="middle" font-size="11" font-weight="bold" fill="#c62828">5分毎</text><text x="154" y="318.55" font-weight="bold" fill="#333">alert-errors</text><text x="266" y="318" font-size="12" fill="#666">エラー検知</text><rect x="28" y="336" width="376" height="36" rx="4" fill="#ffffff" stroke="#eee" stroke-width="0.5"/><rect x="36" y="343" width="84" height="22" rx="4" fill="#e3f2fd" stroke="#1565c0" stroke-width="1"/><text x="78" y="358" text-anchor="middle" font-size="11" font-weight="bold" fill="#1565c0">毎日 8:00</text><text x="154" y="358.55" font-weight="bold" fill="#333">daily-digest</text><text x="266" y="358" font-size="12" fill="#666">日次サマリーメール</text><rect x="428" y="24" width="390" height="172" rx="6" fill="#fafafa" stroke="#e0e0e0" stroke-width="1"/><text x="440" y="46.4" font-weight="bold" font-size="13" fill="#555">集計・レポート</text><rect x="432" y="68" width="382" height="36" rx="4" fill="#ffffff" stroke="#eee" stroke-width="0.5"/><rect x="440" y="75" width="84" height="22" rx="4" fill="#e3f2fd" stroke="#1565c0" stroke-width="1"/><text x="482" y="90" text-anchor="middle" font-size="11" font-weight="bold" fill="#1565c0">毎日 6:00</text><text x="558" y="90.55" font-weight="bold" fill="#333">calc-sales</text><text x="654" y="90" font-size="12" fill="#666">売上日次集計</text><rect x="432" y="108" width="382" height="36" rx="4" fill="#ffffff" stroke="#eee" stroke-width="0.5"/><rect x="440" y="115" width="98" height="22" rx="4" fill="#f3e5f5" stroke="#7b1fa2" stroke-width="1"/><text x="489" y="130" text-anchor="middle" font-size="11" font-weight="bold" fill="#7b1fa2">毎週月 9:00</text><text x="558" y="130.55" font-weight="bold" fill="#333">weekly-report</text><text x="678" y="130" font-size="12" fill="#666">週次レポート生成</text><rect x="432" y="148" width="382" height="36" rx="4" fill="#ffffff" stroke="#eee" stroke-width="0.5"/><rect x="440" y="155" width="106" height="22" rx="4" fill="#fff8e1" stroke="#f57f17" stroke-width="1"/><text x="493" y="170" text-anchor="middle" font-size="11" font-weight="bold" fill="#f57f17">毎月1日 0:00</text><text x="558" y="170.55" font-weight="bold" fill="#333">calc-commission</text><text x="694" y="170" font-size="12" fill="#666">手数料月次計算</text><rect x="428" y="212" width="390" height="172" rx="6" fill="#fafafa" stroke="#e0e0e0" stroke-width="1"/><text x="440" y="234.4" font-weight="bold" font-size="13" fill="#555">メンテナンス</text><rect x="432" y="256" width="382" height="36" rx="4" fill="#ffffff" stroke="#eee" stroke-width="0.5"/><rect x="440" y="263" width="60" height="22" rx="4" fill="#ffebee" stroke="#c62828" stroke-width="1"/><text x="470" y="278" text-anchor="middle" font-size="11" font-weight="bold" fill="#c62828">10分毎</text><text x="558" y="278.55" font-weight="bold" fill="#333">health-check</text><text x="670" y="278" font-size="12" fill="#666">死活監視</text><rect x="432" y="296" width="382" height="36" rx="4" fill="#ffffff" stroke="#eee" stroke-width="0.5"/><rect x="440" y="303" width="84" height="22" rx="4" fill="#e3f2fd" stroke="#1565c0" stroke-width="1"/><text x="482" y="318" text-anchor="middle" font-size="11" font-weight="bold" fill="#1565c0">毎日 4:00</text><text x="558" y="318.55" font-weight="bold" fill="#333">cleanup-logs</text><text x="670" y="318" font-size="12" fill="#666">ログローテーション</text><rect x="432" y="336" width="382" height="36" rx="4" fill="#ffffff" stroke="#eee" stroke-width="0.5"/><rect x="440" y="343" width="84" height="22" rx="4" fill="#e3f2fd" stroke="#1565c0" stroke-width="1"/><text x="482" y="358" text-anchor="middle" font-size="11" font-weight="bold" fill="#1565c0">毎日 3:00</text><text x="558" y="358.55" font-weight="bold" fill="#333">backup-db</text><text x="646" y="358" font-size="12" fill="#666">DBバックアップ</text></svg>