<svg xmlns="http://www.w3.org/2000/svg" width="612" height="340" viewBox="0 0 612 340"><rect width="100%" height="100%" fill="white"/><style>text { font-family: sans-serif; font-size: 13px; fill: #333; }</style><text x="306" y="44" text-anchor="middle" font-size="18" font-weight="bold">料金プラン</text><rect x="24" y="64" width="180" height="252" rx="8" fill="white" stroke="#e0e0e0" stroke-width="1"/><rect x="24" y="64" width="180" height="80" rx="8" fill="#f5f5f5"/><rect x="24" y="128" width="180" height="16" fill="#f5f5f5"/><text x="114" y="94" text-anchor="middle" font-size="15" font-weight="bold" fill="#333">Free</text><text x="114" y="124" text-anchor="middle" font-size="20" font-weight="bold" fill="#333">¥0/月</text><text x="40" y="174" font-size="12" fill="#555">✓ ユーザー5人まで</text><text x="40" y="202" font-size="12" fill="#555">✓ ストレージ 1GB</text><text x="40" y="230" font-size="12" fill="#555">✓ メールサポート</text><rect x="216" y="64" width="180" height="252" rx="8" fill="white" stroke="#1565c0" stroke-width="2"/><rect x="216" y="64" width="180" height="80" rx="8" fill="#1565c0"/><rect x="216" y="128" width="180" height="16" fill="#1565c0"/><text x="306" y="94" text-anchor="middle" font-size="15" font-weight="bold" fill="white">Pro</text><text x="306" y="124" text-anchor="middle" font-size="20" font-weight="bold" fill="white">¥2,980/月</text><text x="232" y="174" font-size="12" fill="#555">✓ ユーザー無制限</text><text x="232" y="202" font-size="12" fill="#555">✓ ストレージ 100GB</text><text x="232" y="230" font-size="12" fill="#555">✓ チャットサポート</text><text x="232" y="258" font-size="12" fill="#555">✓ API利用可</text><text x="232" y="286" font-size="12" fill="#555">✓ カスタムドメイン</text><rect x="408" y="64" width="180" height="252" rx="8" fill="white" stroke="#e0e0e0" stroke-width="1"/><rect x="408" y="64" width="180" height="80" rx="8" fill="#f5f5f5"/><rect x="408" y="128" width="180" height="16" fill="#f5f5f5"/><text x="498" y="94" text-anchor="middle" font-size="15" font-weight="bold" fill="#333">Enterprise</text><text x="498" y="124" text-anchor="middle" font-size="20" font-weight="bold" fill="#333">お問い合わせ</text><text x="424" y="174" font-size="12" fill="#555">✓ 全Pro機能</text><text x="424" y="202" font-size="12" fill="#555">✓ 専任サポート</text><text x="424" y="230" font-size="12" fill="#555">✓ SLA 99.99%</text><text x="424" y="258" font-size="12" fill="#555">✓ オンプレミス対応</text><text x="424" y="286" font-size="12" fill="#555">✓ セキュリティ監査</text></svg>