<svg xmlns="http://www.w3.org/2000/svg" width="444" height="324" viewBox="0 0 444 324"><rect width="100%" height="100%" fill="white"/><style>text { font-family: sans-serif; font-size: 13px; fill: #333; }</style><text x="222" y="58" text-anchor="middle" font-size="16" font-weight="bold">リリースチェックリスト</text><rect x="40" y="80" width="176" height="60" rx="6" fill="#e3f2fd" stroke="#e0e0e0" stroke-width="1"/><rect x="40" y="80" width="4" height="60" rx="3" fill="#1565c0"/><rect x="42" y="80" width="2" height="60" fill="#1565c0"/><text x="60" y="115" font-weight="bold" fill="#1565c0">コードレビュー完了</text><rect x="228" y="80" width="176" height="60" rx="6" fill="#e8f5e9" stroke="#e0e0e0" stroke-width="1"/><rect x="228" y="80" width="4" height="60" rx="3" fill="#2e7d32"/><rect x="230" y="80" width="2" height="60" fill="#2e7d32"/><text x="248" y="115" font-weight="bold" fill="#2e7d32">テスト全件パス</text><rect x="40" y="152" width="176" height="60" rx="6" fill="#fff8e1" stroke="#e0e0e0" stroke-width="1"/><rect x="40" y="152" width="4" height="60" rx="3" fill="#f57f17"/><rect x="42" y="152" width="2" height="60" fill="#f57f17"/><text x="60" y="187" font-weight="bold" fill="#f57f17">ドキュメント更新</text><rect x="228" y="152" width="176" height="60" rx="6" fill="#f3e5f5" stroke="#e0e0e0" stroke-width="1"/><rect x="228" y="152" width="4" height="60" rx="3" fill="#7b1fa2"/><rect x="230" y="152" width="2" height="60" fill="#7b1fa2"/><text x="248" y="187" font-weight="bold" fill="#7b1fa2">ステージング検証</text><rect x="40" y="224" width="176" height="60" rx="6" fill="#e0f2f1" stroke="#e0e0e0" stroke-width="1"/><rect x="40" y="224" width="4" height="60" rx="3" fill="#00695c"/><rect x="42" y="224" width="2" height="60" fill="#00695c"/><text x="60" y="259" font-weight="bold" fill="#00695c">セキュリティチェック</text><rect x="228" y="224" width="176" height="60" rx="6" fill="#fce4ec" stroke="#e0e0e0" stroke-width="1"/><rect x="228" y="224" width="4" height="60" rx="3" fill="#c62828"/><rect x="230" y="224" width="2" height="60" fill="#c62828"/><text x="248" y="259" font-weight="bold" fill="#c62828">パフォーマンステスト</text></svg>