<svg xmlns="http://www.w3.org/2000/svg" width="584" height="282" viewBox="0 0 584 282"><rect width="100%" height="100%" fill="white"/><style>text { font-family: sans-serif; font-size: 13px; fill: #333; }</style><text x="292" y="58" text-anchor="middle" font-size="16" font-weight="bold">開発ツール</text><rect x="40" y="80" width="160" height="75" rx="6" fill="#e3f2fd" stroke="#e0e0e0" stroke-width="1"/><rect x="40" y="80" width="4" height="75" rx="3" fill="#1565c0"/><rect x="42" y="80" width="2" height="75" fill="#1565c0"/><text x="60" y="113.5" font-weight="bold" fill="#1565c0">VS Code</text><text x="60" y="130.5" font-size="11" fill="#333">コードエディタ</text><rect x="212" y="80" width="160" height="75" rx="6" fill="#e8f5e9" stroke="#e0e0e0" stroke-width="1"/><rect x="212" y="80" width="4" height="75" rx="3" fill="#2e7d32"/><rect x="214" y="80" width="2" height="75" fill="#2e7d32"/><text x="232" y="113.5" font-weight="bold" fill="#2e7d32">Git</text><text x="232" y="130.5" font-size="11" fill="#333">バージョン管理</text><rect x="384" y="80" width="160" height="75" rx="6" fill="#fff8e1" stroke="#e0e0e0" stroke-width="1"/><rect x="384" y="80" width="4" height="75" rx="3" fill="#f57f17"/><rect x="386" y="80" width="2" height="75" fill="#f57f17"/><text x="404" y="113.5" font-weight="bold" fill="#f57f17">Docker</text><text x="404" y="130.5" font-size="11" fill="#333">コンテナ化</text><rect x="40" y="167" width="160" height="75" rx="6" fill="#f3e5f5" stroke="#e0e0e0" stroke-width="1"/><rect x="40" y="167" width="4" height="75" rx="3" fill="#7b1fa2"/><rect x="42" y="167" width="2" height="75" fill="#7b1fa2"/><text x="60" y="200.5" font-weight="bold" fill="#7b1fa2">Slack</text><text x="60" y="217.5" font-size="11" fill="#333">コミュニケーション</text><rect x="212" y="167" width="160" height="75" rx="6" fill="#e0f2f1" stroke="#e0e0e0" stroke-width="1"/><rect x="212" y="167" width="4" height="75" rx="3" fill="#00695c"/><rect x="214" y="167" width="2" height="75" fill="#00695c"/><text x="232" y="200.5" font-weight="bold" fill="#00695c">Jira</text><text x="232" y="217.5" font-size="11" fill="#333">プロジェクト管理</text><rect x="384" y="167" width="160" height="75" rx="6" fill="#fce4ec" stroke="#e0e0e0" stroke-width="1"/><rect x="384" y="167" width="4" height="75" rx="3" fill="#c62828"/><rect x="386" y="167" width="2" height="75" fill="#c62828"/><text x="404" y="200.5" font-weight="bold" fill="#c62828">Figma</text><text x="404" y="217.5" font-size="11" fill="#333">デザインツール</text></svg>