<svg xmlns="http://www.w3.org/2000/svg" width="520" height="360" viewBox="0 0 520 360"><rect width="100%" height="100%" fill="white"/><style>text { font-family: sans-serif; font-size: 12px; fill: #333; }</style><text x="160" y="46" text-anchor="middle" font-size="16" font-weight="bold">市場シェア</text><path d="M160,200 L160,80 A120,120 0 0,1 257.08203932499373,270.5342302750968 Z" fill="#1565c0" stroke="white" stroke-width="2"/><text x="229.4985088866927" y="168.58874102031535" text-anchor="middle" font-size="11" font-weight="bold" fill="white">35%</text><path d="M160,200 L257.08203932499373,270.5342302750968 A120,120 0 0,1 89.46576972490324,297.08203932499373 Z" fill="#2e7d32" stroke="white" stroke-width="2"/><text x="172.20188827313802" y="281.03969056642075" text-anchor="middle" font-size="11" font-weight="bold" fill="white">25%</text><path d="M160,200 L89.46576972490324,297.08203932499373 A120,120 0 0,1 45.87321804458156,162.91796067500633 Z" fill="#f57f17" stroke="white" stroke-width="2"/><text x="85.81759172897803" y="228.1033255612459" text-anchor="middle" font-size="11" font-weight="bold" fill="white">20%</text><path d="M160,200 L45.87321804458156,162.91796067500633 A120,120 0 0,1 159.99999999999997,80 Z" fill="#7b1fa2" stroke="white" stroke-width="2"/><text x="114.15275032118709" y="140.8966744387541" text-anchor="middle" font-size="11" font-weight="bold" fill="white">20%</text><rect x="320" y="146" width="14" height="14" rx="3" fill="#1565c0"/><text x="340" y="156" font-size="12">自社</text><rect x="320" y="168" width="14" height="14" rx="3" fill="#2e7d32"/><text x="340" y="178" font-size="12">競合A</text><rect x="320" y="190" width="14" height="14" rx="3" fill="#f57f17"/><text x="340" y="200" font-size="12">競合B</text><rect x="320" y="212" width="14" height="14" rx="3" fill="#7b1fa2"/><text x="340" y="222" font-size="12">その他</text></svg>