<svg xmlns="http://www.w3.org/2000/svg" width="700" height="170" viewBox="0 0 700 170"><rect width="100%" height="100%" fill="white"/><style>text { font-family: sans-serif; font-size: 13px; fill: #333; }</style><text x="350" y="58" text-anchor="middle" font-size="16" font-weight="bold">採用プロセス</text><rect x="40" y="80" width="100" height="50" rx="8" fill="#e3f2fd" stroke="#1565c0" stroke-width="2"/><text x="90" y="110" text-anchor="middle" fill="#1565c0" font-weight="bold">書類選考</text><line x1="144" y1="105" x2="160" y2="105" stroke="#333" stroke-width="2"/><polygon points="166,105 158,100 158,110" fill="#333"/><rect x="170" y="80" width="100" height="50" rx="8" fill="#e8f5e9" stroke="#2e7d32" stroke-width="2"/><text x="220" y="110" text-anchor="middle" fill="#2e7d32" font-weight="bold">一次面接</text><line x1="274" y1="105" x2="290" y2="105" stroke="#333" stroke-width="2"/><polygon points="296,105 288,100 288,110" fill="#333"/><rect x="300" y="80" width="100" height="50" rx="8" fill="#fff8e1" stroke="#f57f17" stroke-width="2"/><text x="350" y="110" text-anchor="middle" fill="#f57f17" font-weight="bold">二次面接</text><line x1="404" y1="105" x2="420" y2="105" stroke="#333" stroke-width="2"/><polygon points="426,105 418,100 418,110" fill="#333"/><rect x="430" y="80" width="100" height="50" rx="8" fill="#f3e5f5" stroke="#7b1fa2" stroke-width="2"/><text x="480" y="110" text-anchor="middle" fill="#7b1fa2" font-weight="bold">最終面接</text><line x1="534" y1="105" x2="550" y2="105" stroke="#333" stroke-width="2"/><polygon points="556,105 548,100 548,110" fill="#333"/><rect x="560" y="80" width="100" height="50" rx="8" fill="#e0f2f1" stroke="#00695c" stroke-width="2"/><text x="610" y="110" text-anchor="middle" fill="#00695c" font-weight="bold">内定</text></svg>