<svg xmlns="http://www.w3.org/2000/svg" width="700" height="130" viewBox="0 0 700 130"><rect width="100%" height="100%" fill="white"/><style>text { font-family: sans-serif; font-size: 13px; fill: #333; }</style><rect x="40" y="40" width="100" height="50" rx="8" fill="#e3f2fd" stroke="#1565c0" stroke-width="2"/><text x="90" y="70" text-anchor="middle" fill="#1565c0" font-weight="bold">企画</text><line x1="144" y1="65" x2="160" y2="65" stroke="#333" stroke-width="2"/><polygon points="166,65 158,60 158,70" fill="#333"/><rect x="170" y="40" width="100" height="50" rx="8" fill="#e8f5e9" stroke="#2e7d32" stroke-width="2"/><text x="220" y="70" text-anchor="middle" fill="#2e7d32" font-weight="bold">設計</text><line x1="274" y1="65" x2="290" y2="65" stroke="#333" stroke-width="2"/><polygon points="296,65 288,60 288,70" fill="#333"/><rect x="300" y="40" width="100" height="50" rx="8" fill="#fff8e1" stroke="#f57f17" stroke-width="2"/><text x="350" y="70" text-anchor="middle" fill="#f57f17" font-weight="bold">実装</text><line x1="404" y1="65" x2="420" y2="65" stroke="#333" stroke-width="2"/><polygon points="426,65 418,60 418,70" fill="#333"/><rect x="430" y="40" width="100" height="50" rx="8" fill="#f3e5f5" stroke="#7b1fa2" stroke-width="2"/><text x="480" y="70" text-anchor="middle" fill="#7b1fa2" font-weight="bold">テスト</text><line x1="534" y1="65" x2="550" y2="65" stroke="#333" stroke-width="2"/><polygon points="556,65 548,60 548,70" fill="#333"/><rect x="560" y="40" width="100" height="50" rx="8" fill="#e0f2f1" stroke="#00695c" stroke-width="2"/><text x="610" y="70" text-anchor="middle" fill="#00695c" font-weight="bold">リリース</text></svg>