<svg xmlns="http://www.w3.org/2000/svg" width="705.8461538461538" height="168" viewBox="0 0 705.8461538461538 168"><rect width="100%" height="100%" fill="white"/><style>text { font-family: sans-serif; font-size: 13px; fill: #333; }</style><rect x="40" y="40" width="100" height="50" rx="8" fill="#e3f2fd" stroke="#1565c0" stroke-width="2"/><text x="90" y="70" text-anchor="middle" fill="#1565c0" font-weight="bold">企画</text><text x="90" y="106.8" text-anchor="middle" font-size="11" fill="#666">要件定義</text><text x="90" y="121.8" text-anchor="middle" font-size="11" fill="#666">スコープ決定</text><line x1="144" y1="65" x2="160" y2="65" stroke="#333" stroke-width="2"/><polygon points="166,65 158,60 158,70" fill="#333"/><rect x="170" y="40" width="102.92307692307692" height="50" rx="8" fill="#e8f5e9" stroke="#2e7d32" stroke-width="2"/><text x="221.46153846153845" y="70" text-anchor="middle" fill="#2e7d32" font-weight="bold">設計</text><text x="221.46153846153845" y="106.8" text-anchor="middle" font-size="11" fill="#666">アーキテクチャ</text><text x="221.46153846153845" y="121.8" text-anchor="middle" font-size="11" fill="#666">DB設計</text><line x1="276.9230769230769" y1="65" x2="292.9230769230769" y2="65" stroke="#333" stroke-width="2"/><polygon points="298.9230769230769,65 290.9230769230769,60 290.9230769230769,70" fill="#333"/><rect x="302.9230769230769" y="40" width="102.92307692307692" height="50" rx="8" fill="#fff8e1" stroke="#f57f17" stroke-width="2"/><text x="354.38461538461536" y="70" text-anchor="middle" fill="#f57f17" font-weight="bold">実装</text><text x="354.38461538461536" y="106.8" text-anchor="middle" font-size="11" fill="#666">コーディング</text><text x="354.38461538461536" y="121.8" text-anchor="middle" font-size="11" fill="#666">コードレビュー</text><line x1="409.8461538461538" y1="65" x2="425.8461538461538" y2="65" stroke="#333" stroke-width="2"/><polygon points="431.8461538461538,65 423.8461538461538,60 423.8461538461538,70" fill="#333"/><rect x="435.8461538461538" y="40" width="100" height="50" rx="8" fill="#f3e5f5" stroke="#7b1fa2" stroke-width="2"/><text x="485.8461538461538" y="70" text-anchor="middle" fill="#7b1fa2" font-weight="bold">テスト</text><text x="485.8461538461538" y="106.8" text-anchor="middle" font-size="11" fill="#666">単体テスト</text><text x="485.8461538461538" y="121.8" text-anchor="middle" font-size="11" fill="#666">結合テスト</text><line x1="539.8461538461538" y1="65" x2="555.8461538461538" y2="65" stroke="#333" stroke-width="2"/><polygon points="561.8461538461538,65 553.8461538461538,60 553.8461538461538,70" fill="#333"/><rect x="565.8461538461538" y="40" width="100" height="50" rx="8" fill="#e0f2f1" stroke="#00695c" stroke-width="2"/><text x="615.8461538461538" y="70" text-anchor="middle" fill="#00695c" font-weight="bold">リリース</text><text x="615.8461538461538" y="106.8" text-anchor="middle" font-size="11" fill="#666">デプロイ</text><text x="615.8461538461538" y="121.8" text-anchor="middle" font-size="11" fill="#666">監視開始</text></svg>