<svg xmlns="http://www.w3.org/2000/svg" width="600" height="352" viewBox="0 0 600 352"><rect width="100%" height="100%" fill="white"/><style>text { font-family: sans-serif; font-size: 13px; fill: #333; }</style><text x="300" y="58" text-anchor="middle" font-size="16" font-weight="bold">新サービスのアイデア</text><rect x="202" y="172" width="140" height="48" rx="12" fill="#e8eaf6" stroke="#283593" stroke-width="2"/><text x="272" y="201" text-anchor="middle" font-size="15" font-weight="bold">新サービス</text><path d="M 342,196 C 372,196 372,96 402,96" fill="none" stroke="#1565c0" stroke-width="2"/><rect x="402" y="80" width="94" height="32" rx="6" fill="#e3f2fd" stroke="#1565c0" stroke-width="1.5"/><text x="449" y="101" text-anchor="middle" font-weight="bold">ターゲット</text><line x1="410" y1="112" x2="418" y2="136" stroke="#1565c0" stroke-width="1.5"/><rect x="418" y="124" width="80" height="24" rx="4" fill="#e3f2fd" stroke="#1565c0" stroke-width="1" opacity="0.7"/><text x="458" y="140" text-anchor="middle" font-size="12">若年層</text><line x1="410" y1="112" x2="418" y2="164" stroke="#1565c0" stroke-width="1.5"/><rect x="418" y="152" width="100" height="24" rx="4" fill="#e3f2fd" stroke="#1565c0" stroke-width="1" opacity="0.7"/><text x="468" y="168" text-anchor="middle" font-size="12">ビジネスマン</text><path d="M 342,196 C 372,196 372,204 402,204" fill="none" stroke="#f57f17" stroke-width="2"/><rect x="402" y="188" width="94" height="32" rx="6" fill="#fff8e1" stroke="#f57f17" stroke-width="1.5"/><text x="449" y="209" text-anchor="middle" font-weight="bold">マネタイズ</text><line x1="410" y1="220" x2="418" y2="244" stroke="#f57f17" stroke-width="1.5"/><rect x="418" y="232" width="142" height="24" rx="4" fill="#fff8e1" stroke="#f57f17" stroke-width="1" opacity="0.7"/><text x="489" y="248" text-anchor="middle" font-size="12">サブスクリプション</text><line x1="410" y1="220" x2="418" y2="272" stroke="#f57f17" stroke-width="1.5"/><rect x="418" y="260" width="80" height="24" rx="4" fill="#fff8e1" stroke="#f57f17" stroke-width="1" opacity="0.7"/><text x="458" y="276" text-anchor="middle" font-size="12">広告</text><line x1="410" y1="220" x2="418" y2="300" stroke="#f57f17" stroke-width="1.5"/><rect x="418" y="288" width="100" height="24" rx="4" fill="#fff8e1" stroke="#f57f17" stroke-width="1" opacity="0.7"/><text x="468" y="304" text-anchor="middle" font-size="12">フリーミアム</text><path d="M 202,196 C 172,196 172,150 142,150" fill="none" stroke="#2e7d32" stroke-width="2"/><rect x="62" y="134" width="80" height="32" rx="6" fill="#e8f5e9" stroke="#2e7d32" stroke-width="1.5"/><text x="102" y="155" text-anchor="middle" font-weight="bold">機能</text><line x1="134" y1="166" x2="126" y2="190" stroke="#2e7d32" stroke-width="1.5"/><rect x="46" y="178" width="80" height="24" rx="4" fill="#e8f5e9" stroke="#2e7d32" stroke-width="1" opacity="0.7"/><text x="86" y="194" text-anchor="middle" font-size="12">チャット</text><line x1="134" y1="166" x2="126" y2="218" stroke="#2e7d32" stroke-width="1.5"/><rect x="46" y="206" width="80" height="24" rx="4" fill="#e8f5e9" stroke="#2e7d32" stroke-width="1" opacity="0.7"/><text x="86" y="222" text-anchor="middle" font-size="12">動画配信</text><line x1="134" y1="166" x2="132" y2="246" stroke="#2e7d32" stroke-width="1.5"/><rect x="46" y="234" width="86" height="24" rx="4" fill="#e8f5e9" stroke="#2e7d32" stroke-width="1" opacity="0.7"/><text x="89" y="250" text-anchor="middle" font-size="12">マッチング</text></svg>