<svg xmlns="http://www.w3.org/2000/svg" width="1226.0447972540633" height="1122.52838173746" viewBox="0 0 1226.0447972540633 1122.52838173746"><rect width="100%" height="100%" fill="white"/><style>text { font-family: sans-serif; font-size: 13px; fill: #333; }</style><path d="M 664.9792072574501,465.20940510036485 C 752.5274451899937,393.2489167563928 796.3015641562656,357.26867258440683 883.8498020888093,285.3081842404348" fill="none" stroke="#1565c0" stroke-width="2.5"/><path d="M 907.240069486159,256.3081842404348 C 936.9476341130347,181.3849105442609 951.8014164264727,143.9232736961739 981.5089810533484,69" fill="none" stroke="#1565c0" stroke-width="1.5"/><path d="M 950.4907253125915,261.9134767875249 C 999.9123540891802,252.94223332193172 1024.6231684774746,248.4566115891351 1074.0447972540633,239.4853681235419" fill="none" stroke="#1565c0" stroke-width="1.5"/><path d="M 649.9930260177701,496.20940510036485 C 681.8741932579236,623.8540640312558 697.8147768780004,687.6763934967012 729.6959441181539,815.3210524275921" fill="none" stroke="#2e7d32" stroke-width="2.5"/><path d="M 763.3175365048162,842.8916705059418 C 822.5890462279225,868.7155127232054 852.2248010894756,881.6274338318372 911.4963108125819,907.4512760491008" fill="none" stroke="#2e7d32" stroke-width="1.5"/><path d="M 736.9329272903884,844.3210524275921 C 757.7982031706937,928.0039841515393 768.2308411108463,969.8454500135128 789.0961169911516,1053.52838173746" fill="none" stroke="#2e7d32" stroke-width="1.5"/><path d="M 721.7345694133365,844.3210524275921 C 673.5528020540196,904.6368265459532 649.4619183743612,934.7947136051337 601.2801510150442,995.1104877234948" fill="none" stroke="#2e7d32" stroke-width="1.5"/><path d="M 613.8013851648763,465.20940510036485 C 509.1722945306278,415.0319087880859 456.85774921350367,389.9431606319464 352.22865857925524,339.76566431966745" fill="none" stroke="#f57f17" stroke-width="2.5"/><path d="M 293.4975004264729,339.76566431966745 C 234.29692195896587,369.88942742089546 204.69663272521234,384.95130897150943 145.49605425770525,415.07507207273744" fill="none" stroke="#f57f17" stroke-width="1.5"/><path d="M 291.7717682099487,310.76566431966745 C 227.36803629368387,279.8656341847134 195.16617033555144,264.4156191172363 130.76243841928664,233.5155889822822" fill="none" stroke="#f57f17" stroke-width="1.5"/><path d="M 318.9328304973129,310.76566431966745 C 302.3265873319887,232.09456846250725 294.02346574932665,192.75902053392713 277.41722258400245,114.08792467676693" fill="none" stroke="#f57f17" stroke-width="1.5"/><rect x="591.7370532543089" y="465.20940510036485" width="108.76923076923076" height="31" rx="14" fill="#e8eaf6" stroke="#283593" stroke-width="2.5"/>
<text x="646.1216686389242" y="485.95940510036485" text-anchor="middle" font-size="15" font-weight="bold">新サービス</text>
<rect x="852.4907253125915" y="256.3081842404348" width="98" height="29" rx="6" fill="#e3f2fd" stroke="#1565c0" stroke-width="1.5"/>
<text x="901.4907253125915" y="275.3581842404348" text-anchor="middle" font-size="13" font-weight="bold">ターゲット</text>
<rect x="952.2583252269159" y="40" width="70" height="29" rx="6" fill="#e3f2fd" stroke="#1565c0" stroke-width="1.5" opacity="0.8"/>
<text x="987.2583252269159" y="59.05" text-anchor="middle" font-size="13">若年層</text>
<rect x="1074.0447972540633" y="214.8199881773592" width="112" height="29" rx="6" fill="#e3f2fd" stroke="#1565c0" stroke-width="1.5" opacity="0.8"/>
<text x="1130.0447972540633" y="233.8699881773592" text-anchor="middle" font-size="13">ビジネスマン</text>
<rect x="703.3175365048162" y="815.3210524275921" width="60" height="29" rx="6" fill="#e8f5e9" stroke="#2e7d32" stroke-width="1.5"/>
<text x="733.3175365048162" y="834.3710524275921" text-anchor="middle" font-size="13" font-weight="bold">機能</text>
<rect x="902.7770629080426" y="907.4512760491008" width="84" height="29" rx="6" fill="#e8f5e9" stroke="#2e7d32" stroke-width="1.5" opacity="0.8"/>
<text x="944.7770629080426" y="926.5012760491007" text-anchor="middle" font-size="13">チャット</text>
<rect x="750.7115077767238" y="1053.52838173746" width="84" height="29" rx="6" fill="#e8f5e9" stroke="#2e7d32" stroke-width="1.5" opacity="0.8"/>
<text x="792.7115077767238" y="1072.57838173746" text-anchor="middle" font-size="13">動画配信</text>
<rect x="540.6971839235646" y="995.1104877234948" width="98" height="29" rx="6" fill="#e8f5e9" stroke="#2e7d32" stroke-width="1.5" opacity="0.8"/>
<text x="589.6971839235646" y="1014.1604877234947" text-anchor="middle" font-size="13">マッチング</text>
<rect x="272.99355468417815" y="310.76566431966745" width="98" height="29" rx="6" fill="#fff8e1" stroke="#f57f17" stroke-width="1.5"/>
<text x="321.99355468417815" y="329.81566431966746" text-anchor="middle" font-size="13" font-weight="bold">マネタイズ</text>
<rect x="40" y="415.07507207273744" width="154" height="29" rx="6" fill="#fff8e1" stroke="#f57f17" stroke-width="1.5" opacity="0.8"/>
<text x="117" y="434.12507207273745" text-anchor="middle" font-size="13">サブスクリプション</text>
<rect x="70.76243841928664" y="204.62199910066053" width="60" height="29" rx="6" fill="#fff8e1" stroke="#f57f17" stroke-width="1.5" opacity="0.8"/>
<text x="100.76243841928664" y="223.67199910066054" text-anchor="middle" font-size="13">広告</text>
<rect x="218.35649839713722" y="85.08792467676693" width="112" height="29" rx="6" fill="#fff8e1" stroke="#f57f17" stroke-width="1.5" opacity="0.8"/>
<text x="274.3564983971372" y="104.13792467676693" text-anchor="middle" font-size="13">フリーミアム</text>
</svg>