<svg xmlns="http://www.w3.org/2000/svg" width="633.8987584658332" height="526.572181326114" viewBox="0 0 633.8987584658332 526.572181326114"><rect width="100%" height="100%" fill="white"/><style>text { font-family: sans-serif; font-size: 13px; fill: #333; }</style><path d="M 343.88811731119534,244.67358660321452 C 360.2693620389695,230.47915724540312 368.45998440285666,223.38194256649743 384.84122913063084,209.18751320868603" fill="none" stroke="#1565c0" stroke-width="2.5"/><path d="M 402.51007781180596,180.18751320868603 C 404.7653305710294,145.21138293813596 405.89295695064106,127.72331780286092 408.1482097098645,92.74718753231085" fill="none" stroke="#1565c0" stroke-width="1.5"/><path d="M 450.5751211783595,198.5374490405508 C 455.104576093349,198.89332885230658 457.3693035508437,199.0712687581845 461.8987584658332,199.42714856994027" fill="none" stroke="#1565c0" stroke-width="1.5"/><path d="M 330.5513743834784,275.6735866032145 C 338.2971587418752,302.0533055477944 342.17005092107354,315.24316502008435 349.91583527947034,341.62288396466425" fill="none" stroke="#2e7d32" stroke-width="2.5"/><path d="M 384.1734194270767,356.9607764692615 C 413.38614945617456,357.77668072026825 427.99251447072356,358.18463284577166 457.20524449982145,359.00053709677843" fill="none" stroke="#2e7d32" stroke-width="1.5"/><path d="M 358.431003574683,370.62288396466425 C 366.29423853025514,397.40260290924414 370.2258560080412,410.7924623815341 378.08909096361333,437.572181326114" fill="none" stroke="#2e7d32" stroke-width="1.5"/><path d="M 332.938806879935,370.62288396466425 C 301.9990729057983,391.75000091247824 286.52920591873,402.31355938638524 255.58947194459333,423.4406763341992" fill="none" stroke="#2e7d32" stroke-width="1.5"/><path d="M 292.0598980165936,244.67358660321452 C 281.95095295828907,240.05698608313907 276.8964804291368,237.74868582310137 266.78753537083225,233.13208530302592" fill="none" stroke="#f57f17" stroke-width="2.5"/><path d="M 221.74600322257254,233.13208530302592 C 193.16398632750725,264.3141228884951 178.8729778799746,279.9051416812297 150.2909609849093,311.08717926669885" fill="none" stroke="#f57f17" stroke-width="1.5"/><path d="M 203.28639304413144,204.13208530302592 C 191.60134169529087,198.79570115779313 185.75881602087057,196.1275090851767 174.07376467203,190.79112493994393" fill="none" stroke="#f57f17" stroke-width="1.5"/><path d="M 236.710049498256,204.13208530302592 C 242.02386462699118,158.07925118181555 244.68077219135876,135.0528341212104 249.99458732009393,89.00000000000003" fill="none" stroke="#f57f17" stroke-width="1.5"/><rect x="271.61554835831834" y="244.67358660321452" width="108.76923076923076" height="31" rx="14" fill="#e8eaf6" stroke="#283593" stroke-width="2.5"/>
<text x="326.0001637429337" y="265.4235866032145" text-anchor="middle" font-size="15" font-weight="bold">新サービス</text>
<rect x="352.5751211783595" y="180.18751320868603" width="98" height="29" rx="6" fill="#e3f2fd" stroke="#1565c0" stroke-width="1.5"/>
<text x="401.5751211783595" y="199.23751320868604" text-anchor="middle" font-size="13" font-weight="bold">ターゲット</text>
<rect x="374.08316634331095" y="63.747187532310846" width="70" height="29" rx="6" fill="#e3f2fd" stroke="#1565c0" stroke-width="1.5" opacity="0.8"/>
<text x="409.08316634331095" y="82.79718753231084" text-anchor="middle" font-size="13">若年層</text>
<rect x="461.89875846583317" y="189.32707523492857" width="112" height="29" rx="6" fill="#e3f2fd" stroke="#1565c0" stroke-width="1.5" opacity="0.8"/>
<text x="517.8987584658332" y="208.37707523492858" text-anchor="middle" font-size="13">ビジネスマン</text>
<rect x="324.1734194270767" y="341.62288396466425" width="60" height="29" rx="6" fill="#e8f5e9" stroke="#2e7d32" stroke-width="1.5"/>
<text x="354.1734194270767" y="360.67288396466427" text-anchor="middle" font-size="13" font-weight="bold">機能</text>
<rect x="457.20524449982145" y="345.6735866032145" width="84" height="29" rx="6" fill="#e8f5e9" stroke="#2e7d32" stroke-width="1.5" opacity="0.8"/>
<text x="499.20524449982145" y="364.7235866032145" text-anchor="middle" font-size="13">チャット</text>
<rect x="340.34667511121967" y="437.572181326114" width="84" height="29" rx="6" fill="#e8f5e9" stroke="#2e7d32" stroke-width="1.5" opacity="0.8"/>
<text x="382.34667511121967" y="456.622181326114" text-anchor="middle" font-size="13">動画配信</text>
<rect x="185.3548593974516" y="423.4406763341992" width="98" height="29" rx="6" fill="#e8f5e9" stroke="#2e7d32" stroke-width="1.5" opacity="0.8"/>
<text x="234.3548593974516" y="442.49067633419924" text-anchor="middle" font-size="13">マッチング</text>
<rect x="186.03696420748184" y="204.13208530302592" width="98" height="29" rx="6" fill="#fff8e1" stroke="#f57f17" stroke-width="1.5"/>
<text x="235.03696420748184" y="223.18208530302593" text-anchor="middle" font-size="13" font-weight="bold">マネタイズ</text>
<rect x="60" y="311.08717926669885" width="154" height="29" rx="6" fill="#fff8e1" stroke="#f57f17" stroke-width="1.5" opacity="0.8"/>
<text x="137" y="330.13717926669887" text-anchor="middle" font-size="13">サブスクリプション</text>
<rect x="114.07376467203" y="162.5905840028373" width="60" height="29" rx="6" fill="#fff8e1" stroke="#f57f17" stroke-width="1.5" opacity="0.8"/>
<text x="144.07376467203" y="181.6405840028373" text-anchor="middle" font-size="13">広告</text>
<rect x="195.6676726108681" y="60.00000000000003" width="112" height="29" rx="6" fill="#fff8e1" stroke="#f57f17" stroke-width="1.5" opacity="0.8"/>
<text x="251.6676726108681" y="79.05000000000003" text-anchor="middle" font-size="13">フリーミアム</text>
</svg>