<svg xmlns="http://www.w3.org/2000/svg" width="724.6832198384909" height="736.3158781369045" viewBox="0 0 724.6832198384909 736.3158781369045"><rect width="100%" height="100%" fill="white"/><style>text { font-family: sans-serif; font-size: 13px; fill: #333; }</style><path d="M 414.33784853381565,350.0093759583632 C 429.4803818384169,330.2752423467138 437.0516484907176,320.4081755408891 452.19418179531885,300.6740419292397" fill="none" stroke="#1565c0" stroke-width="2.5"/><path d="M 468.3111687214726,271.6740419292397 C 477.67985402683655,244.4544743930207 482.3641966795185,230.8446906249112 491.73288198488245,203.6251230886922" fill="none" stroke="#1565c0" stroke-width="1.5"/><path d="M 494.01840253641143,174.6251230886922 C 487.62846521786713,140.37507385321533 484.43349655859504,123.25004923547687 478.04355924005074,89" fill="none" stroke="#1565c0" stroke-width="1.5"/><path d="M 530.5840673919524,174.6251230886922 C 546.371051182226,167.86468919396552 554.2645430773626,164.48447224660217 570.0515268676362,157.7240383518755" fill="none" stroke="#1565c0" stroke-width="1.5"/><path d="M 505.3204231210138,285.06391191225384 C 520.239071954359,284.66958715314036 527.6983963710317,284.4724247735836 542.6170452043768,284.0781000144701" fill="none" stroke="#1565c0" stroke-width="1.5"/><path d="M 460.29106773745934,381.0093759583632 C 454.14349109819557,379.36213776246404 451.0697027785636,378.5385186645144 444.92212613929985,376.89128046861526" fill="none" stroke="#2e7d32" stroke-width="2.5"/><path d="M 533.3999952353192,376.89128046861526 C 546.9680321220796,371.1660592447018 553.7520505654597,368.3034486327451 567.3200874522202,362.5782274088316" fill="none" stroke="#2e7d32" stroke-width="1.5"/><path d="M 553.1515995587973,405.89128046861526 C 548.4968432425611,404.6440422727161 546.1694650844429,404.0204231747665 541.5147087682067,402.77318497886733" fill="none" stroke="#2e7d32" stroke-width="1.5"/><path d="M 510.01188653978653,405.89128046861526 C 528.1269980787528,429.82463357259815 537.1845538482359,441.79131012458953 555.299665387202,465.7246632285724" fill="none" stroke="#2e7d32" stroke-width="1.5"/><path d="M 402.44428022014176,381.0093759583632 C 402.44428022014176,409.0093759583632 402.4442802201417,423.0093759583632 402.4442802201417,451.0093759583632" fill="none" stroke="#f57f17" stroke-width="2.5"/><path d="M 407.09540585565577,480.0093759583632 C 415.889262550463,507.4244432059742 420.2861908978666,521.1319768297798 429.08004759267385,548.5470440773908" fill="none" stroke="#f57f17" stroke-width="1.5"/><path d="M 469.1620974832184,577.5470440773908 C 493.6592850777788,587.5724449832306 505.90787887505894,592.5851454361505 530.4050664696193,602.6105463419904" fill="none" stroke="#f57f17" stroke-width="1.5"/><path d="M 436.0277476128937,577.5470440773908 C 440.4478667067383,605.4545777011963 442.6579262536606,619.408344513099 447.0780453475052,647.3158781369045" fill="none" stroke="#f57f17" stroke-width="1.5"/><path d="M 416.60713345295494,577.5470440773908 C 386.73332265762036,602.8430759844679 371.7964172599531,615.4910919380065 341.9226064646185,640.7871238450837" fill="none" stroke="#f57f17" stroke-width="1.5"/><path d="M 374.8636412475823,480.0093759583632 C 349.90533224223196,493.130735508359 337.42617773955686,499.6914152833569 312.46786873420655,512.8127748333527" fill="none" stroke="#f57f17" stroke-width="1.5"/><path d="M 365.0239700033588,381.0093759583632 C 357.0369127896205,384.3177233797435 353.0433841827513,385.9718970904336 345.056326969013,389.28024451181386" fill="none" stroke="#7b1fa2" stroke-width="2.5"/><path d="M 295.34528013992264,418.2777191948722 C 277.5517299194428,435.8160005418368 268.6549548092029,444.585141215319 250.86140458872302,462.1234225622836" fill="none" stroke="#7b1fa2" stroke-width="1.5"/><path d="M 275.056326969013,404.03059061921317 C 278.34868583720606,404.00680366274344 279.99486527130256,403.9949101845085 283.2872241394956,403.9711232280388" fill="none" stroke="#7b1fa2" stroke-width="1.5"/><path d="M 386.94428022014176,350.0093759583632 C 370.66000897267986,333.7251047109013 362.51787334894885,325.58296908717034 346.23360210148695,309.29869783970844" fill="none" stroke="#00695c" stroke-width="2.5"/><path d="M 303.5383676576118,280.29869783970844 C 289.657466910178,273.1601489037725 282.7170165364612,269.59087443580455 268.8361157890274,262.4523254998686" fill="none" stroke="#00695c" stroke-width="1.5"/><path d="M 206.05098971511885,262.4523254998686 C 181.06655048108465,272.92574278513536 168.57433086406758,278.16245142776876 143.58989163003338,288.6358687130355" fill="none" stroke="#00695c" stroke-width="1.5"/><path d="M 220.6833434983202,233.4523254998686 C 204.28869400078793,221.54091540816967 196.09136925202176,215.58521036232023 179.6967197544895,203.67380027062129" fill="none" stroke="#00695c" stroke-width="1.5"/><path d="M 241.8440349274051,233.4523254998686 C 245.60287161159863,188.15209722913377 247.4822899536954,165.50198309376637 251.24112663788895,120.20175482303154" fill="none" stroke="#00695c" stroke-width="1.5"/><path d="M 336.24088311558455,280.29869783970844 C 348.4045723485499,241.16790183955933 354.48641696503256,221.60250383948477 366.6501061979979,182.47170783933566" fill="none" stroke="#00695c" stroke-width="1.5"/><rect x="323.8288956047571" y="350.0093759583632" width="157.23076923076923" height="31" rx="14" fill="#e8eaf6" stroke="#283593" stroke-width="2.5"/>
<text x="402.44428022014176" y="370.7593759583632" text-anchor="middle" font-size="15" font-weight="bold">プロジェクト計画</text>
<rect x="421.3204231210138" y="271.6740419292397" width="84" height="29" rx="6" fill="#e3f2fd" stroke="#1565c0" stroke-width="1.5"/>
<text x="463.3204231210138" y="290.7240419292397" text-anchor="middle" font-size="13" font-weight="bold">スコープ</text>
<rect x="454.72362758534126" y="174.6251230886922" width="84" height="29" rx="6" fill="#e3f2fd" stroke="#1565c0" stroke-width="1.5" opacity="0.8"/>
<text x="496.72362758534126" y="193.6751230886922" text-anchor="middle" font-size="13">機能一覧</text>
<rect x="435.3383341911209" y="60" width="80" height="29" rx="6" fill="#e3f2fd" stroke="#1565c0" stroke-width="1.5" opacity="0.8"/>
<text x="475.3383341911209" y="79.05" text-anchor="middle" font-size="13">MVP機能</text>
<rect x="561.9119666742473" y="128.7240383518755" width="84" height="29" rx="6" fill="#e3f2fd" stroke="#1565c0" stroke-width="1.5" opacity="0.8"/>
<text x="603.9119666742473" y="147.7740383518755" text-anchor="middle" font-size="13">追加機能</text>
<rect x="542.6170452043768" y="268.46796999748426" width="84" height="29" rx="6" fill="#e3f2fd" stroke="#1565c0" stroke-width="1.5" opacity="0.8"/>
<text x="584.6170452043768" y="287.5179699974843" text-anchor="middle" font-size="13">優先順位</text>
<rect x="443.03686284904853" y="376.89128046861526" width="112" height="29" rx="6" fill="#e8f5e9" stroke="#2e7d32" stroke-width="1.5"/>
<text x="499.03686284904853" y="395.9412804686153" text-anchor="middle" font-size="13" font-weight="bold">スケジュール</text>
<rect x="538.6832198384908" y="333.5782274088316" width="126" height="29" rx="6" fill="#e8f5e9" stroke="#2e7d32" stroke-width="1.5" opacity="0.8"/>
<text x="601.6832198384908" y="352.6282274088316" text-anchor="middle" font-size="13">マイルストーン</text>
<rect x="539.6294454779554" y="402.77318497886733" width="112" height="29" rx="6" fill="#e8f5e9" stroke="#2e7d32" stroke-width="1.5" opacity="0.8"/>
<text x="595.6294454779554" y="421.82318497886735" text-anchor="middle" font-size="13">デッドライン</text>
<rect x="524.27468907794" y="465.7246632285724" width="84" height="29" rx="6" fill="#e8f5e9" stroke="#2e7d32" stroke-width="1.5" opacity="0.8"/>
<text x="566.27468907794" y="484.7746632285724" text-anchor="middle" font-size="13">バッファ</text>
<rect x="360.4442802201417" y="451.0093759583632" width="84" height="29" rx="6" fill="#fff8e1" stroke="#f57f17" stroke-width="1.5"/>
<text x="402.4442802201417" y="470.0593759583632" text-anchor="middle" font-size="13" font-weight="bold">リソース</text>
<rect x="384.7311732281879" y="548.5470440773908" width="98" height="29" rx="6" fill="#fff8e1" stroke="#f57f17" stroke-width="1.5" opacity="0.8"/>
<text x="433.7311732281879" y="567.5970440773907" text-anchor="middle" font-size="13">チーム構成</text>
<rect x="502.83599072464983" y="602.6105463419904" width="126" height="29" rx="6" fill="#fff8e1" stroke="#f57f17" stroke-width="1.5" opacity="0.8"/>
<text x="565.8359907246498" y="621.6605463419903" text-anchor="middle" font-size="13">フロントエンド</text>
<rect x="393.374619732211" y="647.3158781369045" width="112" height="29" rx="6" fill="#fff8e1" stroke="#f57f17" stroke-width="1.5" opacity="0.8"/>
<text x="449.374619732211" y="666.3658781369045" text-anchor="middle" font-size="13">バックエンド</text>
<rect x="282.79856668938555" y="640.7871238450837" width="84" height="29" rx="6" fill="#fff8e1" stroke="#f57f17" stroke-width="1.5" opacity="0.8"/>
<text x="324.79856668938555" y="659.8371238450836" text-anchor="middle" font-size="13">インフラ</text>
<rect x="254.88722976164712" y="512.8127748333527" width="60" height="29" rx="6" fill="#fff8e1" stroke="#f57f17" stroke-width="1.5" opacity="0.8"/>
<text x="284.8872297616471" y="531.8627748333527" text-anchor="middle" font-size="13">予算</text>
<rect x="275.056326969013" y="389.2777191948722" width="70" height="29" rx="6" fill="#f3e5f5" stroke="#7b1fa2" stroke-width="1.5"/>
<text x="310.056326969013" y="408.3277191948722" text-anchor="middle" font-size="13" font-weight="bold">リスク</text>
<rect x="187.15035775963264" y="462.1234225622836" width="98" height="29" rx="6" fill="#f3e5f5" stroke="#7b1fa2" stroke-width="1.5" opacity="0.8"/>
<text x="236.15035775963264" y="481.17342256228363" text-anchor="middle" font-size="13">技術リスク</text>
<rect x="129.2872241394956" y="390.0274403615889" width="154" height="29" rx="6" fill="#f3e5f5" stroke="#7b1fa2" stroke-width="1.5" opacity="0.8"/>
<text x="206.2872241394956" y="409.0774403615889" text-anchor="middle" font-size="13">スケジュールリスク</text>
<rect x="301.73360210148695" y="280.29869783970844" width="60" height="29" rx="6" fill="#e0f2f1" stroke="#00695c" stroke-width="1.5"/>
<text x="331.73360210148695" y="299.34869783970845" text-anchor="middle" font-size="13" font-weight="bold">品質</text>
<rect x="191.64088134515222" y="233.4523254998686" width="98" height="29" rx="6" fill="#e0f2f1" stroke="#00695c" stroke-width="1.5" opacity="0.8"/>
<text x="240.64088134515222" y="252.50232549986862" text-anchor="middle" font-size="13">テスト戦略</text>
<rect x="60" y="288.6358687130355" width="98" height="29" rx="6" fill="#e0f2f1" stroke="#00695c" stroke-width="1.5" opacity="0.8"/>
<text x="109" y="307.6858687130355" text-anchor="middle" font-size="13">単体テスト</text>
<rect x="110.7391819076575" y="174.67380027062129" width="98" height="29" rx="6" fill="#e0f2f1" stroke="#00695c" stroke-width="1.5" opacity="0.8"/>
<text x="159.7391819076575" y="193.7238002706213" text-anchor="middle" font-size="13">結合テスト</text>
<rect x="205.44428022014182" y="91.20175482303154" width="94" height="29" rx="6" fill="#e0f2f1" stroke="#00695c" stroke-width="1.5" opacity="0.8"/>
<text x="252.44428022014182" y="110.25175482303153" text-anchor="middle" font-size="13">E2Eテスト</text>
<rect x="308.1573872120955" y="153.47170783933566" width="126" height="29" rx="6" fill="#e0f2f1" stroke="#00695c" stroke-width="1.5" opacity="0.8"/>
<text x="371.1573872120955" y="172.52170783933568" text-anchor="middle" font-size="13">コードレビュー</text>
</svg>