<svg xmlns="http://www.w3.org/2000/svg" width="2098.2555112799596" height="2456.5737348035395" viewBox="0 0 2098.2555112799596 2456.5737348035395"><rect width="100%" height="100%" fill="white"/><style>text { font-family: sans-serif; font-size: 13px; fill: #333; }</style><path d="M 1286.9145210728834,1196.5368834587707 C 1334.4746068963568,1019.4215918222783 1358.2546498080933,930.8639460040322 1405.8147356315667,753.7486543675399" fill="none" stroke="#1565c0" stroke-width="2.5"/><path d="M 1413.3101086373877,724.7486543675399 C 1451.7315132104704,570.0707058783312 1470.942215497012,492.7317316337269 1509.3636200700948,338.0537831445182" fill="none" stroke="#1565c0" stroke-width="1.5"/><path d="M 1511.214868295826,309.0537831445182 C 1499.6227821507578,213.03226988671094 1493.826739078224,165.02151325780727 1482.2346529331558,69" fill="none" stroke="#1565c0" stroke-width="1.5"/><path d="M 1523.863588011595,309.0537831445182 C 1580.8991129672643,233.16847255981799 1609.4168754450986,195.2258172674679 1666.4524004007678,119.34050668276768" fill="none" stroke="#1565c0" stroke-width="1.5"/><path d="M 1418.1395514202047,724.7486543675399 C 1452.7110736595812,665.2923657194112 1469.9968347792694,635.564221395347 1504.5683570186459,576.1079327472183" fill="none" stroke="#1565c0" stroke-width="1.5"/><path d="M 1361.3677504985467,1205.6179793683123 C 1482.2376049105992,1195.7490204273313 1542.6725321166252,1190.814540956841 1663.5423865286778,1180.94558201586" fill="none" stroke="#2e7d32" stroke-width="2.5"/><path d="M 1735.3960570060578,1161.873211978821 C 1798.0192226922911,1104.5971443485541 1829.3308055354078,1075.9591105334207 1891.953971221641,1018.6830429031538" fill="none" stroke="#2e7d32" stroke-width="1.5"/><path d="M 1775.5423865286778,1172.078906803938 C 1843.8276364291905,1166.8425192679388 1877.9702613794468,1164.2243254999394 1946.2555112799596,1158.98793796394" fill="none" stroke="#2e7d32" stroke-width="1.5"/><path d="M 1740.909333100272,1190.873211978821 C 1807.057952666876,1235.7628727687666 1840.1322624501777,1258.2077031637396 1906.2808820167816,1303.097363953685" fill="none" stroke="#2e7d32" stroke-width="1.5"/><path d="M 1288.4782654780115,1227.5368834587707 C 1357.3202049075423,1413.8918908217358 1391.7411746223079,1507.0693945032183 1460.5831140518387,1693.4244018661834" fill="none" stroke="#f57f17" stroke-width="2.5"/><path d="M 1472.2715254075981,1722.4244018661834 C 1542.7695368445322,1883.8636520589773 1578.0185425629993,1964.5832771553744 1648.5165539999334,2126.0225273481683" fill="none" stroke="#f57f17" stroke-width="1.5"/><path d="M 1682.396026204093,2155.0225273481683 C 1754.8351524467405,2193.1517774382414 1791.0547155680642,2212.2164024832778 1863.4938418107117,2250.345652573351" fill="none" stroke="#f57f17" stroke-width="1.5"/><path d="M 1661.0760841766419,2155.0225273481683 C 1701.0274548685888,2248.043010330317 1721.0031402145626,2294.553251821391 1760.9545109065095,2387.5737348035395" fill="none" stroke="#f57f17" stroke-width="1.5"/><path d="M 1650.8175416322115,2155.0225273481683 C 1625.1394936548272,2247.391049888659 1612.3004696661353,2293.5753111589047 1586.622421688751,2385.9438336993953" fill="none" stroke="#f57f17" stroke-width="1.5"/><path d="M 1464.4727952518913,1722.4244018661834 C 1457.207813370794,1794.241855512256 1453.5753224302455,1830.1505823352923 1446.3103405491481,1901.968035981365" fill="none" stroke="#f57f17" stroke-width="1.5"/><path d="M 1265.8209433395548,1227.5368834587707 C 1169.6535488033828,1315.5740588037004 1121.5698515352967,1359.592646476165 1025.4024569991248,1447.6298218210948" fill="none" stroke="#7b1fa2" stroke-width="2.5"/><path d="M 1002.6340161007779,1476.6298218210948 C 964.1332736250524,1557.194275907852 944.8829023871898,1597.4765029512307 906.3821599114643,1678.040957037988" fill="none" stroke="#7b1fa2" stroke-width="1.5"/><path d="M 974.5633842970403,1475.467249861342 C 908.7989458509743,1500.5280631579612 875.9167266279413,1513.058469806271 810.1522881818753,1538.1192831028902" fill="none" stroke="#7b1fa2" stroke-width="1.5"/><path d="M 1245.7709179846468,1196.5368834587707 C 1081.1635200215746,1127.5451372343068 998.8598210400385,1093.0492641220746 834.2524230769664,1024.0575178976108" fill="none" stroke="#00695c" stroke-width="2.5"/><path d="M 774.2524230769664,1002.272853596735 C 627.2148334055812,957.1284313276336 553.6960385698886,934.556220193083 406.6584488985035,889.4117979239817" fill="none" stroke="#00695c" stroke-width="1.5"/><path d="M 322.5481312618856,889.4117979239817 C 252.839493633565,916.8166255969676 217.9851748194047,930.5190394334606 148.27653719108412,957.9238671064466" fill="none" stroke="#00695c" stroke-width="1.5"/><path d="M 313.7400834491991,860.4117979239817 C 242.12051278615309,837.6834660642497 206.31072745463007,826.3193001343838 134.69115679158404,803.5909682746518" fill="none" stroke="#00695c" stroke-width="1.5"/><path d="M 349.94110651293744,860.4117979239817 C 299.2212111483723,782.9167379093594 273.86126346608967,744.1692079020484 223.1413681015245,666.6741478874261" fill="none" stroke="#00695c" stroke-width="1.5"/><path d="M 794.6680788447896,996.9836456880624 C 755.6673716008029,937.9801039392938 736.1670179788096,908.4783330649095 697.1663107348228,849.4747913161409" fill="none" stroke="#00695c" stroke-width="1.5"/><rect x="1204.1369812677776" y="1196.5368834587707" width="157.23076923076923" height="31" rx="14" fill="#e8eaf6" stroke="#283593" stroke-width="2.5"/>
<text x="1282.7523658831622" y="1217.2868834587707" text-anchor="middle" font-size="15" font-weight="bold">プロジェクト計画</text>
<rect x="1367.7083646800156" y="724.7486543675399" width="84" height="29" rx="6" fill="#e3f2fd" stroke="#1565c0" stroke-width="1.5"/>
<text x="1409.7083646800156" y="743.7986543675398" text-anchor="middle" font-size="13" font-weight="bold">スコープ</text>
<rect x="1470.9653640274669" y="309.0537831445182" width="84" height="29" rx="6" fill="#e3f2fd" stroke="#1565c0" stroke-width="1.5" opacity="0.8"/>
<text x="1512.9653640274669" y="328.1037831445182" text-anchor="middle" font-size="13">機能一覧</text>
<rect x="1440.4841572015148" y="40" width="80" height="29" rx="6" fill="#e3f2fd" stroke="#1565c0" stroke-width="1.5" opacity="0.8"/>
<text x="1480.4841572015148" y="59.05" text-anchor="middle" font-size="13">MVP機能</text>
<rect x="1635.350624384896" y="90.34050668276768" width="84" height="29" rx="6" fill="#e3f2fd" stroke="#1565c0" stroke-width="1.5" opacity="0.8"/>
<text x="1677.350624384896" y="109.39050668276768" text-anchor="middle" font-size="13">追加機能</text>
<rect x="1470.999543758835" y="547.1079327472183" width="84" height="29" rx="6" fill="#e3f2fd" stroke="#1565c0" stroke-width="1.5" opacity="0.8"/>
<text x="1512.999543758835" y="566.1579327472183" text-anchor="middle" font-size="13">優先順位</text>
<rect x="1663.5423865286778" y="1161.873211978821" width="112" height="29" rx="6" fill="#e8f5e9" stroke="#2e7d32" stroke-width="1.5"/>
<text x="1719.5423865286778" y="1180.923211978821" text-anchor="middle" font-size="13" font-weight="bold">スケジュール</text>
<rect x="1844.8076416990211" y="989.6830429031538" width="126" height="29" rx="6" fill="#e8f5e9" stroke="#2e7d32" stroke-width="1.5" opacity="0.8"/>
<text x="1907.8076416990211" y="1008.7330429031538" text-anchor="middle" font-size="13">マイルストーン</text>
<rect x="1946.2555112799596" y="1140.1936327890571" width="112" height="29" rx="6" fill="#e8f5e9" stroke="#2e7d32" stroke-width="1.5" opacity="0.8"/>
<text x="2002.2555112799596" y="1159.243632789057" text-anchor="middle" font-size="13">デッドライン</text>
<rect x="1885.647828588376" y="1303.097363953685" width="84" height="29" rx="6" fill="#e8f5e9" stroke="#2e7d32" stroke-width="1.5" opacity="0.8"/>
<text x="1927.647828588376" y="1322.147363953685" text-anchor="middle" font-size="13">バッファ</text>
<rect x="1423.939600769601" y="1693.4244018661834" width="84" height="29" rx="6" fill="#fff8e1" stroke="#f57f17" stroke-width="1.5"/>
<text x="1465.939600769601" y="1712.4744018661834" text-anchor="middle" font-size="13" font-weight="bold">リソース</text>
<rect x="1605.8484786379306" y="2126.0225273481683" width="98" height="29" rx="6" fill="#fff8e1" stroke="#f57f17" stroke-width="1.5" opacity="0.8"/>
<text x="1654.8484786379306" y="2145.0725273481685" text-anchor="middle" font-size="13">チーム構成</text>
<rect x="1828.0413893768741" y="2250.345652573351" width="126" height="29" rx="6" fill="#fff8e1" stroke="#f57f17" stroke-width="1.5" opacity="0.8"/>
<text x="1891.0413893768741" y="2269.395652573351" text-anchor="middle" font-size="13">フロントエンド</text>
<rect x="1711.1821164452208" y="2387.5737348035395" width="112" height="29" rx="6" fill="#fff8e1" stroke="#f57f17" stroke-width="1.5" opacity="0.8"/>
<text x="1767.1821164452208" y="2406.6237348035397" text-anchor="middle" font-size="13">バックエンド</text>
<rect x="1540.591484683032" y="2385.9438336993953" width="84" height="29" rx="6" fill="#fff8e1" stroke="#f57f17" stroke-width="1.5" opacity="0.8"/>
<text x="1582.591484683032" y="2404.9938336993955" text-anchor="middle" font-size="13">インフラ</text>
<rect x="1414.8435350314385" y="1901.968035981365" width="60" height="29" rx="6" fill="#fff8e1" stroke="#f57f17" stroke-width="1.5" opacity="0.8"/>
<text x="1444.8435350314385" y="1921.0180359813648" text-anchor="middle" font-size="13">予算</text>
<rect x="974.5633842970403" y="1447.6298218210948" width="70" height="29" rx="6" fill="#f3e5f5" stroke="#7b1fa2" stroke-width="1.5"/>
<text x="1009.5633842970403" y="1466.6798218210947" text-anchor="middle" font-size="13" font-weight="bold">リスク</text>
<rect x="850.4527917152019" y="1678.040957037988" width="98" height="29" rx="6" fill="#f3e5f5" stroke="#7b1fa2" stroke-width="1.5" opacity="0.8"/>
<text x="899.4527917152019" y="1697.090957037988" text-anchor="middle" font-size="13">技術リスク</text>
<rect x="695.1014737018602" y="1538.1192831028902" width="154" height="29" rx="6" fill="#f3e5f5" stroke="#7b1fa2" stroke-width="1.5" opacity="0.8"/>
<text x="772.1014737018602" y="1557.1692831028902" text-anchor="middle" font-size="13">スケジュールリスク</text>
<rect x="774.2524230769664" y="996.9836456880624" width="60" height="29" rx="6" fill="#e0f2f1" stroke="#00695c" stroke-width="1.5"/>
<text x="804.2524230769664" y="1016.0336456880624" text-anchor="middle" font-size="13" font-weight="bold">品質</text>
<rect x="310.43124024078315" y="860.4117979239817" width="98" height="29" rx="6" fill="#e0f2f1" stroke="#00695c" stroke-width="1.5" opacity="0.8"/>
<text x="359.43124024078315" y="879.4617979239816" text-anchor="middle" font-size="13">テスト戦略</text>
<rect x="62.39342821218656" y="957.9238671064466" width="98" height="29" rx="6" fill="#e0f2f1" stroke="#00695c" stroke-width="1.5" opacity="0.8"/>
<text x="111.39342821218656" y="976.9738671064465" text-anchor="middle" font-size="13">単体テスト</text>
<rect x="40" y="774.5909682746518" width="98" height="29" rx="6" fill="#e0f2f1" stroke="#00695c" stroke-width="1.5" opacity="0.8"/>
<text x="89" y="793.6409682746518" text-anchor="middle" font-size="13">結合テスト</text>
<rect x="166.6512343736788" y="637.6741478874261" width="94" height="29" rx="6" fill="#e0f2f1" stroke="#00695c" stroke-width="1.5" opacity="0.8"/>
<text x="213.6512343736788" y="656.724147887426" text-anchor="middle" font-size="13">E2Eテスト</text>
<rect x="624.5819665026461" y="820.4747913161409" width="126" height="29" rx="6" fill="#e0f2f1" stroke="#00695c" stroke-width="1.5" opacity="0.8"/>
<text x="687.5819665026461" y="839.5247913161409" text-anchor="middle" font-size="13">コードレビュー</text>
</svg>