<svg xmlns="http://www.w3.org/2000/svg" width="600" height="284" viewBox="0 0 600 284"><rect width="100%" height="100%" fill="white"/><style>text { font-family: sans-serif; font-size: 13px; fill: #333; }</style><rect x="258" y="118" width="140" height="48" rx="12" fill="#e8eaf6" stroke="#283593" stroke-width="2"/><text x="328" y="147" text-anchor="middle" font-size="15" font-weight="bold">プロジェクト計画</text><path d="M 398,142 C 428,142 428,56 458,56" fill="none" stroke="#1565c0" stroke-width="2"/><rect x="458" y="40" width="80" height="32" rx="6" fill="#e3f2fd" stroke="#1565c0" stroke-width="1.5"/><text x="498" y="61" text-anchor="middle" font-weight="bold">スコープ</text><line x1="466" y1="72" x2="474" y2="96" stroke="#1565c0" stroke-width="1.5"/><rect x="474" y="84" width="80" height="24" rx="4" fill="#e3f2fd" stroke="#1565c0" stroke-width="1" opacity="0.7"/><text x="514" y="100" text-anchor="middle" font-size="12">機能一覧</text><line x1="466" y1="72" x2="474" y2="124" stroke="#1565c0" stroke-width="1.5"/><rect x="474" y="112" width="80" height="24" rx="4" fill="#e3f2fd" stroke="#1565c0" stroke-width="1" opacity="0.7"/><text x="514" y="128" text-anchor="middle" font-size="12">優先順位</text><path d="M 398,142 C 428,142 428,164 458,164" fill="none" stroke="#f57f17" stroke-width="2"/><rect x="458" y="148" width="80" height="32" rx="6" fill="#fff8e1" stroke="#f57f17" stroke-width="1.5"/><text x="498" y="169" text-anchor="middle" font-weight="bold">リソース</text><line x1="466" y1="180" x2="474" y2="204" stroke="#f57f17" stroke-width="1.5"/><rect x="474" y="192" width="86" height="24" rx="4" fill="#fff8e1" stroke="#f57f17" stroke-width="1" opacity="0.7"/><text x="517" y="208" text-anchor="middle" font-size="12">チーム構成</text><line x1="466" y1="180" x2="474" y2="232" stroke="#f57f17" stroke-width="1.5"/><rect x="474" y="220" width="80" height="24" rx="4" fill="#fff8e1" stroke="#f57f17" stroke-width="1" opacity="0.7"/><text x="514" y="236" text-anchor="middle" font-size="12">予算</text><path d="M 258,142 C 228,142 228,56 198,56" fill="none" stroke="#2e7d32" stroke-width="2"/><rect x="90" y="40" width="108" height="32" rx="6" fill="#e8f5e9" stroke="#2e7d32" stroke-width="1.5"/><text x="144" y="61" text-anchor="middle" font-weight="bold">スケジュール</text><line x1="190" y1="72" x2="188" y2="96" stroke="#2e7d32" stroke-width="1.5"/><rect x="74" y="84" width="114" height="24" rx="4" fill="#e8f5e9" stroke="#2e7d32" stroke-width="1" opacity="0.7"/><text x="131" y="100" text-anchor="middle" font-size="12">マイルストーン</text><line x1="190" y1="72" x2="174" y2="124" stroke="#2e7d32" stroke-width="1.5"/><rect x="74" y="112" width="100" height="24" rx="4" fill="#e8f5e9" stroke="#2e7d32" stroke-width="1" opacity="0.7"/><text x="124" y="128" text-anchor="middle" font-size="12">デッドライン</text><path d="M 258,142 C 228,142 228,164 198,164" fill="none" stroke="#7b1fa2" stroke-width="2"/><rect x="118" y="148" width="80" height="32" rx="6" fill="#f3e5f5" stroke="#7b1fa2" stroke-width="1.5"/><text x="158" y="169" text-anchor="middle" font-weight="bold">リスク</text><line x1="190" y1="180" x2="188" y2="204" stroke="#7b1fa2" stroke-width="1.5"/><rect x="102" y="192" width="86" height="24" rx="4" fill="#f3e5f5" stroke="#7b1fa2" stroke-width="1" opacity="0.7"/><text x="145" y="208" text-anchor="middle" font-size="12">技術リスク</text><line x1="190" y1="180" x2="244" y2="232" stroke="#7b1fa2" stroke-width="1.5"/><rect x="102" y="220" width="142" height="24" rx="4" fill="#f3e5f5" stroke="#7b1fa2" stroke-width="1" opacity="0.7"/><text x="173" y="236" text-anchor="middle" font-size="12">スケジュールリスク</text></svg>