<svg xmlns="http://www.w3.org/2000/svg" width="500" height="370" viewBox="0 0 500 370"><rect width="100%" height="100%" fill="white"/><style>text { font-family: sans-serif; fill: #333; }</style><line x1="20" y1="350" x2="480" y2="20" stroke="#e0e0e0" stroke-width="3" stroke-linecap="round"/><polygon points="480,20 472.112422003165,31.566594716849224 466.5158426948194,23.765302347640223" fill="#e0e0e0"/><rect x="50" y="260" width="220" height="60" rx="8" fill="#f0f7ff" stroke="#90caf9" stroke-width="1.5"/><circle cx="74" cy="286" r="14" fill="#90caf9" /><text x="74" y="290.55" text-anchor="middle" font-size="13" font-weight="bold" fill="#1565c0">1</text><text x="98" y="288" font-size="13" font-weight="bold">Beginner</text><text x="98" y="304" font-size="11" fill="#666">Learn the basics</text><rect x="110" y="190" width="220" height="60" rx="8" fill="#f0f9f1" stroke="#a5d6a7" stroke-width="1.5"/><circle cx="134" cy="216" r="14" fill="#a5d6a7" /><text x="134" y="220.55" text-anchor="middle" font-size="13" font-weight="bold" fill="#2e7d32">2</text><text x="158" y="218" font-size="13" font-weight="bold">Intermediate</text><text x="158" y="234" font-size="11" fill="#666">Build small projects</text><rect x="170" y="120" width="220" height="60" rx="8" fill="#fffef2" stroke="#ffe082" stroke-width="1.5"/><circle cx="194" cy="146" r="14" fill="#ffe082" /><text x="194" y="150.55" text-anchor="middle" font-size="13" font-weight="bold" fill="#f57f17">3</text><text x="218" y="148" font-size="13" font-weight="bold">Advanced</text><text x="218" y="164" font-size="11" fill="#666">Contribute to open source</text><rect x="230" y="50" width="220" height="60" rx="8" fill="#faf2fc" stroke="#ce93d8" stroke-width="1.5"/><circle cx="254" cy="76" r="14" fill="#ce93d8" /><text x="254" y="80.55" text-anchor="middle" font-size="13" font-weight="bold" fill="#7b1fa2">4</text><text x="278" y="78" font-size="13" font-weight="bold">Expert</text><text x="278" y="94" font-size="11" fill="#666">Lead and mentor others</text></svg>