<svg xmlns="http://www.w3.org/2000/svg" width="556" height="440" viewBox="0 0 556 440"><rect width="100%" height="100%" fill="white"/><style>text { font-family: sans-serif; fill: #333; }</style><line x1="20" y1="420" x2="536" y2="20" stroke="#e0e0e0" stroke-width="3" stroke-linecap="round"/><polygon points="536,20 528.547206828642,31.851408099671502 522.6649026529592,24.26323571304074" fill="#e0e0e0"/><rect x="50" y="330" width="216" height="60" rx="8" fill="#f0f7ff" stroke="#90caf9" stroke-width="1.5"/><circle cx="74" cy="356" r="14" fill="#90caf9" /><text x="74" y="360.55" text-anchor="middle" font-size="13" font-weight="bold" fill="#1565c0">1</text><text x="98" y="358" font-size="13" font-weight="bold">要件定義</text><text x="98" y="374" font-size="11" fill="#666">ユーザー要件を収集・分析</text><rect x="110" y="260" width="216" height="60" rx="8" fill="#f0f9f1" stroke="#a5d6a7" stroke-width="1.5"/><circle cx="134" cy="286" r="14" fill="#a5d6a7" /><text x="134" y="290.55" text-anchor="middle" font-size="13" font-weight="bold" fill="#2e7d32">2</text><text x="158" y="288" font-size="13" font-weight="bold">設計</text><text x="158" y="304" font-size="11" fill="#666">アーキテクチャとUIを設計</text><rect x="170" y="190" width="216" height="60" rx="8" fill="#fffef2" stroke="#ffe082" stroke-width="1.5"/><circle cx="194" cy="216" r="14" fill="#ffe082" /><text x="194" y="220.55" text-anchor="middle" font-size="13" font-weight="bold" fill="#f57f17">3</text><text x="218" y="218" font-size="13" font-weight="bold">実装</text><text x="218" y="234" font-size="11" fill="#666">コーディングとユニットテスト</text><rect x="230" y="120" width="216" height="60" rx="8" fill="#faf2fc" stroke="#ce93d8" stroke-width="1.5"/><circle cx="254" cy="146" r="14" fill="#ce93d8" /><text x="254" y="150.55" text-anchor="middle" font-size="13" font-weight="bold" fill="#7b1fa2">4</text><text x="278" y="148" font-size="13" font-weight="bold">テスト</text><text x="278" y="164" font-size="11" fill="#666">結合テストと受入テスト</text><rect x="290" y="50" width="216" height="60" rx="8" fill="#f0faf9" stroke="#80cbc4" stroke-width="1.5"/><circle cx="314" cy="76" r="14" fill="#80cbc4" /><text x="314" y="80.55" text-anchor="middle" font-size="13" font-weight="bold" fill="#00695c">5</text><text x="338" y="78" font-size="13" font-weight="bold">リリース</text><text x="338" y="94" font-size="11" fill="#666">本番環境へデプロイ</text></svg>