<svg xmlns="http://www.w3.org/2000/svg" width="360" height="752" viewBox="0 0 360 752"><rect width="100%" height="100%" fill="#f0f0f0"/><style>text { font-family: sans-serif; font-size: 13px; fill: #333; }</style><rect x="20" y="20" width="320" height="712" rx="8" fill="white" stroke="#ccc" stroke-width="1"/><rect x="20" y="20" width="320" height="36" rx="8" fill="#f5f5f5"/><rect x="20" y="40" width="320" height="16" fill="#f5f5f5"/><circle cx="38" cy="38" r="5" fill="#ff5f57"/><circle cx="54" cy="38" r="5" fill="#febc2e"/><circle cx="70" cy="38" r="5" fill="#28c840"/><text x="180" y="42" text-anchor="middle" font-size="11" fill="#999">ダッシュボード</text><rect x="36" y="72" width="288" height="32" rx="4" fill="#f5f5f5" stroke="#e0e0e0" stroke-width="1"/><text x="72" y="92" text-anchor="middle" font-size="11" fill="#555">ホーム</text><text x="144" y="92" text-anchor="middle" font-size="11" fill="#555">分析</text><line x1="108" y1="76" x2="108" y2="100" stroke="#e0e0e0" stroke-width="1"/><text x="216" y="92" text-anchor="middle" font-size="11" fill="#555">ユーザー</text><line x1="180" y1="76" x2="180" y2="100" stroke="#e0e0e0" stroke-width="1"/><text x="288" y="92" text-anchor="middle" font-size="11" fill="#555">設定</text><line x1="252" y1="76" x2="252" y2="100" stroke="#e0e0e0" stroke-width="1"/><text x="36" y="138" font-size="16" font-weight="bold">ダッシュボード</text><line x1="36" y1="164" x2="324" y2="164" stroke="#e0e0e0" stroke-width="1"/><rect x="36" y="180" width="288" height="160" rx="8" fill="white" stroke="#e0e0e0" stroke-width="1"/><text x="48" y="208" font-size="14" font-weight="bold" fill="#555">売上サマリー</text><text x="48" y="242" font-size="12" fill="#666">今月の売上状況</text><rect x="48" y="268" width="264" height="8" rx="4" fill="#e0e0e0"/><rect x="48" y="268" width="205.92000000000002" height="8" rx="4" fill="#1565c0"/><text x="48" y="310" font-size="12" fill="#666">78% 目標達成</text><rect x="36" y="352" width="288" height="184" rx="8" fill="white" stroke="#e0e0e0" stroke-width="1"/><text x="48" y="380" font-size="14" font-weight="bold" fill="#555">最近のユーザー</text><rect x="48" y="400" width="264" height="28" fill="#f5f5f5" stroke="#e0e0e0" stroke-width="1"/><text x="54" y="418" font-size="11" font-weight="bold">名前</text><text x="142" y="418" font-size="11" font-weight="bold">メール</text><text x="230" y="418" font-size="11" font-weight="bold">ステータス</text><rect x="48" y="428" width="264" height="28" fill="white" stroke="#e0e0e0" stroke-width="1"/><text x="54" y="446" font-size="11">田中太郎</text><text x="142" y="446" font-size="11">tanaka@example.com</text><text x="230" y="446" font-size="11">アクティブ</text><rect x="48" y="456" width="264" height="28" fill="white" stroke="#e0e0e0" stroke-width="1"/><text x="54" y="474" font-size="11">佐藤花子</text><text x="142" y="474" font-size="11">sato@example.com</text><text x="230" y="474" font-size="11">アクティブ</text><rect x="48" y="484" width="264" height="28" fill="white" stroke="#e0e0e0" stroke-width="1"/><text x="54" y="502" font-size="11">鈴木一郎</text><text x="142" y="502" font-size="11">suzuki@example.com</text><text x="230" y="502" font-size="11">休止中</text><rect x="36" y="548" width="288" height="156" rx="8" fill="white" stroke="#e0e0e0" stroke-width="1"/><text x="48" y="576" font-size="14" font-weight="bold" fill="#555">クイックアクション</text><rect x="48" y="596" width="108" height="32" rx="4" fill="#1565c0"/><text x="102" y="616" text-anchor="middle" font-size="12" fill="white" font-weight="bold">レポート作成</text><rect x="48" y="644" width="94" height="32" rx="4" fill="#1565c0"/><text x="95" y="664" text-anchor="middle" font-size="12" fill="white" font-weight="bold">データ出力</text></svg>