<svg xmlns="http://www.w3.org/2000/svg" width="360" height="536" viewBox="0 0 360 536"><rect width="100%" height="100%" fill="#f0f0f0"/><style>text { font-family: sans-serif; font-size: 13px; fill: #333; }</style><rect x="20" y="20" width="320" height="496" rx="8" fill="white" stroke="#ccc" stroke-width="1"/><rect x="20" y="20" width="320" height="36" rx="8" fill="#f5f5f5"/><rect x="20" y="40" width="320" height="16" fill="#f5f5f5"/><circle cx="38" cy="38" r="5" fill="#ff5f57"/><circle cx="54" cy="38" r="5" fill="#febc2e"/><circle cx="70" cy="38" r="5" fill="#28c840"/><text x="180" y="42" text-anchor="middle" font-size="11" fill="#999">ログインページ</text><rect x="36" y="72" width="288" height="72" rx="4" fill="#e8e8e8" stroke="#ccc" stroke-width="1" stroke-dasharray="4,4"/><text x="180" y="112" text-anchor="middle" font-size="12" fill="#999">ロゴ</text><text x="36" y="182" font-size="16" font-weight="bold">ログイン</text><text x="36" y="218" font-size="12" fill="#666">アカウントにログインしてください</text><line x1="36" y1="240" x2="324" y2="240" stroke="#e0e0e0" stroke-width="1"/><rect x="36" y="256" width="288" height="32" rx="4" fill="white" stroke="#ccc" stroke-width="1"/><text x="46" y="276" font-size="12" fill="#aaa">メールアドレス</text><rect x="36" y="304" width="288" height="32" rx="4" fill="white" stroke="#ccc" stroke-width="1"/><text x="46" y="324" font-size="12" fill="#aaa">パスワード</text><rect x="36" y="352" width="80" height="32" rx="4" fill="#1565c0"/><text x="76" y="372" text-anchor="middle" font-size="12" fill="white" font-weight="bold">ログイン</text><line x1="36" y1="404" x2="324" y2="404" stroke="#e0e0e0" stroke-width="1"/><text x="36" y="434" font-size="12" fill="#666">アカウントをお持ちでない方</text><rect x="36" y="452" width="80" height="32" rx="4" fill="#1565c0"/><text x="76" y="472" text-anchor="middle" font-size="12" fill="white" font-weight="bold">新規登録</text></svg>