   Compiling mdd-wireframe v0.1.0 (/Users/fujis/ghq/github-home/ppdx999/mdd/.claude/worktrees/wireframe-patterns/crates/mdd-wireframe)
    Finished `dev` profile [unoptimized + debuginfo] target(s) in 0.15s
     Running `target/debug/mdd-wireframe`
<svg xmlns="http://www.w3.org/2000/svg" width="360" height="1020" viewBox="0 0 360 1020"><rect width="100%" height="100%" fill="#f0f0f0"/><style>text { font-family: sans-serif; font-size: 13px; fill: #333; }</style><rect x="20" y="20" width="320" height="980" rx="8" fill="white" stroke="#ccc" stroke-width="1"/><rect x="20" y="20" width="320" height="36" rx="8" fill="#f5f5f5"/><rect x="20" y="40" width="320" height="16" fill="#f5f5f5"/><circle cx="38" cy="38" r="5" fill="#ff5f57"/><circle cx="54" cy="38" r="5" fill="#febc2e"/><circle cx="70" cy="38" r="5" fill="#28c840"/><text x="180" y="42" text-anchor="middle" font-size="11" fill="#999">設定画面</text><rect x="36" y="72" width="288" height="32" rx="4" fill="#f5f5f5" stroke="#e0e0e0" stroke-width="1"/><text x="84" y="92" text-anchor="middle" font-size="11" fill="#555">ホーム</text><text x="180" y="92" text-anchor="middle" font-size="11" fill="#555">設定</text><line x1="132" y1="76" x2="132" y2="100" stroke="#e0e0e0" stroke-width="1"/><text x="276" y="92" text-anchor="middle" font-size="11" fill="#555">プロフィール</text><line x1="228" y1="76" x2="228" y2="100" stroke="#e0e0e0" stroke-width="1"/><text x="36" y="138" font-size="16" font-weight="bold">設定</text><line x1="36" y1="164" x2="324" y2="164" stroke="#e0e0e0" stroke-width="1"/><text x="36" y="196" font-size="14" font-weight="bold" fill="#555">通知</text><rect x="36" y="220" width="36" height="20" rx="10" fill="#1565c0"/><circle cx="62" cy="230" r="8" fill="white"/><text x="80" y="234" font-size="12">メール通知</text><rect x="36" y="260" width="36" height="20" rx="10" fill="#ccc"/><circle cx="46" cy="270" r="8" fill="white"/><text x="80" y="274" font-size="12">プッシュ通知</text><line x1="36" y1="300" x2="324" y2="300" stroke="#e0e0e0" stroke-width="1"/><text x="36" y="332" font-size="14" font-weight="bold" fill="#555">プロフィール</text><circle cx="56" cy="372" r="20" fill="#e0e0e0"/><text x="56" y="378" text-anchor="middle" font-size="16" fill="#666">田</text><text x="84" y="376" font-size="12">田中太郎</text><rect x="36" y="416" width="288" height="32" rx="4" fill="white" stroke="#ccc" stroke-width="1"/><text x="46" y="436" font-size="12" fill="#aaa">表示名</text><rect x="36" y="464" width="288" height="64" rx="4" fill="white" stroke="#ccc" stroke-width="1"/><text x="46" y="484" font-size="12" fill="#aaa">自己紹介を入力</text><line x1="36" y1="552" x2="324" y2="552" stroke="#e0e0e0" stroke-width="1"/><text x="36" y="584" font-size="14" font-weight="bold" fill="#555">アカウント</text><rect x="36" y="604" width="288" height="32" rx="4" fill="white" stroke="#ccc" stroke-width="1"/><text x="46" y="624" font-size="12" fill="#aaa">言語を選択</text><polygon points="304,617 312,617 308,623" fill="#999"/><rect x="36" y="655" width="16" height="16" rx="3" fill="#1565c0" stroke="#ccc" stroke-width="1"/><polyline points="39,663 43,667 49,659" fill="none" stroke="white" stroke-width="2"/><text x="58" y="668" font-size="12">利用規約に同意</text><circle cx="44" cy="699" r="7" fill="white" stroke="#ccc" stroke-width="1"/><circle cx="44" cy="699" r="4" fill="#1565c0"/><text x="58" y="704" font-size="12">公開</text><circle cx="44" cy="735" r="7" fill="white" stroke="#ccc" stroke-width="1"/><text x="58" y="740" font-size="12">非公開</text><line x1="36" y1="764" x2="324" y2="764" stroke="#e0e0e0" stroke-width="1"/><text x="36" y="796" font-size="14" font-weight="bold" fill="#555">アップロード</text><rect x="36" y="824" width="288" height="8" rx="4" fill="#e0e0e0"/><rect x="36" y="824" width="187.20000000000002" height="8" rx="4" fill="#1565c0"/><text x="36" y="866" font-size="12" fill="#666">65% 完了</text><line x1="36" y1="888" x2="324" y2="888" stroke="#e0e0e0" stroke-width="1"/><text x="36" y="918" font-size="12" fill="#1565c0" text-decoration="underline">ログアウト</text><rect x="36" y="936" width="80" height="32" rx="4" fill="#1565c0"/><text x="76" y="956" text-anchor="middle" font-size="12" fill="white" font-weight="bold">保存</text></svg>