<svg xmlns="http://www.w3.org/2000/svg" width="524" height="324" viewBox="0 0 524 324"><rect width="100%" height="100%" fill="white"/><style>text { font-family: sans-serif; font-size: 13px; fill: #333; }</style><text x="262" y="58" text-anchor="middle" font-size="16" font-weight="bold">製品 SWOT分析</text><rect x="40" y="80" width="220" height="100" rx="8" fill="#f0f7ff"/><rect x="40" y="80" width="220" height="36" rx="8" fill="#90caf9"/><rect x="40" y="98" width="220" height="18" fill="#90caf9"/><text x="150" y="103" text-anchor="middle" font-size="14" font-weight="bold" fill="#1565c0">S - Strengths</text><circle cx="56" cy="132" r="3" fill="#1565c0"/><text x="72" y="136">高い品質</text><circle cx="56" cy="156" r="3" fill="#1565c0"/><text x="72" y="160">低価格</text><rect x="264" y="80" width="220" height="100" rx="8" fill="#fdf2f4"/><rect x="264" y="80" width="220" height="36" rx="8" fill="#ef9a9a"/><rect x="264" y="98" width="220" height="18" fill="#ef9a9a"/><text x="374" y="103" text-anchor="middle" font-size="14" font-weight="bold" fill="#c62828">W - Weaknesses</text><circle cx="280" cy="132" r="3" fill="#c62828"/><text x="296" y="136">デザインが古い</text><circle cx="280" cy="156" r="3" fill="#c62828"/><text x="296" y="160">機能が少ない</text><rect x="40" y="184" width="220" height="100" rx="8" fill="#f0f9f1"/><rect x="40" y="184" width="220" height="36" rx="8" fill="#a5d6a7"/><rect x="40" y="202" width="220" height="18" fill="#a5d6a7"/><text x="150" y="207" text-anchor="middle" font-size="14" font-weight="bold" fill="#2e7d32">O - Opportunities</text><circle cx="56" cy="236" r="3" fill="#2e7d32"/><text x="72" y="240">新興国市場</text><circle cx="56" cy="260" r="3" fill="#2e7d32"/><text x="72" y="264">オンライン販売</text><rect x="264" y="184" width="220" height="100" rx="8" fill="#fffef2"/><rect x="264" y="184" width="220" height="36" rx="8" fill="#ffe082"/><rect x="264" y="202" width="220" height="18" fill="#ffe082"/><text x="374" y="207" text-anchor="middle" font-size="14" font-weight="bold" fill="#f57f17">T - Threats</text><circle cx="280" cy="236" r="3" fill="#f57f17"/><text x="296" y="240">競合の新製品</text><circle cx="280" cy="260" r="3" fill="#f57f17"/><text x="296" y="264">原材料費の高騰</text></svg>