   Compiling mdd-swot v0.1.0 (/Users/fujis/ghq/github-home/ppdx999/mdd/crates/mdd-swot)
    Finished `dev` profile [unoptimized + debuginfo] target(s) in 0.12s
     Running `target/debug/mdd-swot`
<svg xmlns="http://www.w3.org/2000/svg" width="524" height="372" viewBox="0 0 524 372"><rect width="100%" height="100%" fill="white"/><style>text { font-family: sans-serif; font-size: 13px; fill: #333; }</style><text x="262" y="58" text-anchor="middle" font-size="16" font-weight="bold">スタートアップ SWOT分析</text><rect x="40" y="80" width="220" height="124" rx="8" fill="#e3f2fd"/><rect x="40" y="80" width="220" height="36" rx="8" fill="#1565c0"/><rect x="40" y="98" width="220" height="18" fill="#1565c0"/><text x="150" y="103" text-anchor="middle" font-size="14" font-weight="bold" fill="white">S - Strengths</text><circle cx="56" cy="132" r="3" fill="#1565c0"/><text x="72" y="136">革新的な技術</text><circle cx="56" cy="156" r="3" fill="#1565c0"/><text x="72" y="160">少数精鋭チーム</text><circle cx="56" cy="180" r="3" fill="#1565c0"/><text x="72" y="184">迅速な意思決定</text><rect x="264" y="80" width="220" height="124" rx="8" fill="#fce4ec"/><rect x="264" y="80" width="220" height="36" rx="8" fill="#c62828"/><rect x="264" y="98" width="220" height="18" fill="#c62828"/><text x="374" y="103" text-anchor="middle" font-size="14" font-weight="bold" fill="white">W - Weaknesses</text><circle cx="280" cy="132" r="3" fill="#c62828"/><text x="296" y="136">資金力不足</text><circle cx="280" cy="156" r="3" fill="#c62828"/><text x="296" y="160">ブランド認知度が低い</text><circle cx="280" cy="180" r="3" fill="#c62828"/><text x="296" y="184">人材リソース限定的</text><rect x="40" y="208" width="220" height="124" rx="8" fill="#e8f5e9"/><rect x="40" y="208" width="220" height="36" rx="8" fill="#2e7d32"/><rect x="40" y="226" width="220" height="18" fill="#2e7d32"/><text x="150" y="231" text-anchor="middle" font-size="14" font-weight="bold" fill="white">O - Opportunities</text><circle cx="56" cy="260" r="3" fill="#2e7d32"/><text x="72" y="264">市場の急成長</text><circle cx="56" cy="284" r="3" fill="#2e7d32"/><text x="72" y="288">大企業との提携可能性</text><circle cx="56" cy="308" r="3" fill="#2e7d32"/><text x="72" y="312">海外展開</text><rect x="264" y="208" width="220" height="124" rx="8" fill="#fff8e1"/><rect x="264" y="208" width="220" height="36" rx="8" fill="#f57f17"/><rect x="264" y="226" width="220" height="18" fill="#f57f17"/><text x="374" y="231" text-anchor="middle" font-size="14" font-weight="bold" fill="white">T - Threats</text><circle cx="280" cy="260" r="3" fill="#f57f17"/><text x="296" y="264">大手の参入リスク</text><circle cx="280" cy="284" r="3" fill="#f57f17"/><text x="296" y="288">規制強化の可能性</text><circle cx="280" cy="308" r="3" fill="#f57f17"/><text x="296" y="312">景気後退</text></svg>