   Compiling mdd-map v0.1.0 (/Users/fujis/ghq/github-home/ppdx999/mdd/crates/mdd-map)
    Finished `dev` profile [unoptimized + debuginfo] target(s) in 0.13s
     Running `target/debug/mdd-map`
<svg xmlns="http://www.w3.org/2000/svg" width="580" height="420" viewBox="0 0 580 420"><rect width="100%" height="100%" fill="white"/><style>text { font-family: sans-serif; font-size: 13px; fill: #333; }</style><text x="290" y="58" text-anchor="middle" font-size="16" font-weight="bold">拠点マップ</text><rect x="40" y="80" width="500" height="300" rx="8" fill="#f5f5f5" stroke="#ddd" stroke-width="1"/><line x1="440" y1="230" x2="320" y2="260" stroke="#666" stroke-width="1.5" stroke-dasharray="6,3"/><line x1="320" y1="260" x2="190" y2="300" stroke="#666" stroke-width="1.5" stroke-dasharray="6,3"/><line x1="440" y1="230" x2="420" y2="130" stroke="#666" stroke-width="1.5" stroke-dasharray="6,3"/><polygon points="436,234 444,234 440,244" fill="#1565c0"/><circle cx="440" cy="230" r="8" fill="#e3f2fd" stroke="#1565c0" stroke-width="2"/><text x="440" y="216" text-anchor="middle" font-size="12">東京本社</text><polygon points="316,264 324,264 320,274" fill="#2e7d32"/><circle cx="320" cy="260" r="8" fill="#e8f5e9" stroke="#2e7d32" stroke-width="2"/><text x="320" y="246" text-anchor="middle" font-size="12">大阪支社</text><polygon points="186,304 194,304 190,314" fill="#f57f17"/><circle cx="190" cy="300" r="8" fill="#fff8e1" stroke="#f57f17" stroke-width="2"/><text x="190" y="286" text-anchor="middle" font-size="12">福岡支社</text><polygon points="416,134 424,134 420,144" fill="#7b1fa2"/><circle cx="420" cy="130" r="8" fill="#f3e5f5" stroke="#7b1fa2" stroke-width="2"/><text x="420" y="116" text-anchor="middle" font-size="12">札幌支社</text></svg>