<svg xmlns="http://www.w3.org/2000/svg" width="472" height="196" viewBox="0 0 472 196"><rect width="100%" height="100%" fill="white"/><style>text { font-family: sans-serif; font-size: 13px; fill: #333; }</style><rect x="24" y="24" width="164" height="148" rx="10" fill="#ffebee" stroke="#ef9a9a" stroke-width="1.5"/><rect x="24" y="24" width="164" height="36" rx="10" fill="#ffcdd2"/><rect x="24" y="42" width="164" height="18" fill="#ffcdd2"/><text x="106" y="47" text-anchor="middle" font-weight="bold">Before</text><rect x="36" y="72" width="140" height="40" rx="8" fill="#fff" stroke="#ef9a9a" stroke-width="1"/><text x="106" y="97" text-anchor="middle">Manual deploy</text><rect x="36" y="120" width="140" height="40" rx="8" fill="#fff" stroke="#ef9a9a" stroke-width="1"/><text x="106" y="145" text-anchor="middle">No tests</text><rect x="248" y="24" width="200" height="148" rx="10" fill="#e8f5e9" stroke="#a5d6a7" stroke-width="1.5"/><rect x="248" y="24" width="200" height="36" rx="10" fill="#c8e6c9"/><rect x="248" y="42" width="200" height="18" fill="#c8e6c9"/><text x="348" y="47" text-anchor="middle" font-weight="bold">After</text><rect x="260" y="72" width="176" height="40" rx="8" fill="#fff" stroke="#a5d6a7" stroke-width="1"/><text x="348" y="97" text-anchor="middle">Auto CI/CD</text><rect x="260" y="120" width="176" height="40" rx="8" fill="#fff" stroke="#a5d6a7" stroke-width="1"/><text x="348" y="145" text-anchor="middle">Full test coverage</text><line x1="192" y1="92" x2="244" y2="92" stroke="#666" stroke-width="2"/><polygon points="244,92 236,87 236,97" fill="#666"/><line x1="192" y1="140" x2="244" y2="140" stroke="#666" stroke-width="2"/><polygon points="244,140 236,135 236,145" fill="#666"/></svg>