<svg xmlns="http://www.w3.org/2000/svg" width="480" height="340" viewBox="0 0 480 340"><rect width="100%" height="100%" fill="white"/><style>text { font-family: sans-serif; font-size: 13px; fill: #333; }</style><text x="240" y="46" text-anchor="middle" font-size="16" font-weight="bold">システム改善計画</text><rect x="24" y="72" width="164" height="244" rx="10" fill="#ffebee" stroke="#ef9a9a" stroke-width="1.5"/><rect x="24" y="72" width="164" height="36" rx="10" fill="#ffcdd2"/><rect x="24" y="90" width="164" height="18" fill="#ffcdd2"/><text x="106" y="95" text-anchor="middle" font-weight="bold">現状</text><rect x="36" y="120" width="140" height="40" rx="8" fill="#fff" stroke="#ef9a9a" stroke-width="1"/><text x="106" y="145" text-anchor="middle">手動デプロイ</text><rect x="36" y="168" width="140" height="40" rx="8" fill="#fff" stroke="#ef9a9a" stroke-width="1"/><text x="106" y="193" text-anchor="middle">テストなし</text><rect x="36" y="216" width="140" height="40" rx="8" fill="#fff" stroke="#ef9a9a" stroke-width="1"/><text x="106" y="241" text-anchor="middle">モノリス構成</text><rect x="36" y="264" width="140" height="40" rx="8" fill="#fff" stroke="#ef9a9a" stroke-width="1"/><text x="106" y="289" text-anchor="middle">オンプレミス</text><rect x="248" y="72" width="208" height="244" rx="10" fill="#e8f5e9" stroke="#a5d6a7" stroke-width="1.5"/><rect x="248" y="72" width="208" height="36" rx="10" fill="#c8e6c9"/><rect x="248" y="90" width="208" height="18" fill="#c8e6c9"/><text x="352" y="95" text-anchor="middle" font-weight="bold">改善後</text><rect x="260" y="120" width="184" height="40" rx="8" fill="#fff" stroke="#a5d6a7" stroke-width="1"/><text x="352" y="145" text-anchor="middle">自動CI/CDパイプライン</text><rect x="260" y="168" width="184" height="40" rx="8" fill="#fff" stroke="#a5d6a7" stroke-width="1"/><text x="352" y="193" text-anchor="middle">テスト自動化</text><rect x="260" y="216" width="184" height="40" rx="8" fill="#fff" stroke="#a5d6a7" stroke-width="1"/><text x="352" y="241" text-anchor="middle">マイクロサービス化</text><rect x="260" y="264" width="184" height="40" rx="8" fill="#fff" stroke="#a5d6a7" stroke-width="1"/><text x="352" y="289" text-anchor="middle">クラウド移行</text><line x1="192" y1="140" x2="244" y2="140" stroke="#666" stroke-width="2"/><polygon points="244,140 236,135 236,145" fill="#666"/><line x1="192" y1="188" x2="244" y2="188" stroke="#666" stroke-width="2"/><polygon points="244,188 236,183 236,193" fill="#666"/><line x1="192" y1="236" x2="244" y2="236" stroke="#666" stroke-width="2"/><polygon points="244,236 236,231 236,241" fill="#666"/><line x1="192" y1="284" x2="244" y2="284" stroke="#666" stroke-width="2"/><polygon points="244,284 236,279 236,289" fill="#666"/></svg>