<svg xmlns="http://www.w3.org/2000/svg" width="482" height="340" viewBox="0 0 482 340"><rect width="100%" height="100%" fill="white"/><style>text { font-family: sans-serif; font-size: 13px; fill: #333; }</style><text x="241" y="46" text-anchor="middle" font-size="16" font-weight="bold">承認フロー改善</text><rect x="24" y="72" width="182" height="244" rx="10" fill="#ffebee" stroke="#ef9a9a" stroke-width="1.5"/><rect x="24" y="72" width="182" height="36" rx="10" fill="#ffcdd2"/><rect x="24" y="90" width="182" height="18" fill="#ffcdd2"/><text x="115" y="95" text-anchor="middle" font-weight="bold">従来の承認フロー</text><rect x="36" y="120" width="158" height="40" rx="8" fill="#fff" stroke="#ef9a9a" stroke-width="1"/><text x="115" y="145" text-anchor="middle">紙の申請書を記入</text><rect x="36" y="168" width="158" height="40" rx="8" fill="#fff" stroke="#ef9a9a" stroke-width="1"/><text x="115" y="193" text-anchor="middle">上長に手渡し</text><rect x="36" y="216" width="158" height="40" rx="8" fill="#fff" stroke="#ef9a9a" stroke-width="1"/><text x="115" y="241" text-anchor="middle">押印して総務へ回覧</text><rect x="36" y="264" width="158" height="40" rx="8" fill="#fff" stroke="#ef9a9a" stroke-width="1"/><text x="115" y="289" text-anchor="middle">結果を申請者に連絡</text><rect x="266" y="72" width="192" height="244" rx="10" fill="#e8f5e9" stroke="#a5d6a7" stroke-width="1.5"/><rect x="266" y="72" width="192" height="36" rx="10" fill="#c8e6c9"/><rect x="266" y="90" width="192" height="18" fill="#c8e6c9"/><text x="362" y="95" text-anchor="middle" font-weight="bold">新しい承認フロー</text><rect x="278" y="120" width="168" height="40" rx="8" fill="#fff" stroke="#a5d6a7" stroke-width="1"/><text x="362" y="145" text-anchor="middle">Webフォームから申請</text><rect x="278" y="168" width="168" height="40" rx="8" fill="#fff" stroke="#a5d6a7" stroke-width="1"/><text x="362" y="193" text-anchor="middle">上長にSlack通知</text><rect x="278" y="216" width="168" height="40" rx="8" fill="#fff" stroke="#a5d6a7" stroke-width="1"/><text x="362" y="241" text-anchor="middle">ワンクリック承認</text><rect x="278" y="264" width="168" height="40" rx="8" fill="#fff" stroke="#a5d6a7" stroke-width="1"/><text x="362" y="289" text-anchor="middle">自動で結果通知</text><line x1="210" y1="140" x2="262" y2="140" stroke="#666" stroke-width="2"/><polygon points="262,140 254,135 254,145" fill="#666"/><line x1="210" y1="188" x2="262" y2="188" stroke="#666" stroke-width="2"/><polygon points="262,188 254,183 254,193" fill="#666"/><line x1="210" y1="236" x2="262" y2="236" stroke="#666" stroke-width="2"/><polygon points="262,236 254,231 254,241" fill="#666"/><line x1="210" y1="284" x2="262" y2="284" stroke="#666" stroke-width="2"/><polygon points="262,284 254,279 254,289" fill="#666"/></svg>