<svg xmlns="http://www.w3.org/2000/svg" width="1176.25" height="403" viewBox="0 0 1176.25 403"><style>text { font-family: sans-serif; font-size: 12px; fill: #333; }</style><defs><marker id="arrow" viewBox="0 0 10 10" refX="10" refY="5" markerWidth="8" markerHeight="8" orient="auto"><polygon points="0,1 10,5 0,9" fill="#666"/></marker></defs><rect x="40" y="40" width="1096.25" height="323" rx="6" fill="#fafafa" stroke="#bbb" stroke-width="1.5" stroke-dasharray="6,4"/><text x="48" y="59.599999999999994" font-weight="bold" font-size="13">AWS</text><rect x="546.75" y="80" width="573.5" height="271" rx="6" fill="#fafafa" stroke="#bbb" stroke-width="1.5" stroke-dasharray="6,4"/><text x="554.75" y="99.6" font-weight="bold" font-size="13">VPC</text><rect x="562.75" y="120" width="264" height="122" rx="6" fill="#fafafa" stroke="#bbb" stroke-width="1.5" stroke-dasharray="6,4"/><text x="570.75" y="139.6" font-weight="bold" font-size="13">Public Subnet</text><rect x="578.75" y="160" width="100" height="70" rx="6" fill="#fff3e0" stroke="#e65100" stroke-width="1.5"/><circle cx="628.75" cy="182" r="8" fill="none" stroke="#e65100" stroke-width="1.5"/><line x1="620.75" y1="182" x2="614.35" y2="176" stroke="#e65100" stroke-width="1.5"/><line x1="620.75" y1="182" x2="614.35" y2="188" stroke="#e65100" stroke-width="1.5"/><text x="628.75" y="222" text-anchor="middle" font-size="11">ALB</text><text x="628.75" y="210" text-anchor="middle" font-size="9" fill="#e65100">lb</text><rect x="710.75" y="160" width="100" height="70" rx="6" fill="#e3f2fd" stroke="#1565c0" stroke-width="1.5"/><rect x="751.15" y="168" width="19.2" height="8" rx="1" fill="none" stroke="#1565c0" stroke-width="1.5"/><rect x="751.15" y="178" width="19.2" height="8" rx="1" fill="none" stroke="#1565c0" stroke-width="1.5"/><rect x="751.15" y="188" width="19.2" height="8" rx="1" fill="none" stroke="#1565c0" stroke-width="1.5"/><text x="760.75" y="222" text-anchor="middle" font-size="11">Bastion</text><text x="760.75" y="210" text-anchor="middle" font-size="9" fill="#1565c0">server</text><rect x="845.25" y="120" width="259" height="219" rx="6" fill="#fafafa" stroke="#bbb" stroke-width="1.5" stroke-dasharray="6,4"/><text x="853.25" y="139.6" font-weight="bold" font-size="13">Private Subnet</text><rect x="861.25" y="160" width="100" height="70" rx="6" fill="#e3f2fd" stroke="#1565c0" stroke-width="1.5"/><rect x="901.65" y="168" width="19.2" height="8" rx="1" fill="none" stroke="#1565c0" stroke-width="1.5"/><rect x="901.65" y="178" width="19.2" height="8" rx="1" fill="none" stroke="#1565c0" stroke-width="1.5"/><rect x="901.65" y="188" width="19.2" height="8" rx="1" fill="none" stroke="#1565c0" stroke-width="1.5"/><text x="911.25" y="222" text-anchor="middle" font-size="11">App1</text><text x="911.25" y="210" text-anchor="middle" font-size="9" fill="#1565c0">server</text><rect x="861.25" y="257" width="100" height="70" rx="6" fill="#e3f2fd" stroke="#1565c0" stroke-width="1.5"/><rect x="901.65" y="265" width="19.2" height="8" rx="1" fill="none" stroke="#1565c0" stroke-width="1.5"/><rect x="901.65" y="275" width="19.2" height="8" rx="1" fill="none" stroke="#1565c0" stroke-width="1.5"/><rect x="901.65" y="285" width="19.2" height="8" rx="1" fill="none" stroke="#1565c0" stroke-width="1.5"/><text x="911.25" y="319" text-anchor="middle" font-size="11">App2</text><text x="911.25" y="307" text-anchor="middle" font-size="9" fill="#1565c0">server</text><rect x="988.25" y="257" width="100" height="70" rx="6" fill="#e8f5e9" stroke="#2e7d32" stroke-width="1.5"/><ellipse cx="1038.25" cy="271.2" rx="9.6" ry="5" fill="none" stroke="#2e7d32" stroke-width="1.5"/><line x1="1028.65" y1="271.2" x2="1028.65" y2="286.8" stroke="#2e7d32" stroke-width="1.5"/><line x1="1047.85" y1="271.2" x2="1047.85" y2="286.8" stroke="#2e7d32" stroke-width="1.5"/><ellipse cx="1038.25" cy="286.8" rx="9.6" ry="5" fill="none" stroke="#2e7d32" stroke-width="1.5"/><text x="1038.25" y="319" text-anchor="middle" font-size="11">RDS</text><text x="1038.25" y="307" text-anchor="middle" font-size="9" fill="#2e7d32">db</text><rect x="988.25" y="160" width="100" height="70" rx="6" fill="#fce4ec" stroke="#c62828" stroke-width="1.5"/><polyline points="1034.25,172.4 1040.25,180 1036.25,184 1042.25,191.6" fill="none" stroke="#c62828" stroke-width="2"/><text x="1038.25" y="222" text-anchor="middle" font-size="11">ElastiCache</text><text x="1038.25" y="210" text-anchor="middle" font-size="9" fill="#c62828">cache</text><rect x="56" y="80" width="100" height="70" rx="6" fill="#e0f2f1" stroke="#00695c" stroke-width="1.5"/><path d="M98,94 L114,94 L112.4,110 L99.6,110 Z" fill="none" stroke="#00695c" stroke-width="1.5"/><text x="106" y="142" text-anchor="middle" font-size="11">S3</text><text x="106" y="130" text-anchor="middle" font-size="9" fill="#00695c">storage</text><rect x="183" y="80" width="100" height="70" rx="6" fill="#fff8e1" stroke="#f9a825" stroke-width="1.5"/><circle cx="228" cy="104" r="6" fill="none" stroke="#f9a825" stroke-width="1.5"/><circle cx="233" cy="99" r="7" fill="none" stroke="#f9a825" stroke-width="1.5"/><circle cx="238" cy="104" r="6" fill="none" stroke="#f9a825" stroke-width="1.5"/><text x="233" y="142" text-anchor="middle" font-size="11">CloudFront</text><text x="233" y="130" text-anchor="middle" font-size="9" fill="#f9a825">cdn</text><rect x="910.5" y="80" width="100" height="70" rx="6" fill="#f3e5f5" stroke="#6a1b9a" stroke-width="1.5"/><line x1="952.5" y1="102" x2="965.3" y2="102" stroke="#6a1b9a" stroke-width="2"/><polyline points="962.1,97 968.5,102 962.1,107" fill="none" stroke="#6a1b9a" stroke-width="2"/><text x="960.5" y="142" text-anchor="middle" font-size="11">SQS</text><text x="960.5" y="130" text-anchor="middle" font-size="9" fill="#6a1b9a">queue</text><path d="M283,125.10739102969046 L578.75,184.89260897030954" fill="none" stroke="#666" stroke-width="1.5" marker-end="url(#arrow)"/><rect x="407.875" y="137" width="46" height="16" rx="3" fill="white" opacity="0.9"/><text x="430.875" y="149" text-anchor="middle" font-size="11" fill="#666">HTTPS</text><path d="M678.75,215.83333333333334 L719.75,232.91666666666669 Q760.75,250 811,231.63621262458472 L861.25,213.27242524916943" fill="none" stroke="#666" stroke-width="1.5" marker-end="url(#arrow)"/><path d="M678.75,174.16666666666666 L719.75,157.08333333333331 Q760.75,140 818.672697368421,198.5 L876.5953947368421,257" fill="none" stroke="#666" stroke-width="1.5" marker-end="url(#arrow)"/><path d="M957.0747422680413,230 L992.4252577319587,257" fill="none" stroke="#666" stroke-width="1.5" marker-end="url(#arrow)"/><path d="M961.25,292 L988.25,292" fill="none" stroke="#666" stroke-width="1.5" marker-end="url(#arrow)"/><path d="M961.25,195 L988.25,195" fill="none" stroke="#666" stroke-width="1.5" marker-end="url(#arrow)"/><path d="M957.0747422680413,257 L992.4252577319587,230" fill="none" stroke="#666" stroke-width="1.5" marker-end="url(#arrow)"/><path d="M932.796875,160 L938.953125,150" fill="none" stroke="#666" stroke-width="1.5" marker-end="url(#arrow)"/><path d="M156,115 L183,115" fill="none" stroke="#666" stroke-width="1.5" marker-end="url(#arrow)"/></svg>