<svg xmlns="http://www.w3.org/2000/svg" width="412" height="1033.5" viewBox="0 0 412 1033.5"><style>text { font-family: sans-serif; font-size: 12px; fill: #333; }</style><defs><marker id="arrow" viewBox="0 0 10 10" refX="10" refY="5" markerWidth="8" markerHeight="8" orient="auto"><polygon points="0,1 10,5 0,9" fill="#666"/></marker></defs><rect x="40" y="40" width="332" height="953.5" rx="6" fill="#fafafa" stroke="#bbb" stroke-width="1.5" stroke-dasharray="6,4"/><text x="48" y="59.599999999999994" font-weight="bold" font-size="13">AWS</text><rect x="56" y="498.5" width="300" height="483" rx="6" fill="#fafafa" stroke="#bbb" stroke-width="1.5" stroke-dasharray="6,4"/><text x="64" y="518.1" font-weight="bold" font-size="13">VPC</text><rect x="72" y="538.5" width="264" height="122" rx="6" fill="#fafafa" stroke="#bbb" stroke-width="1.5" stroke-dasharray="6,4"/><text x="80" y="558.1" font-weight="bold" font-size="13">Public Subnet</text><rect x="88" y="578.5" width="100" height="70" rx="6" fill="#fff3e0" stroke="#e65100" stroke-width="1.5"/><circle cx="138" cy="600.5" r="8" fill="none" stroke="#e65100" stroke-width="1.5"/><line x1="130" y1="600.5" x2="123.6" y2="594.5" stroke="#e65100" stroke-width="1.5"/><line x1="130" y1="600.5" x2="123.6" y2="606.5" stroke="#e65100" stroke-width="1.5"/><text x="138" y="640.5" text-anchor="middle" font-size="11">ALB</text><text x="138" y="628.5" text-anchor="middle" font-size="9" fill="#e65100">lb</text><rect x="220" y="578.5" width="100" height="70" rx="6" fill="#e3f2fd" stroke="#1565c0" stroke-width="1.5"/><rect x="260.4" y="586.5" width="19.2" height="8" rx="1" fill="none" stroke="#1565c0" stroke-width="1.5"/><rect x="260.4" y="596.5" width="19.2" height="8" rx="1" fill="none" stroke="#1565c0" stroke-width="1.5"/><rect x="260.4" y="606.5" width="19.2" height="8" rx="1" fill="none" stroke="#1565c0" stroke-width="1.5"/><text x="270" y="640.5" text-anchor="middle" font-size="11">Bastion</text><text x="270" y="628.5" text-anchor="middle" font-size="9" fill="#1565c0">server</text><rect x="72" y="741.5" width="268" height="228" rx="6" fill="#fafafa" stroke="#bbb" stroke-width="1.5" stroke-dasharray="6,4"/><text x="80" y="761.1" font-weight="bold" font-size="13">Private Subnet</text><rect x="88" y="781.5" width="100" height="70" rx="6" fill="#e3f2fd" stroke="#1565c0" stroke-width="1.5"/><rect x="128.4" y="789.5" width="19.2" height="8" rx="1" fill="none" stroke="#1565c0" stroke-width="1.5"/><rect x="128.4" y="799.5" width="19.2" height="8" rx="1" fill="none" stroke="#1565c0" stroke-width="1.5"/><rect x="128.4" y="809.5" width="19.2" height="8" rx="1" fill="none" stroke="#1565c0" stroke-width="1.5"/><text x="138" y="843.5" text-anchor="middle" font-size="11">App1</text><text x="138" y="831.5" text-anchor="middle" font-size="9" fill="#1565c0">server</text><rect x="224" y="781.5" width="100" height="70" rx="6" fill="#e3f2fd" stroke="#1565c0" stroke-width="1.5"/><rect x="264.4" y="789.5" width="19.2" height="8" rx="1" fill="none" stroke="#1565c0" stroke-width="1.5"/><rect x="264.4" y="799.5" width="19.2" height="8" rx="1" fill="none" stroke="#1565c0" stroke-width="1.5"/><rect x="264.4" y="809.5" width="19.2" height="8" rx="1" fill="none" stroke="#1565c0" stroke-width="1.5"/><text x="274" y="843.5" text-anchor="middle" font-size="11">App2</text><text x="274" y="831.5" text-anchor="middle" font-size="9" fill="#1565c0">server</text><rect x="224" y="887.5" width="100" height="70" rx="6" fill="#e8f5e9" stroke="#2e7d32" stroke-width="1.5"/><ellipse cx="274" cy="901.7" rx="9.6" ry="5" fill="none" stroke="#2e7d32" stroke-width="1.5"/><line x1="264.4" y1="901.7" x2="264.4" y2="917.3" stroke="#2e7d32" stroke-width="1.5"/><line x1="283.6" y1="901.7" x2="283.6" y2="917.3" stroke="#2e7d32" stroke-width="1.5"/><ellipse cx="274" cy="917.3" rx="9.6" ry="5" fill="none" stroke="#2e7d32" stroke-width="1.5"/><text x="274" y="949.5" text-anchor="middle" font-size="11">RDS</text><text x="274" y="937.5" text-anchor="middle" font-size="9" fill="#2e7d32">db</text><rect x="88" y="887.5" width="100" height="70" rx="6" fill="#fce4ec" stroke="#c62828" stroke-width="1.5"/><polyline points="134,899.9 140,907.5 136,911.5 142,919.1" fill="none" stroke="#c62828" stroke-width="2"/><text x="138" y="949.5" text-anchor="middle" font-size="11">ElastiCache</text><text x="138" y="937.5" text-anchor="middle" font-size="9" fill="#c62828">cache</text><rect x="56" y="80" width="100" height="70" rx="6" fill="#e0f2f1" stroke="#00695c" stroke-width="1.5"/><path d="M98,94 L114,94 L112.4,110 L99.6,110 Z" fill="none" stroke="#00695c" stroke-width="1.5"/><text x="106" y="142" text-anchor="middle" font-size="11">S3</text><text x="106" y="130" text-anchor="middle" font-size="9" fill="#00695c">storage</text><rect x="56" y="186" width="100" height="70" rx="6" fill="#fff8e1" stroke="#f9a825" stroke-width="1.5"/><circle cx="101" cy="210" r="6" fill="none" stroke="#f9a825" stroke-width="1.5"/><circle cx="106" cy="205" r="7" fill="none" stroke="#f9a825" stroke-width="1.5"/><circle cx="111" cy="210" r="6" fill="none" stroke="#f9a825" stroke-width="1.5"/><text x="106" y="248" text-anchor="middle" font-size="11">CloudFront</text><text x="106" y="236" text-anchor="middle" font-size="9" fill="#f9a825">cdn</text><rect x="56" y="811" width="100" height="70" rx="6" fill="#f3e5f5" stroke="#6a1b9a" stroke-width="1.5"/><line x1="98" y1="833" x2="110.8" y2="833" stroke="#6a1b9a" stroke-width="2"/><polyline points="107.6,828 114,833 107.6,838" fill="none" stroke="#6a1b9a" stroke-width="2"/><text x="106" y="873" text-anchor="middle" font-size="11">SQS</text><text x="106" y="861" text-anchor="middle" font-size="9" fill="#6a1b9a">queue</text><path d="M108.85350318471338,256 L135.1464968152866,578.5" fill="none" stroke="#666" stroke-width="1.5" marker-end="url(#arrow)"/><rect x="99" y="399.25" width="46" height="16" rx="3" fill="white" opacity="0.9"/><text x="122" y="411.25" text-anchor="middle" font-size="11" fill="#666">HTTPS</text><path d="M122.64516129032258,648.5 L79.32258064516128,747.25 Q36,846 62,838.4803921568628 L88,830.9607843137255" fill="none" stroke="#666" stroke-width="1.5" marker-end="url(#arrow)"/><path d="M161.44827586206895,648.5 L250.55172413793105,781.5" fill="none" stroke="#666" stroke-width="1.5" marker-end="url(#arrow)"/><path d="M124.74556213017752,851.5 L115.37278106508876,876.25 Q106,901 165,908.5505952380952 L224,916.1011904761905" fill="none" stroke="#666" stroke-width="1.5" marker-end="url(#arrow)"/><path d="M274,851.5 L274,887.5" fill="none" stroke="#666" stroke-width="1.5" marker-end="url(#arrow)"/><path d="M88,830.9607843137255 L62,838.4803921568628 Q36,846 63.66666666666667,866.75 L91.33333333333334,887.5" fill="none" stroke="#666" stroke-width="1.5" marker-end="url(#arrow)"/><path d="M229.0943396226415,851.5 L182.9056603773585,887.5" fill="none" stroke="#666" stroke-width="1.5" marker-end="url(#arrow)"/><path d="M100.03389830508475,851.5 L143.96610169491527,811" fill="none" stroke="#666" stroke-width="1.5" marker-end="url(#arrow)"/><path d="M106,150 L106,186" fill="none" stroke="#666" stroke-width="1.5" marker-end="url(#arrow)"/></svg>