<svg xmlns="http://www.w3.org/2000/svg" width="2527.942542354036" height="447.09845356715715" viewBox="0 0 2527.942542354036 447.09845356715715"><style>text { font-family: sans-serif; font-size: 12px; fill: #333; }</style><defs><marker id="arrow" viewBox="0 0 10 10" refX="10" refY="5" markerWidth="8" markerHeight="8" orient="auto"><polygon points="0,1 10,5 0,9" fill="#666"/></marker></defs><rect x="40" y="40" width="2447.942542354036" height="367.09845356715715" rx="6" fill="#fafafa" stroke="#bbb" stroke-width="1.5" stroke-dasharray="6,4"/><text x="48" y="59.599999999999994" font-weight="bold" font-size="13">AWS</text><rect x="1484.5250274467148" y="80" width="792.6200047358559" height="315.09845356715715" rx="6" fill="#fafafa" stroke="#bbb" stroke-width="1.5" stroke-dasharray="6,4"/><text x="1492.5250274467148" y="99.6" font-weight="bold" font-size="13">VPC</text><rect x="1500.5250274467148" y="120" width="256.66564096494506" height="122" rx="6" fill="#fafafa" stroke="#bbb" stroke-width="1.5" stroke-dasharray="6,4"/><text x="1508.5250274467148" y="139.6" font-weight="bold" font-size="13">Public Subnet</text><rect x="1516.5250274467148" y="160" width="100" height="70" rx="6" fill="#fff3e0" stroke="#e65100" stroke-width="1.5"/><circle cx="1566.5250274467148" cy="182" r="8" fill="none" stroke="#e65100" stroke-width="1.5"/><line x1="1558.5250274467148" y1="182" x2="1552.1250274467147" y2="176" stroke="#e65100" stroke-width="1.5"/><line x1="1558.5250274467148" y1="182" x2="1552.1250274467147" y2="188" stroke="#e65100" stroke-width="1.5"/><text x="1566.5250274467148" y="222" text-anchor="middle" font-size="11">ALB</text><text x="1566.5250274467148" y="210" text-anchor="middle" font-size="9" fill="#e65100">lb</text><rect x="1641.1906684116598" y="160" width="100" height="70" rx="6" fill="#e3f2fd" stroke="#1565c0" stroke-width="1.5"/><rect x="1681.5906684116599" y="168" width="19.2" height="8" rx="1" fill="none" stroke="#1565c0" stroke-width="1.5"/><rect x="1681.5906684116599" y="178" width="19.2" height="8" rx="1" fill="none" stroke="#1565c0" stroke-width="1.5"/><rect x="1681.5906684116599" y="188" width="19.2" height="8" rx="1" fill="none" stroke="#1565c0" stroke-width="1.5"/><text x="1691.1906684116598" y="222" text-anchor="middle" font-size="11">Bastion</text><text x="1691.1906684116598" y="210" text-anchor="middle" font-size="9" fill="#1565c0">server</text><rect x="1958.0465786154136" y="120" width="303.09845356715715" height="263.09845356715715" rx="6" fill="#fafafa" stroke="#bbb" stroke-width="1.5" stroke-dasharray="6,4"/><text x="1966.0465786154136" y="139.6" font-weight="bold" font-size="13">Private Subnet</text><rect x="1974.0465786154136" y="160" width="100" height="70" rx="6" fill="#e3f2fd" stroke="#1565c0" stroke-width="1.5"/><rect x="2014.4465786154137" y="168" width="19.2" height="8" rx="1" fill="none" stroke="#1565c0" stroke-width="1.5"/><rect x="2014.4465786154137" y="178" width="19.2" height="8" rx="1" fill="none" stroke="#1565c0" stroke-width="1.5"/><rect x="2014.4465786154137" y="188" width="19.2" height="8" rx="1" fill="none" stroke="#1565c0" stroke-width="1.5"/><text x="2024.0465786154136" y="222" text-anchor="middle" font-size="11">App1</text><text x="2024.0465786154136" y="210" text-anchor="middle" font-size="9" fill="#1565c0">server</text><rect x="1974.0465786154136" y="301.09845356715715" width="100" height="70" rx="6" fill="#e3f2fd" stroke="#1565c0" stroke-width="1.5"/><rect x="2014.4465786154137" y="309.09845356715715" width="19.2" height="8" rx="1" fill="none" stroke="#1565c0" stroke-width="1.5"/><rect x="2014.4465786154137" y="319.09845356715715" width="19.2" height="8" rx="1" fill="none" stroke="#1565c0" stroke-width="1.5"/><rect x="2014.4465786154137" y="329.09845356715715" width="19.2" height="8" rx="1" fill="none" stroke="#1565c0" stroke-width="1.5"/><text x="2024.0465786154136" y="363.09845356715715" text-anchor="middle" font-size="11">App2</text><text x="2024.0465786154136" y="351.09845356715715" text-anchor="middle" font-size="9" fill="#1565c0">server</text><rect x="2145.1450321825705" y="301.09845356715715" width="100" height="70" rx="6" fill="#e8f5e9" stroke="#2e7d32" stroke-width="1.5"/><ellipse cx="2195.1450321825705" cy="315.29845356715714" rx="9.6" ry="5" fill="none" stroke="#2e7d32" stroke-width="1.5"/><line x1="2185.5450321825706" y1="315.29845356715714" x2="2185.5450321825706" y2="330.89845356715716" stroke="#2e7d32" stroke-width="1.5"/><line x1="2204.7450321825704" y1="315.29845356715714" x2="2204.7450321825704" y2="330.89845356715716" stroke="#2e7d32" stroke-width="1.5"/><ellipse cx="2195.1450321825705" cy="330.89845356715716" rx="9.6" ry="5" fill="none" stroke="#2e7d32" stroke-width="1.5"/><text x="2195.1450321825705" y="363.09845356715715" text-anchor="middle" font-size="11">RDS</text><text x="2195.1450321825705" y="351.09845356715715" text-anchor="middle" font-size="9" fill="#2e7d32">db</text><rect x="2145.1450321825705" y="160" width="100" height="70" rx="6" fill="#fce4ec" stroke="#c62828" stroke-width="1.5"/><polyline points="2191.1450321825705,172.4 2197.1450321825705,180 2193.1450321825705,184 2199.1450321825705,191.6" fill="none" stroke="#c62828" stroke-width="2"/><text x="2195.1450321825705" y="222" text-anchor="middle" font-size="11">ElastiCache</text><text x="2195.1450321825705" y="210" text-anchor="middle" font-size="9" fill="#c62828">cache</text><rect x="56" y="80" width="100" height="70" rx="6" fill="#e0f2f1" stroke="#00695c" stroke-width="1.5"/><path d="M98,94 L114,94 L112.4,110 L99.6,110 Z" fill="none" stroke="#00695c" stroke-width="1.5"/><text x="106" y="142" text-anchor="middle" font-size="11">S3</text><text x="106" y="130" text-anchor="middle" font-size="9" fill="#00695c">storage</text><rect x="597.1075125393934" y="80" width="100" height="70" rx="6" fill="#fff8e1" stroke="#f9a825" stroke-width="1.5"/><circle cx="642.1075125393934" cy="104" r="6" fill="none" stroke="#f9a825" stroke-width="1.5"/><circle cx="647.1075125393934" cy="99" r="7" fill="none" stroke="#f9a825" stroke-width="1.5"/><circle cx="652.1075125393934" cy="104" r="6" fill="none" stroke="#f9a825" stroke-width="1.5"/><text x="647.1075125393934" y="142" text-anchor="middle" font-size="11">CloudFront</text><text x="647.1075125393934" y="130" text-anchor="middle" font-size="9" fill="#f9a825">cdn</text><rect x="2371.942542354036" y="80" width="100" height="70" rx="6" fill="#f3e5f5" stroke="#6a1b9a" stroke-width="1.5"/><line x1="2413.942542354036" y1="102" x2="2426.7425423540362" y2="102" stroke="#6a1b9a" stroke-width="2"/><polyline points="2423.542542354036,97 2429.942542354036,102 2423.542542354036,107" fill="none" stroke="#6a1b9a" stroke-width="2"/><text x="2421.942542354036" y="142" text-anchor="middle" font-size="11">SQS</text><text x="2421.942542354036" y="130" text-anchor="middle" font-size="9" fill="#6a1b9a">queue</text><path d="M697.1075125393934,119.35058059602356 L1516.5250274467148,190.64941940397642" fill="none" stroke="#666" stroke-width="1.5" marker-end="url(#arrow)"/><rect x="1083.816269993054" y="137" width="46" height="16" rx="3" fill="white" opacity="0.9"/><text x="1106.816269993054" y="149" text-anchor="middle" font-size="11" fill="#666">HTTPS</text><path d="M1616.5250274467148,217.05900502106493 L1653.8578479291873,233.52950251053247 Q1691.1906684116598,250 1832.6186235135367,226.63091658537266 L1974.0465786154136,203.26183317074532" fill="none" stroke="#666" stroke-width="1.5" marker-end="url(#arrow)"/><path d="M1616.5250274467148,172.94099497893507 L1653.8578479291873,156.47049748946753 Q1691.1906684116598,140 1832.6186235135367,223.32074761618767 L1974.0465786154136,306.64149523237535" fill="none" stroke="#666" stroke-width="1.5" marker-end="url(#arrow)"/><path d="M2066.4881910034633,230 L2152.703419794521,301.09845356715715" fill="none" stroke="#666" stroke-width="1.5" marker-end="url(#arrow)"/><path d="M2074.0465786154136,336.09845356715715 L2145.1450321825705,336.09845356715715" fill="none" stroke="#666" stroke-width="1.5" marker-end="url(#arrow)"/><path d="M2074.0465786154136,195 L2145.1450321825705,195" fill="none" stroke="#666" stroke-width="1.5" marker-end="url(#arrow)"/><path d="M2066.4881910034633,301.09845356715715 L2152.703419794521,230" fill="none" stroke="#666" stroke-width="1.5" marker-end="url(#arrow)"/><path d="M2074.0465786154136,211.07261750569015 L2134.595805398992,230.53630875284506 Q2195.1450321825705,250 2283.5437872683033,197.38111574703092 L2371.942542354036,144.76223149406184" fill="none" stroke="#666" stroke-width="1.5" marker-end="url(#arrow)"/><path d="M156,115 L597.1075125393934,115" fill="none" stroke="#666" stroke-width="1.5" marker-end="url(#arrow)"/></svg>