<svg xmlns="http://www.w3.org/2000/svg" width="2727.516754231813" height="452.2928563989645" viewBox="0 0 2727.516754231813 452.2928563989645"><rect width="100%" height="100%" fill="white"/><style>text { font-family: sans-serif; font-size: 12px; fill: #333; }</style><defs><marker id="arrow" viewBox="0 0 10 10" refX="10" refY="5" markerWidth="8" markerHeight="8" orient="auto"><polygon points="0,1 10,5 0,9" fill="#666"/></marker></defs><rect x="40" y="40" width="2647.516754231813" height="372.2928563989645" rx="6" fill="#fafafa" stroke="#bbb" stroke-width="1.5" stroke-dasharray="6,4"/><text x="48" y="59.599999999999994" font-weight="bold" font-size="13">AWS</text><rect x="1611.9206203579402" y="80" width="826.5432947796132" height="320.2928563989645" rx="6" fill="#fafafa" stroke="#bbb" stroke-width="1.5" stroke-dasharray="6,4"/><text x="1619.9206203579402" y="99.6" font-weight="bold" font-size="13">VPC</text><rect x="1627.9206203579402" y="120" width="258.77280526758625" height="122" rx="6" fill="#fafafa" stroke="#bbb" stroke-width="1.5" stroke-dasharray="6,4"/><text x="1635.9206203579402" y="139.6" font-weight="bold" font-size="13">Public Subnet</text><rect x="1643.9206203579402" y="160" width="100" height="70" rx="6" fill="#fff3e0" stroke="#e65100" stroke-width="1.5"/><circle cx="1693.9206203579402" cy="182" r="8" fill="none" stroke="#e65100" stroke-width="1.5"/><line x1="1685.9206203579402" y1="182" x2="1679.52062035794" y2="176" stroke="#e65100" stroke-width="1.5"/><line x1="1685.9206203579402" y1="182" x2="1679.52062035794" y2="188" stroke="#e65100" stroke-width="1.5"/><text x="1693.9206203579402" y="222" text-anchor="middle" font-size="11">ALB</text><text x="1693.9206203579402" y="210" text-anchor="middle" font-size="9" fill="#e65100">lb</text><rect x="1770.6934256255263" y="160" width="100" height="70" rx="6" fill="#e3f2fd" stroke="#1565c0" stroke-width="1.5"/><rect x="1811.0934256255264" y="168" width="19.2" height="8" rx="1" fill="none" stroke="#1565c0" stroke-width="1.5"/><rect x="1811.0934256255264" y="178" width="19.2" height="8" rx="1" fill="none" stroke="#1565c0" stroke-width="1.5"/><rect x="1811.0934256255264" y="188" width="19.2" height="8" rx="1" fill="none" stroke="#1565c0" stroke-width="1.5"/><text x="1820.6934256255263" y="222" text-anchor="middle" font-size="11">Bastion</text><text x="1820.6934256255263" y="210" text-anchor="middle" font-size="9" fill="#1565c0">server</text><rect x="2114.1710587385887" y="120" width="308.2928563989645" height="268.2928563989645" rx="6" fill="#fafafa" stroke="#bbb" stroke-width="1.5" stroke-dasharray="6,4"/><text x="2122.1710587385887" y="139.6" font-weight="bold" font-size="13">Private Subnet</text><rect x="2130.1710587385887" y="160" width="100" height="70" rx="6" fill="#e3f2fd" stroke="#1565c0" stroke-width="1.5"/><rect x="2170.571058738589" y="168" width="19.2" height="8" rx="1" fill="none" stroke="#1565c0" stroke-width="1.5"/><rect x="2170.571058738589" y="178" width="19.2" height="8" rx="1" fill="none" stroke="#1565c0" stroke-width="1.5"/><rect x="2170.571058738589" y="188" width="19.2" height="8" rx="1" fill="none" stroke="#1565c0" stroke-width="1.5"/><text x="2180.1710587385887" y="222" text-anchor="middle" font-size="11">App1</text><text x="2180.1710587385887" y="210" text-anchor="middle" font-size="9" fill="#1565c0">server</text><rect x="2130.1710587385887" y="306.2928563989645" width="100" height="70" rx="6" fill="#e3f2fd" stroke="#1565c0" stroke-width="1.5"/><rect x="2170.571058738589" y="314.2928563989645" width="19.2" height="8" rx="1" fill="none" stroke="#1565c0" stroke-width="1.5"/><rect x="2170.571058738589" y="324.2928563989645" width="19.2" height="8" rx="1" fill="none" stroke="#1565c0" stroke-width="1.5"/><rect x="2170.571058738589" y="334.2928563989645" width="19.2" height="8" rx="1" fill="none" stroke="#1565c0" stroke-width="1.5"/><text x="2180.1710587385887" y="368.2928563989645" text-anchor="middle" font-size="11">App2</text><text x="2180.1710587385887" y="356.2928563989645" text-anchor="middle" font-size="9" fill="#1565c0">server</text><rect x="2306.463915137553" y="306.2928563989645" width="100" height="70" rx="6" fill="#e8f5e9" stroke="#2e7d32" stroke-width="1.5"/><ellipse cx="2356.463915137553" cy="320.4928563989645" rx="9.6" ry="5" fill="none" stroke="#2e7d32" stroke-width="1.5"/><line x1="2346.8639151375532" y1="320.4928563989645" x2="2346.8639151375532" y2="336.0928563989645" stroke="#2e7d32" stroke-width="1.5"/><line x1="2366.063915137553" y1="320.4928563989645" x2="2366.063915137553" y2="336.0928563989645" stroke="#2e7d32" stroke-width="1.5"/><ellipse cx="2356.463915137553" cy="336.0928563989645" rx="9.6" ry="5" fill="none" stroke="#2e7d32" stroke-width="1.5"/><text x="2356.463915137553" y="368.2928563989645" text-anchor="middle" font-size="11">RDS</text><text x="2356.463915137553" y="356.2928563989645" text-anchor="middle" font-size="9" fill="#2e7d32">db</text><rect x="2306.463915137553" y="160" width="100" height="70" rx="6" fill="#fce4ec" stroke="#c62828" stroke-width="1.5"/><polyline points="2352.463915137553,172.4 2358.463915137553,180 2354.463915137553,184 2360.463915137553,191.6" fill="none" stroke="#c62828" stroke-width="2"/><text x="2356.463915137553" y="222" text-anchor="middle" font-size="11">ElastiCache</text><text x="2356.463915137553" y="210" text-anchor="middle" font-size="9" fill="#c62828">cache</text><rect x="56" y="80" width="100" height="70" rx="6" fill="#e0f2f1" stroke="#00695c" stroke-width="1.5"/><path d="M98,94 L114,94 L112.4,110 L99.6,110 Z" fill="none" stroke="#00695c" stroke-width="1.5"/><text x="106" y="142" text-anchor="middle" font-size="11">S3</text><text x="106" y="130" text-anchor="middle" font-size="9" fill="#00695c">storage</text><rect x="652.3244864840667" y="80" width="100" height="70" rx="6" fill="#fff8e1" stroke="#f9a825" stroke-width="1.5"/><circle cx="697.3244864840667" cy="104" r="6" fill="none" stroke="#f9a825" stroke-width="1.5"/><circle cx="702.3244864840667" cy="99" r="7" fill="none" stroke="#f9a825" stroke-width="1.5"/><circle cx="707.3244864840667" cy="104" r="6" fill="none" stroke="#f9a825" stroke-width="1.5"/><text x="702.3244864840667" y="142" text-anchor="middle" font-size="11">CloudFront</text><text x="702.3244864840667" y="130" text-anchor="middle" font-size="9" fill="#f9a825">cdn</text><rect x="2571.516754231813" y="80" width="100" height="70" rx="6" fill="#f3e5f5" stroke="#6a1b9a" stroke-width="1.5"/><line x1="2613.516754231813" y1="102" x2="2626.3167542318133" y2="102" stroke="#6a1b9a" stroke-width="2"/><polyline points="2623.116754231813,97 2629.516754231813,102 2623.116754231813,107" fill="none" stroke="#6a1b9a" stroke-width="2"/><text x="2621.516754231813" y="142" text-anchor="middle" font-size="11">SQS</text><text x="2621.516754231813" y="130" text-anchor="middle" font-size="9" fill="#6a1b9a">queue</text><path d="M752.3244864840667,119.03390035857964 L1643.9206203579402,190.96609964142036" fill="none" stroke="#666" stroke-width="1.5" marker-end="url(#arrow)"/><rect x="1175.1225534210034" y="137" width="46" height="16" rx="3" fill="white" opacity="0.9"/><text x="1198.1225534210034" y="149" text-anchor="middle" font-size="11" fill="#666">HTTPS</text><path d="M1743.9206203579402,216.6923495082043 L1782.3070229917332,233.34617475410215 Q1820.6934256255263,250 1975.4322421820575,226.32499458476053 L2130.1710587385887,202.6499891695211" fill="none" stroke="#666" stroke-width="1.5" marker-end="url(#arrow)"/><path d="M1743.9206203579402,173.3076504917957 L1782.3070229917332,156.65382524589785 Q1820.6934256255263,140 1975.4322421820575,226.64744482353643 L2130.1710587385887,313.29488964707286" fill="none" stroke="#666" stroke-width="1.5" marker-end="url(#arrow)"/><path d="M2222.3484426918862,230 L2314.2865311842556,306.2928563989645" fill="none" stroke="#666" stroke-width="1.5" marker-end="url(#arrow)"/><path d="M2230.1710587385887,341.2928563989645 L2306.463915137553,341.2928563989645" fill="none" stroke="#666" stroke-width="1.5" marker-end="url(#arrow)"/><path d="M2230.1710587385887,195 L2306.463915137553,195" fill="none" stroke="#666" stroke-width="1.5" marker-end="url(#arrow)"/><path d="M2222.3484426918862,306.2928563989645 L2314.2865311842556,230" fill="none" stroke="#666" stroke-width="1.5" marker-end="url(#arrow)"/><path d="M2230.1710587385887,210.599043864696 L2293.317486938071,230.299521932348 Q2356.463915137553,250 2463.990334684683,195.23331012613585 L2571.516754231813,140.46662025227172" fill="none" stroke="#666" stroke-width="1.5" marker-end="url(#arrow)"/><path d="M156,115 L652.3244864840667,115" fill="none" stroke="#666" stroke-width="1.5" marker-end="url(#arrow)"/></svg>