<svg xmlns="http://www.w3.org/2000/svg" width="2200.8090924171465" height="437.69974619125844" viewBox="0 0 2200.8090924171465 437.69974619125844"><style>text { font-family: sans-serif; font-size: 12px; fill: #333; }</style><defs><marker id="arrow" viewBox="0 0 10 10" refX="10" refY="5" markerWidth="8" markerHeight="8" orient="auto"><polygon points="0,1 10,5 0,9" fill="#666"/></marker></defs><rect x="40" y="40" width="2120.8090924171465" height="357.69974619125844" rx="6" fill="#fafafa" stroke="#bbb" stroke-width="1.5" stroke-dasharray="6,4"/><text x="48" y="59.599999999999994" font-weight="bold" font-size="13">AWS</text><rect x="1275.99329449595" y="80" width="735.276602692885" height="305.69974619125844" rx="6" fill="#fafafa" stroke="#bbb" stroke-width="1.5" stroke-dasharray="6,4"/><text x="1283.99329449595" y="99.6" font-weight="bold" font-size="13">VPC</text><rect x="1291.99329449595" y="120" width="253.0596442562694" height="122" rx="6" fill="#fafafa" stroke="#bbb" stroke-width="1.5" stroke-dasharray="6,4"/><text x="1299.99329449595" y="139.6" font-weight="bold" font-size="13">Public Subnet</text><rect x="1307.99329449595" y="160" width="100" height="70" rx="6" fill="#fff3e0" stroke="#e65100" stroke-width="1.5"/><circle cx="1357.99329449595" cy="182" r="8" fill="none" stroke="#e65100" stroke-width="1.5"/><line x1="1349.99329449595" y1="182" x2="1343.59329449595" y2="176" stroke="#e65100" stroke-width="1.5"/><line x1="1349.99329449595" y1="182" x2="1343.59329449595" y2="188" stroke="#e65100" stroke-width="1.5"/><text x="1357.99329449595" y="222" text-anchor="middle" font-size="11">ALB</text><text x="1357.99329449595" y="210" text-anchor="middle" font-size="9" fill="#e65100">lb</text><rect x="1429.0529387522195" y="160" width="100" height="70" rx="6" fill="#e3f2fd" stroke="#1565c0" stroke-width="1.5"/><rect x="1469.4529387522196" y="168" width="19.2" height="8" rx="1" fill="none" stroke="#1565c0" stroke-width="1.5"/><rect x="1469.4529387522196" y="178" width="19.2" height="8" rx="1" fill="none" stroke="#1565c0" stroke-width="1.5"/><rect x="1469.4529387522196" y="188" width="19.2" height="8" rx="1" fill="none" stroke="#1565c0" stroke-width="1.5"/><text x="1479.0529387522195" y="222" text-anchor="middle" font-size="11">Bastion</text><text x="1479.0529387522195" y="210" text-anchor="middle" font-size="9" fill="#1565c0">server</text><rect x="1701.5701509975765" y="120" width="293.69974619125844" height="253.6997461912584" rx="6" fill="#fafafa" stroke="#bbb" stroke-width="1.5" stroke-dasharray="6,4"/><text x="1709.5701509975765" y="139.6" font-weight="bold" font-size="13">Private Subnet</text><rect x="1717.5701509975765" y="160" width="100" height="70" rx="6" fill="#e3f2fd" stroke="#1565c0" stroke-width="1.5"/><rect x="1757.9701509975766" y="168" width="19.2" height="8" rx="1" fill="none" stroke="#1565c0" stroke-width="1.5"/><rect x="1757.9701509975766" y="178" width="19.2" height="8" rx="1" fill="none" stroke="#1565c0" stroke-width="1.5"/><rect x="1757.9701509975766" y="188" width="19.2" height="8" rx="1" fill="none" stroke="#1565c0" stroke-width="1.5"/><text x="1767.5701509975765" y="222" text-anchor="middle" font-size="11">App1</text><text x="1767.5701509975765" y="210" text-anchor="middle" font-size="9" fill="#1565c0">server</text><rect x="1717.5701509975765" y="291.69974619125844" width="100" height="70" rx="6" fill="#e3f2fd" stroke="#1565c0" stroke-width="1.5"/><rect x="1757.9701509975766" y="299.69974619125844" width="19.2" height="8" rx="1" fill="none" stroke="#1565c0" stroke-width="1.5"/><rect x="1757.9701509975766" y="309.69974619125844" width="19.2" height="8" rx="1" fill="none" stroke="#1565c0" stroke-width="1.5"/><rect x="1757.9701509975766" y="319.69974619125844" width="19.2" height="8" rx="1" fill="none" stroke="#1565c0" stroke-width="1.5"/><text x="1767.5701509975765" y="353.69974619125844" text-anchor="middle" font-size="11">App2</text><text x="1767.5701509975765" y="341.69974619125844" text-anchor="middle" font-size="9" fill="#1565c0">server</text><rect x="1879.2698971888349" y="291.69974619125844" width="100" height="70" rx="6" fill="#e8f5e9" stroke="#2e7d32" stroke-width="1.5"/><ellipse cx="1929.2698971888349" cy="305.89974619125843" rx="9.6" ry="5" fill="none" stroke="#2e7d32" stroke-width="1.5"/><line x1="1919.669897188835" y1="305.89974619125843" x2="1919.669897188835" y2="321.49974619125845" stroke="#2e7d32" stroke-width="1.5"/><line x1="1938.8698971888348" y1="305.89974619125843" x2="1938.8698971888348" y2="321.49974619125845" stroke="#2e7d32" stroke-width="1.5"/><ellipse cx="1929.2698971888349" cy="321.49974619125845" rx="9.6" ry="5" fill="none" stroke="#2e7d32" stroke-width="1.5"/><text x="1929.2698971888349" y="353.69974619125844" text-anchor="middle" font-size="11">RDS</text><text x="1929.2698971888349" y="341.69974619125844" text-anchor="middle" font-size="9" fill="#2e7d32">db</text><rect x="1879.2698971888349" y="160" width="100" height="70" rx="6" fill="#fce4ec" stroke="#c62828" stroke-width="1.5"/><polyline points="1925.2698971888349,172.4 1931.2698971888349,180 1927.2698971888349,184 1933.2698971888349,191.6" fill="none" stroke="#c62828" stroke-width="2"/><text x="1929.2698971888349" y="222" text-anchor="middle" font-size="11">ElastiCache</text><text x="1929.2698971888349" y="210" text-anchor="middle" font-size="9" fill="#c62828">cache</text><rect x="56" y="80" width="100" height="70" rx="6" fill="#e0f2f1" stroke="#00695c" stroke-width="1.5"/><path d="M98,94 L114,94 L112.4,110 L99.6,110 Z" fill="none" stroke="#00695c" stroke-width="1.5"/><text x="106" y="142" text-anchor="middle" font-size="11">S3</text><text x="106" y="130" text-anchor="middle" font-size="9" fill="#00695c">storage</text><rect x="507.1774965747538" y="80" width="100" height="70" rx="6" fill="#fff8e1" stroke="#f9a825" stroke-width="1.5"/><circle cx="552.1774965747538" cy="104" r="6" fill="none" stroke="#f9a825" stroke-width="1.5"/><circle cx="557.1774965747538" cy="99" r="7" fill="none" stroke="#f9a825" stroke-width="1.5"/><circle cx="562.1774965747538" cy="104" r="6" fill="none" stroke="#f9a825" stroke-width="1.5"/><text x="557.1774965747538" y="142" text-anchor="middle" font-size="11">CloudFront</text><text x="557.1774965747538" y="130" text-anchor="middle" font-size="9" fill="#f9a825">cdn</text><rect x="2044.8090924171463" y="80" width="100" height="70" rx="6" fill="#f3e5f5" stroke="#6a1b9a" stroke-width="1.5"/><line x1="2086.8090924171465" y1="102" x2="2099.6090924171467" y2="102" stroke="#6a1b9a" stroke-width="2"/><polyline points="2096.4090924171464,97 2102.8090924171465,102 2096.4090924171464,107" fill="none" stroke="#6a1b9a" stroke-width="2"/><text x="2094.8090924171465" y="142" text-anchor="middle" font-size="11">SQS</text><text x="2094.8090924171465" y="130" text-anchor="middle" font-size="9" fill="#6a1b9a">queue</text><path d="M607.1774965747538,119.99490645711964 L1307.99329449595,190.00509354288036" fill="none" stroke="#666" stroke-width="1.5" marker-end="url(#arrow)"/><rect x="934.585395535352" y="137" width="46" height="16" rx="3" fill="white" opacity="0.9"/><text x="957.585395535352" y="149" text-anchor="middle" font-size="11" fill="#666">HTTPS</text><path d="M1407.99329449595,217.71607534364273 L1443.5231166240847,233.85803767182136 Q1479.0529387522195,250 1598.3115448748981,227.26574686584274 L1717.5701509975765,204.53149373168552" fill="none" stroke="#666" stroke-width="1.5" marker-end="url(#arrow)"/><path d="M1407.99329449595,172.28392465635727 L1443.5231166240847,156.14196232817864 Q1479.0529387522195,140 1598.3115448748981,217.17235072718142 L1717.5701509975765,294.34470145436285" fill="none" stroke="#666" stroke-width="1.5" marker-end="url(#arrow)"/><path d="M1810.5428315103784,230 L1886.297216676033,291.69974619125844" fill="none" stroke="#666" stroke-width="1.5" marker-end="url(#arrow)"/><path d="M1817.5701509975765,326.69974619125844 L1879.2698971888349,326.69974619125844" fill="none" stroke="#666" stroke-width="1.5" marker-end="url(#arrow)"/><path d="M1817.5701509975765,195 L1879.2698971888349,195" fill="none" stroke="#666" stroke-width="1.5" marker-end="url(#arrow)"/><path d="M1810.5428315103784,291.69974619125844 L1886.297216676033,230" fill="none" stroke="#666" stroke-width="1.5" marker-end="url(#arrow)"/><path d="M1817.5701509975765,212.00682941547294 L1873.4200240932057,231.00341470773645 Q1929.2698971888349,250 1990.5807102363576,200 L2051.8915232838804,150" fill="none" stroke="#666" stroke-width="1.5" marker-end="url(#arrow)"/><path d="M156,115 L507.17749657475383,115" fill="none" stroke="#666" stroke-width="1.5" marker-end="url(#arrow)"/></svg>