<svg xmlns="http://www.w3.org/2000/svg" width="1222.056332441296" height="1236.056332441296" viewBox="0 0 1222.056332441296 1236.056332441296"><rect width="100%" height="100%" fill="white"/><style>text { font-family: sans-serif; font-size: 12px; fill: #333; }</style><defs><marker id="arrow" viewBox="0 0 10 10" refX="10" refY="5" markerWidth="8" markerHeight="8" orient="auto"><polygon points="0,1 10,5 0,9" fill="#666"/></marker></defs><rect x="40" y="40" width="1142.056332441296" height="1156.056332441296" rx="6" fill="#fafafa" stroke="#bbb" stroke-width="1.5" stroke-dasharray="6,4"/><text x="48" y="59.599999999999994" font-weight="bold" font-size="13">AWS</text><rect x="245.56921938165306" y="118.78460969082653" width="885.7025033688163" height="1026.487113059643" rx="6" fill="#fafafa" stroke="#bbb" stroke-width="1.5" stroke-dasharray="6,4"/><text x="253.56921938165306" y="138.38460969082652" font-weight="bold" font-size="13">VPC</text><rect x="296.3538290724796" y="197.56921938165306" width="566.5486169599005" height="508.8512516844081" rx="6" fill="#fafafa" stroke="#bbb" stroke-width="1.5" stroke-dasharray="6,4"/><text x="304.3538290724796" y="217.16921938165305" font-weight="bold" font-size="13">Public Subnet</text><rect x="712.1178363415536" y="585.6358613752346" width="100" height="70" rx="6" fill="#fff3e0" stroke="#e65100" stroke-width="1.5"/><circle cx="762.1178363415536" cy="607.6358613752346" r="8" fill="none" stroke="#e65100" stroke-width="1.5"/><line x1="754.1178363415536" y1="607.6358613752346" x2="747.7178363415536" y2="601.6358613752346" stroke="#e65100" stroke-width="1.5"/><line x1="754.1178363415536" y1="607.6358613752346" x2="747.7178363415536" y2="613.6358613752346" stroke="#e65100" stroke-width="1.5"/><text x="762.1178363415536" y="647.6358613752346" text-anchor="middle" font-size="11">ALB</text><rect x="347.1384387633061" y="276.3538290724796" width="100" height="70" rx="6" fill="#e3f2fd" stroke="#1565c0" stroke-width="1.5"/><rect x="387.5384387633061" y="284.3538290724796" width="19.2" height="8" rx="1" fill="none" stroke="#1565c0" stroke-width="1.5"/><rect x="387.5384387633061" y="294.3538290724796" width="19.2" height="8" rx="1" fill="none" stroke="#1565c0" stroke-width="1.5"/><rect x="387.5384387633061" y="304.3538290724796" width="19.2" height="8" rx="1" fill="none" stroke="#1565c0" stroke-width="1.5"/><text x="397.1384387633061" y="338.3538290724796" text-anchor="middle" font-size="11">Bastion</text><rect x="573.6486084666433" y="740.2768775266122" width="506.83850459299964" height="354.21023553303064" rx="6" fill="#fafafa" stroke="#bbb" stroke-width="1.5" stroke-dasharray="6,4"/><text x="581.6486084666433" y="759.8768775266122" font-weight="bold" font-size="13">Private Subnet</text><rect x="624.4332181574698" y="819.0614872174388" width="100" height="70" rx="6" fill="#e3f2fd" stroke="#1565c0" stroke-width="1.5"/><rect x="664.8332181574698" y="827.0614872174388" width="19.2" height="8" rx="1" fill="none" stroke="#1565c0" stroke-width="1.5"/><rect x="664.8332181574698" y="837.0614872174388" width="19.2" height="8" rx="1" fill="none" stroke="#1565c0" stroke-width="1.5"/><rect x="664.8332181574698" y="847.0614872174388" width="19.2" height="8" rx="1" fill="none" stroke="#1565c0" stroke-width="1.5"/><text x="674.4332181574698" y="881.0614872174388" text-anchor="middle" font-size="11">App1</text><rect x="795.2700100526947" y="819.0614872174388" width="100" height="70" rx="6" fill="#e3f2fd" stroke="#1565c0" stroke-width="1.5"/><rect x="835.6700100526947" y="827.0614872174388" width="19.2" height="8" rx="1" fill="none" stroke="#1565c0" stroke-width="1.5"/><rect x="835.6700100526947" y="837.0614872174388" width="19.2" height="8" rx="1" fill="none" stroke="#1565c0" stroke-width="1.5"/><rect x="835.6700100526947" y="847.0614872174388" width="19.2" height="8" rx="1" fill="none" stroke="#1565c0" stroke-width="1.5"/><text x="845.2700100526947" y="881.0614872174388" text-anchor="middle" font-size="11">App2</text><rect x="749.9896904477143" y="973.7025033688163" width="100" height="70" rx="6" fill="#e8f5e9" stroke="#2e7d32" stroke-width="1.5"/><ellipse cx="799.9896904477143" cy="987.9025033688164" rx="9.6" ry="5" fill="none" stroke="#2e7d32" stroke-width="1.5"/><line x1="790.3896904477143" y1="987.9025033688164" x2="790.3896904477143" y2="1003.5025033688163" stroke="#2e7d32" stroke-width="1.5"/><line x1="809.5896904477144" y1="987.9025033688164" x2="809.5896904477144" y2="1003.5025033688163" stroke="#2e7d32" stroke-width="1.5"/><ellipse cx="799.9896904477143" cy="1003.5025033688163" rx="9.6" ry="5" fill="none" stroke="#2e7d32" stroke-width="1.5"/><text x="799.9896904477143" y="1035.7025033688165" text-anchor="middle" font-size="11">RDS</text><rect x="917.7025033688163" y="973.7025033688163" width="112" height="70" rx="6" fill="#fce4ec" stroke="#c62828" stroke-width="1.5"/><polyline points="969.7025033688163,986.1025033688163 975.7025033688163,993.7025033688163 971.7025033688163,997.7025033688163 977.7025033688163,1005.3025033688164" fill="none" stroke="#c62828" stroke-width="2"/><text x="973.7025033688163" y="1035.7025033688165" text-anchor="middle" font-size="11">ElastiCache</text><rect x="749.9896904477143" y="276.3538290724796" width="100" height="70" rx="6" fill="#e0f2f1" stroke="#00695c" stroke-width="1.5"/><path d="M791.9896904477143,290.3538290724796 L807.9896904477143,290.3538290724796 L806.3896904477143,306.3538290724796 L793.5896904477144,306.3538290724796 Z" fill="none" stroke="#00695c" stroke-width="1.5"/><text x="799.9896904477143" y="338.3538290724796" text-anchor="middle" font-size="11">S3</text><rect x="90.78460969082653" y="430.9948452238571" width="104" height="70" rx="6" fill="#fff8e1" stroke="#f9a825" stroke-width="1.5"/><circle cx="137.78460969082653" cy="454.9948452238571" r="6" fill="none" stroke="#f9a825" stroke-width="1.5"/><circle cx="142.78460969082653" cy="449.9948452238571" r="7" fill="none" stroke="#f9a825" stroke-width="1.5"/><circle cx="147.78460969082653" cy="454.9948452238571" r="6" fill="none" stroke="#f9a825" stroke-width="1.5"/><text x="142.78460969082653" y="492.9948452238571" text-anchor="middle" font-size="11">CloudFront</text><rect x="94.78460969082653" y="973.7025033688163" width="100" height="70" rx="6" fill="#f3e5f5" stroke="#6a1b9a" stroke-width="1.5"/><line x1="136.78460969082653" y1="995.7025033688163" x2="149.58460969082654" y2="995.7025033688163" stroke="#6a1b9a" stroke-width="2"/><polyline points="146.38460969082652,990.7025033688163 152.78460969082653,995.7025033688163 146.38460969082652,1000.7025033688163" fill="none" stroke="#6a1b9a" stroke-width="2"/><text x="144.78460969082653" y="1035.7025033688165" text-anchor="middle" font-size="11">SQS</text><path d="M194.78460969082653,478.97870026964256 L712.1178363415536,608.1513853696717" fill="none" stroke="#666" stroke-width="1.5" marker-end="url(#arrow)"/><rect x="430.45122301619006" y="525.5650428196572" width="46" height="16" rx="3" fill="white" opacity="0.9"/><text x="453.45122301619006" y="537.5650428196572" text-anchor="middle" font-size="11" fill="#666">HTTPS</text><path d="M748.9703439641847,655.6358613752346 L687.5807105348387,819.0614872174388" fill="none" stroke="#666" stroke-width="1.5" marker-end="url(#arrow)"/><path d="M774.5857308556602,655.6358613752346 L832.802115538588,819.0614872174388" fill="none" stroke="#666" stroke-width="1.5" marker-end="url(#arrow)"/><path d="M702.8504947605725,889.0614872174388 L771.5724138446117,973.7025033688163" fill="none" stroke="#666" stroke-width="1.5" marker-end="url(#arrow)"/><path d="M835.0216863827122,889.0614872174388 L810.2380141176968,973.7025033688163" fill="none" stroke="#666" stroke-width="1.5" marker-end="url(#arrow)"/><path d="M724.4332181574698,879.8979201213649 L917.7025033688163,979.7656985164191" fill="none" stroke="#666" stroke-width="1.5" marker-end="url(#arrow)"/><path d="M874.3382183323401,889.0614872174388 L944.6342950891709,973.7025033688163" fill="none" stroke="#666" stroke-width="1.5" marker-end="url(#arrow)"/><path d="M624.4332181574698,868.6599411432472 L194.78460969082653,994.1040494430079" fill="none" stroke="#666" stroke-width="1.5" marker-end="url(#arrow)"/><path d="M749.9896904477143,323.11887933451357 L194.78460969082653,453.7591929513418" fill="none" stroke="#666" stroke-width="1.5" marker-end="url(#arrow)"/></svg>