<svg xmlns="http://www.w3.org/2000/svg" width="1236" height="306" viewBox="0 0 1236 306"><style>text { font-family: sans-serif; font-size: 12px; fill: #333; }</style><defs><marker id="arrow" viewBox="0 0 10 10" refX="10" refY="5" markerWidth="8" markerHeight="8" orient="auto"><polygon points="0,1 10,5 0,9" fill="#666"/></marker></defs><rect x="40" y="40" width="1156" height="226" rx="6" fill="#fafafa" stroke="#bbb" stroke-width="1.5" stroke-dasharray="6,4"/><text x="48" y="59.599999999999994" font-weight="bold" font-size="13">AWS</text><rect x="56" y="80" width="776" height="174" rx="6" fill="#fafafa" stroke="#bbb" stroke-width="1.5" stroke-dasharray="6,4"/><text x="64" y="99.6" font-weight="bold" font-size="13">VPC</text><rect x="72" y="120" width="248" height="122" rx="6" fill="#fafafa" stroke="#bbb" stroke-width="1.5" stroke-dasharray="6,4"/><text x="80" y="139.6" font-weight="bold" font-size="13">Public Subnet</text><rect x="88" y="160" width="100" height="70" rx="6" fill="#fff3e0" stroke="#e65100" stroke-width="1.5"/><circle cx="138" cy="182" r="8" fill="none" stroke="#e65100" stroke-width="1.5"/><line x1="130" y1="182" x2="123.6" y2="176" stroke="#e65100" stroke-width="1.5"/><line x1="130" y1="182" x2="123.6" y2="188" stroke="#e65100" stroke-width="1.5"/><text x="138" y="222" text-anchor="middle" font-size="11">ALB</text><text x="138" y="210" text-anchor="middle" font-size="9" fill="#e65100">lb</text><rect x="204" y="160" width="100" height="70" rx="6" fill="#e3f2fd" stroke="#1565c0" stroke-width="1.5"/><rect x="244.4" y="168" width="19.2" height="8" rx="1" fill="none" stroke="#1565c0" stroke-width="1.5"/><rect x="244.4" y="178" width="19.2" height="8" rx="1" fill="none" stroke="#1565c0" stroke-width="1.5"/><rect x="244.4" y="188" width="19.2" height="8" rx="1" fill="none" stroke="#1565c0" stroke-width="1.5"/><text x="254" y="222" text-anchor="middle" font-size="11">Bastion</text><text x="254" y="210" text-anchor="middle" font-size="9" fill="#1565c0">server</text><rect x="336" y="120" width="480" height="122" rx="6" fill="#fafafa" stroke="#bbb" stroke-width="1.5" stroke-dasharray="6,4"/><text x="344" y="139.6" font-weight="bold" font-size="13">Private Subnet</text><rect x="352" y="160" width="100" height="70" rx="6" fill="#e3f2fd" stroke="#1565c0" stroke-width="1.5"/><rect x="392.4" y="168" width="19.2" height="8" rx="1" fill="none" stroke="#1565c0" stroke-width="1.5"/><rect x="392.4" y="178" width="19.2" height="8" rx="1" fill="none" stroke="#1565c0" stroke-width="1.5"/><rect x="392.4" y="188" width="19.2" height="8" rx="1" fill="none" stroke="#1565c0" stroke-width="1.5"/><text x="402" y="222" text-anchor="middle" font-size="11">App1</text><text x="402" y="210" text-anchor="middle" font-size="9" fill="#1565c0">server</text><rect x="468" y="160" width="100" height="70" rx="6" fill="#e3f2fd" stroke="#1565c0" stroke-width="1.5"/><rect x="508.4" y="168" width="19.2" height="8" rx="1" fill="none" stroke="#1565c0" stroke-width="1.5"/><rect x="508.4" y="178" width="19.2" height="8" rx="1" fill="none" stroke="#1565c0" stroke-width="1.5"/><rect x="508.4" y="188" width="19.2" height="8" rx="1" fill="none" stroke="#1565c0" stroke-width="1.5"/><text x="518" y="222" text-anchor="middle" font-size="11">App2</text><text x="518" y="210" text-anchor="middle" font-size="9" fill="#1565c0">server</text><rect x="584" y="160" width="100" height="70" rx="6" fill="#e8f5e9" stroke="#2e7d32" stroke-width="1.5"/><ellipse cx="634" cy="174.2" rx="9.6" ry="5" fill="none" stroke="#2e7d32" stroke-width="1.5"/><line x1="624.4" y1="174.2" x2="624.4" y2="189.8" stroke="#2e7d32" stroke-width="1.5"/><line x1="643.6" y1="174.2" x2="643.6" y2="189.8" stroke="#2e7d32" stroke-width="1.5"/><ellipse cx="634" cy="189.8" rx="9.6" ry="5" fill="none" stroke="#2e7d32" stroke-width="1.5"/><text x="634" y="222" text-anchor="middle" font-size="11">RDS</text><text x="634" y="210" text-anchor="middle" font-size="9" fill="#2e7d32">db</text><rect x="700" y="160" width="100" height="70" rx="6" fill="#fce4ec" stroke="#c62828" stroke-width="1.5"/><polyline points="746,172.4 752,180 748,184 754,191.6" fill="none" stroke="#c62828" stroke-width="2"/><text x="750" y="222" text-anchor="middle" font-size="11">ElastiCache</text><text x="750" y="210" text-anchor="middle" font-size="9" fill="#c62828">cache</text><rect x="848" y="132" width="100" height="70" rx="6" fill="#e0f2f1" stroke="#00695c" stroke-width="1.5"/><path d="M890,146 L906,146 L904.4,162 L891.6,162 Z" fill="none" stroke="#00695c" stroke-width="1.5"/><text x="898" y="194" text-anchor="middle" font-size="11">S3</text><text x="898" y="182" text-anchor="middle" font-size="9" fill="#00695c">storage</text><rect x="964" y="132" width="100" height="70" rx="6" fill="#fff8e1" stroke="#f9a825" stroke-width="1.5"/><circle cx="1009" cy="156" r="6" fill="none" stroke="#f9a825" stroke-width="1.5"/><circle cx="1014" cy="151" r="7" fill="none" stroke="#f9a825" stroke-width="1.5"/><circle cx="1019" cy="156" r="6" fill="none" stroke="#f9a825" stroke-width="1.5"/><text x="1014" y="194" text-anchor="middle" font-size="11">CloudFront</text><text x="1014" y="182" text-anchor="middle" font-size="9" fill="#f9a825">cdn</text><rect x="1080" y="132" width="100" height="70" rx="6" fill="#f3e5f5" stroke="#6a1b9a" stroke-width="1.5"/><line x1="1122" y1="154" x2="1134.8" y2="154" stroke="#6a1b9a" stroke-width="2"/><polyline points="1131.6,149 1138,154 1131.6,159" fill="none" stroke="#6a1b9a" stroke-width="2"/><text x="1130" y="194" text-anchor="middle" font-size="11">SQS</text><text x="1130" y="182" text-anchor="middle" font-size="9" fill="#6a1b9a">queue</text><path d="M964,190.70689655172413 L931,206.35344827586206 Q898,222 824,236 Q750,250 692,250 Q634,250 576,250 Q518,250 460,250 Q402,250 328,250 Q254,250 221,234.35344827586206 L188,218.70689655172413" fill="none" stroke="#666" stroke-width="1.5" marker-end="url(#arrow)"/><rect x="554.6626102427387" y="232" width="46" height="16" rx="3" fill="white" opacity="0.9"/><text x="577.6626102427387" y="244" text-anchor="middle" font-size="11" fill="#666">HTTPS</text><path d="M188,218.70689655172413 L221,234.35344827586206 Q254,250 303,231.79054054054055 L352,213.5810810810811" fill="none" stroke="#666" stroke-width="1.5" marker-end="url(#arrow)"/><path d="M188,218.70689655172413 L221,234.35344827586206 Q254,250 328,195 Q402,140 435,155.64655172413794 L468,171.29310344827587" fill="none" stroke="#666" stroke-width="1.5" marker-end="url(#arrow)"/><path d="M452,218.70689655172413 L485,234.35344827586206 Q518,250 551,234.35344827586206 L584,218.70689655172413" fill="none" stroke="#666" stroke-width="1.5" marker-end="url(#arrow)"/><path d="M568,195 L584,195" fill="none" stroke="#666" stroke-width="1.5" marker-end="url(#arrow)"/><path d="M452,218.70689655172413 L485,234.35344827586206 Q518,250 576,195 Q634,140 667,155.64655172413794 L700,171.29310344827587" fill="none" stroke="#666" stroke-width="1.5" marker-end="url(#arrow)"/><path d="M568,218.70689655172413 L601,234.35344827586206 Q634,250 667,234.35344827586206 L700,218.70689655172413" fill="none" stroke="#666" stroke-width="1.5" marker-end="url(#arrow)"/><path d="M452,218.70689655172413 L485,234.35344827586206 Q518,250 576,195 Q634,140 692,195 Q750,250 824,181 Q898,112 956,167 Q1014,222 1047,206.35344827586206 L1080,190.70689655172413" fill="none" stroke="#666" stroke-width="1.5" marker-end="url(#arrow)"/><path d="M948,167 L964,167" fill="none" stroke="#666" stroke-width="1.5" marker-end="url(#arrow)"/></svg>