<svg xmlns="http://www.w3.org/2000/svg" width="1981.9080191643131" height="426.86190426597636" viewBox="0 0 1981.9080191643131 426.86190426597636"><rect width="100%" height="100%" fill="white"/><style>text { font-family: sans-serif; font-size: 12px; fill: #333; }</style><defs><marker id="arrow" viewBox="0 0 10 10" refX="10" refY="5" markerWidth="8" markerHeight="8" orient="auto"><polygon points="0,1 10,5 0,9" fill="#666"/></marker></defs><rect x="40" y="40" width="1901.9080191643131" height="346.86190426597636" rx="6" fill="#fafafa" stroke="#bbb" stroke-width="1.5" stroke-dasharray="6,4"/><text x="48" y="59.599999999999994" font-weight="bold" font-size="13">AWS</text><rect x="1134.2127757247736" y="80" width="710.355422308611" height="294.86190426597636" rx="6" fill="#fafafa" stroke="#bbb" stroke-width="1.5" stroke-dasharray="6,4"/><text x="1142.2127757247736" y="99.6" font-weight="bold" font-size="13">VPC</text><rect x="1150.2127757247736" y="120" width="258.77280526758625" height="122" rx="6" fill="#fafafa" stroke="#bbb" stroke-width="1.5" stroke-dasharray="6,4"/><text x="1158.2127757247736" y="139.6" font-weight="bold" font-size="13">Public Subnet</text><rect x="1166.2127757247736" y="160" width="100" height="70" rx="6" fill="#fff3e0" stroke="#e65100" stroke-width="1.5"/><circle cx="1216.2127757247736" cy="182" r="8" fill="none" stroke="#e65100" stroke-width="1.5"/><line x1="1208.2127757247736" y1="182" x2="1201.8127757247735" y2="176" stroke="#e65100" stroke-width="1.5"/><line x1="1208.2127757247736" y1="182" x2="1201.8127757247735" y2="188" stroke="#e65100" stroke-width="1.5"/><text x="1216.2127757247736" y="222" text-anchor="middle" font-size="11">ALB</text><text x="1216.2127757247736" y="210" text-anchor="middle" font-size="9" fill="#e65100">lb</text><rect x="1292.9855809923597" y="160" width="100" height="70" rx="6" fill="#e3f2fd" stroke="#1565c0" stroke-width="1.5"/><rect x="1333.3855809923598" y="168" width="19.2" height="8" rx="1" fill="none" stroke="#1565c0" stroke-width="1.5"/><rect x="1333.3855809923598" y="178" width="19.2" height="8" rx="1" fill="none" stroke="#1565c0" stroke-width="1.5"/><rect x="1333.3855809923598" y="188" width="19.2" height="8" rx="1" fill="none" stroke="#1565c0" stroke-width="1.5"/><text x="1342.9855809923597" y="222" text-anchor="middle" font-size="11">Bastion</text><text x="1342.9855809923597" y="210" text-anchor="middle" font-size="9" fill="#1565c0">server</text><rect x="1545.7062937674082" y="120" width="282.86190426597636" height="242.86190426597634" rx="6" fill="#fafafa" stroke="#bbb" stroke-width="1.5" stroke-dasharray="6,4"/><text x="1553.7062937674082" y="139.6" font-weight="bold" font-size="13">Private Subnet</text><rect x="1561.7062937674082" y="160" width="100" height="70" rx="6" fill="#e3f2fd" stroke="#1565c0" stroke-width="1.5"/><rect x="1602.1062937674083" y="168" width="19.2" height="8" rx="1" fill="none" stroke="#1565c0" stroke-width="1.5"/><rect x="1602.1062937674083" y="178" width="19.2" height="8" rx="1" fill="none" stroke="#1565c0" stroke-width="1.5"/><rect x="1602.1062937674083" y="188" width="19.2" height="8" rx="1" fill="none" stroke="#1565c0" stroke-width="1.5"/><text x="1611.7062937674082" y="222" text-anchor="middle" font-size="11">App1</text><text x="1611.7062937674082" y="210" text-anchor="middle" font-size="9" fill="#1565c0">server</text><rect x="1561.7062937674082" y="280.86190426597636" width="100" height="70" rx="6" fill="#e3f2fd" stroke="#1565c0" stroke-width="1.5"/><rect x="1602.1062937674083" y="288.86190426597636" width="19.2" height="8" rx="1" fill="none" stroke="#1565c0" stroke-width="1.5"/><rect x="1602.1062937674083" y="298.86190426597636" width="19.2" height="8" rx="1" fill="none" stroke="#1565c0" stroke-width="1.5"/><rect x="1602.1062937674083" y="308.86190426597636" width="19.2" height="8" rx="1" fill="none" stroke="#1565c0" stroke-width="1.5"/><text x="1611.7062937674082" y="342.86190426597636" text-anchor="middle" font-size="11">App2</text><text x="1611.7062937674082" y="330.86190426597636" text-anchor="middle" font-size="9" fill="#1565c0">server</text><rect x="1712.5681980333845" y="280.86190426597636" width="100" height="70" rx="6" fill="#e8f5e9" stroke="#2e7d32" stroke-width="1.5"/><ellipse cx="1762.5681980333845" cy="295.06190426597635" rx="9.6" ry="5" fill="none" stroke="#2e7d32" stroke-width="1.5"/><line x1="1752.9681980333846" y1="295.06190426597635" x2="1752.9681980333846" y2="310.6619042659764" stroke="#2e7d32" stroke-width="1.5"/><line x1="1772.1681980333844" y1="295.06190426597635" x2="1772.1681980333844" y2="310.6619042659764" stroke="#2e7d32" stroke-width="1.5"/><ellipse cx="1762.5681980333845" cy="310.6619042659764" rx="9.6" ry="5" fill="none" stroke="#2e7d32" stroke-width="1.5"/><text x="1762.5681980333845" y="342.86190426597636" text-anchor="middle" font-size="11">RDS</text><text x="1762.5681980333845" y="330.86190426597636" text-anchor="middle" font-size="9" fill="#2e7d32">db</text><rect x="1712.5681980333845" y="160" width="100" height="70" rx="6" fill="#fce4ec" stroke="#c62828" stroke-width="1.5"/><polyline points="1758.5681980333845,172.4 1764.5681980333845,180 1760.5681980333845,184 1766.5681980333845,191.6" fill="none" stroke="#c62828" stroke-width="2"/><text x="1762.5681980333845" y="222" text-anchor="middle" font-size="11">ElastiCache</text><text x="1762.5681980333845" y="210" text-anchor="middle" font-size="9" fill="#c62828">cache</text><rect x="56" y="80" width="100" height="70" rx="6" fill="#e0f2f1" stroke="#00695c" stroke-width="1.5"/><path d="M98,94 L114,94 L112.4,110 L99.6,110 Z" fill="none" stroke="#00695c" stroke-width="1.5"/><text x="106" y="142" text-anchor="middle" font-size="11">S3</text><text x="106" y="130" text-anchor="middle" font-size="9" fill="#00695c">storage</text><rect x="442.51753228523404" y="80" width="100" height="70" rx="6" fill="#fff8e1" stroke="#f9a825" stroke-width="1.5"/><circle cx="487.51753228523404" cy="104" r="6" fill="none" stroke="#f9a825" stroke-width="1.5"/><circle cx="492.51753228523404" cy="99" r="7" fill="none" stroke="#f9a825" stroke-width="1.5"/><circle cx="497.51753228523404" cy="104" r="6" fill="none" stroke="#f9a825" stroke-width="1.5"/><text x="492.51753228523404" y="142" text-anchor="middle" font-size="11">CloudFront</text><text x="492.51753228523404" y="130" text-anchor="middle" font-size="9" fill="#f9a825">cdn</text><rect x="1825.9080191643131" y="80" width="100" height="70" rx="6" fill="#f3e5f5" stroke="#6a1b9a" stroke-width="1.5"/><line x1="1867.9080191643131" y1="102" x2="1880.708019164313" y2="102" stroke="#6a1b9a" stroke-width="2"/><polyline points="1877.508019164313,97 1883.9080191643131,102 1877.508019164313,107" fill="none" stroke="#6a1b9a" stroke-width="2"/><text x="1875.9080191643131" y="142" text-anchor="middle" font-size="11">SQS</text><text x="1875.9080191643131" y="130" text-anchor="middle" font-size="9" fill="#6a1b9a">queue</text><path d="M542.517532285234,120.52718846263106 L1166.2127757247736,189.47281153736893" fill="none" stroke="#666" stroke-width="1.5" marker-end="url(#arrow)"/><rect x="831.3651540050038" y="137" width="46" height="16" rx="3" fill="white" opacity="0.9"/><text x="854.3651540050038" y="149" text-anchor="middle" font-size="11" fill="#666">HTTPS</text><path d="M1266.2127757247736,216.6923495082043 L1304.5991783585666,233.34617475410215 Q1342.9855809923597,250 1452.345937379884,227.6168366807327 L1561.7062937674082,205.23367336146538" fill="none" stroke="#666" stroke-width="1.5" marker-end="url(#arrow)"/><path d="M1266.2127757247736,173.3076504917957 L1304.5991783585666,156.65382524589785 Q1342.9855809923597,140 1452.345937379884,211.56992226950368 L1561.7062937674082,283.13984453900736" fill="none" stroke="#666" stroke-width="1.5" marker-end="url(#arrow)"/><path d="M1655.3938947644046,230 L1718.880597036388,280.86190426597636" fill="none" stroke="#666" stroke-width="1.5" marker-end="url(#arrow)"/><path d="M1661.7062937674082,315.86190426597636 L1712.5681980333845,315.86190426597636" fill="none" stroke="#666" stroke-width="1.5" marker-end="url(#arrow)"/><path d="M1661.7062937674082,195 L1712.5681980333845,195" fill="none" stroke="#666" stroke-width="1.5" marker-end="url(#arrow)"/><path d="M1655.3938947644046,280.86190426597636 L1718.880597036388,230" fill="none" stroke="#666" stroke-width="1.5" marker-end="url(#arrow)"/><path d="M1661.7062937674082,213.22859132913783 L1712.1372459003965,231.6142956645689 Q1762.5681980333845,250 1804.5459095633582,200 L1846.5236210933317,150" fill="none" stroke="#666" stroke-width="1.5" marker-end="url(#arrow)"/><path d="M156,115 L442.51753228523404,115" fill="none" stroke="#666" stroke-width="1.5" marker-end="url(#arrow)"/></svg>