<svg xmlns="http://www.w3.org/2000/svg" width="1692.8799999999999" height="418" viewBox="0 0 1692.8799999999999 418"><style>text { font-family: sans-serif; font-size: 12px; fill: #333; }</style><defs><marker id="arrow" viewBox="0 0 10 10" refX="10" refY="5" markerWidth="8" markerHeight="8" orient="auto"><polygon points="0,1 10,5 0,9" fill="#666"/></marker></defs><rect x="40" y="40" width="1612.8799999999999" height="338" rx="6" fill="#fafafa" stroke="#bbb" stroke-width="1.5" stroke-dasharray="6,4"/><text x="48" y="59.599999999999994" font-weight="bold" font-size="13">AWS</text><rect x="950.72" y="80" width="655.2" height="286" rx="6" fill="#fafafa" stroke="#bbb" stroke-width="1.5" stroke-dasharray="6,4"/><text x="958.72" y="99.6" font-weight="bold" font-size="13">VPC</text><rect x="966.72" y="120" width="248" height="122" rx="6" fill="#fafafa" stroke="#bbb" stroke-width="1.5" stroke-dasharray="6,4"/><text x="974.72" y="139.6" font-weight="bold" font-size="13">Public Subnet</text><rect x="982.72" y="160" width="100" height="70" rx="6" fill="#fff3e0" stroke="#e65100" stroke-width="1.5"/><circle cx="1032.72" cy="182" r="8" fill="none" stroke="#e65100" stroke-width="1.5"/><line x1="1024.72" y1="182" x2="1018.32" y2="176" stroke="#e65100" stroke-width="1.5"/><line x1="1024.72" y1="182" x2="1018.32" y2="188" stroke="#e65100" stroke-width="1.5"/><text x="1032.72" y="222" text-anchor="middle" font-size="11">ALB</text><text x="1032.72" y="210" text-anchor="middle" font-size="9" fill="#e65100">lb</text><rect x="1098.72" y="160" width="100" height="70" rx="6" fill="#e3f2fd" stroke="#1565c0" stroke-width="1.5"/><rect x="1139.1200000000001" y="168" width="19.2" height="8" rx="1" fill="none" stroke="#1565c0" stroke-width="1.5"/><rect x="1139.1200000000001" y="178" width="19.2" height="8" rx="1" fill="none" stroke="#1565c0" stroke-width="1.5"/><rect x="1139.1200000000001" y="188" width="19.2" height="8" rx="1" fill="none" stroke="#1565c0" stroke-width="1.5"/><text x="1148.72" y="222" text-anchor="middle" font-size="11">Bastion</text><text x="1148.72" y="210" text-anchor="middle" font-size="9" fill="#1565c0">server</text><rect x="1315.92" y="120" width="274" height="234" rx="6" fill="#fafafa" stroke="#bbb" stroke-width="1.5" stroke-dasharray="6,4"/><text x="1323.92" y="139.6" font-weight="bold" font-size="13">Private Subnet</text><rect x="1331.92" y="160" width="100" height="70" rx="6" fill="#e3f2fd" stroke="#1565c0" stroke-width="1.5"/><rect x="1372.3200000000002" y="168" width="19.2" height="8" rx="1" fill="none" stroke="#1565c0" stroke-width="1.5"/><rect x="1372.3200000000002" y="178" width="19.2" height="8" rx="1" fill="none" stroke="#1565c0" stroke-width="1.5"/><rect x="1372.3200000000002" y="188" width="19.2" height="8" rx="1" fill="none" stroke="#1565c0" stroke-width="1.5"/><text x="1381.92" y="222" text-anchor="middle" font-size="11">App1</text><text x="1381.92" y="210" text-anchor="middle" font-size="9" fill="#1565c0">server</text><rect x="1331.92" y="272" width="100" height="70" rx="6" fill="#e3f2fd" stroke="#1565c0" stroke-width="1.5"/><rect x="1372.3200000000002" y="280" width="19.2" height="8" rx="1" fill="none" stroke="#1565c0" stroke-width="1.5"/><rect x="1372.3200000000002" y="290" width="19.2" height="8" rx="1" fill="none" stroke="#1565c0" stroke-width="1.5"/><rect x="1372.3200000000002" y="300" width="19.2" height="8" rx="1" fill="none" stroke="#1565c0" stroke-width="1.5"/><text x="1381.92" y="334" text-anchor="middle" font-size="11">App2</text><text x="1381.92" y="322" text-anchor="middle" font-size="9" fill="#1565c0">server</text><rect x="1473.92" y="272" width="100" height="70" rx="6" fill="#e8f5e9" stroke="#2e7d32" stroke-width="1.5"/><ellipse cx="1523.92" cy="286.2" rx="9.6" ry="5" fill="none" stroke="#2e7d32" stroke-width="1.5"/><line x1="1514.3200000000002" y1="286.2" x2="1514.3200000000002" y2="301.8" stroke="#2e7d32" stroke-width="1.5"/><line x1="1533.52" y1="286.2" x2="1533.52" y2="301.8" stroke="#2e7d32" stroke-width="1.5"/><ellipse cx="1523.92" cy="301.8" rx="9.6" ry="5" fill="none" stroke="#2e7d32" stroke-width="1.5"/><text x="1523.92" y="334" text-anchor="middle" font-size="11">RDS</text><text x="1523.92" y="322" text-anchor="middle" font-size="9" fill="#2e7d32">db</text><rect x="1473.92" y="160" width="100" height="70" rx="6" fill="#fce4ec" stroke="#c62828" stroke-width="1.5"/><polyline points="1519.92,172.4 1525.92,180 1521.92,184 1527.92,191.6" fill="none" stroke="#c62828" stroke-width="2"/><text x="1523.92" y="222" text-anchor="middle" font-size="11">ElastiCache</text><text x="1523.92" y="210" text-anchor="middle" font-size="9" fill="#c62828">cache</text><rect x="56" y="80" width="100" height="70" rx="6" fill="#e0f2f1" stroke="#00695c" stroke-width="1.5"/><path d="M98,94 L114,94 L112.4,110 L99.6,110 Z" fill="none" stroke="#00695c" stroke-width="1.5"/><text x="106" y="142" text-anchor="middle" font-size="11">S3</text><text x="106" y="130" text-anchor="middle" font-size="9" fill="#00695c">storage</text><rect x="364.56" y="80" width="100" height="70" rx="6" fill="#fff8e1" stroke="#f9a825" stroke-width="1.5"/><circle cx="409.56" cy="104" r="6" fill="none" stroke="#f9a825" stroke-width="1.5"/><circle cx="414.56" cy="99" r="7" fill="none" stroke="#f9a825" stroke-width="1.5"/><circle cx="419.56" cy="104" r="6" fill="none" stroke="#f9a825" stroke-width="1.5"/><text x="414.56" y="142" text-anchor="middle" font-size="11">CloudFront</text><text x="414.56" y="130" text-anchor="middle" font-size="9" fill="#f9a825">cdn</text><rect x="1536.8799999999999" y="80" width="100" height="70" rx="6" fill="#f3e5f5" stroke="#6a1b9a" stroke-width="1.5"/><line x1="1578.8799999999999" y1="102" x2="1591.6799999999998" y2="102" stroke="#6a1b9a" stroke-width="2"/><polyline points="1588.4799999999998,97 1594.8799999999999,102 1588.4799999999998,107" fill="none" stroke="#6a1b9a" stroke-width="2"/><text x="1586.8799999999999" y="142" text-anchor="middle" font-size="11">SQS</text><text x="1586.8799999999999" y="130" text-anchor="middle" font-size="9" fill="#6a1b9a">queue</text><path d="M464.56,121.47081661705707 L982.72,188.52918338294293" fill="none" stroke="#666" stroke-width="1.5" marker-end="url(#arrow)"/><rect x="700.64" y="137" width="46" height="16" rx="3" fill="white" opacity="0.9"/><text x="723.64" y="149" text-anchor="middle" font-size="11" fill="#666">HTTPS</text><path d="M1082.72,218.70689655172413 L1115.72,234.35344827586206 Q1148.72,250 1240.3200000000002,228.39622641509433 L1331.92,206.79245283018867" fill="none" stroke="#666" stroke-width="1.5" marker-end="url(#arrow)"/><path d="M1082.72,171.29310344827587 L1115.72,155.64655172413794 Q1148.72,140 1240.882874251497,206 L1333.045748502994,272" fill="none" stroke="#666" stroke-width="1.5" marker-end="url(#arrow)"/><path d="M1426.295,230 L1479.545,272" fill="none" stroke="#666" stroke-width="1.5" marker-end="url(#arrow)"/><path d="M1431.92,307 L1473.92,307" fill="none" stroke="#666" stroke-width="1.5" marker-end="url(#arrow)"/><path d="M1431.92,195 L1473.92,195" fill="none" stroke="#666" stroke-width="1.5" marker-end="url(#arrow)"/><path d="M1426.295,272 L1479.545,230" fill="none" stroke="#666" stroke-width="1.5" marker-end="url(#arrow)"/><path d="M1431.92,214.3661971830986 L1477.92,232.1830985915493 Q1523.92,250 1547.2385185185185,200 L1570.557037037037,150" fill="none" stroke="#666" stroke-width="1.5" marker-end="url(#arrow)"/><path d="M156,115 L364.56,115" fill="none" stroke="#666" stroke-width="1.5" marker-end="url(#arrow)"/></svg>