<svg xmlns="http://www.w3.org/2000/svg" width="2447.6685601817317" height="877.5047216874556" viewBox="0 0 2447.6685601817317 877.5047216874556"><style>text { font-family: sans-serif; font-size: 12px; fill: #333; }</style><defs><marker id="arrow" viewBox="0 0 10 10" refX="10" refY="5" markerWidth="8" markerHeight="8" orient="auto"><polygon points="0,1 10,5 0,9" fill="#666"/></marker></defs><rect x="40" y="40" width="100" height="70" rx="6" fill="#fafafa" stroke="#616161" stroke-width="1.5"/><circle cx="90" cy="54" r="5" fill="none" stroke="#616161" stroke-width="1.5"/><line x1="90" y1="59" x2="90" y2="68" stroke="#616161" stroke-width="1.5"/><line x1="83" y1="63" x2="97" y2="63" stroke="#616161" stroke-width="1.5"/><text x="90" y="102" text-anchor="middle" font-size="11">Developer</text><text x="90" y="90" text-anchor="middle" font-size="9" fill="#616161">user</text><rect x="484.1416911273373" y="40" width="132" height="122" rx="6" fill="#fafafa" stroke="#bbb" stroke-width="1.5" stroke-dasharray="6,4"/><text x="492.1416911273373" y="59.599999999999994" font-weight="bold" font-size="13">Source</text><rect x="500.1416911273373" y="80" width="100" height="70" rx="6" fill="#f5f5f5" stroke="#757575" stroke-width="1.5"/><rect x="542.1416911273373" y="95.6" width="16" height="12.8" rx="3" fill="none" stroke="#757575" stroke-width="1.5"/><text x="550.1416911273373" y="142" text-anchor="middle" font-size="11">GitHub</text><text x="550.1416911273373" y="130" text-anchor="middle" font-size="9" fill="#757575">generic</text><rect x="1109.542095094416" y="40" width="462.5174256794828" height="122" rx="6" fill="#fafafa" stroke="#bbb" stroke-width="1.5" stroke-dasharray="6,4"/><text x="1117.542095094416" y="59.599999999999994" font-weight="bold" font-size="13">CI/CD</text><rect x="1125.542095094416" y="80" width="100" height="70" rx="6" fill="#e3f2fd" stroke="#1565c0" stroke-width="1.5"/><rect x="1165.9420950944161" y="88" width="19.2" height="8" rx="1" fill="none" stroke="#1565c0" stroke-width="1.5"/><rect x="1165.9420950944161" y="98" width="19.2" height="8" rx="1" fill="none" stroke="#1565c0" stroke-width="1.5"/><rect x="1165.9420950944161" y="108" width="19.2" height="8" rx="1" fill="none" stroke="#1565c0" stroke-width="1.5"/><text x="1175.542095094416" y="142" text-anchor="middle" font-size="11">GitHubActions</text><text x="1175.542095094416" y="130" text-anchor="middle" font-size="9" fill="#1565c0">server</text><rect x="1290.8008079341575" y="80" width="100" height="70" rx="6" fill="#e3f2fd" stroke="#1565c0" stroke-width="1.5"/><rect x="1331.2008079341576" y="88" width="19.2" height="8" rx="1" fill="none" stroke="#1565c0" stroke-width="1.5"/><rect x="1331.2008079341576" y="98" width="19.2" height="8" rx="1" fill="none" stroke="#1565c0" stroke-width="1.5"/><rect x="1331.2008079341576" y="108" width="19.2" height="8" rx="1" fill="none" stroke="#1565c0" stroke-width="1.5"/><text x="1340.8008079341575" y="142" text-anchor="middle" font-size="11">DockerBuild</text><text x="1340.8008079341575" y="130" text-anchor="middle" font-size="9" fill="#1565c0">server</text><rect x="1456.0595207738988" y="80" width="100" height="70" rx="6" fill="#e0f2f1" stroke="#00695c" stroke-width="1.5"/><path d="M1498.0595207738988,94 L1514.0595207738988,94 L1512.459520773899,110 L1499.6595207738987,110 Z" fill="none" stroke="#00695c" stroke-width="1.5"/><text x="1506.0595207738988" y="142" text-anchor="middle" font-size="11">ECR</text><text x="1506.0595207738988" y="130" text-anchor="middle" font-size="9" fill="#00695c">storage</text><rect x="1915.184519434907" y="40" width="450.2790268005572" height="122" rx="6" fill="#fafafa" stroke="#bbb" stroke-width="1.5" stroke-dasharray="6,4"/><text x="1923.184519434907" y="59.599999999999994" font-weight="bold" font-size="13">Staging</text><rect x="1931.184519434907" y="80" width="100" height="70" rx="6" fill="#fff3e0" stroke="#e65100" stroke-width="1.5"/><circle cx="1981.184519434907" cy="102" r="8" fill="none" stroke="#e65100" stroke-width="1.5"/><line x1="1973.184519434907" y1="102" x2="1966.784519434907" y2="96" stroke="#e65100" stroke-width="1.5"/><line x1="1973.184519434907" y1="102" x2="1966.784519434907" y2="108" stroke="#e65100" stroke-width="1.5"/><text x="1981.184519434907" y="142" text-anchor="middle" font-size="11">StagingLB</text><text x="1981.184519434907" y="130" text-anchor="middle" font-size="9" fill="#e65100">lb</text><rect x="2090.324032835186" y="80" width="100" height="70" rx="6" fill="#e3f2fd" stroke="#1565c0" stroke-width="1.5"/><rect x="2130.724032835186" y="88" width="19.2" height="8" rx="1" fill="none" stroke="#1565c0" stroke-width="1.5"/><rect x="2130.724032835186" y="98" width="19.2" height="8" rx="1" fill="none" stroke="#1565c0" stroke-width="1.5"/><rect x="2130.724032835186" y="108" width="19.2" height="8" rx="1" fill="none" stroke="#1565c0" stroke-width="1.5"/><text x="2140.324032835186" y="142" text-anchor="middle" font-size="11">StagingApp</text><text x="2140.324032835186" y="130" text-anchor="middle" font-size="9" fill="#1565c0">server</text><rect x="2249.4635462354645" y="80" width="100" height="70" rx="6" fill="#e8f5e9" stroke="#2e7d32" stroke-width="1.5"/><ellipse cx="2299.4635462354645" cy="94.2" rx="9.6" ry="5" fill="none" stroke="#2e7d32" stroke-width="1.5"/><line x1="2289.8635462354646" y1="94.2" x2="2289.8635462354646" y2="109.8" stroke="#2e7d32" stroke-width="1.5"/><line x1="2309.0635462354644" y1="94.2" x2="2309.0635462354644" y2="109.8" stroke="#2e7d32" stroke-width="1.5"/><ellipse cx="2299.4635462354645" cy="109.8" rx="9.6" ry="5" fill="none" stroke="#2e7d32" stroke-width="1.5"/><text x="2299.4635462354645" y="142" text-anchor="middle" font-size="11">StagingDB</text><text x="2299.4635462354645" y="130" text-anchor="middle" font-size="9" fill="#2e7d32">db</text><rect x="1915.184519434907" y="565.2627013140434" width="492.4840407468244" height="272.2420203734122" rx="6" fill="#fafafa" stroke="#bbb" stroke-width="1.5" stroke-dasharray="6,4"/><text x="1923.184519434907" y="584.8627013140434" font-weight="bold" font-size="13">Production</text><rect x="1931.184519434907" y="680.3837115007495" width="100" height="70" rx="6" fill="#fff3e0" stroke="#e65100" stroke-width="1.5"/><circle cx="1981.184519434907" cy="702.3837115007495" r="8" fill="none" stroke="#e65100" stroke-width="1.5"/><line x1="1973.184519434907" y1="702.3837115007495" x2="1966.784519434907" y2="696.3837115007495" stroke="#e65100" stroke-width="1.5"/><line x1="1973.184519434907" y1="702.3837115007495" x2="1966.784519434907" y2="708.3837115007495" stroke="#e65100" stroke-width="1.5"/><text x="1981.184519434907" y="742.3837115007495" text-anchor="middle" font-size="11">ProdLB</text><text x="1981.184519434907" y="730.3837115007495" text-anchor="middle" font-size="9" fill="#e65100">lb</text><rect x="2111.4265398083194" y="755.5047216874556" width="100" height="70" rx="6" fill="#e3f2fd" stroke="#1565c0" stroke-width="1.5"/><rect x="2151.8265398083195" y="763.5047216874556" width="19.2" height="8" rx="1" fill="none" stroke="#1565c0" stroke-width="1.5"/><rect x="2151.8265398083195" y="773.5047216874556" width="19.2" height="8" rx="1" fill="none" stroke="#1565c0" stroke-width="1.5"/><rect x="2151.8265398083195" y="783.5047216874556" width="19.2" height="8" rx="1" fill="none" stroke="#1565c0" stroke-width="1.5"/><text x="2161.4265398083194" y="817.5047216874556" text-anchor="middle" font-size="11">ProdApp1</text><text x="2161.4265398083194" y="805.5047216874556" text-anchor="middle" font-size="9" fill="#1565c0">server</text><rect x="2111.4265398083194" y="605.2627013140434" width="100" height="70" rx="6" fill="#e3f2fd" stroke="#1565c0" stroke-width="1.5"/><rect x="2151.8265398083195" y="613.2627013140434" width="19.2" height="8" rx="1" fill="none" stroke="#1565c0" stroke-width="1.5"/><rect x="2151.8265398083195" y="623.2627013140434" width="19.2" height="8" rx="1" fill="none" stroke="#1565c0" stroke-width="1.5"/><rect x="2151.8265398083195" y="633.2627013140434" width="19.2" height="8" rx="1" fill="none" stroke="#1565c0" stroke-width="1.5"/><text x="2161.4265398083194" y="667.2627013140434" text-anchor="middle" font-size="11">ProdApp2</text><text x="2161.4265398083194" y="655.2627013140434" text-anchor="middle" font-size="9" fill="#1565c0">server</text><rect x="2291.6685601817317" y="755.5047216874556" width="100" height="70" rx="6" fill="#e8f5e9" stroke="#2e7d32" stroke-width="1.5"/><ellipse cx="2341.6685601817317" cy="769.7047216874556" rx="9.6" ry="5" fill="none" stroke="#2e7d32" stroke-width="1.5"/><line x1="2332.0685601817318" y1="769.7047216874556" x2="2332.0685601817318" y2="785.3047216874555" stroke="#2e7d32" stroke-width="1.5"/><line x1="2351.2685601817316" y1="769.7047216874556" x2="2351.2685601817316" y2="785.3047216874555" stroke="#2e7d32" stroke-width="1.5"/><ellipse cx="2341.6685601817317" cy="785.3047216874555" rx="9.6" ry="5" fill="none" stroke="#2e7d32" stroke-width="1.5"/><text x="2341.6685601817317" y="817.5047216874556" text-anchor="middle" font-size="11">ProdDB</text><text x="2341.6685601817317" y="805.5047216874556" text-anchor="middle" font-size="9" fill="#2e7d32">db</text><rect x="2291.6685601817317" y="605.2627013140434" width="100" height="70" rx="6" fill="#fce4ec" stroke="#c62828" stroke-width="1.5"/><polyline points="2337.6685601817317,617.6627013140434 2343.6685601817317,625.2627013140434 2339.6685601817317,629.2627013140434 2345.6685601817317,636.8627013140434" fill="none" stroke="#c62828" stroke-width="2"/><text x="2341.6685601817317" y="667.2627013140434" text-anchor="middle" font-size="11">ProdCache</text><text x="2341.6685601817317" y="655.2627013140434" text-anchor="middle" font-size="9" fill="#c62828">cache</text><rect x="1109.542095094416" y="565.2627013140434" width="287.49769217112635" height="122" rx="6" fill="#fafafa" stroke="#bbb" stroke-width="1.5" stroke-dasharray="6,4"/><text x="1117.542095094416" y="584.8627013140434" font-weight="bold" font-size="13">Monitoring</text><rect x="1125.542095094416" y="605.2627013140434" width="100" height="70" rx="6" fill="#e3f2fd" stroke="#1565c0" stroke-width="1.5"/><rect x="1165.9420950944161" y="613.2627013140434" width="19.2" height="8" rx="1" fill="none" stroke="#1565c0" stroke-width="1.5"/><rect x="1165.9420950944161" y="623.2627013140434" width="19.2" height="8" rx="1" fill="none" stroke="#1565c0" stroke-width="1.5"/><rect x="1165.9420950944161" y="633.2627013140434" width="19.2" height="8" rx="1" fill="none" stroke="#1565c0" stroke-width="1.5"/><text x="1175.542095094416" y="667.2627013140434" text-anchor="middle" font-size="11">Datadog</text><text x="1175.542095094416" y="655.2627013140434" text-anchor="middle" font-size="9" fill="#1565c0">server</text><rect x="1281.0397872655424" y="605.2627013140434" width="100" height="70" rx="6" fill="#f5f5f5" stroke="#757575" stroke-width="1.5"/><rect x="1323.0397872655424" y="620.8627013140434" width="16" height="12.8" rx="3" fill="none" stroke="#757575" stroke-width="1.5"/><text x="1331.0397872655424" y="667.2627013140434" text-anchor="middle" font-size="11">PagerDuty</text><text x="1331.0397872655424" y="655.2627013140434" text-anchor="middle" font-size="9" fill="#757575">generic</text><path d="M140,79.34648726373835 L500.14169112733725,110.65351273626165" fill="none" stroke="#666" stroke-width="1.5" marker-end="url(#arrow)"/><rect x="285.0708455636686" y="77" width="70" height="16" rx="3" fill="white" opacity="0.9"/><text x="320.0708455636686" y="89" text-anchor="middle" font-size="11" fill="#666">git push</text><path d="M600.1416911273373,115 L1125.542095094416,115" fill="none" stroke="#666" stroke-width="1.5" marker-end="url(#arrow)"/><rect x="831.8418931108766" y="97" width="62" height="16" rx="3" fill="white" opacity="0.9"/><text x="862.8418931108766" y="109" text-anchor="middle" font-size="11" fill="#666">webhook</text><path d="M1225.542095094416,115 L1290.8008079341575,115" fill="none" stroke="#666" stroke-width="1.5" marker-end="url(#arrow)"/><rect x="1235.1714515142867" y="97" width="46" height="16" rx="3" fill="white" opacity="0.9"/><text x="1258.1714515142867" y="109" text-anchor="middle" font-size="11" fill="#666">build</text><path d="M1390.8008079341575,115 L1456.0595207738988,115" fill="none" stroke="#666" stroke-width="1.5" marker-end="url(#arrow)"/><rect x="1380.4301643540282" y="97" width="86" height="16" rx="3" fill="white" opacity="0.9"/><text x="1423.4301643540282" y="109" text-anchor="middle" font-size="11" fill="#666">push image</text><path d="M1556.0595207738988,120.78795055564329 L1768.622020104403,145.39397527782165 Q1981.184519434907,170 2035.7542761350464,151.14021744581754 L2090.324032835186,132.28043489163505" fill="none" stroke="#666" stroke-width="1.5" marker-end="url(#arrow)"/><rect x="1797.4111285139377" y="133.36484351844234" width="54" height="16" rx="3" fill="white" opacity="0.9"/><text x="1824.4111285139377" y="145.36484351844234" text-anchor="middle" font-size="11" fill="#666">deploy</text><path d="M1540.0161237846141,150 L2127.469936797604,755.5047216874556" fill="none" stroke="#666" stroke-width="1.5" marker-end="url(#arrow)"/><rect x="1806.743030291109" y="434.7523608437278" width="54" height="16" rx="3" fill="white" opacity="0.9"/><text x="1833.743030291109" y="446.7523608437278" text-anchor="middle" font-size="11" fill="#666">deploy</text><path d="M1549.7288039893667,150 L2117.7572565928513,605.2627013140434" fill="none" stroke="#666" stroke-width="1.5" marker-end="url(#arrow)"/><rect x="1806.7430302911089" y="359.6313506570217" width="54" height="16" rx="3" fill="white" opacity="0.9"/><text x="1833.7430302911089" y="371.6313506570217" text-anchor="middle" font-size="11" fill="#666">deploy</text><path d="M2031.184519434907,115 L2090.324032835186,115" fill="none" stroke="#666" stroke-width="1.5" marker-end="url(#arrow)"/><path d="M2190.324032835186,115 L2249.4635462354645,115" fill="none" stroke="#666" stroke-width="1.5" marker-end="url(#arrow)"/><path d="M2031.184519434907,736.2226396350092 L2111.4265398083194,769.665793553196" fill="none" stroke="#666" stroke-width="1.5" marker-end="url(#arrow)"/><path d="M2031.184519434907,694.5447833664898 L2111.4265398083194,661.1016294483031" fill="none" stroke="#666" stroke-width="1.5" marker-end="url(#arrow)"/><path d="M2211.4265398083194,790.5047216874556 L2291.6685601817317,790.5047216874556" fill="none" stroke="#666" stroke-width="1.5" marker-end="url(#arrow)"/><path d="M2203.415263717851,675.2627013140434 L2299.6798362722,755.5047216874556" fill="none" stroke="#666" stroke-width="1.5" marker-end="url(#arrow)"/><path d="M2203.415263717851,755.5047216874556 L2299.6798362722,675.2627013140434" fill="none" stroke="#666" stroke-width="1.5" marker-end="url(#arrow)"/><path d="M2211.4265398083194,640.2627013140434 L2291.6685601817317,640.2627013140434" fill="none" stroke="#666" stroke-width="1.5" marker-end="url(#arrow)"/><path d="M1225.542095094416,622.577551382856 L1278.2909411799792,603.9201263484497 Q1331.0397872655424,585.2627013140434 1721.233163536931,681.7046021958104 L2111.4265398083194,778.1465030775772" fill="none" stroke="#666" stroke-width="1.5" marker-end="url(#arrow)"/><path d="M1225.542095094416,657.9478512452308 L1278.2909411799792,676.6052762796371 Q1331.0397872655424,695.2627013140434 1721.233163536931,669.4185562464463 L2111.4265398083194,643.5744111788492" fill="none" stroke="#666" stroke-width="1.5" marker-end="url(#arrow)"/><path d="M1225.542095094416,640.2627013140434 L1281.0397872655424,640.2627013140434" fill="none" stroke="#666" stroke-width="1.5" marker-end="url(#arrow)"/><rect x="1230.2909411799792" y="622.2627013140434" width="46" height="16" rx="3" fill="white" opacity="0.9"/><text x="1253.2909411799792" y="634.2627013140434" text-anchor="middle" font-size="11" fill="#666">alert</text></svg>