<svg xmlns="http://www.w3.org/2000/svg" width="2006.0779418776028" height="730.8448882534395" viewBox="0 0 2006.0779418776028 730.8448882534395"><rect width="100%" height="100%" fill="white"/><style>text { font-family: sans-serif; font-size: 12px; fill: #333; }</style><defs><marker id="arrow" viewBox="0 0 10 10" refX="10" refY="5" markerWidth="8" markerHeight="8" orient="auto"><polygon points="0,1 10,5 0,9" fill="#666"/></marker></defs><rect x="40" y="40" width="100" height="70" rx="6" fill="#fafafa" stroke="#616161" stroke-width="1.5"/><circle cx="90" cy="54" r="5" fill="none" stroke="#616161" stroke-width="1.5"/><line x1="90" y1="59" x2="90" y2="68" stroke="#616161" stroke-width="1.5"/><line x1="83" y1="63" x2="97" y2="63" stroke="#616161" stroke-width="1.5"/><text x="90" y="102" text-anchor="middle" font-size="11">Developer</text><text x="90" y="90" text-anchor="middle" font-size="9" fill="#616161">user</text><rect x="371.93034316248196" y="40" width="132" height="122" rx="6" fill="#fafafa" stroke="#bbb" stroke-width="1.5" stroke-dasharray="6,4"/><text x="379.93034316248196" y="59.599999999999994" font-weight="bold" font-size="13">Source</text><rect x="387.93034316248196" y="80" width="100" height="70" rx="6" fill="#f5f5f5" stroke="#757575" stroke-width="1.5"/><rect x="429.93034316248196" y="95.6" width="16" height="12.8" rx="3" fill="none" stroke="#757575" stroke-width="1.5"/><text x="437.93034316248196" y="142" text-anchor="middle" font-size="11">GitHub</text><text x="437.93034316248196" y="130" text-anchor="middle" font-size="9" fill="#757575">generic</text><rect x="867.0895974290848" y="40" width="426.45782220824174" height="122" rx="6" fill="#fafafa" stroke="#bbb" stroke-width="1.5" stroke-dasharray="6,4"/><text x="875.0895974290848" y="59.599999999999994" font-weight="bold" font-size="13">CI/CD</text><rect x="883.0895974290848" y="80" width="100" height="70" rx="6" fill="#e3f2fd" stroke="#1565c0" stroke-width="1.5"/><rect x="923.4895974290848" y="88" width="19.2" height="8" rx="1" fill="none" stroke="#1565c0" stroke-width="1.5"/><rect x="923.4895974290848" y="98" width="19.2" height="8" rx="1" fill="none" stroke="#1565c0" stroke-width="1.5"/><rect x="923.4895974290848" y="108" width="19.2" height="8" rx="1" fill="none" stroke="#1565c0" stroke-width="1.5"/><text x="933.0895974290848" y="142" text-anchor="middle" font-size="11">GitHubActions</text><text x="933.0895974290848" y="130" text-anchor="middle" font-size="9" fill="#1565c0">server</text><rect x="1030.3185085332057" y="80" width="100" height="70" rx="6" fill="#e3f2fd" stroke="#1565c0" stroke-width="1.5"/><rect x="1070.7185085332057" y="88" width="19.2" height="8" rx="1" fill="none" stroke="#1565c0" stroke-width="1.5"/><rect x="1070.7185085332057" y="98" width="19.2" height="8" rx="1" fill="none" stroke="#1565c0" stroke-width="1.5"/><rect x="1070.7185085332057" y="108" width="19.2" height="8" rx="1" fill="none" stroke="#1565c0" stroke-width="1.5"/><text x="1080.3185085332057" y="142" text-anchor="middle" font-size="11">DockerBuild</text><text x="1080.3185085332057" y="130" text-anchor="middle" font-size="9" fill="#1565c0">server</text><rect x="1177.5474196373266" y="80" width="100" height="70" rx="6" fill="#e0f2f1" stroke="#00695c" stroke-width="1.5"/><path d="M1219.5474196373266,94 L1235.5474196373266,94 L1233.9474196373267,110 L1221.1474196373265,110 Z" fill="none" stroke="#00695c" stroke-width="1.5"/><text x="1227.5474196373266" y="142" text-anchor="middle" font-size="11">ECR</text><text x="1227.5474196373266" y="130" text-anchor="middle" font-size="9" fill="#00695c">storage</text><rect x="1519.5252150896595" y="40" width="415.77252481836047" height="122" rx="6" fill="#fafafa" stroke="#bbb" stroke-width="1.5" stroke-dasharray="6,4"/><text x="1527.5252150896595" y="59.599999999999994" font-weight="bold" font-size="13">Staging</text><rect x="1535.5252150896595" y="80" width="100" height="70" rx="6" fill="#fff3e0" stroke="#e65100" stroke-width="1.5"/><circle cx="1585.5252150896595" cy="102" r="8" fill="none" stroke="#e65100" stroke-width="1.5"/><line x1="1577.5252150896595" y1="102" x2="1571.1252150896594" y2="96" stroke="#e65100" stroke-width="1.5"/><line x1="1577.5252150896595" y1="102" x2="1571.1252150896594" y2="108" stroke="#e65100" stroke-width="1.5"/><text x="1585.5252150896595" y="142" text-anchor="middle" font-size="11">StagingLB</text><text x="1585.5252150896595" y="130" text-anchor="middle" font-size="9" fill="#e65100">lb</text><rect x="1677.4114774988398" y="80" width="100" height="70" rx="6" fill="#e3f2fd" stroke="#1565c0" stroke-width="1.5"/><rect x="1717.8114774988398" y="88" width="19.2" height="8" rx="1" fill="none" stroke="#1565c0" stroke-width="1.5"/><rect x="1717.8114774988398" y="98" width="19.2" height="8" rx="1" fill="none" stroke="#1565c0" stroke-width="1.5"/><rect x="1717.8114774988398" y="108" width="19.2" height="8" rx="1" fill="none" stroke="#1565c0" stroke-width="1.5"/><text x="1727.4114774988398" y="142" text-anchor="middle" font-size="11">StagingApp</text><text x="1727.4114774988398" y="130" text-anchor="middle" font-size="9" fill="#1565c0">server</text><rect x="1819.29773990802" y="80" width="100" height="70" rx="6" fill="#e8f5e9" stroke="#2e7d32" stroke-width="1.5"/><ellipse cx="1869.29773990802" cy="94.2" rx="9.6" ry="5" fill="none" stroke="#2e7d32" stroke-width="1.5"/><line x1="1859.6977399080201" y1="94.2" x2="1859.6977399080201" y2="109.8" stroke="#2e7d32" stroke-width="1.5"/><line x1="1878.89773990802" y1="94.2" x2="1878.89773990802" y2="109.8" stroke="#2e7d32" stroke-width="1.5"/><ellipse cx="1869.29773990802" cy="109.8" rx="9.6" ry="5" fill="none" stroke="#2e7d32" stroke-width="1.5"/><text x="1869.29773990802" y="142" text-anchor="middle" font-size="11">StagingDB</text><text x="1869.29773990802" y="130" text-anchor="middle" font-size="9" fill="#2e7d32">db</text><rect x="1519.5252150896595" y="441.56852485946786" width="446.5527267879434" height="249.2763633939717" rx="6" fill="#fafafa" stroke="#bbb" stroke-width="1.5" stroke-dasharray="6,4"/><text x="1527.5252150896595" y="461.1685248594679" font-weight="bold" font-size="13">Production</text><rect x="1535.5252150896595" y="545.2067065564537" width="100" height="70" rx="6" fill="#fff3e0" stroke="#e65100" stroke-width="1.5"/><circle cx="1585.5252150896595" cy="567.2067065564537" r="8" fill="none" stroke="#e65100" stroke-width="1.5"/><line x1="1577.5252150896595" y1="567.2067065564537" x2="1571.1252150896594" y2="561.2067065564537" stroke="#e65100" stroke-width="1.5"/><line x1="1577.5252150896595" y1="567.2067065564537" x2="1571.1252150896594" y2="573.2067065564537" stroke="#e65100" stroke-width="1.5"/><text x="1585.5252150896595" y="607.2067065564537" text-anchor="middle" font-size="11">ProdLB</text><text x="1585.5252150896595" y="595.2067065564537" text-anchor="middle" font-size="9" fill="#e65100">lb</text><rect x="1692.8015784836311" y="608.8448882534395" width="100" height="70" rx="6" fill="#e3f2fd" stroke="#1565c0" stroke-width="1.5"/><rect x="1733.2015784836312" y="616.8448882534395" width="19.2" height="8" rx="1" fill="none" stroke="#1565c0" stroke-width="1.5"/><rect x="1733.2015784836312" y="626.8448882534395" width="19.2" height="8" rx="1" fill="none" stroke="#1565c0" stroke-width="1.5"/><rect x="1733.2015784836312" y="636.8448882534395" width="19.2" height="8" rx="1" fill="none" stroke="#1565c0" stroke-width="1.5"/><text x="1742.8015784836311" y="670.8448882534395" text-anchor="middle" font-size="11">ProdApp1</text><text x="1742.8015784836311" y="658.8448882534395" text-anchor="middle" font-size="9" fill="#1565c0">server</text><rect x="1692.8015784836311" y="481.56852485946786" width="100" height="70" rx="6" fill="#e3f2fd" stroke="#1565c0" stroke-width="1.5"/><rect x="1733.2015784836312" y="489.56852485946786" width="19.2" height="8" rx="1" fill="none" stroke="#1565c0" stroke-width="1.5"/><rect x="1733.2015784836312" y="499.56852485946786" width="19.2" height="8" rx="1" fill="none" stroke="#1565c0" stroke-width="1.5"/><rect x="1733.2015784836312" y="509.56852485946786" width="19.2" height="8" rx="1" fill="none" stroke="#1565c0" stroke-width="1.5"/><text x="1742.8015784836311" y="543.5685248594679" text-anchor="middle" font-size="11">ProdApp2</text><text x="1742.8015784836311" y="531.5685248594679" text-anchor="middle" font-size="9" fill="#1565c0">server</text><rect x="1850.0779418776028" y="608.8448882534395" width="100" height="70" rx="6" fill="#e8f5e9" stroke="#2e7d32" stroke-width="1.5"/><ellipse cx="1900.0779418776028" cy="623.0448882534396" rx="9.6" ry="5" fill="none" stroke="#2e7d32" stroke-width="1.5"/><line x1="1890.477941877603" y1="623.0448882534396" x2="1890.477941877603" y2="638.6448882534395" stroke="#2e7d32" stroke-width="1.5"/><line x1="1909.6779418776027" y1="623.0448882534396" x2="1909.6779418776027" y2="638.6448882534395" stroke="#2e7d32" stroke-width="1.5"/><ellipse cx="1900.0779418776028" cy="638.6448882534395" rx="9.6" ry="5" fill="none" stroke="#2e7d32" stroke-width="1.5"/><text x="1900.0779418776028" y="670.8448882534395" text-anchor="middle" font-size="11">ProdDB</text><text x="1900.0779418776028" y="658.8448882534395" text-anchor="middle" font-size="9" fill="#2e7d32">db</text><rect x="1850.0779418776028" y="481.56852485946786" width="100" height="70" rx="6" fill="#fce4ec" stroke="#c62828" stroke-width="1.5"/><polyline points="1896.0779418776028,493.96852485946783 1902.0779418776028,501.56852485946786 1898.0779418776028,505.56852485946786 1904.0779418776028,513.1685248594679" fill="none" stroke="#c62828" stroke-width="2"/><text x="1900.0779418776028" y="543.5685248594679" text-anchor="middle" font-size="11">ProdCache</text><text x="1900.0779418776028" y="531.5685248594679" text-anchor="middle" font-size="9" fill="#c62828">cache</text><rect x="867.0895974290848" y="441.56852485946786" width="272.1592079013793" height="122" rx="6" fill="#fafafa" stroke="#bbb" stroke-width="1.5" stroke-dasharray="6,4"/><text x="875.0895974290848" y="461.1685248594679" font-weight="bold" font-size="13">Monitoring</text><rect x="883.0895974290848" y="481.56852485946786" width="100" height="70" rx="6" fill="#e3f2fd" stroke="#1565c0" stroke-width="1.5"/><rect x="923.4895974290848" y="489.56852485946786" width="19.2" height="8" rx="1" fill="none" stroke="#1565c0" stroke-width="1.5"/><rect x="923.4895974290848" y="499.56852485946786" width="19.2" height="8" rx="1" fill="none" stroke="#1565c0" stroke-width="1.5"/><rect x="923.4895974290848" y="509.56852485946786" width="19.2" height="8" rx="1" fill="none" stroke="#1565c0" stroke-width="1.5"/><text x="933.0895974290848" y="543.5685248594679" text-anchor="middle" font-size="11">Datadog</text><text x="933.0895974290848" y="531.5685248594679" text-anchor="middle" font-size="9" fill="#1565c0">server</text><rect x="1023.2488053304642" y="481.56852485946786" width="100" height="70" rx="6" fill="#f5f5f5" stroke="#757575" stroke-width="1.5"/><rect x="1065.2488053304642" y="497.1685248594679" width="16" height="12.8" rx="3" fill="none" stroke="#757575" stroke-width="1.5"/><text x="1073.2488053304642" y="543.5685248594679" text-anchor="middle" font-size="11">PagerDuty</text><text x="1073.2488053304642" y="531.5685248594679" text-anchor="middle" font-size="9" fill="#757575">generic</text><path d="M140,80.74827703103207 L387.93034316248196,109.25172296896793" fill="none" stroke="#666" stroke-width="1.5" marker-end="url(#arrow)"/><rect x="228.96517158124095" y="77" width="70" height="16" rx="3" fill="white" opacity="0.9"/><text x="263.96517158124095" y="89" text-anchor="middle" font-size="11" fill="#666">git push</text><path d="M487.93034316248196,115 L883.0895974290848,115" fill="none" stroke="#666" stroke-width="1.5" marker-end="url(#arrow)"/><rect x="654.5099702957834" y="97" width="62" height="16" rx="3" fill="white" opacity="0.9"/><text x="685.5099702957834" y="109" text-anchor="middle" font-size="11" fill="#666">webhook</text><path d="M983.0895974290848,115 L1030.3185085332057,115" fill="none" stroke="#666" stroke-width="1.5" marker-end="url(#arrow)"/><rect x="983.7040529811452" y="97" width="46" height="16" rx="3" fill="white" opacity="0.9"/><text x="1006.7040529811452" y="109" text-anchor="middle" font-size="11" fill="#666">build</text><path d="M1130.3185085332057,115 L1177.5474196373266,115" fill="none" stroke="#666" stroke-width="1.5" marker-end="url(#arrow)"/><rect x="1110.9329640852661" y="97" width="86" height="16" rx="3" fill="white" opacity="0.9"/><text x="1153.9329640852661" y="109" text-anchor="middle" font-size="11" fill="#666">push image</text><path d="M1277.5474196373266,122.68204071575211 L1431.536317363493,146.34102035787606 Q1585.5252150896595,170 1631.4683462942496,152.19086067003929 L1677.4114774988398,134.3817213400786" fill="none" stroke="#666" stroke-width="1.5" marker-end="url(#arrow)"/><rect x="1451.5640064612783" y="134.89929794550244" width="54" height="16" rx="3" fill="white" opacity="0.9"/><text x="1478.5640064612783" y="146.89929794550244" text-anchor="middle" font-size="11" fill="#666">deploy</text><path d="M1261.6479583022258,150 L1708.701039818732,608.8448882534395" fill="none" stroke="#666" stroke-width="1.5" marker-end="url(#arrow)"/><rect x="1458.1744990604789" y="361.42244412671977" width="54" height="16" rx="3" fill="white" opacity="0.9"/><text x="1485.1744990604789" y="373.42244412671977" text-anchor="middle" font-size="11" fill="#666">deploy</text><path d="M1272.4560577481739,150 L1697.8929403727839,481.56852485946786" fill="none" stroke="#666" stroke-width="1.5" marker-end="url(#arrow)"/><rect x="1458.1744990604789" y="297.78426242973393" width="54" height="16" rx="3" fill="white" opacity="0.9"/><text x="1485.1744990604789" y="309.78426242973393" text-anchor="middle" font-size="11" fill="#666">deploy</text><path d="M1635.5252150896595,115 L1677.4114774988398,115" fill="none" stroke="#666" stroke-width="1.5" marker-end="url(#arrow)"/><path d="M1777.4114774988398,115 L1819.29773990802,115" fill="none" stroke="#666" stroke-width="1.5" marker-end="url(#arrow)"/><path d="M1635.5252150896595,600.4380306803382 L1692.8015784836311,623.613564129555" fill="none" stroke="#666" stroke-width="1.5" marker-end="url(#arrow)"/><path d="M1635.5252150896595,559.9753824325692 L1692.8015784836311,536.7998489833524" fill="none" stroke="#666" stroke-width="1.5" marker-end="url(#arrow)"/><path d="M1792.8015784836311,643.8448882534395 L1850.0779418776028,643.8448882534395" fill="none" stroke="#666" stroke-width="1.5" marker-end="url(#arrow)"/><path d="M1786.0513427917913,551.5685248594679 L1856.8281775694427,608.8448882534395" fill="none" stroke="#666" stroke-width="1.5" marker-end="url(#arrow)"/><path d="M1786.0513427917913,608.8448882534395 L1856.8281775694427,551.5685248594679" fill="none" stroke="#666" stroke-width="1.5" marker-end="url(#arrow)"/><path d="M1792.8015784836311,516.5685248594679 L1850.0779418776028,516.5685248594679" fill="none" stroke="#666" stroke-width="1.5" marker-end="url(#arrow)"/><path d="M983.0895974290848,496.9479801861918 L1028.1692013797744,479.2582525228298 Q1073.2488053304642,461.56852485946786 1329.3870102100618,548.3876157079608 Q1585.5252150896595,635.2067065564537 1639.1633967866453,638.1527077825493 L1692.8015784836311,641.098709008645" fill="none" stroke="#666" stroke-width="1.5" marker-end="url(#arrow)"/><path d="M983.0895974290848,536.1890695327439 L1028.1692013797744,553.8787971961059 Q1073.2488053304642,571.5685248594679 1383.0251919070477,546.122134455504 L1692.8015784836311,520.6757440515403" fill="none" stroke="#666" stroke-width="1.5" marker-end="url(#arrow)"/><path d="M983.0895974290848,516.5685248594679 L1023.2488053304642,516.5685248594679" fill="none" stroke="#666" stroke-width="1.5" marker-end="url(#arrow)"/><rect x="980.1692013797744" y="498.56852485946786" width="46" height="16" rx="3" fill="white" opacity="0.9"/><text x="1003.1692013797744" y="510.56852485946786" text-anchor="middle" font-size="11" fill="#666">alert</text></svg>