<svg xmlns="http://www.w3.org/2000/svg" width="2221.483464766835" height="803.2873800129677" viewBox="0 0 2221.483464766835 803.2873800129677"><style>text { font-family: sans-serif; font-size: 12px; fill: #333; }</style><defs><marker id="arrow" viewBox="0 0 10 10" refX="10" refY="5" markerWidth="8" markerHeight="8" orient="auto"><polygon points="0,1 10,5 0,9" fill="#666"/></marker></defs><rect x="40" y="40" width="100" height="70" rx="6" fill="#fafafa" stroke="#616161" stroke-width="1.5"/><circle cx="90" cy="54" r="5" fill="none" stroke="#616161" stroke-width="1.5"/><line x1="90" y1="59" x2="90" y2="68" stroke="#616161" stroke-width="1.5"/><line x1="83" y1="63" x2="97" y2="63" stroke="#616161" stroke-width="1.5"/><text x="90" y="102" text-anchor="middle" font-size="11">Developer</text><text x="90" y="90" text-anchor="middle" font-size="9" fill="#616161">user</text><rect x="425.8161073813689" y="40" width="132" height="122" rx="6" fill="#fafafa" stroke="#bbb" stroke-width="1.5" stroke-dasharray="6,4"/><text x="433.8161073813689" y="59.599999999999994" font-weight="bold" font-size="13">Source</text><rect x="441.8161073813689" y="80" width="100" height="70" rx="6" fill="#f5f5f5" stroke="#757575" stroke-width="1.5"/><rect x="483.8161073813689" y="95.6" width="16" height="12.8" rx="3" fill="none" stroke="#757575" stroke-width="1.5"/><text x="491.8161073813689" y="142" text-anchor="middle" font-size="11">GitHub</text><text x="491.8161073813689" y="130" text-anchor="middle" font-size="9" fill="#757575">generic</text><rect x="983.178513442503" y="40" width="443.09259735953043" height="122" rx="6" fill="#fafafa" stroke="#bbb" stroke-width="1.5" stroke-dasharray="6,4"/><text x="991.178513442503" y="59.599999999999994" font-weight="bold" font-size="13">CI/CD</text><rect x="999.178513442503" y="80" width="100" height="70" rx="6" fill="#e3f2fd" stroke="#1565c0" stroke-width="1.5"/><rect x="1039.5785134425032" y="88" width="19.2" height="8" rx="1" fill="none" stroke="#1565c0" stroke-width="1.5"/><rect x="1039.5785134425032" y="98" width="19.2" height="8" rx="1" fill="none" stroke="#1565c0" stroke-width="1.5"/><rect x="1039.5785134425032" y="108" width="19.2" height="8" rx="1" fill="none" stroke="#1565c0" stroke-width="1.5"/><text x="1049.1785134425031" y="142" text-anchor="middle" font-size="11">GitHubActions</text><text x="1049.1785134425031" y="130" text-anchor="middle" font-size="9" fill="#1565c0">server</text><rect x="1154.7248121222683" y="80" width="100" height="70" rx="6" fill="#e3f2fd" stroke="#1565c0" stroke-width="1.5"/><rect x="1195.1248121222684" y="88" width="19.2" height="8" rx="1" fill="none" stroke="#1565c0" stroke-width="1.5"/><rect x="1195.1248121222684" y="98" width="19.2" height="8" rx="1" fill="none" stroke="#1565c0" stroke-width="1.5"/><rect x="1195.1248121222684" y="108" width="19.2" height="8" rx="1" fill="none" stroke="#1565c0" stroke-width="1.5"/><text x="1204.7248121222683" y="142" text-anchor="middle" font-size="11">DockerBuild</text><text x="1204.7248121222683" y="130" text-anchor="middle" font-size="9" fill="#1565c0">server</text><rect x="1310.2711108020335" y="80" width="100" height="70" rx="6" fill="#e0f2f1" stroke="#00695c" stroke-width="1.5"/><path d="M1352.2711108020335,94 L1368.2711108020335,94 L1366.6711108020336,110 L1353.8711108020334,110 Z" fill="none" stroke="#00695c" stroke-width="1.5"/><text x="1360.2711108020335" y="142" text-anchor="middle" font-size="11">ECR</text><text x="1360.2711108020335" y="130" text-anchor="middle" font-size="9" fill="#00695c">storage</text><rect x="1710.1884345913697" y="40" width="437.0199925980745" height="122" rx="6" fill="#fafafa" stroke="#bbb" stroke-width="1.5" stroke-dasharray="6,4"/><text x="1718.1884345913697" y="59.599999999999994" font-weight="bold" font-size="13">Staging</text><rect x="1726.1884345913697" y="80" width="100" height="70" rx="6" fill="#fff3e0" stroke="#e65100" stroke-width="1.5"/><circle cx="1776.1884345913697" cy="102" r="8" fill="none" stroke="#e65100" stroke-width="1.5"/><line x1="1768.1884345913697" y1="102" x2="1761.7884345913697" y2="96" stroke="#e65100" stroke-width="1.5"/><line x1="1768.1884345913697" y1="102" x2="1761.7884345913697" y2="108" stroke="#e65100" stroke-width="1.5"/><text x="1776.1884345913697" y="142" text-anchor="middle" font-size="11">StagingLB</text><text x="1776.1884345913697" y="130" text-anchor="middle" font-size="9" fill="#e65100">lb</text><rect x="1878.698430890407" y="80" width="100" height="70" rx="6" fill="#e3f2fd" stroke="#1565c0" stroke-width="1.5"/><rect x="1919.0984308904071" y="88" width="19.2" height="8" rx="1" fill="none" stroke="#1565c0" stroke-width="1.5"/><rect x="1919.0984308904071" y="98" width="19.2" height="8" rx="1" fill="none" stroke="#1565c0" stroke-width="1.5"/><rect x="1919.0984308904071" y="108" width="19.2" height="8" rx="1" fill="none" stroke="#1565c0" stroke-width="1.5"/><text x="1928.698430890407" y="142" text-anchor="middle" font-size="11">StagingApp</text><text x="1928.698430890407" y="130" text-anchor="middle" font-size="9" fill="#1565c0">server</text><rect x="2031.2084271894441" y="80" width="100" height="70" rx="6" fill="#e8f5e9" stroke="#2e7d32" stroke-width="1.5"/><ellipse cx="2081.208427189444" cy="94.2" rx="9.6" ry="5" fill="none" stroke="#2e7d32" stroke-width="1.5"/><line x1="2071.6084271894442" y1="94.2" x2="2071.6084271894442" y2="109.8" stroke="#2e7d32" stroke-width="1.5"/><line x1="2090.808427189444" y1="94.2" x2="2090.808427189444" y2="109.8" stroke="#2e7d32" stroke-width="1.5"/><ellipse cx="2081.208427189444" cy="109.8" rx="9.6" ry="5" fill="none" stroke="#2e7d32" stroke-width="1.5"/><text x="2081.208427189444" y="142" text-anchor="middle" font-size="11">StagingDB</text><text x="2081.208427189444" y="130" text-anchor="middle" font-size="9" fill="#2e7d32">db</text><rect x="1710.1884345913697" y="501.6398649252352" width="471.29503017546494" height="261.6475150877325" rx="6" fill="#fafafa" stroke="#bbb" stroke-width="1.5" stroke-dasharray="6,4"/><text x="1718.1884345913697" y="521.2398649252352" font-weight="bold" font-size="13">Production</text><rect x="1726.1884345913697" y="611.4636224691014" width="100" height="70" rx="6" fill="#fff3e0" stroke="#e65100" stroke-width="1.5"/><circle cx="1776.1884345913697" cy="633.4636224691014" r="8" fill="none" stroke="#e65100" stroke-width="1.5"/><line x1="1768.1884345913697" y1="633.4636224691014" x2="1761.7884345913697" y2="627.4636224691014" stroke="#e65100" stroke-width="1.5"/><line x1="1768.1884345913697" y1="633.4636224691014" x2="1761.7884345913697" y2="639.4636224691014" stroke="#e65100" stroke-width="1.5"/><text x="1776.1884345913697" y="673.4636224691014" text-anchor="middle" font-size="11">ProdLB</text><text x="1776.1884345913697" y="661.4636224691014" text-anchor="middle" font-size="9" fill="#e65100">lb</text><rect x="1895.8359496791022" y="681.2873800129677" width="100" height="70" rx="6" fill="#e3f2fd" stroke="#1565c0" stroke-width="1.5"/><rect x="1936.2359496791023" y="689.2873800129677" width="19.2" height="8" rx="1" fill="none" stroke="#1565c0" stroke-width="1.5"/><rect x="1936.2359496791023" y="699.2873800129677" width="19.2" height="8" rx="1" fill="none" stroke="#1565c0" stroke-width="1.5"/><rect x="1936.2359496791023" y="709.2873800129677" width="19.2" height="8" rx="1" fill="none" stroke="#1565c0" stroke-width="1.5"/><text x="1945.8359496791022" y="743.2873800129677" text-anchor="middle" font-size="11">ProdApp1</text><text x="1945.8359496791022" y="731.2873800129677" text-anchor="middle" font-size="9" fill="#1565c0">server</text><rect x="1895.8359496791022" y="541.6398649252352" width="100" height="70" rx="6" fill="#e3f2fd" stroke="#1565c0" stroke-width="1.5"/><rect x="1936.2359496791023" y="549.6398649252352" width="19.2" height="8" rx="1" fill="none" stroke="#1565c0" stroke-width="1.5"/><rect x="1936.2359496791023" y="559.6398649252352" width="19.2" height="8" rx="1" fill="none" stroke="#1565c0" stroke-width="1.5"/><rect x="1936.2359496791023" y="569.6398649252352" width="19.2" height="8" rx="1" fill="none" stroke="#1565c0" stroke-width="1.5"/><text x="1945.8359496791022" y="603.6398649252352" text-anchor="middle" font-size="11">ProdApp2</text><text x="1945.8359496791022" y="591.6398649252352" text-anchor="middle" font-size="9" fill="#1565c0">server</text><rect x="2065.483464766835" y="681.2873800129677" width="100" height="70" rx="6" fill="#e8f5e9" stroke="#2e7d32" stroke-width="1.5"/><ellipse cx="2115.483464766835" cy="695.4873800129677" rx="9.6" ry="5" fill="none" stroke="#2e7d32" stroke-width="1.5"/><line x1="2105.883464766835" y1="695.4873800129677" x2="2105.883464766835" y2="711.0873800129676" stroke="#2e7d32" stroke-width="1.5"/><line x1="2125.083464766835" y1="695.4873800129677" x2="2125.083464766835" y2="711.0873800129676" stroke="#2e7d32" stroke-width="1.5"/><ellipse cx="2115.483464766835" cy="711.0873800129676" rx="9.6" ry="5" fill="none" stroke="#2e7d32" stroke-width="1.5"/><text x="2115.483464766835" y="743.2873800129677" text-anchor="middle" font-size="11">ProdDB</text><text x="2115.483464766835" y="731.2873800129677" text-anchor="middle" font-size="9" fill="#2e7d32">db</text><rect x="2065.483464766835" y="541.6398649252352" width="100" height="70" rx="6" fill="#fce4ec" stroke="#c62828" stroke-width="1.5"/><polyline points="2111.483464766835,554.0398649252352 2117.483464766835,561.6398649252352 2113.483464766835,565.6398649252352 2119.483464766835,573.2398649252352" fill="none" stroke="#c62828" stroke-width="2"/><text x="2115.483464766835" y="603.6398649252352" text-anchor="middle" font-size="11">ProdCache</text><text x="2115.483464766835" y="591.6398649252352" text-anchor="middle" font-size="9" fill="#c62828">cache</text><rect x="983.178513442503" y="501.6398649252352" width="279.3841995766062" height="122" rx="6" fill="#fafafa" stroke="#bbb" stroke-width="1.5" stroke-dasharray="6,4"/><text x="991.178513442503" y="521.2398649252352" font-weight="bold" font-size="13">Monitoring</text><rect x="999.178513442503" y="541.6398649252352" width="100" height="70" rx="6" fill="#e3f2fd" stroke="#1565c0" stroke-width="1.5"/><rect x="1039.5785134425032" y="549.6398649252352" width="19.2" height="8" rx="1" fill="none" stroke="#1565c0" stroke-width="1.5"/><rect x="1039.5785134425032" y="559.6398649252352" width="19.2" height="8" rx="1" fill="none" stroke="#1565c0" stroke-width="1.5"/><rect x="1039.5785134425032" y="569.6398649252352" width="19.2" height="8" rx="1" fill="none" stroke="#1565c0" stroke-width="1.5"/><text x="1049.1785134425031" y="603.6398649252352" text-anchor="middle" font-size="11">Datadog</text><text x="1049.1785134425031" y="591.6398649252352" text-anchor="middle" font-size="9" fill="#1565c0">server</text><rect x="1146.5627130191092" y="541.6398649252352" width="100" height="70" rx="6" fill="#f5f5f5" stroke="#757575" stroke-width="1.5"/><rect x="1188.5627130191092" y="557.2398649252352" width="16" height="12.8" rx="3" fill="none" stroke="#757575" stroke-width="1.5"/><text x="1196.5627130191092" y="603.6398649252352" text-anchor="middle" font-size="11">PagerDuty</text><text x="1196.5627130191092" y="591.6398649252352" text-anchor="middle" font-size="9" fill="#757575">generic</text><path d="M140,79.9774012620698 L441.8161073813689,110.0225987379302" fill="none" stroke="#666" stroke-width="1.5" marker-end="url(#arrow)"/><rect x="255.90805369068448" y="77" width="70" height="16" rx="3" fill="white" opacity="0.9"/><text x="290.9080536906845" y="89" text-anchor="middle" font-size="11" fill="#666">git push</text><path d="M541.816107381369,115 L999.1785134425031,115" fill="none" stroke="#666" stroke-width="1.5" marker-end="url(#arrow)"/><rect x="739.497310411936" y="97" width="62" height="16" rx="3" fill="white" opacity="0.9"/><text x="770.497310411936" y="109" text-anchor="middle" font-size="11" fill="#666">webhook</text><path d="M1099.1785134425031,115 L1154.7248121222683,115" fill="none" stroke="#666" stroke-width="1.5" marker-end="url(#arrow)"/><rect x="1103.9516627823857" y="97" width="46" height="16" rx="3" fill="white" opacity="0.9"/><text x="1126.9516627823857" y="109" text-anchor="middle" font-size="11" fill="#666">build</text><path d="M1254.7248121222683,115 L1310.2711108020335,115" fill="none" stroke="#666" stroke-width="1.5" marker-end="url(#arrow)"/><rect x="1239.497961462151" y="97" width="86" height="16" rx="3" fill="white" opacity="0.9"/><text x="1282.497961462151" y="109" text-anchor="middle" font-size="11" fill="#666">push image</text><path d="M1410.2711108020335,121.61189097618085 L1593.2297726967017,145.80594548809043 Q1776.1884345913697,170 1827.4434327408885,151.51580246126252 L1878.698430890407,133.03160492252505" fill="none" stroke="#666" stroke-width="1.5" marker-end="url(#arrow)"/><rect x="1618.6369852119503" y="134.14683657993922" width="54" height="16" rx="3" fill="white" opacity="0.9"/><text x="1645.6369852119503" y="146.14683657993922" text-anchor="middle" font-size="11" fill="#666">deploy</text><path d="M1394.3559262196718,150 L1911.751134261464,681.2873800129677" fill="none" stroke="#666" stroke-width="1.5" marker-end="url(#arrow)"/><rect x="1626.0535302405679" y="397.64369000648384" width="54" height="16" rx="3" fill="white" opacity="0.9"/><text x="1653.0535302405679" y="409.64369000648384" text-anchor="middle" font-size="11" fill="#666">deploy</text><path d="M1404.6666903822688,150 L1901.4403700988669,541.6398649252352" fill="none" stroke="#666" stroke-width="1.5" marker-end="url(#arrow)"/><rect x="1626.0535302405679" y="327.8199324626176" width="54" height="16" rx="3" fill="white" opacity="0.9"/><text x="1653.0535302405679" y="339.8199324626176" text-anchor="middle" font-size="11" fill="#666">deploy</text><path d="M1826.1884345913697,115 L1878.698430890407,115" fill="none" stroke="#666" stroke-width="1.5" marker-end="url(#arrow)"/><path d="M1978.698430890407,115 L2031.2084271894441,115" fill="none" stroke="#666" stroke-width="1.5" marker-end="url(#arrow)"/><path d="M1826.1884345913697,667.04269122462 L1895.8359496791022,695.7083112574492" fill="none" stroke="#666" stroke-width="1.5" marker-end="url(#arrow)"/><path d="M1826.1884345913697,625.8845537135829 L1895.8359496791022,597.2189336807537" fill="none" stroke="#666" stroke-width="1.5" marker-end="url(#arrow)"/><path d="M1995.8359496791022,716.2873800129677 L2065.483464766835,716.2873800129677" fill="none" stroke="#666" stroke-width="1.5" marker-end="url(#arrow)"/><path d="M1988.35488046237,611.6398649252352 L2072.964533983567,681.2873800129677" fill="none" stroke="#666" stroke-width="1.5" marker-end="url(#arrow)"/><path d="M1988.35488046237,681.2873800129677 L2072.964533983567,611.6398649252352" fill="none" stroke="#666" stroke-width="1.5" marker-end="url(#arrow)"/><path d="M1995.8359496791022,576.6398649252352 L2065.483464766835,576.6398649252352" fill="none" stroke="#666" stroke-width="1.5" marker-end="url(#arrow)"/><path d="M1099.1785134425031,557.9811484013474 L1147.8706132308062,539.8105066632913 Q1196.5627130191092,521.6398649252352 1486.3755738052396,611.5517436971684 Q1776.1884345913697,701.4636224691014 1836.012192135236,706.691007478158 L1895.8359496791022,711.9183924872145" fill="none" stroke="#666" stroke-width="1.5" marker-end="url(#arrow)"/><path d="M1099.1785134425031,595.298581449123 L1147.8706132308062,613.4692231871791 Q1196.5627130191092,631.6398649252352 1546.1993313491057,605.9749765143389 L1895.8359496791022,580.3100881034426" fill="none" stroke="#666" stroke-width="1.5" marker-end="url(#arrow)"/><path d="M1099.1785134425031,576.6398649252352 L1146.5627130191092,576.6398649252352" fill="none" stroke="#666" stroke-width="1.5" marker-end="url(#arrow)"/><rect x="1099.8706132308062" y="558.6398649252352" width="46" height="16" rx="3" fill="white" opacity="0.9"/><text x="1122.8706132308062" y="570.6398649252352" text-anchor="middle" font-size="11" fill="#666">alert</text></svg>