<svg xmlns="http://www.w3.org/2000/svg" width="2572.9863670098975" height="918.3904837779903" viewBox="0 0 2572.9863670098975 918.3904837779903"><style>text { font-family: sans-serif; font-size: 12px; fill: #333; }</style><defs><marker id="arrow" viewBox="0 0 10 10" refX="10" refY="5" markerWidth="8" markerHeight="8" orient="auto"><polygon points="0,1 10,5 0,9" fill="#666"/></marker></defs><rect x="40" y="40" width="100" height="70" rx="6" fill="#fafafa" stroke="#616161" stroke-width="1.5"/><circle cx="90" cy="54" r="5" fill="none" stroke="#616161" stroke-width="1.5"/><line x1="90" y1="59" x2="90" y2="68" stroke="#616161" stroke-width="1.5"/><line x1="83" y1="63" x2="97" y2="63" stroke="#616161" stroke-width="1.5"/><text x="90" y="102" text-anchor="middle" font-size="11">Developer</text><text x="90" y="90" text-anchor="middle" font-size="9" fill="#616161">user</text><rect x="516.5186661415539" y="40" width="132" height="122" rx="6" fill="#fafafa" stroke="#bbb" stroke-width="1.5" stroke-dasharray="6,4"/><text x="524.5186661415539" y="59.599999999999994" font-weight="bold" font-size="13">Source</text><rect x="532.5186661415539" y="80" width="100" height="70" rx="6" fill="#f5f5f5" stroke="#757575" stroke-width="1.5"/><rect x="574.5186661415539" y="95.6" width="16" height="12.8" rx="3" fill="none" stroke="#757575" stroke-width="1.5"/><text x="582.5186661415539" y="142" text-anchor="middle" font-size="11">GitHub</text><text x="582.5186661415539" y="130" text-anchor="middle" font-size="9" fill="#757575">generic</text><rect x="1179.8806989392892" y="40" width="473.68673331236266" height="122" rx="6" fill="#fafafa" stroke="#bbb" stroke-width="1.5" stroke-dasharray="6,4"/><text x="1187.8806989392892" y="59.599999999999994" font-weight="bold" font-size="13">CI/CD</text><rect x="1195.8806989392892" y="80" width="100" height="70" rx="6" fill="#e3f2fd" stroke="#1565c0" stroke-width="1.5"/><rect x="1236.2806989392893" y="88" width="19.2" height="8" rx="1" fill="none" stroke="#1565c0" stroke-width="1.5"/><rect x="1236.2806989392893" y="98" width="19.2" height="8" rx="1" fill="none" stroke="#1565c0" stroke-width="1.5"/><rect x="1236.2806989392893" y="108" width="19.2" height="8" rx="1" fill="none" stroke="#1565c0" stroke-width="1.5"/><text x="1245.8806989392892" y="142" text-anchor="middle" font-size="11">GitHubActions</text><text x="1245.8806989392892" y="130" text-anchor="middle" font-size="9" fill="#1565c0">server</text><rect x="1366.7240655954706" y="80" width="100" height="70" rx="6" fill="#e3f2fd" stroke="#1565c0" stroke-width="1.5"/><rect x="1407.1240655954707" y="88" width="19.2" height="8" rx="1" fill="none" stroke="#1565c0" stroke-width="1.5"/><rect x="1407.1240655954707" y="98" width="19.2" height="8" rx="1" fill="none" stroke="#1565c0" stroke-width="1.5"/><rect x="1407.1240655954707" y="108" width="19.2" height="8" rx="1" fill="none" stroke="#1565c0" stroke-width="1.5"/><text x="1416.7240655954706" y="142" text-anchor="middle" font-size="11">DockerBuild</text><text x="1416.7240655954706" y="130" text-anchor="middle" font-size="9" fill="#1565c0">server</text><rect x="1537.567432251652" y="80" width="100" height="70" rx="6" fill="#e0f2f1" stroke="#00695c" stroke-width="1.5"/><path d="M1579.567432251652,94 L1595.567432251652,94 L1593.967432251652,110 L1581.167432251652,110 Z" fill="none" stroke="#00695c" stroke-width="1.5"/><text x="1587.567432251652" y="142" text-anchor="middle" font-size="11">ECR</text><text x="1587.567432251652" y="130" text-anchor="middle" font-size="9" fill="#00695c">storage</text><rect x="2029.1572768279823" y="40" width="457.65878722754076" height="122" rx="6" fill="#fafafa" stroke="#bbb" stroke-width="1.5" stroke-dasharray="6,4"/><text x="2037.1572768279823" y="59.599999999999994" font-weight="bold" font-size="13">Staging</text><rect x="2045.1572768279823" y="80" width="100" height="70" rx="6" fill="#fff3e0" stroke="#e65100" stroke-width="1.5"/><circle cx="2095.157276827982" cy="102" r="8" fill="none" stroke="#e65100" stroke-width="1.5"/><line x1="2087.157276827982" y1="102" x2="2080.757276827982" y2="96" stroke="#e65100" stroke-width="1.5"/><line x1="2087.157276827982" y1="102" x2="2080.757276827982" y2="108" stroke="#e65100" stroke-width="1.5"/><text x="2095.157276827982" y="142" text-anchor="middle" font-size="11">StagingLB</text><text x="2095.157276827982" y="130" text-anchor="middle" font-size="9" fill="#e65100">lb</text><rect x="2207.9866704417527" y="80" width="100" height="70" rx="6" fill="#e3f2fd" stroke="#1565c0" stroke-width="1.5"/><rect x="2248.386670441753" y="88" width="19.2" height="8" rx="1" fill="none" stroke="#1565c0" stroke-width="1.5"/><rect x="2248.386670441753" y="98" width="19.2" height="8" rx="1" fill="none" stroke="#1565c0" stroke-width="1.5"/><rect x="2248.386670441753" y="108" width="19.2" height="8" rx="1" fill="none" stroke="#1565c0" stroke-width="1.5"/><text x="2257.9866704417527" y="142" text-anchor="middle" font-size="11">StagingApp</text><text x="2257.9866704417527" y="130" text-anchor="middle" font-size="9" fill="#1565c0">server</text><rect x="2370.816064055523" y="80" width="100" height="70" rx="6" fill="#e8f5e9" stroke="#2e7d32" stroke-width="1.5"/><ellipse cx="2420.816064055523" cy="94.2" rx="9.6" ry="5" fill="none" stroke="#2e7d32" stroke-width="1.5"/><line x1="2411.216064055523" y1="94.2" x2="2411.216064055523" y2="109.8" stroke="#2e7d32" stroke-width="1.5"/><line x1="2430.416064055523" y1="94.2" x2="2430.416064055523" y2="109.8" stroke="#2e7d32" stroke-width="1.5"/><ellipse cx="2420.816064055523" cy="109.8" rx="9.6" ry="5" fill="none" stroke="#2e7d32" stroke-width="1.5"/><text x="2420.816064055523" y="142" text-anchor="middle" font-size="11">StagingDB</text><text x="2420.816064055523" y="130" text-anchor="middle" font-size="9" fill="#2e7d32">db</text><rect x="2029.1572768279823" y="600.4759386870328" width="503.82909018191515" height="277.9145450909576" rx="6" fill="#fafafa" stroke="#bbb" stroke-width="1.5" stroke-dasharray="6,4"/><text x="2037.1572768279823" y="620.0759386870328" font-weight="bold" font-size="13">Production</text><rect x="2045.1572768279823" y="718.4332112325116" width="100" height="70" rx="6" fill="#fff3e0" stroke="#e65100" stroke-width="1.5"/><circle cx="2095.157276827982" cy="740.4332112325116" r="8" fill="none" stroke="#e65100" stroke-width="1.5"/><line x1="2087.157276827982" y1="740.4332112325116" x2="2080.757276827982" y2="734.4332112325116" stroke="#e65100" stroke-width="1.5"/><line x1="2087.157276827982" y1="740.4332112325116" x2="2080.757276827982" y2="746.4332112325116" stroke="#e65100" stroke-width="1.5"/><text x="2095.157276827982" y="780.4332112325116" text-anchor="middle" font-size="11">ProdLB</text><text x="2095.157276827982" y="768.4332112325116" text-anchor="middle" font-size="9" fill="#e65100">lb</text><rect x="2231.07182191894" y="796.3904837779903" width="100" height="70" rx="6" fill="#e3f2fd" stroke="#1565c0" stroke-width="1.5"/><rect x="2271.47182191894" y="804.3904837779903" width="19.2" height="8" rx="1" fill="none" stroke="#1565c0" stroke-width="1.5"/><rect x="2271.47182191894" y="814.3904837779903" width="19.2" height="8" rx="1" fill="none" stroke="#1565c0" stroke-width="1.5"/><rect x="2271.47182191894" y="824.3904837779903" width="19.2" height="8" rx="1" fill="none" stroke="#1565c0" stroke-width="1.5"/><text x="2281.07182191894" y="858.3904837779903" text-anchor="middle" font-size="11">ProdApp1</text><text x="2281.07182191894" y="846.3904837779903" text-anchor="middle" font-size="9" fill="#1565c0">server</text><rect x="2231.07182191894" y="640.4759386870328" width="100" height="70" rx="6" fill="#e3f2fd" stroke="#1565c0" stroke-width="1.5"/><rect x="2271.47182191894" y="648.4759386870328" width="19.2" height="8" rx="1" fill="none" stroke="#1565c0" stroke-width="1.5"/><rect x="2271.47182191894" y="658.4759386870328" width="19.2" height="8" rx="1" fill="none" stroke="#1565c0" stroke-width="1.5"/><rect x="2271.47182191894" y="668.4759386870328" width="19.2" height="8" rx="1" fill="none" stroke="#1565c0" stroke-width="1.5"/><text x="2281.07182191894" y="702.4759386870328" text-anchor="middle" font-size="11">ProdApp2</text><text x="2281.07182191894" y="690.4759386870328" text-anchor="middle" font-size="9" fill="#1565c0">server</text><rect x="2416.9863670098975" y="796.3904837779903" width="100" height="70" rx="6" fill="#e8f5e9" stroke="#2e7d32" stroke-width="1.5"/><ellipse cx="2466.9863670098975" cy="810.5904837779904" rx="9.6" ry="5" fill="none" stroke="#2e7d32" stroke-width="1.5"/><line x1="2457.3863670098976" y1="810.5904837779904" x2="2457.3863670098976" y2="826.1904837779903" stroke="#2e7d32" stroke-width="1.5"/><line x1="2476.5863670098975" y1="810.5904837779904" x2="2476.5863670098975" y2="826.1904837779903" stroke="#2e7d32" stroke-width="1.5"/><ellipse cx="2466.9863670098975" cy="826.1904837779903" rx="9.6" ry="5" fill="none" stroke="#2e7d32" stroke-width="1.5"/><text x="2466.9863670098975" y="858.3904837779903" text-anchor="middle" font-size="11">ProdDB</text><text x="2466.9863670098975" y="846.3904837779903" text-anchor="middle" font-size="9" fill="#2e7d32">db</text><rect x="2416.9863670098975" y="640.4759386870328" width="100" height="70" rx="6" fill="#fce4ec" stroke="#c62828" stroke-width="1.5"/><polyline points="2462.9863670098975,652.8759386870328 2468.9863670098975,660.4759386870328 2464.9863670098975,664.4759386870328 2470.9863670098975,672.0759386870328" fill="none" stroke="#c62828" stroke-width="2"/><text x="2466.9863670098975" y="702.4759386870328" text-anchor="middle" font-size="11">ProdCache</text><text x="2466.9863670098975" y="690.4759386870328" text-anchor="middle" font-size="9" fill="#c62828">cache</text><rect x="1179.8806989392892" y="600.4759386870328" width="292.238811852069" height="122" rx="6" fill="#fafafa" stroke="#bbb" stroke-width="1.5" stroke-dasharray="6,4"/><text x="1187.8806989392892" y="620.0759386870328" font-weight="bold" font-size="13">Monitoring</text><rect x="1195.8806989392892" y="640.4759386870328" width="100" height="70" rx="6" fill="#e3f2fd" stroke="#1565c0" stroke-width="1.5"/><rect x="1236.2806989392893" y="648.4759386870328" width="19.2" height="8" rx="1" fill="none" stroke="#1565c0" stroke-width="1.5"/><rect x="1236.2806989392893" y="658.4759386870328" width="19.2" height="8" rx="1" fill="none" stroke="#1565c0" stroke-width="1.5"/><rect x="1236.2806989392893" y="668.4759386870328" width="19.2" height="8" rx="1" fill="none" stroke="#1565c0" stroke-width="1.5"/><text x="1245.8806989392892" y="702.4759386870328" text-anchor="middle" font-size="11">Datadog</text><text x="1245.8806989392892" y="690.4759386870328" text-anchor="middle" font-size="9" fill="#1565c0">server</text><rect x="1356.1195107913582" y="640.4759386870328" width="100" height="70" rx="6" fill="#f5f5f5" stroke="#757575" stroke-width="1.5"/><rect x="1398.1195107913582" y="656.0759386870328" width="16" height="12.8" rx="3" fill="none" stroke="#757575" stroke-width="1.5"/><text x="1406.1195107913582" y="702.4759386870328" text-anchor="middle" font-size="11">PagerDuty</text><text x="1406.1195107913582" y="690.4759386870328" text-anchor="middle" font-size="9" fill="#757575">generic</text><path d="M140,79.06075979955891 L532.5186661415539,110.93924020044109" fill="none" stroke="#666" stroke-width="1.5" marker-end="url(#arrow)"/><rect x="301.25933307077696" y="77" width="70" height="16" rx="3" fill="white" opacity="0.9"/><text x="336.25933307077696" y="89" text-anchor="middle" font-size="11" fill="#666">git push</text><path d="M632.5186661415539,115 L1195.8806989392892,115" fill="none" stroke="#666" stroke-width="1.5" marker-end="url(#arrow)"/><rect x="883.1996825404216" y="97" width="62" height="16" rx="3" fill="white" opacity="0.9"/><text x="914.1996825404216" y="109" text-anchor="middle" font-size="11" fill="#666">webhook</text><path d="M1295.8806989392892,115 L1366.7240655954706,115" fill="none" stroke="#666" stroke-width="1.5" marker-end="url(#arrow)"/><rect x="1308.30238226738" y="97" width="46" height="16" rx="3" fill="white" opacity="0.9"/><text x="1331.30238226738" y="109" text-anchor="middle" font-size="11" fill="#666">build</text><path d="M1466.7240655954706,115 L1537.567432251652,115" fill="none" stroke="#666" stroke-width="1.5" marker-end="url(#arrow)"/><rect x="1459.1457489235613" y="97" width="86" height="16" rx="3" fill="white" opacity="0.9"/><text x="1502.1457489235613" y="109" text-anchor="middle" font-size="11" fill="#666">push image</text><path d="M1637.567432251652,120.41776008599096 L1866.362354539817,145.20888004299547 Q2095.157276827982,170 2151.5719736348674,150.94442130185342 L2207.9866704417527,131.88884260370685" fill="none" stroke="#666" stroke-width="1.5" marker-end="url(#arrow)"/><rect x="1897.0222906824513" y="133.00330071086873" width="54" height="16" rx="3" fill="white" opacity="0.9"/><text x="1924.0222906824513" y="145.00330071086873" text-anchor="middle" font-size="11" fill="#666">deploy</text><path d="M1621.449308390416,150 L2247.189945780176,796.3904837779903" fill="none" stroke="#666" stroke-width="1.5" marker-end="url(#arrow)"/><rect x="1907.319627085296" y="455.19524188899516" width="54" height="16" rx="3" fill="white" opacity="0.9"/><text x="1934.319627085296" y="467.19524188899516" text-anchor="middle" font-size="11" fill="#666">deploy</text><path d="M1630.8746502121876,150 L2237.764603958404,640.4759386870328" fill="none" stroke="#666" stroke-width="1.5" marker-end="url(#arrow)"/><rect x="1907.319627085296" y="377.2379693435164" width="54" height="16" rx="3" fill="white" opacity="0.9"/><text x="1934.319627085296" y="389.2379693435164" text-anchor="middle" font-size="11" fill="#666">deploy</text><path d="M2145.157276827982,115 L2207.9866704417527,115" fill="none" stroke="#666" stroke-width="1.5" marker-end="url(#arrow)"/><path d="M2307.9866704417527,115 L2370.816064055523,115" fill="none" stroke="#666" stroke-width="1.5" marker-end="url(#arrow)"/><path d="M2145.157276827982,774.39909975601 L2231.07182191894,810.4245952544919" fill="none" stroke="#666" stroke-width="1.5" marker-end="url(#arrow)"/><path d="M2145.157276827982,732.4673227090132 L2231.07182191894,696.4418272105312" fill="none" stroke="#666" stroke-width="1.5" marker-end="url(#arrow)"/><path d="M2331.07182191894,831.3904837779903 L2416.9863670098975,831.3904837779903" fill="none" stroke="#666" stroke-width="1.5" marker-end="url(#arrow)"/><path d="M2322.806280204326,710.4759386870328 L2425.2519087245114,796.3904837779903" fill="none" stroke="#666" stroke-width="1.5" marker-end="url(#arrow)"/><path d="M2322.806280204326,796.3904837779903 L2425.2519087245114,710.4759386870328" fill="none" stroke="#666" stroke-width="1.5" marker-end="url(#arrow)"/><path d="M2331.07182191894,675.4759386870328 L2416.9863670098975,675.4759386870328" fill="none" stroke="#666" stroke-width="1.5" marker-end="url(#arrow)"/><path d="M1295.8806989392892,658.314054071096 L1351.0001048653237,639.3949963790644 Q1406.1195107913582,620.4759386870328 1818.595666355149,719.9067529213396 L2231.07182191894,819.3375671556464" fill="none" stroke="#666" stroke-width="1.5" marker-end="url(#arrow)"/><path d="M1295.8806989392892,692.6378233029695 L1351.0001048653237,711.5568809950012 Q1406.1195107913582,730.4759386870328 1818.595666355149,704.5474529084513 L2231.07182191894,678.6189671298698" fill="none" stroke="#666" stroke-width="1.5" marker-end="url(#arrow)"/><path d="M1295.8806989392892,675.4759386870328 L1356.1195107913582,675.4759386870328" fill="none" stroke="#666" stroke-width="1.5" marker-end="url(#arrow)"/><rect x="1303.0001048653237" y="657.4759386870328" width="46" height="16" rx="3" fill="white" opacity="0.9"/><text x="1326.0001048653237" y="669.4759386870328" text-anchor="middle" font-size="11" fill="#666">alert</text></svg>