<svg xmlns="http://www.w3.org/2000/svg" width="1876.654689504226" height="1008.4146377230554" viewBox="0 0 1876.654689504226 1008.4146377230554"><style>text { font-family: sans-serif; font-size: 12px; fill: #333; }</style><defs><marker id="arrow" viewBox="0 0 10 10" refX="10" refY="5" markerWidth="8" markerHeight="8" orient="auto"><polygon points="0,1 10,5 0,9" fill="#666"/></marker></defs><rect x="40" y="40" width="100" height="70" rx="6" fill="#fafafa" stroke="#616161" stroke-width="1.5"/><circle cx="90" cy="54" r="5" fill="none" stroke="#616161" stroke-width="1.5"/><line x1="90" y1="59" x2="90" y2="68" stroke="#616161" stroke-width="1.5"/><line x1="83" y1="63" x2="97" y2="63" stroke="#616161" stroke-width="1.5"/><text x="90" y="102" text-anchor="middle" font-size="11">MobileApp</text><text x="90" y="90" text-anchor="middle" font-size="9" fill="#616161">user</text><rect x="40" y="444.4006324124239" width="100" height="70" rx="6" fill="#fafafa" stroke="#616161" stroke-width="1.5"/><circle cx="90" cy="458.4006324124239" r="5" fill="none" stroke="#616161" stroke-width="1.5"/><line x1="90" y1="463.4006324124239" x2="90" y2="472.4006324124239" stroke="#616161" stroke-width="1.5"/><line x1="83" y1="467.4006324124239" x2="97" y2="467.4006324124239" stroke="#616161" stroke-width="1.5"/><text x="90" y="506.4006324124239" text-anchor="middle" font-size="11">WebApp</text><text x="90" y="494.4006324124239" text-anchor="middle" font-size="9" fill="#616161">user</text><rect x="420.0140053106316" y="228.00700265531577" width="152" height="122" rx="6" fill="#fafafa" stroke="#bbb" stroke-width="1.5" stroke-dasharray="6,4"/><text x="428.0140053106316" y="247.60700265531577" font-weight="bold" font-size="13">API Gateway</text><rect x="446.0140053106316" y="268.0070026553158" width="100" height="70" rx="6" fill="#fff3e0" stroke="#e65100" stroke-width="1.5"/><circle cx="496.0140053106316" cy="290.0070026553158" r="8" fill="none" stroke="#e65100" stroke-width="1.5"/><line x1="488.0140053106316" y1="290.0070026553158" x2="481.6140053106316" y2="284.0070026553158" stroke="#e65100" stroke-width="1.5"/><line x1="488.0140053106316" y1="290.0070026553158" x2="481.6140053106316" y2="296.0070026553158" stroke="#e65100" stroke-width="1.5"/><text x="496.0140053106316" y="330.0070026553158" text-anchor="middle" font-size="11">Gateway</text><text x="496.0140053106316" y="318.0070026553158" text-anchor="middle" font-size="9" fill="#e65100">lb</text><rect x="1456.1299605604077" y="40" width="136" height="122" rx="6" fill="#fafafa" stroke="#bbb" stroke-width="1.5" stroke-dasharray="6,4"/><text x="1464.1299605604077" y="59.599999999999994" font-weight="bold" font-size="13">Event Bus</text><rect x="1474.1299605604077" y="80" width="100" height="70" rx="6" fill="#f3e5f5" stroke="#6a1b9a" stroke-width="1.5"/><line x1="1516.1299605604077" y1="102" x2="1528.9299605604076" y2="102" stroke="#6a1b9a" stroke-width="2"/><polyline points="1525.7299605604076,97 1532.1299605604077,102 1525.7299605604076,107" fill="none" stroke="#6a1b9a" stroke-width="2"/><text x="1524.1299605604077" y="142" text-anchor="middle" font-size="11">Kafka</text><text x="1524.1299605604077" y="130" text-anchor="middle" font-size="9" fill="#6a1b9a">queue</text><rect x="880.940800699565" y="228.00700265531577" width="261.82558015660345" height="230.7732542035845" rx="6" fill="#fafafa" stroke="#bbb" stroke-width="1.5" stroke-dasharray="6,4"/><text x="888.940800699565" y="247.60700265531577" font-weight="bold" font-size="13">Services</text><rect x="896.940800699565" y="268.0070026553158" width="100" height="70" rx="6" fill="#e3f2fd" stroke="#1565c0" stroke-width="1.5"/><rect x="937.340800699565" y="276.0070026553158" width="19.2" height="8" rx="1" fill="none" stroke="#1565c0" stroke-width="1.5"/><rect x="937.340800699565" y="286.0070026553158" width="19.2" height="8" rx="1" fill="none" stroke="#1565c0" stroke-width="1.5"/><rect x="937.340800699565" y="296.0070026553158" width="19.2" height="8" rx="1" fill="none" stroke="#1565c0" stroke-width="1.5"/><text x="946.940800699565" y="330.0070026553158" text-anchor="middle" font-size="11">OrderService</text><text x="946.940800699565" y="318.0070026553158" text-anchor="middle" font-size="9" fill="#1565c0">server</text><rect x="1026.7663808561683" y="268.0070026553158" width="100" height="70" rx="6" fill="#e3f2fd" stroke="#1565c0" stroke-width="1.5"/><rect x="1067.1663808561684" y="276.0070026553158" width="19.2" height="8" rx="1" fill="none" stroke="#1565c0" stroke-width="1.5"/><rect x="1067.1663808561684" y="286.0070026553158" width="19.2" height="8" rx="1" fill="none" stroke="#1565c0" stroke-width="1.5"/><rect x="1067.1663808561684" y="296.0070026553158" width="19.2" height="8" rx="1" fill="none" stroke="#1565c0" stroke-width="1.5"/><text x="1076.7663808561683" y="330.0070026553158" text-anchor="middle" font-size="11">PaymentService</text><text x="1076.7663808561683" y="318.0070026553158" text-anchor="middle" font-size="9" fill="#1565c0">server</text><rect x="896.940800699565" y="376.78025685890026" width="100" height="70" rx="6" fill="#e3f2fd" stroke="#1565c0" stroke-width="1.5"/><rect x="937.340800699565" y="384.78025685890026" width="19.2" height="8" rx="1" fill="none" stroke="#1565c0" stroke-width="1.5"/><rect x="937.340800699565" y="394.78025685890026" width="19.2" height="8" rx="1" fill="none" stroke="#1565c0" stroke-width="1.5"/><rect x="937.340800699565" y="404.78025685890026" width="19.2" height="8" rx="1" fill="none" stroke="#1565c0" stroke-width="1.5"/><text x="946.940800699565" y="438.78025685890026" text-anchor="middle" font-size="11">NotifyService</text><text x="946.940800699565" y="426.78025685890026" text-anchor="middle" font-size="9" fill="#1565c0">server</text><rect x="1026.7663808561683" y="376.78025685890026" width="100" height="70" rx="6" fill="#e3f2fd" stroke="#1565c0" stroke-width="1.5"/><rect x="1067.1663808561684" y="384.78025685890026" width="19.2" height="8" rx="1" fill="none" stroke="#1565c0" stroke-width="1.5"/><rect x="1067.1663808561684" y="394.78025685890026" width="19.2" height="8" rx="1" fill="none" stroke="#1565c0" stroke-width="1.5"/><rect x="1067.1663808561684" y="404.78025685890026" width="19.2" height="8" rx="1" fill="none" stroke="#1565c0" stroke-width="1.5"/><text x="1076.7663808561683" y="438.78025685890026" text-anchor="middle" font-size="11">InventoryService</text><text x="1076.7663808561683" y="426.78025685890026" text-anchor="middle" font-size="9" fill="#1565c0">server</text><rect x="1456.1299605604077" y="443.2073188615277" width="380.52472894381833" height="122" rx="6" fill="#fafafa" stroke="#bbb" stroke-width="1.5" stroke-dasharray="6,4"/><text x="1464.1299605604077" y="462.80731886152773" font-weight="bold" font-size="13">Databases</text><rect x="1472.1299605604077" y="483.2073188615277" width="100" height="70" rx="6" fill="#e8f5e9" stroke="#2e7d32" stroke-width="1.5"/><ellipse cx="1522.1299605604077" cy="497.4073188615277" rx="9.6" ry="5" fill="none" stroke="#2e7d32" stroke-width="1.5"/><line x1="1512.5299605604077" y1="497.4073188615277" x2="1512.5299605604077" y2="513.0073188615277" stroke="#2e7d32" stroke-width="1.5"/><line x1="1531.7299605604076" y1="497.4073188615277" x2="1531.7299605604076" y2="513.0073188615277" stroke="#2e7d32" stroke-width="1.5"/><ellipse cx="1522.1299605604077" cy="513.0073188615277" rx="9.6" ry="5" fill="none" stroke="#2e7d32" stroke-width="1.5"/><text x="1522.1299605604077" y="545.2073188615277" text-anchor="middle" font-size="11">OrderDB</text><text x="1522.1299605604077" y="533.2073188615277" text-anchor="middle" font-size="9" fill="#2e7d32">db</text><rect x="1596.3923250323169" y="483.2073188615277" width="100" height="70" rx="6" fill="#e8f5e9" stroke="#2e7d32" stroke-width="1.5"/><ellipse cx="1646.3923250323169" cy="497.4073188615277" rx="9.6" ry="5" fill="none" stroke="#2e7d32" stroke-width="1.5"/><line x1="1636.792325032317" y1="497.4073188615277" x2="1636.792325032317" y2="513.0073188615277" stroke="#2e7d32" stroke-width="1.5"/><line x1="1655.9923250323168" y1="497.4073188615277" x2="1655.9923250323168" y2="513.0073188615277" stroke="#2e7d32" stroke-width="1.5"/><ellipse cx="1646.3923250323169" cy="513.0073188615277" rx="9.6" ry="5" fill="none" stroke="#2e7d32" stroke-width="1.5"/><text x="1646.3923250323169" y="545.2073188615277" text-anchor="middle" font-size="11">PaymentDB</text><text x="1646.3923250323169" y="533.2073188615277" text-anchor="middle" font-size="9" fill="#2e7d32">db</text><rect x="1720.654689504226" y="483.2073188615277" width="100" height="70" rx="6" fill="#e8f5e9" stroke="#2e7d32" stroke-width="1.5"/><ellipse cx="1770.654689504226" cy="497.4073188615277" rx="9.6" ry="5" fill="none" stroke="#2e7d32" stroke-width="1.5"/><line x1="1761.0546895042262" y1="497.4073188615277" x2="1761.0546895042262" y2="513.0073188615277" stroke="#2e7d32" stroke-width="1.5"/><line x1="1780.254689504226" y1="497.4073188615277" x2="1780.254689504226" y2="513.0073188615277" stroke="#2e7d32" stroke-width="1.5"/><ellipse cx="1770.654689504226" cy="513.0073188615277" rx="9.6" ry="5" fill="none" stroke="#2e7d32" stroke-width="1.5"/><text x="1770.654689504226" y="545.2073188615277" text-anchor="middle" font-size="11">InventoryDB</text><text x="1770.654689504226" y="533.2073188615277" text-anchor="middle" font-size="9" fill="#2e7d32">db</text><rect x="1456.1299605604077" y="846.4146377230554" width="380.52472894381833" height="122" rx="6" fill="#fafafa" stroke="#bbb" stroke-width="1.5" stroke-dasharray="6,4"/><text x="1464.1299605604077" y="866.0146377230554" font-weight="bold" font-size="13">External</text><rect x="1472.1299605604077" y="886.4146377230554" width="100" height="70" rx="6" fill="#f5f5f5" stroke="#757575" stroke-width="1.5"/><rect x="1514.1299605604077" y="902.0146377230554" width="16" height="12.8" rx="3" fill="none" stroke="#757575" stroke-width="1.5"/><text x="1522.1299605604077" y="948.4146377230554" text-anchor="middle" font-size="11">Stripe</text><text x="1522.1299605604077" y="936.4146377230554" text-anchor="middle" font-size="9" fill="#757575">generic</text><rect x="1596.3923250323169" y="886.4146377230554" width="100" height="70" rx="6" fill="#f5f5f5" stroke="#757575" stroke-width="1.5"/><rect x="1638.3923250323169" y="902.0146377230554" width="16" height="12.8" rx="3" fill="none" stroke="#757575" stroke-width="1.5"/><text x="1646.3923250323169" y="948.4146377230554" text-anchor="middle" font-size="11">SendGrid</text><text x="1646.3923250323169" y="936.4146377230554" text-anchor="middle" font-size="9" fill="#757575">generic</text><rect x="1720.654689504226" y="886.4146377230554" width="100" height="70" rx="6" fill="#f5f5f5" stroke="#757575" stroke-width="1.5"/><rect x="1762.654689504226" y="902.0146377230554" width="16" height="12.8" rx="3" fill="none" stroke="#757575" stroke-width="1.5"/><text x="1770.654689504226" y="948.4146377230554" text-anchor="middle" font-size="11">Slack</text><text x="1770.654689504226" y="936.4146377230554" text-anchor="middle" font-size="9" fill="#757575">generic</text><path d="M140,103.07871153125285 L446.0140053106316,274.9282911240629" fill="none" stroke="#666" stroke-width="1.5" marker-end="url(#arrow)"/><path d="M140,457.6780283335136 L446.0140053106316,324.729606734226" fill="none" stroke="#666" stroke-width="1.5" marker-end="url(#arrow)"/><path d="M546.0140053106315,303.0070026553158 L896.940800699565,303.0070026553158" fill="none" stroke="#666" stroke-width="1.5" marker-end="url(#arrow)"/><path d="M996.940800699565,324.189268867281 L1036.8535907778667,341.0981357612984 Q1076.7663808561683,358.0070026553158 1275.448170708288,250.08345137723347 L1474.1299605604077,142.15990009915117" fill="none" stroke="#666" stroke-width="1.5" marker-end="url(#arrow)"/><rect x="1190.8701671400213" y="250.01451890719653" width="102" height="16" rx="3" fill="white" opacity="0.9"/><text x="1241.8701671400213" y="262.01451890719653" text-anchor="middle" font-size="11" fill="#666">OrderCreated</text><path d="M1474.1299605604077,136.92797859161854 L1126.7663808561683,282.8976194820003" fill="none" stroke="#666" stroke-width="1.5" marker-end="url(#arrow)"/><rect x="1249.448170708288" y="191.91279903680942" width="102" height="16" rx="3" fill="white" opacity="0.9"/><text x="1300.448170708288" y="203.91279903680942" text-anchor="middle" font-size="11" fill="#666">OrderCreated</text><path d="M1474.1299605604077,148.1699170789794 L1126.7663808561683,378.6103397799209" fill="none" stroke="#666" stroke-width="1.5" marker-end="url(#arrow)"/><rect x="1249.448170708288" y="245.39012842945016" width="102" height="16" rx="3" fill="white" opacity="0.9"/><text x="1300.448170708288" y="257.39012842945016" text-anchor="middle" font-size="11" fill="#666">OrderCreated</text><path d="M1474.1299605604077,142.15990009915117 L1275.448170708288,250.08345137723347 Q1076.7663808561683,358.0070026553158 1076.7663808561683,357.393629757108 Q1076.7663808561683,356.78025685890026 1036.8535907778667,373.6891237529177 L996.940800699565,390.59799064693505" fill="none" stroke="#666" stroke-width="1.5" marker-end="url(#arrow)"/><rect x="1186.5757408856614" y="252.64887208754925" width="102" height="16" rx="3" fill="white" opacity="0.9"/><text x="1237.5757408856614" y="264.64887208754925" text-anchor="middle" font-size="11" fill="#666">OrderCreated</text><path d="M1054.2424615532257,338.0070026553158 L1030.5044212046969,374.893629757108 Q1006.7663808561683,411.78025685890026 1246.751439515366,649.0974472909778 L1486.7364981745636,886.4146377230554" fill="none" stroke="#666" stroke-width="1.5" marker-end="url(#arrow)"/><path d="M1126.7663808561683,282.8976194820003 L1474.1299605604077,136.92797859161854" fill="none" stroke="#666" stroke-width="1.5" marker-end="url(#arrow)"/><rect x="1233.448170708288" y="191.91279903680942" width="134" height="16" rx="3" fill="white" opacity="0.9"/><text x="1300.448170708288" y="203.91279903680942" text-anchor="middle" font-size="11" fill="#666">PaymentCompleted</text><path d="M994.9768129288336,446.78025685890026 L1598.3563128030482,886.4146377230554" fill="none" stroke="#666" stroke-width="1.5" marker-end="url(#arrow)"/><path d="M996.940800699565,442.7154145508335 L1720.654689504226,890.4794800311222" fill="none" stroke="#666" stroke-width="1.5" marker-end="url(#arrow)"/><path d="M996.940800699565,281.82473644335056 L1036.8535907778667,264.91586954933314 Q1076.7663808561683,248.00700265531577 1274.448170708288,367.93975998074427 L1472.1299605604077,487.87251730617277" fill="none" stroke="#666" stroke-width="1.5" marker-end="url(#arrow)"/><path d="M1126.7663808561683,333.3418042106707 L1324.448170708288,453.2745615360992 Q1522.1299605604077,573.2073188615277 1559.2611427963623,556.7726161125778 L1596.3923250323169,540.3379133636279" fill="none" stroke="#666" stroke-width="1.5" marker-end="url(#arrow)"/><path d="M1126.7663808561683,429.90332185108366 L1324.448170708288,501.5553203563057 Q1522.1299605604077,573.2073188615277 1584.2611427963623,518.2073188615277 Q1646.3923250323169,463.2073188615277 1683.5235072682715,479.6420216104776 L1720.654689504226,496.07672435942754" fill="none" stroke="#666" stroke-width="1.5" marker-end="url(#arrow)"/></svg>