<svg xmlns="http://www.w3.org/2000/svg" width="1761.858582847602" height="936.1505322766816" viewBox="0 0 1761.858582847602 936.1505322766816"><style>text { font-family: sans-serif; font-size: 12px; fill: #333; }</style><defs><marker id="arrow" viewBox="0 0 10 10" refX="10" refY="5" markerWidth="8" markerHeight="8" orient="auto"><polygon points="0,1 10,5 0,9" fill="#666"/></marker></defs><rect x="40" y="40" width="100" height="70" rx="6" fill="#fafafa" stroke="#616161" stroke-width="1.5"/><circle cx="90" cy="54" r="5" fill="none" stroke="#616161" stroke-width="1.5"/><line x1="90" y1="59" x2="90" y2="68" stroke="#616161" stroke-width="1.5"/><line x1="83" y1="63" x2="97" y2="63" stroke="#616161" stroke-width="1.5"/><text x="90" y="102" text-anchor="middle" font-size="11">MobileApp</text><text x="90" y="90" text-anchor="middle" font-size="9" fill="#616161">user</text><rect x="40" y="406.09055617809713" width="100" height="70" rx="6" fill="#fafafa" stroke="#616161" stroke-width="1.5"/><circle cx="90" cy="420.09055617809713" r="5" fill="none" stroke="#616161" stroke-width="1.5"/><line x1="90" y1="425.09055617809713" x2="90" y2="434.09055617809713" stroke="#616161" stroke-width="1.5"/><line x1="83" y1="429.09055617809713" x2="97" y2="429.09055617809713" stroke="#616161" stroke-width="1.5"/><text x="90" y="468.09055617809713" text-anchor="middle" font-size="11">WebApp</text><text x="90" y="456.09055617809713" text-anchor="middle" font-size="9" fill="#616161">user</text><rect x="386.0599760985844" y="211.02998804929223" width="152" height="122" rx="6" fill="#fafafa" stroke="#bbb" stroke-width="1.5" stroke-dasharray="6,4"/><text x="394.0599760985844" y="230.62998804929222" font-weight="bold" font-size="13">API Gateway</text><rect x="412.0599760985844" y="251.02998804929223" width="100" height="70" rx="6" fill="#fff3e0" stroke="#e65100" stroke-width="1.5"/><circle cx="462.0599760985844" cy="273.02998804929223" r="8" fill="none" stroke="#e65100" stroke-width="1.5"/><line x1="454.0599760985844" y1="273.02998804929223" x2="447.6599760985844" y2="267.02998804929223" stroke="#e65100" stroke-width="1.5"/><line x1="454.0599760985844" y1="273.02998804929223" x2="447.6599760985844" y2="279.02998804929223" stroke="#e65100" stroke-width="1.5"/><text x="462.0599760985844" y="313.02998804929223" text-anchor="middle" font-size="11">Gateway</text><text x="462.0599760985844" y="301.02998804929223" text-anchor="middle" font-size="9" fill="#e65100">lb</text><rect x="1346.7734576791613" y="40" width="136" height="122" rx="6" fill="#fafafa" stroke="#bbb" stroke-width="1.5" stroke-dasharray="6,4"/><text x="1354.7734576791613" y="59.599999999999994" font-weight="bold" font-size="13">Event Bus</text><rect x="1364.7734576791613" y="80" width="100" height="70" rx="6" fill="#f3e5f5" stroke="#6a1b9a" stroke-width="1.5"/><line x1="1406.7734576791613" y1="102" x2="1419.5734576791613" y2="102" stroke="#6a1b9a" stroke-width="2"/><polyline points="1416.3734576791612,97 1422.7734576791613,102 1416.3734576791612,107" fill="none" stroke="#6a1b9a" stroke-width="2"/><text x="1414.7734576791613" y="142" text-anchor="middle" font-size="11">Kafka</text><text x="1414.7734576791613" y="130" text-anchor="middle" font-size="9" fill="#6a1b9a">queue</text><rect x="810.6454355967627" y="211.02998804929223" width="257.0509667991878" height="222.06116015902538" rx="6" fill="#fafafa" stroke="#bbb" stroke-width="1.5" stroke-dasharray="6,4"/><text x="818.6454355967627" y="230.62998804929222" font-weight="bold" font-size="13">Services</text><rect x="826.6454355967627" y="251.02998804929223" width="100" height="70" rx="6" fill="#e3f2fd" stroke="#1565c0" stroke-width="1.5"/><rect x="867.0454355967627" y="259.02998804929223" width="19.2" height="8" rx="1" fill="none" stroke="#1565c0" stroke-width="1.5"/><rect x="867.0454355967627" y="269.02998804929223" width="19.2" height="8" rx="1" fill="none" stroke="#1565c0" stroke-width="1.5"/><rect x="867.0454355967627" y="279.02998804929223" width="19.2" height="8" rx="1" fill="none" stroke="#1565c0" stroke-width="1.5"/><text x="876.6454355967627" y="313.02998804929223" text-anchor="middle" font-size="11">OrderService</text><text x="876.6454355967627" y="301.02998804929223" text-anchor="middle" font-size="9" fill="#1565c0">server</text><rect x="951.6964023959505" y="251.02998804929223" width="100" height="70" rx="6" fill="#e3f2fd" stroke="#1565c0" stroke-width="1.5"/><rect x="992.0964023959505" y="259.02998804929223" width="19.2" height="8" rx="1" fill="none" stroke="#1565c0" stroke-width="1.5"/><rect x="992.0964023959505" y="269.02998804929223" width="19.2" height="8" rx="1" fill="none" stroke="#1565c0" stroke-width="1.5"/><rect x="992.0964023959505" y="279.02998804929223" width="19.2" height="8" rx="1" fill="none" stroke="#1565c0" stroke-width="1.5"/><text x="1001.6964023959505" y="313.02998804929223" text-anchor="middle" font-size="11">PaymentService</text><text x="1001.6964023959505" y="301.02998804929223" text-anchor="middle" font-size="9" fill="#1565c0">server</text><rect x="826.6454355967627" y="351.0911482083176" width="100" height="70" rx="6" fill="#e3f2fd" stroke="#1565c0" stroke-width="1.5"/><rect x="867.0454355967627" y="359.0911482083176" width="19.2" height="8" rx="1" fill="none" stroke="#1565c0" stroke-width="1.5"/><rect x="867.0454355967627" y="369.0911482083176" width="19.2" height="8" rx="1" fill="none" stroke="#1565c0" stroke-width="1.5"/><rect x="867.0454355967627" y="379.0911482083176" width="19.2" height="8" rx="1" fill="none" stroke="#1565c0" stroke-width="1.5"/><text x="876.6454355967627" y="413.0911482083176" text-anchor="middle" font-size="11">NotifyService</text><text x="876.6454355967627" y="401.0911482083176" text-anchor="middle" font-size="9" fill="#1565c0">server</text><rect x="951.6964023959505" y="351.0911482083176" width="100" height="70" rx="6" fill="#e3f2fd" stroke="#1565c0" stroke-width="1.5"/><rect x="992.0964023959505" y="359.0911482083176" width="19.2" height="8" rx="1" fill="none" stroke="#1565c0" stroke-width="1.5"/><rect x="992.0964023959505" y="369.0911482083176" width="19.2" height="8" rx="1" fill="none" stroke="#1565c0" stroke-width="1.5"/><rect x="992.0964023959505" y="379.0911482083176" width="19.2" height="8" rx="1" fill="none" stroke="#1565c0" stroke-width="1.5"/><text x="1001.6964023959505" y="413.0911482083176" text-anchor="middle" font-size="11">InventoryService</text><text x="1001.6964023959505" y="401.0911482083176" text-anchor="middle" font-size="9" fill="#1565c0">server</text><rect x="1346.7734576791613" y="407.0752661383408" width="375.0851251684408" height="122" rx="6" fill="#fafafa" stroke="#bbb" stroke-width="1.5" stroke-dasharray="6,4"/><text x="1354.7734576791613" y="426.6752661383408" font-weight="bold" font-size="13">Databases</text><rect x="1362.7734576791613" y="447.0752661383408" width="100" height="70" rx="6" fill="#e8f5e9" stroke="#2e7d32" stroke-width="1.5"/><ellipse cx="1412.7734576791613" cy="461.2752661383408" rx="9.6" ry="5" fill="none" stroke="#2e7d32" stroke-width="1.5"/><line x1="1403.1734576791614" y1="461.2752661383408" x2="1403.1734576791614" y2="476.8752661383408" stroke="#2e7d32" stroke-width="1.5"/><line x1="1422.3734576791612" y1="461.2752661383408" x2="1422.3734576791612" y2="476.8752661383408" stroke="#2e7d32" stroke-width="1.5"/><ellipse cx="1412.7734576791613" cy="476.8752661383408" rx="9.6" ry="5" fill="none" stroke="#2e7d32" stroke-width="1.5"/><text x="1412.7734576791613" y="509.0752661383408" text-anchor="middle" font-size="11">OrderDB</text><text x="1412.7734576791613" y="497.0752661383408" text-anchor="middle" font-size="9" fill="#2e7d32">db</text><rect x="1484.3160202633817" y="447.0752661383408" width="100" height="70" rx="6" fill="#e8f5e9" stroke="#2e7d32" stroke-width="1.5"/><ellipse cx="1534.3160202633817" cy="461.2752661383408" rx="9.6" ry="5" fill="none" stroke="#2e7d32" stroke-width="1.5"/><line x1="1524.7160202633818" y1="461.2752661383408" x2="1524.7160202633818" y2="476.8752661383408" stroke="#2e7d32" stroke-width="1.5"/><line x1="1543.9160202633816" y1="461.2752661383408" x2="1543.9160202633816" y2="476.8752661383408" stroke="#2e7d32" stroke-width="1.5"/><ellipse cx="1534.3160202633817" cy="476.8752661383408" rx="9.6" ry="5" fill="none" stroke="#2e7d32" stroke-width="1.5"/><text x="1534.3160202633817" y="509.0752661383408" text-anchor="middle" font-size="11">PaymentDB</text><text x="1534.3160202633817" y="497.0752661383408" text-anchor="middle" font-size="9" fill="#2e7d32">db</text><rect x="1605.858582847602" y="447.0752661383408" width="100" height="70" rx="6" fill="#e8f5e9" stroke="#2e7d32" stroke-width="1.5"/><ellipse cx="1655.858582847602" cy="461.2752661383408" rx="9.6" ry="5" fill="none" stroke="#2e7d32" stroke-width="1.5"/><line x1="1646.2585828476022" y1="461.2752661383408" x2="1646.2585828476022" y2="476.8752661383408" stroke="#2e7d32" stroke-width="1.5"/><line x1="1665.458582847602" y1="461.2752661383408" x2="1665.458582847602" y2="476.8752661383408" stroke="#2e7d32" stroke-width="1.5"/><ellipse cx="1655.858582847602" cy="476.8752661383408" rx="9.6" ry="5" fill="none" stroke="#2e7d32" stroke-width="1.5"/><text x="1655.858582847602" y="509.0752661383408" text-anchor="middle" font-size="11">InventoryDB</text><text x="1655.858582847602" y="497.0752661383408" text-anchor="middle" font-size="9" fill="#2e7d32">db</text><rect x="1346.7734576791613" y="774.1505322766816" width="375.0851251684408" height="122" rx="6" fill="#fafafa" stroke="#bbb" stroke-width="1.5" stroke-dasharray="6,4"/><text x="1354.7734576791613" y="793.7505322766816" font-weight="bold" font-size="13">External</text><rect x="1362.7734576791613" y="814.1505322766816" width="100" height="70" rx="6" fill="#f5f5f5" stroke="#757575" stroke-width="1.5"/><rect x="1404.7734576791613" y="829.7505322766816" width="16" height="12.8" rx="3" fill="none" stroke="#757575" stroke-width="1.5"/><text x="1412.7734576791613" y="876.1505322766816" text-anchor="middle" font-size="11">Stripe</text><text x="1412.7734576791613" y="864.1505322766816" text-anchor="middle" font-size="9" fill="#757575">generic</text><rect x="1484.3160202633817" y="814.1505322766816" width="100" height="70" rx="6" fill="#f5f5f5" stroke="#757575" stroke-width="1.5"/><rect x="1526.3160202633817" y="829.7505322766816" width="16" height="12.8" rx="3" fill="none" stroke="#757575" stroke-width="1.5"/><text x="1534.3160202633817" y="876.1505322766816" text-anchor="middle" font-size="11">SendGrid</text><text x="1534.3160202633817" y="864.1505322766816" text-anchor="middle" font-size="9" fill="#757575">generic</text><rect x="1605.858582847602" y="814.1505322766816" width="100" height="70" rx="6" fill="#f5f5f5" stroke="#757575" stroke-width="1.5"/><rect x="1647.858582847602" y="829.7505322766816" width="16" height="12.8" rx="3" fill="none" stroke="#757575" stroke-width="1.5"/><text x="1655.858582847602" y="876.1505322766816" text-anchor="middle" font-size="11">Slack</text><text x="1655.858582847602" y="864.1505322766816" text-anchor="middle" font-size="9" fill="#757575">generic</text><path d="M140,103.3596733868219 L412.0599760985844,257.67031466247033" fill="none" stroke="#666" stroke-width="1.5" marker-end="url(#arrow)"/><path d="M140,420.25244161458403 L412.0599760985844,306.86810261280533" fill="none" stroke="#666" stroke-width="1.5" marker-end="url(#arrow)"/><path d="M512.0599760985845,286.02998804929223 L826.6454355967627,286.02998804929223" fill="none" stroke="#666" stroke-width="1.5" marker-end="url(#arrow)"/><path d="M926.6454355967627,308.0210215485859 L964.1709189963566,324.5255047989391 Q1001.6964023959505,341.02998804929223 1183.2349300375558,241.69464441664883 L1364.7734576791613,142.35930078400546" fill="none" stroke="#666" stroke-width="1.5" marker-end="url(#arrow)"/><rect x="1100.6432303864365" y="240.67120203283235" width="102" height="16" rx="3" fill="white" opacity="0.9"/><text x="1151.6432303864365" y="252.67120203283235" text-anchor="middle" font-size="11" fill="#666">OrderCreated</text><path d="M1364.7734576791613,136.6913771293522 L1051.6964023959504,266.3038210268469" fill="none" stroke="#666" stroke-width="1.5" marker-end="url(#arrow)"/><rect x="1157.2349300375558" y="183.49759907809954" width="102" height="16" rx="3" fill="white" opacity="0.9"/><text x="1208.2349300375558" y="195.49759907809954" text-anchor="middle" font-size="11" fill="#666">OrderCreated</text><path d="M1364.7734576791613,147.8136294114005 L1051.6964023959504,353.2775187969171" fill="none" stroke="#666" stroke-width="1.5" marker-end="url(#arrow)"/><rect x="1157.2349300375558" y="232.5455741041588" width="102" height="16" rx="3" fill="white" opacity="0.9"/><text x="1208.2349300375558" y="244.5455741041588" text-anchor="middle" font-size="11" fill="#666">OrderCreated</text><path d="M1364.7734576791613,142.35930078400546 L1183.2349300375558,241.69464441664883 Q1001.6964023959505,341.02998804929223 1001.6964023959505,336.0605681288049 Q1001.6964023959505,331.0911482083176 964.1709189963566,347.5956314586707 L926.6454355967627,364.1001147090239" fill="none" stroke="#666" stroke-width="1.5" marker-end="url(#arrow)"/><rect x="1097.3927063247138" y="242.7039961580108" width="102" height="16" rx="3" fill="white" opacity="0.9"/><text x="1148.3927063247138" y="254.7039961580108" text-anchor="middle" font-size="11" fill="#666">OrderCreated</text><path d="M977.2113774761289,321.02998804929223 L954.4538899360397,353.5605681288049 Q931.6964023959505,386.0911482083176 1154.0540038818444,600.1208402424995 L1376.4116053677383,814.1505322766816" fill="none" stroke="#666" stroke-width="1.5" marker-end="url(#arrow)"/><path d="M1051.6964023959504,266.3038210268469 L1364.7734576791613,136.6913771293522" fill="none" stroke="#666" stroke-width="1.5" marker-end="url(#arrow)"/><rect x="1141.2349300375558" y="183.49759907809954" width="134" height="16" rx="3" fill="white" opacity="0.9"/><text x="1208.2349300375558" y="195.49759907809954" text-anchor="middle" font-size="11" fill="#666">PaymentCompleted</text><path d="M926.3549788114907,421.0911482083176 L1484.6064770486537,814.1505322766816" fill="none" stroke="#666" stroke-width="1.5" marker-end="url(#arrow)"/><path d="M926.6454355967627,415.80441637519175 L1605.858582847602,819.4372641098074" fill="none" stroke="#666" stroke-width="1.5" marker-end="url(#arrow)"/><path d="M926.6454355967627,264.03895454999855 L964.1709189963566,247.5344712996454 Q1001.6964023959505,231.02998804929223 1182.2349300375558,341.28509544357087 L1362.7734576791613,451.54020283784945" fill="none" stroke="#666" stroke-width="1.5" marker-end="url(#arrow)"/><path d="M1051.6964023959504,316.5650513497836 L1232.2349300375558,426.82015874406216 Q1412.7734576791613,537.0752661383408 1448.5447389712715,520.8881755485503 L1484.3160202633817,504.70108495875974" fill="none" stroke="#666" stroke-width="1.5" marker-end="url(#arrow)"/><path d="M1051.6964023959504,404.45560275395053 L1232.2349300375558,470.76543444614566 Q1412.7734576791613,537.0752661383408 1473.5447389712715,482.0752661383408 Q1534.3160202633817,427.0752661383408 1570.0873015554919,443.2623567281313 L1605.858582847602,459.44944731792185" fill="none" stroke="#666" stroke-width="1.5" marker-end="url(#arrow)"/></svg>