<svg xmlns="http://www.w3.org/2000/svg" width="1935.5169487622052" height="1044.5835640605949" viewBox="0 0 1935.5169487622052 1044.5835640605949"><rect width="100%" height="100%" fill="white"/><style>text { font-family: sans-serif; font-size: 12px; fill: #333; }</style><defs><marker id="arrow" viewBox="0 0 10 10" refX="10" refY="5" markerWidth="8" markerHeight="8" orient="auto"><polygon points="0,1 10,5 0,9" fill="#666"/></marker></defs><rect x="40" y="40" width="100" height="70" rx="6" fill="#fafafa" stroke="#616161" stroke-width="1.5"/><circle cx="90" cy="54" r="5" fill="none" stroke="#616161" stroke-width="1.5"/><line x1="90" y1="59" x2="90" y2="68" stroke="#616161" stroke-width="1.5"/><line x1="83" y1="63" x2="97" y2="63" stroke="#616161" stroke-width="1.5"/><text x="90" y="102" text-anchor="middle" font-size="11">MobileApp</text><text x="90" y="90" text-anchor="middle" font-size="9" fill="#616161">user</text><rect x="40" y="463.3623189370384" width="100" height="70" rx="6" fill="#fafafa" stroke="#616161" stroke-width="1.5"/><circle cx="90" cy="477.3623189370384" r="5" fill="none" stroke="#616161" stroke-width="1.5"/><line x1="90" y1="482.3623189370384" x2="90" y2="491.3623189370384" stroke="#616161" stroke-width="1.5"/><line x1="83" y1="486.3623189370384" x2="97" y2="486.3623189370384" stroke="#616161" stroke-width="1.5"/><text x="90" y="525.3623189370385" text-anchor="middle" font-size="11">WebApp</text><text x="90" y="513.3623189370385" text-anchor="middle" font-size="9" fill="#616161">user</text><rect x="437.2212451235565" y="236.61062256177823" width="152" height="122" rx="6" fill="#fafafa" stroke="#bbb" stroke-width="1.5" stroke-dasharray="6,4"/><text x="445.2212451235565" y="256.2106225617782" font-weight="bold" font-size="13">API Gateway</text><rect x="463.2212451235565" y="276.6106225617782" width="100" height="70" rx="6" fill="#fff3e0" stroke="#e65100" stroke-width="1.5"/><circle cx="513.2212451235565" cy="298.6106225617782" r="8" fill="none" stroke="#e65100" stroke-width="1.5"/><line x1="505.2212451235565" y1="298.6106225617782" x2="498.82124512355654" y2="292.6106225617782" stroke="#e65100" stroke-width="1.5"/><line x1="505.2212451235565" y1="298.6106225617782" x2="498.82124512355654" y2="304.6106225617782" stroke="#e65100" stroke-width="1.5"/><text x="513.2212451235565" y="338.6106225617782" text-anchor="middle" font-size="11">Gateway</text><text x="513.2212451235565" y="326.6106225617782" text-anchor="middle" font-size="9" fill="#e65100">lb</text><rect x="1511.9646257970603" y="40" width="136" height="122" rx="6" fill="#fafafa" stroke="#bbb" stroke-width="1.5" stroke-dasharray="6,4"/><text x="1519.9646257970603" y="59.599999999999994" font-weight="bold" font-size="13">Event Bus</text><rect x="1529.9646257970603" y="80" width="100" height="70" rx="6" fill="#f3e5f5" stroke="#6a1b9a" stroke-width="1.5"/><line x1="1571.9646257970603" y1="102" x2="1584.7646257970603" y2="102" stroke="#6a1b9a" stroke-width="2"/><polyline points="1581.5646257970602,97 1587.9646257970603,102 1581.5646257970602,107" fill="none" stroke="#6a1b9a" stroke-width="2"/><text x="1579.9646257970603" y="142" text-anchor="middle" font-size="11">Kafka</text><text x="1579.9646257970603" y="130" text-anchor="middle" font-size="9" fill="#6a1b9a">queue</text><rect x="916.7048547190223" y="236.61062256177823" width="264.52472894381833" height="234.28214762696382" rx="6" fill="#fafafa" stroke="#bbb" stroke-width="1.5" stroke-dasharray="6,4"/><text x="924.7048547190223" y="256.2106225617782" font-weight="bold" font-size="13">Services</text><rect x="932.7048547190223" y="276.6106225617782" width="100" height="70" rx="6" fill="#e3f2fd" stroke="#1565c0" stroke-width="1.5"/><rect x="973.1048547190222" y="284.6106225617782" width="19.2" height="8" rx="1" fill="none" stroke="#1565c0" stroke-width="1.5"/><rect x="973.1048547190222" y="294.6106225617782" width="19.2" height="8" rx="1" fill="none" stroke="#1565c0" stroke-width="1.5"/><rect x="973.1048547190222" y="304.6106225617782" width="19.2" height="8" rx="1" fill="none" stroke="#1565c0" stroke-width="1.5"/><text x="982.7048547190223" y="338.6106225617782" text-anchor="middle" font-size="11">OrderService</text><text x="982.7048547190223" y="326.6106225617782" text-anchor="middle" font-size="9" fill="#1565c0">server</text><rect x="1065.2295836628405" y="276.6106225617782" width="100" height="70" rx="6" fill="#e3f2fd" stroke="#1565c0" stroke-width="1.5"/><rect x="1105.6295836628406" y="284.6106225617782" width="19.2" height="8" rx="1" fill="none" stroke="#1565c0" stroke-width="1.5"/><rect x="1105.6295836628406" y="294.6106225617782" width="19.2" height="8" rx="1" fill="none" stroke="#1565c0" stroke-width="1.5"/><rect x="1105.6295836628406" y="304.6106225617782" width="19.2" height="8" rx="1" fill="none" stroke="#1565c0" stroke-width="1.5"/><text x="1115.2295836628405" y="338.6106225617782" text-anchor="middle" font-size="11">PaymentService</text><text x="1115.2295836628405" y="326.6106225617782" text-anchor="middle" font-size="9" fill="#1565c0">server</text><rect x="932.7048547190223" y="388.892770188742" width="100" height="70" rx="6" fill="#e3f2fd" stroke="#1565c0" stroke-width="1.5"/><rect x="973.1048547190222" y="396.892770188742" width="19.2" height="8" rx="1" fill="none" stroke="#1565c0" stroke-width="1.5"/><rect x="973.1048547190222" y="406.892770188742" width="19.2" height="8" rx="1" fill="none" stroke="#1565c0" stroke-width="1.5"/><rect x="973.1048547190222" y="416.892770188742" width="19.2" height="8" rx="1" fill="none" stroke="#1565c0" stroke-width="1.5"/><text x="982.7048547190223" y="450.892770188742" text-anchor="middle" font-size="11">NotifyService</text><text x="982.7048547190223" y="438.892770188742" text-anchor="middle" font-size="9" fill="#1565c0">server</text><rect x="1065.2295836628405" y="388.892770188742" width="100" height="70" rx="6" fill="#e3f2fd" stroke="#1565c0" stroke-width="1.5"/><rect x="1105.6295836628406" y="396.892770188742" width="19.2" height="8" rx="1" fill="none" stroke="#1565c0" stroke-width="1.5"/><rect x="1105.6295836628406" y="406.892770188742" width="19.2" height="8" rx="1" fill="none" stroke="#1565c0" stroke-width="1.5"/><rect x="1105.6295836628406" y="416.892770188742" width="19.2" height="8" rx="1" fill="none" stroke="#1565c0" stroke-width="1.5"/><text x="1115.2295836628405" y="450.892770188742" text-anchor="middle" font-size="11">InventoryService</text><text x="1115.2295836628405" y="438.892770188742" text-anchor="middle" font-size="9" fill="#1565c0">server</text><rect x="1511.9646257970603" y="461.29178203029744" width="383.5523229651449" height="122" rx="6" fill="#fafafa" stroke="#bbb" stroke-width="1.5" stroke-dasharray="6,4"/><text x="1519.9646257970603" y="480.89178203029746" font-weight="bold" font-size="13">Databases</text><rect x="1527.9646257970603" y="501.29178203029744" width="100" height="70" rx="6" fill="#e8f5e9" stroke="#2e7d32" stroke-width="1.5"/><ellipse cx="1577.9646257970603" cy="515.4917820302974" rx="9.6" ry="5" fill="none" stroke="#2e7d32" stroke-width="1.5"/><line x1="1568.3646257970604" y1="515.4917820302974" x2="1568.3646257970604" y2="531.0917820302974" stroke="#2e7d32" stroke-width="1.5"/><line x1="1587.5646257970602" y1="515.4917820302974" x2="1587.5646257970602" y2="531.0917820302974" stroke="#2e7d32" stroke-width="1.5"/><ellipse cx="1577.9646257970603" cy="531.0917820302974" rx="9.6" ry="5" fill="none" stroke="#2e7d32" stroke-width="1.5"/><text x="1577.9646257970603" y="563.2917820302974" text-anchor="middle" font-size="11">OrderDB</text><text x="1577.9646257970603" y="551.2917820302974" text-anchor="middle" font-size="9" fill="#2e7d32">db</text><rect x="1653.7407872796327" y="501.29178203029744" width="100" height="70" rx="6" fill="#e8f5e9" stroke="#2e7d32" stroke-width="1.5"/><ellipse cx="1703.7407872796327" cy="515.4917820302974" rx="9.6" ry="5" fill="none" stroke="#2e7d32" stroke-width="1.5"/><line x1="1694.1407872796328" y1="515.4917820302974" x2="1694.1407872796328" y2="531.0917820302974" stroke="#2e7d32" stroke-width="1.5"/><line x1="1713.3407872796327" y1="515.4917820302974" x2="1713.3407872796327" y2="531.0917820302974" stroke="#2e7d32" stroke-width="1.5"/><ellipse cx="1703.7407872796327" cy="531.0917820302974" rx="9.6" ry="5" fill="none" stroke="#2e7d32" stroke-width="1.5"/><text x="1703.7407872796327" y="563.2917820302974" text-anchor="middle" font-size="11">PaymentDB</text><text x="1703.7407872796327" y="551.2917820302974" text-anchor="middle" font-size="9" fill="#2e7d32">db</text><rect x="1779.5169487622052" y="501.29178203029744" width="100" height="70" rx="6" fill="#e8f5e9" stroke="#2e7d32" stroke-width="1.5"/><ellipse cx="1829.5169487622052" cy="515.4917820302974" rx="9.6" ry="5" fill="none" stroke="#2e7d32" stroke-width="1.5"/><line x1="1819.9169487622053" y1="515.4917820302974" x2="1819.9169487622053" y2="531.0917820302974" stroke="#2e7d32" stroke-width="1.5"/><line x1="1839.116948762205" y1="515.4917820302974" x2="1839.116948762205" y2="531.0917820302974" stroke="#2e7d32" stroke-width="1.5"/><ellipse cx="1829.5169487622052" cy="531.0917820302974" rx="9.6" ry="5" fill="none" stroke="#2e7d32" stroke-width="1.5"/><text x="1829.5169487622052" y="563.2917820302974" text-anchor="middle" font-size="11">InventoryDB</text><text x="1829.5169487622052" y="551.2917820302974" text-anchor="middle" font-size="9" fill="#2e7d32">db</text><rect x="1511.9646257970603" y="882.5835640605949" width="383.5523229651449" height="122" rx="6" fill="#fafafa" stroke="#bbb" stroke-width="1.5" stroke-dasharray="6,4"/><text x="1519.9646257970603" y="902.1835640605949" font-weight="bold" font-size="13">External</text><rect x="1527.9646257970603" y="922.5835640605949" width="100" height="70" rx="6" fill="#f5f5f5" stroke="#757575" stroke-width="1.5"/><rect x="1569.9646257970603" y="938.1835640605949" width="16" height="12.8" rx="3" fill="none" stroke="#757575" stroke-width="1.5"/><text x="1577.9646257970603" y="984.5835640605949" text-anchor="middle" font-size="11">Stripe</text><text x="1577.9646257970603" y="972.5835640605949" text-anchor="middle" font-size="9" fill="#757575">generic</text><rect x="1653.7407872796327" y="922.5835640605949" width="100" height="70" rx="6" fill="#f5f5f5" stroke="#757575" stroke-width="1.5"/><rect x="1695.7407872796327" y="938.1835640605949" width="16" height="12.8" rx="3" fill="none" stroke="#757575" stroke-width="1.5"/><text x="1703.7407872796327" y="984.5835640605949" text-anchor="middle" font-size="11">SendGrid</text><text x="1703.7407872796327" y="972.5835640605949" text-anchor="middle" font-size="9" fill="#757575">generic</text><rect x="1779.5169487622052" y="922.5835640605949" width="100" height="70" rx="6" fill="#f5f5f5" stroke="#757575" stroke-width="1.5"/><rect x="1821.5169487622052" y="938.1835640605949" width="16" height="12.8" rx="3" fill="none" stroke="#757575" stroke-width="1.5"/><text x="1829.5169487622052" y="984.5835640605949" text-anchor="middle" font-size="11">Slack</text><text x="1829.5169487622052" y="972.5835640605949" text-anchor="middle" font-size="9" fill="#757575">generic</text><path d="M140,102.95353792939923 L463.2212451235565,283.65708463237894" fill="none" stroke="#666" stroke-width="1.5" marker-end="url(#arrow)"/><path d="M140,476.2991901920791 L463.2212451235565,333.67375130673753" fill="none" stroke="#666" stroke-width="1.5" marker-end="url(#arrow)"/><path d="M563.2212451235565,311.6106225617782 L932.7048547190223,311.6106225617782" fill="none" stroke="#666" stroke-width="1.5" marker-end="url(#arrow)"/><path d="M1032.7048547190223,332.3614667394397 L1073.9672191909312,349.48604465060896 Q1115.2295836628405,366.6106225617782 1322.5971047299504,254.34047646911642 L1529.9646257970603,142.07033037645468" fill="none" stroke="#666" stroke-width="1.5" marker-end="url(#arrow)"/><rect x="1236.8931077802154" y="254.81890466733472" width="102" height="16" rx="3" fill="white" opacity="0.9"/><text x="1287.8931077802154" y="266.8189046673347" text-anchor="middle" font-size="11" fill="#666">OrderCreated</text><path d="M1529.9646257970603,137.0346751570263 L1165.2295836628405,291.3283186880633" fill="none" stroke="#666" stroke-width="1.5" marker-end="url(#arrow)"/><rect x="1296.5971047299504" y="196.1814969225448" width="102" height="16" rx="3" fill="white" opacity="0.9"/><text x="1347.5971047299504" y="208.1814969225448" text-anchor="middle" font-size="11" fill="#666">OrderCreated</text><path d="M1529.9646257970603,148.2332127108602 L1165.2295836628405,390.65955747788183" fill="none" stroke="#666" stroke-width="1.5" marker-end="url(#arrow)"/><rect x="1296.5971047299504" y="251.446385094371" width="102" height="16" rx="3" fill="white" opacity="0.9"/><text x="1347.5971047299504" y="263.446385094371" text-anchor="middle" font-size="11" fill="#666">OrderCreated</text><path d="M1529.9646257970603,142.07033037645468 L1322.5971047299504,254.34047646911642 Q1115.2295836628405,366.6106225617782 1073.9672191909312,384.4457607428153 L1032.7048547190223,402.2808989238524" fill="none" stroke="#666" stroke-width="1.5" marker-end="url(#arrow)"/><rect x="1232.0962661523827" y="257.6813202750796" width="102" height="16" rx="3" fill="white" opacity="0.9"/><text x="1283.0962661523827" y="269.6813202750796" text-anchor="middle" font-size="11" fill="#666">OrderCreated</text><path d="M1093.4095521459901,346.6106225617782 L1069.3195679044152,385.2516963752601 Q1045.2295836628405,423.892770188742 1294.1284443288355,673.2381671246685 L1543.0273049948303,922.5835640605949" fill="none" stroke="#666" stroke-width="1.5" marker-end="url(#arrow)"/><path d="M1165.2295836628405,291.3283186880633 L1529.9646257970603,137.0346751570263" fill="none" stroke="#666" stroke-width="1.5" marker-end="url(#arrow)"/><rect x="1280.5971047299504" y="196.1814969225448" width="134" height="16" rx="3" fill="white" opacity="0.9"/><text x="1347.5971047299504" y="208.1814969225448" text-anchor="middle" font-size="11" fill="#666">PaymentCompleted</text><path d="M1029.9911447007846,458.892770188742 L1656.4544972978704,922.5835640605949" fill="none" stroke="#666" stroke-width="1.5" marker-end="url(#arrow)"/><path d="M1032.7048547190223,455.40453044972844 L1779.5169487622052,926.0718037996085" fill="none" stroke="#666" stroke-width="1.5" marker-end="url(#arrow)"/><path d="M1032.7048547190223,290.8597783841167 L1073.9672191909312,273.73520047294744 Q1115.2295836628405,256.6106225617782 1321.5971047299504,381.3409807868466 L1527.9646257970603,506.07133901191503" fill="none" stroke="#666" stroke-width="1.5" marker-end="url(#arrow)"/><path d="M1165.2295836628405,341.8310655801606 L1371.5971047299504,466.561423805229 Q1577.9646257970603,591.2917820302974 1615.8527065383464,574.7239013110287 L1653.7407872796327,558.15602059176" fill="none" stroke="#666" stroke-width="1.5" marker-end="url(#arrow)"/><path d="M1165.2295836628405,441.9807683517383 L1371.5971047299504,516.6362751910178 Q1577.9646257970603,591.2917820302974 1640.8527065383464,536.2917820302974 Q1703.7407872796327,481.29178203029744 1741.628868020919,497.85966274956616 L1779.5169487622052,514.4275434688349" fill="none" stroke="#666" stroke-width="1.5" marker-end="url(#arrow)"/></svg>