<svg xmlns="http://www.w3.org/2000/svg" width="1664.2957036386488" height="863.7694006448905" viewBox="0 0 1664.2957036386488 863.7694006448905"><rect width="100%" height="100%" fill="white"/><style>text { font-family: sans-serif; font-size: 12px; fill: #333; }</style><defs><marker id="arrow" viewBox="0 0 10 10" refX="10" refY="5" markerWidth="8" markerHeight="8" orient="auto"><polygon points="0,1 10,5 0,9" fill="#666"/></marker></defs><rect x="40" y="40" width="100" height="70" rx="6" fill="#fafafa" stroke="#616161" stroke-width="1.5"/><circle cx="90" cy="54" r="5" fill="none" stroke="#616161" stroke-width="1.5"/><line x1="90" y1="59" x2="90" y2="68" stroke="#616161" stroke-width="1.5"/><line x1="83" y1="63" x2="97" y2="63" stroke="#616161" stroke-width="1.5"/><text x="90" y="102" text-anchor="middle" font-size="11">MobileApp</text><text x="90" y="90" text-anchor="middle" font-size="9" fill="#616161">user</text><rect x="40" y="372.95523722918625" width="100" height="70" rx="6" fill="#fafafa" stroke="#616161" stroke-width="1.5"/><circle cx="90" cy="386.95523722918625" r="5" fill="none" stroke="#616161" stroke-width="1.5"/><line x1="90" y1="391.95523722918625" x2="90" y2="400.95523722918625" stroke="#616161" stroke-width="1.5"/><line x1="83" y1="395.95523722918625" x2="97" y2="395.95523722918625" stroke="#616161" stroke-width="1.5"/><text x="90" y="434.95523722918625" text-anchor="middle" font-size="11">WebApp</text><text x="90" y="422.95523722918625" text-anchor="middle" font-size="9" fill="#616161">user</text><rect x="346.81416341570434" y="191.40708170785214" width="152" height="122" rx="6" fill="#fafafa" stroke="#bbb" stroke-width="1.5" stroke-dasharray="6,4"/><text x="354.81416341570434" y="211.00708170785214" font-weight="bold" font-size="13">API Gateway</text><rect x="372.81416341570434" y="231.40708170785214" width="100" height="70" rx="6" fill="#fff3e0" stroke="#e65100" stroke-width="1.5"/><circle cx="422.81416341570434" cy="253.40708170785214" r="8" fill="none" stroke="#e65100" stroke-width="1.5"/><line x1="414.81416341570434" y1="253.40708170785214" x2="408.41416341570437" y2="247.40708170785214" stroke="#e65100" stroke-width="1.5"/><line x1="414.81416341570434" y1="253.40708170785214" x2="408.41416341570437" y2="259.40708170785217" stroke="#e65100" stroke-width="1.5"/><text x="422.81416341570434" y="293.40708170785217" text-anchor="middle" font-size="11">Gateway</text><text x="422.81416341570434" y="281.40708170785217" text-anchor="middle" font-size="9" fill="#e65100">lb</text><rect x="1240.743380673504" y="40" width="136" height="122" rx="6" fill="#fafafa" stroke="#bbb" stroke-width="1.5" stroke-dasharray="6,4"/><text x="1248.743380673504" y="59.599999999999994" font-weight="bold" font-size="13">Event Bus</text><rect x="1258.743380673504" y="80" width="100" height="70" rx="6" fill="#f3e5f5" stroke="#6a1b9a" stroke-width="1.5"/><line x1="1300.743380673504" y1="102" x2="1313.5433806735039" y2="102" stroke="#6a1b9a" stroke-width="2"/><polyline points="1310.3433806735038,97 1316.743380673504,102 1310.3433806735038,107" fill="none" stroke="#6a1b9a" stroke-width="2"/><text x="1308.743380673504" y="142" text-anchor="middle" font-size="11">Kafka</text><text x="1308.743380673504" y="130" text-anchor="middle" font-size="9" fill="#6a1b9a">queue</text><rect x="735.8906913033179" y="191.40708170785214" width="264.52472894381833" height="234.28214762696382" rx="6" fill="#fafafa" stroke="#bbb" stroke-width="1.5" stroke-dasharray="6,4"/><text x="743.8906913033179" y="211.00708170785214" font-weight="bold" font-size="13">Services</text><rect x="751.8906913033179" y="231.40708170785214" width="100" height="70" rx="6" fill="#e3f2fd" stroke="#1565c0" stroke-width="1.5"/><rect x="792.2906913033179" y="239.40708170785214" width="19.2" height="8" rx="1" fill="none" stroke="#1565c0" stroke-width="1.5"/><rect x="792.2906913033179" y="249.40708170785214" width="19.2" height="8" rx="1" fill="none" stroke="#1565c0" stroke-width="1.5"/><rect x="792.2906913033179" y="259.40708170785217" width="19.2" height="8" rx="1" fill="none" stroke="#1565c0" stroke-width="1.5"/><text x="801.8906913033179" y="293.40708170785217" text-anchor="middle" font-size="11">OrderService</text><text x="801.8906913033179" y="281.40708170785217" text-anchor="middle" font-size="9" fill="#1565c0">server</text><rect x="884.4154202471362" y="231.40708170785214" width="100" height="70" rx="6" fill="#e3f2fd" stroke="#1565c0" stroke-width="1.5"/><rect x="924.8154202471362" y="239.40708170785214" width="19.2" height="8" rx="1" fill="none" stroke="#1565c0" stroke-width="1.5"/><rect x="924.8154202471362" y="249.40708170785214" width="19.2" height="8" rx="1" fill="none" stroke="#1565c0" stroke-width="1.5"/><rect x="924.8154202471362" y="259.40708170785217" width="19.2" height="8" rx="1" fill="none" stroke="#1565c0" stroke-width="1.5"/><text x="934.4154202471362" y="293.40708170785217" text-anchor="middle" font-size="11">PaymentService</text><text x="934.4154202471362" y="281.40708170785217" text-anchor="middle" font-size="9" fill="#1565c0">server</text><rect x="751.8906913033179" y="343.689229334816" width="100" height="70" rx="6" fill="#e3f2fd" stroke="#1565c0" stroke-width="1.5"/><rect x="792.2906913033179" y="351.689229334816" width="19.2" height="8" rx="1" fill="none" stroke="#1565c0" stroke-width="1.5"/><rect x="792.2906913033179" y="361.689229334816" width="19.2" height="8" rx="1" fill="none" stroke="#1565c0" stroke-width="1.5"/><rect x="792.2906913033179" y="371.689229334816" width="19.2" height="8" rx="1" fill="none" stroke="#1565c0" stroke-width="1.5"/><text x="801.8906913033179" y="405.689229334816" text-anchor="middle" font-size="11">NotifyService</text><text x="801.8906913033179" y="393.689229334816" text-anchor="middle" font-size="9" fill="#1565c0">server</text><rect x="884.4154202471362" y="343.689229334816" width="100" height="70" rx="6" fill="#e3f2fd" stroke="#1565c0" stroke-width="1.5"/><rect x="924.8154202471362" y="351.689229334816" width="19.2" height="8" rx="1" fill="none" stroke="#1565c0" stroke-width="1.5"/><rect x="924.8154202471362" y="361.689229334816" width="19.2" height="8" rx="1" fill="none" stroke="#1565c0" stroke-width="1.5"/><rect x="924.8154202471362" y="371.689229334816" width="19.2" height="8" rx="1" fill="none" stroke="#1565c0" stroke-width="1.5"/><text x="934.4154202471362" y="405.689229334816" text-anchor="middle" font-size="11">InventoryService</text><text x="934.4154202471362" y="393.689229334816" text-anchor="middle" font-size="9" fill="#1565c0">server</text><rect x="1240.743380673504" y="370.88470032244527" width="383.5523229651449" height="122" rx="6" fill="#fafafa" stroke="#bbb" stroke-width="1.5" stroke-dasharray="6,4"/><text x="1248.743380673504" y="390.4847003224453" font-weight="bold" font-size="13">Databases</text><rect x="1256.743380673504" y="410.88470032244527" width="100" height="70" rx="6" fill="#e8f5e9" stroke="#2e7d32" stroke-width="1.5"/><ellipse cx="1306.743380673504" cy="425.08470032244526" rx="9.6" ry="5" fill="none" stroke="#2e7d32" stroke-width="1.5"/><line x1="1297.143380673504" y1="425.08470032244526" x2="1297.143380673504" y2="440.6847003224453" stroke="#2e7d32" stroke-width="1.5"/><line x1="1316.3433806735038" y1="425.08470032244526" x2="1316.3433806735038" y2="440.6847003224453" stroke="#2e7d32" stroke-width="1.5"/><ellipse cx="1306.743380673504" cy="440.6847003224453" rx="9.6" ry="5" fill="none" stroke="#2e7d32" stroke-width="1.5"/><text x="1306.743380673504" y="472.88470032244527" text-anchor="middle" font-size="11">OrderDB</text><text x="1306.743380673504" y="460.88470032244527" text-anchor="middle" font-size="9" fill="#2e7d32">db</text><rect x="1382.5195421560763" y="410.88470032244527" width="100" height="70" rx="6" fill="#e8f5e9" stroke="#2e7d32" stroke-width="1.5"/><ellipse cx="1432.5195421560763" cy="425.08470032244526" rx="9.6" ry="5" fill="none" stroke="#2e7d32" stroke-width="1.5"/><line x1="1422.9195421560764" y1="425.08470032244526" x2="1422.9195421560764" y2="440.6847003224453" stroke="#2e7d32" stroke-width="1.5"/><line x1="1442.1195421560762" y1="425.08470032244526" x2="1442.1195421560762" y2="440.6847003224453" stroke="#2e7d32" stroke-width="1.5"/><ellipse cx="1432.5195421560763" cy="440.6847003224453" rx="9.6" ry="5" fill="none" stroke="#2e7d32" stroke-width="1.5"/><text x="1432.5195421560763" y="472.88470032244527" text-anchor="middle" font-size="11">PaymentDB</text><text x="1432.5195421560763" y="460.88470032244527" text-anchor="middle" font-size="9" fill="#2e7d32">db</text><rect x="1508.2957036386488" y="410.88470032244527" width="100" height="70" rx="6" fill="#e8f5e9" stroke="#2e7d32" stroke-width="1.5"/><ellipse cx="1558.2957036386488" cy="425.08470032244526" rx="9.6" ry="5" fill="none" stroke="#2e7d32" stroke-width="1.5"/><line x1="1548.6957036386489" y1="425.08470032244526" x2="1548.6957036386489" y2="440.6847003224453" stroke="#2e7d32" stroke-width="1.5"/><line x1="1567.8957036386487" y1="425.08470032244526" x2="1567.8957036386487" y2="440.6847003224453" stroke="#2e7d32" stroke-width="1.5"/><ellipse cx="1558.2957036386488" cy="440.6847003224453" rx="9.6" ry="5" fill="none" stroke="#2e7d32" stroke-width="1.5"/><text x="1558.2957036386488" y="472.88470032244527" text-anchor="middle" font-size="11">InventoryDB</text><text x="1558.2957036386488" y="460.88470032244527" text-anchor="middle" font-size="9" fill="#2e7d32">db</text><rect x="1240.743380673504" y="701.7694006448905" width="383.5523229651449" height="122" rx="6" fill="#fafafa" stroke="#bbb" stroke-width="1.5" stroke-dasharray="6,4"/><text x="1248.743380673504" y="721.3694006448906" font-weight="bold" font-size="13">External</text><rect x="1256.743380673504" y="741.7694006448905" width="100" height="70" rx="6" fill="#f5f5f5" stroke="#757575" stroke-width="1.5"/><rect x="1298.743380673504" y="757.3694006448906" width="16" height="12.8" rx="3" fill="none" stroke="#757575" stroke-width="1.5"/><text x="1306.743380673504" y="803.7694006448905" text-anchor="middle" font-size="11">Stripe</text><text x="1306.743380673504" y="791.7694006448905" text-anchor="middle" font-size="9" fill="#757575">generic</text><rect x="1382.5195421560763" y="741.7694006448905" width="100" height="70" rx="6" fill="#f5f5f5" stroke="#757575" stroke-width="1.5"/><rect x="1424.5195421560763" y="757.3694006448906" width="16" height="12.8" rx="3" fill="none" stroke="#757575" stroke-width="1.5"/><text x="1432.5195421560763" y="803.7694006448905" text-anchor="middle" font-size="11">SendGrid</text><text x="1432.5195421560763" y="791.7694006448905" text-anchor="middle" font-size="9" fill="#757575">generic</text><rect x="1508.2957036386488" y="741.7694006448905" width="100" height="70" rx="6" fill="#f5f5f5" stroke="#757575" stroke-width="1.5"/><rect x="1550.2957036386488" y="757.3694006448906" width="16" height="12.8" rx="3" fill="none" stroke="#757575" stroke-width="1.5"/><text x="1558.2957036386488" y="803.7694006448905" text-anchor="middle" font-size="11">Slack</text><text x="1558.2957036386488" y="791.7694006448905" text-anchor="middle" font-size="9" fill="#757575">generic</text><path d="M140,103.75584977265129 L372.81416341570434,237.65123193520088" fill="none" stroke="#666" stroke-width="1.5" marker-end="url(#arrow)"/><path d="M140,386.6898929198258 L372.81416341570434,287.6724260172126" fill="none" stroke="#666" stroke-width="1.5" marker-end="url(#arrow)"/><path d="M472.81416341570434,266.40708170785217 L751.8906913033179,266.40708170785217" fill="none" stroke="#666" stroke-width="1.5" marker-end="url(#arrow)"/><path d="M851.8906913033179,287.1579258855137 L893.1530557752271,304.28250379668293 Q934.4154202471362,321.40708170785217 1096.5794004603201,231.98871745900456 L1258.743380673504,142.57035321015695" fill="none" stroke="#666" stroke-width="1.5" marker-end="url(#arrow)"/><rect x="1010.703076763632" y="232.69472776213783" width="102" height="16" rx="3" fill="white" opacity="0.9"/><text x="1061.703076763632" y="244.69472776213783" text-anchor="middle" font-size="11" fill="#666">OrderCreated</text><path d="M1258.743380673504,136.31267458423565 L984.4154202471362,247.25580979617035" fill="none" stroke="#666" stroke-width="1.5" marker-end="url(#arrow)"/><rect x="1070.5794004603201" y="173.784242190203" width="102" height="16" rx="3" fill="white" opacity="0.9"/><text x="1121.5794004603201" y="185.784242190203" text-anchor="middle" font-size="11" fill="#666">OrderCreated</text><path d="M1259.058080109758,150 L984.1007208108822,343.689229334816" fill="none" stroke="#666" stroke-width="1.5" marker-end="url(#arrow)"/><rect x="1070.5794004603201" y="228.844614667408" width="102" height="16" rx="3" fill="white" opacity="0.9"/><text x="1121.5794004603201" y="240.844614667408" text-anchor="middle" font-size="11" fill="#666">OrderCreated</text><path d="M1258.743380673504,142.57035321015695 L1096.5794004603201,231.98871745900456 Q934.4154202471362,321.40708170785217 893.1530557752271,339.2422198888893 L851.8906913033179,357.0773580699264" fill="none" stroke="#666" stroke-width="1.5" marker-end="url(#arrow)"/><rect x="1006.2334292947664" y="235.60191498726502" width="102" height="16" rx="3" fill="white" opacity="0.9"/><text x="1057.2334292947664" y="247.60191498726502" text-anchor="middle" font-size="11" fill="#666">OrderCreated</text><path d="M912.5953887302859,301.40708170785217 L888.5054044887111,340.0481555213341 Q864.4154202471362,378.689229334816 1066.1342236709643,560.2293149898533 L1267.8530270947924,741.7694006448905" fill="none" stroke="#666" stroke-width="1.5" marker-end="url(#arrow)"/><path d="M984.4154202471362,247.25580979617035 L1258.743380673504,136.31267458423565" fill="none" stroke="#666" stroke-width="1.5" marker-end="url(#arrow)"/><rect x="1054.5794004603201" y="173.784242190203" width="134" height="16" rx="3" fill="white" opacity="0.9"/><text x="1121.5794004603201" y="185.784242190203" text-anchor="middle" font-size="11" fill="#666">PaymentCompleted</text><path d="M851.8906913033179,410.25138913544805 L1382.5195421560763,745.2072408442584" fill="none" stroke="#666" stroke-width="1.5" marker-end="url(#arrow)"/><path d="M850.6061531078494,413.689229334816 L1141.562847631963,622.7293149898533 Q1432.5195421560763,831.7694006448905 1470.4076228973627,815.2015199256218 L1508.2957036386488,798.6336392063531" fill="none" stroke="#666" stroke-width="1.5" marker-end="url(#arrow)"/><path d="M851.8906913033179,245.65623753019068 L893.1530557752271,228.5316596190214 Q934.4154202471362,211.40708170785217 1095.5794004603201,312.90186669139905 L1256.743380673504,414.396651674946" fill="none" stroke="#666" stroke-width="1.5" marker-end="url(#arrow)"/><path d="M984.4154202471362,297.89513035535145 L1145.5794004603201,399.3899153388984 Q1306.743380673504,500.88470032244527 1344.63146141479,484.31681960317655 L1382.5195421560763,467.74893888390784" fill="none" stroke="#666" stroke-width="1.5" marker-end="url(#arrow)"/><path d="M984.4154202471362,395.0988847965893 L1145.5794004603201,447.9917925595173 Q1306.743380673504,500.88470032244527 1369.63146141479,445.88470032244527 Q1432.5195421560763,390.88470032244527 1470.4076228973627,407.452581041714 L1508.2957036386488,424.0204617609827" fill="none" stroke="#666" stroke-width="1.5" marker-end="url(#arrow)"/></svg>