<svg xmlns="http://www.w3.org/2000/svg" width="2438.1986108453616" height="639.5663111593873" viewBox="0 0 2438.1986108453616 639.5663111593873"><style>text { font-family: sans-serif; font-size: 12px; fill: #333; }</style><defs><marker id="arrow" viewBox="0 0 10 10" refX="10" refY="5" markerWidth="8" markerHeight="8" orient="auto"><polygon points="0,1 10,5 0,9" fill="#666"/></marker></defs><rect x="40" y="40" width="100" height="70" rx="6" fill="#fafafa" stroke="#616161" stroke-width="1.5"/><circle cx="90" cy="54" r="5" fill="none" stroke="#616161" stroke-width="1.5"/><line x1="90" y1="59" x2="90" y2="68" stroke="#616161" stroke-width="1.5"/><line x1="83" y1="63" x2="97" y2="63" stroke="#616161" stroke-width="1.5"/><text x="90" y="102" text-anchor="middle" font-size="11">User</text><text x="90" y="90" text-anchor="middle" font-size="9" fill="#616161">user</text><rect x="509.88764979875083" y="40" width="100" height="70" rx="6" fill="#e8eaf6" stroke="#283593" stroke-width="1.5"/><polygon points="559.8876497987508,54 566.8476497987508,58 566.8476497987508,66 559.8876497987508,70 552.9276497987507,66 552.9276497987507,58" fill="none" stroke="#283593" stroke-width="1.5"/><text x="559.8876497987508" y="102" text-anchor="middle" font-size="11">DNS</text><text x="559.8876497987508" y="90" text-anchor="middle" font-size="9" fill="#283593">network</text><rect x="1287.4146314102682" y="40" width="715.2786636255328" height="559.5663111593873" rx="6" fill="#fafafa" stroke="#bbb" stroke-width="1.5" stroke-dasharray="6,4"/><text x="1295.4146314102682" y="59.599999999999994" font-weight="bold" font-size="13">Kubernetes Cluster</text><rect x="1303.4146314102682" y="80" width="100" height="70" rx="6" fill="#fff3e0" stroke="#e65100" stroke-width="1.5"/><circle cx="1353.4146314102682" cy="102" r="8" fill="none" stroke="#e65100" stroke-width="1.5"/><line x1="1345.4146314102682" y1="102" x2="1339.014631410268" y2="96" stroke="#e65100" stroke-width="1.5"/><line x1="1345.4146314102682" y1="102" x2="1339.014631410268" y2="108" stroke="#e65100" stroke-width="1.5"/><text x="1353.4146314102682" y="142" text-anchor="middle" font-size="11">Ingress</text><text x="1353.4146314102682" y="130" text-anchor="middle" font-size="9" fill="#e65100">lb</text><rect x="1728.8302326310504" y="263.49496138798645" width="257.8630624047504" height="324.07134977140083" rx="6" fill="#fafafa" stroke="#bbb" stroke-width="1.5" stroke-dasharray="6,4"/><text x="1736.8302326310504" y="283.0949613879865" font-weight="bold" font-size="13">Namespace: production</text><rect x="1744.8302326310504" y="303.49496138798645" width="100" height="70" rx="6" fill="#e3f2fd" stroke="#1565c0" stroke-width="1.5"/><rect x="1785.2302326310505" y="311.49496138798645" width="19.2" height="8" rx="1" fill="none" stroke="#1565c0" stroke-width="1.5"/><rect x="1785.2302326310505" y="321.49496138798645" width="19.2" height="8" rx="1" fill="none" stroke="#1565c0" stroke-width="1.5"/><rect x="1785.2302326310505" y="331.49496138798645" width="19.2" height="8" rx="1" fill="none" stroke="#1565c0" stroke-width="1.5"/><text x="1794.8302326310504" y="365.49496138798645" text-anchor="middle" font-size="11">FrontendPod1</text><text x="1794.8302326310504" y="353.49496138798645" text-anchor="middle" font-size="9" fill="#1565c0">server</text><rect x="1870.693295035801" y="303.49496138798645" width="100" height="70" rx="6" fill="#e3f2fd" stroke="#1565c0" stroke-width="1.5"/><rect x="1911.093295035801" y="311.49496138798645" width="19.2" height="8" rx="1" fill="none" stroke="#1565c0" stroke-width="1.5"/><rect x="1911.093295035801" y="321.49496138798645" width="19.2" height="8" rx="1" fill="none" stroke="#1565c0" stroke-width="1.5"/><rect x="1911.093295035801" y="331.49496138798645" width="19.2" height="8" rx="1" fill="none" stroke="#1565c0" stroke-width="1.5"/><text x="1920.693295035801" y="365.49496138798645" text-anchor="middle" font-size="11">FrontendPod2</text><text x="1920.693295035801" y="353.49496138798645" text-anchor="middle" font-size="9" fill="#1565c0">server</text><rect x="1744.8302326310504" y="404.53063627368687" width="100" height="70" rx="6" fill="#e3f2fd" stroke="#1565c0" stroke-width="1.5"/><rect x="1785.2302326310505" y="412.53063627368687" width="19.2" height="8" rx="1" fill="none" stroke="#1565c0" stroke-width="1.5"/><rect x="1785.2302326310505" y="422.53063627368687" width="19.2" height="8" rx="1" fill="none" stroke="#1565c0" stroke-width="1.5"/><rect x="1785.2302326310505" y="432.53063627368687" width="19.2" height="8" rx="1" fill="none" stroke="#1565c0" stroke-width="1.5"/><text x="1794.8302326310504" y="466.53063627368687" text-anchor="middle" font-size="11">APIPod1</text><text x="1794.8302326310504" y="454.53063627368687" text-anchor="middle" font-size="9" fill="#1565c0">server</text><rect x="1870.693295035801" y="404.53063627368687" width="100" height="70" rx="6" fill="#e3f2fd" stroke="#1565c0" stroke-width="1.5"/><rect x="1911.093295035801" y="412.53063627368687" width="19.2" height="8" rx="1" fill="none" stroke="#1565c0" stroke-width="1.5"/><rect x="1911.093295035801" y="422.53063627368687" width="19.2" height="8" rx="1" fill="none" stroke="#1565c0" stroke-width="1.5"/><rect x="1911.093295035801" y="432.53063627368687" width="19.2" height="8" rx="1" fill="none" stroke="#1565c0" stroke-width="1.5"/><text x="1920.693295035801" y="466.53063627368687" text-anchor="middle" font-size="11">APIPod2</text><text x="1920.693295035801" y="454.53063627368687" text-anchor="middle" font-size="9" fill="#1565c0">server</text><rect x="1744.8302326310504" y="505.5663111593873" width="100" height="70" rx="6" fill="#e3f2fd" stroke="#1565c0" stroke-width="1.5"/><rect x="1785.2302326310505" y="513.5663111593873" width="19.2" height="8" rx="1" fill="none" stroke="#1565c0" stroke-width="1.5"/><rect x="1785.2302326310505" y="523.5663111593873" width="19.2" height="8" rx="1" fill="none" stroke="#1565c0" stroke-width="1.5"/><rect x="1785.2302326310505" y="533.5663111593873" width="19.2" height="8" rx="1" fill="none" stroke="#1565c0" stroke-width="1.5"/><text x="1794.8302326310504" y="567.5663111593873" text-anchor="middle" font-size="11">WorkerPod</text><text x="1794.8302326310504" y="555.5663111593873" text-anchor="middle" font-size="9" fill="#1565c0">server</text><rect x="1303.4146314102682" y="459.98992277597284" width="253.0596442562694" height="122" rx="6" fill="#fafafa" stroke="#bbb" stroke-width="1.5" stroke-dasharray="6,4"/><text x="1311.4146314102682" y="479.58992277597287" font-weight="bold" font-size="13">Namespace: monitoring</text><rect x="1319.4146314102682" y="499.98992277597284" width="100" height="70" rx="6" fill="#e3f2fd" stroke="#1565c0" stroke-width="1.5"/><rect x="1359.8146314102682" y="507.9899227759729" width="19.2" height="8" rx="1" fill="none" stroke="#1565c0" stroke-width="1.5"/><rect x="1359.8146314102682" y="517.9899227759729" width="19.2" height="8" rx="1" fill="none" stroke="#1565c0" stroke-width="1.5"/><rect x="1359.8146314102682" y="527.9899227759729" width="19.2" height="8" rx="1" fill="none" stroke="#1565c0" stroke-width="1.5"/><text x="1369.4146314102682" y="561.9899227759729" text-anchor="middle" font-size="11">Prometheus</text><text x="1369.4146314102682" y="549.9899227759729" text-anchor="middle" font-size="9" fill="#1565c0">server</text><rect x="1440.4742756665376" y="499.98992277597284" width="100" height="70" rx="6" fill="#e3f2fd" stroke="#1565c0" stroke-width="1.5"/><rect x="1480.8742756665376" y="507.9899227759729" width="19.2" height="8" rx="1" fill="none" stroke="#1565c0" stroke-width="1.5"/><rect x="1480.8742756665376" y="517.9899227759729" width="19.2" height="8" rx="1" fill="none" stroke="#1565c0" stroke-width="1.5"/><rect x="1480.8742756665376" y="527.9899227759729" width="19.2" height="8" rx="1" fill="none" stroke="#1565c0" stroke-width="1.5"/><text x="1490.4742756665376" y="561.9899227759729" text-anchor="middle" font-size="11">Grafana</text><text x="1490.4742756665376" y="549.9899227759729" text-anchor="middle" font-size="9" fill="#1565c0">server</text><rect x="2142.693945629644" y="40" width="255.5046652157175" height="220.205598258861" rx="6" fill="#fafafa" stroke="#bbb" stroke-width="1.5" stroke-dasharray="6,4"/><text x="2150.693945629644" y="59.599999999999994" font-weight="bold" font-size="13">Managed Services</text><rect x="2158.693945629644" y="80" width="100" height="70" rx="6" fill="#e8f5e9" stroke="#2e7d32" stroke-width="1.5"/><ellipse cx="2208.693945629644" cy="94.2" rx="9.6" ry="5" fill="none" stroke="#2e7d32" stroke-width="1.5"/><line x1="2199.093945629644" y1="94.2" x2="2199.093945629644" y2="109.8" stroke="#2e7d32" stroke-width="1.5"/><line x1="2218.293945629644" y1="94.2" x2="2218.293945629644" y2="109.8" stroke="#2e7d32" stroke-width="1.5"/><ellipse cx="2208.693945629644" cy="109.8" rx="9.6" ry="5" fill="none" stroke="#2e7d32" stroke-width="1.5"/><text x="2208.693945629644" y="142" text-anchor="middle" font-size="11">CloudSQL</text><text x="2208.693945629644" y="130" text-anchor="middle" font-size="9" fill="#2e7d32">db</text><rect x="2282.1986108453616" y="80" width="100" height="70" rx="6" fill="#fce4ec" stroke="#c62828" stroke-width="1.5"/><polyline points="2328.1986108453616,92.4 2334.1986108453616,100 2330.1986108453616,104 2336.1986108453616,111.6" fill="none" stroke="#c62828" stroke-width="2"/><text x="2332.1986108453616" y="142" text-anchor="middle" font-size="11">Memorystore</text><text x="2332.1986108453616" y="130" text-anchor="middle" font-size="9" fill="#c62828">cache</text><rect x="2158.693945629644" y="178.205598258861" width="100" height="70" rx="6" fill="#f3e5f5" stroke="#6a1b9a" stroke-width="1.5"/><line x1="2200.693945629644" y1="200.205598258861" x2="2213.4939456296443" y2="200.205598258861" stroke="#6a1b9a" stroke-width="2"/><polyline points="2210.293945629644,195.205598258861 2216.693945629644,200.205598258861 2210.293945629644,205.205598258861" fill="none" stroke="#6a1b9a" stroke-width="2"/><text x="2208.693945629644" y="240.205598258861" text-anchor="middle" font-size="11">PubSub</text><text x="2208.693945629644" y="228.205598258861" text-anchor="middle" font-size="9" fill="#6a1b9a">queue</text><rect x="2282.1986108453616" y="178.205598258861" width="100" height="70" rx="6" fill="#e0f2f1" stroke="#00695c" stroke-width="1.5"/><path d="M2324.1986108453616,192.205598258861 L2340.1986108453616,192.205598258861 L2338.5986108453617,208.205598258861 L2325.7986108453615,208.205598258861 Z" fill="none" stroke="#00695c" stroke-width="1.5"/><text x="2332.1986108453616" y="240.205598258861" text-anchor="middle" font-size="11">GCS</text><text x="2332.1986108453616" y="228.205598258861" text-anchor="middle" font-size="9" fill="#00695c">storage</text><path d="M140,75 L509.8876497987508,75" fill="none" stroke="#666" stroke-width="1.5" marker-end="url(#arrow)"/><path d="M609.8876497987508,77.52039318932589 L1303.4146314102682,112.47960681067411" fill="none" stroke="#666" stroke-width="1.5" marker-end="url(#arrow)"/><path d="M1403.4146314102682,140.31570709892074 L1744.8302326310504,313.17925428906574" fill="none" stroke="#666" stroke-width="1.5" marker-end="url(#arrow)"/><path d="M1403.4146314102682,146.5456636124526 L1599.1224320206593,270.0203125002195 Q1794.8302326310504,393.49496138798645 1832.7617638334257,376.9195326937304 L1870.693295035801,360.3441039994744" fill="none" stroke="#666" stroke-width="1.5" marker-end="url(#arrow)"/><path d="M1794.8302326310504,373.49496138798645 L1794.8302326310504,404.53063627368687" fill="none" stroke="#666" stroke-width="1.5" marker-end="url(#arrow)"/><path d="M1920.693295035801,373.49496138798645 L1920.693295035801,404.53063627368687" fill="none" stroke="#666" stroke-width="1.5" marker-end="url(#arrow)"/><path d="M1823.0622839705482,404.53063627368687 L1871.8777895031744,344.0127988308367 Q1920.693295035801,283.49496138798645 2039.6936203327225,213.8737463847615 L2158.693945629644,144.2525313815365" fill="none" stroke="#666" stroke-width="1.5" marker-end="url(#arrow)"/><path d="M1954.405971448937,404.53063627368687 L2046.5499585392904,308.86811726627394 Q2138.693945629644,213.205598258861 2161.220114995559,181.60279912943048 L2183.7462843614744,150" fill="none" stroke="#666" stroke-width="1.5" marker-end="url(#arrow)"/><path d="M1823.0622839705482,404.53063627368687 L1871.8777895031744,344.0127988308367 Q1920.693295035801,283.49496138798645 2101.4459529405813,209.48398037665856 L2282.1986108453616,135.47299936533065" fill="none" stroke="#666" stroke-width="1.5" marker-end="url(#arrow)"/><path d="M1970.693295035801,409.7867732543565 L2089.6936203327223,338.9961857566087 Q2208.693945629644,268.20559825886096 2256.3388848665163,209.10279912943048 L2303.983824103389,150" fill="none" stroke="#666" stroke-width="1.5" marker-end="url(#arrow)"/><path d="M1823.0622839705482,404.53063627368687 L1871.8777895031744,344.0127988308367 Q1920.693295035801,283.49496138798645 2039.6936203327225,254.45177325618093 L2158.693945629644,225.4085851243754" fill="none" stroke="#666" stroke-width="1.5" marker-end="url(#arrow)"/><path d="M1823.0622839705482,505.5663111593873 L1871.8777895031744,445.04847371653705 Q1920.693295035801,384.53063627368687 2039.6936203327225,313.7400487759391 L2158.693945629644,242.94946127819134" fill="none" stroke="#666" stroke-width="1.5" marker-end="url(#arrow)"/><path d="M1823.0622839705482,505.5663111593873 L1871.8777895031744,445.04847371653705 Q1920.693295035801,384.53063627368687 2101.4459529405813,309.27655133946297 L2282.1986108453616,234.02246640523907" fill="none" stroke="#666" stroke-width="1.5" marker-end="url(#arrow)"/><path d="M1419.4146314102682,557.7059981196156 L1454.9444535384027,573.8479604477943 Q1490.4742756665376,589.9899227759729 1617.6522541487939,527.1191050266278 L1744.8302326310504,464.2482872772828" fill="none" stroke="#666" stroke-width="1.5" marker-end="url(#arrow)"/><path d="M1419.4146314102682,557.7059981196156 L1454.9444535384027,573.8479604477943 Q1490.4742756665376,589.9899227759729 1680.5837853511694,523.5034591454607 L1870.693295035801,457.01699551494863" fill="none" stroke="#666" stroke-width="1.5" marker-end="url(#arrow)"/><path d="M1419.4146314102682,512.2738474323302 L1454.9444535384027,496.13188510415154 Q1490.4742756665376,479.9899227759729 1617.6522541487939,505.3023322822437 L1744.8302326310504,530.6147417885145" fill="none" stroke="#666" stroke-width="1.5" marker-end="url(#arrow)"/></svg>