<svg xmlns="http://www.w3.org/2000/svg" width="3105.038915044941" height="729.6201886024946" viewBox="0 0 3105.038915044941 729.6201886024946"><style>text { font-family: sans-serif; font-size: 12px; fill: #333; }</style><defs><marker id="arrow" viewBox="0 0 10 10" refX="10" refY="5" markerWidth="8" markerHeight="8" orient="auto"><polygon points="0,1 10,5 0,9" fill="#666"/></marker></defs><rect x="40" y="40" width="100" height="70" rx="6" fill="#fafafa" stroke="#616161" stroke-width="1.5"/><circle cx="90" cy="54" r="5" fill="none" stroke="#616161" stroke-width="1.5"/><line x1="90" y1="59" x2="90" y2="68" stroke="#616161" stroke-width="1.5"/><line x1="83" y1="63" x2="97" y2="63" stroke="#616161" stroke-width="1.5"/><text x="90" y="102" text-anchor="middle" font-size="11">User</text><text x="90" y="90" text-anchor="middle" font-size="9" fill="#616161">user</text><rect x="696.9580403096759" y="40" width="100" height="70" rx="6" fill="#e8eaf6" stroke="#283593" stroke-width="1.5"/><polygon points="746.9580403096759,54 753.9180403096759,58 753.9180403096759,66 746.9580403096759,70 739.9980403096758,66 739.9980403096758,58" fill="none" stroke="#283593" stroke-width="1.5"/><text x="746.9580403096759" y="102" text-anchor="middle" font-size="11">DNS</text><text x="746.9580403096759" y="90" text-anchor="middle" font-size="9" fill="#283593">network</text><rect x="1710.200518706176" y="40" width="812.568876173648" height="649.6201886024946" rx="6" fill="#fafafa" stroke="#bbb" stroke-width="1.5" stroke-dasharray="6,4"/><text x="1718.200518706176" y="59.599999999999994" font-weight="bold" font-size="13">Kubernetes Cluster</text><rect x="1726.200518706176" y="80" width="100" height="70" rx="6" fill="#fff3e0" stroke="#e65100" stroke-width="1.5"/><circle cx="1776.200518706176" cy="102" r="8" fill="none" stroke="#e65100" stroke-width="1.5"/><line x1="1768.200518706176" y1="102" x2="1761.8005187061758" y2="96" stroke="#e65100" stroke-width="1.5"/><line x1="1768.200518706176" y1="102" x2="1761.8005187061758" y2="108" stroke="#e65100" stroke-width="1.5"/><text x="1776.200518706176" y="142" text-anchor="middle" font-size="11">Ingress</text><text x="1776.200518706176" y="130" text-anchor="middle" font-size="9" fill="#e65100">lb</text><rect x="2241.9579701930224" y="311.3100943012473" width="264.8114246868015" height="347.309704185684" rx="6" fill="#fafafa" stroke="#bbb" stroke-width="1.5" stroke-dasharray="6,4"/><text x="2249.9579701930224" y="330.91009430124734" font-weight="bold" font-size="13">Namespace: production</text><rect x="2257.9579701930224" y="351.3100943012473" width="100" height="70" rx="6" fill="#e3f2fd" stroke="#1565c0" stroke-width="1.5"/><rect x="2298.3579701930225" y="359.3100943012473" width="19.2" height="8" rx="1" fill="none" stroke="#1565c0" stroke-width="1.5"/><rect x="2298.3579701930225" y="369.3100943012473" width="19.2" height="8" rx="1" fill="none" stroke="#1565c0" stroke-width="1.5"/><rect x="2298.3579701930225" y="379.3100943012473" width="19.2" height="8" rx="1" fill="none" stroke="#1565c0" stroke-width="1.5"/><text x="2307.9579701930224" y="413.3100943012473" text-anchor="middle" font-size="11">FrontendPod1</text><text x="2307.9579701930224" y="401.3100943012473" text-anchor="middle" font-size="9" fill="#1565c0">server</text><rect x="2390.769394879824" y="351.3100943012473" width="100" height="70" rx="6" fill="#e3f2fd" stroke="#1565c0" stroke-width="1.5"/><rect x="2431.1693948798243" y="359.3100943012473" width="19.2" height="8" rx="1" fill="none" stroke="#1565c0" stroke-width="1.5"/><rect x="2431.1693948798243" y="369.3100943012473" width="19.2" height="8" rx="1" fill="none" stroke="#1565c0" stroke-width="1.5"/><rect x="2431.1693948798243" y="379.3100943012473" width="19.2" height="8" rx="1" fill="none" stroke="#1565c0" stroke-width="1.5"/><text x="2440.769394879824" y="413.3100943012473" text-anchor="middle" font-size="11">FrontendPod2</text><text x="2440.769394879824" y="401.3100943012473" text-anchor="middle" font-size="9" fill="#1565c0">server</text><rect x="2257.9579701930224" y="463.96494639408934" width="100" height="70" rx="6" fill="#e3f2fd" stroke="#1565c0" stroke-width="1.5"/><rect x="2298.3579701930225" y="471.96494639408934" width="19.2" height="8" rx="1" fill="none" stroke="#1565c0" stroke-width="1.5"/><rect x="2298.3579701930225" y="481.96494639408934" width="19.2" height="8" rx="1" fill="none" stroke="#1565c0" stroke-width="1.5"/><rect x="2298.3579701930225" y="491.96494639408934" width="19.2" height="8" rx="1" fill="none" stroke="#1565c0" stroke-width="1.5"/><text x="2307.9579701930224" y="525.9649463940893" text-anchor="middle" font-size="11">APIPod1</text><text x="2307.9579701930224" y="513.9649463940893" text-anchor="middle" font-size="9" fill="#1565c0">server</text><rect x="2390.769394879824" y="463.96494639408934" width="100" height="70" rx="6" fill="#e3f2fd" stroke="#1565c0" stroke-width="1.5"/><rect x="2431.1693948798243" y="471.96494639408934" width="19.2" height="8" rx="1" fill="none" stroke="#1565c0" stroke-width="1.5"/><rect x="2431.1693948798243" y="481.96494639408934" width="19.2" height="8" rx="1" fill="none" stroke="#1565c0" stroke-width="1.5"/><rect x="2431.1693948798243" y="491.96494639408934" width="19.2" height="8" rx="1" fill="none" stroke="#1565c0" stroke-width="1.5"/><text x="2440.769394879824" y="525.9649463940893" text-anchor="middle" font-size="11">APIPod2</text><text x="2440.769394879824" y="513.9649463940893" text-anchor="middle" font-size="9" fill="#1565c0">server</text><rect x="2257.9579701930224" y="576.6197984869314" width="100" height="70" rx="6" fill="#e3f2fd" stroke="#1565c0" stroke-width="1.5"/><rect x="2298.3579701930225" y="584.6197984869314" width="19.2" height="8" rx="1" fill="none" stroke="#1565c0" stroke-width="1.5"/><rect x="2298.3579701930225" y="594.6197984869314" width="19.2" height="8" rx="1" fill="none" stroke="#1565c0" stroke-width="1.5"/><rect x="2298.3579701930225" y="604.6197984869314" width="19.2" height="8" rx="1" fill="none" stroke="#1565c0" stroke-width="1.5"/><text x="2307.9579701930224" y="638.6197984869314" text-anchor="middle" font-size="11">WorkerPod</text><text x="2307.9579701930224" y="626.6197984869314" text-anchor="middle" font-size="9" fill="#1565c0">server</text><rect x="1726.200518706176" y="555.6201886024946" width="258.77280526758625" height="122" rx="6" fill="#fafafa" stroke="#bbb" stroke-width="1.5" stroke-dasharray="6,4"/><text x="1734.200518706176" y="575.2201886024947" font-weight="bold" font-size="13">Namespace: monitoring</text><rect x="1742.200518706176" y="595.6201886024946" width="100" height="70" rx="6" fill="#e3f2fd" stroke="#1565c0" stroke-width="1.5"/><rect x="1782.600518706176" y="603.6201886024946" width="19.2" height="8" rx="1" fill="none" stroke="#1565c0" stroke-width="1.5"/><rect x="1782.600518706176" y="613.6201886024946" width="19.2" height="8" rx="1" fill="none" stroke="#1565c0" stroke-width="1.5"/><rect x="1782.600518706176" y="623.6201886024946" width="19.2" height="8" rx="1" fill="none" stroke="#1565c0" stroke-width="1.5"/><text x="1792.200518706176" y="657.6201886024946" text-anchor="middle" font-size="11">Prometheus</text><text x="1792.200518706176" y="645.6201886024946" text-anchor="middle" font-size="9" fill="#1565c0">server</text><rect x="1868.973323973762" y="595.6201886024946" width="100" height="70" rx="6" fill="#e3f2fd" stroke="#1565c0" stroke-width="1.5"/><rect x="1909.3733239737621" y="603.6201886024946" width="19.2" height="8" rx="1" fill="none" stroke="#1565c0" stroke-width="1.5"/><rect x="1909.3733239737621" y="613.6201886024946" width="19.2" height="8" rx="1" fill="none" stroke="#1565c0" stroke-width="1.5"/><rect x="1909.3733239737621" y="623.6201886024946" width="19.2" height="8" rx="1" fill="none" stroke="#1565c0" stroke-width="1.5"/><text x="1918.973323973762" y="657.6201886024946" text-anchor="middle" font-size="11">Grafana</text><text x="1918.973323973762" y="645.6201886024946" text-anchor="middle" font-size="9" fill="#1565c0">server</text><rect x="2803.9749697500974" y="40" width="261.0639452948436" height="229.7831288832967" rx="6" fill="#fafafa" stroke="#bbb" stroke-width="1.5" stroke-dasharray="6,4"/><text x="2811.9749697500974" y="59.599999999999994" font-weight="bold" font-size="13">Managed Services</text><rect x="2819.9749697500974" y="80" width="100" height="70" rx="6" fill="#e8f5e9" stroke="#2e7d32" stroke-width="1.5"/><ellipse cx="2869.9749697500974" cy="94.2" rx="9.6" ry="5" fill="none" stroke="#2e7d32" stroke-width="1.5"/><line x1="2860.3749697500975" y1="94.2" x2="2860.3749697500975" y2="109.8" stroke="#2e7d32" stroke-width="1.5"/><line x1="2879.5749697500974" y1="94.2" x2="2879.5749697500974" y2="109.8" stroke="#2e7d32" stroke-width="1.5"/><ellipse cx="2869.9749697500974" cy="109.8" rx="9.6" ry="5" fill="none" stroke="#2e7d32" stroke-width="1.5"/><text x="2869.9749697500974" y="142" text-anchor="middle" font-size="11">CloudSQL</text><text x="2869.9749697500974" y="130" text-anchor="middle" font-size="9" fill="#2e7d32">db</text><rect x="2949.038915044941" y="80" width="100" height="70" rx="6" fill="#fce4ec" stroke="#c62828" stroke-width="1.5"/><polyline points="2995.038915044941,92.4 3001.038915044941,100 2997.038915044941,104 3003.038915044941,111.6" fill="none" stroke="#c62828" stroke-width="2"/><text x="2999.038915044941" y="142" text-anchor="middle" font-size="11">Memorystore</text><text x="2999.038915044941" y="130" text-anchor="middle" font-size="9" fill="#c62828">cache</text><rect x="2819.9749697500974" y="187.7831288832967" width="100" height="70" rx="6" fill="#f3e5f5" stroke="#6a1b9a" stroke-width="1.5"/><line x1="2861.9749697500974" y1="209.7831288832967" x2="2874.7749697500976" y2="209.7831288832967" stroke="#6a1b9a" stroke-width="2"/><polyline points="2871.5749697500974,204.7831288832967 2877.9749697500974,209.7831288832967 2871.5749697500974,214.7831288832967" fill="none" stroke="#6a1b9a" stroke-width="2"/><text x="2869.9749697500974" y="249.78312888329674" text-anchor="middle" font-size="11">PubSub</text><text x="2869.9749697500974" y="237.78312888329674" text-anchor="middle" font-size="9" fill="#6a1b9a">queue</text><rect x="2949.038915044941" y="187.7831288832967" width="100" height="70" rx="6" fill="#e0f2f1" stroke="#00695c" stroke-width="1.5"/><path d="M2991.038915044941,201.7831288832967 L3007.038915044941,201.7831288832967 L3005.438915044941,217.7831288832967 L2992.638915044941,217.7831288832967 Z" fill="none" stroke="#00695c" stroke-width="1.5"/><text x="2999.038915044941" y="249.78312888329674" text-anchor="middle" font-size="11">GCS</text><text x="2999.038915044941" y="237.78312888329674" text-anchor="middle" font-size="9" fill="#00695c">storage</text><path d="M140,75 L696.9580403096759,75" fill="none" stroke="#666" stroke-width="1.5" marker-end="url(#arrow)"/><path d="M796.9580403096759,76.94317669740553 L1726.200518706176,113.05682330259447" fill="none" stroke="#666" stroke-width="1.5" marker-end="url(#arrow)"/><path d="M1826.200518706176,140.5106998070866 L2257.9579701930224,360.7993944941607" fill="none" stroke="#666" stroke-width="1.5" marker-end="url(#arrow)"/><path d="M1826.200518706176,145.68223053469697 L2067.079244449599,293.49616241797213 Q2307.9579701930224,441.3100943012473 2349.3636825364233,424.1631193007347 L2390.769394879824,407.01614430022215" fill="none" stroke="#666" stroke-width="1.5" marker-end="url(#arrow)"/><path d="M2307.9579701930224,421.3100943012473 L2307.9579701930224,463.96494639408934" fill="none" stroke="#666" stroke-width="1.5" marker-end="url(#arrow)"/><path d="M2440.769394879824,421.3100943012473 L2440.769394879824,463.96494639408934" fill="none" stroke="#666" stroke-width="1.5" marker-end="url(#arrow)"/><path d="M2335.6839787517483,463.96494639408934 L2388.2266868157863,397.6375203476683 Q2440.769394879824,331.3100943012473 2630.372182314961,235.75449290378208 L2819.9749697500974,140.19889150631684" fill="none" stroke="#666" stroke-width="1.5" marker-end="url(#arrow)"/><path d="M2479.893266112177,463.96494639408934 L2830.8510985177445,150" fill="none" stroke="#666" stroke-width="1.5" marker-end="url(#arrow)"/><path d="M2335.6839787517483,463.96494639408934 L2388.2266868157863,397.6375203476683 Q2440.769394879824,331.3100943012473 2694.9041549623826,232.84168086820824 L2949.038915044941,134.37326743516917" fill="none" stroke="#666" stroke-width="1.5" marker-end="url(#arrow)"/><path d="M2490.769394879824,473.19852693674136 L2680.372182314961,375.49082791001905 Q2869.9749697500974,277.78312888329674 2920.6319231731436,213.89156444164837 L2971.2888765961898,150" fill="none" stroke="#666" stroke-width="1.5" marker-end="url(#arrow)"/><path d="M2357.9579701930224,519.6709963930642 L2399.3636825364233,536.8179713935767 Q2440.769394879824,553.9649463940893 2632.6925025647733,405.87403763869304 L2824.6156102497225,257.78312888329674" fill="none" stroke="#666" stroke-width="1.5" marker-end="url(#arrow)"/><path d="M2335.6839787517483,576.6197984869314 L2388.2266868157863,510.29237244051035 Q2440.769394879824,443.96494639408934 2630.372182314961,346.25724736736703 L2819.9749697500974,248.5495483406447" fill="none" stroke="#666" stroke-width="1.5" marker-end="url(#arrow)"/><path d="M2335.6839787517483,576.6197984869314 L2388.2266868157863,510.29237244051035 Q2440.769394879824,443.96494639408934 2694.9041549623826,343.278833150607 L2949.038915044941,242.59271990712466" fill="none" stroke="#666" stroke-width="1.5" marker-end="url(#arrow)"/><path d="M1842.200518706176,652.3125381106989 L1880.586921339969,668.9663633565967 Q1918.973323973762,685.6201886024946 2088.4656470833925,604.2888791793957 L2257.9579701930224,522.9575697562968" fill="none" stroke="#666" stroke-width="1.5" marker-end="url(#arrow)"/><path d="M1842.200518706176,652.3125381106989 L1880.586921339969,668.9663633565967 Q1918.973323973762,685.6201886024946 2154.871359426793,601.2354885270136 L2390.769394879824,516.8507884515326" fill="none" stroke="#666" stroke-width="1.5" marker-end="url(#arrow)"/><path d="M1842.200518706176,652.3125381106989 L1880.586921339969,668.9663633565967 Q1918.973323973762,685.6201886024946 2088.4656470833925,653.3759903966975 L2257.9579701930224,621.1317921909002" fill="none" stroke="#666" stroke-width="1.5" marker-end="url(#arrow)"/></svg>