<svg xmlns="http://www.w3.org/2000/svg" width="2851.842047331134" height="695.7645990470744" viewBox="0 0 2851.842047331134 695.7645990470744"><style>text { font-family: sans-serif; font-size: 12px; fill: #333; }</style><defs><marker id="arrow" viewBox="0 0 10 10" refX="10" refY="5" markerWidth="8" markerHeight="8" orient="auto"><polygon points="0,1 10,5 0,9" fill="#666"/></marker></defs><rect x="40" y="40" width="100" height="70" rx="6" fill="#fafafa" stroke="#616161" stroke-width="1.5"/><circle cx="90" cy="54" r="5" fill="none" stroke="#616161" stroke-width="1.5"/><line x1="90" y1="59" x2="90" y2="68" stroke="#616161" stroke-width="1.5"/><line x1="83" y1="63" x2="97" y2="63" stroke="#616161" stroke-width="1.5"/><text x="90" y="102" text-anchor="middle" font-size="11">User</text><text x="90" y="90" text-anchor="middle" font-size="9" fill="#616161">user</text><rect x="625.3484161097223" y="40" width="100" height="70" rx="6" fill="#e8eaf6" stroke="#283593" stroke-width="1.5"/><polygon points="675.3484161097223,54 682.3084161097223,58 682.3084161097223,66 675.3484161097223,70 668.3884161097222,66 668.3884161097222,58" fill="none" stroke="#283593" stroke-width="1.5"/><text x="675.3484161097223" y="102" text-anchor="middle" font-size="11">DNS</text><text x="675.3484161097223" y="90" text-anchor="middle" font-size="9" fill="#283593">network</text><rect x="1549.2813878440977" y="40" width="777.1691112493061" height="615.7645990470744" rx="6" fill="#fafafa" stroke="#bbb" stroke-width="1.5" stroke-dasharray="6,4"/><text x="1557.2813878440977" y="59.599999999999994" font-weight="bold" font-size="13">Kubernetes Cluster</text><rect x="1565.2813878440977" y="80" width="100" height="70" rx="6" fill="#fff3e0" stroke="#e65100" stroke-width="1.5"/><circle cx="1615.2813878440977" cy="102" r="8" fill="none" stroke="#e65100" stroke-width="1.5"/><line x1="1607.2813878440977" y1="102" x2="1600.8813878440976" y2="96" stroke="#e65100" stroke-width="1.5"/><line x1="1607.2813878440977" y1="102" x2="1600.8813878440976" y2="108" stroke="#e65100" stroke-width="1.5"/><text x="1615.2813878440977" y="142" text-anchor="middle" font-size="11">Ingress</text><text x="1615.2813878440977" y="130" text-anchor="middle" font-size="9" fill="#e65100">lb</text><rect x="2048.0920404946078" y="294.3822995235372" width="262.3584585987958" height="340.9319923568691" rx="6" fill="#fafafa" stroke="#bbb" stroke-width="1.5" stroke-dasharray="6,4"/><text x="2056.0920404946078" y="313.9822995235372" font-weight="bold" font-size="13">Namespace: production</text><rect x="2064.0920404946078" y="334.3822995235372" width="100" height="70" rx="6" fill="#e3f2fd" stroke="#1565c0" stroke-width="1.5"/><rect x="2104.492040494608" y="342.3822995235372" width="19.2" height="8" rx="1" fill="none" stroke="#1565c0" stroke-width="1.5"/><rect x="2104.492040494608" y="352.3822995235372" width="19.2" height="8" rx="1" fill="none" stroke="#1565c0" stroke-width="1.5"/><rect x="2104.492040494608" y="362.3822995235372" width="19.2" height="8" rx="1" fill="none" stroke="#1565c0" stroke-width="1.5"/><text x="2114.0920404946078" y="396.3822995235372" text-anchor="middle" font-size="11">FrontendPod1</text><text x="2114.0920404946078" y="384.3822995235372" text-anchor="middle" font-size="9" fill="#1565c0">server</text><rect x="2194.450499093404" y="334.3822995235372" width="100" height="70" rx="6" fill="#e3f2fd" stroke="#1565c0" stroke-width="1.5"/><rect x="2234.850499093404" y="342.3822995235372" width="19.2" height="8" rx="1" fill="none" stroke="#1565c0" stroke-width="1.5"/><rect x="2234.850499093404" y="352.3822995235372" width="19.2" height="8" rx="1" fill="none" stroke="#1565c0" stroke-width="1.5"/><rect x="2234.850499093404" y="362.3822995235372" width="19.2" height="8" rx="1" fill="none" stroke="#1565c0" stroke-width="1.5"/><text x="2244.450499093404" y="396.3822995235372" text-anchor="middle" font-size="11">FrontendPod2</text><text x="2244.450499093404" y="384.3822995235372" text-anchor="middle" font-size="9" fill="#1565c0">server</text><rect x="2064.0920404946078" y="443.8482957019717" width="100" height="70" rx="6" fill="#e3f2fd" stroke="#1565c0" stroke-width="1.5"/><rect x="2104.492040494608" y="451.8482957019717" width="19.2" height="8" rx="1" fill="none" stroke="#1565c0" stroke-width="1.5"/><rect x="2104.492040494608" y="461.8482957019717" width="19.2" height="8" rx="1" fill="none" stroke="#1565c0" stroke-width="1.5"/><rect x="2104.492040494608" y="471.8482957019717" width="19.2" height="8" rx="1" fill="none" stroke="#1565c0" stroke-width="1.5"/><text x="2114.0920404946078" y="505.84829570197167" text-anchor="middle" font-size="11">APIPod1</text><text x="2114.0920404946078" y="493.84829570197167" text-anchor="middle" font-size="9" fill="#1565c0">server</text><rect x="2194.450499093404" y="443.8482957019717" width="100" height="70" rx="6" fill="#e3f2fd" stroke="#1565c0" stroke-width="1.5"/><rect x="2234.850499093404" y="451.8482957019717" width="19.2" height="8" rx="1" fill="none" stroke="#1565c0" stroke-width="1.5"/><rect x="2234.850499093404" y="461.8482957019717" width="19.2" height="8" rx="1" fill="none" stroke="#1565c0" stroke-width="1.5"/><rect x="2234.850499093404" y="471.8482957019717" width="19.2" height="8" rx="1" fill="none" stroke="#1565c0" stroke-width="1.5"/><text x="2244.450499093404" y="505.84829570197167" text-anchor="middle" font-size="11">APIPod2</text><text x="2244.450499093404" y="493.84829570197167" text-anchor="middle" font-size="9" fill="#1565c0">server</text><rect x="2064.0920404946078" y="553.3142918804062" width="100" height="70" rx="6" fill="#e3f2fd" stroke="#1565c0" stroke-width="1.5"/><rect x="2104.492040494608" y="561.3142918804062" width="19.2" height="8" rx="1" fill="none" stroke="#1565c0" stroke-width="1.5"/><rect x="2104.492040494608" y="571.3142918804062" width="19.2" height="8" rx="1" fill="none" stroke="#1565c0" stroke-width="1.5"/><rect x="2104.492040494608" y="581.3142918804062" width="19.2" height="8" rx="1" fill="none" stroke="#1565c0" stroke-width="1.5"/><text x="2114.0920404946078" y="615.3142918804062" text-anchor="middle" font-size="11">WorkerPod</text><text x="2114.0920404946078" y="603.3142918804062" text-anchor="middle" font-size="9" fill="#1565c0">server</text><rect x="1565.2813878440977" y="521.7645990470744" width="256.66564096494506" height="122" rx="6" fill="#fafafa" stroke="#bbb" stroke-width="1.5" stroke-dasharray="6,4"/><text x="1573.2813878440977" y="541.3645990470744" font-weight="bold" font-size="13">Namespace: monitoring</text><rect x="1581.2813878440977" y="561.7645990470744" width="100" height="70" rx="6" fill="#e3f2fd" stroke="#1565c0" stroke-width="1.5"/><rect x="1621.6813878440978" y="569.7645990470744" width="19.2" height="8" rx="1" fill="none" stroke="#1565c0" stroke-width="1.5"/><rect x="1621.6813878440978" y="579.7645990470744" width="19.2" height="8" rx="1" fill="none" stroke="#1565c0" stroke-width="1.5"/><rect x="1621.6813878440978" y="589.7645990470744" width="19.2" height="8" rx="1" fill="none" stroke="#1565c0" stroke-width="1.5"/><text x="1631.2813878440977" y="623.7645990470744" text-anchor="middle" font-size="11">Prometheus</text><text x="1631.2813878440977" y="611.7645990470744" text-anchor="middle" font-size="9" fill="#1565c0">server</text><rect x="1705.9470288090429" y="561.7645990470744" width="100" height="70" rx="6" fill="#e3f2fd" stroke="#1565c0" stroke-width="1.5"/><rect x="1746.347028809043" y="569.7645990470744" width="19.2" height="8" rx="1" fill="none" stroke="#1565c0" stroke-width="1.5"/><rect x="1746.347028809043" y="579.7645990470744" width="19.2" height="8" rx="1" fill="none" stroke="#1565c0" stroke-width="1.5"/><rect x="1746.347028809043" y="589.7645990470744" width="19.2" height="8" rx="1" fill="none" stroke="#1565c0" stroke-width="1.5"/><text x="1755.9470288090429" y="623.7645990470744" text-anchor="middle" font-size="11">Grafana</text><text x="1755.9470288090429" y="611.7645990470744" text-anchor="middle" font-size="9" fill="#1565c0">server</text><rect x="2552.756922162693" y="40" width="259.0851251684408" height="227.21066271897305" rx="6" fill="#fafafa" stroke="#bbb" stroke-width="1.5" stroke-dasharray="6,4"/><text x="2560.756922162693" y="59.599999999999994" font-weight="bold" font-size="13">Managed Services</text><rect x="2568.756922162693" y="80" width="100" height="70" rx="6" fill="#e8f5e9" stroke="#2e7d32" stroke-width="1.5"/><ellipse cx="2618.756922162693" cy="94.2" rx="9.6" ry="5" fill="none" stroke="#2e7d32" stroke-width="1.5"/><line x1="2609.1569221626933" y1="94.2" x2="2609.1569221626933" y2="109.8" stroke="#2e7d32" stroke-width="1.5"/><line x1="2628.356922162693" y1="94.2" x2="2628.356922162693" y2="109.8" stroke="#2e7d32" stroke-width="1.5"/><ellipse cx="2618.756922162693" cy="109.8" rx="9.6" ry="5" fill="none" stroke="#2e7d32" stroke-width="1.5"/><text x="2618.756922162693" y="142" text-anchor="middle" font-size="11">CloudSQL</text><text x="2618.756922162693" y="130" text-anchor="middle" font-size="9" fill="#2e7d32">db</text><rect x="2695.842047331134" y="80" width="100" height="70" rx="6" fill="#fce4ec" stroke="#c62828" stroke-width="1.5"/><polyline points="2741.842047331134,92.4 2747.842047331134,100 2743.842047331134,104 2749.842047331134,111.6" fill="none" stroke="#c62828" stroke-width="2"/><text x="2745.842047331134" y="142" text-anchor="middle" font-size="11">Memorystore</text><text x="2745.842047331134" y="130" text-anchor="middle" font-size="9" fill="#c62828">cache</text><rect x="2568.756922162693" y="185.21066271897305" width="100" height="70" rx="6" fill="#f3e5f5" stroke="#6a1b9a" stroke-width="1.5"/><line x1="2610.756922162693" y1="207.21066271897305" x2="2623.5569221626934" y2="207.21066271897305" stroke="#6a1b9a" stroke-width="2"/><polyline points="2620.356922162693,202.21066271897305 2626.756922162693,207.21066271897305 2620.356922162693,212.21066271897305" fill="none" stroke="#6a1b9a" stroke-width="2"/><text x="2618.756922162693" y="247.21066271897305" text-anchor="middle" font-size="11">PubSub</text><text x="2618.756922162693" y="235.21066271897305" text-anchor="middle" font-size="9" fill="#6a1b9a">queue</text><rect x="2695.842047331134" y="185.21066271897305" width="100" height="70" rx="6" fill="#e0f2f1" stroke="#00695c" stroke-width="1.5"/><path d="M2737.842047331134,199.21066271897305 L2753.842047331134,199.21066271897305 L2752.242047331134,215.21066271897305 L2739.442047331134,215.21066271897305 Z" fill="none" stroke="#00695c" stroke-width="1.5"/><text x="2745.842047331134" y="247.21066271897305" text-anchor="middle" font-size="11">GCS</text><text x="2745.842047331134" y="235.21066271897305" text-anchor="middle" font-size="9" fill="#00695c">storage</text><path d="M140,75 L625.3484161097223,75" fill="none" stroke="#666" stroke-width="1.5" marker-end="url(#arrow)"/><path d="M725.3484161097223,77.12781130159694 L1565.2813878440977,112.87218869840306" fill="none" stroke="#666" stroke-width="1.5" marker-end="url(#arrow)"/><path d="M1665.2813878440977,140.49888401258437 L2064.0920404946078,343.88341551095283" fill="none" stroke="#666" stroke-width="1.5" marker-end="url(#arrow)"/><path d="M1665.2813878440977,146.0119980276669 L1889.6867141693529,285.19714877560205 Q2114.0920404946078,424.3822995235372 2154.271269794006,407.4301382658764 L2194.450499093404,390.4779770082156" fill="none" stroke="#666" stroke-width="1.5" marker-end="url(#arrow)"/><path d="M2114.0920404946078,404.3822995235372 L2114.0920404946078,443.8482957019717" fill="none" stroke="#666" stroke-width="1.5" marker-end="url(#arrow)"/><path d="M2244.450499093404,404.3822995235372 L2244.450499093404,443.8482957019717" fill="none" stroke="#666" stroke-width="1.5" marker-end="url(#arrow)"/><path d="M2141.833617215475,443.8482957019717 L2193.1420581544394,379.1152976127545 Q2244.450499093404,314.3822995235372 2406.6037106280482,228.00793296632963 L2568.756922162693,141.63356640912207" fill="none" stroke="#666" stroke-width="1.5" marker-end="url(#arrow)"/><path d="M2280.456507537527,443.8482957019717 L2582.75091371857,150" fill="none" stroke="#666" stroke-width="1.5" marker-end="url(#arrow)"/><path d="M2141.833617215475,443.8482957019717 L2193.1420581544394,379.1152976127545 Q2244.450499093404,314.3822995235372 2470.146273212269,224.63259673192186 L2695.842047331134,134.8828939403065" fill="none" stroke="#666" stroke-width="1.5" marker-end="url(#arrow)"/><path d="M2294.450499093404,451.64630016671174 L2456.6037106280482,363.4284814428424 Q2618.756922162693,275.210662718973 2668.4178263559934,212.6053313594865 L2718.0787305492936,150" fill="none" stroke="#666" stroke-width="1.5" marker-end="url(#arrow)"/><path d="M2141.833617215475,443.8482957019717 L2193.1420581544394,379.1152976127545 Q2244.450499093404,314.3822995235372 2406.6037106280482,273.58622336187466 L2568.756922162693,232.79014720021206" fill="none" stroke="#666" stroke-width="1.5" marker-end="url(#arrow)"/><path d="M2141.833617215475,553.3142918804062 L2193.1420581544394,488.58129379118895 Q2244.450499093404,423.8482957019717 2406.6037106280482,335.63047697810237 L2568.756922162693,247.412658254233" fill="none" stroke="#666" stroke-width="1.5" marker-end="url(#arrow)"/><path d="M2141.833617215475,553.3142918804062 L2193.1420581544394,488.58129379118895 Q2244.450499093404,423.8482957019717 2470.146273212269,332.1831023468583 L2695.842047331134,240.51790899174486" fill="none" stroke="#666" stroke-width="1.5" marker-end="url(#arrow)"/><path d="M1681.2813878440977,618.8236040681393 L1718.6142083265704,635.2941015576068 Q1755.9470288090429,651.7645990470744 1910.0195346518253,577.3767190314766 L2064.0920404946078,502.9888390158788" fill="none" stroke="#666" stroke-width="1.5" marker-end="url(#arrow)"/><path d="M1681.2813878440977,618.8236040681393 L1718.6142083265704,635.2941015576068 Q1755.9470288090429,651.7645990470744 1975.1987639512233,574.155734731911 L2194.450499093404,496.54687041674777" fill="none" stroke="#666" stroke-width="1.5" marker-end="url(#arrow)"/><path d="M1681.2813878440977,618.8236040681393 L1718.6142083265704,635.2941015576068 Q1755.9470288090429,651.7645990470744 1910.0195346518253,624.4685387846306 L2064.0920404946078,597.1724785221868" fill="none" stroke="#666" stroke-width="1.5" marker-end="url(#arrow)"/></svg>