<svg xmlns="http://www.w3.org/2000/svg" width="2352.8203987197244" height="668.2922424019891" viewBox="0 0 2352.8203987197244 668.2922424019891"><rect width="100%" height="100%" fill="white"/><style>text { font-family: sans-serif; font-size: 12px; fill: #333; }</style><defs><marker id="arrow" viewBox="0 0 10 10" refX="10" refY="5" markerWidth="8" markerHeight="8" orient="auto"><polygon points="0,1 10,5 0,9" fill="#666"/></marker></defs><rect x="40" y="40" width="100" height="70" rx="6" fill="#fafafa" stroke="#616161" stroke-width="1.5"/><circle cx="90" cy="54" r="5" fill="none" stroke="#616161" stroke-width="1.5"/><line x1="90" y1="59" x2="90" y2="68" stroke="#616161" stroke-width="1.5"/><line x1="83" y1="63" x2="97" y2="63" stroke="#616161" stroke-width="1.5"/><text x="90" y="102" text-anchor="middle" font-size="11">User</text><text x="90" y="90" text-anchor="middle" font-size="9" fill="#616161">user</text><rect x="474.4369055912318" y="40" width="100" height="70" rx="6" fill="#e8eaf6" stroke="#283593" stroke-width="1.5"/><polygon points="524.4369055912318,54 531.3969055912319,58 531.3969055912319,66 524.4369055912318,70 517.4769055912318,66 517.4769055912318,58" fill="none" stroke="#283593" stroke-width="1.5"/><text x="524.4369055912318" y="102" text-anchor="middle" font-size="11">DNS</text><text x="524.4369055912318" y="90" text-anchor="middle" font-size="9" fill="#283593">network</text><rect x="1222.8306931843454" y="40" width="727.9137640037638" height="588.2922424019891" rx="6" fill="#fafafa" stroke="#bbb" stroke-width="1.5" stroke-dasharray="6,4"/><text x="1230.8306931843454" y="59.599999999999994" font-weight="bold" font-size="13">Kubernetes Cluster</text><rect x="1238.8306931843454" y="80" width="100" height="70" rx="6" fill="#fff3e0" stroke="#e65100" stroke-width="1.5"/><circle cx="1288.8306931843454" cy="102" r="8" fill="none" stroke="#e65100" stroke-width="1.5"/><line x1="1280.8306931843454" y1="102" x2="1274.4306931843453" y2="96" stroke="#e65100" stroke-width="1.5"/><line x1="1280.8306931843454" y1="102" x2="1274.4306931843453" y2="108" stroke="#e65100" stroke-width="1.5"/><text x="1288.8306931843454" y="142" text-anchor="middle" font-size="11">Ingress</text><text x="1288.8306931843454" y="130" text-anchor="middle" font-size="9" fill="#e65100">lb</text><rect x="1669.9330325013077" y="268.9825382163052" width="264.8114246868015" height="347.309704185684" rx="6" fill="#fafafa" stroke="#bbb" stroke-width="1.5" stroke-dasharray="6,4"/><text x="1677.9330325013077" y="288.58253821630524" font-weight="bold" font-size="13">Namespace: production</text><rect x="1685.9330325013077" y="308.9825382163052" width="100" height="70" rx="6" fill="#e3f2fd" stroke="#1565c0" stroke-width="1.5"/><rect x="1726.3330325013078" y="316.9825382163052" width="19.2" height="8" rx="1" fill="none" stroke="#1565c0" stroke-width="1.5"/><rect x="1726.3330325013078" y="326.9825382163052" width="19.2" height="8" rx="1" fill="none" stroke="#1565c0" stroke-width="1.5"/><rect x="1726.3330325013078" y="336.9825382163052" width="19.2" height="8" rx="1" fill="none" stroke="#1565c0" stroke-width="1.5"/><text x="1735.9330325013077" y="370.9825382163052" text-anchor="middle" font-size="11">FrontendPod1</text><text x="1735.9330325013077" y="358.9825382163052" text-anchor="middle" font-size="9" fill="#1565c0">server</text><rect x="1818.7444571881092" y="308.9825382163052" width="100" height="70" rx="6" fill="#e3f2fd" stroke="#1565c0" stroke-width="1.5"/><rect x="1859.1444571881093" y="316.9825382163052" width="19.2" height="8" rx="1" fill="none" stroke="#1565c0" stroke-width="1.5"/><rect x="1859.1444571881093" y="326.9825382163052" width="19.2" height="8" rx="1" fill="none" stroke="#1565c0" stroke-width="1.5"/><rect x="1859.1444571881093" y="336.9825382163052" width="19.2" height="8" rx="1" fill="none" stroke="#1565c0" stroke-width="1.5"/><text x="1868.7444571881092" y="370.9825382163052" text-anchor="middle" font-size="11">FrontendPod2</text><text x="1868.7444571881092" y="358.9825382163052" text-anchor="middle" font-size="9" fill="#1565c0">server</text><rect x="1685.9330325013077" y="421.63739030914724" width="100" height="70" rx="6" fill="#e3f2fd" stroke="#1565c0" stroke-width="1.5"/><rect x="1726.3330325013078" y="429.63739030914724" width="19.2" height="8" rx="1" fill="none" stroke="#1565c0" stroke-width="1.5"/><rect x="1726.3330325013078" y="439.63739030914724" width="19.2" height="8" rx="1" fill="none" stroke="#1565c0" stroke-width="1.5"/><rect x="1726.3330325013078" y="449.63739030914724" width="19.2" height="8" rx="1" fill="none" stroke="#1565c0" stroke-width="1.5"/><text x="1735.9330325013077" y="483.63739030914724" text-anchor="middle" font-size="11">APIPod1</text><text x="1735.9330325013077" y="471.63739030914724" text-anchor="middle" font-size="9" fill="#1565c0">server</text><rect x="1818.7444571881092" y="421.63739030914724" width="100" height="70" rx="6" fill="#e3f2fd" stroke="#1565c0" stroke-width="1.5"/><rect x="1859.1444571881093" y="429.63739030914724" width="19.2" height="8" rx="1" fill="none" stroke="#1565c0" stroke-width="1.5"/><rect x="1859.1444571881093" y="439.63739030914724" width="19.2" height="8" rx="1" fill="none" stroke="#1565c0" stroke-width="1.5"/><rect x="1859.1444571881093" y="449.63739030914724" width="19.2" height="8" rx="1" fill="none" stroke="#1565c0" stroke-width="1.5"/><text x="1868.7444571881092" y="483.63739030914724" text-anchor="middle" font-size="11">APIPod2</text><text x="1868.7444571881092" y="471.63739030914724" text-anchor="middle" font-size="9" fill="#1565c0">server</text><rect x="1685.9330325013077" y="534.2922424019891" width="100" height="70" rx="6" fill="#e3f2fd" stroke="#1565c0" stroke-width="1.5"/><rect x="1726.3330325013078" y="542.2922424019891" width="19.2" height="8" rx="1" fill="none" stroke="#1565c0" stroke-width="1.5"/><rect x="1726.3330325013078" y="552.2922424019891" width="19.2" height="8" rx="1" fill="none" stroke="#1565c0" stroke-width="1.5"/><rect x="1726.3330325013078" y="562.2922424019891" width="19.2" height="8" rx="1" fill="none" stroke="#1565c0" stroke-width="1.5"/><text x="1735.9330325013077" y="596.2922424019891" text-anchor="middle" font-size="11">WorkerPod</text><text x="1735.9330325013077" y="584.2922424019891" text-anchor="middle" font-size="9" fill="#1565c0">server</text><rect x="1238.8306931843454" y="470.96507643261043" width="258.77280526758625" height="122" rx="6" fill="#fafafa" stroke="#bbb" stroke-width="1.5" stroke-dasharray="6,4"/><text x="1246.8306931843454" y="490.56507643261045" font-weight="bold" font-size="13">Namespace: monitoring</text><rect x="1254.8306931843454" y="510.96507643261043" width="100" height="70" rx="6" fill="#e3f2fd" stroke="#1565c0" stroke-width="1.5"/><rect x="1295.2306931843455" y="518.9650764326104" width="19.2" height="8" rx="1" fill="none" stroke="#1565c0" stroke-width="1.5"/><rect x="1295.2306931843455" y="528.9650764326104" width="19.2" height="8" rx="1" fill="none" stroke="#1565c0" stroke-width="1.5"/><rect x="1295.2306931843455" y="538.9650764326104" width="19.2" height="8" rx="1" fill="none" stroke="#1565c0" stroke-width="1.5"/><text x="1304.8306931843454" y="572.9650764326104" text-anchor="middle" font-size="11">Prometheus</text><text x="1304.8306931843454" y="560.9650764326104" text-anchor="middle" font-size="9" fill="#1565c0">server</text><rect x="1381.6034984519315" y="510.96507643261043" width="100" height="70" rx="6" fill="#e3f2fd" stroke="#1565c0" stroke-width="1.5"/><rect x="1422.0034984519316" y="518.9650764326104" width="19.2" height="8" rx="1" fill="none" stroke="#1565c0" stroke-width="1.5"/><rect x="1422.0034984519316" y="528.9650764326104" width="19.2" height="8" rx="1" fill="none" stroke="#1565c0" stroke-width="1.5"/><rect x="1422.0034984519316" y="538.9650764326104" width="19.2" height="8" rx="1" fill="none" stroke="#1565c0" stroke-width="1.5"/><text x="1431.6034984519315" y="572.9650764326104" text-anchor="middle" font-size="11">Grafana</text><text x="1431.6034984519315" y="560.9650764326104" text-anchor="middle" font-size="9" fill="#1565c0">server</text><rect x="2051.756453424881" y="40" width="261.0639452948436" height="229.7831288832967" rx="6" fill="#fafafa" stroke="#bbb" stroke-width="1.5" stroke-dasharray="6,4"/><text x="2059.756453424881" y="59.599999999999994" font-weight="bold" font-size="13">Managed Services</text><rect x="2067.756453424881" y="80" width="100" height="70" rx="6" fill="#e8f5e9" stroke="#2e7d32" stroke-width="1.5"/><ellipse cx="2117.756453424881" cy="94.2" rx="9.6" ry="5" fill="none" stroke="#2e7d32" stroke-width="1.5"/><line x1="2108.156453424881" y1="94.2" x2="2108.156453424881" y2="109.8" stroke="#2e7d32" stroke-width="1.5"/><line x1="2127.356453424881" y1="94.2" x2="2127.356453424881" y2="109.8" stroke="#2e7d32" stroke-width="1.5"/><ellipse cx="2117.756453424881" cy="109.8" rx="9.6" ry="5" fill="none" stroke="#2e7d32" stroke-width="1.5"/><text x="2117.756453424881" y="142" text-anchor="middle" font-size="11">CloudSQL</text><text x="2117.756453424881" y="130" text-anchor="middle" font-size="9" fill="#2e7d32">db</text><rect x="2196.8203987197244" y="80" width="100" height="70" rx="6" fill="#fce4ec" stroke="#c62828" stroke-width="1.5"/><polyline points="2242.8203987197244,92.4 2248.8203987197244,100 2244.8203987197244,104 2250.8203987197244,111.6" fill="none" stroke="#c62828" stroke-width="2"/><text x="2246.8203987197244" y="142" text-anchor="middle" font-size="11">Memorystore</text><text x="2246.8203987197244" y="130" text-anchor="middle" font-size="9" fill="#c62828">cache</text><rect x="2067.756453424881" y="187.7831288832967" width="100" height="70" rx="6" fill="#f3e5f5" stroke="#6a1b9a" stroke-width="1.5"/><line x1="2109.756453424881" y1="209.7831288832967" x2="2122.556453424881" y2="209.7831288832967" stroke="#6a1b9a" stroke-width="2"/><polyline points="2119.356453424881,204.7831288832967 2125.756453424881,209.7831288832967 2119.356453424881,214.7831288832967" fill="none" stroke="#6a1b9a" stroke-width="2"/><text x="2117.756453424881" y="249.78312888329674" text-anchor="middle" font-size="11">PubSub</text><text x="2117.756453424881" y="237.78312888329674" text-anchor="middle" font-size="9" fill="#6a1b9a">queue</text><rect x="2196.8203987197244" y="187.7831288832967" width="100" height="70" rx="6" fill="#e0f2f1" stroke="#00695c" stroke-width="1.5"/><path d="M2238.8203987197244,201.7831288832967 L2254.8203987197244,201.7831288832967 L2253.2203987197245,217.7831288832967 L2240.4203987197243,217.7831288832967 Z" fill="none" stroke="#00695c" stroke-width="1.5"/><text x="2246.8203987197244" y="249.78312888329674" text-anchor="middle" font-size="11">GCS</text><text x="2246.8203987197244" y="237.78312888329674" text-anchor="middle" font-size="9" fill="#00695c">storage</text><path d="M140,75 L474.43690559123183,75" fill="none" stroke="#666" stroke-width="1.5" marker-end="url(#arrow)"/><path d="M574.4369055912318,77.61645245220727 L1238.8306931843454,112.38354754779273" fill="none" stroke="#666" stroke-width="1.5" marker-end="url(#arrow)"/><path d="M1338.8306931843454,140.6073965712326 L1685.9330325013077,318.37514164507263" fill="none" stroke="#666" stroke-width="1.5" marker-end="url(#arrow)"/><path d="M1338.8306931843454,146.75811366253922 L1537.3818628428266,272.87032593942223 Q1735.9330325013077,398.9825382163052 1777.3387448447083,381.83556321579266 L1818.7444571881092,364.6885882152801" fill="none" stroke="#666" stroke-width="1.5" marker-end="url(#arrow)"/><path d="M1735.9330325013077,378.9825382163052 L1735.9330325013077,421.63739030914724" fill="none" stroke="#666" stroke-width="1.5" marker-end="url(#arrow)"/><path d="M1868.7444571881092,378.9825382163052 L1868.7444571881092,421.63739030914724" fill="none" stroke="#666" stroke-width="1.5" marker-end="url(#arrow)"/><path d="M1785.9330325013077,434.931858488822 L1827.3387448447083,416.95719835256364 Q1868.7444571881092,398.9825382163052 1977.9054627533815,274.4912691081526 L2087.0664683186537,150" fill="none" stroke="#666" stroke-width="1.5" marker-end="url(#arrow)"/><path d="M1890.492299864081,421.63739030914724 L1914.618378526095,382.8099642627262 Q1938.7444571881092,343.9825382163052 1993.250455306495,283.382833549801 Q2047.7564534248809,222.7831288832967 2071.391038329849,186.39156444164837 L2095.025623234817,150" fill="none" stroke="#666" stroke-width="1.5" marker-end="url(#arrow)"/><path d="M1763.6590410600336,421.63739030914724 L1816.2017491240713,355.3099642627262 Q1868.7444571881092,288.9825382163052 1993.250455306495,283.382833549801 Q2117.756453424881,277.78312888329674 2168.413406847927,213.89156444164837 L2219.070360270973,150" fill="none" stroke="#666" stroke-width="1.5" marker-end="url(#arrow)"/><path d="M1898.9168348614235,421.63739030914724 L2008.3366441431522,294.710259596222 Q2117.756453424881,167.7831288832967 2157.2884260723026,151.61578483928048 L2196.8203987197244,135.44844079526428" fill="none" stroke="#666" stroke-width="1.5" marker-end="url(#arrow)"/><path d="M1763.6590410600336,421.63739030914724 L1816.2017491240713,355.3099642627262 Q1868.7444571881092,288.9825382163052 1968.250455306495,262.5290403925893 L2067.756453424881,236.07554256887337" fill="none" stroke="#666" stroke-width="1.5" marker-end="url(#arrow)"/><path d="M1785.9330325013077,547.586710581664 L1827.3387448447083,529.6120504454057 Q1868.7444571881092,511.63739030914724 1978.164266469838,384.710259596222 L2087.5840757515666,257.78312888329674" fill="none" stroke="#666" stroke-width="1.5" marker-end="url(#arrow)"/><path d="M1763.6590410600336,534.2922424019891 L1816.2017491240713,467.9648163555682 Q1868.7444571881092,401.63739030914724 2032.7824279539168,324.0368691327411 L2196.8203987197244,246.43634795633506" fill="none" stroke="#666" stroke-width="1.5" marker-end="url(#arrow)"/><path d="M1354.8306931843454,567.6574259408147 L1393.2170958181384,584.3112511867125 Q1431.6034984519315,600.9650764326104 1558.7682654766195,540.657434460127 L1685.9330325013077,480.3497924876434" fill="none" stroke="#666" stroke-width="1.5" marker-end="url(#arrow)"/><path d="M1354.8306931843454,567.6574259408147 L1393.2170958181384,584.3112511867125 Q1431.6034984519315,600.9650764326104 1625.1739778200204,537.055303553454 L1818.7444571881092,473.14553067429745" fill="none" stroke="#666" stroke-width="1.5" marker-end="url(#arrow)"/><path d="M1354.8306931843454,524.2727269244061 L1393.2170958181384,507.6189016785083 Q1431.6034984519315,490.96507643261043 1558.7682654766195,523.6942554894945 L1685.9330325013077,556.4234345463785" fill="none" stroke="#666" stroke-width="1.5" marker-end="url(#arrow)"/></svg>