<svg xmlns="http://www.w3.org/2000/svg" width="1512.3" height="886.6" viewBox="0 0 1512.3 886.6"><style>text { font-family: sans-serif; font-size: 12px; fill: #333; }</style><defs><marker id="arrow" viewBox="0 0 10 10" refX="10" refY="5" markerWidth="8" markerHeight="8" orient="auto"><polygon points="0,1 10,5 0,9" fill="#666"/></marker></defs><rect x="40" y="264.8" width="100" height="70" rx="6" fill="#fafafa" stroke="#616161" stroke-width="1.5"/><circle cx="90" cy="278.8" r="5" fill="none" stroke="#616161" stroke-width="1.5"/><line x1="90" y1="283.8" x2="90" y2="292.8" stroke="#616161" stroke-width="1.5"/><line x1="83" y1="287.8" x2="97" y2="287.8" stroke="#616161" stroke-width="1.5"/><text x="90" y="326.8" text-anchor="middle" font-size="11">User</text><text x="90" y="314.8" text-anchor="middle" font-size="9" fill="#616161">user</text><rect x="379.1" y="264.8" width="268" height="122" rx="6" fill="#fafafa" stroke="#bbb" stroke-width="1.5" stroke-dasharray="6,4"/><text x="387.1" y="284.40000000000003" font-weight="bold" font-size="13">Frontend</text><rect x="395.1" y="304.8" width="100" height="70" rx="6" fill="#fff8e1" stroke="#f9a825" stroke-width="1.5"/><circle cx="440.1" cy="328.8" r="6" fill="none" stroke="#f9a825" stroke-width="1.5"/><circle cx="445.1" cy="323.8" r="7" fill="none" stroke="#f9a825" stroke-width="1.5"/><circle cx="450.1" cy="328.8" r="6" fill="none" stroke="#f9a825" stroke-width="1.5"/><text x="445.1" y="366.8" text-anchor="middle" font-size="11">CDN</text><text x="445.1" y="354.8" text-anchor="middle" font-size="9" fill="#f9a825">cdn</text><rect x="531.1" y="304.8" width="100" height="70" rx="6" fill="#e3f2fd" stroke="#1565c0" stroke-width="1.5"/><rect x="571.5" y="312.8" width="19.2" height="8" rx="1" fill="none" stroke="#1565c0" stroke-width="1.5"/><rect x="571.5" y="322.8" width="19.2" height="8" rx="1" fill="none" stroke="#1565c0" stroke-width="1.5"/><rect x="571.5" y="332.8" width="19.2" height="8" rx="1" fill="none" stroke="#1565c0" stroke-width="1.5"/><text x="581.1" y="366.8" text-anchor="middle" font-size="11">SPA</text><text x="581.1" y="354.8" text-anchor="middle" font-size="9" fill="#1565c0">server</text><rect x="806.7" y="264.8" width="277" height="467" rx="6" fill="#fafafa" stroke="#bbb" stroke-width="1.5" stroke-dasharray="6,4"/><text x="814.7" y="284.40000000000003" font-weight="bold" font-size="13">API Layer</text><rect x="822.7" y="477.3" width="100" height="70" rx="6" fill="#fff3e0" stroke="#e65100" stroke-width="1.5"/><circle cx="872.7" cy="499.3" r="8" fill="none" stroke="#e65100" stroke-width="1.5"/><line x1="864.7" y1="499.3" x2="858.3000000000001" y2="493.3" stroke="#e65100" stroke-width="1.5"/><line x1="864.7" y1="499.3" x2="858.3000000000001" y2="505.3" stroke="#e65100" stroke-width="1.5"/><text x="872.7" y="539.3" text-anchor="middle" font-size="11">Gateway</text><text x="872.7" y="527.3" text-anchor="middle" font-size="9" fill="#e65100">lb</text><rect x="967.7" y="649.8" width="100" height="70" rx="6" fill="#e3f2fd" stroke="#1565c0" stroke-width="1.5"/><rect x="1008.1" y="657.8" width="19.2" height="8" rx="1" fill="none" stroke="#1565c0" stroke-width="1.5"/><rect x="1008.1" y="667.8" width="19.2" height="8" rx="1" fill="none" stroke="#1565c0" stroke-width="1.5"/><rect x="1008.1" y="677.8" width="19.2" height="8" rx="1" fill="none" stroke="#1565c0" stroke-width="1.5"/><text x="1017.7" y="711.8" text-anchor="middle" font-size="11">AuthService</text><text x="1017.7" y="699.8" text-anchor="middle" font-size="9" fill="#1565c0">server</text><rect x="967.7" y="534.8" width="100" height="70" rx="6" fill="#e3f2fd" stroke="#1565c0" stroke-width="1.5"/><rect x="1008.1" y="542.8" width="19.2" height="8" rx="1" fill="none" stroke="#1565c0" stroke-width="1.5"/><rect x="1008.1" y="552.8" width="19.2" height="8" rx="1" fill="none" stroke="#1565c0" stroke-width="1.5"/><rect x="1008.1" y="562.8" width="19.2" height="8" rx="1" fill="none" stroke="#1565c0" stroke-width="1.5"/><text x="1017.7" y="596.8" text-anchor="middle" font-size="11">UserService</text><text x="1017.7" y="584.8" text-anchor="middle" font-size="9" fill="#1565c0">server</text><rect x="967.7" y="419.8" width="100" height="70" rx="6" fill="#e3f2fd" stroke="#1565c0" stroke-width="1.5"/><rect x="1008.1" y="427.8" width="19.2" height="8" rx="1" fill="none" stroke="#1565c0" stroke-width="1.5"/><rect x="1008.1" y="437.8" width="19.2" height="8" rx="1" fill="none" stroke="#1565c0" stroke-width="1.5"/><rect x="1008.1" y="447.8" width="19.2" height="8" rx="1" fill="none" stroke="#1565c0" stroke-width="1.5"/><text x="1017.7" y="481.8" text-anchor="middle" font-size="11">OrderService</text><text x="1017.7" y="469.8" text-anchor="middle" font-size="9" fill="#1565c0">server</text><rect x="967.7" y="304.8" width="100" height="70" rx="6" fill="#e3f2fd" stroke="#1565c0" stroke-width="1.5"/><rect x="1008.1" y="312.8" width="19.2" height="8" rx="1" fill="none" stroke="#1565c0" stroke-width="1.5"/><rect x="1008.1" y="322.8" width="19.2" height="8" rx="1" fill="none" stroke="#1565c0" stroke-width="1.5"/><rect x="1008.1" y="332.8" width="19.2" height="8" rx="1" fill="none" stroke="#1565c0" stroke-width="1.5"/><text x="1017.7" y="366.8" text-anchor="middle" font-size="11">ProductService</text><text x="1017.7" y="354.8" text-anchor="middle" font-size="9" fill="#1565c0">server</text><rect x="1224.3" y="536.6" width="248" height="310" rx="6" fill="#fafafa" stroke="#bbb" stroke-width="1.5" stroke-dasharray="6,4"/><text x="1232.3" y="556.2" font-weight="bold" font-size="13">Data Layer</text><rect x="1240.3" y="576.6" width="100" height="70" rx="6" fill="#e8f5e9" stroke="#2e7d32" stroke-width="1.5"/><ellipse cx="1290.3" cy="590.8000000000001" rx="9.6" ry="5" fill="none" stroke="#2e7d32" stroke-width="1.5"/><line x1="1280.7" y1="590.8000000000001" x2="1280.7" y2="606.4" stroke="#2e7d32" stroke-width="1.5"/><line x1="1299.8999999999999" y1="590.8000000000001" x2="1299.8999999999999" y2="606.4" stroke="#2e7d32" stroke-width="1.5"/><ellipse cx="1290.3" cy="606.4" rx="9.6" ry="5" fill="none" stroke="#2e7d32" stroke-width="1.5"/><text x="1290.3" y="638.6" text-anchor="middle" font-size="11">UserDB</text><text x="1290.3" y="626.6" text-anchor="middle" font-size="9" fill="#2e7d32">db</text><rect x="1356.3" y="576.6" width="100" height="70" rx="6" fill="#e8f5e9" stroke="#2e7d32" stroke-width="1.5"/><ellipse cx="1406.3" cy="590.8000000000001" rx="9.6" ry="5" fill="none" stroke="#2e7d32" stroke-width="1.5"/><line x1="1396.7" y1="590.8000000000001" x2="1396.7" y2="606.4" stroke="#2e7d32" stroke-width="1.5"/><line x1="1415.8999999999999" y1="590.8000000000001" x2="1415.8999999999999" y2="606.4" stroke="#2e7d32" stroke-width="1.5"/><ellipse cx="1406.3" cy="606.4" rx="9.6" ry="5" fill="none" stroke="#2e7d32" stroke-width="1.5"/><text x="1406.3" y="638.6" text-anchor="middle" font-size="11">OrderDB</text><text x="1406.3" y="626.6" text-anchor="middle" font-size="9" fill="#2e7d32">db</text><rect x="1240.3" y="670.6" width="100" height="70" rx="6" fill="#e8f5e9" stroke="#2e7d32" stroke-width="1.5"/><ellipse cx="1290.3" cy="684.8000000000001" rx="9.6" ry="5" fill="none" stroke="#2e7d32" stroke-width="1.5"/><line x1="1280.7" y1="684.8000000000001" x2="1280.7" y2="700.4" stroke="#2e7d32" stroke-width="1.5"/><line x1="1299.8999999999999" y1="684.8000000000001" x2="1299.8999999999999" y2="700.4" stroke="#2e7d32" stroke-width="1.5"/><ellipse cx="1290.3" cy="700.4" rx="9.6" ry="5" fill="none" stroke="#2e7d32" stroke-width="1.5"/><text x="1290.3" y="732.6" text-anchor="middle" font-size="11">ProductDB</text><text x="1290.3" y="720.6" text-anchor="middle" font-size="9" fill="#2e7d32">db</text><rect x="1356.3" y="670.6" width="100" height="70" rx="6" fill="#fce4ec" stroke="#c62828" stroke-width="1.5"/><polyline points="1402.3,683 1408.3,690.6 1404.3,694.6 1410.3,702.2" fill="none" stroke="#c62828" stroke-width="2"/><text x="1406.3" y="732.6" text-anchor="middle" font-size="11">Redis</text><text x="1406.3" y="720.6" text-anchor="middle" font-size="9" fill="#c62828">cache</text><rect x="1240.3" y="764.6" width="100" height="70" rx="6" fill="#f3e5f5" stroke="#6a1b9a" stroke-width="1.5"/><line x1="1282.3" y1="786.6" x2="1295.1" y2="786.6" stroke="#6a1b9a" stroke-width="2"/><polyline points="1291.8999999999999,781.6 1298.3,786.6 1291.8999999999999,791.6" fill="none" stroke="#6a1b9a" stroke-width="2"/><text x="1290.3" y="826.6" text-anchor="middle" font-size="11">MessageQueue</text><text x="1290.3" y="814.6" text-anchor="middle" font-size="9" fill="#6a1b9a">queue</text><rect x="1224.3" y="40" width="132" height="122" rx="6" fill="#fafafa" stroke="#bbb" stroke-width="1.5" stroke-dasharray="6,4"/><text x="1232.3" y="59.599999999999994" font-weight="bold" font-size="13">Storage</text><rect x="1240.3" y="80" width="100" height="70" rx="6" fill="#e0f2f1" stroke="#00695c" stroke-width="1.5"/><path d="M1282.3,94 L1298.3,94 L1296.7,110 L1283.8999999999999,110 Z" fill="none" stroke="#00695c" stroke-width="1.5"/><text x="1290.3" y="142" text-anchor="middle" font-size="11">ObjectStorage</text><text x="1290.3" y="130" text-anchor="middle" font-size="9" fill="#00695c">storage</text><path d="M140,305.43221627710506 L395.1,334.16778372289497" fill="none" stroke="#666" stroke-width="1.5" marker-end="url(#arrow)"/><path d="M495.1,339.8 L531.1,339.8" fill="none" stroke="#666" stroke-width="1.5" marker-end="url(#arrow)"/><path d="M631.1,369.3781893004115 L822.7,482.72181069958845" fill="none" stroke="#666" stroke-width="1.5" marker-end="url(#arrow)"/><rect x="687.9000000000001" y="408.04999999999995" width="78" height="16" rx="3" fill="white" opacity="0.9"/><text x="726.9000000000001" y="420.04999999999995" text-anchor="middle" font-size="11" fill="#666">API calls</text><path d="M902.1202898550725,547.3 L988.2797101449275,649.8" fill="none" stroke="#666" stroke-width="1.5" marker-end="url(#arrow)"/><rect x="928.2" y="580.55" width="34" height="16" rx="3" fill="white" opacity="0.9"/><text x="945.2" y="592.55" text-anchor="middle" font-size="11" fill="#666">認証</text><path d="M922.7,532.1275862068965 L967.7,549.9724137931034" fill="none" stroke="#666" stroke-width="1.5" marker-end="url(#arrow)"/><path d="M922.7,492.47241379310344 L967.7,474.6275862068965" fill="none" stroke="#666" stroke-width="1.5" marker-end="url(#arrow)"/><path d="M902.1202898550725,477.29999999999995 L988.2797101449275,374.8" fill="none" stroke="#666" stroke-width="1.5" marker-end="url(#arrow)"/><path d="M1067.7,671.373734409391 L1240.3,625.026265590609" fill="none" stroke="#666" stroke-width="1.5" marker-end="url(#arrow)"/><path d="M1067.7,577.4669112252384 L1240.3,603.9330887747616" fill="none" stroke="#666" stroke-width="1.5" marker-end="url(#arrow)"/><path d="M1062.7472143531634,489.8 L1176.5236071765817,578.2 Q1290.3,666.6 1323.3,650.9534482758621 L1356.3,635.3068965517242" fill="none" stroke="#666" stroke-width="1.5" marker-end="url(#arrow)"/><path d="M1061.8169977924945,374.8 L1211.0584988962473,493.20000000000005 Q1360.3,611.6 1338.331914893617,641.1 L1316.363829787234,670.6" fill="none" stroke="#666" stroke-width="1.5" marker-end="url(#arrow)"/><path d="M1065.511004784689,489.8 L1212.9055023923445,597.7 Q1360.3,705.6 1338.331914893617,735.1 L1316.363829787234,764.6" fill="none" stroke="#666" stroke-width="1.5" marker-end="url(#arrow)"/><path d="M1046.8952264381885,374.8 L1168.5976132190942,520.7 Q1290.3,666.6 1323.3,677.6948275862069 L1356.3,688.7896551724139" fill="none" stroke="#666" stroke-width="1.5" marker-end="url(#arrow)"/><path d="M1039.004347826087,534.8 L1063.3521739130435,494.79999999999995 Q1087.7,454.8 1178.5659211300765,302.4 L1269.431842260153,150" fill="none" stroke="#666" stroke-width="1.5" marker-end="url(#arrow)"/></svg>