<svg xmlns="http://www.w3.org/2000/svg" width="1872" height="773.75" viewBox="0 0 1872 773.75"><style>text { font-family: sans-serif; font-size: 12px; fill: #333; }</style><defs><marker id="arrow" viewBox="0 0 10 10" refX="10" refY="5" markerWidth="8" markerHeight="8" orient="auto"><polygon points="0,1 10,5 0,9" fill="#666"/></marker></defs><rect x="40" y="266.75" width="100" height="70" rx="6" fill="#fafafa" stroke="#616161" stroke-width="1.5"/><circle cx="90" cy="280.75" r="5" fill="none" stroke="#616161" stroke-width="1.5"/><line x1="90" y1="285.75" x2="90" y2="294.75" stroke="#616161" stroke-width="1.5"/><line x1="83" y1="289.75" x2="97" y2="289.75" stroke="#616161" stroke-width="1.5"/><text x="90" y="328.75" text-anchor="middle" font-size="11">User</text><text x="90" y="316.75" text-anchor="middle" font-size="9" fill="#616161">user</text><rect x="383" y="266.75" width="268" height="122" rx="6" fill="#fafafa" stroke="#bbb" stroke-width="1.5" stroke-dasharray="6,4"/><text x="391" y="286.35" font-weight="bold" font-size="13">Frontend</text><rect x="399" y="306.75" width="100" height="70" rx="6" fill="#fff8e1" stroke="#f9a825" stroke-width="1.5"/><circle cx="444" cy="330.75" r="6" fill="none" stroke="#f9a825" stroke-width="1.5"/><circle cx="449" cy="325.75" r="7" fill="none" stroke="#f9a825" stroke-width="1.5"/><circle cx="454" cy="330.75" r="6" fill="none" stroke="#f9a825" stroke-width="1.5"/><text x="449" y="368.75" text-anchor="middle" font-size="11">CDN</text><text x="449" y="356.75" text-anchor="middle" font-size="9" fill="#f9a825">cdn</text><rect x="535" y="306.75" width="100" height="70" rx="6" fill="#e3f2fd" stroke="#1565c0" stroke-width="1.5"/><rect x="575.4" y="314.75" width="19.2" height="8" rx="1" fill="none" stroke="#1565c0" stroke-width="1.5"/><rect x="575.4" y="324.75" width="19.2" height="8" rx="1" fill="none" stroke="#1565c0" stroke-width="1.5"/><rect x="575.4" y="334.75" width="19.2" height="8" rx="1" fill="none" stroke="#1565c0" stroke-width="1.5"/><text x="585" y="368.75" text-anchor="middle" font-size="11">SPA</text><text x="585" y="356.75" text-anchor="middle" font-size="9" fill="#1565c0">server</text><rect x="814.5" y="266.75" width="277" height="467" rx="6" fill="#fafafa" stroke="#bbb" stroke-width="1.5" stroke-dasharray="6,4"/><text x="822.5" y="286.35" font-weight="bold" font-size="13">API Layer</text><rect x="830.5" y="479.25" width="100" height="70" rx="6" fill="#fff3e0" stroke="#e65100" stroke-width="1.5"/><circle cx="880.5" cy="501.25" r="8" fill="none" stroke="#e65100" stroke-width="1.5"/><line x1="872.5" y1="501.25" x2="866.1" y2="495.25" stroke="#e65100" stroke-width="1.5"/><line x1="872.5" y1="501.25" x2="866.1" y2="507.25" stroke="#e65100" stroke-width="1.5"/><text x="880.5" y="541.25" text-anchor="middle" font-size="11">Gateway</text><text x="880.5" y="529.25" text-anchor="middle" font-size="9" fill="#e65100">lb</text><rect x="975.5" y="651.75" width="100" height="70" rx="6" fill="#e3f2fd" stroke="#1565c0" stroke-width="1.5"/><rect x="1015.9" y="659.75" width="19.2" height="8" rx="1" fill="none" stroke="#1565c0" stroke-width="1.5"/><rect x="1015.9" y="669.75" width="19.2" height="8" rx="1" fill="none" stroke="#1565c0" stroke-width="1.5"/><rect x="1015.9" y="679.75" width="19.2" height="8" rx="1" fill="none" stroke="#1565c0" stroke-width="1.5"/><text x="1025.5" y="713.75" text-anchor="middle" font-size="11">AuthService</text><text x="1025.5" y="701.75" text-anchor="middle" font-size="9" fill="#1565c0">server</text><rect x="975.5" y="536.75" width="100" height="70" rx="6" fill="#e3f2fd" stroke="#1565c0" stroke-width="1.5"/><rect x="1015.9" y="544.75" width="19.2" height="8" rx="1" fill="none" stroke="#1565c0" stroke-width="1.5"/><rect x="1015.9" y="554.75" width="19.2" height="8" rx="1" fill="none" stroke="#1565c0" stroke-width="1.5"/><rect x="1015.9" y="564.75" width="19.2" height="8" rx="1" fill="none" stroke="#1565c0" stroke-width="1.5"/><text x="1025.5" y="598.75" text-anchor="middle" font-size="11">UserService</text><text x="1025.5" y="586.75" text-anchor="middle" font-size="9" fill="#1565c0">server</text><rect x="975.5" y="421.75" width="100" height="70" rx="6" fill="#e3f2fd" stroke="#1565c0" stroke-width="1.5"/><rect x="1015.9" y="429.75" width="19.2" height="8" rx="1" fill="none" stroke="#1565c0" stroke-width="1.5"/><rect x="1015.9" y="439.75" width="19.2" height="8" rx="1" fill="none" stroke="#1565c0" stroke-width="1.5"/><rect x="1015.9" y="449.75" width="19.2" height="8" rx="1" fill="none" stroke="#1565c0" stroke-width="1.5"/><text x="1025.5" y="483.75" text-anchor="middle" font-size="11">OrderService</text><text x="1025.5" y="471.75" text-anchor="middle" font-size="9" fill="#1565c0">server</text><rect x="975.5" y="306.75" width="100" height="70" rx="6" fill="#e3f2fd" stroke="#1565c0" stroke-width="1.5"/><rect x="1015.9" y="314.75" width="19.2" height="8" rx="1" fill="none" stroke="#1565c0" stroke-width="1.5"/><rect x="1015.9" y="324.75" width="19.2" height="8" rx="1" fill="none" stroke="#1565c0" stroke-width="1.5"/><rect x="1015.9" y="334.75" width="19.2" height="8" rx="1" fill="none" stroke="#1565c0" stroke-width="1.5"/><text x="1025.5" y="368.75" text-anchor="middle" font-size="11">ProductService</text><text x="1025.5" y="356.75" text-anchor="middle" font-size="9" fill="#1565c0">server</text><rect x="1352" y="515" width="480" height="208" rx="6" fill="#fafafa" stroke="#bbb" stroke-width="1.5" stroke-dasharray="6,4"/><text x="1360" y="534.6" font-weight="bold" font-size="13">Data Layer</text><rect x="1368" y="555" width="100" height="70" rx="6" fill="#e8f5e9" stroke="#2e7d32" stroke-width="1.5"/><ellipse cx="1418" cy="569.2" rx="9.6" ry="5" fill="none" stroke="#2e7d32" stroke-width="1.5"/><line x1="1408.4" y1="569.2" x2="1408.4" y2="584.8" stroke="#2e7d32" stroke-width="1.5"/><line x1="1427.6" y1="569.2" x2="1427.6" y2="584.8" stroke="#2e7d32" stroke-width="1.5"/><ellipse cx="1418" cy="584.8" rx="9.6" ry="5" fill="none" stroke="#2e7d32" stroke-width="1.5"/><text x="1418" y="617" text-anchor="middle" font-size="11">UserDB</text><text x="1418" y="605" text-anchor="middle" font-size="9" fill="#2e7d32">db</text><rect x="1484" y="555" width="100" height="70" rx="6" fill="#e8f5e9" stroke="#2e7d32" stroke-width="1.5"/><ellipse cx="1534" cy="569.2" rx="9.6" ry="5" fill="none" stroke="#2e7d32" stroke-width="1.5"/><line x1="1524.4" y1="569.2" x2="1524.4" y2="584.8" stroke="#2e7d32" stroke-width="1.5"/><line x1="1543.6" y1="569.2" x2="1543.6" y2="584.8" stroke="#2e7d32" stroke-width="1.5"/><ellipse cx="1534" cy="584.8" rx="9.6" ry="5" fill="none" stroke="#2e7d32" stroke-width="1.5"/><text x="1534" y="617" text-anchor="middle" font-size="11">OrderDB</text><text x="1534" y="605" text-anchor="middle" font-size="9" fill="#2e7d32">db</text><rect x="1600" y="555" width="100" height="70" rx="6" fill="#e8f5e9" stroke="#2e7d32" stroke-width="1.5"/><ellipse cx="1650" cy="569.2" rx="9.6" ry="5" fill="none" stroke="#2e7d32" stroke-width="1.5"/><line x1="1640.4" y1="569.2" x2="1640.4" y2="584.8" stroke="#2e7d32" stroke-width="1.5"/><line x1="1659.6" y1="569.2" x2="1659.6" y2="584.8" stroke="#2e7d32" stroke-width="1.5"/><ellipse cx="1650" cy="584.8" rx="9.6" ry="5" fill="none" stroke="#2e7d32" stroke-width="1.5"/><text x="1650" y="617" text-anchor="middle" font-size="11">ProductDB</text><text x="1650" y="605" text-anchor="middle" font-size="9" fill="#2e7d32">db</text><rect x="1716" y="555" width="100" height="70" rx="6" fill="#fce4ec" stroke="#c62828" stroke-width="1.5"/><polyline points="1762,567.4 1768,575 1764,579 1770,586.6" fill="none" stroke="#c62828" stroke-width="2"/><text x="1766" y="617" text-anchor="middle" font-size="11">Redis</text><text x="1766" y="605" text-anchor="middle" font-size="9" fill="#c62828">cache</text><rect x="1368" y="641" width="100" height="70" rx="6" fill="#f3e5f5" stroke="#6a1b9a" stroke-width="1.5"/><line x1="1410" y1="663" x2="1422.8" y2="663" stroke="#6a1b9a" stroke-width="2"/><polyline points="1419.6,658 1426,663 1419.6,668" fill="none" stroke="#6a1b9a" stroke-width="2"/><text x="1418" y="703" text-anchor="middle" font-size="11">MessageQueue</text><text x="1418" y="691" text-anchor="middle" font-size="9" fill="#6a1b9a">queue</text><rect x="1352" y="40" width="132" height="122" rx="6" fill="#fafafa" stroke="#bbb" stroke-width="1.5" stroke-dasharray="6,4"/><text x="1360" y="59.599999999999994" font-weight="bold" font-size="13">Storage</text><rect x="1368" y="80" width="100" height="70" rx="6" fill="#e0f2f1" stroke="#00695c" stroke-width="1.5"/><path d="M1410,94 L1426,94 L1424.4,110 L1411.6,110 Z" fill="none" stroke="#00695c" stroke-width="1.5"/><text x="1418" y="142" text-anchor="middle" font-size="11">ObjectStorage</text><text x="1418" y="130" text-anchor="middle" font-size="9" fill="#00695c">storage</text><path d="M140,307.32103064066854 L399,336.17896935933146" fill="none" stroke="#666" stroke-width="1.5" marker-end="url(#arrow)"/><path d="M499,341.75 L535,341.75" fill="none" stroke="#666" stroke-width="1.5" marker-end="url(#arrow)"/><path d="M635,370.93781725888323 L830.5,485.06218274111677" fill="none" stroke="#666" stroke-width="1.5" marker-end="url(#arrow)"/><rect x="693.75" y="410" width="78" height="16" rx="3" fill="white" opacity="0.9"/><text x="732.75" y="422" text-anchor="middle" font-size="11" fill="#666">API calls</text><path d="M909.9202898550725,549.25 L996.0797101449275,651.75" fill="none" stroke="#666" stroke-width="1.5" marker-end="url(#arrow)"/><rect x="936" y="582.5" width="34" height="16" rx="3" fill="white" opacity="0.9"/><text x="953" y="594.5" text-anchor="middle" font-size="11" fill="#666">認証</text><path d="M930.5,534.0775862068965 L975.5,551.9224137931035" fill="none" stroke="#666" stroke-width="1.5" marker-end="url(#arrow)"/><path d="M930.5,494.42241379310343 L975.5,476.57758620689657" fill="none" stroke="#666" stroke-width="1.5" marker-end="url(#arrow)"/><path d="M909.9202898550725,479.25 L996.0797101449275,376.75" fill="none" stroke="#666" stroke-width="1.5" marker-end="url(#arrow)"/><path d="M1075.5,674.4251592356688 L1368,602.3248407643312" fill="none" stroke="#666" stroke-width="1.5" marker-end="url(#arrow)"/><path d="M1075.5,574.0748407643312 L1368,587.6751592356688" fill="none" stroke="#666" stroke-width="1.5" marker-end="url(#arrow)"/><path d="M1075.5,480.7308917197452 L1246.75,562.8654458598726 Q1418,645 1451,629.3534482758621 L1484,613.7068965517242" fill="none" stroke="#666" stroke-width="1.5" marker-end="url(#arrow)"/><path d="M1075.5,371.5680924287119 L1304.75,508.28404621435595 Q1534,645 1567,629.3534482758621 L1600,613.7068965517242" fill="none" stroke="#666" stroke-width="1.5" marker-end="url(#arrow)"/><path d="M1075.5,484.6799363057325 L1368,648.0700636942676" fill="none" stroke="#666" stroke-width="1.5" marker-end="url(#arrow)"/><path d="M1075.5,366.02942353883105 L1362.75,505.5147117694155 Q1650,645 1683,629.3534482758621 L1716,613.7068965517242" fill="none" stroke="#666" stroke-width="1.5" marker-end="url(#arrow)"/><path d="M1055.5766283524904,536.75 L1387.9233716475096,150" fill="none" stroke="#666" stroke-width="1.5" marker-end="url(#arrow)"/></svg>