<svg xmlns="http://www.w3.org/2000/svg" width="2332.2421217710216" height="1228.027901052484" viewBox="0 0 2332.2421217710216 1228.027901052484"><style>text { font-family: sans-serif; font-size: 12px; fill: #333; }</style><defs><marker id="arrow" viewBox="0 0 10 10" refX="10" refY="5" markerWidth="8" markerHeight="8" orient="auto"><polygon points="0,1 10,5 0,9" fill="#666"/></marker></defs><rect x="40" y="420.2435241341422" width="100" height="70" rx="6" fill="#fafafa" stroke="#616161" stroke-width="1.5"/><circle cx="90" cy="434.2435241341422" r="5" fill="none" stroke="#616161" stroke-width="1.5"/><line x1="90" y1="439.2435241341422" x2="90" y2="448.2435241341422" stroke="#616161" stroke-width="1.5"/><line x1="83" y1="443.2435241341422" x2="97" y2="443.2435241341422" stroke="#616161" stroke-width="1.5"/><text x="90" y="482.2435241341422" text-anchor="middle" font-size="11">User</text><text x="90" y="470.2435241341422" text-anchor="middle" font-size="9" fill="#616161">user</text><rect x="635.7867738573331" y="420.2435241341422" width="292.238811852069" height="122" rx="6" fill="#fafafa" stroke="#bbb" stroke-width="1.5" stroke-dasharray="6,4"/><text x="643.7867738573331" y="439.8435241341422" font-weight="bold" font-size="13">Frontend</text><rect x="651.7867738573331" y="460.2435241341422" width="100" height="70" rx="6" fill="#fff8e1" stroke="#f9a825" stroke-width="1.5"/><circle cx="696.7867738573331" cy="484.2435241341422" r="6" fill="none" stroke="#f9a825" stroke-width="1.5"/><circle cx="701.7867738573331" cy="479.2435241341422" r="7" fill="none" stroke="#f9a825" stroke-width="1.5"/><circle cx="706.7867738573331" cy="484.2435241341422" r="6" fill="none" stroke="#f9a825" stroke-width="1.5"/><text x="701.7867738573331" y="522.2435241341423" text-anchor="middle" font-size="11">CDN</text><text x="701.7867738573331" y="510.24352413414226" text-anchor="middle" font-size="9" fill="#f9a825">cdn</text><rect x="812.0255857094021" y="460.2435241341422" width="100" height="70" rx="6" fill="#e3f2fd" stroke="#1565c0" stroke-width="1.5"/><rect x="852.4255857094021" y="468.2435241341422" width="19.2" height="8" rx="1" fill="none" stroke="#1565c0" stroke-width="1.5"/><rect x="852.4255857094021" y="478.2435241341422" width="19.2" height="8" rx="1" fill="none" stroke="#1565c0" stroke-width="1.5"/><rect x="852.4255857094021" y="488.2435241341422" width="19.2" height="8" rx="1" fill="none" stroke="#1565c0" stroke-width="1.5"/><text x="862.0255857094021" y="522.2435241341423" text-anchor="middle" font-size="11">SPA</text><text x="862.0255857094021" y="510.24352413414226" text-anchor="middle" font-size="9" fill="#1565c0">server</text><rect x="1342.1801078269946" y="420.2435241341422" width="321.2131202246573" height="599.6393606739719" rx="6" fill="#fafafa" stroke="#bbb" stroke-width="1.5" stroke-dasharray="6,4"/><text x="1350.1801078269946" y="439.8435241341422" font-weight="bold" font-size="13">API Layer</text><rect x="1358.1801078269946" y="699.0632044711282" width="100" height="70" rx="6" fill="#fff3e0" stroke="#e65100" stroke-width="1.5"/><circle cx="1408.1801078269946" cy="721.0632044711282" r="8" fill="none" stroke="#e65100" stroke-width="1.5"/><line x1="1400.1801078269946" y1="721.0632044711282" x2="1393.7801078269945" y2="715.0632044711282" stroke="#e65100" stroke-width="1.5"/><line x1="1400.1801078269946" y1="721.0632044711282" x2="1393.7801078269945" y2="727.0632044711282" stroke="#e65100" stroke-width="1.5"/><text x="1408.1801078269946" y="761.0632044711282" text-anchor="middle" font-size="11">Gateway</text><text x="1408.1801078269946" y="749.0632044711282" text-anchor="middle" font-size="9" fill="#e65100">lb</text><rect x="1547.393228051652" y="937.8828848081141" width="100" height="70" rx="6" fill="#e3f2fd" stroke="#1565c0" stroke-width="1.5"/><rect x="1587.793228051652" y="945.8828848081141" width="19.2" height="8" rx="1" fill="none" stroke="#1565c0" stroke-width="1.5"/><rect x="1587.793228051652" y="955.8828848081141" width="19.2" height="8" rx="1" fill="none" stroke="#1565c0" stroke-width="1.5"/><rect x="1587.793228051652" y="965.8828848081141" width="19.2" height="8" rx="1" fill="none" stroke="#1565c0" stroke-width="1.5"/><text x="1597.393228051652" y="999.8828848081141" text-anchor="middle" font-size="11">AuthService</text><text x="1597.393228051652" y="987.8828848081141" text-anchor="middle" font-size="9" fill="#1565c0">server</text><rect x="1547.393228051652" y="778.6697645834568" width="100" height="70" rx="6" fill="#e3f2fd" stroke="#1565c0" stroke-width="1.5"/><rect x="1587.793228051652" y="786.6697645834568" width="19.2" height="8" rx="1" fill="none" stroke="#1565c0" stroke-width="1.5"/><rect x="1587.793228051652" y="796.6697645834568" width="19.2" height="8" rx="1" fill="none" stroke="#1565c0" stroke-width="1.5"/><rect x="1587.793228051652" y="806.6697645834568" width="19.2" height="8" rx="1" fill="none" stroke="#1565c0" stroke-width="1.5"/><text x="1597.393228051652" y="840.6697645834568" text-anchor="middle" font-size="11">UserService</text><text x="1597.393228051652" y="828.6697645834568" text-anchor="middle" font-size="9" fill="#1565c0">server</text><rect x="1547.393228051652" y="619.4566443587995" width="100" height="70" rx="6" fill="#e3f2fd" stroke="#1565c0" stroke-width="1.5"/><rect x="1587.793228051652" y="627.4566443587995" width="19.2" height="8" rx="1" fill="none" stroke="#1565c0" stroke-width="1.5"/><rect x="1587.793228051652" y="637.4566443587995" width="19.2" height="8" rx="1" fill="none" stroke="#1565c0" stroke-width="1.5"/><rect x="1587.793228051652" y="647.4566443587995" width="19.2" height="8" rx="1" fill="none" stroke="#1565c0" stroke-width="1.5"/><text x="1597.393228051652" y="681.4566443587995" text-anchor="middle" font-size="11">OrderService</text><text x="1597.393228051652" y="669.4566443587995" text-anchor="middle" font-size="9" fill="#1565c0">server</text><rect x="1547.393228051652" y="460.2435241341422" width="100" height="70" rx="6" fill="#e3f2fd" stroke="#1565c0" stroke-width="1.5"/><rect x="1587.793228051652" y="468.2435241341422" width="19.2" height="8" rx="1" fill="none" stroke="#1565c0" stroke-width="1.5"/><rect x="1587.793228051652" y="478.2435241341422" width="19.2" height="8" rx="1" fill="none" stroke="#1565c0" stroke-width="1.5"/><rect x="1587.793228051652" y="488.2435241341422" width="19.2" height="8" rx="1" fill="none" stroke="#1565c0" stroke-width="1.5"/><text x="1597.393228051652" y="522.2435241341423" text-anchor="middle" font-size="11">ProductService</text><text x="1597.393228051652" y="510.24352413414226" text-anchor="middle" font-size="9" fill="#1565c0">server</text><rect x="2032.3833978374219" y="853.5952188251243" width="259.85872393359983" height="334.4326822273596" rx="6" fill="#fafafa" stroke="#bbb" stroke-width="1.5" stroke-dasharray="6,4"/><text x="2040.3833978374219" y="873.1952188251244" font-weight="bold" font-size="13">Data Layer</text><rect x="2048.383397837422" y="893.5952188251243" width="100" height="70" rx="6" fill="#e8f5e9" stroke="#2e7d32" stroke-width="1.5"/><ellipse cx="2098.383397837422" cy="907.7952188251244" rx="9.6" ry="5" fill="none" stroke="#2e7d32" stroke-width="1.5"/><line x1="2088.783397837422" y1="907.7952188251244" x2="2088.783397837422" y2="923.3952188251243" stroke="#2e7d32" stroke-width="1.5"/><line x1="2107.9833978374218" y1="907.7952188251244" x2="2107.9833978374218" y2="923.3952188251243" stroke="#2e7d32" stroke-width="1.5"/><ellipse cx="2098.383397837422" cy="923.3952188251243" rx="9.6" ry="5" fill="none" stroke="#2e7d32" stroke-width="1.5"/><text x="2098.383397837422" y="955.5952188251243" text-anchor="middle" font-size="11">UserDB</text><text x="2098.383397837422" y="943.5952188251243" text-anchor="middle" font-size="9" fill="#2e7d32">db</text><rect x="2176.2421217710216" y="893.5952188251243" width="100" height="70" rx="6" fill="#e8f5e9" stroke="#2e7d32" stroke-width="1.5"/><ellipse cx="2226.2421217710216" cy="907.7952188251244" rx="9.6" ry="5" fill="none" stroke="#2e7d32" stroke-width="1.5"/><line x1="2216.6421217710217" y1="907.7952188251244" x2="2216.6421217710217" y2="923.3952188251243" stroke="#2e7d32" stroke-width="1.5"/><line x1="2235.8421217710215" y1="907.7952188251244" x2="2235.8421217710215" y2="923.3952188251243" stroke="#2e7d32" stroke-width="1.5"/><ellipse cx="2226.2421217710216" cy="923.3952188251243" rx="9.6" ry="5" fill="none" stroke="#2e7d32" stroke-width="1.5"/><text x="2226.2421217710216" y="955.5952188251243" text-anchor="middle" font-size="11">OrderDB</text><text x="2226.2421217710216" y="943.5952188251243" text-anchor="middle" font-size="9" fill="#2e7d32">db</text><rect x="2048.383397837422" y="999.8115599388041" width="100" height="70" rx="6" fill="#e8f5e9" stroke="#2e7d32" stroke-width="1.5"/><ellipse cx="2098.383397837422" cy="1014.0115599388041" rx="9.6" ry="5" fill="none" stroke="#2e7d32" stroke-width="1.5"/><line x1="2088.783397837422" y1="1014.0115599388041" x2="2088.783397837422" y2="1029.611559938804" stroke="#2e7d32" stroke-width="1.5"/><line x1="2107.9833978374218" y1="1014.0115599388041" x2="2107.9833978374218" y2="1029.611559938804" stroke="#2e7d32" stroke-width="1.5"/><ellipse cx="2098.383397837422" cy="1029.611559938804" rx="9.6" ry="5" fill="none" stroke="#2e7d32" stroke-width="1.5"/><text x="2098.383397837422" y="1061.811559938804" text-anchor="middle" font-size="11">ProductDB</text><text x="2098.383397837422" y="1049.811559938804" text-anchor="middle" font-size="9" fill="#2e7d32">db</text><rect x="2176.2421217710216" y="999.8115599388041" width="100" height="70" rx="6" fill="#fce4ec" stroke="#c62828" stroke-width="1.5"/><polyline points="2222.2421217710216,1012.211559938804 2228.2421217710216,1019.8115599388041 2224.2421217710216,1023.8115599388041 2230.2421217710216,1031.411559938804" fill="none" stroke="#c62828" stroke-width="2"/><text x="2226.2421217710216" y="1061.811559938804" text-anchor="middle" font-size="11">Redis</text><text x="2226.2421217710216" y="1049.811559938804" text-anchor="middle" font-size="9" fill="#c62828">cache</text><rect x="2048.383397837422" y="1106.027901052484" width="100" height="70" rx="6" fill="#f3e5f5" stroke="#6a1b9a" stroke-width="1.5"/><line x1="2090.383397837422" y1="1128.027901052484" x2="2103.183397837422" y2="1128.027901052484" stroke="#6a1b9a" stroke-width="2"/><polyline points="2099.9833978374218,1123.027901052484 2106.383397837422,1128.027901052484 2099.9833978374218,1133.027901052484" fill="none" stroke="#6a1b9a" stroke-width="2"/><text x="2098.383397837422" y="1168.027901052484" text-anchor="middle" font-size="11">MessageQueue</text><text x="2098.383397837422" y="1156.027901052484" text-anchor="middle" font-size="9" fill="#6a1b9a">queue</text><rect x="2032.3833978374219" y="40" width="132" height="122" rx="6" fill="#fafafa" stroke="#bbb" stroke-width="1.5" stroke-dasharray="6,4"/><text x="2040.3833978374219" y="59.599999999999994" font-weight="bold" font-size="13">Storage</text><rect x="2048.383397837422" y="80" width="100" height="70" rx="6" fill="#e0f2f1" stroke="#00695c" stroke-width="1.5"/><path d="M2090.383397837422,94 L2106.383397837422,94 L2104.783397837422,110 L2091.9833978374218,110 Z" fill="none" stroke="#00695c" stroke-width="1.5"/><text x="2098.383397837422" y="142" text-anchor="middle" font-size="11">ObjectStorage</text><text x="2098.383397837422" y="130" text-anchor="middle" font-size="9" fill="#00695c">storage</text><path d="M140,458.51263697780496 L651.7867738573331,491.97441129047945" fill="none" stroke="#666" stroke-width="1.5" marker-end="url(#arrow)"/><path d="M751.7867738573331,495.2435241341422 L812.0255857094021,495.2435241341422" fill="none" stroke="#666" stroke-width="1.5" marker-end="url(#arrow)"/><path d="M912.0255857094021,517.1072706257959 L1358.1801078269946,712.1994579794746" fill="none" stroke="#666" stroke-width="1.5" marker-end="url(#arrow)"/><rect x="1096.1028467681983" y="596.6533643026353" width="78" height="16" rx="3" fill="white" opacity="0.9"/><text x="1135.1028467681983" y="608.6533643026353" text-anchor="middle" font-size="11" fill="#666">API calls</text><path d="M1435.9100637440213,769.0632044711282 L1569.6632721346252,937.8828848081141" fill="none" stroke="#666" stroke-width="1.5" marker-end="url(#arrow)"/><rect x="1485.7866679393233" y="835.4730446396211" width="34" height="16" rx="3" fill="white" opacity="0.9"/><text x="1502.7866679393233" y="847.4730446396211" text-anchor="middle" font-size="11" fill="#666">認証</text><path d="M1458.1801078269946,755.0994201462911 L1547.393228051652,792.6335489082938" fill="none" stroke="#666" stroke-width="1.5" marker-end="url(#arrow)"/><path d="M1458.1801078269946,713.0269887959652 L1547.393228051652,675.4928600339625" fill="none" stroke="#666" stroke-width="1.5" marker-end="url(#arrow)"/><path d="M1435.9100637440213,699.0632044711282 L1569.6632721346252,530.2435241341423" fill="none" stroke="#666" stroke-width="1.5" marker-end="url(#arrow)"/><path d="M1647.393228051652,968.4628713373979 L2048.383397837422,933.0152322958405" fill="none" stroke="#666" stroke-width="1.5" marker-end="url(#arrow)"/><path d="M1647.393228051652,825.1395958468936 L2048.383397837422,917.1253875616875" fill="none" stroke="#666" stroke-width="1.5" marker-end="url(#arrow)"/><path d="M1647.393228051652,687.3054500157118 L1872.888312944537,835.4503344204181 Q2098.383397837422,983.5952188251243 2137.312759804222,966.8492757850082 L2176.2421217710216,950.1033327448921" fill="none" stroke="#666" stroke-width="1.5" marker-end="url(#arrow)"/><path d="M1629.8908090404004,530.2435241341423 L2065.885816848673,999.8115599388041" fill="none" stroke="#666" stroke-width="1.5" marker-end="url(#arrow)"/><path d="M1633.4304080150805,689.4566443587995 L2062.3462178739933,1106.027901052484" fill="none" stroke="#666" stroke-width="1.5" marker-end="url(#arrow)"/><path d="M1633.299023266712,530.2435241341423 L1865.841210552067,756.9193714796334 Q2098.383397837422,983.5952188251243 2137.312759804222,999.1891448435396 L2176.2421217710216,1014.7830708619548" fill="none" stroke="#666" stroke-width="1.5" marker-end="url(#arrow)"/><path d="M1622.4904296644281,778.6697645834568 L2073.2861962246457,150" fill="none" stroke="#666" stroke-width="1.5" marker-end="url(#arrow)"/></svg>