<svg xmlns="http://www.w3.org/2000/svg" width="1725" height="653" viewBox="0 0 1725 653"><style>text { font-family: sans-serif; font-size: 12px; fill: #333; }</style><defs><marker id="arrow" viewBox="0 0 10 10" refX="10" refY="5" markerWidth="8" markerHeight="8" orient="auto"><polygon points="0,1 10,5 0,9" fill="#666"/></marker></defs><rect x="40" y="191" width="100" height="70" rx="6" fill="#fafafa" stroke="#616161" stroke-width="1.5"/><circle cx="90" cy="205" r="5" fill="none" stroke="#616161" stroke-width="1.5"/><line x1="90" y1="210" x2="90" y2="219" stroke="#616161" stroke-width="1.5"/><line x1="83" y1="214" x2="97" y2="214" stroke="#616161" stroke-width="1.5"/><text x="90" y="253" text-anchor="middle" font-size="11">User</text><text x="90" y="241" text-anchor="middle" font-size="9" fill="#616161">user</text><rect x="246.5" y="191" width="253" height="122" rx="6" fill="#fafafa" stroke="#bbb" stroke-width="1.5" stroke-dasharray="6,4"/><text x="254.5" y="210.6" font-weight="bold" font-size="13">Frontend</text><rect x="262.5" y="231" width="100" height="70" rx="6" fill="#fff8e1" stroke="#f9a825" stroke-width="1.5"/><circle cx="307.5" cy="255" r="6" fill="none" stroke="#f9a825" stroke-width="1.5"/><circle cx="312.5" cy="250" r="7" fill="none" stroke="#f9a825" stroke-width="1.5"/><circle cx="317.5" cy="255" r="6" fill="none" stroke="#f9a825" stroke-width="1.5"/><text x="312.5" y="293" text-anchor="middle" font-size="11">CDN</text><text x="312.5" y="281" text-anchor="middle" font-size="9" fill="#f9a825">cdn</text><rect x="383.5" y="231" width="100" height="70" rx="6" fill="#e3f2fd" stroke="#1565c0" stroke-width="1.5"/><rect x="423.9" y="239" width="19.2" height="8" rx="1" fill="none" stroke="#1565c0" stroke-width="1.5"/><rect x="423.9" y="249" width="19.2" height="8" rx="1" fill="none" stroke="#1565c0" stroke-width="1.5"/><rect x="423.9" y="259" width="19.2" height="8" rx="1" fill="none" stroke="#1565c0" stroke-width="1.5"/><text x="433.5" y="293" text-anchor="middle" font-size="11">SPA</text><text x="433.5" y="281" text-anchor="middle" font-size="9" fill="#1565c0">server</text><rect x="534" y="191" width="262" height="422" rx="6" fill="#fafafa" stroke="#bbb" stroke-width="1.5" stroke-dasharray="6,4"/><text x="542" y="210.6" font-weight="bold" font-size="13">API Layer</text><rect x="550" y="381" width="100" height="70" rx="6" fill="#fff3e0" stroke="#e65100" stroke-width="1.5"/><circle cx="600" cy="403" r="8" fill="none" stroke="#e65100" stroke-width="1.5"/><line x1="592" y1="403" x2="585.6" y2="397" stroke="#e65100" stroke-width="1.5"/><line x1="592" y1="403" x2="585.6" y2="409" stroke="#e65100" stroke-width="1.5"/><text x="600" y="443" text-anchor="middle" font-size="11">Gateway</text><text x="600" y="431" text-anchor="middle" font-size="9" fill="#e65100">lb</text><rect x="680" y="531" width="100" height="70" rx="6" fill="#e3f2fd" stroke="#1565c0" stroke-width="1.5"/><rect x="720.4" y="539" width="19.2" height="8" rx="1" fill="none" stroke="#1565c0" stroke-width="1.5"/><rect x="720.4" y="549" width="19.2" height="8" rx="1" fill="none" stroke="#1565c0" stroke-width="1.5"/><rect x="720.4" y="559" width="19.2" height="8" rx="1" fill="none" stroke="#1565c0" stroke-width="1.5"/><text x="730" y="593" text-anchor="middle" font-size="11">AuthService</text><text x="730" y="581" text-anchor="middle" font-size="9" fill="#1565c0">server</text><rect x="680" y="431" width="100" height="70" rx="6" fill="#e3f2fd" stroke="#1565c0" stroke-width="1.5"/><rect x="720.4" y="439" width="19.2" height="8" rx="1" fill="none" stroke="#1565c0" stroke-width="1.5"/><rect x="720.4" y="449" width="19.2" height="8" rx="1" fill="none" stroke="#1565c0" stroke-width="1.5"/><rect x="720.4" y="459" width="19.2" height="8" rx="1" fill="none" stroke="#1565c0" stroke-width="1.5"/><text x="730" y="493" text-anchor="middle" font-size="11">UserService</text><text x="730" y="481" text-anchor="middle" font-size="9" fill="#1565c0">server</text><rect x="680" y="331" width="100" height="70" rx="6" fill="#e3f2fd" stroke="#1565c0" stroke-width="1.5"/><rect x="720.4" y="339" width="19.2" height="8" rx="1" fill="none" stroke="#1565c0" stroke-width="1.5"/><rect x="720.4" y="349" width="19.2" height="8" rx="1" fill="none" stroke="#1565c0" stroke-width="1.5"/><rect x="720.4" y="359" width="19.2" height="8" rx="1" fill="none" stroke="#1565c0" stroke-width="1.5"/><text x="730" y="393" text-anchor="middle" font-size="11">OrderService</text><text x="730" y="381" text-anchor="middle" font-size="9" fill="#1565c0">server</text><rect x="680" y="231" width="100" height="70" rx="6" fill="#e3f2fd" stroke="#1565c0" stroke-width="1.5"/><rect x="720.4" y="239" width="19.2" height="8" rx="1" fill="none" stroke="#1565c0" stroke-width="1.5"/><rect x="720.4" y="249" width="19.2" height="8" rx="1" fill="none" stroke="#1565c0" stroke-width="1.5"/><rect x="720.4" y="259" width="19.2" height="8" rx="1" fill="none" stroke="#1565c0" stroke-width="1.5"/><text x="730" y="293" text-anchor="middle" font-size="11">ProductService</text><text x="730" y="281" text-anchor="middle" font-size="9" fill="#1565c0">server</text><rect x="1025" y="342" width="660" height="122" rx="6" fill="#fafafa" stroke="#bbb" stroke-width="1.5" stroke-dasharray="6,4"/><text x="1033" y="361.6" font-weight="bold" font-size="13">Data Layer</text><rect x="1041" y="382" width="100" height="70" rx="6" fill="#e8f5e9" stroke="#2e7d32" stroke-width="1.5"/><ellipse cx="1091" cy="396.2" rx="9.6" ry="5" fill="none" stroke="#2e7d32" stroke-width="1.5"/><line x1="1081.4" y1="396.2" x2="1081.4" y2="411.8" stroke="#2e7d32" stroke-width="1.5"/><line x1="1100.6" y1="396.2" x2="1100.6" y2="411.8" stroke="#2e7d32" stroke-width="1.5"/><ellipse cx="1091" cy="411.8" rx="9.6" ry="5" fill="none" stroke="#2e7d32" stroke-width="1.5"/><text x="1091" y="444" text-anchor="middle" font-size="11">UserDB</text><text x="1091" y="432" text-anchor="middle" font-size="9" fill="#2e7d32">db</text><rect x="1173" y="382" width="100" height="70" rx="6" fill="#e8f5e9" stroke="#2e7d32" stroke-width="1.5"/><ellipse cx="1223" cy="396.2" rx="9.6" ry="5" fill="none" stroke="#2e7d32" stroke-width="1.5"/><line x1="1213.4" y1="396.2" x2="1213.4" y2="411.8" stroke="#2e7d32" stroke-width="1.5"/><line x1="1232.6" y1="396.2" x2="1232.6" y2="411.8" stroke="#2e7d32" stroke-width="1.5"/><ellipse cx="1223" cy="411.8" rx="9.6" ry="5" fill="none" stroke="#2e7d32" stroke-width="1.5"/><text x="1223" y="444" text-anchor="middle" font-size="11">OrderDB</text><text x="1223" y="432" text-anchor="middle" font-size="9" fill="#2e7d32">db</text><rect x="1305" y="382" width="100" height="70" rx="6" fill="#e8f5e9" stroke="#2e7d32" stroke-width="1.5"/><ellipse cx="1355" cy="396.2" rx="9.6" ry="5" fill="none" stroke="#2e7d32" stroke-width="1.5"/><line x1="1345.4" y1="396.2" x2="1345.4" y2="411.8" stroke="#2e7d32" stroke-width="1.5"/><line x1="1364.6" y1="396.2" x2="1364.6" y2="411.8" stroke="#2e7d32" stroke-width="1.5"/><ellipse cx="1355" cy="411.8" rx="9.6" ry="5" fill="none" stroke="#2e7d32" stroke-width="1.5"/><text x="1355" y="444" text-anchor="middle" font-size="11">ProductDB</text><text x="1355" y="432" text-anchor="middle" font-size="9" fill="#2e7d32">db</text><rect x="1437" y="382" width="100" height="70" rx="6" fill="#fce4ec" stroke="#c62828" stroke-width="1.5"/><polyline points="1483,394.4 1489,402 1485,406 1491,413.6" fill="none" stroke="#c62828" stroke-width="2"/><text x="1487" y="444" text-anchor="middle" font-size="11">Redis</text><text x="1487" y="432" text-anchor="middle" font-size="9" fill="#c62828">cache</text><rect x="1569" y="382" width="100" height="70" rx="6" fill="#f3e5f5" stroke="#6a1b9a" stroke-width="1.5"/><line x1="1611" y1="404" x2="1623.8" y2="404" stroke="#6a1b9a" stroke-width="2"/><polyline points="1620.6,399 1627,404 1620.6,409" fill="none" stroke="#6a1b9a" stroke-width="2"/><text x="1619" y="444" text-anchor="middle" font-size="11">MessageQueue</text><text x="1619" y="432" text-anchor="middle" font-size="9" fill="#6a1b9a">queue</text><rect x="1025" y="40" width="132" height="122" rx="6" fill="#fafafa" stroke="#bbb" stroke-width="1.5" stroke-dasharray="6,4"/><text x="1033" y="59.599999999999994" font-weight="bold" font-size="13">Storage</text><rect x="1041" y="80" width="100" height="70" rx="6" fill="#e0f2f1" stroke="#00695c" stroke-width="1.5"/><path d="M1083,94 L1099,94 L1097.4,110 L1084.6,110 Z" fill="none" stroke="#00695c" stroke-width="1.5"/><text x="1091" y="142" text-anchor="middle" font-size="11">ObjectStorage</text><text x="1091" y="130" text-anchor="middle" font-size="9" fill="#00695c">storage</text><path d="M140,234.98876404494382 L262.5,257.0112359550562" fill="none" stroke="#666" stroke-width="1.5" marker-end="url(#arrow)"/><path d="M362.5,266 L383.5,266" fill="none" stroke="#666" stroke-width="1.5" marker-end="url(#arrow)"/><path d="M472.35,301 L561.15,381" fill="none" stroke="#666" stroke-width="1.5" marker-end="url(#arrow)"/><rect x="477.75" y="323" width="78" height="16" rx="3" fill="white" opacity="0.9"/><text x="516.75" y="335" text-anchor="middle" font-size="11" fill="#666">API calls</text><path d="M650,428.5 L725,447.25 Q800,466 777.25,498.5 L754.5,531" fill="none" stroke="#666" stroke-width="1.5" marker-end="url(#arrow)"/><rect x="732.0931679000518" y="436.55776552609" width="34" height="16" rx="3" fill="white" opacity="0.9"/><text x="749.0931679000518" y="448.55776552609" text-anchor="middle" font-size="11" fill="#666">認証</text><path d="M650,435.2307692307692 L680,446.7692307692308" fill="none" stroke="#666" stroke-width="1.5" marker-end="url(#arrow)"/><path d="M650,396.7692307692308 L680,385.2307692307692" fill="none" stroke="#666" stroke-width="1.5" marker-end="url(#arrow)"/><path d="M642,381 L651,373.5 Q660,366 682.75,333.5 L705.5,301" fill="none" stroke="#666" stroke-width="1.5" marker-end="url(#arrow)"/><path d="M780,545.3628808864266 L1041,437.6371191135734" fill="none" stroke="#666" stroke-width="1.5" marker-end="url(#arrow)"/><path d="M780,459.21329639889194 L1041,423.78670360110806" fill="none" stroke="#666" stroke-width="1.5" marker-end="url(#arrow)"/><path d="M780,380.6814404432133 L935.5,426.34072022160666 Q1091,472 1132,454.91666666666663 L1173,437.8333333333333" fill="none" stroke="#666" stroke-width="1.5" marker-end="url(#arrow)"/><path d="M780,286.8924949290061 L1001.5,379.446247464503 Q1223,472 1264,454.91666666666663 L1305,437.8333333333333" fill="none" stroke="#666" stroke-width="1.5" marker-end="url(#arrow)"/><path d="M780,380.6814404432133 L935.5,426.34072022160666 Q1091,472 1157,417 Q1223,362 1289,417 Q1355,472 1421,417 Q1487,362 1528,379.08333333333337 L1569,396.1666666666667" fill="none" stroke="#666" stroke-width="1.5" marker-end="url(#arrow)"/><path d="M780,282.48 L1067.5,377.24 Q1355,472 1396,454.91666666666663 L1437,437.8333333333333" fill="none" stroke="#666" stroke-width="1.5" marker-end="url(#arrow)"/><path d="M765.997150997151,431 L1055.002849002849,150" fill="none" stroke="#666" stroke-width="1.5" marker-end="url(#arrow)"/></svg>