<svg xmlns="http://www.w3.org/2000/svg" width="2196.998571938704" height="1173.1106248652006" viewBox="0 0 2196.998571938704 1173.1106248652006"><style>text { font-family: sans-serif; font-size: 12px; fill: #333; }</style><defs><marker id="arrow" viewBox="0 0 10 10" refX="10" refY="5" markerWidth="8" markerHeight="8" orient="auto"><polygon points="0,1 10,5 0,9" fill="#666"/></marker></defs><rect x="40" y="395.17866189603546" width="100" height="70" rx="6" fill="#fafafa" stroke="#616161" stroke-width="1.5"/><circle cx="90" cy="409.17866189603546" r="5" fill="none" stroke="#616161" stroke-width="1.5"/><line x1="90" y1="414.17866189603546" x2="90" y2="423.17866189603546" stroke="#616161" stroke-width="1.5"/><line x1="83" y1="418.17866189603546" x2="97" y2="418.17866189603546" stroke="#616161" stroke-width="1.5"/><text x="90" y="457.17866189603546" text-anchor="middle" font-size="11">User</text><text x="90" y="445.17866189603546" text-anchor="middle" font-size="9" fill="#616161">user</text><rect x="592.7563677671606" y="395.17866189603546" width="287.49769217112635" height="122" rx="6" fill="#fafafa" stroke="#bbb" stroke-width="1.5" stroke-dasharray="6,4"/><text x="600.7563677671606" y="414.7786618960355" font-weight="bold" font-size="13">Frontend</text><rect x="608.7563677671606" y="435.17866189603546" width="100" height="70" rx="6" fill="#fff8e1" stroke="#f9a825" stroke-width="1.5"/><circle cx="653.7563677671606" cy="459.17866189603546" r="6" fill="none" stroke="#f9a825" stroke-width="1.5"/><circle cx="658.7563677671606" cy="454.17866189603546" r="7" fill="none" stroke="#f9a825" stroke-width="1.5"/><circle cx="663.7563677671606" cy="459.17866189603546" r="6" fill="none" stroke="#f9a825" stroke-width="1.5"/><text x="658.7563677671606" y="497.17866189603546" text-anchor="middle" font-size="11">CDN</text><text x="658.7563677671606" y="485.17866189603546" text-anchor="middle" font-size="9" fill="#f9a825">cdn</text><rect x="764.2540599382869" y="435.17866189603546" width="100" height="70" rx="6" fill="#e3f2fd" stroke="#1565c0" stroke-width="1.5"/><rect x="804.6540599382869" y="443.17866189603546" width="19.2" height="8" rx="1" fill="none" stroke="#1565c0" stroke-width="1.5"/><rect x="804.6540599382869" y="453.17866189603546" width="19.2" height="8" rx="1" fill="none" stroke="#1565c0" stroke-width="1.5"/><rect x="804.6540599382869" y="463.17866189603546" width="19.2" height="8" rx="1" fill="none" stroke="#1565c0" stroke-width="1.5"/><text x="814.2540599382869" y="497.17866189603546" text-anchor="middle" font-size="11">SPA</text><text x="814.2540599382869" y="485.17866189603546" text-anchor="middle" font-size="9" fill="#1565c0">server</text><rect x="1252.9626695711456" y="395.17866189603546" width="314.89986807364903" height="580.6996042209471" rx="6" fill="#fafafa" stroke="#bbb" stroke-width="1.5" stroke-dasharray="6,4"/><text x="1260.9626695711456" y="414.7786618960355" font-weight="bold" font-size="13">API Layer</text><rect x="1268.9626695711456" y="664.528464006509" width="100" height="70" rx="6" fill="#fff3e0" stroke="#e65100" stroke-width="1.5"/><circle cx="1318.9626695711456" cy="686.528464006509" r="8" fill="none" stroke="#e65100" stroke-width="1.5"/><line x1="1310.9626695711456" y1="686.528464006509" x2="1304.5626695711455" y2="680.528464006509" stroke="#e65100" stroke-width="1.5"/><line x1="1310.9626695711456" y1="686.528464006509" x2="1304.5626695711455" y2="692.528464006509" stroke="#e65100" stroke-width="1.5"/><text x="1318.9626695711456" y="726.528464006509" text-anchor="middle" font-size="11">Gateway</text><text x="1318.9626695711456" y="714.528464006509" text-anchor="middle" font-size="9" fill="#e65100">lb</text><rect x="1451.8625376447947" y="893.8782661169826" width="100" height="70" rx="6" fill="#e3f2fd" stroke="#1565c0" stroke-width="1.5"/><rect x="1492.2625376447947" y="901.8782661169826" width="19.2" height="8" rx="1" fill="none" stroke="#1565c0" stroke-width="1.5"/><rect x="1492.2625376447947" y="911.8782661169826" width="19.2" height="8" rx="1" fill="none" stroke="#1565c0" stroke-width="1.5"/><rect x="1492.2625376447947" y="921.8782661169826" width="19.2" height="8" rx="1" fill="none" stroke="#1565c0" stroke-width="1.5"/><text x="1501.8625376447947" y="955.8782661169826" text-anchor="middle" font-size="11">AuthService</text><text x="1501.8625376447947" y="943.8782661169826" text-anchor="middle" font-size="9" fill="#1565c0">server</text><rect x="1451.8625376447947" y="740.9783980433335" width="100" height="70" rx="6" fill="#e3f2fd" stroke="#1565c0" stroke-width="1.5"/><rect x="1492.2625376447947" y="748.9783980433335" width="19.2" height="8" rx="1" fill="none" stroke="#1565c0" stroke-width="1.5"/><rect x="1492.2625376447947" y="758.9783980433335" width="19.2" height="8" rx="1" fill="none" stroke="#1565c0" stroke-width="1.5"/><rect x="1492.2625376447947" y="768.9783980433335" width="19.2" height="8" rx="1" fill="none" stroke="#1565c0" stroke-width="1.5"/><text x="1501.8625376447947" y="802.9783980433335" text-anchor="middle" font-size="11">UserService</text><text x="1501.8625376447947" y="790.9783980433335" text-anchor="middle" font-size="9" fill="#1565c0">server</text><rect x="1451.8625376447947" y="588.0785299696845" width="100" height="70" rx="6" fill="#e3f2fd" stroke="#1565c0" stroke-width="1.5"/><rect x="1492.2625376447947" y="596.0785299696845" width="19.2" height="8" rx="1" fill="none" stroke="#1565c0" stroke-width="1.5"/><rect x="1492.2625376447947" y="606.0785299696845" width="19.2" height="8" rx="1" fill="none" stroke="#1565c0" stroke-width="1.5"/><rect x="1492.2625376447947" y="616.0785299696845" width="19.2" height="8" rx="1" fill="none" stroke="#1565c0" stroke-width="1.5"/><text x="1501.8625376447947" y="650.0785299696845" text-anchor="middle" font-size="11">OrderService</text><text x="1501.8625376447947" y="638.0785299696845" text-anchor="middle" font-size="9" fill="#1565c0">server</text><rect x="1451.8625376447947" y="435.17866189603546" width="100" height="70" rx="6" fill="#e3f2fd" stroke="#1565c0" stroke-width="1.5"/><rect x="1492.2625376447947" y="443.17866189603546" width="19.2" height="8" rx="1" fill="none" stroke="#1565c0" stroke-width="1.5"/><rect x="1492.2625376447947" y="453.17866189603546" width="19.2" height="8" rx="1" fill="none" stroke="#1565c0" stroke-width="1.5"/><rect x="1492.2625376447947" y="463.17866189603546" width="19.2" height="8" rx="1" fill="none" stroke="#1565c0" stroke-width="1.5"/><text x="1501.8625376447947" y="497.17866189603546" text-anchor="middle" font-size="11">ProductService</text><text x="1501.8625376447947" y="485.17866189603546" text-anchor="middle" font-size="9" fill="#1565c0">server</text><rect x="1898.6129408392799" y="802.5079840066969" width="258.3856310994245" height="330.6026408585037" rx="6" fill="#fafafa" stroke="#bbb" stroke-width="1.5" stroke-dasharray="6,4"/><text x="1906.6129408392799" y="822.1079840066969" font-weight="bold" font-size="13">Data Layer</text><rect x="1914.6129408392799" y="842.5079840066969" width="100" height="70" rx="6" fill="#e8f5e9" stroke="#2e7d32" stroke-width="1.5"/><ellipse cx="1964.6129408392799" cy="856.707984006697" rx="9.6" ry="5" fill="none" stroke="#2e7d32" stroke-width="1.5"/><line x1="1955.01294083928" y1="856.707984006697" x2="1955.01294083928" y2="872.3079840066969" stroke="#2e7d32" stroke-width="1.5"/><line x1="1974.2129408392798" y1="856.707984006697" x2="1974.2129408392798" y2="872.3079840066969" stroke="#2e7d32" stroke-width="1.5"/><ellipse cx="1964.6129408392799" cy="872.3079840066969" rx="9.6" ry="5" fill="none" stroke="#2e7d32" stroke-width="1.5"/><text x="1964.6129408392799" y="904.5079840066969" text-anchor="middle" font-size="11">UserDB</text><text x="1964.6129408392799" y="892.5079840066969" text-anchor="middle" font-size="9" fill="#2e7d32">db</text><rect x="2040.9985719387043" y="842.5079840066969" width="100" height="70" rx="6" fill="#e8f5e9" stroke="#2e7d32" stroke-width="1.5"/><ellipse cx="2090.998571938704" cy="856.707984006697" rx="9.6" ry="5" fill="none" stroke="#2e7d32" stroke-width="1.5"/><line x1="2081.398571938704" y1="856.707984006697" x2="2081.398571938704" y2="872.3079840066969" stroke="#2e7d32" stroke-width="1.5"/><line x1="2100.598571938704" y1="856.707984006697" x2="2100.598571938704" y2="872.3079840066969" stroke="#2e7d32" stroke-width="1.5"/><ellipse cx="2090.998571938704" cy="872.3079840066969" rx="9.6" ry="5" fill="none" stroke="#2e7d32" stroke-width="1.5"/><text x="2090.998571938704" y="904.5079840066969" text-anchor="middle" font-size="11">OrderDB</text><text x="2090.998571938704" y="892.5079840066969" text-anchor="middle" font-size="9" fill="#2e7d32">db</text><rect x="1914.6129408392799" y="946.8093044359488" width="100" height="70" rx="6" fill="#e8f5e9" stroke="#2e7d32" stroke-width="1.5"/><ellipse cx="1964.6129408392799" cy="961.0093044359488" rx="9.6" ry="5" fill="none" stroke="#2e7d32" stroke-width="1.5"/><line x1="1955.01294083928" y1="961.0093044359488" x2="1955.01294083928" y2="976.6093044359487" stroke="#2e7d32" stroke-width="1.5"/><line x1="1974.2129408392798" y1="961.0093044359488" x2="1974.2129408392798" y2="976.6093044359487" stroke="#2e7d32" stroke-width="1.5"/><ellipse cx="1964.6129408392799" cy="976.6093044359487" rx="9.6" ry="5" fill="none" stroke="#2e7d32" stroke-width="1.5"/><text x="1964.6129408392799" y="1008.8093044359488" text-anchor="middle" font-size="11">ProductDB</text><text x="1964.6129408392799" y="996.8093044359488" text-anchor="middle" font-size="9" fill="#2e7d32">db</text><rect x="2040.9985719387043" y="946.8093044359488" width="100" height="70" rx="6" fill="#fce4ec" stroke="#c62828" stroke-width="1.5"/><polyline points="2086.998571938704,959.2093044359488 2092.998571938704,966.8093044359488 2088.998571938704,970.8093044359488 2094.998571938704,978.4093044359488" fill="none" stroke="#c62828" stroke-width="2"/><text x="2090.998571938704" y="1008.8093044359488" text-anchor="middle" font-size="11">Redis</text><text x="2090.998571938704" y="996.8093044359488" text-anchor="middle" font-size="9" fill="#c62828">cache</text><rect x="1914.6129408392799" y="1051.1106248652006" width="100" height="70" rx="6" fill="#f3e5f5" stroke="#6a1b9a" stroke-width="1.5"/><line x1="1956.6129408392799" y1="1073.1106248652006" x2="1969.4129408392798" y2="1073.1106248652006" stroke="#6a1b9a" stroke-width="2"/><polyline points="1966.2129408392798,1068.1106248652006 1972.6129408392799,1073.1106248652006 1966.2129408392798,1078.1106248652006" fill="none" stroke="#6a1b9a" stroke-width="2"/><text x="1964.6129408392799" y="1113.1106248652006" text-anchor="middle" font-size="11">MessageQueue</text><text x="1964.6129408392799" y="1101.1106248652006" text-anchor="middle" font-size="9" fill="#6a1b9a">queue</text><rect x="1898.6129408392799" y="40" width="132" height="122" rx="6" fill="#fafafa" stroke="#bbb" stroke-width="1.5" stroke-dasharray="6,4"/><text x="1906.6129408392799" y="59.599999999999994" font-weight="bold" font-size="13">Storage</text><rect x="1914.6129408392799" y="80" width="100" height="70" rx="6" fill="#e0f2f1" stroke="#00695c" stroke-width="1.5"/><path d="M1956.6129408392799,94 L1972.6129408392799,94 L1971.01294083928,110 L1958.2129408392798,110 Z" fill="none" stroke="#00695c" stroke-width="1.5"/><text x="1964.6129408392799" y="142" text-anchor="middle" font-size="11">ObjectStorage</text><text x="1964.6129408392799" y="130" text-anchor="middle" font-size="9" fill="#00695c">storage</text><path d="M140,433.69510604214963 L608.7563677671606,466.6622177499213" fill="none" stroke="#666" stroke-width="1.5" marker-end="url(#arrow)"/><path d="M708.7563677671606,470.17866189603546 L764.2540599382869,470.17866189603546" fill="none" stroke="#666" stroke-width="1.5" marker-end="url(#arrow)"/><path d="M864.2540599382869,492.89967336018606 L1268.9626695711456,676.8074525423584" fill="none" stroke="#666" stroke-width="1.5" marker-end="url(#arrow)"/><rect x="1027.6083647547161" y="566.8535629512722" width="78" height="16" rx="3" fill="white" opacity="0.9"/><text x="1066.6083647547161" y="578.8535629512722" text-anchor="middle" font-size="11" fill="#666">API calls</text><path d="M1346.8741625119342,734.528464006509 L1473.951044704006,893.8782661169826" fill="none" stroke="#666" stroke-width="1.5" marker-end="url(#arrow)"/><rect x="1393.4126036079701" y="796.2033650617458" width="34" height="16" rx="3" fill="white" opacity="0.9"/><text x="1410.4126036079701" y="808.2033650617458" text-anchor="middle" font-size="11" fill="#666">認証</text><path d="M1368.9626695711456,720.4278596271882 L1451.8625376447947,755.0790024226543" fill="none" stroke="#666" stroke-width="1.5" marker-end="url(#arrow)"/><path d="M1368.9626695711456,678.6290683858298 L1451.8625376447947,643.9779255903637" fill="none" stroke="#666" stroke-width="1.5" marker-end="url(#arrow)"/><path d="M1346.8741625119342,664.528464006509 L1473.951044704006,505.17866189603546" fill="none" stroke="#666" stroke-width="1.5" marker-end="url(#arrow)"/><path d="M1551.8625376447947,923.3277272351509 L1914.6129408392799,883.0585228885286" fill="none" stroke="#666" stroke-width="1.5" marker-end="url(#arrow)"/><path d="M1551.8625376447947,786.9486300801376 L1914.6129408392799,866.5377519698928" fill="none" stroke="#666" stroke-width="1.5" marker-end="url(#arrow)"/><path d="M1551.8625376447947,656.5122614047023 L1758.2377392420372,794.5101227056996 Q1964.6129408392799,932.5079840066969 2002.805756388992,915.8873853123589 L2040.9985719387041,899.266786618021" fill="none" stroke="#666" stroke-width="1.5" marker-end="url(#arrow)"/><path d="M1533.5187027865131,505.17866189603546 L1932.9567756975614,946.8093044359488" fill="none" stroke="#666" stroke-width="1.5" marker-end="url(#arrow)"/><path d="M1536.8412449317304,658.0785299696845 L1929.634233552344,1051.1106248652006" fill="none" stroke="#666" stroke-width="1.5" marker-end="url(#arrow)"/><path d="M1536.8944150041336,505.17866189603546 L1750.7536779217066,718.8433229513662 Q1964.6129408392799,932.5079840066969 2002.805756388992,947.4064833149798 L2040.9985719387041,962.3049826232627" fill="none" stroke="#666" stroke-width="1.5" marker-end="url(#arrow)"/><path d="M1526.3660072888135,740.9783980433335 L1940.109471195261,150" fill="none" stroke="#666" stroke-width="1.5" marker-end="url(#arrow)"/></svg>