<svg xmlns="http://www.w3.org/2000/svg" width="1468" height="426" viewBox="0 0 1468 426"><style>text { font-family: sans-serif; font-size: 12px; fill: #333; }</style><defs><marker id="arrow" viewBox="0 0 10 10" refX="10" refY="5" markerWidth="8" markerHeight="8" orient="auto"><polygon points="0,1 10,5 0,9" fill="#666"/></marker></defs><rect x="56" y="109" width="100" height="70" rx="6" fill="#fafafa" stroke="#616161" stroke-width="1.5"/><circle cx="106" cy="123" r="5" fill="none" stroke="#616161" stroke-width="1.5"/><line x1="106" y1="128" x2="106" y2="137" stroke="#616161" stroke-width="1.5"/><line x1="99" y1="132" x2="113" y2="132" stroke="#616161" stroke-width="1.5"/><text x="106" y="171" text-anchor="middle" font-size="11">User</text><text x="106" y="159" text-anchor="middle" font-size="9" fill="#616161">user</text><rect x="188" y="83" width="248" height="122" rx="6" fill="#fafafa" stroke="#bbb" stroke-width="1.5" stroke-dasharray="6,4"/><text x="196" y="102.6" font-weight="bold" font-size="13">Frontend</text><rect x="204" y="123" width="100" height="70" rx="6" fill="#fff8e1" stroke="#f9a825" stroke-width="1.5"/><circle cx="249" cy="147" r="6" fill="none" stroke="#f9a825" stroke-width="1.5"/><circle cx="254" cy="142" r="7" fill="none" stroke="#f9a825" stroke-width="1.5"/><circle cx="259" cy="147" r="6" fill="none" stroke="#f9a825" stroke-width="1.5"/><text x="254" y="185" text-anchor="middle" font-size="11">CDN</text><text x="254" y="173" text-anchor="middle" font-size="9" fill="#f9a825">cdn</text><rect x="320" y="123" width="100" height="70" rx="6" fill="#e3f2fd" stroke="#1565c0" stroke-width="1.5"/><rect x="360.4" y="131" width="19.2" height="8" rx="1" fill="none" stroke="#1565c0" stroke-width="1.5"/><rect x="360.4" y="141" width="19.2" height="8" rx="1" fill="none" stroke="#1565c0" stroke-width="1.5"/><rect x="360.4" y="151" width="19.2" height="8" rx="1" fill="none" stroke="#1565c0" stroke-width="1.5"/><text x="370" y="185" text-anchor="middle" font-size="11">SPA</text><text x="370" y="173" text-anchor="middle" font-size="9" fill="#1565c0">server</text><rect x="452" y="40" width="480" height="208" rx="6" fill="#fafafa" stroke="#bbb" stroke-width="1.5" stroke-dasharray="6,4"/><text x="460" y="59.599999999999994" font-weight="bold" font-size="13">API Layer</text><rect x="468" y="80" width="100" height="70" rx="6" fill="#fff3e0" stroke="#e65100" stroke-width="1.5"/><circle cx="518" cy="102" r="8" fill="none" stroke="#e65100" stroke-width="1.5"/><line x1="510" y1="102" x2="503.6" y2="96" stroke="#e65100" stroke-width="1.5"/><line x1="510" y1="102" x2="503.6" y2="108" stroke="#e65100" stroke-width="1.5"/><text x="518" y="142" text-anchor="middle" font-size="11">Gateway</text><text x="518" y="130" text-anchor="middle" font-size="9" fill="#e65100">lb</text><rect x="584" y="80" width="100" height="70" rx="6" fill="#e3f2fd" stroke="#1565c0" stroke-width="1.5"/><rect x="624.4" y="88" width="19.2" height="8" rx="1" fill="none" stroke="#1565c0" stroke-width="1.5"/><rect x="624.4" y="98" width="19.2" height="8" rx="1" fill="none" stroke="#1565c0" stroke-width="1.5"/><rect x="624.4" y="108" width="19.2" height="8" rx="1" fill="none" stroke="#1565c0" stroke-width="1.5"/><text x="634" y="142" text-anchor="middle" font-size="11">AuthService</text><text x="634" y="130" text-anchor="middle" font-size="9" fill="#1565c0">server</text><rect x="700" y="80" width="100" height="70" rx="6" fill="#e3f2fd" stroke="#1565c0" stroke-width="1.5"/><rect x="740.4" y="88" width="19.2" height="8" rx="1" fill="none" stroke="#1565c0" stroke-width="1.5"/><rect x="740.4" y="98" width="19.2" height="8" rx="1" fill="none" stroke="#1565c0" stroke-width="1.5"/><rect x="740.4" y="108" width="19.2" height="8" rx="1" fill="none" stroke="#1565c0" stroke-width="1.5"/><text x="750" y="142" text-anchor="middle" font-size="11">UserService</text><text x="750" y="130" text-anchor="middle" font-size="9" fill="#1565c0">server</text><rect x="816" y="80" width="100" height="70" rx="6" fill="#e3f2fd" stroke="#1565c0" stroke-width="1.5"/><rect x="856.4" y="88" width="19.2" height="8" rx="1" fill="none" stroke="#1565c0" stroke-width="1.5"/><rect x="856.4" y="98" width="19.2" height="8" rx="1" fill="none" stroke="#1565c0" stroke-width="1.5"/><rect x="856.4" y="108" width="19.2" height="8" rx="1" fill="none" stroke="#1565c0" stroke-width="1.5"/><text x="866" y="142" text-anchor="middle" font-size="11">OrderService</text><text x="866" y="130" text-anchor="middle" font-size="9" fill="#1565c0">server</text><rect x="468" y="166" width="100" height="70" rx="6" fill="#e3f2fd" stroke="#1565c0" stroke-width="1.5"/><rect x="508.4" y="174" width="19.2" height="8" rx="1" fill="none" stroke="#1565c0" stroke-width="1.5"/><rect x="508.4" y="184" width="19.2" height="8" rx="1" fill="none" stroke="#1565c0" stroke-width="1.5"/><rect x="508.4" y="194" width="19.2" height="8" rx="1" fill="none" stroke="#1565c0" stroke-width="1.5"/><text x="518" y="228" text-anchor="middle" font-size="11">ProductService</text><text x="518" y="216" text-anchor="middle" font-size="9" fill="#1565c0">server</text><rect x="948" y="40" width="480" height="208" rx="6" fill="#fafafa" stroke="#bbb" stroke-width="1.5" stroke-dasharray="6,4"/><text x="956" y="59.599999999999994" font-weight="bold" font-size="13">Data Layer</text><rect x="964" y="80" width="100" height="70" rx="6" fill="#e8f5e9" stroke="#2e7d32" stroke-width="1.5"/><ellipse cx="1014" cy="94.2" rx="9.6" ry="5" fill="none" stroke="#2e7d32" stroke-width="1.5"/><line x1="1004.4" y1="94.2" x2="1004.4" y2="109.8" stroke="#2e7d32" stroke-width="1.5"/><line x1="1023.6" y1="94.2" x2="1023.6" y2="109.8" stroke="#2e7d32" stroke-width="1.5"/><ellipse cx="1014" cy="109.8" rx="9.6" ry="5" fill="none" stroke="#2e7d32" stroke-width="1.5"/><text x="1014" y="142" text-anchor="middle" font-size="11">UserDB</text><text x="1014" y="130" text-anchor="middle" font-size="9" fill="#2e7d32">db</text><rect x="1080" y="80" width="100" height="70" rx="6" fill="#e8f5e9" stroke="#2e7d32" stroke-width="1.5"/><ellipse cx="1130" cy="94.2" rx="9.6" ry="5" fill="none" stroke="#2e7d32" stroke-width="1.5"/><line x1="1120.4" y1="94.2" x2="1120.4" y2="109.8" stroke="#2e7d32" stroke-width="1.5"/><line x1="1139.6" y1="94.2" x2="1139.6" y2="109.8" stroke="#2e7d32" stroke-width="1.5"/><ellipse cx="1130" cy="109.8" rx="9.6" ry="5" fill="none" stroke="#2e7d32" stroke-width="1.5"/><text x="1130" y="142" text-anchor="middle" font-size="11">OrderDB</text><text x="1130" y="130" text-anchor="middle" font-size="9" fill="#2e7d32">db</text><rect x="1196" y="80" width="100" height="70" rx="6" fill="#e8f5e9" stroke="#2e7d32" stroke-width="1.5"/><ellipse cx="1246" cy="94.2" rx="9.6" ry="5" fill="none" stroke="#2e7d32" stroke-width="1.5"/><line x1="1236.4" y1="94.2" x2="1236.4" y2="109.8" stroke="#2e7d32" stroke-width="1.5"/><line x1="1255.6" y1="94.2" x2="1255.6" y2="109.8" stroke="#2e7d32" stroke-width="1.5"/><ellipse cx="1246" cy="109.8" rx="9.6" ry="5" fill="none" stroke="#2e7d32" stroke-width="1.5"/><text x="1246" y="142" text-anchor="middle" font-size="11">ProductDB</text><text x="1246" y="130" text-anchor="middle" font-size="9" fill="#2e7d32">db</text><rect x="1312" y="80" width="100" height="70" rx="6" fill="#fce4ec" stroke="#c62828" stroke-width="1.5"/><polyline points="1358,92.4 1364,100 1360,104 1366,111.6" fill="none" stroke="#c62828" stroke-width="2"/><text x="1362" y="142" text-anchor="middle" font-size="11">Redis</text><text x="1362" y="130" text-anchor="middle" font-size="9" fill="#c62828">cache</text><rect x="964" y="166" width="100" height="70" rx="6" fill="#f3e5f5" stroke="#6a1b9a" stroke-width="1.5"/><line x1="1006" y1="188" x2="1018.8" y2="188" stroke="#6a1b9a" stroke-width="2"/><polyline points="1015.6,183 1022,188 1015.6,193" fill="none" stroke="#6a1b9a" stroke-width="2"/><text x="1014" y="228" text-anchor="middle" font-size="11">MessageQueue</text><text x="1014" y="216" text-anchor="middle" font-size="9" fill="#6a1b9a">queue</text><rect x="40" y="264" width="132" height="122" rx="6" fill="#fafafa" stroke="#bbb" stroke-width="1.5" stroke-dasharray="6,4"/><text x="48" y="283.6" font-weight="bold" font-size="13">Storage</text><rect x="56" y="304" width="100" height="70" rx="6" fill="#e0f2f1" stroke="#00695c" stroke-width="1.5"/><path d="M98,318 L114,318 L112.4,334 L99.6,334 Z" fill="none" stroke="#00695c" stroke-width="1.5"/><text x="106" y="366" text-anchor="middle" font-size="11">ObjectStorage</text><text x="106" y="354" text-anchor="middle" font-size="9" fill="#00695c">storage</text><path d="M156,148.72972972972974 L204,153.27027027027026" fill="none" stroke="#666" stroke-width="1.5" marker-end="url(#arrow)"/><path d="M304,158 L320,158" fill="none" stroke="#666" stroke-width="1.5" marker-end="url(#arrow)"/><path d="M420,143.47297297297297 L468,129.52702702702703" fill="none" stroke="#666" stroke-width="1.5" marker-end="url(#arrow)"/><rect x="405" y="118.5" width="78" height="16" rx="3" fill="white" opacity="0.9"/><text x="444" y="130.5" text-anchor="middle" font-size="11" fill="#666">API calls</text><path d="M568,115 L584,115" fill="none" stroke="#666" stroke-width="1.5" marker-end="url(#arrow)"/><rect x="559" y="97" width="34" height="16" rx="3" fill="white" opacity="0.9"/><text x="576" y="109" text-anchor="middle" font-size="11" fill="#666">認証</text><path d="M568,138.70689655172413 L601,154.35344827586206 Q634,170 667,154.35344827586206 L700,138.70689655172413" fill="none" stroke="#666" stroke-width="1.5" marker-end="url(#arrow)"/><path d="M568,138.70689655172413 L601,154.35344827586206 Q634,170 692,115 Q750,60 783,75.64655172413794 L816,91.29310344827587" fill="none" stroke="#666" stroke-width="1.5" marker-end="url(#arrow)"/><path d="M518,150 L518,166" fill="none" stroke="#666" stroke-width="1.5" marker-end="url(#arrow)"/><path d="M684,138.70689655172413 L717,154.35344827586206 Q750,170 808,115 Q866,60 915,78.20945945945945 L964,96.41891891891892" fill="none" stroke="#666" stroke-width="1.5" marker-end="url(#arrow)"/><path d="M800,138.70689655172413 L833,154.35344827586206 Q866,170 915,151.79054054054055 L964,133.5810810810811" fill="none" stroke="#666" stroke-width="1.5" marker-end="url(#arrow)"/><path d="M916,133.5810810810811 L965,151.79054054054055 Q1014,170 1047,154.35344827586206 L1080,138.70689655172413" fill="none" stroke="#666" stroke-width="1.5" marker-end="url(#arrow)"/><path d="M568,180.74137931034483 L717,120.37068965517241 Q866,60 940,115 Q1014,170 1072,115 Q1130,60 1163,75.64655172413794 L1196,91.29310344827587" fill="none" stroke="#666" stroke-width="1.5" marker-end="url(#arrow)"/><path d="M916,144.05405405405406 L964,171.94594594594594" fill="none" stroke="#666" stroke-width="1.5" marker-end="url(#arrow)"/><path d="M568,186.78629032258064 L791,123.39314516129032 Q1014,60 1072,115 Q1130,170 1188,115 Q1246,60 1279,75.64655172413794 L1312,91.29310344827587" fill="none" stroke="#666" stroke-width="1.5" marker-end="url(#arrow)"/><path d="M700,138.70689655172413 L667,154.35344827586206 Q634,170 576,213 Q518,256 337,292.4635922330097 L156,328.9271844660194" fill="none" stroke="#666" stroke-width="1.5" marker-end="url(#arrow)"/></svg>