<svg xmlns="http://www.w3.org/2000/svg" width="1772.9870840727594" height="1013.608765271482" viewBox="0 0 1772.9870840727594 1013.608765271482"><rect width="100%" height="100%" fill="white"/><style>text { font-family: sans-serif; font-size: 12px; fill: #333; }</style><defs><marker id="arrow" viewBox="0 0 10 10" refX="10" refY="5" markerWidth="8" markerHeight="8" orient="auto"><polygon points="0,1 10,5 0,9" fill="#666"/></marker></defs><rect x="40" y="313.0339562436412" width="100" height="70" rx="6" fill="#fafafa" stroke="#616161" stroke-width="1.5"/><circle cx="90" cy="327.0339562436412" r="5" fill="none" stroke="#616161" stroke-width="1.5"/><line x1="90" y1="332.0339562436412" x2="90" y2="341.0339562436412" stroke="#616161" stroke-width="1.5"/><line x1="83" y1="336.0339562436412" x2="97" y2="336.0339562436412" stroke="#616161" stroke-width="1.5"/><text x="90" y="375.0339562436412" text-anchor="middle" font-size="11">User</text><text x="90" y="363.0339562436412" text-anchor="middle" font-size="9" fill="#616161">user</text><rect x="455.93439621331487" y="313.0339562436412" width="272.1592079013793" height="122" rx="6" fill="#fafafa" stroke="#bbb" stroke-width="1.5" stroke-dasharray="6,4"/><text x="463.93439621331487" y="332.63395624364125" font-weight="bold" font-size="13">Frontend</text><rect x="471.93439621331487" y="353.0339562436412" width="100" height="70" rx="6" fill="#fff8e1" stroke="#f9a825" stroke-width="1.5"/><circle cx="516.9343962133148" cy="377.0339562436412" r="6" fill="none" stroke="#f9a825" stroke-width="1.5"/><circle cx="521.9343962133148" cy="372.0339562436412" r="7" fill="none" stroke="#f9a825" stroke-width="1.5"/><circle cx="526.9343962133148" cy="377.0339562436412" r="6" fill="none" stroke="#f9a825" stroke-width="1.5"/><text x="521.9343962133148" y="415.0339562436412" text-anchor="middle" font-size="11">CDN</text><text x="521.9343962133148" y="403.0339562436412" text-anchor="middle" font-size="9" fill="#f9a825">cdn</text><rect x="612.0936041146942" y="353.0339562436412" width="100" height="70" rx="6" fill="#e3f2fd" stroke="#1565c0" stroke-width="1.5"/><rect x="652.4936041146942" y="361.0339562436412" width="19.2" height="8" rx="1" fill="none" stroke="#1565c0" stroke-width="1.5"/><rect x="652.4936041146942" y="371.0339562436412" width="19.2" height="8" rx="1" fill="none" stroke="#1565c0" stroke-width="1.5"/><rect x="652.4936041146942" y="381.0339562436412" width="19.2" height="8" rx="1" fill="none" stroke="#1565c0" stroke-width="1.5"/><text x="662.0936041146942" y="415.0339562436412" text-anchor="middle" font-size="11">SPA</text><text x="662.0936041146942" y="403.0339562436412" text-anchor="middle" font-size="9" fill="#1565c0">server</text><rect x="967.6064991681822" y="313.0339562436412" width="291.4754134831049" height="510.42624044931466" rx="6" fill="#fafafa" stroke="#bbb" stroke-width="1.5" stroke-dasharray="6,4"/><text x="975.6064991681822" y="332.63395624364125" font-weight="bold" font-size="13">API Layer</text><rect x="983.6064991681822" y="547.2470764682986" width="100" height="70" rx="6" fill="#fff3e0" stroke="#e65100" stroke-width="1.5"/><circle cx="1033.6064991681822" cy="569.2470764682986" r="8" fill="none" stroke="#e65100" stroke-width="1.5"/><line x1="1025.6064991681822" y1="569.2470764682986" x2="1019.2064991681822" y2="563.2470764682986" stroke="#e65100" stroke-width="1.5"/><line x1="1025.6064991681822" y1="569.2470764682986" x2="1019.2064991681822" y2="575.2470764682986" stroke="#e65100" stroke-width="1.5"/><text x="1033.6064991681822" y="609.2470764682986" text-anchor="middle" font-size="11">Gateway</text><text x="1033.6064991681822" y="597.2470764682986" text-anchor="middle" font-size="9" fill="#e65100">lb</text><rect x="1143.081912651287" y="741.4601966929558" width="100" height="70" rx="6" fill="#e3f2fd" stroke="#1565c0" stroke-width="1.5"/><rect x="1183.481912651287" y="749.4601966929558" width="19.2" height="8" rx="1" fill="none" stroke="#1565c0" stroke-width="1.5"/><rect x="1183.481912651287" y="759.4601966929558" width="19.2" height="8" rx="1" fill="none" stroke="#1565c0" stroke-width="1.5"/><rect x="1183.481912651287" y="769.4601966929558" width="19.2" height="8" rx="1" fill="none" stroke="#1565c0" stroke-width="1.5"/><text x="1193.081912651287" y="803.4601966929558" text-anchor="middle" font-size="11">AuthService</text><text x="1193.081912651287" y="791.4601966929558" text-anchor="middle" font-size="9" fill="#1565c0">server</text><rect x="1143.081912651287" y="611.984783209851" width="100" height="70" rx="6" fill="#e3f2fd" stroke="#1565c0" stroke-width="1.5"/><rect x="1183.481912651287" y="619.984783209851" width="19.2" height="8" rx="1" fill="none" stroke="#1565c0" stroke-width="1.5"/><rect x="1183.481912651287" y="629.984783209851" width="19.2" height="8" rx="1" fill="none" stroke="#1565c0" stroke-width="1.5"/><rect x="1183.481912651287" y="639.984783209851" width="19.2" height="8" rx="1" fill="none" stroke="#1565c0" stroke-width="1.5"/><text x="1193.081912651287" y="673.984783209851" text-anchor="middle" font-size="11">UserService</text><text x="1193.081912651287" y="661.984783209851" text-anchor="middle" font-size="9" fill="#1565c0">server</text><rect x="1143.081912651287" y="482.5093697267461" width="100" height="70" rx="6" fill="#e3f2fd" stroke="#1565c0" stroke-width="1.5"/><rect x="1183.481912651287" y="490.5093697267461" width="19.2" height="8" rx="1" fill="none" stroke="#1565c0" stroke-width="1.5"/><rect x="1183.481912651287" y="500.5093697267461" width="19.2" height="8" rx="1" fill="none" stroke="#1565c0" stroke-width="1.5"/><rect x="1183.481912651287" y="510.5093697267461" width="19.2" height="8" rx="1" fill="none" stroke="#1565c0" stroke-width="1.5"/><text x="1193.081912651287" y="544.5093697267462" text-anchor="middle" font-size="11">OrderService</text><text x="1193.081912651287" y="532.5093697267462" text-anchor="middle" font-size="9" fill="#1565c0">server</text><rect x="1143.081912651287" y="353.0339562436412" width="100" height="70" rx="6" fill="#e3f2fd" stroke="#1565c0" stroke-width="1.5"/><rect x="1183.481912651287" y="361.0339562436412" width="19.2" height="8" rx="1" fill="none" stroke="#1565c0" stroke-width="1.5"/><rect x="1183.481912651287" y="371.0339562436412" width="19.2" height="8" rx="1" fill="none" stroke="#1565c0" stroke-width="1.5"/><rect x="1183.481912651287" y="381.0339562436412" width="19.2" height="8" rx="1" fill="none" stroke="#1565c0" stroke-width="1.5"/><text x="1193.081912651287" y="415.0339562436412" text-anchor="middle" font-size="11">ProductService</text><text x="1193.081912651287" y="403.0339562436412" text-anchor="middle" font-size="9" fill="#1565c0">server</text><rect x="1473.1283601391597" y="639.1760830441224" width="259.85872393359983" height="334.4326822273596" rx="6" fill="#fafafa" stroke="#bbb" stroke-width="1.5" stroke-dasharray="6,4"/><text x="1481.1283601391597" y="658.7760830441224" font-weight="bold" font-size="13">Data Layer</text><rect x="1489.1283601391597" y="679.1760830441224" width="100" height="70" rx="6" fill="#e8f5e9" stroke="#2e7d32" stroke-width="1.5"/><ellipse cx="1539.1283601391597" cy="693.3760830441224" rx="9.6" ry="5" fill="none" stroke="#2e7d32" stroke-width="1.5"/><line x1="1529.5283601391598" y1="693.3760830441224" x2="1529.5283601391598" y2="708.9760830441223" stroke="#2e7d32" stroke-width="1.5"/><line x1="1548.7283601391596" y1="693.3760830441224" x2="1548.7283601391596" y2="708.9760830441223" stroke="#2e7d32" stroke-width="1.5"/><ellipse cx="1539.1283601391597" cy="708.9760830441223" rx="9.6" ry="5" fill="none" stroke="#2e7d32" stroke-width="1.5"/><text x="1539.1283601391597" y="741.1760830441224" text-anchor="middle" font-size="11">UserDB</text><text x="1539.1283601391597" y="729.1760830441224" text-anchor="middle" font-size="9" fill="#2e7d32">db</text><rect x="1616.9870840727594" y="679.1760830441224" width="100" height="70" rx="6" fill="#e8f5e9" stroke="#2e7d32" stroke-width="1.5"/><ellipse cx="1666.9870840727594" cy="693.3760830441224" rx="9.6" ry="5" fill="none" stroke="#2e7d32" stroke-width="1.5"/><line x1="1657.3870840727595" y1="693.3760830441224" x2="1657.3870840727595" y2="708.9760830441223" stroke="#2e7d32" stroke-width="1.5"/><line x1="1676.5870840727594" y1="693.3760830441224" x2="1676.5870840727594" y2="708.9760830441223" stroke="#2e7d32" stroke-width="1.5"/><ellipse cx="1666.9870840727594" cy="708.9760830441223" rx="9.6" ry="5" fill="none" stroke="#2e7d32" stroke-width="1.5"/><text x="1666.9870840727594" y="741.1760830441224" text-anchor="middle" font-size="11">OrderDB</text><text x="1666.9870840727594" y="729.1760830441224" text-anchor="middle" font-size="9" fill="#2e7d32">db</text><rect x="1489.1283601391597" y="785.3924241578021" width="100" height="70" rx="6" fill="#e8f5e9" stroke="#2e7d32" stroke-width="1.5"/><ellipse cx="1539.1283601391597" cy="799.5924241578022" rx="9.6" ry="5" fill="none" stroke="#2e7d32" stroke-width="1.5"/><line x1="1529.5283601391598" y1="799.5924241578022" x2="1529.5283601391598" y2="815.1924241578021" stroke="#2e7d32" stroke-width="1.5"/><line x1="1548.7283601391596" y1="799.5924241578022" x2="1548.7283601391596" y2="815.1924241578021" stroke="#2e7d32" stroke-width="1.5"/><ellipse cx="1539.1283601391597" cy="815.1924241578021" rx="9.6" ry="5" fill="none" stroke="#2e7d32" stroke-width="1.5"/><text x="1539.1283601391597" y="847.3924241578021" text-anchor="middle" font-size="11">ProductDB</text><text x="1539.1283601391597" y="835.3924241578021" text-anchor="middle" font-size="9" fill="#2e7d32">db</text><rect x="1616.9870840727594" y="785.3924241578021" width="100" height="70" rx="6" fill="#fce4ec" stroke="#c62828" stroke-width="1.5"/><polyline points="1662.9870840727594,797.7924241578021 1668.9870840727594,805.3924241578021 1664.9870840727594,809.3924241578021 1670.9870840727594,816.9924241578021" fill="none" stroke="#c62828" stroke-width="2"/><text x="1666.9870840727594" y="847.3924241578021" text-anchor="middle" font-size="11">Redis</text><text x="1666.9870840727594" y="835.3924241578021" text-anchor="middle" font-size="9" fill="#c62828">cache</text><rect x="1489.1283601391597" y="891.608765271482" width="100" height="70" rx="6" fill="#f3e5f5" stroke="#6a1b9a" stroke-width="1.5"/><line x1="1531.1283601391597" y1="913.608765271482" x2="1543.9283601391596" y2="913.608765271482" stroke="#6a1b9a" stroke-width="2"/><polyline points="1540.7283601391596,908.608765271482 1547.1283601391597,913.608765271482 1540.7283601391596,918.608765271482" fill="none" stroke="#6a1b9a" stroke-width="2"/><text x="1539.1283601391597" y="953.608765271482" text-anchor="middle" font-size="11">MessageQueue</text><text x="1539.1283601391597" y="941.608765271482" text-anchor="middle" font-size="9" fill="#6a1b9a">queue</text><rect x="1473.1283601391597" y="40" width="132" height="122" rx="6" fill="#fafafa" stroke="#bbb" stroke-width="1.5" stroke-dasharray="6,4"/><text x="1481.1283601391597" y="59.599999999999994" font-weight="bold" font-size="13">Storage</text><rect x="1489.1283601391597" y="80" width="100" height="70" rx="6" fill="#e0f2f1" stroke="#00695c" stroke-width="1.5"/><path d="M1531.1283601391597,94 L1547.1283601391597,94 L1545.5283601391598,110 L1532.7283601391596,110 Z" fill="none" stroke="#00695c" stroke-width="1.5"/><text x="1539.1283601391597" y="142" text-anchor="middle" font-size="11">ObjectStorage</text><text x="1539.1283601391597" y="130" text-anchor="middle" font-size="9" fill="#00695c">storage</text><path d="M140,352.66428903846753 L471.9343962133148,383.4036234488149" fill="none" stroke="#666" stroke-width="1.5" marker-end="url(#arrow)"/><path d="M571.9343962133148,388.0339562436412 L612.0936041146942,388.0339562436412" fill="none" stroke="#666" stroke-width="1.5" marker-end="url(#arrow)"/><path d="M712.0936041146942,414.1720961050713 L983.6064991681822,556.1089366068685" fill="none" stroke="#666" stroke-width="1.5" marker-end="url(#arrow)"/><rect x="808.8500516414382" y="467.1405163559699" width="78" height="16" rx="3" fill="white" opacity="0.9"/><text x="847.8500516414382" y="479.1405163559699" text-anchor="middle" font-size="11" fill="#666">API calls</text><path d="M1062.3462643573314,617.2470764682986 L1164.3421474621377,741.4601966929558" fill="none" stroke="#666" stroke-width="1.5" marker-end="url(#arrow)"/><rect x="1096.3442059097347" y="661.3536365806272" width="34" height="16" rx="3" fill="white" opacity="0.9"/><text x="1113.3442059097347" y="673.3536365806272" text-anchor="middle" font-size="11" fill="#666">認証</text><path d="M1083.6064991681822,602.5441571679548 L1143.081912651287,626.6877025101948" fill="none" stroke="#666" stroke-width="1.5" marker-end="url(#arrow)"/><path d="M1083.6064991681822,561.9499957686423 L1143.081912651287,537.8064504264024" fill="none" stroke="#666" stroke-width="1.5" marker-end="url(#arrow)"/><path d="M1062.3462643573314,547.2470764682986 L1164.3421474621377,423.0339562436412" fill="none" stroke="#666" stroke-width="1.5" marker-end="url(#arrow)"/><path d="M1243.081912651287,767.4608103243071 L1489.1283601391597,723.1754694127711" fill="none" stroke="#666" stroke-width="1.5" marker-end="url(#arrow)"/><path d="M1243.081912651287,656.6932053482731 L1489.1283601391597,704.4676609057003" fill="none" stroke="#666" stroke-width="1.5" marker-end="url(#arrow)"/><path d="M1241.207568612795,552.5093697267462 L1390.1679643759774,660.8427263854343 Q1539.1283601391597,769.1760830441224 1578.0577221059596,752.4301400040063 L1616.9870840727594,735.6841969638901" fill="none" stroke="#666" stroke-width="1.5" marker-end="url(#arrow)"/><path d="M1237.7300107210701,423.0339562436412 L1423.429185430115,568.6050196438819 Q1609.1283601391597,714.1760830441224 1585.6614254580727,749.7842536009623 L1562.1944907769855,785.3924241578021" fill="none" stroke="#666" stroke-width="1.5" marker-end="url(#arrow)"/><path d="M1222.6874945562622,552.5093697267462 L1509.5227782341844,891.608765271482" fill="none" stroke="#666" stroke-width="1.5" marker-end="url(#arrow)"/><path d="M1224.8591023409895,423.0339562436412 L1381.9937312400746,596.1050196438819 Q1539.1283601391597,769.1760830441224 1578.0577221059596,784.7700090625376 L1616.9870840727594,800.3639350809528" fill="none" stroke="#666" stroke-width="1.5" marker-end="url(#arrow)"/><path d="M1215.84877750219,611.984783209851 L1516.3614952882567,150" fill="none" stroke="#666" stroke-width="1.5" marker-end="url(#arrow)"/></svg>