<svg xmlns="http://www.w3.org/2000/svg" width="1962.529177843639" height="1070.2558199095758" viewBox="0 0 1962.529177843639 1070.2558199095758"><style>text { font-family: sans-serif; font-size: 12px; fill: #333; }</style><defs><marker id="arrow" viewBox="0 0 10 10" refX="10" refY="5" markerWidth="8" markerHeight="8" orient="auto"><polygon points="0,1 10,5 0,9" fill="#666"/></marker></defs><rect x="40" y="351.3709121312117" width="100" height="70" rx="6" fill="#fafafa" stroke="#616161" stroke-width="1.5"/><circle cx="90" cy="365.3709121312117" r="5" fill="none" stroke="#616161" stroke-width="1.5"/><line x1="90" y1="370.3709121312117" x2="90" y2="379.3709121312117" stroke="#616161" stroke-width="1.5"/><line x1="83" y1="374.3709121312117" x2="97" y2="374.3709121312117" stroke="#616161" stroke-width="1.5"/><text x="90" y="413.3709121312117" text-anchor="middle" font-size="11">User</text><text x="90" y="401.3709121312117" text-anchor="middle" font-size="9" fill="#616161">user</text><rect x="518.5749987605207" y="351.3709121312117" width="279.3841995766062" height="122" rx="6" fill="#fafafa" stroke="#bbb" stroke-width="1.5" stroke-dasharray="6,4"/><text x="526.5749987605207" y="370.9709121312117" font-weight="bold" font-size="13">Frontend</text><rect x="534.5749987605207" y="391.3709121312117" width="100" height="70" rx="6" fill="#fff8e1" stroke="#f9a825" stroke-width="1.5"/><circle cx="579.5749987605207" cy="415.3709121312117" r="6" fill="none" stroke="#f9a825" stroke-width="1.5"/><circle cx="584.5749987605207" cy="410.3709121312117" r="7" fill="none" stroke="#f9a825" stroke-width="1.5"/><circle cx="589.5749987605207" cy="415.3709121312117" r="6" fill="none" stroke="#f9a825" stroke-width="1.5"/><text x="584.5749987605207" y="453.3709121312117" text-anchor="middle" font-size="11">CDN</text><text x="584.5749987605207" y="441.3709121312117" text-anchor="middle" font-size="9" fill="#f9a825">cdn</text><rect x="681.9591983371268" y="391.3709121312117" width="100" height="70" rx="6" fill="#e3f2fd" stroke="#1565c0" stroke-width="1.5"/><rect x="722.3591983371268" y="399.3709121312117" width="19.2" height="8" rx="1" fill="none" stroke="#1565c0" stroke-width="1.5"/><rect x="722.3591983371268" y="409.3709121312117" width="19.2" height="8" rx="1" fill="none" stroke="#1565c0" stroke-width="1.5"/><rect x="722.3591983371268" y="419.3709121312117" width="19.2" height="8" rx="1" fill="none" stroke="#1565c0" stroke-width="1.5"/><text x="731.9591983371268" y="453.3709121312117" text-anchor="middle" font-size="11">SPA</text><text x="731.9591983371268" y="441.3709121312117" text-anchor="middle" font-size="9" fill="#1565c0">server</text><rect x="1098.7696392844432" y="351.3709121312117" width="303.23928352680383" height="545.7178505804116" rx="6" fill="#fafafa" stroke="#bbb" stroke-width="1.5" stroke-dasharray="6,4"/><text x="1106.7696392844432" y="370.9709121312117" font-weight="bold" font-size="13">API Layer</text><rect x="1114.7696392844432" y="603.2298374214174" width="100" height="70" rx="6" fill="#fff3e0" stroke="#e65100" stroke-width="1.5"/><circle cx="1164.7696392844432" cy="625.2298374214174" r="8" fill="none" stroke="#e65100" stroke-width="1.5"/><line x1="1156.7696392844432" y1="625.2298374214174" x2="1150.369639284443" y2="619.2298374214174" stroke="#e65100" stroke-width="1.5"/><line x1="1156.7696392844432" y1="625.2298374214174" x2="1150.369639284443" y2="631.2298374214174" stroke="#e65100" stroke-width="1.5"/><text x="1164.7696392844432" y="665.2298374214174" text-anchor="middle" font-size="11">Gateway</text><text x="1164.7696392844432" y="653.2298374214174" text-anchor="middle" font-size="9" fill="#e65100">lb</text><rect x="1286.008922811247" y="815.0887627116232" width="100" height="70" rx="6" fill="#e3f2fd" stroke="#1565c0" stroke-width="1.5"/><rect x="1326.408922811247" y="823.0887627116232" width="19.2" height="8" rx="1" fill="none" stroke="#1565c0" stroke-width="1.5"/><rect x="1326.408922811247" y="833.0887627116232" width="19.2" height="8" rx="1" fill="none" stroke="#1565c0" stroke-width="1.5"/><rect x="1326.408922811247" y="843.0887627116232" width="19.2" height="8" rx="1" fill="none" stroke="#1565c0" stroke-width="1.5"/><text x="1336.008922811247" y="877.0887627116232" text-anchor="middle" font-size="11">AuthService</text><text x="1336.008922811247" y="865.0887627116232" text-anchor="middle" font-size="9" fill="#1565c0">server</text><rect x="1286.008922811247" y="673.8494791848193" width="100" height="70" rx="6" fill="#e3f2fd" stroke="#1565c0" stroke-width="1.5"/><rect x="1326.408922811247" y="681.8494791848193" width="19.2" height="8" rx="1" fill="none" stroke="#1565c0" stroke-width="1.5"/><rect x="1326.408922811247" y="691.8494791848193" width="19.2" height="8" rx="1" fill="none" stroke="#1565c0" stroke-width="1.5"/><rect x="1326.408922811247" y="701.8494791848193" width="19.2" height="8" rx="1" fill="none" stroke="#1565c0" stroke-width="1.5"/><text x="1336.008922811247" y="735.8494791848193" text-anchor="middle" font-size="11">UserService</text><text x="1336.008922811247" y="723.8494791848193" text-anchor="middle" font-size="9" fill="#1565c0">server</text><rect x="1286.008922811247" y="532.6101956580155" width="100" height="70" rx="6" fill="#e3f2fd" stroke="#1565c0" stroke-width="1.5"/><rect x="1326.408922811247" y="540.6101956580155" width="19.2" height="8" rx="1" fill="none" stroke="#1565c0" stroke-width="1.5"/><rect x="1326.408922811247" y="550.6101956580155" width="19.2" height="8" rx="1" fill="none" stroke="#1565c0" stroke-width="1.5"/><rect x="1326.408922811247" y="560.6101956580155" width="19.2" height="8" rx="1" fill="none" stroke="#1565c0" stroke-width="1.5"/><text x="1336.008922811247" y="594.6101956580155" text-anchor="middle" font-size="11">OrderService</text><text x="1336.008922811247" y="582.6101956580155" text-anchor="middle" font-size="9" fill="#1565c0">server</text><rect x="1286.008922811247" y="391.3709121312117" width="100" height="70" rx="6" fill="#e3f2fd" stroke="#1565c0" stroke-width="1.5"/><rect x="1326.408922811247" y="399.3709121312117" width="19.2" height="8" rx="1" fill="none" stroke="#1565c0" stroke-width="1.5"/><rect x="1326.408922811247" y="409.3709121312117" width="19.2" height="8" rx="1" fill="none" stroke="#1565c0" stroke-width="1.5"/><rect x="1326.408922811247" y="419.3709121312117" width="19.2" height="8" rx="1" fill="none" stroke="#1565c0" stroke-width="1.5"/><text x="1336.008922811247" y="453.3709121312117" text-anchor="middle" font-size="11">ProductService</text><text x="1336.008922811247" y="441.3709121312117" text-anchor="middle" font-size="9" fill="#1565c0">server</text><rect x="1667.0245126279215" y="711.8446233918539" width="255.5046652157175" height="318.411196517722" rx="6" fill="#fafafa" stroke="#bbb" stroke-width="1.5" stroke-dasharray="6,4"/><text x="1675.0245126279215" y="731.444623391854" font-weight="bold" font-size="13">Data Layer</text><rect x="1683.0245126279215" y="751.8446233918539" width="100" height="70" rx="6" fill="#e8f5e9" stroke="#2e7d32" stroke-width="1.5"/><ellipse cx="1733.0245126279215" cy="766.044623391854" rx="9.6" ry="5" fill="none" stroke="#2e7d32" stroke-width="1.5"/><line x1="1723.4245126279216" y1="766.044623391854" x2="1723.4245126279216" y2="781.6446233918539" stroke="#2e7d32" stroke-width="1.5"/><line x1="1742.6245126279214" y1="766.044623391854" x2="1742.6245126279214" y2="781.6446233918539" stroke="#2e7d32" stroke-width="1.5"/><ellipse cx="1733.0245126279215" cy="781.6446233918539" rx="9.6" ry="5" fill="none" stroke="#2e7d32" stroke-width="1.5"/><text x="1733.0245126279215" y="813.8446233918539" text-anchor="middle" font-size="11">UserDB</text><text x="1733.0245126279215" y="801.8446233918539" text-anchor="middle" font-size="9" fill="#2e7d32">db</text><rect x="1806.529177843639" y="751.8446233918539" width="100" height="70" rx="6" fill="#e8f5e9" stroke="#2e7d32" stroke-width="1.5"/><ellipse cx="1856.529177843639" cy="766.044623391854" rx="9.6" ry="5" fill="none" stroke="#2e7d32" stroke-width="1.5"/><line x1="1846.929177843639" y1="766.044623391854" x2="1846.929177843639" y2="781.6446233918539" stroke="#2e7d32" stroke-width="1.5"/><line x1="1866.129177843639" y1="766.044623391854" x2="1866.129177843639" y2="781.6446233918539" stroke="#2e7d32" stroke-width="1.5"/><ellipse cx="1856.529177843639" cy="781.6446233918539" rx="9.6" ry="5" fill="none" stroke="#2e7d32" stroke-width="1.5"/><text x="1856.529177843639" y="813.8446233918539" text-anchor="middle" font-size="11">OrderDB</text><text x="1856.529177843639" y="801.8446233918539" text-anchor="middle" font-size="9" fill="#2e7d32">db</text><rect x="1683.0245126279215" y="850.0502216507149" width="100" height="70" rx="6" fill="#e8f5e9" stroke="#2e7d32" stroke-width="1.5"/><ellipse cx="1733.0245126279215" cy="864.2502216507149" rx="9.6" ry="5" fill="none" stroke="#2e7d32" stroke-width="1.5"/><line x1="1723.4245126279216" y1="864.2502216507149" x2="1723.4245126279216" y2="879.8502216507148" stroke="#2e7d32" stroke-width="1.5"/><line x1="1742.6245126279214" y1="864.2502216507149" x2="1742.6245126279214" y2="879.8502216507148" stroke="#2e7d32" stroke-width="1.5"/><ellipse cx="1733.0245126279215" cy="879.8502216507148" rx="9.6" ry="5" fill="none" stroke="#2e7d32" stroke-width="1.5"/><text x="1733.0245126279215" y="912.0502216507149" text-anchor="middle" font-size="11">ProductDB</text><text x="1733.0245126279215" y="900.0502216507149" text-anchor="middle" font-size="9" fill="#2e7d32">db</text><rect x="1806.529177843639" y="850.0502216507149" width="100" height="70" rx="6" fill="#fce4ec" stroke="#c62828" stroke-width="1.5"/><polyline points="1852.529177843639,862.4502216507149 1858.529177843639,870.0502216507149 1854.529177843639,874.0502216507149 1860.529177843639,881.6502216507149" fill="none" stroke="#c62828" stroke-width="2"/><text x="1856.529177843639" y="912.0502216507149" text-anchor="middle" font-size="11">Redis</text><text x="1856.529177843639" y="900.0502216507149" text-anchor="middle" font-size="9" fill="#c62828">cache</text><rect x="1683.0245126279215" y="948.2558199095758" width="100" height="70" rx="6" fill="#f3e5f5" stroke="#6a1b9a" stroke-width="1.5"/><line x1="1725.0245126279215" y1="970.2558199095758" x2="1737.8245126279214" y2="970.2558199095758" stroke="#6a1b9a" stroke-width="2"/><polyline points="1734.6245126279214,965.2558199095758 1741.0245126279215,970.2558199095758 1734.6245126279214,975.2558199095758" fill="none" stroke="#6a1b9a" stroke-width="2"/><text x="1733.0245126279215" y="1010.2558199095758" text-anchor="middle" font-size="11">MessageQueue</text><text x="1733.0245126279215" y="998.2558199095758" text-anchor="middle" font-size="9" fill="#6a1b9a">queue</text><rect x="1667.0245126279215" y="40" width="132" height="122" rx="6" fill="#fafafa" stroke="#bbb" stroke-width="1.5" stroke-dasharray="6,4"/><text x="1675.0245126279215" y="59.599999999999994" font-weight="bold" font-size="13">Storage</text><rect x="1683.0245126279215" y="80" width="100" height="70" rx="6" fill="#e0f2f1" stroke="#00695c" stroke-width="1.5"/><path d="M1725.0245126279215,94 L1741.0245126279215,94 L1739.4245126279216,110 L1726.6245126279214,110 Z" fill="none" stroke="#00695c" stroke-width="1.5"/><text x="1733.0245126279215" y="142" text-anchor="middle" font-size="11">ObjectStorage</text><text x="1733.0245126279215" y="130" text-anchor="middle" font-size="9" fill="#00695c">storage</text><path d="M140,390.41478819654515 L534.5749987605207,422.32703606587825" fill="none" stroke="#666" stroke-width="1.5" marker-end="url(#arrow)"/><path d="M634.5749987605207,426.3709121312117 L681.9591983371268,426.3709121312117" fill="none" stroke="#666" stroke-width="1.5" marker-end="url(#arrow)"/><path d="M781.9591983371268,450.8457058569012 L1114.7696392844432,613.7550436957279" fill="none" stroke="#666" stroke-width="1.5" marker-end="url(#arrow)"/><rect x="909.3644188107851" y="514.3003747763146" width="78" height="16" rx="3" fill="white" opacity="0.9"/><text x="948.3644188107851" y="526.3003747763146" text-anchor="middle" font-size="11" fill="#666">API calls</text><path d="M1193.0591008458496,673.2298374214174 L1307.7194612498406,815.0887627116232" fill="none" stroke="#666" stroke-width="1.5" marker-end="url(#arrow)"/><rect x="1233.389281047845" y="726.1593000665202" width="34" height="16" rx="3" fill="white" opacity="0.9"/><text x="1250.389281047845" y="738.1593000665202" text-anchor="middle" font-size="11" fill="#666">認証</text><path d="M1214.7696392844432,658.8500012964747 L1286.008922811247,688.229315309762" fill="none" stroke="#666" stroke-width="1.5" marker-end="url(#arrow)"/><path d="M1214.7696392844432,617.6096735463601 L1286.008922811247,588.2303595330728" fill="none" stroke="#666" stroke-width="1.5" marker-end="url(#arrow)"/><path d="M1193.0591008458496,603.2298374214174 L1307.7194612498406,461.3709121312117" fill="none" stroke="#666" stroke-width="1.5" marker-end="url(#arrow)"/><path d="M1386.008922811247,842.1238186462059 L1683.0245126279215,794.8095674572712" fill="none" stroke="#666" stroke-width="1.5" marker-end="url(#arrow)"/><path d="M1386.008922811247,718.6721594784382 L1683.0245126279215,777.021943098235" fill="none" stroke="#666" stroke-width="1.5" marker-end="url(#arrow)"/><path d="M1386.008922811247,602.1471804475132 L1559.5167177195842,721.9959019196835 Q1733.0245126279215,841.8446233918539 1769.7768452357802,825.4778060744545 L1806.529177843639,809.110988757055" fill="none" stroke="#666" stroke-width="1.5" marker-end="url(#arrow)"/><path d="M1381.3535488768212,461.3709121312117 L1592.1890307523713,624.1077677615328 Q1803.0245126279215,786.8446233918539 1780.498343262006,818.4474225212844 L1757.972173896091,850.0502216507149" fill="none" stroke="#666" stroke-width="1.5" marker-end="url(#arrow)"/><path d="M1369.440155651975,602.6101956580155 L1699.5932797871935,948.2558199095758" fill="none" stroke="#666" stroke-width="1.5" marker-end="url(#arrow)"/><path d="M1369.4539886889925,461.3709121312117 L1551.239250658457,651.6077677615328 Q1733.0245126279215,841.8446233918539 1769.7768452357802,854.7016803698855 L1806.529177843639,867.5587373479169" fill="none" stroke="#666" stroke-width="1.5" marker-end="url(#arrow)"/><path d="M1359.4080266761828,673.8494791848193 L1709.6254087629857,150" fill="none" stroke="#666" stroke-width="1.5" marker-end="url(#arrow)"/></svg>