<svg xmlns="http://www.w3.org/2000/svg" width="1281" height="870" viewBox="0 0 1281 870"><style>text { font-family: sans-serif; font-size: 12px; fill: #333; }</style><defs><marker id="arrow" viewBox="0 0 10 10" refX="10" refY="5" markerWidth="8" markerHeight="8" orient="auto"><polygon points="0,1 10,5 0,9" fill="#666"/></marker></defs><rect x="258" y="40" width="100" height="70" rx="6" fill="#fafafa" stroke="#616161" stroke-width="1.5"/><circle cx="308" cy="54" r="5" fill="none" stroke="#616161" stroke-width="1.5"/><line x1="308" y1="59" x2="308" y2="68" stroke="#616161" stroke-width="1.5"/><line x1="301" y1="63" x2="315" y2="63" stroke="#616161" stroke-width="1.5"/><text x="308" y="102" text-anchor="middle" font-size="11">User</text><text x="308" y="90" text-anchor="middle" font-size="9" fill="#616161">user</text><rect x="258" y="225" width="132" height="220" rx="6" fill="#fafafa" stroke="#bbb" stroke-width="1.5" stroke-dasharray="6,4"/><text x="266" y="244.6" font-weight="bold" font-size="13">Frontend</text><rect x="274" y="265" width="100" height="70" rx="6" fill="#fff8e1" stroke="#f9a825" stroke-width="1.5"/><circle cx="319" cy="289" r="6" fill="none" stroke="#f9a825" stroke-width="1.5"/><circle cx="324" cy="284" r="7" fill="none" stroke="#f9a825" stroke-width="1.5"/><circle cx="329" cy="289" r="6" fill="none" stroke="#f9a825" stroke-width="1.5"/><text x="324" y="327" text-anchor="middle" font-size="11">CDN</text><text x="324" y="315" text-anchor="middle" font-size="9" fill="#f9a825">cdn</text><rect x="274" y="363" width="100" height="70" rx="6" fill="#e3f2fd" stroke="#1565c0" stroke-width="1.5"/><rect x="314.4" y="371" width="19.2" height="8" rx="1" fill="none" stroke="#1565c0" stroke-width="1.5"/><rect x="314.4" y="381" width="19.2" height="8" rx="1" fill="none" stroke="#1565c0" stroke-width="1.5"/><rect x="314.4" y="391" width="19.2" height="8" rx="1" fill="none" stroke="#1565c0" stroke-width="1.5"/><text x="324" y="425" text-anchor="middle" font-size="11">SPA</text><text x="324" y="413" text-anchor="middle" font-size="9" fill="#1565c0">server</text><rect x="258" y="491" width="552" height="232" rx="6" fill="#fafafa" stroke="#bbb" stroke-width="1.5" stroke-dasharray="6,4"/><text x="266" y="510.6" font-weight="bold" font-size="13">API Layer</text><rect x="484" y="531" width="100" height="70" rx="6" fill="#fff3e0" stroke="#e65100" stroke-width="1.5"/><circle cx="534" cy="553" r="8" fill="none" stroke="#e65100" stroke-width="1.5"/><line x1="526" y1="553" x2="519.6" y2="547" stroke="#e65100" stroke-width="1.5"/><line x1="526" y1="553" x2="519.6" y2="559" stroke="#e65100" stroke-width="1.5"/><text x="534" y="593" text-anchor="middle" font-size="11">Gateway</text><text x="534" y="581" text-anchor="middle" font-size="9" fill="#e65100">lb</text><rect x="694" y="641" width="100" height="70" rx="6" fill="#e3f2fd" stroke="#1565c0" stroke-width="1.5"/><rect x="734.4" y="649" width="19.2" height="8" rx="1" fill="none" stroke="#1565c0" stroke-width="1.5"/><rect x="734.4" y="659" width="19.2" height="8" rx="1" fill="none" stroke="#1565c0" stroke-width="1.5"/><rect x="734.4" y="669" width="19.2" height="8" rx="1" fill="none" stroke="#1565c0" stroke-width="1.5"/><text x="744" y="703" text-anchor="middle" font-size="11">AuthService</text><text x="744" y="691" text-anchor="middle" font-size="9" fill="#1565c0">server</text><rect x="554" y="641" width="100" height="70" rx="6" fill="#e3f2fd" stroke="#1565c0" stroke-width="1.5"/><rect x="594.4" y="649" width="19.2" height="8" rx="1" fill="none" stroke="#1565c0" stroke-width="1.5"/><rect x="594.4" y="659" width="19.2" height="8" rx="1" fill="none" stroke="#1565c0" stroke-width="1.5"/><rect x="594.4" y="669" width="19.2" height="8" rx="1" fill="none" stroke="#1565c0" stroke-width="1.5"/><text x="604" y="703" text-anchor="middle" font-size="11">UserService</text><text x="604" y="691" text-anchor="middle" font-size="9" fill="#1565c0">server</text><rect x="414" y="641" width="100" height="70" rx="6" fill="#e3f2fd" stroke="#1565c0" stroke-width="1.5"/><rect x="454.4" y="649" width="19.2" height="8" rx="1" fill="none" stroke="#1565c0" stroke-width="1.5"/><rect x="454.4" y="659" width="19.2" height="8" rx="1" fill="none" stroke="#1565c0" stroke-width="1.5"/><rect x="454.4" y="669" width="19.2" height="8" rx="1" fill="none" stroke="#1565c0" stroke-width="1.5"/><text x="464" y="703" text-anchor="middle" font-size="11">OrderService</text><text x="464" y="691" text-anchor="middle" font-size="9" fill="#1565c0">server</text><rect x="274" y="641" width="100" height="70" rx="6" fill="#e3f2fd" stroke="#1565c0" stroke-width="1.5"/><rect x="314.4" y="649" width="19.2" height="8" rx="1" fill="none" stroke="#1565c0" stroke-width="1.5"/><rect x="314.4" y="659" width="19.2" height="8" rx="1" fill="none" stroke="#1565c0" stroke-width="1.5"/><rect x="314.4" y="669" width="19.2" height="8" rx="1" fill="none" stroke="#1565c0" stroke-width="1.5"/><text x="324" y="703" text-anchor="middle" font-size="11">ProductService</text><text x="324" y="691" text-anchor="middle" font-size="9" fill="#1565c0">server</text><rect x="581" y="708" width="660" height="122" rx="6" fill="#fafafa" stroke="#bbb" stroke-width="1.5" stroke-dasharray="6,4"/><text x="589" y="727.6" font-weight="bold" font-size="13">Data Layer</text><rect x="597" y="748" width="100" height="70" rx="6" fill="#e8f5e9" stroke="#2e7d32" stroke-width="1.5"/><ellipse cx="647" cy="762.2" rx="9.6" ry="5" fill="none" stroke="#2e7d32" stroke-width="1.5"/><line x1="637.4" y1="762.2" x2="637.4" y2="777.8" stroke="#2e7d32" stroke-width="1.5"/><line x1="656.6" y1="762.2" x2="656.6" y2="777.8" stroke="#2e7d32" stroke-width="1.5"/><ellipse cx="647" cy="777.8" rx="9.6" ry="5" fill="none" stroke="#2e7d32" stroke-width="1.5"/><text x="647" y="810" text-anchor="middle" font-size="11">UserDB</text><text x="647" y="798" text-anchor="middle" font-size="9" fill="#2e7d32">db</text><rect x="729" y="748" width="100" height="70" rx="6" fill="#e8f5e9" stroke="#2e7d32" stroke-width="1.5"/><ellipse cx="779" cy="762.2" rx="9.6" ry="5" fill="none" stroke="#2e7d32" stroke-width="1.5"/><line x1="769.4" y1="762.2" x2="769.4" y2="777.8" stroke="#2e7d32" stroke-width="1.5"/><line x1="788.6" y1="762.2" x2="788.6" y2="777.8" stroke="#2e7d32" stroke-width="1.5"/><ellipse cx="779" cy="777.8" rx="9.6" ry="5" fill="none" stroke="#2e7d32" stroke-width="1.5"/><text x="779" y="810" text-anchor="middle" font-size="11">OrderDB</text><text x="779" y="798" text-anchor="middle" font-size="9" fill="#2e7d32">db</text><rect x="861" y="748" width="100" height="70" rx="6" fill="#e8f5e9" stroke="#2e7d32" stroke-width="1.5"/><ellipse cx="911" cy="762.2" rx="9.6" ry="5" fill="none" stroke="#2e7d32" stroke-width="1.5"/><line x1="901.4" y1="762.2" x2="901.4" y2="777.8" stroke="#2e7d32" stroke-width="1.5"/><line x1="920.6" y1="762.2" x2="920.6" y2="777.8" stroke="#2e7d32" stroke-width="1.5"/><ellipse cx="911" cy="777.8" rx="9.6" ry="5" fill="none" stroke="#2e7d32" stroke-width="1.5"/><text x="911" y="810" text-anchor="middle" font-size="11">ProductDB</text><text x="911" y="798" text-anchor="middle" font-size="9" fill="#2e7d32">db</text><rect x="993" y="748" width="100" height="70" rx="6" fill="#fce4ec" stroke="#c62828" stroke-width="1.5"/><polyline points="1039,760.4 1045,768 1041,772 1047,779.6" fill="none" stroke="#c62828" stroke-width="2"/><text x="1043" y="810" text-anchor="middle" font-size="11">Redis</text><text x="1043" y="798" text-anchor="middle" font-size="9" fill="#c62828">cache</text><rect x="1125" y="748" width="100" height="70" rx="6" fill="#f3e5f5" stroke="#6a1b9a" stroke-width="1.5"/><line x1="1167" y1="770" x2="1179.8" y2="770" stroke="#6a1b9a" stroke-width="2"/><polyline points="1176.6,765 1183,770 1176.6,775" fill="none" stroke="#6a1b9a" stroke-width="2"/><text x="1175" y="810" text-anchor="middle" font-size="11">MessageQueue</text><text x="1175" y="798" text-anchor="middle" font-size="9" fill="#6a1b9a">queue</text><rect x="40" y="708" width="132" height="122" rx="6" fill="#fafafa" stroke="#bbb" stroke-width="1.5" stroke-dasharray="6,4"/><text x="48" y="727.6" font-weight="bold" font-size="13">Storage</text><rect x="56" y="748" width="100" height="70" rx="6" fill="#e0f2f1" stroke="#00695c" stroke-width="1.5"/><path d="M98,762 L114,762 L112.4,778 L99.6,778 Z" fill="none" stroke="#00695c" stroke-width="1.5"/><text x="106" y="810" text-anchor="middle" font-size="11">ObjectStorage</text><text x="106" y="798" text-anchor="middle" font-size="9" fill="#00695c">storage</text><path d="M310.4888888888889,110 L321.5111111111111,265" fill="none" stroke="#666" stroke-width="1.5" marker-end="url(#arrow)"/><path d="M324,335 L324,363" fill="none" stroke="#666" stroke-width="1.5" marker-end="url(#arrow)"/><path d="M367.75,433 L490.25,531" fill="none" stroke="#666" stroke-width="1.5" marker-end="url(#arrow)"/><rect x="390" y="464" width="78" height="16" rx="3" fill="white" opacity="0.9"/><text x="429" y="476" text-anchor="middle" font-size="11" fill="#666">API calls</text><path d="M584,592.1904761904761 L694,649.8095238095239" fill="none" stroke="#666" stroke-width="1.5" marker-end="url(#arrow)"/><rect x="622" y="603" width="34" height="16" rx="3" fill="white" opacity="0.9"/><text x="639" y="615" text-anchor="middle" font-size="11" fill="#666">認証</text><path d="M556.2727272727273,601 L581.7272727272727,641" fill="none" stroke="#666" stroke-width="1.5" marker-end="url(#arrow)"/><path d="M511.72727272727275,601 L486.27272727272725,641" fill="none" stroke="#666" stroke-width="1.5" marker-end="url(#arrow)"/><path d="M484,592.1904761904761 L374,649.8095238095239" fill="none" stroke="#666" stroke-width="1.5" marker-end="url(#arrow)"/><path d="M712.2710280373832,711 L678.7289719626168,748" fill="none" stroke="#666" stroke-width="1.5" marker-end="url(#arrow)"/><path d="M618.0654205607476,711 L632.9345794392524,748" fill="none" stroke="#666" stroke-width="1.5" marker-end="url(#arrow)"/><path d="M514,656.3571428571429 L559,638.6785714285714 Q604,621 672.5956790123457,684.5 L741.1913580246913,748" fill="none" stroke="#666" stroke-width="1.5" marker-end="url(#arrow)"/><path d="M374,656.3571428571429 L419,638.6785714285714 Q464,621 662.5,692.9395973154362 L861,764.8791946308725" fill="none" stroke="#666" stroke-width="1.5" marker-end="url(#arrow)"/><path d="M514,656.3571428571429 L559,638.6785714285714 Q604,621 674,676 Q744,731 827.5,784.5 Q911,838 977,783 Q1043,728 1084,745.0833333333333 L1125,762.1666666666666" fill="none" stroke="#666" stroke-width="1.5" marker-end="url(#arrow)"/><path d="M374,656.3571428571429 L419,638.6785714285714 Q464,621 534,676 Q604,731 691.5,784.5 Q779,838 845,783 Q911,728 952,745.0833333333333 L993,762.1666666666666" fill="none" stroke="#666" stroke-width="1.5" marker-end="url(#arrow)"/><path d="M554,695.6428571428571 L509,713.3214285714286 Q464,731 310,753.3687150837989 L156,775.7374301675977" fill="none" stroke="#666" stroke-width="1.5" marker-end="url(#arrow)"/></svg>