<svg xmlns="http://www.w3.org/2000/svg" width="3134.5941009834733" height="936.6410838690588" viewBox="0 0 3134.5941009834733 936.6410838690588"><style>text { font-family: sans-serif; font-size: 12px; fill: #333; }</style><defs><marker id="arrow" viewBox="0 0 10 10" refX="10" refY="5" markerWidth="8" markerHeight="8" orient="auto"><polygon points="0,1 10,5 0,9" fill="#666"/></marker></defs><rect x="40" y="333.63721718341594" width="100" height="70" rx="6" fill="#fafafa" stroke="#616161" stroke-width="1.5"/><circle cx="90" cy="347.63721718341594" r="5" fill="none" stroke="#616161" stroke-width="1.5"/><line x1="90" y1="352.63721718341594" x2="90" y2="361.63721718341594" stroke="#616161" stroke-width="1.5"/><line x1="83" y1="356.63721718341594" x2="97" y2="356.63721718341594" stroke="#616161" stroke-width="1.5"/><text x="90" y="395.63721718341594" text-anchor="middle" font-size="11">User</text><text x="90" y="383.63721718341594" text-anchor="middle" font-size="9" fill="#616161">user</text><rect x="457.9077848646051" y="333.63721718341594" width="100" height="70" rx="6" fill="#fff3e0" stroke="#e65100" stroke-width="1.5"/><circle cx="507.9077848646051" cy="355.63721718341594" r="8" fill="none" stroke="#e65100" stroke-width="1.5"/><line x1="499.9077848646051" y1="355.63721718341594" x2="493.5077848646051" y2="349.63721718341594" stroke="#e65100" stroke-width="1.5"/><line x1="499.9077848646051" y1="355.63721718341594" x2="493.5077848646051" y2="361.63721718341594" stroke="#e65100" stroke-width="1.5"/><text x="507.9077848646051" y="395.63721718341594" text-anchor="middle" font-size="11">GlobalLB</text><text x="507.9077848646051" y="383.63721718341594" text-anchor="middle" font-size="9" fill="#e65100">lb</text><rect x="1069.182219231437" y="627.2744343668319" width="486.73329900445367" height="269.36664950222684" rx="6" fill="#fafafa" stroke="#bbb" stroke-width="1.5" stroke-dasharray="6,4"/><text x="1077.182219231437" y="646.8744343668319" font-weight="bold" font-size="13">Tokyo Region</text><rect x="1085.182219231437" y="740.9577591179453" width="100" height="70" rx="6" fill="#fff3e0" stroke="#e65100" stroke-width="1.5"/><circle cx="1135.182219231437" cy="762.9577591179453" r="8" fill="none" stroke="#e65100" stroke-width="1.5"/><line x1="1127.182219231437" y1="762.9577591179453" x2="1120.782219231437" y2="756.9577591179453" stroke="#e65100" stroke-width="1.5"/><line x1="1127.182219231437" y1="762.9577591179453" x2="1120.782219231437" y2="768.9577591179453" stroke="#e65100" stroke-width="1.5"/><text x="1135.182219231437" y="802.9577591179453" text-anchor="middle" font-size="11">TokyoLB</text><text x="1135.182219231437" y="790.9577591179453" text-anchor="middle" font-size="9" fill="#e65100">lb</text><rect x="1262.548868733664" y="814.6410838690588" width="100" height="70" rx="6" fill="#e3f2fd" stroke="#1565c0" stroke-width="1.5"/><rect x="1302.948868733664" y="822.6410838690588" width="19.2" height="8" rx="1" fill="none" stroke="#1565c0" stroke-width="1.5"/><rect x="1302.948868733664" y="832.6410838690588" width="19.2" height="8" rx="1" fill="none" stroke="#1565c0" stroke-width="1.5"/><rect x="1302.948868733664" y="842.6410838690588" width="19.2" height="8" rx="1" fill="none" stroke="#1565c0" stroke-width="1.5"/><text x="1312.548868733664" y="876.6410838690588" text-anchor="middle" font-size="11">TokyoApp1</text><text x="1312.548868733664" y="864.6410838690588" text-anchor="middle" font-size="9" fill="#1565c0">server</text><rect x="1262.548868733664" y="667.2744343668319" width="100" height="70" rx="6" fill="#e3f2fd" stroke="#1565c0" stroke-width="1.5"/><rect x="1302.948868733664" y="675.2744343668319" width="19.2" height="8" rx="1" fill="none" stroke="#1565c0" stroke-width="1.5"/><rect x="1302.948868733664" y="685.2744343668319" width="19.2" height="8" rx="1" fill="none" stroke="#1565c0" stroke-width="1.5"/><rect x="1302.948868733664" y="695.2744343668319" width="19.2" height="8" rx="1" fill="none" stroke="#1565c0" stroke-width="1.5"/><text x="1312.548868733664" y="729.2744343668319" text-anchor="middle" font-size="11">TokyoApp2</text><text x="1312.548868733664" y="717.2744343668319" text-anchor="middle" font-size="9" fill="#1565c0">server</text><rect x="1439.9155182358909" y="667.2744343668319" width="100" height="70" rx="6" fill="#e8f5e9" stroke="#2e7d32" stroke-width="1.5"/><ellipse cx="1489.9155182358909" cy="681.4744343668319" rx="9.6" ry="5" fill="none" stroke="#2e7d32" stroke-width="1.5"/><line x1="1480.315518235891" y1="681.4744343668319" x2="1480.315518235891" y2="697.0744343668318" stroke="#2e7d32" stroke-width="1.5"/><line x1="1499.5155182358908" y1="681.4744343668319" x2="1499.5155182358908" y2="697.0744343668318" stroke="#2e7d32" stroke-width="1.5"/><ellipse cx="1489.9155182358909" cy="697.0744343668318" rx="9.6" ry="5" fill="none" stroke="#2e7d32" stroke-width="1.5"/><text x="1489.9155182358909" y="729.2744343668319" text-anchor="middle" font-size="11">TokyoDB</text><text x="1489.9155182358909" y="717.2744343668319" text-anchor="middle" font-size="9" fill="#2e7d32">db</text><rect x="1439.9155182358909" y="814.6410838690588" width="100" height="70" rx="6" fill="#fce4ec" stroke="#c62828" stroke-width="1.5"/><polyline points="1485.9155182358909,827.0410838690588 1491.9155182358909,834.6410838690588 1487.9155182358909,838.6410838690588 1493.9155182358909,846.2410838690588" fill="none" stroke="#c62828" stroke-width="2"/><text x="1489.9155182358909" y="876.6410838690588" text-anchor="middle" font-size="11">TokyoCache</text><text x="1489.9155182358909" y="864.6410838690588" text-anchor="middle" font-size="9" fill="#c62828">cache</text><rect x="1873.8233031004957" y="40" width="486.73329900445367" height="269.36664950222684" rx="6" fill="#fafafa" stroke="#bbb" stroke-width="1.5" stroke-dasharray="6,4"/><text x="1881.8233031004957" y="59.599999999999994" font-weight="bold" font-size="13">US Region</text><rect x="1889.8233031004957" y="153.68332475111342" width="100" height="70" rx="6" fill="#fff3e0" stroke="#e65100" stroke-width="1.5"/><circle cx="1939.8233031004957" cy="175.68332475111342" r="8" fill="none" stroke="#e65100" stroke-width="1.5"/><line x1="1931.8233031004957" y1="175.68332475111342" x2="1925.4233031004956" y2="169.68332475111342" stroke="#e65100" stroke-width="1.5"/><line x1="1931.8233031004957" y1="175.68332475111342" x2="1925.4233031004956" y2="181.68332475111342" stroke="#e65100" stroke-width="1.5"/><text x="1939.8233031004957" y="215.68332475111342" text-anchor="middle" font-size="11">USLB</text><text x="1939.8233031004957" y="203.68332475111342" text-anchor="middle" font-size="9" fill="#e65100">lb</text><rect x="2067.1899526027223" y="227.36664950222684" width="100" height="70" rx="6" fill="#e3f2fd" stroke="#1565c0" stroke-width="1.5"/><rect x="2107.5899526027224" y="235.36664950222684" width="19.2" height="8" rx="1" fill="none" stroke="#1565c0" stroke-width="1.5"/><rect x="2107.5899526027224" y="245.36664950222684" width="19.2" height="8" rx="1" fill="none" stroke="#1565c0" stroke-width="1.5"/><rect x="2107.5899526027224" y="255.36664950222684" width="19.2" height="8" rx="1" fill="none" stroke="#1565c0" stroke-width="1.5"/><text x="2117.1899526027223" y="289.36664950222684" text-anchor="middle" font-size="11">USApp1</text><text x="2117.1899526027223" y="277.36664950222684" text-anchor="middle" font-size="9" fill="#1565c0">server</text><rect x="2067.1899526027223" y="80" width="100" height="70" rx="6" fill="#e3f2fd" stroke="#1565c0" stroke-width="1.5"/><rect x="2107.5899526027224" y="88" width="19.2" height="8" rx="1" fill="none" stroke="#1565c0" stroke-width="1.5"/><rect x="2107.5899526027224" y="98" width="19.2" height="8" rx="1" fill="none" stroke="#1565c0" stroke-width="1.5"/><rect x="2107.5899526027224" y="108" width="19.2" height="8" rx="1" fill="none" stroke="#1565c0" stroke-width="1.5"/><text x="2117.1899526027223" y="142" text-anchor="middle" font-size="11">USApp2</text><text x="2117.1899526027223" y="130" text-anchor="middle" font-size="9" fill="#1565c0">server</text><rect x="2244.5566021049494" y="80" width="100" height="70" rx="6" fill="#e8f5e9" stroke="#2e7d32" stroke-width="1.5"/><ellipse cx="2294.5566021049494" cy="94.2" rx="9.6" ry="5" fill="none" stroke="#2e7d32" stroke-width="1.5"/><line x1="2284.9566021049495" y1="94.2" x2="2284.9566021049495" y2="109.8" stroke="#2e7d32" stroke-width="1.5"/><line x1="2304.1566021049493" y1="94.2" x2="2304.1566021049493" y2="109.8" stroke="#2e7d32" stroke-width="1.5"/><ellipse cx="2294.5566021049494" cy="109.8" rx="9.6" ry="5" fill="none" stroke="#2e7d32" stroke-width="1.5"/><text x="2294.5566021049494" y="142" text-anchor="middle" font-size="11">USDB</text><text x="2294.5566021049494" y="130" text-anchor="middle" font-size="9" fill="#2e7d32">db</text><rect x="2244.5566021049494" y="227.36664950222684" width="100" height="70" rx="6" fill="#fce4ec" stroke="#c62828" stroke-width="1.5"/><polyline points="2290.5566021049494,239.76664950222684 2296.5566021049494,247.36664950222684 2292.5566021049494,251.36664950222684 2298.5566021049494,258.96664950222686" fill="none" stroke="#c62828" stroke-width="2"/><text x="2294.5566021049494" y="289.36664950222684" text-anchor="middle" font-size="11">USCache</text><text x="2294.5566021049494" y="277.36664950222684" text-anchor="middle" font-size="9" fill="#c62828">cache</text><rect x="2654.929858639376" y="333.63721718341594" width="439.6642423440969" height="122" rx="6" fill="#fafafa" stroke="#bbb" stroke-width="1.5" stroke-dasharray="6,4"/><text x="2662.929858639376" y="353.23721718341596" font-weight="bold" font-size="13">Shared</text><rect x="2670.929858639376" y="373.63721718341594" width="100" height="70" rx="6" fill="#fff8e1" stroke="#f9a825" stroke-width="1.5"/><circle cx="2715.929858639376" cy="397.63721718341594" r="6" fill="none" stroke="#f9a825" stroke-width="1.5"/><circle cx="2720.929858639376" cy="392.63721718341594" r="7" fill="none" stroke="#f9a825" stroke-width="1.5"/><circle cx="2725.929858639376" cy="397.63721718341594" r="6" fill="none" stroke="#f9a825" stroke-width="1.5"/><text x="2720.929858639376" y="435.63721718341594" text-anchor="middle" font-size="11">CDN</text><text x="2720.929858639376" y="423.63721718341594" text-anchor="middle" font-size="9" fill="#f9a825">cdn</text><rect x="2830.069372039655" y="373.63721718341594" width="100" height="70" rx="6" fill="#e0f2f1" stroke="#00695c" stroke-width="1.5"/><path d="M2872.069372039655,387.63721718341594 L2888.069372039655,387.63721718341594 L2886.469372039655,403.63721718341594 L2873.6693720396547,403.63721718341594 Z" fill="none" stroke="#00695c" stroke-width="1.5"/><text x="2880.069372039655" y="435.63721718341594" text-anchor="middle" font-size="11">S3</text><text x="2880.069372039655" y="423.63721718341594" text-anchor="middle" font-size="9" fill="#00695c">storage</text><rect x="2978.5941009834733" y="373.63721718341594" width="100" height="70" rx="6" fill="#f3e5f5" stroke="#6a1b9a" stroke-width="1.5"/><line x1="3020.5941009834733" y1="395.63721718341594" x2="3033.3941009834734" y2="395.63721718341594" stroke="#6a1b9a" stroke-width="2"/><polyline points="3030.194100983473,390.63721718341594 3036.5941009834733,395.63721718341594 3030.194100983473,400.63721718341594" fill="none" stroke="#6a1b9a" stroke-width="2"/><text x="3028.5941009834733" y="435.63721718341594" text-anchor="middle" font-size="11">SQS</text><text x="3028.5941009834733" y="423.63721718341594" text-anchor="middle" font-size="9" fill="#6a1b9a">queue</text><path d="M140,368.63721718341594 L457.9077848646051,368.63721718341594" fill="none" stroke="#666" stroke-width="1.5" marker-end="url(#arrow)"/><path d="M557.9077848646051,401.1047082541844 L1085.182219231437,743.4902680471769" fill="none" stroke="#666" stroke-width="1.5" marker-end="url(#arrow)"/><path d="M557.9077848646051,362.35354017382514 L1889.8233031004957,194.9670017607042" fill="none" stroke="#666" stroke-width="1.5" marker-end="url(#arrow)"/><path d="M1185.182219231437,796.7292302366429 L1262.548868733664,828.8696127503612" fill="none" stroke="#666" stroke-width="1.5" marker-end="url(#arrow)"/><path d="M1185.182219231437,755.1862879992477 L1262.548868733664,723.0459054855295" fill="none" stroke="#666" stroke-width="1.5" marker-end="url(#arrow)"/><path d="M1354.6739543859921,814.6410838690588 L1447.7904325835627,737.2744343668319" fill="none" stroke="#666" stroke-width="1.5" marker-end="url(#arrow)"/><path d="M1362.548868733664,702.2744343668319 L1439.9155182358909,702.2744343668319" fill="none" stroke="#666" stroke-width="1.5" marker-end="url(#arrow)"/><path d="M1362.548868733664,849.6410838690588 L1439.9155182358909,849.6410838690588" fill="none" stroke="#666" stroke-width="1.5" marker-end="url(#arrow)"/><path d="M1989.8233031004957,209.45479586981108 L2067.1899526027223,241.59517838352917" fill="none" stroke="#666" stroke-width="1.5" marker-end="url(#arrow)"/><path d="M1989.8233031004957,167.91185363241576 L2067.1899526027223,135.77147111869766" fill="none" stroke="#666" stroke-width="1.5" marker-end="url(#arrow)"/><path d="M2159.3150382550507,227.36664950222684 L2252.431516452621,150" fill="none" stroke="#666" stroke-width="1.5" marker-end="url(#arrow)"/><path d="M2167.1899526027223,115 L2244.5566021049494,115" fill="none" stroke="#666" stroke-width="1.5" marker-end="url(#arrow)"/><path d="M2167.1899526027223,262.36664950222684 L2244.5566021049494,262.36664950222684" fill="none" stroke="#666" stroke-width="1.5" marker-end="url(#arrow)"/><path d="M1539.9155182358909,671.593462548402 L1828.5527354193066,494.4800560253144 Q2117.1899526027223,317.36664950222684 2190.535194849017,233.68332475111342 L2263.880437095311,150" fill="none" stroke="#666" stroke-width="1.5" marker-end="url(#arrow)"/><rect x="1874.7319048419174" y="418.128937700928" width="94" height="16" rx="3" fill="white" opacity="0.9"/><text x="1921.7319048419174" y="430.128937700928" text-anchor="middle" font-size="11" fill="#666">replication</text><path d="M2770.929858639376,408.63721718341594 L2830.069372039655,408.63721718341594" fill="none" stroke="#666" stroke-width="1.5" marker-end="url(#arrow)"/><path d="M1362.548868733664,865.1456897671675 L1426.2321934847773,884.8933868181132 Q1489.9155182358909,904.6410838690588 2234.254809609682,664.6980764163986 L2978.5941009834733,424.7550689637384" fill="none" stroke="#666" stroke-width="1.5" marker-end="url(#arrow)"/><path d="M2167.1899526027223,246.86204360411818 L2230.873277353836,227.1143465531725 Q2294.5566021049494,207.36664950222684 2636.575351544211,301.1470189825641 L2978.5941009834733,394.9273884629014" fill="none" stroke="#666" stroke-width="1.5" marker-end="url(#arrow)"/></svg>