<svg xmlns="http://www.w3.org/2000/svg" width="2840.880615018771" height="858.317571015556" viewBox="0 0 2840.880615018771 858.317571015556"><style>text { font-family: sans-serif; font-size: 12px; fill: #333; }</style><defs><marker id="arrow" viewBox="0 0 10 10" refX="10" refY="5" markerWidth="8" markerHeight="8" orient="auto"><polygon points="0,1 10,5 0,9" fill="#666"/></marker></defs><rect x="40" y="299.18599160219424" width="100" height="70" rx="6" fill="#fafafa" stroke="#616161" stroke-width="1.5"/><circle cx="90" cy="313.18599160219424" r="5" fill="none" stroke="#616161" stroke-width="1.5"/><line x1="90" y1="318.18599160219424" x2="90" y2="327.18599160219424" stroke="#616161" stroke-width="1.5"/><line x1="83" y1="322.18599160219424" x2="97" y2="322.18599160219424" stroke="#616161" stroke-width="1.5"/><text x="90" y="361.18599160219424" text-anchor="middle" font-size="11">User</text><text x="90" y="349.18599160219424" text-anchor="middle" font-size="9" fill="#616161">user</text><rect x="398.42639539322084" y="299.18599160219424" width="100" height="70" rx="6" fill="#fff3e0" stroke="#e65100" stroke-width="1.5"/><circle cx="448.42639539322084" cy="321.18599160219424" r="8" fill="none" stroke="#e65100" stroke-width="1.5"/><line x1="440.42639539322084" y1="321.18599160219424" x2="434.02639539322087" y2="315.18599160219424" stroke="#e65100" stroke-width="1.5"/><line x1="440.42639539322084" y1="321.18599160219424" x2="434.02639539322087" y2="327.18599160219424" stroke="#e65100" stroke-width="1.5"/><text x="448.42639539322084" y="361.18599160219424" text-anchor="middle" font-size="11">GlobalLB</text><text x="448.42639539322084" y="349.18599160219424" text-anchor="middle" font-size="9" fill="#e65100">lb</text><rect x="940.7983785976091" y="558.3719832043885" width="467.8911756223351" height="259.94558781116757" rx="6" fill="#fafafa" stroke="#bbb" stroke-width="1.5" stroke-dasharray="6,4"/><text x="948.7983785976091" y="577.9719832043885" font-weight="bold" font-size="13">Tokyo Region</text><rect x="956.7983785976091" y="667.3447771099723" width="100" height="70" rx="6" fill="#fff3e0" stroke="#e65100" stroke-width="1.5"/><circle cx="1006.7983785976091" cy="689.3447771099723" r="8" fill="none" stroke="#e65100" stroke-width="1.5"/><line x1="998.7983785976091" y1="689.3447771099723" x2="992.3983785976092" y2="683.3447771099723" stroke="#e65100" stroke-width="1.5"/><line x1="998.7983785976091" y1="689.3447771099723" x2="992.3983785976092" y2="695.3447771099723" stroke="#e65100" stroke-width="1.5"/><text x="1006.7983785976091" y="729.3447771099723" text-anchor="middle" font-size="11">TokyoLB</text><text x="1006.7983785976091" y="717.3447771099723" text-anchor="middle" font-size="9" fill="#e65100">lb</text><rect x="1124.7439664087767" y="736.317571015556" width="100" height="70" rx="6" fill="#e3f2fd" stroke="#1565c0" stroke-width="1.5"/><rect x="1165.1439664087768" y="744.317571015556" width="19.2" height="8" rx="1" fill="none" stroke="#1565c0" stroke-width="1.5"/><rect x="1165.1439664087768" y="754.317571015556" width="19.2" height="8" rx="1" fill="none" stroke="#1565c0" stroke-width="1.5"/><rect x="1165.1439664087768" y="764.317571015556" width="19.2" height="8" rx="1" fill="none" stroke="#1565c0" stroke-width="1.5"/><text x="1174.7439664087767" y="798.317571015556" text-anchor="middle" font-size="11">TokyoApp1</text><text x="1174.7439664087767" y="786.317571015556" text-anchor="middle" font-size="9" fill="#1565c0">server</text><rect x="1124.7439664087767" y="598.3719832043885" width="100" height="70" rx="6" fill="#e3f2fd" stroke="#1565c0" stroke-width="1.5"/><rect x="1165.1439664087768" y="606.3719832043885" width="19.2" height="8" rx="1" fill="none" stroke="#1565c0" stroke-width="1.5"/><rect x="1165.1439664087768" y="616.3719832043885" width="19.2" height="8" rx="1" fill="none" stroke="#1565c0" stroke-width="1.5"/><rect x="1165.1439664087768" y="626.3719832043885" width="19.2" height="8" rx="1" fill="none" stroke="#1565c0" stroke-width="1.5"/><text x="1174.7439664087767" y="660.3719832043885" text-anchor="middle" font-size="11">TokyoApp2</text><text x="1174.7439664087767" y="648.3719832043885" text-anchor="middle" font-size="9" fill="#1565c0">server</text><rect x="1292.6895542199443" y="598.3719832043885" width="100" height="70" rx="6" fill="#e8f5e9" stroke="#2e7d32" stroke-width="1.5"/><ellipse cx="1342.6895542199443" cy="612.5719832043885" rx="9.6" ry="5" fill="none" stroke="#2e7d32" stroke-width="1.5"/><line x1="1333.0895542199444" y1="612.5719832043885" x2="1333.0895542199444" y2="628.1719832043884" stroke="#2e7d32" stroke-width="1.5"/><line x1="1352.2895542199442" y1="612.5719832043885" x2="1352.2895542199442" y2="628.1719832043884" stroke="#2e7d32" stroke-width="1.5"/><ellipse cx="1342.6895542199443" cy="628.1719832043884" rx="9.6" ry="5" fill="none" stroke="#2e7d32" stroke-width="1.5"/><text x="1342.6895542199443" y="660.3719832043885" text-anchor="middle" font-size="11">TokyoDB</text><text x="1342.6895542199443" y="648.3719832043885" text-anchor="middle" font-size="9" fill="#2e7d32">db</text><rect x="1292.6895542199443" y="736.317571015556" width="100" height="70" rx="6" fill="#fce4ec" stroke="#c62828" stroke-width="1.5"/><polyline points="1338.6895542199443,748.717571015556 1344.6895542199443,756.317571015556 1340.6895542199443,760.317571015556 1346.6895542199443,767.9175710155561" fill="none" stroke="#c62828" stroke-width="2"/><text x="1342.6895542199443" y="798.317571015556" text-anchor="middle" font-size="11">TokyoCache</text><text x="1342.6895542199443" y="786.317571015556" text-anchor="middle" font-size="9" fill="#c62828">cache</text><rect x="1667.1159496131652" y="40" width="467.8911756223351" height="259.94558781116757" rx="6" fill="#fafafa" stroke="#bbb" stroke-width="1.5" stroke-dasharray="6,4"/><text x="1675.1159496131652" y="59.599999999999994" font-weight="bold" font-size="13">US Region</text><rect x="1683.1159496131652" y="148.97279390558379" width="100" height="70" rx="6" fill="#fff3e0" stroke="#e65100" stroke-width="1.5"/><circle cx="1733.1159496131652" cy="170.97279390558379" r="8" fill="none" stroke="#e65100" stroke-width="1.5"/><line x1="1725.1159496131652" y1="170.97279390558379" x2="1718.715949613165" y2="164.97279390558379" stroke="#e65100" stroke-width="1.5"/><line x1="1725.1159496131652" y1="170.97279390558379" x2="1718.715949613165" y2="176.97279390558379" stroke="#e65100" stroke-width="1.5"/><text x="1733.1159496131652" y="210.97279390558379" text-anchor="middle" font-size="11">USLB</text><text x="1733.1159496131652" y="198.97279390558379" text-anchor="middle" font-size="9" fill="#e65100">lb</text><rect x="1851.0615374243328" y="217.94558781116754" width="100" height="70" rx="6" fill="#e3f2fd" stroke="#1565c0" stroke-width="1.5"/><rect x="1891.4615374243328" y="225.94558781116754" width="19.2" height="8" rx="1" fill="none" stroke="#1565c0" stroke-width="1.5"/><rect x="1891.4615374243328" y="235.94558781116754" width="19.2" height="8" rx="1" fill="none" stroke="#1565c0" stroke-width="1.5"/><rect x="1891.4615374243328" y="245.94558781116754" width="19.2" height="8" rx="1" fill="none" stroke="#1565c0" stroke-width="1.5"/><text x="1901.0615374243328" y="279.94558781116757" text-anchor="middle" font-size="11">USApp1</text><text x="1901.0615374243328" y="267.94558781116757" text-anchor="middle" font-size="9" fill="#1565c0">server</text><rect x="1851.0615374243328" y="80" width="100" height="70" rx="6" fill="#e3f2fd" stroke="#1565c0" stroke-width="1.5"/><rect x="1891.4615374243328" y="88" width="19.2" height="8" rx="1" fill="none" stroke="#1565c0" stroke-width="1.5"/><rect x="1891.4615374243328" y="98" width="19.2" height="8" rx="1" fill="none" stroke="#1565c0" stroke-width="1.5"/><rect x="1891.4615374243328" y="108" width="19.2" height="8" rx="1" fill="none" stroke="#1565c0" stroke-width="1.5"/><text x="1901.0615374243328" y="142" text-anchor="middle" font-size="11">USApp2</text><text x="1901.0615374243328" y="130" text-anchor="middle" font-size="9" fill="#1565c0">server</text><rect x="2019.0071252355003" y="80" width="100" height="70" rx="6" fill="#e8f5e9" stroke="#2e7d32" stroke-width="1.5"/><ellipse cx="2069.0071252355" cy="94.2" rx="9.6" ry="5" fill="none" stroke="#2e7d32" stroke-width="1.5"/><line x1="2059.4071252355" y1="94.2" x2="2059.4071252355" y2="109.8" stroke="#2e7d32" stroke-width="1.5"/><line x1="2078.6071252355" y1="94.2" x2="2078.6071252355" y2="109.8" stroke="#2e7d32" stroke-width="1.5"/><ellipse cx="2069.0071252355" cy="109.8" rx="9.6" ry="5" fill="none" stroke="#2e7d32" stroke-width="1.5"/><text x="2069.0071252355" y="142" text-anchor="middle" font-size="11">USDB</text><text x="2069.0071252355" y="130" text-anchor="middle" font-size="9" fill="#2e7d32">db</text><rect x="2019.0071252355003" y="217.94558781116754" width="100" height="70" rx="6" fill="#fce4ec" stroke="#c62828" stroke-width="1.5"/><polyline points="2065.0071252355,230.34558781116755 2071.0071252355,237.94558781116754 2067.0071252355,241.94558781116754 2073.0071252355,249.54558781116754" fill="none" stroke="#c62828" stroke-width="2"/><text x="2069.0071252355" y="279.94558781116757" text-anchor="middle" font-size="11">USCache</text><text x="2069.0071252355" y="267.94558781116757" text-anchor="middle" font-size="9" fill="#c62828">cache</text><rect x="2373.285493551293" y="299.18599160219424" width="427.59512146747807" height="122" rx="6" fill="#fafafa" stroke="#bbb" stroke-width="1.5" stroke-dasharray="6,4"/><text x="2381.285493551293" y="318.78599160219426" font-weight="bold" font-size="13">Shared</text><rect x="2389.285493551293" y="339.18599160219424" width="100" height="70" rx="6" fill="#fff8e1" stroke="#f9a825" stroke-width="1.5"/><circle cx="2434.285493551293" cy="363.18599160219424" r="6" fill="none" stroke="#f9a825" stroke-width="1.5"/><circle cx="2439.285493551293" cy="358.18599160219424" r="7" fill="none" stroke="#f9a825" stroke-width="1.5"/><circle cx="2444.285493551293" cy="363.18599160219424" r="6" fill="none" stroke="#f9a825" stroke-width="1.5"/><text x="2439.285493551293" y="401.18599160219424" text-anchor="middle" font-size="11">CDN</text><text x="2439.285493551293" y="389.18599160219424" text-anchor="middle" font-size="9" fill="#f9a825">cdn</text><rect x="2541.79548985033" y="339.18599160219424" width="100" height="70" rx="6" fill="#e0f2f1" stroke="#00695c" stroke-width="1.5"/><path d="M2583.79548985033,353.18599160219424 L2599.79548985033,353.18599160219424 L2598.19548985033,369.18599160219424 L2585.39548985033,369.18599160219424 Z" fill="none" stroke="#00695c" stroke-width="1.5"/><text x="2591.79548985033" y="401.18599160219424" text-anchor="middle" font-size="11">S3</text><text x="2591.79548985033" y="389.18599160219424" text-anchor="middle" font-size="9" fill="#00695c">storage</text><rect x="2684.880615018771" y="339.18599160219424" width="100" height="70" rx="6" fill="#f3e5f5" stroke="#6a1b9a" stroke-width="1.5"/><line x1="2726.880615018771" y1="361.18599160219424" x2="2739.6806150187713" y2="361.18599160219424" stroke="#6a1b9a" stroke-width="2"/><polyline points="2736.480615018771,356.18599160219424 2742.880615018771,361.18599160219424 2736.480615018771,366.18599160219424" fill="none" stroke="#6a1b9a" stroke-width="2"/><text x="2734.880615018771" y="401.18599160219424" text-anchor="middle" font-size="11">SQS</text><text x="2734.880615018771" y="389.18599160219424" text-anchor="middle" font-size="9" fill="#6a1b9a">queue</text><path d="M140,334.18599160219424 L398.42639539322084,334.18599160219424" fill="none" stroke="#666" stroke-width="1.5" marker-end="url(#arrow)"/><path d="M498.42639539322084,367.153152973274 L956.7983785976091,669.3776157388925" fill="none" stroke="#666" stroke-width="1.5" marker-end="url(#arrow)"/><path d="M498.42639539322084,328.33970768079115 L1683.1159496131652,189.81907782698684" fill="none" stroke="#666" stroke-width="1.5" marker-end="url(#arrow)"/><path d="M1056.7983785976091,722.8790450251063 L1124.7439664087767,750.783303100422" fill="none" stroke="#666" stroke-width="1.5" marker-end="url(#arrow)"/><path d="M1056.7983785976091,681.8105091948382 L1124.7439664087767,653.9062511195225" fill="none" stroke="#666" stroke-width="1.5" marker-end="url(#arrow)"/><path d="M1217.3556632862249,736.317571015556 L1300.0778573424961,668.3719832043885" fill="none" stroke="#666" stroke-width="1.5" marker-end="url(#arrow)"/><path d="M1224.7439664087767,633.3719832043885 L1292.6895542199443,633.3719832043885" fill="none" stroke="#666" stroke-width="1.5" marker-end="url(#arrow)"/><path d="M1224.7439664087767,771.317571015556 L1292.6895542199443,771.317571015556" fill="none" stroke="#666" stroke-width="1.5" marker-end="url(#arrow)"/><path d="M1783.1159496131652,204.50706182071784 L1851.0615374243328,232.4113198960335" fill="none" stroke="#666" stroke-width="1.5" marker-end="url(#arrow)"/><path d="M1783.1159496131652,163.4385259904497 L1851.0615374243328,135.53426791513408" fill="none" stroke="#666" stroke-width="1.5" marker-end="url(#arrow)"/><path d="M1943.6732343017807,217.94558781116754 L2026.3954283580522,150" fill="none" stroke="#666" stroke-width="1.5" marker-end="url(#arrow)"/><path d="M1951.0615374243328,115 L2019.0071252355,115" fill="none" stroke="#666" stroke-width="1.5" marker-end="url(#arrow)"/><path d="M1951.0615374243328,252.94558781116754 L2019.0071252355,252.94558781116754" fill="none" stroke="#666" stroke-width="1.5" marker-end="url(#arrow)"/><path d="M1392.6895542199443,604.2313381521724 L1646.8755458221385,456.08846298167 Q1901.0615374243328,307.94558781116757 1969.8018099748708,228.97279390558379 L2038.542082525409,150" fill="none" stroke="#666" stroke-width="1.5" marker-end="url(#arrow)"/><rect x="1688.4854593577113" y="385.07717032420186" width="94" height="16" rx="3" fill="white" opacity="0.9"/><text x="1735.4854593577113" y="397.07717032420186" text-anchor="middle" font-size="11" fill="#666">replication</text><path d="M2489.285493551293,374.18599160219424 L2541.79548985033,374.18599160219424" fill="none" stroke="#666" stroke-width="1.5" marker-end="url(#arrow)"/><path d="M1224.7439664087767,787.6919219933978 L1283.7167603143605,807.004746504477 Q1342.6895542199443,826.317571015556 2013.7850846193578,608.3708461438758 L2684.880615018771,390.4241212721956" fill="none" stroke="#666" stroke-width="1.5" marker-end="url(#arrow)"/><path d="M1951.0615374243328,236.57123683332577 L2010.0343313299163,217.25841232224667 Q2069.0071252355,197.94558781116754 2376.9438701271356,279.4489020209889 L2684.880615018771,360.9522162308103" fill="none" stroke="#666" stroke-width="1.5" marker-end="url(#arrow)"/></svg>