<svg xmlns="http://www.w3.org/2000/svg" width="2595.7332270761517" height="784.7775668776594" viewBox="0 0 2595.7332270761517 784.7775668776594"><rect width="100%" height="100%" fill="white"/><style>text { font-family: sans-serif; font-size: 12px; fill: #333; }</style><defs><marker id="arrow" viewBox="0 0 10 10" refX="10" refY="5" markerWidth="8" markerHeight="8" orient="auto"><polygon points="0,1 10,5 0,9" fill="#666"/></marker></defs><rect x="40" y="268.94691862683305" width="100" height="70" rx="6" fill="#fafafa" stroke="#616161" stroke-width="1.5"/><circle cx="90" cy="282.94691862683305" r="5" fill="none" stroke="#616161" stroke-width="1.5"/><line x1="90" y1="287.94691862683305" x2="90" y2="296.94691862683305" stroke="#616161" stroke-width="1.5"/><line x1="83" y1="291.94691862683305" x2="97" y2="291.94691862683305" stroke="#616161" stroke-width="1.5"/><text x="90" y="330.94691862683305" text-anchor="middle" font-size="11">User</text><text x="90" y="318.94691862683305" text-anchor="middle" font-size="9" fill="#616161">user</text><rect x="351.0101076296728" y="268.94691862683305" width="100" height="70" rx="6" fill="#fff3e0" stroke="#e65100" stroke-width="1.5"/><circle cx="401.0101076296728" cy="290.94691862683305" r="8" fill="none" stroke="#e65100" stroke-width="1.5"/><line x1="393.0101076296728" y1="290.94691862683305" x2="386.6101076296728" y2="284.94691862683305" stroke="#e65100" stroke-width="1.5"/><line x1="393.0101076296728" y1="290.94691862683305" x2="386.6101076296728" y2="296.94691862683305" stroke="#e65100" stroke-width="1.5"/><text x="401.0101076296728" y="330.94691862683305" text-anchor="middle" font-size="11">GlobalLB</text><text x="401.0101076296728" y="318.94691862683305" text-anchor="middle" font-size="9" fill="#e65100">lb</text><rect x="832.9039448833389" y="497.8938372536661" width="441.7674592479865" height="246.88372962399325" rx="6" fill="#fafafa" stroke="#bbb" stroke-width="1.5" stroke-dasharray="6,4"/><text x="840.9039448833389" y="517.4938372536661" font-weight="bold" font-size="13">Tokyo Region</text><rect x="848.9039448833389" y="600.3357020656628" width="100" height="70" rx="6" fill="#fff3e0" stroke="#e65100" stroke-width="1.5"/><circle cx="898.9039448833389" cy="622.3357020656628" r="8" fill="none" stroke="#e65100" stroke-width="1.5"/><line x1="890.9039448833389" y1="622.3357020656628" x2="884.5039448833389" y2="616.3357020656628" stroke="#e65100" stroke-width="1.5"/><line x1="890.9039448833389" y1="622.3357020656628" x2="884.5039448833389" y2="628.3357020656628" stroke="#e65100" stroke-width="1.5"/><text x="898.9039448833389" y="662.3357020656628" text-anchor="middle" font-size="11">TokyoLB</text><text x="898.9039448833389" y="650.3357020656628" text-anchor="middle" font-size="9" fill="#e65100">lb</text><rect x="1003.7876745073322" y="662.7775668776594" width="100" height="70" rx="6" fill="#e3f2fd" stroke="#1565c0" stroke-width="1.5"/><rect x="1044.1876745073323" y="670.7775668776594" width="19.2" height="8" rx="1" fill="none" stroke="#1565c0" stroke-width="1.5"/><rect x="1044.1876745073323" y="680.7775668776594" width="19.2" height="8" rx="1" fill="none" stroke="#1565c0" stroke-width="1.5"/><rect x="1044.1876745073323" y="690.7775668776594" width="19.2" height="8" rx="1" fill="none" stroke="#1565c0" stroke-width="1.5"/><text x="1053.7876745073322" y="724.7775668776594" text-anchor="middle" font-size="11">TokyoApp1</text><text x="1053.7876745073322" y="712.7775668776594" text-anchor="middle" font-size="9" fill="#1565c0">server</text><rect x="1003.7876745073322" y="537.8938372536661" width="100" height="70" rx="6" fill="#e3f2fd" stroke="#1565c0" stroke-width="1.5"/><rect x="1044.1876745073323" y="545.8938372536661" width="19.2" height="8" rx="1" fill="none" stroke="#1565c0" stroke-width="1.5"/><rect x="1044.1876745073323" y="555.8938372536661" width="19.2" height="8" rx="1" fill="none" stroke="#1565c0" stroke-width="1.5"/><rect x="1044.1876745073323" y="565.8938372536661" width="19.2" height="8" rx="1" fill="none" stroke="#1565c0" stroke-width="1.5"/><text x="1053.7876745073322" y="599.8938372536661" text-anchor="middle" font-size="11">TokyoApp2</text><text x="1053.7876745073322" y="587.8938372536661" text-anchor="middle" font-size="9" fill="#1565c0">server</text><rect x="1158.6714041313253" y="537.8938372536661" width="100" height="70" rx="6" fill="#e8f5e9" stroke="#2e7d32" stroke-width="1.5"/><ellipse cx="1208.6714041313253" cy="552.0938372536662" rx="9.6" ry="5" fill="none" stroke="#2e7d32" stroke-width="1.5"/><line x1="1199.0714041313254" y1="552.0938372536662" x2="1199.0714041313254" y2="567.6938372536661" stroke="#2e7d32" stroke-width="1.5"/><line x1="1218.2714041313252" y1="552.0938372536662" x2="1218.2714041313252" y2="567.6938372536661" stroke="#2e7d32" stroke-width="1.5"/><ellipse cx="1208.6714041313253" cy="567.6938372536661" rx="9.6" ry="5" fill="none" stroke="#2e7d32" stroke-width="1.5"/><text x="1208.6714041313253" y="599.8938372536661" text-anchor="middle" font-size="11">TokyoDB</text><text x="1208.6714041313253" y="587.8938372536661" text-anchor="middle" font-size="9" fill="#2e7d32">db</text><rect x="1158.6714041313253" y="662.7775668776594" width="100" height="70" rx="6" fill="#fce4ec" stroke="#c62828" stroke-width="1.5"/><polyline points="1204.6714041313253,675.1775668776594 1210.6714041313253,682.7775668776594 1206.6714041313253,686.7775668776594 1212.6714041313253,694.3775668776594" fill="none" stroke="#c62828" stroke-width="2"/><text x="1208.6714041313253" y="724.7775668776594" text-anchor="middle" font-size="11">TokyoCache</text><text x="1208.6714041313253" y="712.7775668776594" text-anchor="middle" font-size="9" fill="#c62828">cache</text><rect x="1485.681511760998" y="40" width="441.7674592479865" height="246.88372962399325" rx="6" fill="#fafafa" stroke="#bbb" stroke-width="1.5" stroke-dasharray="6,4"/><text x="1493.681511760998" y="59.599999999999994" font-weight="bold" font-size="13">US Region</text><rect x="1501.681511760998" y="142.44186481199662" width="100" height="70" rx="6" fill="#fff3e0" stroke="#e65100" stroke-width="1.5"/><circle cx="1551.681511760998" cy="164.44186481199662" r="8" fill="none" stroke="#e65100" stroke-width="1.5"/><line x1="1543.681511760998" y1="164.44186481199662" x2="1537.281511760998" y2="158.44186481199662" stroke="#e65100" stroke-width="1.5"/><line x1="1543.681511760998" y1="164.44186481199662" x2="1537.281511760998" y2="170.44186481199662" stroke="#e65100" stroke-width="1.5"/><text x="1551.681511760998" y="204.44186481199662" text-anchor="middle" font-size="11">USLB</text><text x="1551.681511760998" y="192.44186481199662" text-anchor="middle" font-size="9" fill="#e65100">lb</text><rect x="1656.5652413849914" y="204.88372962399325" width="100" height="70" rx="6" fill="#e3f2fd" stroke="#1565c0" stroke-width="1.5"/><rect x="1696.9652413849915" y="212.88372962399325" width="19.2" height="8" rx="1" fill="none" stroke="#1565c0" stroke-width="1.5"/><rect x="1696.9652413849915" y="222.88372962399325" width="19.2" height="8" rx="1" fill="none" stroke="#1565c0" stroke-width="1.5"/><rect x="1696.9652413849915" y="232.88372962399325" width="19.2" height="8" rx="1" fill="none" stroke="#1565c0" stroke-width="1.5"/><text x="1706.5652413849914" y="266.88372962399325" text-anchor="middle" font-size="11">USApp1</text><text x="1706.5652413849914" y="254.88372962399325" text-anchor="middle" font-size="9" fill="#1565c0">server</text><rect x="1656.5652413849914" y="80" width="100" height="70" rx="6" fill="#e3f2fd" stroke="#1565c0" stroke-width="1.5"/><rect x="1696.9652413849915" y="88" width="19.2" height="8" rx="1" fill="none" stroke="#1565c0" stroke-width="1.5"/><rect x="1696.9652413849915" y="98" width="19.2" height="8" rx="1" fill="none" stroke="#1565c0" stroke-width="1.5"/><rect x="1696.9652413849915" y="108" width="19.2" height="8" rx="1" fill="none" stroke="#1565c0" stroke-width="1.5"/><text x="1706.5652413849914" y="142" text-anchor="middle" font-size="11">USApp2</text><text x="1706.5652413849914" y="130" text-anchor="middle" font-size="9" fill="#1565c0">server</text><rect x="1811.4489710089847" y="80" width="100" height="70" rx="6" fill="#e8f5e9" stroke="#2e7d32" stroke-width="1.5"/><ellipse cx="1861.4489710089847" cy="94.2" rx="9.6" ry="5" fill="none" stroke="#2e7d32" stroke-width="1.5"/><line x1="1851.8489710089848" y1="94.2" x2="1851.8489710089848" y2="109.8" stroke="#2e7d32" stroke-width="1.5"/><line x1="1871.0489710089846" y1="94.2" x2="1871.0489710089846" y2="109.8" stroke="#2e7d32" stroke-width="1.5"/><ellipse cx="1861.4489710089847" cy="109.8" rx="9.6" ry="5" fill="none" stroke="#2e7d32" stroke-width="1.5"/><text x="1861.4489710089847" y="142" text-anchor="middle" font-size="11">USDB</text><text x="1861.4489710089847" y="130" text-anchor="middle" font-size="9" fill="#2e7d32">db</text><rect x="1811.4489710089847" y="204.88372962399325" width="100" height="70" rx="6" fill="#fce4ec" stroke="#c62828" stroke-width="1.5"/><polyline points="1857.4489710089847,217.28372962399325 1863.4489710089847,224.88372962399325 1859.4489710089847,228.88372962399325 1865.4489710089847,236.48372962399324" fill="none" stroke="#c62828" stroke-width="2"/><text x="1861.4489710089847" y="266.88372962399325" text-anchor="middle" font-size="11">USCache</text><text x="1861.4489710089847" y="254.88372962399325" text-anchor="middle" font-size="9" fill="#c62828">cache</text><rect x="2130.2946417018265" y="268.94691862683305" width="425.43858537432516" height="122" rx="6" fill="#fafafa" stroke="#bbb" stroke-width="1.5" stroke-dasharray="6,4"/><text x="2138.2946417018265" y="288.5469186268331" font-weight="bold" font-size="13">Shared</text><rect x="2146.2946417018265" y="308.94691862683305" width="100" height="70" rx="6" fill="#fff8e1" stroke="#f9a825" stroke-width="1.5"/><circle cx="2191.2946417018265" cy="332.94691862683305" r="6" fill="none" stroke="#f9a825" stroke-width="1.5"/><circle cx="2196.2946417018265" cy="327.94691862683305" r="7" fill="none" stroke="#f9a825" stroke-width="1.5"/><circle cx="2201.2946417018265" cy="332.94691862683305" r="6" fill="none" stroke="#f9a825" stroke-width="1.5"/><text x="2196.2946417018265" y="370.94691862683305" text-anchor="middle" font-size="11">CDN</text><text x="2196.2946417018265" y="358.94691862683305" text-anchor="middle" font-size="9" fill="#f9a825">cdn</text><rect x="2288.180904111007" y="308.94691862683305" width="100" height="70" rx="6" fill="#e0f2f1" stroke="#00695c" stroke-width="1.5"/><path d="M2330.180904111007,322.94691862683305 L2346.180904111007,322.94691862683305 L2344.580904111007,338.94691862683305 L2331.7809041110067,338.94691862683305 Z" fill="none" stroke="#00695c" stroke-width="1.5"/><text x="2338.180904111007" y="370.94691862683305" text-anchor="middle" font-size="11">S3</text><text x="2338.180904111007" y="358.94691862683305" text-anchor="middle" font-size="9" fill="#00695c">storage</text><rect x="2439.7332270761517" y="308.94691862683305" width="100" height="70" rx="6" fill="#f3e5f5" stroke="#6a1b9a" stroke-width="1.5"/><line x1="2481.7332270761517" y1="330.94691862683305" x2="2494.533227076152" y2="330.94691862683305" stroke="#6a1b9a" stroke-width="2"/><polyline points="2491.3332270761516,325.94691862683305 2497.7332270761517,330.94691862683305 2491.3332270761516,335.94691862683305" fill="none" stroke="#6a1b9a" stroke-width="2"/><text x="2489.7332270761517" y="370.94691862683305" text-anchor="middle" font-size="11">SQS</text><text x="2489.7332270761517" y="358.94691862683305" text-anchor="middle" font-size="9" fill="#6a1b9a">queue</text><path d="M140,303.94691862683305 L351.0101076296728,303.94691862683305" fill="none" stroke="#666" stroke-width="1.5" marker-end="url(#arrow)"/><path d="M451.0101076296728,337.22597920596553 L848.9039448833389,602.0566414865302" fill="none" stroke="#666" stroke-width="1.5" marker-end="url(#arrow)"/><path d="M451.0101076296728,298.4499082135805 L1501.681511760998,182.93887522524918" fill="none" stroke="#666" stroke-width="1.5" marker-end="url(#arrow)"/><path d="M948.9039448833389,655.4933599951254 L1003.7876745073322,677.6199089481968" fill="none" stroke="#666" stroke-width="1.5" marker-end="url(#arrow)"/><path d="M948.9039448833389,615.1780441362001 L1003.7876745073322,593.0514951831287" fill="none" stroke="#666" stroke-width="1.5" marker-end="url(#arrow)"/><path d="M1097.1954951510734,662.7775668776594 L1165.2635834875841,607.8938372536661" fill="none" stroke="#666" stroke-width="1.5" marker-end="url(#arrow)"/><path d="M1103.7876745073322,572.8938372536661 L1158.6714041313253,572.8938372536661" fill="none" stroke="#666" stroke-width="1.5" marker-end="url(#arrow)"/><path d="M1103.7876745073322,697.7775668776594 L1158.6714041313253,697.7775668776594" fill="none" stroke="#666" stroke-width="1.5" marker-end="url(#arrow)"/><path d="M1601.681511760998,197.59952274145923 L1656.5652413849914,219.72607169453065" fill="none" stroke="#666" stroke-width="1.5" marker-end="url(#arrow)"/><path d="M1601.681511760998,157.28420688253402 L1656.5652413849914,135.1576579294626" fill="none" stroke="#666" stroke-width="1.5" marker-end="url(#arrow)"/><path d="M1749.9730620287326,204.88372962399325 L1818.0411503652435,150" fill="none" stroke="#666" stroke-width="1.5" marker-end="url(#arrow)"/><path d="M1756.5652413849914,115 L1811.4489710089847,115" fill="none" stroke="#666" stroke-width="1.5" marker-end="url(#arrow)"/><path d="M1756.5652413849914,239.88372962399325 L1811.4489710089847,239.88372962399325" fill="none" stroke="#666" stroke-width="1.5" marker-end="url(#arrow)"/><path d="M1258.6714041313253,544.975224205235 L1482.6183227581582,419.92947691461416 Q1706.5652413849914,294.88372962399325 1768.9392327762762,222.44186481199662 L1831.313224167561,150" fill="none" stroke="#666" stroke-width="1.5" marker-end="url(#arrow)"/><rect x="1517.1547439426392" y="354.9483416322068" width="94" height="16" rx="3" fill="white" opacity="0.9"/><text x="1564.1547439426392" y="366.9483416322068" text-anchor="middle" font-size="11" fill="#666">replication</text><path d="M2246.2946417018265,343.94691862683305 L2288.180904111007,343.94691862683305" fill="none" stroke="#666" stroke-width="1.5" marker-end="url(#arrow)"/><path d="M1103.7876745073322,715.5328211362965 L1156.2295393193288,734.155194006978 Q1208.6714041313253,752.7775668776594 1824.2023156037385,556.3405979129486 L2439.7332270761517,359.90362894823784" fill="none" stroke="#666" stroke-width="1.5" marker-end="url(#arrow)"/><path d="M1756.5652413849914,222.12847536535617 L1809.007106196988,203.5061024946747 Q1861.4489710089847,184.88372962399325 2150.591099042568,258.0860556666379 L2439.7332270761517,331.28838170928253" fill="none" stroke="#666" stroke-width="1.5" marker-end="url(#arrow)"/></svg>