<svg xmlns="http://www.w3.org/2000/svg" width="3300.2343542631525" height="980.4910392846848" viewBox="0 0 3300.2343542631525 980.4910392846848"><rect width="100%" height="100%" fill="white"/><style>text { font-family: sans-serif; font-size: 12px; fill: #333; }</style><defs><marker id="arrow" viewBox="0 0 10 10" refX="10" refY="5" markerWidth="8" markerHeight="8" orient="auto"><polygon points="0,1 10,5 0,9" fill="#666"/></marker></defs><rect x="40" y="353.0827224243475" width="100" height="70" rx="6" fill="#fafafa" stroke="#616161" stroke-width="1.5"/><circle cx="90" cy="367.0827224243475" r="5" fill="none" stroke="#616161" stroke-width="1.5"/><line x1="90" y1="372.0827224243475" x2="90" y2="381.0827224243475" stroke="#616161" stroke-width="1.5"/><line x1="83" y1="376.0827224243475" x2="97" y2="376.0827224243475" stroke="#616161" stroke-width="1.5"/><text x="90" y="415.0827224243475" text-anchor="middle" font-size="11">User</text><text x="90" y="403.0827224243475" text-anchor="middle" font-size="9" fill="#616161">user</text><rect x="491.83985041270506" y="353.0827224243475" width="100" height="70" rx="6" fill="#fff3e0" stroke="#e65100" stroke-width="1.5"/><circle cx="541.8398504127051" cy="375.0827224243475" r="8" fill="none" stroke="#e65100" stroke-width="1.5"/><line x1="533.8398504127051" y1="375.0827224243475" x2="527.4398504127051" y2="369.0827224243475" stroke="#e65100" stroke-width="1.5"/><line x1="533.8398504127051" y1="375.0827224243475" x2="527.4398504127051" y2="381.0827224243475" stroke="#e65100" stroke-width="1.5"/><text x="541.8398504127051" y="415.0827224243475" text-anchor="middle" font-size="11">GlobalLB</text><text x="541.8398504127051" y="403.0827224243475" text-anchor="middle" font-size="9" fill="#e65100">lb</text><rect x="1142.0052952614" y="666.165444848695" width="496.6511888719798" height="274.3255944359899" rx="6" fill="#fafafa" stroke="#bbb" stroke-width="1.5" stroke-dasharray="6,4"/><text x="1150.0052952614" y="685.765444848695" font-weight="bold" font-size="13">Tokyo Region</text><rect x="1158.0052952614" y="782.3282420666899" width="100" height="70" rx="6" fill="#fff3e0" stroke="#e65100" stroke-width="1.5"/><circle cx="1208.0052952614" cy="804.3282420666899" r="8" fill="none" stroke="#e65100" stroke-width="1.5"/><line x1="1200.0052952614" y1="804.3282420666899" x2="1193.6052952614" y2="798.3282420666899" stroke="#e65100" stroke-width="1.5"/><line x1="1200.0052952614" y1="804.3282420666899" x2="1193.6052952614" y2="810.3282420666899" stroke="#e65100" stroke-width="1.5"/><text x="1208.0052952614" y="844.3282420666899" text-anchor="middle" font-size="11">TokyoLB</text><text x="1208.0052952614" y="832.3282420666899" text-anchor="middle" font-size="9" fill="#e65100">lb</text><rect x="1340.33088969739" y="858.4910392846848" width="100" height="70" rx="6" fill="#e3f2fd" stroke="#1565c0" stroke-width="1.5"/><rect x="1380.73088969739" y="866.4910392846848" width="19.2" height="8" rx="1" fill="none" stroke="#1565c0" stroke-width="1.5"/><rect x="1380.73088969739" y="876.4910392846848" width="19.2" height="8" rx="1" fill="none" stroke="#1565c0" stroke-width="1.5"/><rect x="1380.73088969739" y="886.4910392846848" width="19.2" height="8" rx="1" fill="none" stroke="#1565c0" stroke-width="1.5"/><text x="1390.33088969739" y="920.4910392846848" text-anchor="middle" font-size="11">TokyoApp1</text><text x="1390.33088969739" y="908.4910392846848" text-anchor="middle" font-size="9" fill="#1565c0">server</text><rect x="1340.33088969739" y="706.165444848695" width="100" height="70" rx="6" fill="#e3f2fd" stroke="#1565c0" stroke-width="1.5"/><rect x="1380.73088969739" y="714.165444848695" width="19.2" height="8" rx="1" fill="none" stroke="#1565c0" stroke-width="1.5"/><rect x="1380.73088969739" y="724.165444848695" width="19.2" height="8" rx="1" fill="none" stroke="#1565c0" stroke-width="1.5"/><rect x="1380.73088969739" y="734.165444848695" width="19.2" height="8" rx="1" fill="none" stroke="#1565c0" stroke-width="1.5"/><text x="1390.33088969739" y="768.165444848695" text-anchor="middle" font-size="11">TokyoApp2</text><text x="1390.33088969739" y="756.165444848695" text-anchor="middle" font-size="9" fill="#1565c0">server</text><rect x="1522.6564841333798" y="706.165444848695" width="100" height="70" rx="6" fill="#e8f5e9" stroke="#2e7d32" stroke-width="1.5"/><ellipse cx="1572.6564841333798" cy="720.365444848695" rx="9.6" ry="5" fill="none" stroke="#2e7d32" stroke-width="1.5"/><line x1="1563.0564841333799" y1="720.365444848695" x2="1563.0564841333799" y2="735.9654448486949" stroke="#2e7d32" stroke-width="1.5"/><line x1="1582.2564841333797" y1="720.365444848695" x2="1582.2564841333797" y2="735.9654448486949" stroke="#2e7d32" stroke-width="1.5"/><ellipse cx="1572.6564841333798" cy="735.9654448486949" rx="9.6" ry="5" fill="none" stroke="#2e7d32" stroke-width="1.5"/><text x="1572.6564841333798" y="768.165444848695" text-anchor="middle" font-size="11">TokyoDB</text><text x="1572.6564841333798" y="756.165444848695" text-anchor="middle" font-size="9" fill="#2e7d32">db</text><rect x="1522.6564841333798" y="858.4910392846848" width="100" height="70" rx="6" fill="#fce4ec" stroke="#c62828" stroke-width="1.5"/><polyline points="1568.6564841333798,870.8910392846848 1574.6564841333798,878.4910392846848 1570.6564841333798,882.4910392846848 1576.6564841333798,890.0910392846848" fill="none" stroke="#c62828" stroke-width="2"/><text x="1572.6564841333798" y="920.4910392846848" text-anchor="middle" font-size="11">TokyoCache</text><text x="1572.6564841333798" y="908.4910392846848" text-anchor="middle" font-size="9" fill="#c62828">cache</text><rect x="1990.4963345460847" y="40" width="496.6511888719798" height="274.3255944359899" rx="6" fill="#fafafa" stroke="#bbb" stroke-width="1.5" stroke-dasharray="6,4"/><text x="1998.4963345460847" y="59.599999999999994" font-weight="bold" font-size="13">US Region</text><rect x="2006.4963345460847" y="156.16279721799495" width="100" height="70" rx="6" fill="#fff3e0" stroke="#e65100" stroke-width="1.5"/><circle cx="2056.4963345460847" cy="178.16279721799495" r="8" fill="none" stroke="#e65100" stroke-width="1.5"/><line x1="2048.4963345460847" y1="178.16279721799495" x2="2042.0963345460846" y2="172.16279721799495" stroke="#e65100" stroke-width="1.5"/><line x1="2048.4963345460847" y1="178.16279721799495" x2="2042.0963345460846" y2="184.16279721799495" stroke="#e65100" stroke-width="1.5"/><text x="2056.4963345460847" y="218.16279721799495" text-anchor="middle" font-size="11">USLB</text><text x="2056.4963345460847" y="206.16279721799495" text-anchor="middle" font-size="9" fill="#e65100">lb</text><rect x="2188.8219289820745" y="232.3255944359899" width="100" height="70" rx="6" fill="#e3f2fd" stroke="#1565c0" stroke-width="1.5"/><rect x="2229.2219289820746" y="240.3255944359899" width="19.2" height="8" rx="1" fill="none" stroke="#1565c0" stroke-width="1.5"/><rect x="2229.2219289820746" y="250.3255944359899" width="19.2" height="8" rx="1" fill="none" stroke="#1565c0" stroke-width="1.5"/><rect x="2229.2219289820746" y="260.3255944359899" width="19.2" height="8" rx="1" fill="none" stroke="#1565c0" stroke-width="1.5"/><text x="2238.8219289820745" y="294.3255944359899" text-anchor="middle" font-size="11">USApp1</text><text x="2238.8219289820745" y="282.3255944359899" text-anchor="middle" font-size="9" fill="#1565c0">server</text><rect x="2188.8219289820745" y="80" width="100" height="70" rx="6" fill="#e3f2fd" stroke="#1565c0" stroke-width="1.5"/><rect x="2229.2219289820746" y="88" width="19.2" height="8" rx="1" fill="none" stroke="#1565c0" stroke-width="1.5"/><rect x="2229.2219289820746" y="98" width="19.2" height="8" rx="1" fill="none" stroke="#1565c0" stroke-width="1.5"/><rect x="2229.2219289820746" y="108" width="19.2" height="8" rx="1" fill="none" stroke="#1565c0" stroke-width="1.5"/><text x="2238.8219289820745" y="142" text-anchor="middle" font-size="11">USApp2</text><text x="2238.8219289820745" y="130" text-anchor="middle" font-size="9" fill="#1565c0">server</text><rect x="2371.1475234180643" y="80" width="100" height="70" rx="6" fill="#e8f5e9" stroke="#2e7d32" stroke-width="1.5"/><ellipse cx="2421.1475234180643" cy="94.2" rx="9.6" ry="5" fill="none" stroke="#2e7d32" stroke-width="1.5"/><line x1="2411.5475234180644" y1="94.2" x2="2411.5475234180644" y2="109.8" stroke="#2e7d32" stroke-width="1.5"/><line x1="2430.7475234180642" y1="94.2" x2="2430.7475234180642" y2="109.8" stroke="#2e7d32" stroke-width="1.5"/><ellipse cx="2421.1475234180643" cy="109.8" rx="9.6" ry="5" fill="none" stroke="#2e7d32" stroke-width="1.5"/><text x="2421.1475234180643" y="142" text-anchor="middle" font-size="11">USDB</text><text x="2421.1475234180643" y="130" text-anchor="middle" font-size="9" fill="#2e7d32">db</text><rect x="2371.1475234180643" y="232.3255944359899" width="100" height="70" rx="6" fill="#fce4ec" stroke="#c62828" stroke-width="1.5"/><polyline points="2417.1475234180643,244.7255944359899 2423.1475234180643,252.3255944359899 2419.1475234180643,256.3255944359899 2425.1475234180643,263.9255944359899" fill="none" stroke="#c62828" stroke-width="2"/><text x="2421.1475234180643" y="294.3255944359899" text-anchor="middle" font-size="11">USCache</text><text x="2421.1475234180643" y="282.3255944359899" text-anchor="middle" font-size="9" fill="#c62828">cache</text><rect x="2813.8526376842374" y="353.0827224243475" width="446.3817165789153" height="122" rx="6" fill="#fafafa" stroke="#bbb" stroke-width="1.5" stroke-dasharray="6,4"/><text x="2821.8526376842374" y="372.6827224243475" font-weight="bold" font-size="13">Shared</text><rect x="2829.8526376842374" y="393.0827224243475" width="100" height="70" rx="6" fill="#fff8e1" stroke="#f9a825" stroke-width="1.5"/><circle cx="2874.8526376842374" cy="417.0827224243475" r="6" fill="none" stroke="#f9a825" stroke-width="1.5"/><circle cx="2879.8526376842374" cy="412.0827224243475" r="7" fill="none" stroke="#f9a825" stroke-width="1.5"/><circle cx="2884.8526376842374" cy="417.0827224243475" r="6" fill="none" stroke="#f9a825" stroke-width="1.5"/><text x="2879.8526376842374" y="455.0827224243475" text-anchor="middle" font-size="11">CDN</text><text x="2879.8526376842374" y="443.0827224243475" text-anchor="middle" font-size="9" fill="#f9a825">cdn</text><rect x="2992.6820312980076" y="393.0827224243475" width="100" height="70" rx="6" fill="#e0f2f1" stroke="#00695c" stroke-width="1.5"/><path d="M3034.6820312980076,407.0827224243475 L3050.6820312980076,407.0827224243475 L3049.0820312980077,423.0827224243475 L3036.2820312980075,423.0827224243475 Z" fill="none" stroke="#00695c" stroke-width="1.5"/><text x="3042.6820312980076" y="455.0827224243475" text-anchor="middle" font-size="11">S3</text><text x="3042.6820312980076" y="443.0827224243475" text-anchor="middle" font-size="9" fill="#00695c">storage</text><rect x="3144.2343542631525" y="393.0827224243475" width="100" height="70" rx="6" fill="#f3e5f5" stroke="#6a1b9a" stroke-width="1.5"/><line x1="3186.2343542631525" y1="415.0827224243475" x2="3199.0343542631526" y2="415.0827224243475" stroke="#6a1b9a" stroke-width="2"/><polyline points="3195.8343542631524,410.0827224243475 3202.2343542631525,415.0827224243475 3195.8343542631524,420.0827224243475" fill="none" stroke="#6a1b9a" stroke-width="2"/><text x="3194.2343542631525" y="455.0827224243475" text-anchor="middle" font-size="11">SQS</text><text x="3194.2343542631525" y="443.0827224243475" text-anchor="middle" font-size="9" fill="#6a1b9a">queue</text><path d="M140,388.0827224243475 L491.8398504127051,388.0827224243475" fill="none" stroke="#666" stroke-width="1.5" marker-end="url(#arrow)"/><path d="M591.8398504127051,420.3003586708385 L1158.0052952614,785.1106058201989" fill="none" stroke="#666" stroke-width="1.5" marker-end="url(#arrow)"/><path d="M591.8398504127051,381.5822410521959 L2006.4963345460847,197.66327859014652" fill="none" stroke="#666" stroke-width="1.5" marker-end="url(#arrow)"/><path d="M1258.0052952614,838.2147219527417 L1340.33088969739,872.604559398633" fill="none" stroke="#666" stroke-width="1.5" marker-end="url(#arrow)"/><path d="M1258.0052952614,796.4417621806381 L1340.33088969739,762.0519247347468" fill="none" stroke="#666" stroke-width="1.5" marker-end="url(#arrow)"/><path d="M1432.2240188782594,858.4910392846848 L1530.7633549525103,776.165444848695" fill="none" stroke="#666" stroke-width="1.5" marker-end="url(#arrow)"/><path d="M1440.33088969739,741.165444848695 L1522.6564841333798,741.165444848695" fill="none" stroke="#666" stroke-width="1.5" marker-end="url(#arrow)"/><path d="M1440.33088969739,893.4910392846848 L1522.6564841333798,893.4910392846848" fill="none" stroke="#666" stroke-width="1.5" marker-end="url(#arrow)"/><path d="M2106.4963345460847,212.04927710404678 L2188.8219289820745,246.43911454993804" fill="none" stroke="#666" stroke-width="1.5" marker-end="url(#arrow)"/><path d="M2106.4963345460847,170.27631733194312 L2188.8219289820745,135.88647988605186" fill="none" stroke="#666" stroke-width="1.5" marker-end="url(#arrow)"/><path d="M2280.715058162944,232.3255944359899 L2379.254394237195,150" fill="none" stroke="#666" stroke-width="1.5" marker-end="url(#arrow)"/><path d="M2288.8219289820745,115 L2371.1475234180643,115" fill="none" stroke="#666" stroke-width="1.5" marker-end="url(#arrow)"/><path d="M2288.8219289820745,267.3255944359899 L2371.1475234180643,267.3255944359899" fill="none" stroke="#666" stroke-width="1.5" marker-end="url(#arrow)"/><path d="M1622.6564841333798,709.7288209850964 L1930.7392065577271,516.0272077105432 Q2238.8219289820745,322.3255944359899 2314.594933582762,236.16279721799495 L2390.36793818345,150" fill="none" stroke="#666" stroke-width="1.5" marker-end="url(#arrow)"/><rect x="1979.30254068044" y="436.8645646216864" width="94" height="16" rx="3" fill="white" opacity="0.9"/><text x="2026.30254068044" y="448.8645646216864" text-anchor="middle" font-size="11" fill="#666">replication</text><path d="M2929.8526376842374,428.0827224243475 L2992.6820312980076,428.0827224243475" fill="none" stroke="#666" stroke-width="1.5" marker-end="url(#arrow)"/><path d="M1440.33088969739,908.5739463691614 L1506.4936869153848,928.5324928269231 Q1572.6564841333798,948.4910392846848 2358.445419198266,696.3100588721511 L3144.2343542631525,444.1290784596173" fill="none" stroke="#666" stroke-width="1.5" marker-end="url(#arrow)"/><path d="M2288.8219289820745,252.2426873515133 L2354.9847262000694,232.2841408937516 Q2421.1475234180643,212.3255944359899 2782.6909388406084,313.2270272923731 L3144.2343542631525,414.1284601487564" fill="none" stroke="#666" stroke-width="1.5" marker-end="url(#arrow)"/></svg>