<svg xmlns="http://www.w3.org/2000/svg" width="428" height="150" viewBox="0 0 428 150"><style>text { font-family: sans-serif; font-size: 12px; fill: #333; }</style><defs><marker id="arrow" viewBox="0 0 10 10" refX="10" refY="5" markerWidth="8" markerHeight="8" orient="auto"><polygon points="0,1 10,5 0,9" fill="#666"/></marker></defs><rect x="40" y="40" width="100" height="70" rx="6" fill="#fafafa" stroke="#616161" stroke-width="1.5"/><circle cx="90" cy="54" r="5" fill="none" stroke="#616161" stroke-width="1.5"/><line x1="90" y1="59" x2="90" y2="68" stroke="#616161" stroke-width="1.5"/><line x1="83" y1="63" x2="97" y2="63" stroke="#616161" stroke-width="1.5"/><text x="90" y="102" text-anchor="middle" font-size="11">Client</text><text x="90" y="90" text-anchor="middle" font-size="9" fill="#616161">user</text><rect x="164" y="40" width="100" height="70" rx="6" fill="#e3f2fd" stroke="#1565c0" stroke-width="1.5"/><rect x="204.4" y="48" width="19.2" height="8" rx="1" fill="none" stroke="#1565c0" stroke-width="1.5"/><rect x="204.4" y="58" width="19.2" height="8" rx="1" fill="none" stroke="#1565c0" stroke-width="1.5"/><rect x="204.4" y="68" width="19.2" height="8" rx="1" fill="none" stroke="#1565c0" stroke-width="1.5"/><text x="214" y="102" text-anchor="middle" font-size="11">WebServer</text><text x="214" y="90" text-anchor="middle" font-size="9" fill="#1565c0">server</text><rect x="288" y="40" width="100" height="70" rx="6" fill="#e8f5e9" stroke="#2e7d32" stroke-width="1.5"/><ellipse cx="338" cy="54.2" rx="9.6" ry="5" fill="none" stroke="#2e7d32" stroke-width="1.5"/><line x1="328.4" y1="54.2" x2="328.4" y2="69.8" stroke="#2e7d32" stroke-width="1.5"/><line x1="347.6" y1="54.2" x2="347.6" y2="69.8" stroke="#2e7d32" stroke-width="1.5"/><ellipse cx="338" cy="69.8" rx="9.6" ry="5" fill="none" stroke="#2e7d32" stroke-width="1.5"/><text x="338" y="102" text-anchor="middle" font-size="11">Database</text><text x="338" y="90" text-anchor="middle" font-size="9" fill="#2e7d32">db</text><path d="M140,75 L164,75" fill="none" stroke="#666" stroke-width="1.5" marker-end="url(#arrow)"/><rect x="133" y="57" width="38" height="16" rx="3" fill="white" opacity="0.9"/><text x="152" y="69" text-anchor="middle" font-size="11" fill="#666">HTTP</text><path d="M264,75 L288,75" fill="none" stroke="#666" stroke-width="1.5" marker-end="url(#arrow)"/><rect x="261" y="57" width="30" height="16" rx="3" fill="white" opacity="0.9"/><text x="276" y="69" text-anchor="middle" font-size="11" fill="#666">SQL</text></svg>