<svg xmlns="http://www.w3.org/2000/svg" width="1608.412782763824" height="314.19245142048425" viewBox="0 0 1608.412782763824 314.19245142048425"><rect width="100%" height="100%" fill="white"/><style>text { font-family: sans-serif; font-size: 12px; fill: #333; }</style><defs><marker id="arrow" viewBox="0 0 10 10" refX="10" refY="5" markerWidth="8" markerHeight="8" orient="auto"><polygon points="0,1 10,5 0,9" fill="#666"/></marker></defs><rect x="40" y="40" width="100" height="70" rx="6" fill="#fafafa" stroke="#616161" stroke-width="1.5"/><circle cx="90" cy="54" r="5" fill="none" stroke="#616161" stroke-width="1.5"/><line x1="90" y1="59" x2="90" y2="68" stroke="#616161" stroke-width="1.5"/><line x1="83" y1="63" x2="97" y2="63" stroke="#616161" stroke-width="1.5"/><text x="90" y="102" text-anchor="middle" font-size="11">Client</text><text x="90" y="90" text-anchor="middle" font-size="9" fill="#616161">user</text><rect x="407.0589613368863" y="40" width="262.78016689125445" height="122" rx="6" fill="#fafafa" stroke="#bbb" stroke-width="1.5" stroke-dasharray="6,4"/><text x="415.0589613368863" y="59.599999999999994" font-weight="bold" font-size="13">Web Tier</text><rect x="423.0589613368863" y="80" width="100" height="70" rx="6" fill="#fff3e0" stroke="#e65100" stroke-width="1.5"/><circle cx="473.0589613368863" cy="102" r="8" fill="none" stroke="#e65100" stroke-width="1.5"/><line x1="465.0589613368863" y1="102" x2="458.6589613368863" y2="96" stroke="#e65100" stroke-width="1.5"/><line x1="465.0589613368863" y1="102" x2="458.6589613368863" y2="108" stroke="#e65100" stroke-width="1.5"/><text x="473.0589613368863" y="142" text-anchor="middle" font-size="11">Nginx1</text><text x="473.0589613368863" y="130" text-anchor="middle" font-size="9" fill="#e65100">lb</text><rect x="553.8391282281407" y="80" width="100" height="70" rx="6" fill="#fff3e0" stroke="#e65100" stroke-width="1.5"/><circle cx="603.8391282281407" cy="102" r="8" fill="none" stroke="#e65100" stroke-width="1.5"/><line x1="595.8391282281407" y1="102" x2="589.4391282281407" y2="96" stroke="#e65100" stroke-width="1.5"/><line x1="595.8391282281407" y1="102" x2="589.4391282281407" y2="108" stroke="#e65100" stroke-width="1.5"/><text x="603.8391282281407" y="142" text-anchor="middle" font-size="11">Nginx2</text><text x="603.8391282281407" y="130" text-anchor="middle" font-size="9" fill="#e65100">lb</text><rect x="856.345788604728" y="40" width="264.455731861911" height="234.19245142048425" rx="6" fill="#fafafa" stroke="#bbb" stroke-width="1.5" stroke-dasharray="6,4"/><text x="864.345788604728" y="59.599999999999994" font-weight="bold" font-size="13">App Tier</text><rect x="872.345788604728" y="80" width="100" height="70" rx="6" fill="#e3f2fd" stroke="#1565c0" stroke-width="1.5"/><rect x="912.745788604728" y="88" width="19.2" height="8" rx="1" fill="none" stroke="#1565c0" stroke-width="1.5"/><rect x="912.745788604728" y="98" width="19.2" height="8" rx="1" fill="none" stroke="#1565c0" stroke-width="1.5"/><rect x="912.745788604728" y="108" width="19.2" height="8" rx="1" fill="none" stroke="#1565c0" stroke-width="1.5"/><text x="922.345788604728" y="142" text-anchor="middle" font-size="11">App1</text><text x="922.345788604728" y="130" text-anchor="middle" font-size="9" fill="#1565c0">server</text><rect x="1004.801520466639" y="80" width="100" height="70" rx="6" fill="#e3f2fd" stroke="#1565c0" stroke-width="1.5"/><rect x="1045.201520466639" y="88" width="19.2" height="8" rx="1" fill="none" stroke="#1565c0" stroke-width="1.5"/><rect x="1045.201520466639" y="98" width="19.2" height="8" rx="1" fill="none" stroke="#1565c0" stroke-width="1.5"/><rect x="1045.201520466639" y="108" width="19.2" height="8" rx="1" fill="none" stroke="#1565c0" stroke-width="1.5"/><text x="1054.801520466639" y="142" text-anchor="middle" font-size="11">App2</text><text x="1054.801520466639" y="130" text-anchor="middle" font-size="9" fill="#1565c0">server</text><rect x="872.345788604728" y="192.19245142048425" width="100" height="70" rx="6" fill="#e3f2fd" stroke="#1565c0" stroke-width="1.5"/><rect x="912.745788604728" y="200.19245142048425" width="19.2" height="8" rx="1" fill="none" stroke="#1565c0" stroke-width="1.5"/><rect x="912.745788604728" y="210.19245142048425" width="19.2" height="8" rx="1" fill="none" stroke="#1565c0" stroke-width="1.5"/><rect x="912.745788604728" y="220.19245142048425" width="19.2" height="8" rx="1" fill="none" stroke="#1565c0" stroke-width="1.5"/><text x="922.345788604728" y="254.19245142048425" text-anchor="middle" font-size="11">App3</text><text x="922.345788604728" y="242.19245142048425" text-anchor="middle" font-size="9" fill="#1565c0">server</text><rect x="1305.6326158725697" y="40" width="262.78016689125445" height="122" rx="6" fill="#fafafa" stroke="#bbb" stroke-width="1.5" stroke-dasharray="6,4"/><text x="1313.6326158725697" y="59.599999999999994" font-weight="bold" font-size="13">Data Tier</text><rect x="1321.6326158725697" y="80" width="100" height="70" rx="6" fill="#e8f5e9" stroke="#2e7d32" stroke-width="1.5"/><ellipse cx="1371.6326158725697" cy="94.2" rx="9.6" ry="5" fill="none" stroke="#2e7d32" stroke-width="1.5"/><line x1="1362.0326158725697" y1="94.2" x2="1362.0326158725697" y2="109.8" stroke="#2e7d32" stroke-width="1.5"/><line x1="1381.2326158725696" y1="94.2" x2="1381.2326158725696" y2="109.8" stroke="#2e7d32" stroke-width="1.5"/><ellipse cx="1371.6326158725697" cy="109.8" rx="9.6" ry="5" fill="none" stroke="#2e7d32" stroke-width="1.5"/><text x="1371.6326158725697" y="142" text-anchor="middle" font-size="11">MySQL</text><text x="1371.6326158725697" y="130" text-anchor="middle" font-size="9" fill="#2e7d32">db</text><rect x="1452.412782763824" y="80" width="100" height="70" rx="6" fill="#fce4ec" stroke="#c62828" stroke-width="1.5"/><polyline points="1498.412782763824,92.4 1504.412782763824,100 1500.412782763824,104 1506.412782763824,111.6" fill="none" stroke="#c62828" stroke-width="2"/><text x="1502.412782763824" y="142" text-anchor="middle" font-size="11">Redis</text><text x="1502.412782763824" y="130" text-anchor="middle" font-size="9" fill="#c62828">cache</text><path d="M140,80.22112834280118 L423.0589613368863,109.77887165719882" fill="none" stroke="#666" stroke-width="1.5" marker-end="url(#arrow)"/><path d="M140,87.4001798141528 L306.52948066844317,128.7000899070764 Q473.0589613368863,170 513.4490447825135,153.01382661977584 L553.8391282281407,136.0276532395517" fill="none" stroke="#666" stroke-width="1.5" marker-end="url(#arrow)"/><path d="M523.0589613368863,136.0276532395517 L563.4490447825135,153.01382661977584 Q603.8391282281407,170 738.0924584164343,146.81702118371487 L872.345788604728,123.63404236742971" fill="none" stroke="#666" stroke-width="1.5" marker-end="url(#arrow)"/><path d="M523.0589613368863,136.0276532395517 L563.4490447825135,153.01382661977584 Q603.8391282281407,170 763.0924584164343,115 Q922.345788604728,60 963.5736545356835,77.1191732839959 L1004.801520466639,94.23834656799181" fill="none" stroke="#666" stroke-width="1.5" marker-end="url(#arrow)"/><path d="M653.8391282281407,123.63404236742971 L788.0924584164343,146.81702118371487 Q922.345788604728,170 963.5736545356835,152.8808267160041 L1004.801520466639,135.7616534320082" fill="none" stroke="#666" stroke-width="1.5" marker-end="url(#arrow)"/><path d="M653.8391282281407,132.61226143400472 L872.345788604728,209.58018998647952" fill="none" stroke="#666" stroke-width="1.5" marker-end="url(#arrow)"/><path d="M972.345788604728,135.7616534320082 L1013.5736545356835,152.8808267160041 Q1054.801520466639,170 1188.2170681696043,146.83985180096772 L1321.6326158725697,123.67970360193542" fill="none" stroke="#666" stroke-width="1.5" marker-end="url(#arrow)"/><path d="M1104.801520466639,115 L1321.6326158725697,115" fill="none" stroke="#666" stroke-width="1.5" marker-end="url(#arrow)"/><path d="M972.345788604728,214.7068359281786 L1321.6326158725697,127.48561549230564" fill="none" stroke="#666" stroke-width="1.5" marker-end="url(#arrow)"/><path d="M972.345788604728,135.7616534320082 L1013.5736545356835,152.8808267160041 Q1054.801520466639,170 1213.2170681696043,115 Q1371.6326158725697,60 1412.0226993181968,76.98617338022413 L1452.412782763824,93.97234676044827" fill="none" stroke="#666" stroke-width="1.5" marker-end="url(#arrow)"/><path d="M1104.801520466639,123.67970360193542 L1238.2170681696043,146.83985180096772 Q1371.6326158725697,170 1412.0226993181968,153.01382661977587 L1452.412782763824,136.02765323955174" fill="none" stroke="#666" stroke-width="1.5" marker-end="url(#arrow)"/><path d="M972.345788604728,208.5860243817484 L1171.9892022386489,134.2930121908742 Q1371.6326158725697,60 1412.0226993181968,76.98617338022413 L1452.412782763824,93.97234676044827" fill="none" stroke="#666" stroke-width="1.5" marker-end="url(#arrow)"/></svg>