<svg xmlns="http://www.w3.org/2000/svg" width="1546.2881641223983" height="310.2301297247675" viewBox="0 0 1546.2881641223983 310.2301297247675"><style>text { font-family: sans-serif; font-size: 12px; fill: #333; }</style><defs><marker id="arrow" viewBox="0 0 10 10" refX="10" refY="5" markerWidth="8" markerHeight="8" orient="auto"><polygon points="0,1 10,5 0,9" fill="#666"/></marker></defs><rect x="40" y="40" width="100" height="70" rx="6" fill="#fafafa" stroke="#616161" stroke-width="1.5"/><circle cx="90" cy="54" r="5" fill="none" stroke="#616161" stroke-width="1.5"/><line x1="90" y1="59" x2="90" y2="68" stroke="#616161" stroke-width="1.5"/><line x1="83" y1="63" x2="97" y2="63" stroke="#616161" stroke-width="1.5"/><text x="90" y="102" text-anchor="middle" font-size="11">Client</text><text x="90" y="90" text-anchor="middle" font-size="9" fill="#616161">user</text><rect x="388.39854137765985" y="40" width="259.68474789344356" height="122" rx="6" fill="#fafafa" stroke="#bbb" stroke-width="1.5" stroke-dasharray="6,4"/><text x="396.39854137765985" y="59.599999999999994" font-weight="bold" font-size="13">Web Tier</text><rect x="404.39854137765985" y="80" width="100" height="70" rx="6" fill="#fff3e0" stroke="#e65100" stroke-width="1.5"/><circle cx="454.39854137765985" cy="102" r="8" fill="none" stroke="#e65100" stroke-width="1.5"/><line x1="446.39854137765985" y1="102" x2="439.9985413776599" y2="96" stroke="#e65100" stroke-width="1.5"/><line x1="446.39854137765985" y1="102" x2="439.9985413776599" y2="108" stroke="#e65100" stroke-width="1.5"/><text x="454.39854137765985" y="142" text-anchor="middle" font-size="11">Nginx1</text><text x="454.39854137765985" y="130" text-anchor="middle" font-size="9" fill="#e65100">lb</text><rect x="532.0832892711034" y="80" width="100" height="70" rx="6" fill="#fff3e0" stroke="#e65100" stroke-width="1.5"/><circle cx="582.0832892711034" cy="102" r="8" fill="none" stroke="#e65100" stroke-width="1.5"/><line x1="574.0832892711034" y1="102" x2="567.6832892711034" y2="96" stroke="#e65100" stroke-width="1.5"/><line x1="574.0832892711034" y1="102" x2="567.6832892711034" y2="108" stroke="#e65100" stroke-width="1.5"/><text x="582.0832892711034" y="142" text-anchor="middle" font-size="11">Nginx2</text><text x="582.0832892711034" y="130" text-anchor="middle" font-size="9" fill="#e65100">lb</text><rect x="817.5009788033074" y="40" width="261.40779209597497" height="230.23012972476747" rx="6" fill="#fafafa" stroke="#bbb" stroke-width="1.5" stroke-dasharray="6,4"/><text x="825.5009788033074" y="59.599999999999994" font-weight="bold" font-size="13">App Tier</text><rect x="833.5009788033074" y="80" width="100" height="70" rx="6" fill="#e3f2fd" stroke="#1565c0" stroke-width="1.5"/><rect x="873.9009788033073" y="88" width="19.2" height="8" rx="1" fill="none" stroke="#1565c0" stroke-width="1.5"/><rect x="873.9009788033073" y="98" width="19.2" height="8" rx="1" fill="none" stroke="#1565c0" stroke-width="1.5"/><rect x="873.9009788033073" y="108" width="19.2" height="8" rx="1" fill="none" stroke="#1565c0" stroke-width="1.5"/><text x="883.5009788033074" y="142" text-anchor="middle" font-size="11">App1</text><text x="883.5009788033074" y="130" text-anchor="middle" font-size="9" fill="#1565c0">server</text><rect x="962.9087708992823" y="80" width="100" height="70" rx="6" fill="#e3f2fd" stroke="#1565c0" stroke-width="1.5"/><rect x="1003.3087708992823" y="88" width="19.2" height="8" rx="1" fill="none" stroke="#1565c0" stroke-width="1.5"/><rect x="1003.3087708992823" y="98" width="19.2" height="8" rx="1" fill="none" stroke="#1565c0" stroke-width="1.5"/><rect x="1003.3087708992823" y="108" width="19.2" height="8" rx="1" fill="none" stroke="#1565c0" stroke-width="1.5"/><text x="1012.9087708992823" y="142" text-anchor="middle" font-size="11">App2</text><text x="1012.9087708992823" y="130" text-anchor="middle" font-size="9" fill="#1565c0">server</text><rect x="833.5009788033074" y="188.23012972476747" width="100" height="70" rx="6" fill="#e3f2fd" stroke="#1565c0" stroke-width="1.5"/><rect x="873.9009788033073" y="196.23012972476747" width="19.2" height="8" rx="1" fill="none" stroke="#1565c0" stroke-width="1.5"/><rect x="873.9009788033073" y="206.23012972476747" width="19.2" height="8" rx="1" fill="none" stroke="#1565c0" stroke-width="1.5"/><rect x="873.9009788033073" y="216.23012972476747" width="19.2" height="8" rx="1" fill="none" stroke="#1565c0" stroke-width="1.5"/><text x="883.5009788033074" y="250.2301297247675" text-anchor="middle" font-size="11">App3</text><text x="883.5009788033074" y="238.2301297247675" text-anchor="middle" font-size="9" fill="#1565c0">server</text><rect x="1246.6034162289548" y="40" width="259.68474789344356" height="122" rx="6" fill="#fafafa" stroke="#bbb" stroke-width="1.5" stroke-dasharray="6,4"/><text x="1254.6034162289548" y="59.599999999999994" font-weight="bold" font-size="13">Data Tier</text><rect x="1262.6034162289548" y="80" width="100" height="70" rx="6" fill="#e8f5e9" stroke="#2e7d32" stroke-width="1.5"/><ellipse cx="1312.6034162289548" cy="94.2" rx="9.6" ry="5" fill="none" stroke="#2e7d32" stroke-width="1.5"/><line x1="1303.0034162289548" y1="94.2" x2="1303.0034162289548" y2="109.8" stroke="#2e7d32" stroke-width="1.5"/><line x1="1322.2034162289547" y1="94.2" x2="1322.2034162289547" y2="109.8" stroke="#2e7d32" stroke-width="1.5"/><ellipse cx="1312.6034162289548" cy="109.8" rx="9.6" ry="5" fill="none" stroke="#2e7d32" stroke-width="1.5"/><text x="1312.6034162289548" y="142" text-anchor="middle" font-size="11">MySQL</text><text x="1312.6034162289548" y="130" text-anchor="middle" font-size="9" fill="#2e7d32">db</text><rect x="1390.2881641223983" y="80" width="100" height="70" rx="6" fill="#fce4ec" stroke="#c62828" stroke-width="1.5"/><polyline points="1436.2881641223983,92.4 1442.2881641223983,100 1438.2881641223983,104 1444.2881641223983,111.6" fill="none" stroke="#c62828" stroke-width="2"/><text x="1440.2881641223983" y="142" text-anchor="middle" font-size="11">Redis</text><text x="1440.2881641223983" y="130" text-anchor="middle" font-size="9" fill="#c62828">cache</text><path d="M140,80.48849617355415 L404.39854137765985,109.51150382644585" fill="none" stroke="#666" stroke-width="1.5" marker-end="url(#arrow)"/><path d="M140,88.0351784121911 L297.1992706888299,129.01758920609555 Q454.39854137765985,170 493.2409153243816,153.26870983171364 L532.0832892711034,136.53741966342724" fill="none" stroke="#666" stroke-width="1.5" marker-end="url(#arrow)"/><path d="M504.39854137765985,136.53741966342724 L543.2409153243816,153.26870983171364 Q582.0832892711034,170 707.7921340372054,147.06177605944092 L833.5009788033074,124.12355211888182" fill="none" stroke="#666" stroke-width="1.5" marker-end="url(#arrow)"/><path d="M504.39854137765985,136.53741966342724 L543.2409153243816,153.26870983171364 Q582.0832892711034,170 732.7921340372054,115 Q883.5009788033074,60 923.2048748512948,76.87467382968535 L962.9087708992823,93.7493476593707" fill="none" stroke="#666" stroke-width="1.5" marker-end="url(#arrow)"/><path d="M632.0832892711034,124.12355211888182 L757.7921340372054,147.06177605944092 Q883.5009788033074,170 923.2048748512948,153.12532617031465 L962.9087708992823,136.2506523406293" fill="none" stroke="#666" stroke-width="1.5" marker-end="url(#arrow)"/><path d="M632.0832892711034,132.95351326140465 L833.5009788033074,205.2766164633628" fill="none" stroke="#666" stroke-width="1.5" marker-end="url(#arrow)"/><path d="M933.5009788033074,136.2506523406293 L973.2048748512948,153.12532617031465 Q1012.9087708992823,170 1137.7560935641186,147.08800322737653 L1262.6034162289548,124.17600645475305" fill="none" stroke="#666" stroke-width="1.5" marker-end="url(#arrow)"/><path d="M1062.9087708992824,115 L1262.6034162289548,115" fill="none" stroke="#666" stroke-width="1.5" marker-end="url(#arrow)"/><path d="M933.5009788033074,210.6189068225996 L1262.6034162289548,127.61122290216785" fill="none" stroke="#666" stroke-width="1.5" marker-end="url(#arrow)"/><path d="M933.5009788033074,136.2506523406293 L973.2048748512948,153.12532617031465 Q1012.9087708992823,170 1162.7560935641186,115 Q1312.6034162289548,60 1351.4457901756764,76.73129016828638 L1390.2881641223983,93.46258033657276" fill="none" stroke="#666" stroke-width="1.5" marker-end="url(#arrow)"/><path d="M1062.9087708992824,124.17600645475305 L1187.7560935641186,147.08800322737653 Q1312.6034162289548,170 1351.4457901756764,153.26870983171364 L1390.2881641223983,136.53741966342724" fill="none" stroke="#666" stroke-width="1.5" marker-end="url(#arrow)"/><path d="M933.5009788033074,204.21018070000213 L1123.052197516131,132.10509035000106 Q1312.6034162289548,60 1351.4457901756764,76.73129016828638 L1390.2881641223983,93.46258033657276" fill="none" stroke="#666" stroke-width="1.5" marker-end="url(#arrow)"/></svg>