<svg xmlns="http://www.w3.org/2000/svg" width="1422.743904872565" height="314.19245142048425" viewBox="0 0 1422.743904872565 314.19245142048425"><rect width="100%" height="100%" fill="white"/><style>text { font-family: sans-serif; font-size: 12px; fill: #333; }</style><defs><marker id="arrow" viewBox="0 0 10 10" refX="10" refY="5" markerWidth="8" markerHeight="8" orient="auto"><polygon points="0,1 10,5 0,9" fill="#666"/></marker></defs><rect x="40" y="40" width="100" height="70" rx="6" fill="#fafafa" stroke="#616161" stroke-width="1.5"/><circle cx="90" cy="54" r="5" fill="none" stroke="#616161" stroke-width="1.5"/><line x1="90" y1="59" x2="90" y2="68" stroke="#616161" stroke-width="1.5"/><line x1="83" y1="63" x2="97" y2="63" stroke="#616161" stroke-width="1.5"/><text x="90" y="102" text-anchor="middle" font-size="11">Client</text><text x="90" y="90" text-anchor="middle" font-size="9" fill="#616161">user</text><rect x="345.16933537313326" y="40" width="262.78016689125445" height="122" rx="6" fill="#fafafa" stroke="#bbb" stroke-width="1.5" stroke-dasharray="6,4"/><text x="353.16933537313326" y="59.599999999999994" font-weight="bold" font-size="13">Web Tier</text><rect x="361.16933537313326" y="80" width="100" height="70" rx="6" fill="#fff3e0" stroke="#e65100" stroke-width="1.5"/><circle cx="411.16933537313326" cy="102" r="8" fill="none" stroke="#e65100" stroke-width="1.5"/><line x1="403.16933537313326" y1="102" x2="396.7693353731333" y2="96" stroke="#e65100" stroke-width="1.5"/><line x1="403.16933537313326" y1="102" x2="396.7693353731333" y2="108" stroke="#e65100" stroke-width="1.5"/><text x="411.16933537313326" y="142" text-anchor="middle" font-size="11">Nginx1</text><text x="411.16933537313326" y="130" text-anchor="middle" font-size="9" fill="#e65100">lb</text><rect x="491.94950226438766" y="80" width="100" height="70" rx="6" fill="#fff3e0" stroke="#e65100" stroke-width="1.5"/><circle cx="541.9495022643877" cy="102" r="8" fill="none" stroke="#e65100" stroke-width="1.5"/><line x1="533.9495022643877" y1="102" x2="527.5495022643877" y2="96" stroke="#e65100" stroke-width="1.5"/><line x1="533.9495022643877" y1="102" x2="527.5495022643877" y2="108" stroke="#e65100" stroke-width="1.5"/><text x="541.9495022643877" y="142" text-anchor="middle" font-size="11">Nginx2</text><text x="541.9495022643877" y="130" text-anchor="middle" font-size="9" fill="#e65100">lb</text><rect x="732.5665366772221" y="40" width="264.455731861911" height="234.19245142048425" rx="6" fill="#fafafa" stroke="#bbb" stroke-width="1.5" stroke-dasharray="6,4"/><text x="740.5665366772221" y="59.599999999999994" font-weight="bold" font-size="13">App Tier</text><rect x="748.5665366772221" y="80" width="100" height="70" rx="6" fill="#e3f2fd" stroke="#1565c0" stroke-width="1.5"/><rect x="788.966536677222" y="88" width="19.2" height="8" rx="1" fill="none" stroke="#1565c0" stroke-width="1.5"/><rect x="788.966536677222" y="98" width="19.2" height="8" rx="1" fill="none" stroke="#1565c0" stroke-width="1.5"/><rect x="788.966536677222" y="108" width="19.2" height="8" rx="1" fill="none" stroke="#1565c0" stroke-width="1.5"/><text x="798.5665366772221" y="142" text-anchor="middle" font-size="11">App1</text><text x="798.5665366772221" y="130" text-anchor="middle" font-size="9" fill="#1565c0">server</text><rect x="881.022268539133" y="80" width="100" height="70" rx="6" fill="#e3f2fd" stroke="#1565c0" stroke-width="1.5"/><rect x="921.422268539133" y="88" width="19.2" height="8" rx="1" fill="none" stroke="#1565c0" stroke-width="1.5"/><rect x="921.422268539133" y="98" width="19.2" height="8" rx="1" fill="none" stroke="#1565c0" stroke-width="1.5"/><rect x="921.422268539133" y="108" width="19.2" height="8" rx="1" fill="none" stroke="#1565c0" stroke-width="1.5"/><text x="931.022268539133" y="142" text-anchor="middle" font-size="11">App2</text><text x="931.022268539133" y="130" text-anchor="middle" font-size="9" fill="#1565c0">server</text><rect x="748.5665366772221" y="192.19245142048425" width="100" height="70" rx="6" fill="#e3f2fd" stroke="#1565c0" stroke-width="1.5"/><rect x="788.966536677222" y="200.19245142048425" width="19.2" height="8" rx="1" fill="none" stroke="#1565c0" stroke-width="1.5"/><rect x="788.966536677222" y="210.19245142048425" width="19.2" height="8" rx="1" fill="none" stroke="#1565c0" stroke-width="1.5"/><rect x="788.966536677222" y="220.19245142048425" width="19.2" height="8" rx="1" fill="none" stroke="#1565c0" stroke-width="1.5"/><text x="798.5665366772221" y="254.19245142048425" text-anchor="middle" font-size="11">App3</text><text x="798.5665366772221" y="242.19245142048425" text-anchor="middle" font-size="9" fill="#1565c0">server</text><rect x="1119.9637379813107" y="40" width="262.78016689125445" height="122" rx="6" fill="#fafafa" stroke="#bbb" stroke-width="1.5" stroke-dasharray="6,4"/><text x="1127.9637379813107" y="59.599999999999994" font-weight="bold" font-size="13">Data Tier</text><rect x="1135.9637379813107" y="80" width="100" height="70" rx="6" fill="#e8f5e9" stroke="#2e7d32" stroke-width="1.5"/><ellipse cx="1185.9637379813107" cy="94.2" rx="9.6" ry="5" fill="none" stroke="#2e7d32" stroke-width="1.5"/><line x1="1176.3637379813108" y1="94.2" x2="1176.3637379813108" y2="109.8" stroke="#2e7d32" stroke-width="1.5"/><line x1="1195.5637379813106" y1="94.2" x2="1195.5637379813106" y2="109.8" stroke="#2e7d32" stroke-width="1.5"/><ellipse cx="1185.9637379813107" cy="109.8" rx="9.6" ry="5" fill="none" stroke="#2e7d32" stroke-width="1.5"/><text x="1185.9637379813107" y="142" text-anchor="middle" font-size="11">MySQL</text><text x="1185.9637379813107" y="130" text-anchor="middle" font-size="9" fill="#2e7d32">db</text><rect x="1266.743904872565" y="80" width="100" height="70" rx="6" fill="#fce4ec" stroke="#c62828" stroke-width="1.5"/><polyline points="1312.743904872565,92.4 1318.743904872565,100 1314.743904872565,104 1320.743904872565,111.6" fill="none" stroke="#c62828" stroke-width="2"/><text x="1316.743904872565" y="142" text-anchor="middle" font-size="11">Redis</text><text x="1316.743904872565" y="130" text-anchor="middle" font-size="9" fill="#c62828">cache</text><path d="M140,81.22724457076953 L361.16933537313326,108.77275542923047" fill="none" stroke="#666" stroke-width="1.5" marker-end="url(#arrow)"/><path d="M140,89.78970585557761 L275.5846676865666,129.8948529277888 Q411.16933537313326,170 451.5594188187605,153.01382661977584 L491.94950226438766,136.0276532395517" fill="none" stroke="#666" stroke-width="1.5" marker-end="url(#arrow)"/><path d="M461.16933537313326,136.0276532395517 L501.5594188187605,153.01382661977584 Q541.9495022643877,170 645.2580194708048,147.858178981166 L748.5665366772221,125.71635796233198" fill="none" stroke="#666" stroke-width="1.5" marker-end="url(#arrow)"/><path d="M461.16933537313326,136.0276532395517 L501.5594188187605,153.01382661977584 Q541.9495022643877,170 670.2580194708048,115 Q798.5665366772221,60 839.7944026081775,77.1191732839959 L881.022268539133,94.23834656799181" fill="none" stroke="#666" stroke-width="1.5" marker-end="url(#arrow)"/><path d="M591.9495022643877,125.71635796233198 L695.2580194708048,147.858178981166 Q798.5665366772221,170 839.7944026081775,152.8808267160041 L881.022268539133,135.7616534320082" fill="none" stroke="#666" stroke-width="1.5" marker-end="url(#arrow)"/><path d="M591.9495022643877,136.85989945624456 L748.5665366772221,205.33255196423968" fill="none" stroke="#666" stroke-width="1.5" marker-end="url(#arrow)"/><path d="M848.5665366772221,135.7616534320082 L889.7944026081775,152.8808267160041 Q931.022268539133,170 1033.493003260222,147.8933948172832 L1135.9637379813107,125.78678963456636" fill="none" stroke="#666" stroke-width="1.5" marker-end="url(#arrow)"/><path d="M981.022268539133,115 L1135.9637379813107,115" fill="none" stroke="#666" stroke-width="1.5" marker-end="url(#arrow)"/><path d="M848.5665366772221,212.71216464468765 L1135.9637379813107,129.4802867757966" fill="none" stroke="#666" stroke-width="1.5" marker-end="url(#arrow)"/><path d="M848.5665366772221,135.7616534320082 L889.7944026081775,152.8808267160041 Q931.022268539133,170 1058.493003260222,115 Q1185.9637379813107,60 1226.3538214269379,76.98617338022413 L1266.743904872565,93.97234676044827" fill="none" stroke="#666" stroke-width="1.5" marker-end="url(#arrow)"/><path d="M981.022268539133,125.78678963456636 L1083.493003260222,147.8933948172832 Q1185.9637379813107,170 1226.3538214269379,153.01382661977587 L1266.743904872565,136.02765323955174" fill="none" stroke="#666" stroke-width="1.5" marker-end="url(#arrow)"/><path d="M848.5665366772221,205.61350726992416 L1017.2651373292664,132.8067536349621 Q1185.9637379813107,60 1226.3538214269379,76.98617338022413 L1266.743904872565,93.97234676044827" fill="none" stroke="#666" stroke-width="1.5" marker-end="url(#arrow)"/></svg>