<svg xmlns="http://www.w3.org/2000/svg" width="1439.4802765374993" height="300.9901174660981" viewBox="0 0 1439.4802765374993 300.9901174660981"><style>text { font-family: sans-serif; font-size: 12px; fill: #333; }</style><defs><marker id="arrow" viewBox="0 0 10 10" refX="10" refY="5" markerWidth="8" markerHeight="8" orient="auto"><polygon points="0,1 10,5 0,9" fill="#666"/></marker></defs><rect x="40" y="40" width="100" height="70" rx="6" fill="#fafafa" stroke="#616161" stroke-width="1.5"/><circle cx="90" cy="54" r="5" fill="none" stroke="#616161" stroke-width="1.5"/><line x1="90" y1="59" x2="90" y2="68" stroke="#616161" stroke-width="1.5"/><line x1="83" y1="63" x2="97" y2="63" stroke="#616161" stroke-width="1.5"/><text x="90" y="102" text-anchor="middle" font-size="11">Client</text><text x="90" y="90" text-anchor="middle" font-size="9" fill="#616161">user</text><rect x="356.3072817719169" y="40" width="254.4" height="122" rx="6" fill="#fafafa" stroke="#bbb" stroke-width="1.5" stroke-dasharray="6,4"/><text x="364.3072817719169" y="59.599999999999994" font-weight="bold" font-size="13">Web Tier</text><rect x="372.3072817719169" y="80" width="100" height="70" rx="6" fill="#fff3e0" stroke="#e65100" stroke-width="1.5"/><circle cx="422.3072817719169" cy="102" r="8" fill="none" stroke="#e65100" stroke-width="1.5"/><line x1="414.3072817719169" y1="102" x2="407.9072817719169" y2="96" stroke="#e65100" stroke-width="1.5"/><line x1="414.3072817719169" y1="102" x2="407.9072817719169" y2="108" stroke="#e65100" stroke-width="1.5"/><text x="422.3072817719169" y="142" text-anchor="middle" font-size="11">Nginx1</text><text x="422.3072817719169" y="130" text-anchor="middle" font-size="9" fill="#e65100">lb</text><rect x="494.7072817719169" y="80" width="100" height="70" rx="6" fill="#fff3e0" stroke="#e65100" stroke-width="1.5"/><circle cx="544.7072817719169" cy="102" r="8" fill="none" stroke="#e65100" stroke-width="1.5"/><line x1="536.7072817719169" y1="102" x2="530.3072817719169" y2="96" stroke="#e65100" stroke-width="1.5"/><line x1="536.7072817719169" y1="102" x2="530.3072817719169" y2="108" stroke="#e65100" stroke-width="1.5"/><text x="544.7072817719169" y="142" text-anchor="middle" font-size="11">Nginx2</text><text x="544.7072817719169" y="130" text-anchor="middle" font-size="9" fill="#e65100">lb</text><rect x="750.6937791547081" y="40" width="256.15843122174846" height="220.99011746609816" rx="6" fill="#fafafa" stroke="#bbb" stroke-width="1.5" stroke-dasharray="6,4"/><text x="758.6937791547081" y="59.599999999999994" font-weight="bold" font-size="13">App Tier</text><rect x="766.6937791547081" y="80" width="100" height="70" rx="6" fill="#e3f2fd" stroke="#1565c0" stroke-width="1.5"/><rect x="807.093779154708" y="88" width="19.2" height="8" rx="1" fill="none" stroke="#1565c0" stroke-width="1.5"/><rect x="807.093779154708" y="98" width="19.2" height="8" rx="1" fill="none" stroke="#1565c0" stroke-width="1.5"/><rect x="807.093779154708" y="108" width="19.2" height="8" rx="1" fill="none" stroke="#1565c0" stroke-width="1.5"/><text x="816.6937791547081" y="142" text-anchor="middle" font-size="11">App1</text><text x="816.6937791547081" y="130" text-anchor="middle" font-size="9" fill="#1565c0">server</text><rect x="890.8522103764565" y="80" width="100" height="70" rx="6" fill="#e3f2fd" stroke="#1565c0" stroke-width="1.5"/><rect x="931.2522103764564" y="88" width="19.2" height="8" rx="1" fill="none" stroke="#1565c0" stroke-width="1.5"/><rect x="931.2522103764564" y="98" width="19.2" height="8" rx="1" fill="none" stroke="#1565c0" stroke-width="1.5"/><rect x="931.2522103764564" y="108" width="19.2" height="8" rx="1" fill="none" stroke="#1565c0" stroke-width="1.5"/><text x="940.8522103764565" y="142" text-anchor="middle" font-size="11">App2</text><text x="940.8522103764565" y="130" text-anchor="middle" font-size="9" fill="#1565c0">server</text><rect x="766.6937791547081" y="178.99011746609816" width="100" height="70" rx="6" fill="#e3f2fd" stroke="#1565c0" stroke-width="1.5"/><rect x="807.093779154708" y="186.99011746609816" width="19.2" height="8" rx="1" fill="none" stroke="#1565c0" stroke-width="1.5"/><rect x="807.093779154708" y="196.99011746609816" width="19.2" height="8" rx="1" fill="none" stroke="#1565c0" stroke-width="1.5"/><rect x="807.093779154708" y="206.99011746609816" width="19.2" height="8" rx="1" fill="none" stroke="#1565c0" stroke-width="1.5"/><text x="816.6937791547081" y="240.99011746609816" text-anchor="middle" font-size="11">App3</text><text x="816.6937791547081" y="228.99011746609816" text-anchor="middle" font-size="9" fill="#1565c0">server</text><rect x="1145.0802765374992" y="40" width="254.4" height="122" rx="6" fill="#fafafa" stroke="#bbb" stroke-width="1.5" stroke-dasharray="6,4"/><text x="1153.0802765374992" y="59.599999999999994" font-weight="bold" font-size="13">Data Tier</text><rect x="1161.0802765374992" y="80" width="100" height="70" rx="6" fill="#e8f5e9" stroke="#2e7d32" stroke-width="1.5"/><ellipse cx="1211.0802765374992" cy="94.2" rx="9.6" ry="5" fill="none" stroke="#2e7d32" stroke-width="1.5"/><line x1="1201.4802765374993" y1="94.2" x2="1201.4802765374993" y2="109.8" stroke="#2e7d32" stroke-width="1.5"/><line x1="1220.6802765374991" y1="94.2" x2="1220.6802765374991" y2="109.8" stroke="#2e7d32" stroke-width="1.5"/><ellipse cx="1211.0802765374992" cy="109.8" rx="9.6" ry="5" fill="none" stroke="#2e7d32" stroke-width="1.5"/><text x="1211.0802765374992" y="142" text-anchor="middle" font-size="11">MySQL</text><text x="1211.0802765374992" y="130" text-anchor="middle" font-size="9" fill="#2e7d32">db</text><rect x="1283.4802765374993" y="80" width="100" height="70" rx="6" fill="#fce4ec" stroke="#c62828" stroke-width="1.5"/><polyline points="1329.4802765374993,92.4 1335.4802765374993,100 1331.4802765374993,104 1337.4802765374993,111.6" fill="none" stroke="#c62828" stroke-width="2"/><text x="1333.4802765374993" y="142" text-anchor="middle" font-size="11">Redis</text><text x="1333.4802765374993" y="130" text-anchor="middle" font-size="9" fill="#c62828">cache</text><path d="M140,81.01852595385714 L372.3072817719169,108.98147404614286" fill="none" stroke="#666" stroke-width="1.5" marker-end="url(#arrow)"/><path d="M140,89.2939991404107 L281.15364088595845,129.64699957020537 Q422.3072817719169,170 458.5072817719169,153.73366013071896 L494.7072817719169,137.46732026143792" fill="none" stroke="#666" stroke-width="1.5" marker-end="url(#arrow)"/><path d="M472.3072817719169,137.46732026143792 L508.5072817719169,153.73366013071896 Q544.7072817719169,170 655.7005304633125,147.55539801876574 L766.6937791547081,125.11079603753151" fill="none" stroke="#666" stroke-width="1.5" marker-end="url(#arrow)"/><path d="M472.3072817719169,137.46732026143792 L508.5072817719169,153.73366013071896 Q544.7072817719169,170 680.7005304633125,115 Q816.6937791547081,60 853.7729947655823,76.42543996835596 L890.8522103764565,92.85087993671192" fill="none" stroke="#666" stroke-width="1.5" marker-end="url(#arrow)"/><path d="M594.7072817719169,125.11079603753151 L705.7005304633125,147.55539801876574 Q816.6937791547081,170 853.7729947655823,153.57456003164404 L890.8522103764565,137.14912006328808" fill="none" stroke="#666" stroke-width="1.5" marker-end="url(#arrow)"/><path d="M594.7072817719169,133.19761613510917 L766.6937791547081,195.79250133098898" fill="none" stroke="#666" stroke-width="1.5" marker-end="url(#arrow)"/><path d="M866.6937791547081,137.14912006328808 L903.7729947655823,153.57456003164404 Q940.8522103764565,170 1050.9662434569777,147.58829456367633 L1161.0802765374992,125.17658912735266" fill="none" stroke="#666" stroke-width="1.5" marker-end="url(#arrow)"/><path d="M990.8522103764565,115 L1161.0802765374992,115" fill="none" stroke="#666" stroke-width="1.5" marker-end="url(#arrow)"/><path d="M866.6937791547081,201.4402307277068 L1161.0802765374992,127.54988673839135" fill="none" stroke="#666" stroke-width="1.5" marker-end="url(#arrow)"/><path d="M866.6937791547081,137.14912006328808 L903.7729947655823,153.57456003164404 Q940.8522103764565,170 1075.9662434569777,115 Q1211.0802765374992,60 1247.2802765374993,76.26633986928105 L1283.4802765374993,92.53267973856211" fill="none" stroke="#666" stroke-width="1.5" marker-end="url(#arrow)"/><path d="M990.8522103764565,125.17658912735266 L1100.9662434569777,147.58829456367633 Q1211.0802765374992,170 1247.2802765374993,153.73366013071893 L1283.4802765374993,137.4673202614379" fill="none" stroke="#666" stroke-width="1.5" marker-end="url(#arrow)"/><path d="M866.6937791547081,194.46737537325268 L1038.8870278461036,127.23368768662634 Q1211.0802765374992,60 1247.2802765374993,76.26633986928105 L1283.4802765374993,92.53267973856211" fill="none" stroke="#666" stroke-width="1.5" marker-end="url(#arrow)"/></svg>