<svg xmlns="http://www.w3.org/2000/svg" width="820" height="622" viewBox="0 0 820 622"><style>text { font-family: sans-serif; font-size: 13px; fill: #333; }</style><defs><marker id="arrow-solid" viewBox="0 0 10 10" refX="10" refY="5" markerWidth="8" markerHeight="8" orient="auto"><polygon points="0,1 10,5 0,9" fill="#555"/></marker><marker id="arrow-open" viewBox="0 0 10 10" refX="10" refY="5" markerWidth="8" markerHeight="8" orient="auto"><polyline points="0,1 10,5 0,9" fill="none" stroke="#555" stroke-width="1.5"/></marker></defs><line x1="70" y1="66" x2="70" y2="556" stroke="#999" stroke-width="1" stroke-dasharray="5,5"/><line x1="386" y1="66" x2="386" y2="556" stroke="#999" stroke-width="1" stroke-dasharray="5,5"/><line x1="750" y1="66" x2="750" y2="556" stroke="#999" stroke-width="1" stroke-dasharray="5,5"/><rect x="30" y="30" width="80" height="36" rx="4" fill="#e3f2fd" stroke="#1976d2" stroke-width="1.5"/><text x="70" y="54.3" text-anchor="middle" font-weight="bold">Client</text><rect x="346" y="30" width="80" height="36" rx="4" fill="#e3f2fd" stroke="#1976d2" stroke-width="1.5"/><text x="386" y="54.3" text-anchor="middle" font-weight="bold">Server</text><rect x="710" y="30" width="80" height="36" rx="4" fill="#e3f2fd" stroke="#1976d2" stroke-width="1.5"/><text x="750" y="54.3" text-anchor="middle" font-weight="bold">DB</text><rect x="30" y="556" width="80" height="36" rx="4" fill="#e3f2fd" stroke="#1976d2" stroke-width="1.5"/><text x="70" y="580.3" text-anchor="middle" font-weight="bold">Client</text><rect x="346" y="556" width="80" height="36" rx="4" fill="#e3f2fd" stroke="#1976d2" stroke-width="1.5"/><text x="386" y="580.3" text-anchor="middle" font-weight="bold">Server</text><rect x="710" y="556" width="80" height="36" rx="4" fill="#e3f2fd" stroke="#1976d2" stroke-width="1.5"/><text x="750" y="580.3" text-anchor="middle" font-weight="bold">DB</text><line x1="70" y1="106" x2="386" y2="106" stroke="#555" stroke-width="1.5" marker-end="url(#arrow-solid)"/><rect x="180" y="88" width="96" height="16" rx="3" fill="white" opacity="0.9"/><text x="228" y="100" text-anchor="middle" font-size="11" fill="#555">POST /login</text><line x1="386" y1="146" x2="750" y2="146" stroke="#555" stroke-width="1.5" marker-end="url(#arrow-solid)"/><rect x="432" y="128" width="272" height="16" rx="3" fill="white" opacity="0.9"/><text x="568" y="140" text-anchor="middle" font-size="11" fill="#555">SELECT * FROM users WHERE email=?</text><line x1="750" y1="186" x2="386" y2="186" stroke="#555" stroke-width="1.5" stroke-dasharray="6,4" marker-end="url(#arrow-open)"/><rect x="522" y="168" width="92" height="16" rx="3" fill="white" opacity="0.9"/><text x="568" y="180" text-anchor="middle" font-size="11" fill="#555">ユーザー情報</text><polyline points="386,226 416,226 416,251 386,251" fill="none" stroke="#555" stroke-width="1.5" marker-end="url(#arrow-solid)"/><text x="422" y="242.5" font-size="11" fill="#555">パスワード検証</text><line x1="386" y1="291" x2="70" y2="291" stroke="#555" stroke-width="1.5" stroke-dasharray="6,4" marker-end="url(#arrow-open)"/><rect x="176" y="273" width="104" height="16" rx="3" fill="white" opacity="0.9"/><text x="228" y="285" text-anchor="middle" font-size="11" fill="#555">200 OK + JWT</text><line x1="70" y1="331" x2="386" y2="331" stroke="#555" stroke-width="1.5" marker-end="url(#arrow-solid)"/><rect x="116" y="313" width="224" height="16" rx="3" fill="white" opacity="0.9"/><text x="228" y="325" text-anchor="middle" font-size="11" fill="#555">GET /profile (Bearer token)</text><polyline points="386,371 416,371 416,396 386,396" fill="none" stroke="#555" stroke-width="1.5" marker-end="url(#arrow-solid)"/><text x="422" y="387.5" font-size="11" fill="#555">トークン検証</text><line x1="386" y1="436" x2="750" y2="436" stroke="#555" stroke-width="1.5" marker-end="url(#arrow-solid)"/><rect x="444" y="418" width="248" height="16" rx="3" fill="white" opacity="0.9"/><text x="568" y="430" text-anchor="middle" font-size="11" fill="#555">SELECT * FROM users WHERE id=?</text><line x1="750" y1="476" x2="386" y2="476" stroke="#555" stroke-width="1.5" stroke-dasharray="6,4" marker-end="url(#arrow-open)"/><rect x="522" y="458" width="92" height="16" rx="3" fill="white" opacity="0.9"/><text x="568" y="470" text-anchor="middle" font-size="11" fill="#555">プロフィール</text><line x1="386" y1="516" x2="70" y2="516" stroke="#555" stroke-width="1.5" stroke-dasharray="6,4" marker-end="url(#arrow-open)"/><rect x="200" y="498" width="56" height="16" rx="3" fill="white" opacity="0.9"/><text x="228" y="510" text-anchor="middle" font-size="11" fill="#555">200 OK</text></svg>