<svg xmlns="http://www.w3.org/2000/svg" width="1282" height="972" viewBox="0 0 1282 972"><style>text { font-family: sans-serif; font-size: 13px; fill: #333; }</style><defs><marker id="arrow-solid" viewBox="0 0 10 10" refX="10" refY="5" markerWidth="8" markerHeight="8" orient="auto"><polygon points="0,1 10,5 0,9" fill="#555"/></marker><marker id="arrow-open" viewBox="0 0 10 10" refX="10" refY="5" markerWidth="8" markerHeight="8" orient="auto"><polyline points="0,1 10,5 0,9" fill="none" stroke="#555" stroke-width="1.5"/></marker></defs><line x1="74" y1="66" x2="74" y2="906" stroke="#999" stroke-width="1" stroke-dasharray="5,5"/><line x1="298" y1="66" x2="298" y2="906" stroke="#999" stroke-width="1" stroke-dasharray="5,5"/><line x1="482" y1="66" x2="482" y2="906" stroke="#999" stroke-width="1" stroke-dasharray="5,5"/><line x1="646" y1="66" x2="646" y2="906" stroke="#999" stroke-width="1" stroke-dasharray="5,5"/><line x1="900" y1="66" x2="900" y2="906" stroke="#999" stroke-width="1" stroke-dasharray="5,5"/><line x1="1072" y1="66" x2="1072" y2="906" stroke="#999" stroke-width="1" stroke-dasharray="5,5"/><line x1="1212" y1="66" x2="1212" y2="906" stroke="#999" stroke-width="1" stroke-dasharray="5,5"/><rect x="30" y="30" width="88" height="36" rx="4" fill="#e3f2fd" stroke="#1976d2" stroke-width="1.5"/><text x="74" y="54.3" text-anchor="middle" font-weight="bold">Browser</text><rect x="258" y="30" width="80" height="36" rx="4" fill="#e3f2fd" stroke="#1976d2" stroke-width="1.5"/><text x="298" y="54.3" text-anchor="middle" font-weight="bold">API</text><rect x="442" y="30" width="80" height="36" rx="4" fill="#e3f2fd" stroke="#1976d2" stroke-width="1.5"/><text x="482" y="54.3" text-anchor="middle" font-weight="bold">Auth</text><rect x="582" y="30" width="128" height="36" rx="4" fill="#e3f2fd" stroke="#1976d2" stroke-width="1.5"/><text x="646" y="54.3" text-anchor="middle" font-weight="bold">OrderService</text><rect x="828" y="30" width="144" height="36" rx="4" fill="#e3f2fd" stroke="#1976d2" stroke-width="1.5"/><text x="900" y="54.3" text-anchor="middle" font-weight="bold">PaymentGateway</text><rect x="1032" y="30" width="80" height="36" rx="4" fill="#e3f2fd" stroke="#1976d2" stroke-width="1.5"/><text x="1072" y="54.3" text-anchor="middle" font-weight="bold">DB</text><rect x="1172" y="30" width="80" height="36" rx="4" fill="#e3f2fd" stroke="#1976d2" stroke-width="1.5"/><text x="1212" y="54.3" text-anchor="middle" font-weight="bold">Queue</text><rect x="30" y="906" width="88" height="36" rx="4" fill="#e3f2fd" stroke="#1976d2" stroke-width="1.5"/><text x="74" y="930.3" text-anchor="middle" font-weight="bold">Browser</text><rect x="258" y="906" width="80" height="36" rx="4" fill="#e3f2fd" stroke="#1976d2" stroke-width="1.5"/><text x="298" y="930.3" text-anchor="middle" font-weight="bold">API</text><rect x="442" y="906" width="80" height="36" rx="4" fill="#e3f2fd" stroke="#1976d2" stroke-width="1.5"/><text x="482" y="930.3" text-anchor="middle" font-weight="bold">Auth</text><rect x="582" y="906" width="128" height="36" rx="4" fill="#e3f2fd" stroke="#1976d2" stroke-width="1.5"/><text x="646" y="930.3" text-anchor="middle" font-weight="bold">OrderService</text><rect x="828" y="906" width="144" height="36" rx="4" fill="#e3f2fd" stroke="#1976d2" stroke-width="1.5"/><text x="900" y="930.3" text-anchor="middle" font-weight="bold">PaymentGateway</text><rect x="1032" y="906" width="80" height="36" rx="4" fill="#e3f2fd" stroke="#1976d2" stroke-width="1.5"/><text x="1072" y="930.3" text-anchor="middle" font-weight="bold">DB</text><rect x="1172" y="906" width="80" height="36" rx="4" fill="#e3f2fd" stroke="#1976d2" stroke-width="1.5"/><text x="1212" y="930.3" text-anchor="middle" font-weight="bold">Queue</text><line x1="74" y1="106" x2="298" y2="106" stroke="#555" stroke-width="1.5" marker-end="url(#arrow-solid)"/><rect x="134" y="88" width="104" height="16" rx="3" fill="white" opacity="0.9"/><text x="186" y="100" text-anchor="middle" font-size="11" fill="#555">POST /orders</text><line x1="298" y1="146" x2="482" y2="146" stroke="#555" stroke-width="1.5" marker-end="url(#arrow-solid)"/><rect x="344" y="128" width="92" height="16" rx="3" fill="white" opacity="0.9"/><text x="390" y="140" text-anchor="middle" font-size="11" fill="#555">トークン検証</text><line x1="482" y1="186" x2="298" y2="186" stroke="#555" stroke-width="1.5" stroke-dasharray="6,4" marker-end="url(#arrow-open)"/><rect x="364" y="168" width="52" height="16" rx="3" fill="white" opacity="0.9"/><text x="390" y="180" text-anchor="middle" font-size="11" fill="#555">認証OK</text><line x1="298" y1="226" x2="646" y2="226" stroke="#555" stroke-width="1.5" marker-end="url(#arrow-solid)"/><rect x="440" y="208" width="64" height="16" rx="3" fill="white" opacity="0.9"/><text x="472" y="220" text-anchor="middle" font-size="11" fill="#555">注文作成</text><line x1="646" y1="266" x2="1072" y2="266" stroke="#555" stroke-width="1.5" marker-end="url(#arrow-solid)"/><rect x="807" y="248" width="104" height="16" rx="3" fill="white" opacity="0.9"/><text x="859" y="260" text-anchor="middle" font-size="11" fill="#555">INSERT order</text><line x1="1072" y1="306" x2="646" y2="306" stroke="#555" stroke-width="1.5" stroke-dasharray="6,4" marker-end="url(#arrow-open)"/><rect x="823" y="288" width="72" height="16" rx="3" fill="white" opacity="0.9"/><text x="859" y="300" text-anchor="middle" font-size="11" fill="#555">order_id</text><line x1="646" y1="346" x2="900" y2="346" stroke="#555" stroke-width="1.5" marker-end="url(#arrow-solid)"/><rect x="720" y="328" width="106" height="16" rx="3" fill="white" opacity="0.9"/><text x="773" y="340" text-anchor="middle" font-size="11" fill="#555">決済リクエスト</text><line x1="900" y1="386" x2="646" y2="386" stroke="#555" stroke-width="1.5" stroke-dasharray="6,4" marker-end="url(#arrow-open)"/><rect x="741" y="368" width="64" height="16" rx="3" fill="white" opacity="0.9"/><text x="773" y="380" text-anchor="middle" font-size="11" fill="#555">決済承認</text><line x1="646" y1="426" x2="1072" y2="426" stroke="#555" stroke-width="1.5" marker-end="url(#arrow-solid)"/><rect x="743" y="408" width="232" height="16" rx="3" fill="white" opacity="0.9"/><text x="859" y="420" text-anchor="middle" font-size="11" fill="#555">UPDATE order SET status=paid</text><line x1="1072" y1="466" x2="646" y2="466" stroke="#555" stroke-width="1.5" stroke-dasharray="6,4" marker-end="url(#arrow-open)"/><rect x="847" y="448" width="24" height="16" rx="3" fill="white" opacity="0.9"/><text x="859" y="460" text-anchor="middle" font-size="11" fill="#555">OK</text><line x1="646" y1="506" x2="1212" y2="506" stroke="#555" stroke-width="1.5" marker-end="url(#arrow-solid)"/><rect x="869" y="488" width="120" height="16" rx="3" fill="white" opacity="0.9"/><text x="929" y="500" text-anchor="middle" font-size="11" fill="#555">出荷イベント発行</text><line x1="1212" y1="546" x2="646" y2="546" stroke="#555" stroke-width="1.5" stroke-dasharray="6,4" marker-end="url(#arrow-open)"/><rect x="913" y="528" width="32" height="16" rx="3" fill="white" opacity="0.9"/><text x="929" y="540" text-anchor="middle" font-size="11" fill="#555">ACK</text><line x1="646" y1="586" x2="298" y2="586" stroke="#555" stroke-width="1.5" stroke-dasharray="6,4" marker-end="url(#arrow-open)"/><rect x="440" y="568" width="64" height="16" rx="3" fill="white" opacity="0.9"/><text x="472" y="580" text-anchor="middle" font-size="11" fill="#555">注文完了</text><line x1="298" y1="626" x2="74" y2="626" stroke="#555" stroke-width="1.5" stroke-dasharray="6,4" marker-end="url(#arrow-open)"/><rect x="138" y="608" width="96" height="16" rx="3" fill="white" opacity="0.9"/><text x="186" y="620" text-anchor="middle" font-size="11" fill="#555">201 Created</text><line x1="74" y1="666" x2="298" y2="666" stroke="#555" stroke-width="1.5" marker-end="url(#arrow-solid)"/><rect x="122" y="648" width="128" height="16" rx="3" fill="white" opacity="0.9"/><text x="186" y="660" text-anchor="middle" font-size="11" fill="#555">GET /orders/123</text><line x1="298" y1="706" x2="482" y2="706" stroke="#555" stroke-width="1.5" marker-end="url(#arrow-solid)"/><rect x="344" y="688" width="92" height="16" rx="3" fill="white" opacity="0.9"/><text x="390" y="700" text-anchor="middle" font-size="11" fill="#555">トークン検証</text><line x1="482" y1="746" x2="298" y2="746" stroke="#555" stroke-width="1.5" stroke-dasharray="6,4" marker-end="url(#arrow-open)"/><rect x="364" y="728" width="52" height="16" rx="3" fill="white" opacity="0.9"/><text x="390" y="740" text-anchor="middle" font-size="11" fill="#555">認証OK</text><line x1="298" y1="786" x2="1072" y2="786" stroke="#555" stroke-width="1.5" marker-end="url(#arrow-solid)"/><rect x="633" y="768" width="104" height="16" rx="3" fill="white" opacity="0.9"/><text x="685" y="780" text-anchor="middle" font-size="11" fill="#555">SELECT order</text><line x1="1072" y1="826" x2="298" y2="826" stroke="#555" stroke-width="1.5" stroke-dasharray="6,4" marker-end="url(#arrow-open)"/><rect x="653" y="808" width="64" height="16" rx="3" fill="white" opacity="0.9"/><text x="685" y="820" text-anchor="middle" font-size="11" fill="#555">注文詳細</text><line x1="298" y1="866" x2="74" y2="866" stroke="#555" stroke-width="1.5" stroke-dasharray="6,4" marker-end="url(#arrow-open)"/><rect x="158" y="848" width="56" height="16" rx="3" fill="white" opacity="0.9"/><text x="186" y="860" text-anchor="middle" font-size="11" fill="#555">200 OK</text></svg>