<svg xmlns="http://www.w3.org/2000/svg" width="304" height="252" viewBox="0 0 304 252"><style>text { font-family: sans-serif; font-size: 13px; fill: #333; }</style><defs><marker id="arrow-solid" viewBox="0 0 10 10" refX="10" refY="5" markerWidth="8" markerHeight="8" orient="auto"><polygon points="0,1 10,5 0,9" fill="#555"/></marker><marker id="arrow-open" viewBox="0 0 10 10" refX="10" refY="5" markerWidth="8" markerHeight="8" orient="auto"><polyline points="0,1 10,5 0,9" fill="none" stroke="#555" stroke-width="1.5"/></marker></defs><line x1="70" y1="66" x2="70" y2="186" stroke="#999" stroke-width="1" stroke-dasharray="5,5"/><line x1="234" y1="66" x2="234" y2="186" stroke="#999" stroke-width="1" stroke-dasharray="5,5"/><rect x="30" y="30" width="80" height="36" rx="4" fill="#e3f2fd" stroke="#1976d2" stroke-width="1.5"/><text x="70" y="54.3" text-anchor="middle" font-weight="bold">Alice</text><rect x="194" y="30" width="80" height="36" rx="4" fill="#e3f2fd" stroke="#1976d2" stroke-width="1.5"/><text x="234" y="54.3" text-anchor="middle" font-weight="bold">Bob</text><rect x="30" y="186" width="80" height="36" rx="4" fill="#e3f2fd" stroke="#1976d2" stroke-width="1.5"/><text x="70" y="210.3" text-anchor="middle" font-weight="bold">Alice</text><rect x="194" y="186" width="80" height="36" rx="4" fill="#e3f2fd" stroke="#1976d2" stroke-width="1.5"/><text x="234" y="210.3" text-anchor="middle" font-weight="bold">Bob</text><line x1="70" y1="106" x2="234" y2="106" stroke="#555" stroke-width="1.5" marker-end="url(#arrow-solid)"/><rect x="128" y="88" width="48" height="16" rx="3" fill="white" opacity="0.9"/><text x="152" y="100" text-anchor="middle" font-size="11" fill="#555">Hello</text><line x1="234" y1="146" x2="70" y2="146" stroke="#555" stroke-width="1.5" stroke-dasharray="6,4" marker-end="url(#arrow-open)"/><rect x="116" y="128" width="72" height="16" rx="3" fill="white" opacity="0.9"/><text x="152" y="140" text-anchor="middle" font-size="11" fill="#555">Hi there</text></svg>