<svg xmlns="http://www.w3.org/2000/svg" width="298" height="244" viewBox="0 0 298 244"><rect width="100%" height="100%" fill="white"/><style>text { font-family: sans-serif; font-size: 13px; fill: #333; }</style><rect x="24" y="24" width="250" height="36" rx="6" fill="#fafafa" stroke="#e8e8e8" stroke-width="1"/><rect x="38" y="34" width="16" height="16" rx="3" fill="#e8f5e9" stroke="#2e7d32" stroke-width="1.5"/><polyline points="42,42 45,45.5 50.5,38.5" fill="none" stroke="#2e7d32" stroke-width="2" stroke-linecap="round" stroke-linejoin="round"/><text x="64" y="46.55" fill="#999">要件定義</text><line x1="64" y1="42" x2="120" y2="42" stroke="#bbb" stroke-width="1"/><rect x="24" y="64" width="250" height="36" rx="6" fill="#fafafa" stroke="#e8e8e8" stroke-width="1"/><rect x="38" y="74" width="16" height="16" rx="3" fill="#e8f5e9" stroke="#2e7d32" stroke-width="1.5"/><polyline points="42,82 45,85.5 50.5,78.5" fill="none" stroke="#2e7d32" stroke-width="2" stroke-linecap="round" stroke-linejoin="round"/><text x="64" y="86.55" fill="#999">設計</text><line x1="64" y1="82" x2="92" y2="82" stroke="#bbb" stroke-width="1"/><rect x="24" y="104" width="250" height="36" rx="6" fill="#fff" stroke="#e8e8e8" stroke-width="1"/><rect x="38" y="114" width="16" height="16" rx="3" fill="#fff" stroke="#ccc" stroke-width="1.5"/><text x="64" y="126.55" fill="#333">実装</text><rect x="24" y="144" width="250" height="36" rx="6" fill="#fff" stroke="#e8e8e8" stroke-width="1"/><rect x="38" y="154" width="16" height="16" rx="3" fill="#fff" stroke="#ccc" stroke-width="1.5"/><text x="64" y="166.55" fill="#333">テスト</text><rect x="24" y="184" width="250" height="36" rx="6" fill="#fff" stroke="#e8e8e8" stroke-width="1"/><rect x="38" y="194" width="16" height="16" rx="3" fill="#fff" stroke="#ccc" stroke-width="1.5"/><text x="64" y="206.55" fill="#333">デプロイ</text></svg>