<svg xmlns="http://www.w3.org/2000/svg" width="298" height="355" viewBox="0 0 298 355"><rect width="100%" height="100%" fill="white"/><style>text { font-family: sans-serif; font-size: 13px; fill: #333; }</style><text x="24" y="42" font-size="16" font-weight="bold">Sprint 1 タスク</text><rect x="24" y="60" width="250" height="66" rx="6" fill="#fafafa" stroke="#e8e8e8" stroke-width="1"/><rect x="38" y="70" width="16" height="16" rx="3" fill="#e8f5e9" stroke="#2e7d32" stroke-width="1.5"/><polyline points="42,78 45,81.5 50.5,74.5" fill="none" stroke="#2e7d32" stroke-width="2" stroke-linecap="round" stroke-linejoin="round"/><text x="64" y="82.55" fill="#999">ユーザー認証API</text><line x1="64" y1="78" x2="172" y2="78" stroke="#bbb" stroke-width="1"/><text x="64" y="101.5" font-size="11" fill="#999">JWT トークン発行</text><text x="64" y="116.5" font-size="11" fill="#999">リフレッシュトークン対応</text><rect x="24" y="130" width="250" height="51" rx="6" fill="#fafafa" stroke="#e8e8e8" stroke-width="1"/><rect x="38" y="140" width="16" height="16" rx="3" fill="#e8f5e9" stroke="#2e7d32" stroke-width="1.5"/><polyline points="42,148 45,151.5 50.5,144.5" fill="none" stroke="#2e7d32" stroke-width="2" stroke-linecap="round" stroke-linejoin="round"/><text x="64" y="152.55" fill="#999">ログイン画面</text><line x1="64" y1="148" x2="148" y2="148" stroke="#bbb" stroke-width="1"/><text x="64" y="171.5" font-size="11" fill="#999">メール・パスワード認証</text><rect x="24" y="185" width="250" height="66" rx="6" fill="#fff" stroke="#e8e8e8" stroke-width="1"/><rect x="38" y="195" width="16" height="16" rx="3" fill="#fff" stroke="#ccc" stroke-width="1.5"/><text x="64" y="207.55" fill="#333">パスワードリセット</text><text x="64" y="226.5" font-size="11" fill="#888">メール送信機能</text><text x="64" y="241.5" font-size="11" fill="#888">トークン有効期限管理</text><rect x="24" y="255" width="250" height="36" rx="6" fill="#fff" stroke="#e8e8e8" stroke-width="1"/><rect x="38" y="265" width="16" height="16" rx="3" fill="#fff" stroke="#ccc" stroke-width="1.5"/><text x="64" y="277.55" fill="#333">ユーザープロフィール</text><rect x="24" y="295" width="250" height="36" rx="6" fill="#fff" stroke="#e8e8e8" stroke-width="1"/><rect x="38" y="305" width="16" height="16" rx="3" fill="#fff" stroke="#ccc" stroke-width="1.5"/><text x="64" y="317.55" fill="#333">管理画面</text></svg>