<svg xmlns="http://www.w3.org/2000/svg" width="482.9230769230769" height="646" viewBox="0 0 482.9230769230769 646"><rect width="100%" height="100%" fill="white"/><style>text { font-family: sans-serif; font-size: 13px; fill: #333; }</style><text x="24" y="41.9" font-size="14" fill="#1565c0" font-weight="bold">ダッシュボード</text><line x1="128" y1="37" x2="354" y2="37" stroke="#ccc" stroke-width="0.5" stroke-dasharray="2,2"/><text x="360" y="40.85" font-size="11" fill="#888">トップページ</text><line x1="36" y1="50" x2="36" y2="76" stroke="#ccc" stroke-width="1"/><line x1="36" y1="50" x2="36" y2="76" stroke="#ccc" stroke-width="1"/><line x1="36" y1="63" x2="48" y2="63" stroke="#ccc" stroke-width="1"/><text x="52" y="67.55" font-size="13" fill="#333">売上サマリー表示</text><line x1="36" y1="76" x2="36" y2="102" stroke="#ccc" stroke-width="1"/><line x1="60" y1="76" x2="60" y2="102" stroke="#ccc" stroke-width="1"/><line x1="60" y1="76" x2="60" y2="102" stroke="#ccc" stroke-width="1"/><line x1="60" y1="89" x2="72" y2="89" stroke="#ccc" stroke-width="1"/><text x="76" y="93.55" font-size="13" fill="#555">GET /api/sales/summary</text><line x1="258" y1="89" x2="354" y2="89" stroke="#ccc" stroke-width="0.5" stroke-dasharray="2,2"/><text x="360" y="92.85" font-size="11" fill="#888">日次・月次集計</text><line x1="36" y1="102" x2="36" y2="128" stroke="#ccc" stroke-width="1"/><line x1="60" y1="102" x2="60" y2="128" stroke="#ccc" stroke-width="1"/><line x1="60" y1="102" x2="60" y2="115" stroke="#ccc" stroke-width="1"/><line x1="60" y1="115" x2="72" y2="115" stroke="#ccc" stroke-width="1"/><text x="76" y="119.55" font-size="13" fill="#555">GET /api/sales/monthly</text><line x1="258" y1="115" x2="354" y2="115" stroke="#ccc" stroke-width="0.5" stroke-dasharray="2,2"/><text x="360" y="118.85" font-size="11" fill="#888">月別推移</text><line x1="36" y1="128" x2="36" y2="154" stroke="#ccc" stroke-width="1"/><line x1="36" y1="128" x2="36" y2="141" stroke="#ccc" stroke-width="1"/><line x1="36" y1="141" x2="48" y2="141" stroke="#ccc" stroke-width="1"/><text x="52" y="145.55" font-size="13" fill="#333">お知らせ一覧</text><line x1="36" y1="154" x2="36" y2="180" stroke="#ccc" stroke-width="1"/><line x1="60" y1="154" x2="60" y2="180" stroke="#ccc" stroke-width="1"/><line x1="60" y1="167" x2="72" y2="167" stroke="#ccc" stroke-width="1"/><text x="76" y="171.55" font-size="13" fill="#555">GET /api/notifications</text><line x1="258" y1="167" x2="354" y2="167" stroke="#ccc" stroke-width="0.5" stroke-dasharray="2,2"/><text x="360" y="170.85" font-size="11" fill="#888">通知一覧取得</text><line x1="36" y1="180" x2="36" y2="206" stroke="#ccc" stroke-width="1"/><line x1="60" y1="180" x2="60" y2="193" stroke="#ccc" stroke-width="1"/><line x1="60" y1="193" x2="72" y2="193" stroke="#ccc" stroke-width="1"/><text x="76" y="197.55" font-size="13" fill="#555">PUT /api/notifications/:id/read</text><line x1="330" y1="193" x2="354" y2="193" stroke="#ccc" stroke-width="0.5" stroke-dasharray="2,2"/><text x="360" y="196.85" font-size="11" fill="#888">既読更新</text><text x="24" y="223.9" font-size="14" fill="#1565c0" font-weight="bold">ユーザー管理</text><line x1="36" y1="232" x2="36" y2="258" stroke="#ccc" stroke-width="1"/><line x1="36" y1="232" x2="36" y2="258" stroke="#ccc" stroke-width="1"/><line x1="36" y1="245" x2="48" y2="245" stroke="#ccc" stroke-width="1"/><text x="52" y="249.55" font-size="13" fill="#333">ユーザー検索</text><line x1="36" y1="258" x2="36" y2="284" stroke="#ccc" stroke-width="1"/><line x1="60" y1="258" x2="60" y2="284" stroke="#ccc" stroke-width="1"/><line x1="60" y1="258" x2="60" y2="271" stroke="#ccc" stroke-width="1"/><line x1="60" y1="271" x2="72" y2="271" stroke="#ccc" stroke-width="1"/><text x="76" y="275.55" font-size="13" fill="#555">GET /api/users</text><line x1="194" y1="271" x2="354" y2="271" stroke="#ccc" stroke-width="0.5" stroke-dasharray="2,2"/><text x="360" y="274.85" font-size="11" fill="#888">一覧取得</text><line x1="36" y1="284" x2="36" y2="310" stroke="#ccc" stroke-width="1"/><line x1="36" y1="284" x2="36" y2="310" stroke="#ccc" stroke-width="1"/><line x1="36" y1="297" x2="48" y2="297" stroke="#ccc" stroke-width="1"/><text x="52" y="301.55" font-size="13" fill="#333">ユーザー編集</text><line x1="36" y1="310" x2="36" y2="336" stroke="#ccc" stroke-width="1"/><line x1="60" y1="310" x2="60" y2="336" stroke="#ccc" stroke-width="1"/><line x1="60" y1="310" x2="60" y2="336" stroke="#ccc" stroke-width="1"/><line x1="60" y1="323" x2="72" y2="323" stroke="#ccc" stroke-width="1"/><text x="76" y="327.55" font-size="13" fill="#555">GET /api/users/:id</text><line x1="226" y1="323" x2="354" y2="323" stroke="#ccc" stroke-width="0.5" stroke-dasharray="2,2"/><text x="360" y="326.85" font-size="11" fill="#888">詳細取得</text><line x1="36" y1="336" x2="36" y2="362" stroke="#ccc" stroke-width="1"/><line x1="60" y1="336" x2="60" y2="362" stroke="#ccc" stroke-width="1"/><line x1="60" y1="336" x2="60" y2="362" stroke="#ccc" stroke-width="1"/><line x1="60" y1="349" x2="72" y2="349" stroke="#ccc" stroke-width="1"/><text x="76" y="353.55" font-size="13" fill="#555">PUT /api/users/:id</text><line x1="226" y1="349" x2="354" y2="349" stroke="#ccc" stroke-width="0.5" stroke-dasharray="2,2"/><text x="360" y="352.85" font-size="11" fill="#888">更新</text><line x1="36" y1="362" x2="36" y2="388" stroke="#ccc" stroke-width="1"/><line x1="60" y1="362" x2="60" y2="388" stroke="#ccc" stroke-width="1"/><line x1="60" y1="362" x2="60" y2="375" stroke="#ccc" stroke-width="1"/><line x1="60" y1="375" x2="72" y2="375" stroke="#ccc" stroke-width="1"/><text x="76" y="379.55" font-size="13" fill="#555">DELETE /api/users/:id</text><line x1="250" y1="375" x2="354" y2="375" stroke="#ccc" stroke-width="0.5" stroke-dasharray="2,2"/><text x="360" y="378.85" font-size="11" fill="#888">削除</text><line x1="36" y1="388" x2="36" y2="414" stroke="#ccc" stroke-width="1"/><line x1="36" y1="388" x2="36" y2="401" stroke="#ccc" stroke-width="1"/><line x1="36" y1="401" x2="48" y2="401" stroke="#ccc" stroke-width="1"/><text x="52" y="405.55" font-size="13" fill="#333">ユーザー登録</text><line x1="36" y1="414" x2="36" y2="440" stroke="#ccc" stroke-width="1"/><line x1="60" y1="414" x2="60" y2="427" stroke="#ccc" stroke-width="1"/><line x1="60" y1="427" x2="72" y2="427" stroke="#ccc" stroke-width="1"/><text x="76" y="431.55" font-size="13" fill="#555">POST /api/users</text><line x1="202" y1="427" x2="354" y2="427" stroke="#ccc" stroke-width="0.5" stroke-dasharray="2,2"/><text x="360" y="430.85" font-size="11" fill="#888">新規作成</text><text x="24" y="457.9" font-size="14" fill="#1565c0" font-weight="bold">商品管理</text><line x1="36" y1="466" x2="36" y2="492" stroke="#ccc" stroke-width="1"/><line x1="36" y1="479" x2="48" y2="479" stroke="#ccc" stroke-width="1"/><text x="52" y="483.55" font-size="13" fill="#333">商品検索</text><line x1="60" y1="492" x2="60" y2="518" stroke="#ccc" stroke-width="1"/><line x1="60" y1="492" x2="60" y2="518" stroke="#ccc" stroke-width="1"/><line x1="60" y1="505" x2="72" y2="505" stroke="#ccc" stroke-width="1"/><text x="76" y="509.55" font-size="13" fill="#555">GET /api/products</text><line x1="218" y1="505" x2="354" y2="505" stroke="#ccc" stroke-width="0.5" stroke-dasharray="2,2"/><text x="360" y="508.85" font-size="11" fill="#888">一覧取得</text><line x1="60" y1="518" x2="60" y2="544" stroke="#ccc" stroke-width="1"/><line x1="60" y1="518" x2="60" y2="531" stroke="#ccc" stroke-width="1"/><line x1="60" y1="531" x2="72" y2="531" stroke="#ccc" stroke-width="1"/><text x="76" y="535.55" font-size="13" fill="#555">GET /api/products/:id</text><line x1="250" y1="531" x2="354" y2="531" stroke="#ccc" stroke-width="0.5" stroke-dasharray="2,2"/><text x="360" y="534.85" font-size="11" fill="#888">詳細取得</text><line x1="36" y1="544" x2="36" y2="557" stroke="#ccc" stroke-width="1"/><line x1="36" y1="557" x2="48" y2="557" stroke="#ccc" stroke-width="1"/><text x="52" y="561.55" font-size="13" fill="#333">商品価格更新</text><line x1="60" y1="570" x2="60" y2="596" stroke="#ccc" stroke-width="1"/><line x1="60" y1="583" x2="72" y2="583" stroke="#ccc" stroke-width="1"/><text x="76" y="587.55" font-size="13" fill="#555">PATCH /api/products/:id/price</text><line x1="314" y1="583" x2="354" y2="583" stroke="#ccc" stroke-width="0.5" stroke-dasharray="2,2"/><text x="360" y="586.85" font-size="11" fill="#888">価格変更</text><line x1="60" y1="596" x2="60" y2="609" stroke="#ccc" stroke-width="1"/><line x1="60" y1="609" x2="72" y2="609" stroke="#ccc" stroke-width="1"/><text x="76" y="613.55" font-size="13" fill="#555">POST /api/products/import</text><line x1="282" y1="609" x2="354" y2="609" stroke="#ccc" stroke-width="0.5" stroke-dasharray="2,2"/><text x="360" y="612.85" font-size="11" fill="#888">CSV一括取込</text></svg>