<svg xmlns="http://www.w3.org/2000/svg" width="676" height="210" viewBox="0 0 676 210"><rect width="100%" height="100%" fill="white"/><style>text { font-family: sans-serif; font-size: 13px; fill: #333; }</style><text x="338" y="58" text-anchor="middle" font-size="16" font-weight="bold">月次ダッシュボード</text><rect x="40" y="80" width="140" height="90" rx="8" fill="#e3f2fd" stroke="#e0e0e0" stroke-width="1"/><rect x="40" y="80" width="140" height="12" rx="8" fill="#1565c0"/><rect x="40" y="84" width="140" height="8" fill="#e3f2fd"/><text x="110" y="116" text-anchor="middle" font-size="24" font-weight="bold" fill="#333">¥12.5M</text><text x="110" y="136" text-anchor="middle" font-size="12" fill="#666">売上</text><text x="110" y="152" text-anchor="middle" font-size="12" fill="#2e7d32">+15%</text><rect x="192" y="80" width="140" height="90" rx="8" fill="#e8f5e9" stroke="#e0e0e0" stroke-width="1"/><rect x="192" y="80" width="140" height="12" rx="8" fill="#2e7d32"/><rect x="192" y="84" width="140" height="8" fill="#e8f5e9"/><text x="262" y="116" text-anchor="middle" font-size="24" font-weight="bold" fill="#333">45,200</text><text x="262" y="136" text-anchor="middle" font-size="12" fill="#666">DAU</text><text x="262" y="152" text-anchor="middle" font-size="12" fill="#2e7d32">+8%</text><rect x="344" y="80" width="140" height="90" rx="8" fill="#fff8e1" stroke="#e0e0e0" stroke-width="1"/><rect x="344" y="80" width="140" height="12" rx="8" fill="#f57f17"/><rect x="344" y="84" width="140" height="8" fill="#fff8e1"/><text x="414" y="116" text-anchor="middle" font-size="24" font-weight="bold" fill="#333">2.3%</text><text x="414" y="136" text-anchor="middle" font-size="12" fill="#666">解約率</text><text x="414" y="152" text-anchor="middle" font-size="12" fill="#c62828">-0.5%</text><rect x="496" y="80" width="140" height="90" rx="8" fill="#f3e5f5" stroke="#e0e0e0" stroke-width="1"/><rect x="496" y="80" width="140" height="12" rx="8" fill="#7b1fa2"/><rect x="496" y="84" width="140" height="8" fill="#f3e5f5"/><text x="566" y="116" text-anchor="middle" font-size="24" font-weight="bold" fill="#333">72</text><text x="566" y="136" text-anchor="middle" font-size="12" fill="#666">NPS</text><text x="566" y="152" text-anchor="middle" font-size="12" fill="#2e7d32">+3</text></svg>