    Finished `dev` profile [unoptimized + debuginfo] target(s) in 0.00s
     Running `target/debug/mdd-kpi`
<svg xmlns="http://www.w3.org/2000/svg" width="524" height="210" viewBox="0 0 524 210"><rect width="100%" height="100%" fill="white"/><style>text { font-family: sans-serif; font-size: 13px; fill: #333; }</style><text x="262" y="58" text-anchor="middle" font-size="16" font-weight="bold">サーバー状況</text><rect x="40" y="80" width="140" height="90" rx="8" fill="#e3f2fd" stroke="#e0e0e0" stroke-width="1"/><rect x="40" y="80" width="140" height="12" rx="8" fill="#1565c0"/><rect x="40" y="84" width="140" height="8" fill="#e3f2fd"/><text x="110" y="116" text-anchor="middle" font-size="24" font-weight="bold" fill="#333">99.97%</text><text x="110" y="136" text-anchor="middle" font-size="12" fill="#666">稼働率</text><rect x="192" y="80" width="140" height="90" rx="8" fill="#e8f5e9" stroke="#e0e0e0" stroke-width="1"/><rect x="192" y="80" width="140" height="12" rx="8" fill="#2e7d32"/><rect x="192" y="84" width="140" height="8" fill="#e8f5e9"/><text x="262" y="116" text-anchor="middle" font-size="24" font-weight="bold" fill="#333">142ms</text><text x="262" y="136" text-anchor="middle" font-size="12" fill="#666">応答時間</text><rect x="344" y="80" width="140" height="90" rx="8" fill="#fff8e1" stroke="#e0e0e0" stroke-width="1"/><rect x="344" y="80" width="140" height="12" rx="8" fill="#f57f17"/><rect x="344" y="84" width="140" height="8" fill="#fff8e1"/><text x="414" y="116" text-anchor="middle" font-size="24" font-weight="bold" fill="#333">0.02%</text><text x="414" y="136" text-anchor="middle" font-size="12" fill="#666">エラー率</text></svg>