   Compiling mdd-compare v0.1.0 (/Users/fujis/ghq/github-home/ppdx999/mdd/crates/mdd-compare)
    Finished `dev` profile [unoptimized + debuginfo] target(s) in 0.13s
     Running `target/debug/mdd-compare`
<svg xmlns="http://www.w3.org/2000/svg" width="674" height="272" viewBox="0 0 674 272"><rect width="100%" height="100%" fill="white"/><style>text { font-family: sans-serif; font-size: 13px; fill: #333; }</style><text x="337" y="58" text-anchor="middle" font-size="16" font-weight="bold">フレームワーク比較</text><rect x="40" y="80" width="184" height="152" rx="8" fill="#fafafa" stroke="#e0e0e0" stroke-width="1"/><rect x="40" y="80" width="184" height="40" rx="8" fill="#e3f2fd"/><rect x="40" y="100" width="184" height="20" fill="#e3f2fd"/><text x="132" y="105" text-anchor="middle" font-weight="bold" fill="#1565c0">React</text><circle cx="60" cy="134" r="3" fill="#1565c0"/><text x="72" y="138.5">仮想DOM</text><circle cx="60" cy="162" r="3" fill="#1565c0"/><text x="72" y="166.5">大規模エコシステム</text><circle cx="60" cy="190" r="3" fill="#1565c0"/><text x="72" y="194.5">JSX記法</text><circle cx="60" cy="218" r="3" fill="#1565c0"/><text x="72" y="222.5">Meta社が開発</text><rect x="240" y="80" width="198" height="152" rx="8" fill="#fafafa" stroke="#e0e0e0" stroke-width="1"/><rect x="240" y="80" width="198" height="40" rx="8" fill="#e8f5e9"/><rect x="240" y="100" width="198" height="20" fill="#e8f5e9"/><text x="339" y="105" text-anchor="middle" font-weight="bold" fill="#2e7d32">Vue</text><circle cx="260" cy="134" r="3" fill="#2e7d32"/><text x="272" y="138.5">テンプレート構文</text><circle cx="260" cy="162" r="3" fill="#2e7d32"/><text x="272" y="166.5">学習コストが低い</text><circle cx="260" cy="190" r="3" fill="#2e7d32"/><text x="272" y="194.5">双方向バインディング</text><circle cx="260" cy="218" r="3" fill="#2e7d32"/><text x="272" y="222.5">軽量</text><rect x="454" y="80" width="180" height="152" rx="8" fill="#fafafa" stroke="#e0e0e0" stroke-width="1"/><rect x="454" y="80" width="180" height="40" rx="8" fill="#fff8e1"/><rect x="454" y="100" width="180" height="20" fill="#fff8e1"/><text x="544" y="105" text-anchor="middle" font-weight="bold" fill="#f57f17">Svelte</text><circle cx="474" cy="134" r="3" fill="#f57f17"/><text x="486" y="138.5">コンパイル型</text><circle cx="474" cy="162" r="3" fill="#f57f17"/><text x="486" y="166.5">ランタイム不要</text><circle cx="474" cy="190" r="3" fill="#f57f17"/><text x="486" y="194.5">シンプルな記法</text><circle cx="474" cy="218" r="3" fill="#f57f17"/><text x="486" y="222.5">高速</text></svg>