<svg xmlns="http://www.w3.org/2000/svg" width="504" height="272" viewBox="0 0 504 272"><rect width="100%" height="100%" fill="white"/><style>text { font-family: sans-serif; font-size: 13px; fill: #333; }</style><text x="252" y="58" text-anchor="middle" font-size="16" font-weight="bold">料金プラン比較</text><rect x="40" y="80" width="180" height="152" rx="8" fill="#fafafa" stroke="#e0e0e0" stroke-width="1"/><rect x="40" y="80" width="180" height="40" rx="8" fill="#e3f2fd"/><rect x="40" y="100" width="180" height="20" fill="#e3f2fd"/><text x="130" y="105" text-anchor="middle" font-weight="bold" fill="#1565c0">ベーシック</text><circle cx="60" cy="134" r="3" fill="#1565c0"/><text x="72" y="138.5">月額980円</text><circle cx="60" cy="162" r="3" fill="#1565c0"/><text x="72" y="166.5">ストレージ 10GB</text><circle cx="60" cy="190" r="3" fill="#1565c0"/><text x="72" y="194.5">サポート メール</text><rect x="236" y="80" width="228" height="152" rx="8" fill="#fafafa" stroke="#e0e0e0" stroke-width="1"/><rect x="236" y="80" width="228" height="40" rx="8" fill="#e8f5e9"/><rect x="236" y="100" width="228" height="20" fill="#e8f5e9"/><text x="350" y="105" text-anchor="middle" font-weight="bold" fill="#2e7d32">プロ</text><circle cx="256" cy="134" r="3" fill="#2e7d32"/><text x="268" y="138.5">月額2,980円</text><circle cx="256" cy="162" r="3" fill="#2e7d32"/><text x="268" y="166.5">ストレージ 100GB</text><circle cx="256" cy="190" r="3" fill="#2e7d32"/><text x="268" y="194.5">サポート チャット+メール</text><circle cx="256" cy="218" r="3" fill="#2e7d32"/><text x="268" y="222.5">API利用可</text></svg>