<svg xmlns="http://www.w3.org/2000/svg" width="1428" height="1120" viewBox="0 0 1428 1120"><style>text { font-family: -apple-system, 'Segoe UI', sans-serif; font-size: 12px; }</style><rect width="1428" height="1120" fill="#fff"/><text x="24" y="40" font-size="15" font-weight="600" fill="#222">ECサイトリニューアル</text><text x="344" y="77.5" text-anchor="middle" fill="#888" font-size="10">1/6</text><text x="384" y="77.5" text-anchor="middle" fill="#888" font-size="10">1/13</text><text x="424" y="77.5" text-anchor="middle" fill="#888" font-size="10">1/20</text><text x="464" y="77.5" text-anchor="middle" fill="#888" font-size="10">1/27</text><text x="504" y="77.5" text-anchor="middle" fill="#888" font-size="10">2/3</text><text x="544" y="77.5" text-anchor="middle" fill="#888" font-size="10">2/10</text><text x="584" y="77.5" text-anchor="middle" fill="#888" font-size="10">2/17</text><text x="624" y="77.5" text-anchor="middle" fill="#888" font-size="10">2/24</text><text x="664" y="77.5" text-anchor="middle" fill="#888" font-size="10">3/3</text><text x="704" y="77.5" text-anchor="middle" fill="#888" font-size="10">3/10</text><text x="744" y="77.5" text-anchor="middle" fill="#888" font-size="10">3/17</text><text x="784" y="77.5" text-anchor="middle" fill="#888" font-size="10">3/24</text><text x="824" y="77.5" text-anchor="middle" fill="#888" font-size="10">3/31</text><text x="864" y="77.5" text-anchor="middle" fill="#888" font-size="10">4/7</text><text x="904" y="77.5" text-anchor="middle" fill="#888" font-size="10">4/14</text><text x="944" y="77.5" text-anchor="middle" fill="#888" font-size="10">4/21</text><text x="984" y="77.5" text-anchor="middle" fill="#888" font-size="10">4/28</text><text x="1024" y="77.5" text-anchor="middle" fill="#888" font-size="10">5/5</text><text x="1064" y="77.5" text-anchor="middle" fill="#888" font-size="10">5/12</text><text x="1104" y="77.5" text-anchor="middle" fill="#888" font-size="10">5/19</text><text x="1144" y="77.5" text-anchor="middle" fill="#888" font-size="10">5/26</text><text x="1184" y="77.5" text-anchor="middle" fill="#888" font-size="10">6/2</text><text x="1224" y="77.5" text-anchor="middle" fill="#888" font-size="10">6/9</text><text x="1264" y="77.5" text-anchor="middle" fill="#888" font-size="10">6/16</text><text x="1304" y="77.5" text-anchor="middle" fill="#888" font-size="10">6/23</text><text x="1344" y="77.5" text-anchor="middle" fill="#888" font-size="10">6/30</text><text x="1384" y="77.5" text-anchor="middle" fill="#888" font-size="10">7/7</text><line x1="324" y1="87" x2="1404" y2="87" stroke="#ebebeb" stroke-width="1"/><line x1="324" y1="87" x2="324" y2="1096" stroke="#ebebeb" stroke-width="0.5" opacity="0.6"/><line x1="364" y1="87" x2="364" y2="1096" stroke="#ebebeb" stroke-width="0.5" opacity="0.6"/><line x1="404" y1="87" x2="404" y2="1096" stroke="#ebebeb" stroke-width="0.5" opacity="0.6"/><line x1="444" y1="87" x2="444" y2="1096" stroke="#ebebeb" stroke-width="0.5" opacity="0.6"/><line x1="484" y1="87" x2="484" y2="1096" stroke="#ebebeb" stroke-width="0.5" opacity="0.6"/><line x1="524" y1="87" x2="524" y2="1096" stroke="#ebebeb" stroke-width="0.5" opacity="0.6"/><line x1="564" y1="87" x2="564" y2="1096" stroke="#ebebeb" stroke-width="0.5" opacity="0.6"/><line x1="604" y1="87" x2="604" y2="1096" stroke="#ebebeb" stroke-width="0.5" opacity="0.6"/><line x1="644" y1="87" x2="644" y2="1096" stroke="#ebebeb" stroke-width="0.5" opacity="0.6"/><line x1="684" y1="87" x2="684" y2="1096" stroke="#ebebeb" stroke-width="0.5" opacity="0.6"/><line x1="724" y1="87" x2="724" y2="1096" stroke="#ebebeb" stroke-width="0.5" opacity="0.6"/><line x1="764" y1="87" x2="764" y2="1096" stroke="#ebebeb" stroke-width="0.5" opacity="0.6"/><line x1="804" y1="87" x2="804" y2="1096" stroke="#ebebeb" stroke-width="0.5" opacity="0.6"/><line x1="844" y1="87" x2="844" y2="1096" stroke="#ebebeb" stroke-width="0.5" opacity="0.6"/><line x1="884" y1="87" x2="884" y2="1096" stroke="#ebebeb" stroke-width="0.5" opacity="0.6"/><line x1="924" y1="87" x2="924" y2="1096" stroke="#ebebeb" stroke-width="0.5" opacity="0.6"/><line x1="964" y1="87" x2="964" y2="1096" stroke="#ebebeb" stroke-width="0.5" opacity="0.6"/><line x1="1004" y1="87" x2="1004" y2="1096" stroke="#ebebeb" stroke-width="0.5" opacity="0.6"/><line x1="1044" y1="87" x2="1044" y2="1096" stroke="#ebebeb" stroke-width="0.5" opacity="0.6"/><line x1="1084" y1="87" x2="1084" y2="1096" stroke="#ebebeb" stroke-width="0.5" opacity="0.6"/><line x1="1124" y1="87" x2="1124" y2="1096" stroke="#ebebeb" stroke-width="0.5" opacity="0.6"/><line x1="1164" y1="87" x2="1164" y2="1096" stroke="#ebebeb" stroke-width="0.5" opacity="0.6"/><line x1="1204" y1="87" x2="1204" y2="1096" stroke="#ebebeb" stroke-width="0.5" opacity="0.6"/><line x1="1244" y1="87" x2="1244" y2="1096" stroke="#ebebeb" stroke-width="0.5" opacity="0.6"/><line x1="1284" y1="87" x2="1284" y2="1096" stroke="#ebebeb" stroke-width="0.5" opacity="0.6"/><line x1="1324" y1="87" x2="1324" y2="1096" stroke="#ebebeb" stroke-width="0.5" opacity="0.6"/><line x1="1364" y1="87" x2="1364" y2="1096" stroke="#ebebeb" stroke-width="0.5" opacity="0.6"/><line x1="124" y1="88" x2="124" y2="196" stroke="#ebebeb" stroke-width="1"/><line x1="124" y1="208" x2="124" y2="316" stroke="#ebebeb" stroke-width="1"/><line x1="124" y1="328" x2="124" y2="508" stroke="#ebebeb" stroke-width="1"/><line x1="124" y1="520" x2="124" y2="736" stroke="#ebebeb" stroke-width="1"/><line x1="124" y1="748" x2="124" y2="856" stroke="#ebebeb" stroke-width="1"/><line x1="124" y1="868" x2="124" y2="1012" stroke="#ebebeb" stroke-width="1"/><line x1="124" y1="1024" x2="124" y2="1096" stroke="#ebebeb" stroke-width="1"/><text x="74" y="146.2" text-anchor="middle" font-weight="600" font-size="11" fill="#555">企画</text><text x="74" y="266.2" text-anchor="middle" font-weight="600" font-size="11" fill="#555">デザイン</text><text x="74" y="422.2" text-anchor="middle" font-weight="600" font-size="11" fill="#555">フロントエンド</text><text x="74" y="632.2" text-anchor="middle" font-weight="600" font-size="11" fill="#555">バックエンド</text><text x="74" y="806.2" text-anchor="middle" font-weight="600" font-size="11" fill="#555">インフラ</text><text x="74" y="944.2" text-anchor="middle" font-weight="600" font-size="11" fill="#555">テスト</text><text x="74" y="1064.2" text-anchor="middle" font-weight="600" font-size="11" fill="#555">リリース</text><text x="134" y="110.2" fill="#444">市場調査</text><rect x="324" y="97" width="80" height="18" rx="9" fill="#e4eef7"/><text x="364" y="109.5" text-anchor="middle" font-size="10" fill="#999">0%</text><text x="134" y="146.2" fill="#444">要件定義</text><rect x="404" y="133" width="120" height="18" rx="9" fill="#e4eef7"/><text x="464" y="145.5" text-anchor="middle" font-size="10" fill="#999">0%</text><text x="134" y="182.2" fill="#444">予算策定</text><rect x="404" y="169" width="80" height="18" rx="9" fill="#e4eef7"/><text x="444" y="181.5" text-anchor="middle" font-size="10" fill="#999">0%</text><text x="134" y="230.2" fill="#444">ワイヤーフレーム</text><rect x="524" y="217" width="80" height="18" rx="9" fill="#e4eef7"/><text x="564" y="229.5" text-anchor="middle" font-size="10" fill="#999">0%</text><text x="134" y="266.2" fill="#444">UIデザイン</text><rect x="604" y="253" width="120" height="18" rx="9" fill="#e4eef7"/><text x="664" y="265.5" text-anchor="middle" font-size="10" fill="#999">0%</text><text x="134" y="302.2" fill="#444">デザインレビュー</text><rect x="724" y="289" width="40" height="18" rx="9" fill="#e4eef7"/><text x="134" y="350.2" fill="#444">コンポーネント設計</text><rect x="604" y="337" width="40" height="18" rx="9" fill="#e4eef7"/><text x="134" y="386.2" fill="#444">トップページ実装</text><rect x="644" y="373" width="80" height="18" rx="9" fill="#e4eef7"/><text x="684" y="385.5" text-anchor="middle" font-size="10" fill="#999">0%</text><text x="134" y="422.2" fill="#444">商品一覧実装</text><rect x="724" y="409" width="80" height="18" rx="9" fill="#e4eef7"/><text x="764" y="421.5" text-anchor="middle" font-size="10" fill="#999">0%</text><text x="134" y="458.2" fill="#444">カート実装</text><rect x="804" y="445" width="120" height="18" rx="9" fill="#e4eef7"/><text x="864" y="457.5" text-anchor="middle" font-size="10" fill="#999">0%</text><text x="134" y="494.2" fill="#444">決済画面実装</text><rect x="924" y="481" width="80" height="18" rx="9" fill="#e4eef7"/><text x="964" y="493.5" text-anchor="middle" font-size="10" fill="#999">0%</text><text x="134" y="542.2" fill="#444">DB設計</text><rect x="524" y="529" width="80" height="18" rx="9" fill="#e4eef7"/><text x="564" y="541.5" text-anchor="middle" font-size="10" fill="#999">0%</text><text x="134" y="578.2" fill="#444">API設計</text><rect x="604" y="565" width="40" height="18" rx="9" fill="#e4eef7"/><text x="134" y="614.2" fill="#444">認証基盤</text><rect x="644" y="601" width="80" height="18" rx="9" fill="#e4eef7"/><text x="684" y="613.5" text-anchor="middle" font-size="10" fill="#999">0%</text><text x="134" y="650.2" fill="#444">商品API</text><rect x="644" y="637" width="120" height="18" rx="9" fill="#e4eef7"/><text x="704" y="649.5" text-anchor="middle" font-size="10" fill="#999">0%</text><text x="134" y="686.2" fill="#444">注文API</text><rect x="764" y="673" width="80" height="18" rx="9" fill="#e4eef7"/><text x="804" y="685.5" text-anchor="middle" font-size="10" fill="#999">0%</text><text x="134" y="722.2" fill="#444">決済連携</text><rect x="844" y="709" width="120" height="18" rx="9" fill="#e4eef7"/><text x="904" y="721.5" text-anchor="middle" font-size="10" fill="#999">0%</text><text x="134" y="770.2" fill="#444">環境構築</text><rect x="604" y="757" width="80" height="18" rx="9" fill="#e4eef7"/><text x="644" y="769.5" text-anchor="middle" font-size="10" fill="#999">0%</text><text x="134" y="806.2" fill="#444">CI/CD構築</text><rect x="684" y="793" width="40" height="18" rx="9" fill="#e4eef7"/><text x="134" y="842.2" fill="#444">監視設定</text><rect x="724" y="829" width="40" height="18" rx="9" fill="#e4eef7"/><text x="134" y="890.2" fill="#444">テスト計画</text><rect x="644" y="877" width="40" height="18" rx="9" fill="#e4eef7"/><text x="134" y="926.2" fill="#444">結合テスト</text><rect x="1004" y="913" width="120" height="18" rx="9" fill="#e4eef7"/><text x="1064" y="925.5" text-anchor="middle" font-size="10" fill="#999">0%</text><text x="134" y="962.2" fill="#444">性能テスト</text><rect x="1124" y="949" width="80" height="18" rx="9" fill="#e4eef7"/><text x="1164" y="961.5" text-anchor="middle" font-size="10" fill="#999">0%</text><text x="134" y="998.2" fill="#444">UAT</text><rect x="1204" y="985" width="80" height="18" rx="9" fill="#e4eef7"/><text x="1244" y="997.5" text-anchor="middle" font-size="10" fill="#999">0%</text><text x="134" y="1046.2" fill="#444">ステージング</text><rect x="1284" y="1033" width="40" height="18" rx="9" fill="#e4eef7"/><text x="134" y="1082.2" fill="#444">本番リリース</text><rect x="1324" y="1069" width="40" height="18" rx="9" fill="#e4eef7"/></svg>