<svg xmlns="http://www.w3.org/2000/svg" width="788" height="352" viewBox="0 0 788 352"><rect width="100%" height="100%" fill="white"/><style>text { font-family: -apple-system, 'Segoe UI', sans-serif; font-size: 12px; }</style><rect width="788" height="352" fill="#fff"/><text x="24" y="40" font-size="15" font-weight="600" fill="#222">プロジェクトX</text><text x="344" y="77.5" text-anchor="middle" fill="#888" font-size="10">1/6</text><text x="384" y="77.5" text-anchor="middle" fill="#888" font-size="10">1/13</text><text x="424" y="77.5" text-anchor="middle" fill="#888" font-size="10">1/20</text><text x="464" y="77.5" text-anchor="middle" fill="#888" font-size="10">1/27</text><text x="504" y="77.5" text-anchor="middle" fill="#888" font-size="10">2/3</text><text x="544" y="77.5" text-anchor="middle" fill="#888" font-size="10">2/10</text><text x="584" y="77.5" text-anchor="middle" fill="#888" font-size="10">2/17</text><text x="624" y="77.5" text-anchor="middle" fill="#888" font-size="10">2/24</text><text x="664" y="77.5" text-anchor="middle" fill="#888" font-size="10">3/3</text><text x="704" y="77.5" text-anchor="middle" fill="#888" font-size="10">3/10</text><text x="744" y="77.5" text-anchor="middle" fill="#888" font-size="10">3/17</text><line x1="324" y1="87" x2="764" y2="87" stroke="#ebebeb" stroke-width="1"/><line x1="324" y1="87" x2="324" y2="328" stroke="#ebebeb" stroke-width="0.5" opacity="0.6"/><line x1="364" y1="87" x2="364" y2="328" stroke="#ebebeb" stroke-width="0.5" opacity="0.6"/><line x1="404" y1="87" x2="404" y2="328" stroke="#ebebeb" stroke-width="0.5" opacity="0.6"/><line x1="444" y1="87" x2="444" y2="328" stroke="#ebebeb" stroke-width="0.5" opacity="0.6"/><line x1="484" y1="87" x2="484" y2="328" stroke="#ebebeb" stroke-width="0.5" opacity="0.6"/><line x1="524" y1="87" x2="524" y2="328" stroke="#ebebeb" stroke-width="0.5" opacity="0.6"/><line x1="564" y1="87" x2="564" y2="328" stroke="#ebebeb" stroke-width="0.5" opacity="0.6"/><line x1="604" y1="87" x2="604" y2="328" stroke="#ebebeb" stroke-width="0.5" opacity="0.6"/><line x1="644" y1="87" x2="644" y2="328" stroke="#ebebeb" stroke-width="0.5" opacity="0.6"/><line x1="684" y1="87" x2="684" y2="328" stroke="#ebebeb" stroke-width="0.5" opacity="0.6"/><line x1="724" y1="87" x2="724" y2="328" stroke="#ebebeb" stroke-width="0.5" opacity="0.6"/><line x1="124" y1="88" x2="124" y2="196" stroke="#ebebeb" stroke-width="1"/><line x1="124" y1="208" x2="124" y2="280" stroke="#ebebeb" stroke-width="1"/><line x1="124" y1="292" x2="124" y2="328" stroke="#ebebeb" stroke-width="1"/><text x="74" y="146.2" text-anchor="middle" font-weight="600" font-size="11" fill="#555">設計</text><text x="74" y="248.2" text-anchor="middle" font-weight="600" font-size="11" fill="#555">開発</text><text x="74" y="314.2" text-anchor="middle" font-weight="600" font-size="11" fill="#555">テスト</text><text x="134" y="110.2" fill="#444">要件定義</text><rect x="324" y="97" width="80" height="18" rx="9" fill="#5b9bd5"/><text x="134" y="146.2" fill="#444">基本設計</text><rect x="404" y="133" width="40" height="18" rx="9" fill="#5b9bd5"/><text x="134" y="182.2" fill="#444">詳細設計</text><rect x="444" y="169" width="80" height="18" rx="9" fill="#5b9bd5"/><text x="134" y="230.2" fill="#444">フロント実装</text><rect x="484" y="217" width="160" height="18" rx="9" fill="#5b9bd5"/><text x="134" y="266.2" fill="#444">バックエンド</text><rect x="484" y="253" width="120" height="18" rx="9" fill="#5b9bd5"/><text x="134" y="314.2" fill="#444">結合テスト</text><rect x="644" y="301" width="80" height="18" rx="9" fill="#5b9bd5"/></svg>