<svg xmlns="http://www.w3.org/2000/svg" width="458" height="220" viewBox="0 0 458 220"><style>text { font-family: -apple-system, 'Segoe UI', sans-serif; font-size: 12px; }</style><rect width="458" height="220" fill="#fff"/><text x="24" y="40" font-size="15" font-weight="600" fill="#222">スプリント1</text><text x="239" y="77.5" text-anchor="middle" fill="#888" font-size="10">1/6</text><text x="269" y="77.5" text-anchor="middle" fill="#888" font-size="10">1/7</text><text x="299" y="77.5" text-anchor="middle" fill="#888" font-size="10">1/8</text><text x="329" y="77.5" text-anchor="middle" fill="#888" font-size="10">1/9</text><text x="359" y="77.5" text-anchor="middle" fill="#888" font-size="10">1/10</text><text x="389" y="77.5" text-anchor="middle" fill="#888" font-size="10">1/11</text><text x="419" y="77.5" text-anchor="middle" fill="#888" font-size="10">1/12</text><line x1="224" y1="87" x2="434" y2="87" stroke="#ebebeb" stroke-width="1"/><line x1="224" y1="87" x2="224" y2="196" stroke="#ebebeb" stroke-width="0.5" opacity="0.6"/><line x1="254" y1="87" x2="254" y2="196" stroke="#ebebeb" stroke-width="0.5" opacity="0.6"/><line x1="284" y1="87" x2="284" y2="196" stroke="#ebebeb" stroke-width="0.5" opacity="0.6"/><line x1="314" y1="87" x2="314" y2="196" stroke="#ebebeb" stroke-width="0.5" opacity="0.6"/><line x1="344" y1="87" x2="344" y2="196" stroke="#ebebeb" stroke-width="0.5" opacity="0.6"/><line x1="374" y1="87" x2="374" y2="196" stroke="#ebebeb" stroke-width="0.5" opacity="0.6"/><line x1="404" y1="87" x2="404" y2="196" stroke="#ebebeb" stroke-width="0.5" opacity="0.6"/><text x="34" y="110.2" fill="#444">タスクA</text><rect x="224" y="97" width="90" height="18" rx="9" fill="#e4eef7"/><text x="269" y="109.5" text-anchor="middle" font-size="10" fill="#999">0%</text><text x="34" y="146.2" fill="#444">タスクB</text><rect x="224" y="133" width="150" height="18" rx="9" fill="#e4eef7"/><text x="299" y="145.5" text-anchor="middle" font-size="10" fill="#999">0%</text><text x="34" y="182.2" fill="#444">タスクC</text><rect x="314" y="169" width="120" height="18" rx="9" fill="#e4eef7"/><text x="374" y="181.5" text-anchor="middle" font-size="10" fill="#999">0%</text></svg>