<svg xmlns="http://www.w3.org/2000/svg" width="821.6405247954161" height="1102.90682760248" viewBox="0 0 821.6405247954161 1102.90682760248"><rect width="100%" height="100%" fill="white"/><style>text { font-family: sans-serif; font-size: 14px; fill: #333; }</style><rect x="250" y="40" width="531.6405247954161" height="257.5108685380425" fill="none" stroke="#666" stroke-dasharray="5,5" rx="5"/><text x="255" y="55" font-weight="bold">Authentication</text><rect x="250" y="370.3742219883525" width="431.5108685380425" height="257.5108685380425" fill="none" stroke="#666" stroke-dasharray="5,5" rx="5"/><text x="255" y="385.3742219883525" font-weight="bold">Order Management</text><rect x="250" y="700.748443976705" width="228.86335345030997" height="362.15838362577495" fill="none" stroke="#666" stroke-dasharray="5,5" rx="5"/><text x="255" y="715.748443976705" font-weight="bold">Admin Panel</text><line x1="70" y1="332.86335345031006" x2="346.431676725155" y2="121.43167672515499" stroke="#666" stroke-width="1.5"/><line x1="70" y1="332.86335345031006" x2="346.431676725155" y2="236.07919181288747" stroke="#666" stroke-width="1.5"/><line x1="70" y1="332.86335345031006" x2="547.0791918128875" y2="236.07919181288747" stroke="#666" stroke-width="1.5"/><line x1="70" y1="332.86335345031006" x2="555.0791918128875" y2="451.8058987135075" stroke="#666" stroke-width="1.5"/><line x1="70" y1="332.86335345031006" x2="364.431676725155" y2="566.45341380124" stroke="#666" stroke-width="1.5"/><line x1="70" y1="332.86335345031006" x2="571.0791918128875" y2="566.45341380124" stroke="#666" stroke-width="1.5"/><line x1="70" y1="332.86335345031006" x2="356.431676725155" y2="456.8058987135075" stroke="#666" stroke-width="1.5"/><line x1="70" y1="551.45341380124" x2="346.431676725155" y2="121.43167672515499" stroke="#666" stroke-width="1.5"/><line x1="70" y1="551.45341380124" x2="364.431676725155" y2="896.8276357895924" stroke="#666" stroke-width="1.5"/><line x1="70" y1="551.45341380124" x2="364.431676725155" y2="1001.4751508773248" stroke="#666" stroke-width="1.5"/><line x1="70" y1="551.45341380124" x2="352.431676725155" y2="787.1801207018599" stroke="#666" stroke-width="1.5"/><line x1="70" y1="770.0434741521699" x2="675.2088480702612" y2="126.43167672515499" stroke="#666" stroke-width="1.5"/><line x1="346.431676725155" y1="121.43167672515499" x2="675.2088480702612" y2="126.43167672515499" stroke="#666" stroke-width="1.5"/><circle cx="70" cy="304.86335345031006" r="10" fill="none" stroke="#333" stroke-width="2"/><line x1="70" y1="314.86335345031006" x2="70" y2="337.86335345031006" stroke="#333" stroke-width="2"/><line x1="55" y1="324.86335345031006" x2="85" y2="324.86335345031006" stroke="#333" stroke-width="2"/><line x1="70" y1="337.86335345031006" x2="58" y2="352.86335345031006" stroke="#333" stroke-width="2"/><line x1="70" y1="337.86335345031006" x2="82" y2="352.86335345031006" stroke="#333" stroke-width="2"/><text x="70" y="367.86335345031006" text-anchor="middle">Customer</text><circle cx="70" cy="523.45341380124" r="10" fill="none" stroke="#333" stroke-width="2"/><line x1="70" y1="533.45341380124" x2="70" y2="556.45341380124" stroke="#333" stroke-width="2"/><line x1="55" y1="543.45341380124" x2="85" y2="543.45341380124" stroke="#333" stroke-width="2"/><line x1="70" y1="556.45341380124" x2="58" y2="571.45341380124" stroke="#333" stroke-width="2"/><line x1="70" y1="556.45341380124" x2="82" y2="571.45341380124" stroke="#333" stroke-width="2"/><text x="70" y="586.45341380124" text-anchor="middle">Admin</text><circle cx="70" cy="742.0434741521699" r="10" fill="none" stroke="#333" stroke-width="2"/><line x1="70" y1="752.0434741521699" x2="70" y2="775.0434741521699" stroke="#333" stroke-width="2"/><line x1="55" y1="762.0434741521699" x2="85" y2="762.0434741521699" stroke="#333" stroke-width="2"/><line x1="70" y1="775.0434741521699" x2="58" y2="790.0434741521699" stroke="#333" stroke-width="2"/><line x1="70" y1="775.0434741521699" x2="82" y2="790.0434741521699" stroke="#333" stroke-width="2"/><text x="70" y="805.0434741521699" text-anchor="middle">System</text><ellipse cx="346.431676725155" cy="121.43167672515499" rx="60" ry="25" fill="#f0f8ff" stroke="#333" stroke-width="1.5"/><text x="346.431676725155" y="125.03167672515498" text-anchor="middle">Login</text><ellipse cx="346.431676725155" cy="236.07919181288747" rx="60" ry="25" fill="#f0f8ff" stroke="#333" stroke-width="1.5"/><text x="346.431676725155" y="239.67919181288747" text-anchor="middle">Logout</text><ellipse cx="547.0791918128875" cy="236.07919181288747" rx="86" ry="25" fill="#f0f8ff" stroke="#333" stroke-width="1.5"/><text x="547.0791918128875" y="239.67919181288747" text-anchor="middle">Reset Password</text><ellipse cx="675.2088480702612" cy="126.43167672515499" rx="70" ry="30" fill="#f0f8ff" stroke="#333" stroke-width="1.5"/><text x="675.2088480702612" y="121.03167672515498" text-anchor="middle">Two Factor</text><text x="675.2088480702612" y="139.03167672515497" text-anchor="middle">Auth</text><ellipse cx="555.0791918128875" cy="451.8058987135075" rx="74" ry="25" fill="#f0f8ff" stroke="#333" stroke-width="1.5"/><text x="555.0791918128875" y="455.4058987135075" text-anchor="middle">Place Order</text><ellipse cx="364.431676725155" cy="566.45341380124" rx="78" ry="25" fill="#f0f8ff" stroke="#333" stroke-width="1.5"/><text x="364.431676725155" y="570.05341380124" text-anchor="middle">Cancel Order</text><ellipse cx="571.0791918128875" cy="566.45341380124" rx="74" ry="25" fill="#f0f8ff" stroke="#333" stroke-width="1.5"/><text x="571.0791918128875" y="570.05341380124" text-anchor="middle">Track Order</text><ellipse cx="356.431676725155" cy="456.8058987135075" rx="70" ry="30" fill="#f0f8ff" stroke="#333" stroke-width="1.5"/><text x="356.431676725155" y="451.4058987135075" text-anchor="middle">View Order</text><text x="356.431676725155" y="469.4058987135075" text-anchor="middle">History</text><ellipse cx="364.431676725155" cy="896.8276357895924" rx="78" ry="25" fill="#f0f8ff" stroke="#333" stroke-width="1.5"/><text x="364.431676725155" y="900.4276357895924" text-anchor="middle">Manage Users</text><ellipse cx="364.431676725155" cy="1001.4751508773248" rx="78" ry="25" fill="#f0f8ff" stroke="#333" stroke-width="1.5"/><text x="364.431676725155" y="1005.0751508773249" text-anchor="middle">View Reports</text><ellipse cx="352.431676725155" cy="787.1801207018599" rx="66" ry="30" fill="#f0f8ff" stroke="#333" stroke-width="1.5"/><text x="352.431676725155" y="781.7801207018599" text-anchor="middle">Update</text><text x="352.431676725155" y="799.7801207018599" text-anchor="middle">Inventory</text></svg>