<svg xmlns="http://www.w3.org/2000/svg" width="645.658253617652" height="1072" viewBox="0 0 645.658253617652 1072"><rect width="100%" height="100%" fill="white"/><style>text { font-family: sans-serif; font-size: 14px; fill: #333; }</style><rect x="239.37253933193773" y="40" width="212" height="334" fill="none" stroke="#666" stroke-dasharray="5,5" rx="5"/><text x="244.37253933193773" y="55" font-weight="bold">Authentication</text><rect x="247.37253933193773" y="404" width="196" height="334" fill="none" stroke="#666" stroke-dasharray="5,5" rx="5"/><text x="252.37253933193773" y="419" font-weight="bold">Order Management</text><rect x="247.37253933193773" y="768" width="196" height="264" fill="none" stroke="#666" stroke-dasharray="5,5" rx="5"/><text x="252.37253933193773" y="783" font-weight="bold">Admin Panel</text><line x1="100" y1="375.1713582561983" x2="304.70474509902084" y2="127.38123718891998" stroke="#666" stroke-width="1.5"/><line x1="100" y1="382.79739099386586" x2="299.2164421032103" y2="194.97314743546758" stroke="#666" stroke-width="1.5"/><line x1="100" y1="390.4234237315334" x2="270.8624918955665" y2="261.4839432805293" stroke="#666" stroke-width="1.5"/><line x1="100" y1="414.82672849206955" x2="273.3684644083303" y2="467.23282812318223" stroke="#666" stroke-width="1.5"/><line x1="100" y1="422.45276122973706" x2="275.36481036542204" y2="531.9764188112676" stroke="#666" stroke-width="1.5"/><line x1="100" y1="430.07879396740464" x2="286.044171645389" y2="598.0579980994381" stroke="#666" stroke-width="1.5"/><line x1="100" y1="438.2495433291913" x2="296.3146429938641" y2="666.600064246737" stroke="#666" stroke-width="1.5"/><line x1="560.2994731734193" y1="668.75" x2="366.8797654768458" y2="132.33868697344406" stroke="#666" stroke-width="1.5"/><line x1="545.658253617652" y1="725.4575062034739" x2="413.5173878873085" y2="824.8362128207943" stroke="#666" stroke-width="1.5"/><line x1="545.658253617652" y1="734.5766129032259" x2="404.4850531129117" y2="890.6893588551516" stroke="#666" stroke-width="1.5"/><line x1="545.658253617652" y1="744.3470843672457" x2="387.90499540428476" y2="959.0601298916135" stroke="#666" stroke-width="1.5"/><line x1="515.658253617652" y1="324" x2="415.37253933193773" y2="324" stroke="#666" stroke-width="1.5"/><line x1="345.37253933193773" y1="134" x2="345.37253933193773" y2="294" stroke="#666" stroke-width="1.5"/><circle cx="70" cy="379.7142857142857" r="10" fill="none" stroke="#333" stroke-width="2"/><line x1="70" y1="389.7142857142857" x2="70" y2="412.7142857142857" stroke="#333" stroke-width="2"/><line x1="55" y1="399.7142857142857" x2="85" y2="399.7142857142857" stroke="#333" stroke-width="2"/><line x1="70" y1="412.7142857142857" x2="58" y2="427.7142857142857" stroke="#333" stroke-width="2"/><line x1="70" y1="412.7142857142857" x2="82" y2="427.7142857142857" stroke="#333" stroke-width="2"/><text x="70" y="442.7142857142857" text-anchor="middle">Customer</text><circle cx="575.658253617652" cy="680.75" r="10" fill="none" stroke="#333" stroke-width="2"/><line x1="575.658253617652" y1="690.75" x2="575.658253617652" y2="713.75" stroke="#333" stroke-width="2"/><line x1="560.658253617652" y1="700.75" x2="590.658253617652" y2="700.75" stroke="#333" stroke-width="2"/><line x1="575.658253617652" y1="713.75" x2="563.658253617652" y2="728.75" stroke="#333" stroke-width="2"/><line x1="575.658253617652" y1="713.75" x2="587.658253617652" y2="728.75" stroke="#333" stroke-width="2"/><text x="575.658253617652" y="743.75" text-anchor="middle">Admin</text><circle cx="545.658253617652" cy="296" r="10" fill="none" stroke="#333" stroke-width="2"/><line x1="545.658253617652" y1="306" x2="545.658253617652" y2="329" stroke="#333" stroke-width="2"/><line x1="530.658253617652" y1="316" x2="560.658253617652" y2="316" stroke="#333" stroke-width="2"/><line x1="545.658253617652" y1="329" x2="533.658253617652" y2="344" stroke="#333" stroke-width="2"/><line x1="545.658253617652" y1="329" x2="557.658253617652" y2="344" stroke="#333" stroke-width="2"/><text x="545.658253617652" y="359" text-anchor="middle">System</text><ellipse cx="345.37253933193773" cy="109" rx="60" ry="25" fill="#f0f8ff" stroke="#333" stroke-width="1.5"/><text x="345.37253933193773" y="112.6" text-anchor="middle">Login</text><ellipse cx="345.37253933193773" cy="179" rx="60" ry="25" fill="#f0f8ff" stroke="#333" stroke-width="1.5"/><text x="345.37253933193773" y="182.6" text-anchor="middle">Logout</text><ellipse cx="345.37253933193773" cy="249" rx="86" ry="25" fill="#f0f8ff" stroke="#333" stroke-width="1.5"/><text x="345.37253933193773" y="252.6" text-anchor="middle">Reset Password</text><ellipse cx="345.37253933193773" cy="324" rx="70" ry="30" fill="#f0f8ff" stroke="#333" stroke-width="1.5"/><text x="345.37253933193773" y="318.6" text-anchor="middle">Two Factor</text><text x="345.37253933193773" y="336.6" text-anchor="middle">Auth</text><ellipse cx="345.37253933193773" cy="473" rx="74" ry="25" fill="#f0f8ff" stroke="#333" stroke-width="1.5"/><text x="345.37253933193773" y="476.6" text-anchor="middle">Place Order</text><ellipse cx="345.37253933193773" cy="543" rx="78" ry="25" fill="#f0f8ff" stroke="#333" stroke-width="1.5"/><text x="345.37253933193773" y="546.6" text-anchor="middle">Cancel Order</text><ellipse cx="345.37253933193773" cy="613" rx="74" ry="25" fill="#f0f8ff" stroke="#333" stroke-width="1.5"/><text x="345.37253933193773" y="616.6" text-anchor="middle">Track Order</text><ellipse cx="345.37253933193773" cy="688" rx="70" ry="30" fill="#f0f8ff" stroke="#333" stroke-width="1.5"/><text x="345.37253933193773" y="682.6" text-anchor="middle">View Order</text><text x="345.37253933193773" y="700.6" text-anchor="middle">History</text><ellipse cx="345.37253933193773" cy="837" rx="78" ry="25" fill="#f0f8ff" stroke="#333" stroke-width="1.5"/><text x="345.37253933193773" y="840.6" text-anchor="middle">Manage Users</text><ellipse cx="345.37253933193773" cy="907" rx="78" ry="25" fill="#f0f8ff" stroke="#333" stroke-width="1.5"/><text x="345.37253933193773" y="910.6" text-anchor="middle">View Reports</text><ellipse cx="345.37253933193773" cy="982" rx="66" ry="30" fill="#f0f8ff" stroke="#333" stroke-width="1.5"/><text x="345.37253933193773" y="976.6" text-anchor="middle">Update</text><text x="345.37253933193773" y="994.6" text-anchor="middle">Inventory</text></svg>