<svg xmlns="http://www.w3.org/2000/svg" width="552" height="1072" viewBox="0 0 552 1072"><rect width="100%" height="100%" fill="white"/><style>text { font-family: sans-serif; font-size: 14px; fill: #333; }</style><rect x="180" y="40" width="212" height="334" fill="none" stroke="#666" stroke-dasharray="5,5" rx="5"/><text x="185" y="55" font-weight="bold">Authentication</text><rect x="188" y="404" width="196" height="334" fill="none" stroke="#666" stroke-dasharray="5,5" rx="5"/><text x="193" y="419" font-weight="bold">Order Management</text><rect x="188" y="768" width="196" height="264" fill="none" stroke="#666" stroke-dasharray="5,5" rx="5"/><text x="193" y="783" font-weight="bold">Admin Panel</text><line x1="116.24581539933047" y1="367.7142857142857" x2="253.08428185464527" y2="129.9022007537466" stroke="#666" stroke-width="1.5"/><line x1="120" y1="372.7069970845481" x2="246.95720480953776" y2="197.98308889089225" stroke="#666" stroke-width="1.5"/><line x1="120" y1="383.42128279883383" x2="219.16488282994027" y2="264.7328071343685" stroke="#666" stroke-width="1.5"/><line x1="120" y1="417.7069970845481" x2="215.7923204449488" y2="465.0994923674606" stroke="#666" stroke-width="1.5"/><line x1="120" y1="428.42128279883383" x2="221.80675050607732" y2="528.7986171995906" stroke="#666" stroke-width="1.5"/><line x1="120" y1="439.13556851311955" x2="234.89859414554516" y2="594.918111207536" stroke="#666" stroke-width="1.5"/><line x1="117.97145769622834" y1="447.7142857142857" x2="245.8851126877401" y2="663.4148035485255" stroke="#666" stroke-width="1.5"/><line x1="468.9278866194248" y1="668.75" x2="304.6381357979069" y2="132.76322692345803" stroke="#666" stroke-width="1.5"/><line x1="452" y1="728.3801020408164" x2="351.26896001775526" y2="823.3115775080503" stroke="#666" stroke-width="1.5"/><line x1="452" y1="739.094387755102" x2="340.83866799550367" y2="889.2217328458454" stroke="#666" stroke-width="1.5"/><line x1="453.3083257090576" y1="748.75" x2="324.4683985199681" y2="957.6227043237911" stroke="#666" stroke-width="1.5"/><line x1="120" y1="324" x2="216" y2="324" stroke="#666" stroke-width="1.5"/><line x1="286" y1="134" x2="286" y2="294" stroke="#666" stroke-width="1.5"/><circle cx="90" cy="379.7142857142857" r="10" fill="none" stroke="#333" stroke-width="2"/><line x1="90" y1="389.7142857142857" x2="90" y2="412.7142857142857" stroke="#333" stroke-width="2"/><line x1="75" y1="399.7142857142857" x2="105" y2="399.7142857142857" stroke="#333" stroke-width="2"/><line x1="90" y1="412.7142857142857" x2="78" y2="427.7142857142857" stroke="#333" stroke-width="2"/><line x1="90" y1="412.7142857142857" x2="102" y2="427.7142857142857" stroke="#333" stroke-width="2"/><text x="90" y="442.7142857142857" text-anchor="middle">Customer</text><circle cx="482" cy="680.75" r="10" fill="none" stroke="#333" stroke-width="2"/><line x1="482" y1="690.75" x2="482" y2="713.75" stroke="#333" stroke-width="2"/><line x1="467" y1="700.75" x2="497" y2="700.75" stroke="#333" stroke-width="2"/><line x1="482" y1="713.75" x2="470" y2="728.75" stroke="#333" stroke-width="2"/><line x1="482" y1="713.75" x2="494" y2="728.75" stroke="#333" stroke-width="2"/><text x="482" y="743.75" text-anchor="middle">Admin</text><circle cx="90" cy="296" r="10" fill="none" stroke="#333" stroke-width="2"/><line x1="90" y1="306" x2="90" y2="329" stroke="#333" stroke-width="2"/><line x1="75" y1="316" x2="105" y2="316" stroke="#333" stroke-width="2"/><line x1="90" y1="329" x2="78" y2="344" stroke="#333" stroke-width="2"/><line x1="90" y1="329" x2="102" y2="344" stroke="#333" stroke-width="2"/><text x="90" y="359" text-anchor="middle">System</text><ellipse cx="286" cy="109" rx="60" ry="25" fill="#f0f8ff" stroke="#333" stroke-width="1.5"/><text x="286" y="112.6" text-anchor="middle">Login</text><ellipse cx="286" cy="179" rx="60" ry="25" fill="#f0f8ff" stroke="#333" stroke-width="1.5"/><text x="286" y="182.6" text-anchor="middle">Logout</text><ellipse cx="286" cy="249" rx="86" ry="25" fill="#f0f8ff" stroke="#333" stroke-width="1.5"/><text x="286" y="252.6" text-anchor="middle">Reset Password</text><ellipse cx="286" cy="324" rx="70" ry="30" fill="#f0f8ff" stroke="#333" stroke-width="1.5"/><text x="286" y="318.6" text-anchor="middle">Two Factor</text><text x="286" y="336.6" text-anchor="middle">Auth</text><ellipse cx="286" cy="473" rx="74" ry="25" fill="#f0f8ff" stroke="#333" stroke-width="1.5"/><text x="286" y="476.6" text-anchor="middle">Place Order</text><ellipse cx="286" cy="543" rx="78" ry="25" fill="#f0f8ff" stroke="#333" stroke-width="1.5"/><text x="286" y="546.6" text-anchor="middle">Cancel Order</text><ellipse cx="286" cy="613" rx="74" ry="25" fill="#f0f8ff" stroke="#333" stroke-width="1.5"/><text x="286" y="616.6" text-anchor="middle">Track Order</text><ellipse cx="286" cy="688" rx="70" ry="30" fill="#f0f8ff" stroke="#333" stroke-width="1.5"/><text x="286" y="682.6" text-anchor="middle">View Order</text><text x="286" y="700.6" text-anchor="middle">History</text><ellipse cx="286" cy="837" rx="78" ry="25" fill="#f0f8ff" stroke="#333" stroke-width="1.5"/><text x="286" y="840.6" text-anchor="middle">Manage Users</text><ellipse cx="286" cy="907" rx="78" ry="25" fill="#f0f8ff" stroke="#333" stroke-width="1.5"/><text x="286" y="910.6" text-anchor="middle">View Reports</text><ellipse cx="286" cy="982" rx="66" ry="30" fill="#f0f8ff" stroke="#333" stroke-width="1.5"/><text x="286" y="976.6" text-anchor="middle">Update</text><text x="286" y="994.6" text-anchor="middle">Inventory</text></svg>