<svg xmlns="http://www.w3.org/2000/svg" width="833.2109682775533" height="501.6644143732834" viewBox="0 0 833.2109682775533 501.6644143732834"><rect width="100%" height="100%" fill="white"/><style>text { font-family: sans-serif; font-size: 14px; fill: #333; }</style><rect x="246.407830863536" y="40" width="546.8031374140173" height="421.6644143732834" fill="none" stroke="#666" stroke-dasharray="5,5" rx="5"/><text x="251.407830863536" y="55" font-weight="bold">Features</text><line x1="70" y1="250.8322071866417" x2="335.89466384404113" y2="218.71708245126285" stroke="#666" stroke-width="1.5"/><line x1="335.89466384404113" y1="218.71708245126285" x2="701.7241352970482" y2="218.71708245126285" stroke="#666" stroke-width="1.5"/><circle cx="70" cy="222.8322071866417" r="10" fill="none" stroke="#333" stroke-width="2"/><line x1="70" y1="232.8322071866417" x2="70" y2="255.8322071866417" stroke="#333" stroke-width="2"/><line x1="55" y1="242.8322071866417" x2="85" y2="242.8322071866417" stroke="#333" stroke-width="2"/><line x1="70" y1="255.8322071866417" x2="58" y2="270.8322071866417" stroke="#333" stroke-width="2"/><line x1="70" y1="255.8322071866417" x2="82" y2="270.8322071866417" stroke="#333" stroke-width="2"/><text x="70" y="285.8322071866417" text-anchor="middle">User</text><ellipse cx="335.89466384404113" cy="218.71708245126285" rx="60" ry="25" fill="#f0f8ff" stroke="#333" stroke-width="1.5"/><text x="335.89466384404113" y="222.31708245126285" text-anchor="middle">Login</text><ellipse cx="701.7241352970482" cy="218.71708245126285" rx="62" ry="25" fill="#f0f8ff" stroke="#333" stroke-width="1.5"/><text x="701.7241352970482" y="222.31708245126285" text-anchor="middle">Register</text><ellipse cx="353.89466384404113" cy="312.94733192202057" rx="78" ry="25" fill="#f0f8ff" stroke="#333" stroke-width="1.5"/><text x="353.89466384404113" y="316.5473319220206" text-anchor="middle">View Profile</text><ellipse cx="554.1249133147988" cy="312.94733192202057" rx="78" ry="25" fill="#f0f8ff" stroke="#333" stroke-width="1.5"/><text x="554.1249133147988" y="316.5473319220206" text-anchor="middle">Edit Profile</text><ellipse cx="361.89466384404113" cy="407.1775813927783" rx="86" ry="25" fill="#f0f8ff" stroke="#333" stroke-width="1.5"/><text x="361.89466384404113" y="410.7775813927783" text-anchor="middle">Delete Account</text><ellipse cx="337.89466384404113" cy="119.48683298050514" rx="62" ry="30" fill="#f0f8ff" stroke="#333" stroke-width="1.5"/><text x="337.89466384404113" y="114.08683298050514" text-anchor="middle">Change</text><text x="337.89466384404113" y="132.08683298050514" text-anchor="middle">Password</text></svg>