<svg xmlns="http://www.w3.org/2000/svg" width="540" height="463.8076211353316" viewBox="0 0 540 463.8076211353316"><rect width="100%" height="100%" fill="white"/><style>text { font-family: sans-serif; font-size: 13px; fill: #333; }</style><text x="270" y="78" text-anchor="middle" font-size="16" font-weight="bold">QCD</text><line x1="270" y1="122" x2="120" y2="381.8076211353316" stroke="#999" stroke-width="2"/><rect x="135" y="242.4038105676658" width="92" height="19" rx="3" fill="white" fill-opacity="0.85"/><text x="181" y="255.4038105676658" text-anchor="middle" font-size="11" fill="#666">トレードオフ</text><line x1="120" y1="381.8076211353316" x2="420" y2="381.8076211353316" stroke="#999" stroke-width="2"/><rect x="224" y="386.3076211353316" width="92" height="19" rx="3" fill="white" fill-opacity="0.85"/><text x="270" y="399.3076211353316" text-anchor="middle" font-size="11" fill="#666">トレードオフ</text><line x1="270" y1="122" x2="420" y2="381.8076211353316" stroke="#999" stroke-width="2"/><rect x="313" y="242.4038105676658" width="92" height="19" rx="3" fill="white" fill-opacity="0.85"/><text x="359" y="255.4038105676658" text-anchor="middle" font-size="11" fill="#666">トレードオフ</text><rect x="210" y="100" width="120" height="44" rx="8" fill="#e3f2fd" stroke="#1565c0" stroke-width="2"/><text x="270" y="126.5" text-anchor="middle" font-weight="bold" fill="#1565c0">品質</text><rect x="60" y="359.8076211353316" width="120" height="44" rx="8" fill="#e8f5e9" stroke="#2e7d32" stroke-width="2"/><text x="120" y="386.3076211353316" text-anchor="middle" font-weight="bold" fill="#2e7d32">コスト</text><rect x="360" y="359.8076211353316" width="120" height="44" rx="8" fill="#fff8e1" stroke="#f57f17" stroke-width="2"/><text x="420" y="386.3076211353316" text-anchor="middle" font-weight="bold" fill="#f57f17">納期</text></svg>