<svg xmlns="http://www.w3.org/2000/svg" width="538" height="364" viewBox="0 0 538 364"><rect width="100%" height="100%" fill="white"/><style>text { font-family: sans-serif; font-size: 13px; fill: #333; }</style><text x="20" y="40" font-size="16" font-weight="bold">プログラミング言語人気ランキング</text><circle cx="36" cy="74" r="13" fill="#fff8e1"/><text x="36" y="79" text-anchor="middle" font-weight="bold" fill="#f57f17">1</text><text x="64" y="79" font-weight="bold">Python</text><rect x="156" y="61" width="300" height="26" rx="4" fill="#e3f2fd"/><text x="466" y="79" fill="#1565c0">28.1%</text><circle cx="36" cy="116" r="13" fill="#f5f5f5"/><text x="36" y="121" text-anchor="middle" font-weight="bold" fill="#757575">2</text><text x="64" y="121" font-weight="bold">JavaScript</text><rect x="156" y="103" width="185.7651245551601" height="26" rx="4" fill="#e3f2fd"/><text x="351.7651245551601" y="121" fill="#1565c0">17.4%</text><circle cx="36" cy="158" r="13" fill="#fff3e0"/><text x="36" y="163" text-anchor="middle" font-weight="bold" fill="#e65100">3</text><text x="64" y="163" font-weight="bold">Java</text><rect x="156" y="145" width="144.12811387900354" height="26" rx="4" fill="#e3f2fd"/><text x="310.12811387900354" y="163" fill="#1565c0">13.5%</text><circle cx="36" cy="200" r="13" fill="#f5f5f5"/><text x="36" y="205" text-anchor="middle" font-weight="bold" fill="#999">4</text><text x="64" y="205" font-weight="bold">TypeScript</text><rect x="156" y="187" width="98.220640569395" height="26" rx="4" fill="#e3f2fd"/><text x="264.220640569395" y="205" fill="#1565c0">9.2%</text><circle cx="36" cy="242" r="13" fill="#f5f5f5"/><text x="36" y="247" text-anchor="middle" font-weight="bold" fill="#999">5</text><text x="64" y="247" font-weight="bold">C++</text><rect x="156" y="229" width="83.27402135231317" height="26" rx="4" fill="#e3f2fd"/><text x="249.27402135231318" y="247" fill="#1565c0">7.8%</text><circle cx="36" cy="284" r="13" fill="#f5f5f5"/><text x="36" y="289" text-anchor="middle" font-weight="bold" fill="#999">6</text><text x="64" y="289" font-weight="bold">Rust</text><rect x="156" y="271" width="56.583629893238424" height="26" rx="4" fill="#e3f2fd"/><text x="222.58362989323842" y="289" fill="#1565c0">5.3%</text><circle cx="36" cy="326" r="13" fill="#f5f5f5"/><text x="36" y="331" text-anchor="middle" font-weight="bold" fill="#999">7</text><text x="64" y="331" font-weight="bold">Go</text><rect x="156" y="313" width="50.1779359430605" height="26" rx="4" fill="#e3f2fd"/><text x="216.1779359430605" y="331" fill="#1565c0">4.7%</text></svg>