<svg xmlns="http://www.w3.org/2000/svg" width="534" height="322" viewBox="0 0 534 322"><rect width="100%" height="100%" fill="white"/><style>text { font-family: sans-serif; font-size: 13px; fill: #333; }</style><text x="20" y="40" font-size="16" font-weight="bold">月間売上ランキング</text><circle cx="36" cy="74" r="13" fill="#fff8e1"/><text x="36" y="79" text-anchor="middle" font-weight="bold" fill="#f57f17">1</text><text x="64" y="79" font-weight="bold">営業一課</text><rect x="132" y="61" width="300" height="26" rx="4" fill="#e3f2fd"/><text x="442" y="79" fill="#1565c0">2450万円</text><circle cx="36" cy="116" r="13" fill="#f5f5f5"/><text x="36" y="121" text-anchor="middle" font-weight="bold" fill="#757575">2</text><text x="64" y="121" font-weight="bold">営業二課</text><rect x="132" y="103" width="222.85714285714286" height="26" rx="4" fill="#e3f2fd"/><text x="364.8571428571429" y="121" fill="#1565c0">1820万円</text><circle cx="36" cy="158" r="13" fill="#fff3e0"/><text x="36" y="163" text-anchor="middle" font-weight="bold" fill="#e65100">3</text><text x="64" y="163" font-weight="bold">営業三課</text><rect x="132" y="145" width="165.30612244897958" height="26" rx="4" fill="#e3f2fd"/><text x="307.3061224489796" y="163" fill="#1565c0">1350万円</text><circle cx="36" cy="200" r="13" fill="#f5f5f5"/><text x="36" y="205" text-anchor="middle" font-weight="bold" fill="#999">4</text><text x="64" y="205" font-weight="bold">営業四課</text><rect x="132" y="187" width="120" height="26" rx="4" fill="#e3f2fd"/><text x="262" y="205" fill="#1565c0">980万円</text><circle cx="36" cy="242" r="13" fill="#f5f5f5"/><text x="36" y="247" text-anchor="middle" font-weight="bold" fill="#999">5</text><text x="64" y="247" font-weight="bold">営業五課</text><rect x="132" y="229" width="88.16326530612245" height="26" rx="4" fill="#e3f2fd"/><text x="230.16326530612247" y="247" fill="#1565c0">720万円</text><circle cx="36" cy="284" r="13" fill="#f5f5f5"/><text x="36" y="289" text-anchor="middle" font-weight="bold" fill="#999">6</text><text x="64" y="289" font-weight="bold">営業六課</text><rect x="132" y="271" width="62.44897959183673" height="26" rx="4" fill="#e3f2fd"/><text x="204.44897959183675" y="289" fill="#1565c0">510万円</text></svg>