<svg xmlns="http://www.w3.org/2000/svg" width="486" height="244" viewBox="0 0 486 244"><rect width="100%" height="100%" fill="white"/><style>text { font-family: sans-serif; font-size: 13px; fill: #333; }</style><circle cx="36" cy="38" r="13" fill="#fff8e1"/><text x="36" y="43" text-anchor="middle" font-weight="bold" fill="#f57f17">1</text><text x="64" y="43" font-weight="bold">商品A</text><rect x="112" y="25" width="300" height="26" rx="4" fill="#e3f2fd"/><text x="422" y="43" fill="#1565c0">1500</text><circle cx="36" cy="80" r="13" fill="#f5f5f5"/><text x="36" y="85" text-anchor="middle" font-weight="bold" fill="#757575">2</text><text x="64" y="85" font-weight="bold">商品B</text><rect x="112" y="67" width="240" height="26" rx="4" fill="#e3f2fd"/><text x="362" y="85" fill="#1565c0">1200</text><circle cx="36" cy="122" r="13" fill="#fff3e0"/><text x="36" y="127" text-anchor="middle" font-weight="bold" fill="#e65100">3</text><text x="64" y="127" font-weight="bold">商品C</text><rect x="112" y="109" width="180" height="26" rx="4" fill="#e3f2fd"/><text x="302" y="127" fill="#1565c0">900</text><circle cx="36" cy="164" r="13" fill="#f5f5f5"/><text x="36" y="169" text-anchor="middle" font-weight="bold" fill="#999">4</text><text x="64" y="169" font-weight="bold">商品D</text><rect x="112" y="151" width="130" height="26" rx="4" fill="#e3f2fd"/><text x="252" y="169" fill="#1565c0">650</text><circle cx="36" cy="206" r="13" fill="#f5f5f5"/><text x="36" y="211" text-anchor="middle" font-weight="bold" fill="#999">5</text><text x="64" y="211" font-weight="bold">商品E</text><rect x="112" y="193" width="80" height="26" rx="4" fill="#e3f2fd"/><text x="202" y="211" fill="#1565c0">400</text></svg>