   Compiling mdd-table v0.1.0 (/Users/fujis/ghq/github-home/ppdx999/mdd/crates/mdd-table)
    Finished `dev` profile [unoptimized + debuginfo] target(s) in 0.13s
     Running `target/debug/mdd-table`
<svg xmlns="http://www.w3.org/2000/svg" width="486" height="316" viewBox="0 0 486 316"><rect width="100%" height="100%" fill="white"/><style>text { font-family: sans-serif; font-size: 13px; fill: #333; }</style><text x="243" y="58" text-anchor="middle" font-size="16" font-weight="bold">機能比較表</text><rect x="40" y="80" width="406" height="36" fill="#e8eaf6"/><text x="52" y="102.5" font-weight="bold" fill="#283593">機能</text><text x="146" y="102.5" font-weight="bold" fill="#283593">ベーシック</text><text x="240" y="102.5" font-weight="bold" fill="#283593">プロ</text><text x="322" y="102.5" font-weight="bold" fill="#283593">エンタープライズ</text><line x1="40" y1="116" x2="446" y2="116" stroke="#e0e0e0" stroke-width="1"/><rect x="40" y="116" width="406" height="32" fill="white"/><text x="52" y="136.5">ユーザー数</text><text x="146" y="136.5">5名まで</text><text x="240" y="136.5">50名まで</text><text x="322" y="136.5">無制限</text><line x1="40" y1="148" x2="446" y2="148" stroke="#e0e0e0" stroke-width="0.5"/><rect x="40" y="148" width="406" height="32" fill="#f5f5f5"/><text x="52" y="168.5">ストレージ</text><text x="146" y="168.5">10GB</text><text x="240" y="168.5">100GB</text><text x="322" y="168.5">1TB</text><line x1="40" y1="180" x2="446" y2="180" stroke="#e0e0e0" stroke-width="0.5"/><rect x="40" y="180" width="406" height="32" fill="white"/><text x="52" y="200.5">サポート</text><text x="146" y="200.5">メール</text><text x="240" y="200.5">チャット</text><text x="322" y="200.5">専任担当</text><line x1="40" y1="212" x2="446" y2="212" stroke="#e0e0e0" stroke-width="0.5"/><rect x="40" y="212" width="406" height="32" fill="#f5f5f5"/><text x="52" y="232.5">API</text><text x="146" y="232.5">なし</text><text x="240" y="232.5">あり</text><text x="322" y="232.5">あり</text><line x1="40" y1="244" x2="446" y2="244" stroke="#e0e0e0" stroke-width="0.5"/><rect x="40" y="244" width="406" height="32" fill="white"/><text x="52" y="264.5">SLA</text><text x="146" y="264.5">なし</text><text x="240" y="264.5">99.9%</text><text x="322" y="264.5">99.99%</text><line x1="40" y1="276" x2="446" y2="276" stroke="#e0e0e0" stroke-width="0.5"/><line x1="40" y1="80" x2="40" y2="276" stroke="#e0e0e0" stroke-width="1"/><line x1="134" y1="80" x2="134" y2="276" stroke="#e0e0e0" stroke-width="0.5"/><line x1="228" y1="80" x2="228" y2="276" stroke="#e0e0e0" stroke-width="0.5"/><line x1="310" y1="80" x2="310" y2="276" stroke="#e0e0e0" stroke-width="0.5"/><line x1="446" y1="80" x2="446" y2="276" stroke="#e0e0e0" stroke-width="1"/><rect x="40" y="80" width="406" height="196" fill="none" stroke="#e0e0e0" stroke-width="1"/></svg>