<svg xmlns="http://www.w3.org/2000/svg" width="444" height="284" viewBox="0 0 444 284"><rect width="100%" height="100%" fill="white"/><style>text { font-family: sans-serif; font-size: 13px; fill: #333; }</style><text x="222" y="58" text-anchor="middle" font-size="16" font-weight="bold">開発スケジュール</text><rect x="40" y="80" width="364" height="36" fill="#e8eaf6"/><text x="52" y="102.5" font-weight="bold" fill="#283593">フェーズ</text><text x="132" y="102.5" font-weight="bold" fill="#283593">期間</text><text x="212" y="102.5" font-weight="bold" fill="#283593">担当</text><text x="308" y="102.5" font-weight="bold" fill="#283593">成果物</text><line x1="40" y1="116" x2="404" y2="116" stroke="#e0e0e0" stroke-width="1"/><rect x="40" y="116" width="364" height="32" fill="white"/><text x="52" y="136.5">要件定義</text><text x="132" y="136.5">2週間</text><text x="212" y="136.5">PM</text><text x="308" y="136.5">要件定義書</text><line x1="40" y1="148" x2="404" y2="148" stroke="#e0e0e0" stroke-width="0.5"/><rect x="40" y="148" width="364" height="32" fill="#f5f5f5"/><text x="52" y="168.5">設計</text><text x="132" y="168.5">3週間</text><text x="212" y="168.5">Tech Lead</text><text x="308" y="168.5">設計書</text><line x1="40" y1="180" x2="404" y2="180" stroke="#e0e0e0" stroke-width="0.5"/><rect x="40" y="180" width="364" height="32" fill="white"/><text x="52" y="200.5">実装</text><text x="132" y="200.5">6週間</text><text x="212" y="200.5">開発チーム</text><text x="308" y="200.5">ソースコード</text><line x1="40" y1="212" x2="404" y2="212" stroke="#e0e0e0" stroke-width="0.5"/><rect x="40" y="212" width="364" height="32" fill="#f5f5f5"/><text x="52" y="232.5">テスト</text><text x="132" y="232.5">2週間</text><text x="212" y="232.5">QA</text><text x="308" y="232.5">テスト報告書</text><line x1="40" y1="244" x2="404" y2="244" stroke="#e0e0e0" stroke-width="0.5"/><line x1="40" y1="80" x2="40" y2="244" stroke="#e0e0e0" stroke-width="1"/><line x1="120" y1="80" x2="120" y2="244" stroke="#e0e0e0" stroke-width="0.5"/><line x1="200" y1="80" x2="200" y2="244" stroke="#e0e0e0" stroke-width="0.5"/><line x1="296" y1="80" x2="296" y2="244" stroke="#e0e0e0" stroke-width="0.5"/><line x1="404" y1="80" x2="404" y2="244" stroke="#e0e0e0" stroke-width="1"/><rect x="40" y="80" width="364" height="164" fill="none" stroke="#e0e0e0" stroke-width="1"/></svg>