<svg xmlns="http://www.w3.org/2000/svg" width="565.2307692307693" height="200" viewBox="0 0 565.2307692307693 200"><rect width="100%" height="100%" fill="white"/><style>text { font-family: sans-serif; font-size: 13px; fill: #333; }</style><text x="282.61538461538464" y="58" text-anchor="middle" font-size="16" font-weight="bold">サービス一覧</text><rect x="40" y="80" width="150.46153846153845" height="80" rx="8" fill="white" stroke="#e0e0e0" stroke-width="1"/><clipPath id="clip-card-0"><rect x="40" y="80" width="150.46153846153845" height="80" rx="8"/></clipPath><rect x="40" y="80" width="150.46153846153845" height="4" fill="#1565c0" clip-path="url(#clip-card-0)"/><text x="115.23076923076923" y="116" text-anchor="middle" font-weight="bold">コンサルティング</text><text x="115.23076923076923" y="132" text-anchor="middle" font-size="11" fill="#666">戦略立案から実行支援</text><rect x="202.46153846153845" y="80" width="170.76923076923077" height="80" rx="8" fill="white" stroke="#e0e0e0" stroke-width="1"/><clipPath id="clip-card-1"><rect x="202.46153846153845" y="80" width="170.76923076923077" height="80" rx="8"/></clipPath><rect x="202.46153846153845" y="80" width="170.76923076923077" height="4" fill="#2e7d32" clip-path="url(#clip-card-1)"/><text x="287.8461538461538" y="116" text-anchor="middle" font-weight="bold">開発</text><text x="287.8461538461538" y="132" text-anchor="middle" font-size="11" fill="#666">Webアプリ・モバイル開発</text><rect x="385.2307692307692" y="80" width="140" height="80" rx="8" fill="white" stroke="#e0e0e0" stroke-width="1"/><clipPath id="clip-card-2"><rect x="385.2307692307692" y="80" width="140" height="80" rx="8"/></clipPath><rect x="385.2307692307692" y="80" width="140" height="4" fill="#f57f17" clip-path="url(#clip-card-2)"/><text x="455.2307692307692" y="116" text-anchor="middle" font-weight="bold">運用</text><text x="455.2307692307692" y="132" text-anchor="middle" font-size="11" fill="#666">24/7監視・保守</text></svg>