<svg xmlns="http://www.w3.org/2000/svg" width="686.4615384615385" height="200" viewBox="0 0 686.4615384615385 200"><rect width="100%" height="100%" fill="white"/><style>text { font-family: sans-serif; font-size: 13px; fill: #333; }</style><text x="343.2307692307692" y="58" text-anchor="middle" font-size="16" font-weight="bold">企業バリュー</text><rect x="40" y="80" width="150.46153846153845" height="80" rx="8" fill="white" stroke="#e0e0e0" stroke-width="1"/><clipPath id="clip-card-0"><rect x="40" y="80" width="150.46153846153845" height="80" rx="8"/></clipPath><rect x="40" y="80" width="150.46153846153845" height="4" fill="#1565c0" clip-path="url(#clip-card-0)"/><text x="115.23076923076923" y="116" text-anchor="middle" font-weight="bold">挑戦</text><text x="115.23076923076923" y="132" text-anchor="middle" font-size="11" fill="#666">失敗を恐れず挑戦する</text><rect x="202.46153846153845" y="80" width="140" height="80" rx="8" fill="white" stroke="#e0e0e0" stroke-width="1"/><clipPath id="clip-card-1"><rect x="202.46153846153845" y="80" width="140" height="80" rx="8"/></clipPath><rect x="202.46153846153845" y="80" width="140" height="4" fill="#2e7d32" clip-path="url(#clip-card-1)"/><text x="272.46153846153845" y="116" text-anchor="middle" font-weight="bold">誠実</text><text x="272.46153846153845" y="132" text-anchor="middle" font-size="11" fill="#666">正直であり続ける</text><rect x="354.46153846153845" y="80" width="140" height="80" rx="8" fill="white" stroke="#e0e0e0" stroke-width="1"/><clipPath id="clip-card-2"><rect x="354.46153846153845" y="80" width="140" height="80" rx="8"/></clipPath><rect x="354.46153846153845" y="80" width="140" height="4" fill="#f57f17" clip-path="url(#clip-card-2)"/><text x="424.46153846153845" y="116" text-anchor="middle" font-weight="bold">協力</text><text x="424.46153846153845" y="132" text-anchor="middle" font-size="11" fill="#666">チームで成果を出す</text><rect x="506.46153846153845" y="80" width="140" height="80" rx="8" fill="white" stroke="#e0e0e0" stroke-width="1"/><clipPath id="clip-card-3"><rect x="506.46153846153845" y="80" width="140" height="80" rx="8"/></clipPath><rect x="506.46153846153845" y="80" width="140" height="4" fill="#7b1fa2" clip-path="url(#clip-card-3)"/><text x="576.4615384615385" y="116" text-anchor="middle" font-weight="bold">成長</text><text x="576.4615384615385" y="132" text-anchor="middle" font-size="11" fill="#666">学び続ける</text></svg>