<svg xmlns="http://www.w3.org/2000/svg" width="764" height="488" viewBox="0 0 764 488"><rect width="100%" height="100%" fill="white"/><style>text { font-family: sans-serif; font-size: 13px; fill: #333; }</style><rect x="24" y="24" width="333.2" height="252" rx="6" fill="#fafafa" stroke="#e0e0e0" stroke-width="1"/><text x="36" y="46.4" font-weight="bold" font-size="13" fill="#555">ユーザー管理</text><rect x="28" y="68" width="325.2" height="36" rx="4" fill="#ffffff" stroke="#eee" stroke-width="0.5"/><rect x="36" y="75" width="60" height="22" rx="4" fill="#e8f5e9" stroke="#2e7d32" stroke-width="1"/><text x="66" y="90" text-anchor="middle" font-size="11" font-weight="bold" fill="#2e7d32">GET</text><text x="108" y="90.375" font-family="monospace" font-size="12.5" fill="#333">/api/users</text><text x="202" y="90" font-size="12" fill="#666">ユーザー一覧取得</text><rect x="28" y="108" width="325.2" height="36" rx="4" fill="#ffffff" stroke="#eee" stroke-width="0.5"/><rect x="36" y="115" width="60" height="22" rx="4" fill="#e8f5e9" stroke="#2e7d32" stroke-width="1"/><text x="66" y="130" text-anchor="middle" font-size="11" font-weight="bold" fill="#2e7d32">GET</text><text x="108" y="130.375" font-family="monospace" font-size="12.5" fill="#333">/api/users/:id</text><text x="233.2" y="130" font-size="12" fill="#666">ユーザー詳細取得</text><rect x="28" y="148" width="325.2" height="36" rx="4" fill="#ffffff" stroke="#eee" stroke-width="0.5"/><rect x="36" y="155" width="60" height="22" rx="4" fill="#e3f2fd" stroke="#1565c0" stroke-width="1"/><text x="66" y="170" text-anchor="middle" font-size="11" font-weight="bold" fill="#1565c0">POST</text><text x="108" y="170.375" font-family="monospace" font-size="12.5" fill="#333">/api/users</text><text x="202" y="170" font-size="12" fill="#666">ユーザー作成</text><rect x="28" y="188" width="325.2" height="36" rx="4" fill="#ffffff" stroke="#eee" stroke-width="0.5"/><rect x="36" y="195" width="60" height="22" rx="4" fill="#fff8e1" stroke="#f57f17" stroke-width="1"/><text x="66" y="210" text-anchor="middle" font-size="11" font-weight="bold" fill="#f57f17">PUT</text><text x="108" y="210.375" font-family="monospace" font-size="12.5" fill="#333">/api/users/:id</text><text x="233.2" y="210" font-size="12" fill="#666">ユーザー更新</text><rect x="28" y="228" width="325.2" height="36" rx="4" fill="#ffffff" stroke="#eee" stroke-width="0.5"/><rect x="36" y="235" width="60" height="22" rx="4" fill="#ffebee" stroke="#c62828" stroke-width="1"/><text x="66" y="250" text-anchor="middle" font-size="11" font-weight="bold" fill="#c62828">DELETE</text><text x="108" y="250.375" font-family="monospace" font-size="12.5" fill="#333">/api/users/:id</text><text x="233.2" y="250" font-size="12" fill="#666">ユーザー削除</text><rect x="377.2" y="24" width="362.8" height="172" rx="6" fill="#fafafa" stroke="#e0e0e0" stroke-width="1"/><text x="389.2" y="46.4" font-weight="bold" font-size="13" fill="#555">認証</text><rect x="381.2" y="68" width="354.8" height="36" rx="4" fill="#ffffff" stroke="#eee" stroke-width="0.5"/><rect x="389.2" y="75" width="60" height="22" rx="4" fill="#e3f2fd" stroke="#1565c0" stroke-width="1"/><text x="419.2" y="90" text-anchor="middle" font-size="11" font-weight="bold" fill="#1565c0">POST</text><text x="461.2" y="90.375" font-family="monospace" font-size="12.5" fill="#333">/api/auth/login</text><text x="594.2" y="90" font-size="12" fill="#666">ログイン</text><rect x="381.2" y="108" width="354.8" height="36" rx="4" fill="#ffffff" stroke="#eee" stroke-width="0.5"/><rect x="389.2" y="115" width="60" height="22" rx="4" fill="#e3f2fd" stroke="#1565c0" stroke-width="1"/><text x="419.2" y="130" text-anchor="middle" font-size="11" font-weight="bold" fill="#1565c0">POST</text><text x="461.2" y="130.375" font-family="monospace" font-size="12.5" fill="#333">/api/auth/logout</text><text x="602" y="130" font-size="12" fill="#666">ログアウト</text><rect x="381.2" y="148" width="354.8" height="36" rx="4" fill="#ffffff" stroke="#eee" stroke-width="0.5"/><rect x="389.2" y="155" width="60" height="22" rx="4" fill="#e8f5e9" stroke="#2e7d32" stroke-width="1"/><text x="419.2" y="170" text-anchor="middle" font-size="11" font-weight="bold" fill="#2e7d32">GET</text><text x="461.2" y="170.375" font-family="monospace" font-size="12.5" fill="#333">/api/auth/me</text><text x="570.8" y="170" font-size="12" fill="#666">現在のユーザー取得</text><rect x="377.2" y="212" width="362.8" height="252" rx="6" fill="#fafafa" stroke="#e0e0e0" stroke-width="1"/><text x="389.2" y="234.4" font-weight="bold" font-size="13" fill="#555">商品</text><rect x="381.2" y="256" width="354.8" height="36" rx="4" fill="#ffffff" stroke="#eee" stroke-width="0.5"/><rect x="389.2" y="263" width="60" height="22" rx="4" fill="#e8f5e9" stroke="#2e7d32" stroke-width="1"/><text x="419.2" y="278" text-anchor="middle" font-size="11" font-weight="bold" fill="#2e7d32">GET</text><text x="461.2" y="278.375" font-family="monospace" font-size="12.5" fill="#333">/api/products</text><text x="578.6" y="278" font-size="12" fill="#666">商品一覧</text><rect x="381.2" y="296" width="354.8" height="36" rx="4" fill="#ffffff" stroke="#eee" stroke-width="0.5"/><rect x="389.2" y="303" width="60" height="22" rx="4" fill="#e8f5e9" stroke="#2e7d32" stroke-width="1"/><text x="419.2" y="318" text-anchor="middle" font-size="11" font-weight="bold" fill="#2e7d32">GET</text><text x="461.2" y="318.375" font-family="monospace" font-size="12.5" fill="#333">/api/products/:id</text><text x="609.8" y="318" font-size="12" fill="#666">商品詳細</text><rect x="381.2" y="336" width="354.8" height="36" rx="4" fill="#ffffff" stroke="#eee" stroke-width="0.5"/><rect x="389.2" y="343" width="60" height="22" rx="4" fill="#e3f2fd" stroke="#1565c0" stroke-width="1"/><text x="419.2" y="358" text-anchor="middle" font-size="11" font-weight="bold" fill="#1565c0">POST</text><text x="461.2" y="358.375" font-family="monospace" font-size="12.5" fill="#333">/api/products</text><text x="578.6" y="358" font-size="12" fill="#666">商品登録</text><rect x="381.2" y="376" width="354.8" height="36" rx="4" fill="#ffffff" stroke="#eee" stroke-width="0.5"/><rect x="389.2" y="383" width="60" height="22" rx="4" fill="#f3e5f5" stroke="#7b1fa2" stroke-width="1"/><text x="419.2" y="398" text-anchor="middle" font-size="11" font-weight="bold" fill="#7b1fa2">PATCH</text><text x="461.2" y="398.375" font-family="monospace" font-size="12.5" fill="#333">/api/products/:id</text><text x="609.8" y="398" font-size="12" fill="#666">商品部分更新</text><rect x="381.2" y="416" width="354.8" height="36" rx="4" fill="#ffffff" stroke="#eee" stroke-width="0.5"/><rect x="389.2" y="423" width="60" height="22" rx="4" fill="#ffebee" stroke="#c62828" stroke-width="1"/><text x="419.2" y="438" text-anchor="middle" font-size="11" font-weight="bold" fill="#c62828">DELETE</text><text x="461.2" y="438.375" font-family="monospace" font-size="12.5" fill="#333">/api/products/:id</text><text x="609.8" y="438" font-size="12" fill="#666">商品削除</text></svg>