<svg xmlns="http://www.w3.org/2000/svg" width="598" height="250" viewBox="0 0 598 250"><rect width="100%" height="100%" fill="white"/><style>text { font-family: sans-serif; font-size: 13px; fill: #333; }</style><text x="299" y="58" text-anchor="middle" font-size="16" font-weight="bold">チーム役割</text><rect x="40" y="80" width="160" height="130" rx="8" fill="#e3f2fd" stroke="#1565c0" stroke-width="1"/><rect x="40" y="80" width="160" height="36" rx="8" fill="#1565c0"/><rect x="40" y="98" width="160" height="18" fill="#1565c0"/><text x="120" y="103" text-anchor="middle" fill="white" font-weight="bold">開発</text><circle cx="56" cy="137" r="3" fill="#1565c0"/><text x="64" y="141">フロントエンド</text><circle cx="56" cy="163" r="3" fill="#1565c0"/><text x="64" y="167">バックエンド</text><circle cx="56" cy="189" r="3" fill="#1565c0"/><text x="64" y="193">インフラ</text><rect x="216" y="80" width="166" height="130" rx="8" fill="#e8f5e9" stroke="#2e7d32" stroke-width="1"/><rect x="216" y="80" width="166" height="36" rx="8" fill="#2e7d32"/><rect x="216" y="98" width="166" height="18" fill="#2e7d32"/><text x="299" y="103" text-anchor="middle" fill="white" font-weight="bold">ビジネス</text><circle cx="232" cy="137" r="3" fill="#2e7d32"/><text x="240" y="141">営業</text><circle cx="232" cy="163" r="3" fill="#2e7d32"/><text x="240" y="167">マーケティング</text><circle cx="232" cy="189" r="3" fill="#2e7d32"/><text x="240" y="193">カスタマーサポート</text><rect x="398" y="80" width="160" height="130" rx="8" fill="#fff8e1" stroke="#f57f17" stroke-width="1"/><rect x="398" y="80" width="160" height="36" rx="8" fill="#f57f17"/><rect x="398" y="98" width="160" height="18" fill="#f57f17"/><text x="478" y="103" text-anchor="middle" fill="white" font-weight="bold">管理</text><circle cx="414" cy="137" r="3" fill="#f57f17"/><text x="422" y="141">人事</text><circle cx="414" cy="163" r="3" fill="#f57f17"/><text x="422" y="167">経理</text><circle cx="414" cy="189" r="3" fill="#f57f17"/><text x="422" y="193">法務</text></svg>