<svg xmlns="http://www.w3.org/2000/svg" width="416" height="250" viewBox="0 0 416 250"><rect width="100%" height="100%" fill="white"/><style>text { font-family: sans-serif; font-size: 13px; fill: #333; }</style><text x="208" y="58" text-anchor="middle" font-size="16" font-weight="bold">技術スタック</text><rect x="40" y="80" width="160" height="130" rx="8" fill="#f0f7ff" stroke="#90caf9" stroke-width="1"/><rect x="40" y="80" width="160" height="36" rx="8" fill="#90caf9"/><rect x="40" y="98" width="160" height="18" fill="#90caf9"/><text x="120" y="103" text-anchor="middle" fill="#1565c0" font-weight="bold">フロントエンド</text><circle cx="56" cy="137" r="3" fill="#1565c0"/><text x="64" y="141">React</text><circle cx="56" cy="163" r="3" fill="#1565c0"/><text x="64" y="167">TypeScript</text><circle cx="56" cy="189" r="3" fill="#1565c0"/><text x="64" y="193">Tailwind CSS</text><rect x="216" y="80" width="160" height="130" rx="8" fill="#f0f9f1" stroke="#a5d6a7" stroke-width="1"/><rect x="216" y="80" width="160" height="36" rx="8" fill="#a5d6a7"/><rect x="216" y="98" width="160" height="18" fill="#a5d6a7"/><text x="296" y="103" text-anchor="middle" fill="#2e7d32" font-weight="bold">バックエンド</text><circle cx="232" cy="137" r="3" fill="#2e7d32"/><text x="240" y="141">Rust</text><circle cx="232" cy="163" r="3" fill="#2e7d32"/><text x="240" y="167">PostgreSQL</text><circle cx="232" cy="189" r="3" fill="#2e7d32"/><text x="240" y="193">Redis</text></svg>