<svg xmlns="http://www.w3.org/2000/svg" width="570" height="610" viewBox="0 0 570 610"><rect width="100%" height="100%" fill="white"/><style>text { font-family: sans-serif; font-size: 13px; fill: #333; }</style><text x="285" y="78" text-anchor="middle" font-size="16" font-weight="bold">ステークホルダー</text><line x1="285" y1="325" x2="285" y2="165" stroke="#bdbdbd" stroke-width="2"/><line x1="285" y1="325" x2="423.56406460551017" y2="245" stroke="#bdbdbd" stroke-width="2"/><line x1="285" y1="325" x2="423.5640646055102" y2="405" stroke="#bdbdbd" stroke-width="2"/><line x1="285" y1="325" x2="285" y2="485" stroke="#bdbdbd" stroke-width="2"/><line x1="285" y1="325" x2="146.43593539448983" y2="405.00000000000006" stroke="#bdbdbd" stroke-width="2"/><line x1="285" y1="325" x2="146.43593539448983" y2="245" stroke="#bdbdbd" stroke-width="2"/><rect x="225" y="303" width="120" height="44" rx="8" fill="#e8eaf6" stroke="#283593" stroke-width="2"/><text x="285" y="330.5" text-anchor="middle" font-size="15" font-weight="bold" fill="#283593">プロジェクト</text><rect x="245" y="147" width="80" height="36" rx="8" fill="#e3f2fd" stroke="#1565c0" stroke-width="1.5"/><text x="285" y="169.5" text-anchor="middle" fill="#1565c0">顧客</text><rect x="372.56406460551017" y="227" width="102" height="36" rx="8" fill="#e8f5e9" stroke="#2e7d32" stroke-width="1.5"/><text x="423.56406460551017" y="249.5" text-anchor="middle" fill="#2e7d32">開発チーム</text><rect x="383.5640646055102" y="387" width="80" height="36" rx="8" fill="#fff8e1" stroke="#f57f17" stroke-width="1.5"/><text x="423.5640646055102" y="409.5" text-anchor="middle" fill="#f57f17">経営層</text><rect x="234" y="467" width="102" height="36" rx="8" fill="#f3e5f5" stroke="#7b1fa2" stroke-width="1.5"/><text x="285" y="489.5" text-anchor="middle" fill="#7b1fa2">パートナー</text><rect x="102.43593539448983" y="387.00000000000006" width="88" height="36" rx="8" fill="#e0f2f1" stroke="#00695c" stroke-width="1.5"/><text x="146.43593539448983" y="409.50000000000006" text-anchor="middle" fill="#00695c">規制当局</text><rect x="81.43593539448983" y="227" width="130" height="36" rx="8" fill="#fce4ec" stroke="#c62828" stroke-width="1.5"/><text x="146.43593539448983" y="249.5" text-anchor="middle" fill="#c62828">エンドユーザー</text></svg>