<svg xmlns="http://www.w3.org/2000/svg" width="766" height="320" viewBox="0 0 766 320"><rect width="100%" height="100%" fill="white"/><style>text { font-family: sans-serif; font-size: 13px; fill: #333; }</style><text x="290" y="58" text-anchor="middle" font-size="16" font-weight="bold">戦略ピラミッド</text><polygon points="290.0,80.0 352.5,130.0 227.5,130.0" fill="#e3f2fd" stroke="white" stroke-width="2"/><text x="290" y="110" text-anchor="middle" fill="#1565c0" font-weight="bold">ビジョン</text><line x1="352.5" y1="105" x2="562" y2="105" stroke="#ccc" stroke-width="1"/><circle cx="352.5" cy="105" r="2.5" fill="#1565c0"/><text x="570" y="109.2" font-size="12" fill="#666">企業の存在意義</text><polygon points="227.5,130.0 352.5,130.0 415.0,180.0 165.0,180.0" fill="#e8f5e9" stroke="white" stroke-width="2"/><text x="290" y="160" text-anchor="middle" fill="#2e7d32" font-weight="bold">戦略</text><line x1="415" y1="155" x2="562" y2="155" stroke="#ccc" stroke-width="1"/><circle cx="415" cy="155" r="2.5" fill="#2e7d32"/><text x="570" y="159.2" font-size="12" fill="#666">長期的な方向性</text><polygon points="165.0,180.0 415.0,180.0 477.5,230.0 102.5,230.0" fill="#fff8e1" stroke="white" stroke-width="2"/><text x="290" y="210" text-anchor="middle" fill="#f57f17" font-weight="bold">戦術</text><line x1="477.5" y1="205" x2="562" y2="205" stroke="#ccc" stroke-width="1"/><circle cx="477.5" cy="205" r="2.5" fill="#f57f17"/><text x="570" y="209.2" font-size="12" fill="#666">四半期の施策</text><polygon points="102.5,230.0 477.5,230.0 540.0,280.0 40.0,280.0" fill="#f3e5f5" stroke="white" stroke-width="2"/><text x="290" y="260" text-anchor="middle" fill="#7b1fa2" font-weight="bold">実行</text><line x1="540" y1="255" x2="562" y2="255" stroke="#ccc" stroke-width="1"/><circle cx="540" cy="255" r="2.5" fill="#7b1fa2"/><text x="570" y="259.2" font-size="12" fill="#666">日々のオペレーション</text></svg>