<svg xmlns="http://www.w3.org/2000/svg" width="757.0392609564958" height="394.84696026343744" viewBox="0 0 757.0392609564958 394.84696026343744"><rect width="100%" height="100%" fill="white"/><style>text { font-family: sans-serif; font-size: 13px; fill: #333; }</style><defs><marker id="arrow" viewBox="0 0 10 10" refX="10" refY="5" markerWidth="8" markerHeight="8" orient="auto"><polygon points="0,1 10,5 0,9" fill="#666"/></marker></defs><rect x="559.0392609564958" y="40" width="158" height="98" rx="6" fill="#ffffff" stroke="#1565c0" stroke-width="1.5" filter="drop-shadow(2px 2px 3px rgba(0,0,0,0.15))"/><clipPath id="clip-559.0392609564958-40"><rect x="559.0392609564958" y="40" width="158" height="28" rx="6" /></clipPath><rect x="559.0392609564958" y="40" width="158" height="28" fill="#e3f2fd" clip-path="url(#clip-559.0392609564958-40)"/><line x1="559.0392609564958" y1="68" x2="717.0392609564958" y2="68" stroke="#1565c0" stroke-width="0.5"/><circle cx="573.0392609564958" cy="54" r="4" fill="#90caf9"/><circle cx="587.0392609564958" cy="54" r="4" fill="#90caf9"/><circle cx="601.0392609564958" cy="54" r="4" fill="#90caf9"/><text x="615.0392609564958" y="59" font-weight="bold" fill="#1565c0">ログイン</text><circle cx="575.0392609564958" cy="85.5" r="2" fill="#555"/><text x="585.0392609564958" y="89.5" font-size="12" fill="#555">メールアドレス入力</text><circle cx="575.0392609564958" cy="103.5" r="2" fill="#555"/><text x="585.0392609564958" y="107.5" font-size="12" fill="#555">パスワード入力</text><circle cx="575.0392609564958" cy="121.5" r="2" fill="#555"/><text x="585.0392609564958" y="125.5" font-size="12" fill="#555">ログインボタン</text><rect x="333.46631068592956" y="148.42348013171872" width="140" height="98" rx="6" fill="#ffffff" stroke="#1565c0" stroke-width="1.5" filter="drop-shadow(2px 2px 3px rgba(0,0,0,0.15))"/><clipPath id="clip-333.46631068592956-148.42348013171872"><rect x="333.46631068592956" y="148.42348013171872" width="140" height="28" rx="6" /></clipPath><rect x="333.46631068592956" y="148.42348013171872" width="140" height="28" fill="#e3f2fd" clip-path="url(#clip-333.46631068592956-148.42348013171872)"/><line x1="333.46631068592956" y1="176.42348013171872" x2="473.46631068592956" y2="176.42348013171872" stroke="#1565c0" stroke-width="0.5"/><circle cx="347.46631068592956" cy="162.42348013171872" r="4" fill="#90caf9"/><circle cx="361.46631068592956" cy="162.42348013171872" r="4" fill="#90caf9"/><circle cx="375.46631068592956" cy="162.42348013171872" r="4" fill="#90caf9"/><text x="389.46631068592956" y="167.42348013171872" font-weight="bold" fill="#1565c0">ホーム</text><circle cx="349.46631068592956" cy="193.92348013171872" r="2" fill="#555"/><text x="359.46631068592956" y="197.92348013171872" font-size="12" fill="#555">ダッシュボード</text><circle cx="349.46631068592956" cy="211.92348013171872" r="2" fill="#555"/><text x="359.46631068592956" y="215.92348013171872" font-size="12" fill="#555">お知らせ一覧</text><circle cx="349.46631068592956" cy="229.92348013171872" r="2" fill="#555"/><text x="359.46631068592956" y="233.92348013171872" font-size="12" fill="#555">メニュー</text><rect x="566.0392609564958" y="256.84696026343744" width="144" height="98" rx="6" fill="#ffffff" stroke="#1565c0" stroke-width="1.5" filter="drop-shadow(2px 2px 3px rgba(0,0,0,0.15))"/><clipPath id="clip-566.0392609564958-256.84696026343744"><rect x="566.0392609564958" y="256.84696026343744" width="144" height="28" rx="6" /></clipPath><rect x="566.0392609564958" y="256.84696026343744" width="144" height="28" fill="#e3f2fd" clip-path="url(#clip-566.0392609564958-256.84696026343744)"/><line x1="566.0392609564958" y1="284.84696026343744" x2="710.0392609564958" y2="284.84696026343744" stroke="#1565c0" stroke-width="0.5"/><circle cx="580.0392609564958" cy="270.84696026343744" r="4" fill="#90caf9"/><circle cx="594.0392609564958" cy="270.84696026343744" r="4" fill="#90caf9"/><circle cx="608.0392609564958" cy="270.84696026343744" r="4" fill="#90caf9"/><text x="622.0392609564958" y="275.84696026343744" font-weight="bold" fill="#1565c0">設定</text><circle cx="582.0392609564958" cy="302.34696026343744" r="2" fill="#555"/><text x="592.0392609564958" y="306.34696026343744" font-size="12" fill="#555">プロフィール編集</text><circle cx="582.0392609564958" cy="320.34696026343744" r="2" fill="#555"/><text x="592.0392609564958" y="324.34696026343744" font-size="12" fill="#555">通知設定</text><circle cx="582.0392609564958" cy="338.34696026343744" r="2" fill="#555"/><text x="592.0392609564958" y="342.34696026343744" font-size="12" fill="#555">ログアウト</text><rect x="40" y="148.42348013171872" width="156" height="98" rx="6" fill="#ffffff" stroke="#1565c0" stroke-width="1.5" filter="drop-shadow(2px 2px 3px rgba(0,0,0,0.15))"/><clipPath id="clip-40-148.42348013171872"><rect x="40" y="148.42348013171872" width="156" height="28" rx="6" /></clipPath><rect x="40" y="148.42348013171872" width="156" height="28" fill="#e3f2fd" clip-path="url(#clip-40-148.42348013171872)"/><line x1="40" y1="176.42348013171872" x2="196" y2="176.42348013171872" stroke="#1565c0" stroke-width="0.5"/><circle cx="54" cy="162.42348013171872" r="4" fill="#90caf9"/><circle cx="68" cy="162.42348013171872" r="4" fill="#90caf9"/><circle cx="82" cy="162.42348013171872" r="4" fill="#90caf9"/><text x="96" y="167.42348013171872" font-weight="bold" fill="#1565c0">プロフィール</text><circle cx="56" cy="193.92348013171872" r="2" fill="#555"/><text x="66" y="197.92348013171872" font-size="12" fill="#555">アバター</text><circle cx="56" cy="211.92348013171872" r="2" fill="#555"/><text x="66" y="215.92348013171872" font-size="12" fill="#555">ユーザー名</text><circle cx="56" cy="229.92348013171872" r="2" fill="#555"/><text x="66" y="233.92348013171872" font-size="12" fill="#555">自己紹介</text><path d="M559.0392609564958,99.54915928178849 Q503.9701667711863,106.9027370800751 457.87029348761695,148.42348013171872" fill="none" stroke="#666" stroke-width="1.5" marker-end="url(#arrow)"/><rect x="461.21247199662133" y="103.44452839341434" width="90" height="16" rx="3" fill="white" opacity="0.85"/><text x="506.21247199662133" y="115.44452839341434" text-anchor="middle" font-size="11" fill="#666">ログイン成功</text><path d="M457.87029348761695,246.42348013171872 Q503.9701667711863,287.94422318336234 566.0392609564958,296.2325366142125" fill="none" stroke="#666" stroke-width="1.5" marker-end="url(#arrow)"/><rect x="441.96247199662133" y="267.63611577816397" width="132" height="16" rx="3" fill="white" opacity="0.85"/><text x="507.96247199662133" y="279.63611577816397" text-anchor="middle" font-size="11" fill="#666">設定アイコンタップ</text><path d="M333.46631068592956,177.8064542678117 Q260.7331553429648,157.42348013171872 196,175.56450845479372" fill="none" stroke="#666" stroke-width="1.5" marker-end="url(#arrow)"/><rect x="203.73315534296478" y="155.0544807465107" width="118" height="16" rx="3" fill="white" opacity="0.85"/><text x="262.7331553429648" y="167.0544807465107" text-anchor="middle" font-size="11" fill="#666">プロフィール表示</text><path d="M599.0800659128622,256.84696026343744 Q548.0245417775055,192.63309034567862 473.46631068592956,195.10381087116738" fill="none" stroke="#666" stroke-width="1.5" marker-end="url(#arrow)"/><rect x="525.1488650384507" y="197.30423795649054" width="34" height="16" rx="3" fill="white" opacity="0.85"/><text x="542.1488650384507" y="209.30423795649054" text-anchor="middle" font-size="11" fill="#666">戻る</text><path d="M717.0392609564958,69.4 C752.0392609564958,54.400000000000006 752.0392609564958,123.6 717.0392609564958,108.6" fill="none" stroke="#666" stroke-width="1.5" marker-end="url(#arrow)"/><text x="758.0392609564958" y="93" font-size="11" fill="#666">バリデーションエラー</text><path d="M656.116526117316,256.84696026343744 Q678.0392609564958,197.42348013171872 656.116526117316,138" fill="none" stroke="#666" stroke-width="1.5" marker-end="url(#arrow)"/><rect x="629.0778935369059" y="185.42348013171872" width="76" height="16" rx="3" fill="white" opacity="0.85"/><text x="667.0778935369059" y="197.42348013171872" text-anchor="middle" font-size="11" fill="#666">ログアウト</text></svg>