<svg xmlns="http://www.w3.org/2000/svg" width="420" height="454" viewBox="0 0 420 454"><rect width="100%" height="100%" fill="white"/><style>text { font-family: sans-serif; font-size: 13px; fill: #333; }</style><defs><marker id="arrow" viewBox="0 0 10 10" refX="10" refY="5" markerWidth="8" markerHeight="8" orient="auto"><polygon points="0,1 10,5 0,9" fill="#666"/></marker></defs><rect x="67.7079194214492" y="40" width="158" height="98" rx="6" fill="#ffffff" stroke="#1565c0" stroke-width="1.5" filter="drop-shadow(2px 2px 3px rgba(0,0,0,0.15))"/><clipPath id="clip-67.7079194214492-40"><rect x="67.7079194214492" y="40" width="158" height="28" rx="6" /></clipPath><rect x="67.7079194214492" y="40" width="158" height="28" fill="#e3f2fd" clip-path="url(#clip-67.7079194214492-40)"/><line x1="67.7079194214492" y1="68" x2="225.70791942144922" y2="68" stroke="#1565c0" stroke-width="0.5"/><circle cx="81.7079194214492" cy="54" r="4" fill="#90caf9"/><circle cx="95.7079194214492" cy="54" r="4" fill="#90caf9"/><circle cx="109.7079194214492" cy="54" r="4" fill="#90caf9"/><text x="123.7079194214492" y="59" font-weight="bold" fill="#1565c0">ログイン</text><circle cx="83.7079194214492" cy="85.5" r="2" fill="#555"/><text x="93.7079194214492" y="89.5" font-size="12" fill="#555">メールアドレス入力</text><circle cx="83.7079194214492" cy="103.5" r="2" fill="#555"/><text x="93.7079194214492" y="107.5" font-size="12" fill="#555">パスワード入力</text><circle cx="83.7079194214492" cy="121.5" r="2" fill="#555"/><text x="93.7079194214492" y="125.5" font-size="12" fill="#555">ログインボタン</text><rect x="111.41583884300395" y="178" width="140" height="98" rx="6" fill="#ffffff" stroke="#1565c0" stroke-width="1.5" filter="drop-shadow(2px 2px 3px rgba(0,0,0,0.15))"/><clipPath id="clip-111.41583884300395-178"><rect x="111.41583884300395" y="178" width="140" height="28" rx="6" /></clipPath><rect x="111.41583884300395" y="178" width="140" height="28" fill="#e3f2fd" clip-path="url(#clip-111.41583884300395-178)"/><line x1="111.41583884300395" y1="206" x2="251.41583884300394" y2="206" stroke="#1565c0" stroke-width="0.5"/><circle cx="125.41583884300395" cy="192" r="4" fill="#90caf9"/><circle cx="139.41583884300394" cy="192" r="4" fill="#90caf9"/><circle cx="153.41583884300394" cy="192" r="4" fill="#90caf9"/><text x="167.41583884300394" y="197" font-weight="bold" fill="#1565c0">ホーム</text><circle cx="127.41583884300395" cy="223.5" r="2" fill="#555"/><text x="137.41583884300394" y="227.5" font-size="12" fill="#555">ダッシュボード</text><circle cx="127.41583884300395" cy="241.5" r="2" fill="#555"/><text x="137.41583884300394" y="245.5" font-size="12" fill="#555">お知らせ一覧</text><circle cx="127.41583884300395" cy="259.5" r="2" fill="#555"/><text x="137.41583884300394" y="263.5" font-size="12" fill="#555">メニュー</text><rect x="40" y="316" width="144" height="98" rx="6" fill="#ffffff" stroke="#1565c0" stroke-width="1.5" filter="drop-shadow(2px 2px 3px rgba(0,0,0,0.15))"/><clipPath id="clip-40-316"><rect x="40" y="316" width="144" height="28" rx="6" /></clipPath><rect x="40" y="316" width="144" height="28" fill="#e3f2fd" clip-path="url(#clip-40-316)"/><line x1="40" y1="344" x2="184" y2="344" stroke="#1565c0" stroke-width="0.5"/><circle cx="54" cy="330" r="4" fill="#90caf9"/><circle cx="68" cy="330" r="4" fill="#90caf9"/><circle cx="82" cy="330" r="4" fill="#90caf9"/><text x="96" y="335" font-weight="bold" fill="#1565c0">設定</text><circle cx="56" cy="361.5" r="2" fill="#555"/><text x="66" y="365.5" font-size="12" fill="#555">プロフィール編集</text><circle cx="56" cy="379.5" r="2" fill="#555"/><text x="66" y="383.5" font-size="12" fill="#555">通知設定</text><circle cx="56" cy="397.5" r="2" fill="#555"/><text x="66" y="401.5" font-size="12" fill="#555">ログアウト</text><rect x="224" y="316" width="156" height="98" rx="6" fill="#ffffff" stroke="#1565c0" stroke-width="1.5" filter="drop-shadow(2px 2px 3px rgba(0,0,0,0.15))"/><clipPath id="clip-224-316"><rect x="224" y="316" width="156" height="28" rx="6" /></clipPath><rect x="224" y="316" width="156" height="28" fill="#e3f2fd" clip-path="url(#clip-224-316)"/><line x1="224" y1="344" x2="380" y2="344" stroke="#1565c0" stroke-width="0.5"/><circle cx="238" cy="330" r="4" fill="#90caf9"/><circle cx="252" cy="330" r="4" fill="#90caf9"/><circle cx="266" cy="330" r="4" fill="#90caf9"/><text x="280" y="335" font-weight="bold" fill="#1565c0">プロフィール</text><circle cx="240" cy="361.5" r="2" fill="#555"/><text x="250" y="365.5" font-size="12" fill="#555">アバター</text><circle cx="240" cy="379.5" r="2" fill="#555"/><text x="250" y="383.5" font-size="12" fill="#555">ユーザー名</text><circle cx="240" cy="397.5" r="2" fill="#555"/><text x="250" y="401.5" font-size="12" fill="#555">自己紹介</text><path d="M133.36983898197315,138 Q125.26997018819776,167.75642354954812 134.9779340283543,178" fill="none" stroke="#666" stroke-width="1.5" marker-end="url(#arrow)"/><rect x="84.72192834668073" y="150.87821177477406" width="90" height="16" rx="3" fill="white" opacity="0.85"/><text x="129.72192834668073" y="162.87821177477406" text-anchor="middle" font-size="11" fill="#666">ログイン成功</text><path d="M113.77007620834817,276 Q110.97400664263357,278.025365719653 111.42197314277969,316" fill="none" stroke="#666" stroke-width="1.5" marker-end="url(#arrow)"/><rect x="45.78501565909875" y="275.0126828598265" width="132" height="16" rx="3" fill="white" opacity="0.85"/><text x="111.78501565909875" y="287.0126828598265" text-anchor="middle" font-size="11" fill="#666">設定アイコンタップ</text><path d="M196.92557437529143,276 Q211.5869201138829,322.31967706318625 224,328.17938518116284" fill="none" stroke="#666" stroke-width="1.5" marker-end="url(#arrow)"/><rect x="152.02485365076433" y="300.20468482688386" width="118" height="16" rx="3" fill="white" opacity="0.85"/><text x="211.02485365076433" y="312.20468482688386" text-anchor="middle" font-size="11" fill="#666">プロフィール表示</text><path d="M184,334.11935872938386 Q204.7755276871631,325.20878070556387 193.07085324335026,276" fill="none" stroke="#666" stroke-width="1.5" marker-end="url(#arrow)"/><rect x="179.65547715441912" y="303.13423003512787" width="34" height="16" rx="3" fill="white" opacity="0.85"/><text x="196.65547715441912" y="315.13423003512787" text-anchor="middle" font-size="11" fill="#666">戻る</text><path d="M225.70791942144922,69.4 C260.7079194214492,54.400000000000006 260.7079194214492,123.6 225.70791942144922,108.6" fill="none" stroke="#666" stroke-width="1.5" marker-end="url(#arrow)"/><text x="266.7079194214492" y="93" font-size="11" fill="#666">バリデーションエラー</text><path d="M133.01379728214678,316 Q169.04138413631813,231.9908258297404 154.36113608537428,138" fill="none" stroke="#666" stroke-width="1.5" marker-end="url(#arrow)"/><rect x="118.36442541003933" y="217.4954129148702" width="76" height="16" rx="3" fill="white" opacity="0.85"/><text x="156.36442541003933" y="229.4954129148702" text-anchor="middle" font-size="11" fill="#666">ログアウト</text></svg>