<svg xmlns="http://www.w3.org/2000/svg" width="220" height="319.4673012755147" viewBox="0 0 220 319.4673012755147"><rect width="100%" height="100%" fill="white"/><style>text { font-family: sans-serif; font-size: 13px; fill: #333; }</style><defs><marker id="arrow" viewBox="0 0 10 10" refX="10" refY="5" markerWidth="8" markerHeight="8" orient="auto"><polygon points="0,1 10,5 0,9" fill="#666"/></marker></defs><rect x="40" y="39.999999999999986" width="140" height="48" rx="6" fill="#ffffff" stroke="#1565c0" stroke-width="1.5" filter="drop-shadow(2px 2px 3px rgba(0,0,0,0.15))"/><clipPath id="clip-40-39.999999999999986"><rect x="40" y="39.999999999999986" width="140" height="28" rx="6" /></clipPath><rect x="40" y="39.999999999999986" width="140" height="28" fill="#e3f2fd" clip-path="url(#clip-40-39.999999999999986)"/><line x1="40" y1="67.99999999999999" x2="180" y2="67.99999999999999" stroke="#1565c0" stroke-width="0.5"/><circle cx="54" cy="53.999999999999986" r="4" fill="#90caf9"/><circle cx="68" cy="53.999999999999986" r="4" fill="#90caf9"/><circle cx="82" cy="53.999999999999986" r="4" fill="#90caf9"/><text x="96" y="58.999999999999986" font-weight="bold" fill="#1565c0">Login</text><rect x="40" y="231.46730127551473" width="140" height="48" rx="6" fill="#ffffff" stroke="#1565c0" stroke-width="1.5" filter="drop-shadow(2px 2px 3px rgba(0,0,0,0.15))"/><clipPath id="clip-40-231.46730127551473"><rect x="40" y="231.46730127551473" width="140" height="28" rx="6" /></clipPath><rect x="40" y="231.46730127551473" width="140" height="28" fill="#e3f2fd" clip-path="url(#clip-40-231.46730127551473)"/><line x1="40" y1="259.4673012755147" x2="180" y2="259.4673012755147" stroke="#1565c0" stroke-width="0.5"/><circle cx="54" cy="245.46730127551473" r="4" fill="#90caf9"/><circle cx="68" cy="245.46730127551473" r="4" fill="#90caf9"/><circle cx="82" cy="245.46730127551473" r="4" fill="#90caf9"/><text x="96" y="250.46730127551473" font-weight="bold" fill="#1565c0">Home</text><path d="M99.97217808362386,87.99999999999999 Q70,159.73365063775736 99.97217808362386,231.46730127551473" fill="none" stroke="#666" stroke-width="1.5" marker-end="url(#arrow)"/><rect x="53.98608904181194" y="147.73365063775736" width="62" height="16" rx="3" fill="white" opacity="0.85"/><text x="84.98608904181194" y="159.73365063775736" text-anchor="middle" font-size="11" fill="#666">success</text></svg>