<svg xmlns="http://www.w3.org/2000/svg" width="1280" height="380" viewBox="0 0 1280 380"><rect width="1280" height="380" fill="white"/><style>text { font-family: -apple-system, 'Segoe UI', sans-serif; font-size: 13px; }</style><text x="40" y="58" font-size="16" font-weight="600" fill="#333">会社沿革</text><rect x="40" y="82" width="16" height="10" rx="3" fill="#5b9bd5"/><text x="62" y="91" font-size="11" fill="#555">創業期</text><rect x="109.53846153846155" y="82" width="16" height="10" rx="3" fill="#66bb6a"/><text x="131.53846153846155" y="91" font-size="11" fill="#555">成長期</text><rect x="179.0769230769231" y="82" width="16" height="10" rx="3" fill="#ffa726"/><text x="201.0769230769231" y="91" font-size="11" fill="#555">拡大期</text><line x1="60" y1="223" x2="1220" y2="223" stroke="#ccc" stroke-width="2"/><polygon points="1220,223 1212,218 1212,228" fill="#ccc"/><circle cx="80" cy="223" r="6" fill="#5b9bd5" stroke="white" stroke-width="2"/><line x1="80" y1="217" x2="80" y2="163" stroke="#5b9bd5" stroke-width="1.5" stroke-dasharray="4,3"/><rect x="39.230769230769226" y="118" width="85.53846153846155" height="47" rx="8" fill="#00000008"/><rect x="37.230769230769226" y="116" width="85.53846153846155" height="47" rx="8" fill="#e3f2fd" stroke="#5b9bd5" stroke-width="1"/><text x="80" y="134" text-anchor="middle" font-size="10" fill="#888">2018-04-01</text><text x="80" y="148" text-anchor="middle" font-size="13" font-weight="500" fill="#333">会社設立</text><circle cx="220" cy="223" r="6" fill="#5b9bd5" stroke="white" stroke-width="2"/><line x1="220" y1="229" x2="220" y2="283" stroke="#5b9bd5" stroke-width="1.5" stroke-dasharray="4,3"/><rect x="139" y="285" width="166" height="47" rx="8" fill="#00000008"/><rect x="137" y="283" width="166" height="47" rx="8" fill="#e3f2fd" stroke="#5b9bd5" stroke-width="1"/><text x="220" y="301" text-anchor="middle" font-size="10" fill="#888">2018-09-01</text><text x="220" y="315" text-anchor="middle" font-size="13" font-weight="500" fill="#333">プロダクトv1リリース</text><circle cx="360" cy="223" r="6" fill="#5b9bd5" stroke="white" stroke-width="2"/><line x1="360" y1="217" x2="360" y2="163" stroke="#5b9bd5" stroke-width="1.5" stroke-dasharray="4,3"/><rect x="294" y="118" width="136" height="47" rx="8" fill="#00000008"/><rect x="292" y="116" width="136" height="47" rx="8" fill="#e3f2fd" stroke="#5b9bd5" stroke-width="1"/><text x="360" y="134" text-anchor="middle" font-size="10" fill="#888">2019-03-01</text><text x="360" y="148" text-anchor="middle" font-size="13" font-weight="500" fill="#333">初の有料顧客獲得</text><circle cx="500" cy="223" r="6" fill="#66bb6a" stroke="white" stroke-width="2"/><line x1="500" y1="229" x2="500" y2="283" stroke="#66bb6a" stroke-width="1.5" stroke-dasharray="4,3"/><rect x="430" y="285" width="144" height="47" rx="8" fill="#00000008"/><rect x="428" y="283" width="144" height="47" rx="8" fill="#e8f5e9" stroke="#66bb6a" stroke-width="1"/><text x="500" y="301" text-anchor="middle" font-size="10" fill="#888">2020-01-15</text><text x="500" y="315" text-anchor="middle" font-size="13" font-weight="500" fill="#333">シリーズA資金調達</text><circle cx="640" cy="223" r="6" fill="#66bb6a" stroke="white" stroke-width="2"/><line x1="640" y1="217" x2="640" y2="163" stroke="#66bb6a" stroke-width="1.5" stroke-dasharray="4,3"/><rect x="580" y="118" width="124" height="47" rx="8" fill="#00000008"/><rect x="578" y="116" width="124" height="47" rx="8" fill="#e8f5e9" stroke="#66bb6a" stroke-width="1"/><text x="640" y="134" text-anchor="middle" font-size="10" fill="#888">2020-08-01</text><text x="640" y="148" text-anchor="middle" font-size="13" font-weight="500" fill="#333">社員数50名突破</text><circle cx="780" cy="223" r="6" fill="#66bb6a" stroke="white" stroke-width="2"/><line x1="780" y1="229" x2="780" y2="283" stroke="#66bb6a" stroke-width="1.5" stroke-dasharray="4,3"/><rect x="728" y="285" width="108" height="47" rx="8" fill="#00000008"/><rect x="726" y="283" width="108" height="47" rx="8" fill="#e8f5e9" stroke="#66bb6a" stroke-width="1"/><text x="780" y="301" text-anchor="middle" font-size="10" fill="#888">2021-04-01</text><text x="780" y="315" text-anchor="middle" font-size="13" font-weight="500" fill="#333">海外展開開始</text><circle cx="920" cy="223" r="6" fill="#ffa726" stroke="white" stroke-width="2"/><line x1="920" y1="217" x2="920" y2="163" stroke="#ffa726" stroke-width="1.5" stroke-dasharray="4,3"/><rect x="850" y="118" width="144" height="47" rx="8" fill="#00000008"/><rect x="848" y="116" width="144" height="47" rx="8" fill="#fff8e1" stroke="#ffa726" stroke-width="1"/><text x="920" y="134" text-anchor="middle" font-size="10" fill="#888">2022-06-01</text><text x="920" y="148" text-anchor="middle" font-size="13" font-weight="500" fill="#333">シリーズB資金調達</text><circle cx="1060" cy="223" r="6" fill="#ffa726" stroke="white" stroke-width="2"/><line x1="1060" y1="229" x2="1060" y2="283" stroke="#ffa726" stroke-width="1.5" stroke-dasharray="4,3"/><rect x="996" y="285" width="132" height="47" rx="8" fill="#00000008"/><rect x="994" y="283" width="132" height="47" rx="8" fill="#fff8e1" stroke="#ffa726" stroke-width="1"/><text x="1060" y="301" text-anchor="middle" font-size="10" fill="#888">2023-01-01</text><text x="1060" y="315" text-anchor="middle" font-size="13" font-weight="500" fill="#333">社員数200名突破</text><circle cx="1200" cy="223" r="6" fill="#ffa726" stroke="white" stroke-width="2"/><line x1="1200" y1="217" x2="1200" y2="163" stroke="#ffa726" stroke-width="1.5" stroke-dasharray="4,3"/><rect x="1134" y="118" width="136" height="47" rx="8" fill="#00000008"/><rect x="1132" y="116" width="136" height="47" rx="8" fill="#fff8e1" stroke="#ffa726" stroke-width="1"/><text x="1200" y="134" text-anchor="middle" font-size="10" fill="#888">2023-10-01</text><text x="1200" y="148" text-anchor="middle" font-size="13" font-weight="500" fill="#333">東証グロース上場</text></svg>