<svg xmlns="http://www.w3.org/2000/svg" width="1140" height="380" viewBox="0 0 1140 380"><rect width="1140" height="380" fill="white"/><style>text { font-family: -apple-system, 'Segoe UI', sans-serif; font-size: 13px; }</style><text x="40" y="58" font-size="16" font-weight="600" fill="#333">リリースロードマップ 2025</text><rect x="40" y="82" width="16" height="10" rx="3" fill="#5b9bd5"/><text x="62" y="91" font-size="11" fill="#555">Backend</text><rect x="121.38461538461539" y="82" width="16" height="10" rx="3" fill="#66bb6a"/><text x="143.3846153846154" y="91" font-size="11" fill="#555">Frontend</text><rect x="209.53846153846155" y="82" width="16" height="10" rx="3" fill="#ffa726"/><text x="231.53846153846155" y="91" font-size="11" fill="#555">Infrastructure</text><line x1="60" y1="223" x2="1080" y2="223" stroke="#ccc" stroke-width="2"/><polygon points="1080,223 1072,218 1072,228" fill="#ccc"/><circle cx="80" cy="223" r="6" fill="#5b9bd5" stroke="white" stroke-width="2"/><line x1="80" y1="217" x2="80" y2="163" stroke="#5b9bd5" stroke-width="1.5" stroke-dasharray="4,3"/><rect x="18" y="118" width="128" height="47" rx="8" fill="#00000008"/><rect x="16" y="116" width="128" height="47" rx="8" fill="#e3f2fd" stroke="#5b9bd5" stroke-width="1"/><text x="80" y="134" text-anchor="middle" font-size="10" fill="#888">2025-01-10</text><text x="80" y="148" text-anchor="middle" font-size="13" font-weight="500" fill="#333">API v2設計完了</text><circle cx="220" cy="223" r="6" fill="#66bb6a" stroke="white" stroke-width="2"/><line x1="220" y1="229" x2="220" y2="283" stroke="#66bb6a" stroke-width="1.5" stroke-dasharray="4,3"/><rect x="140" y="285" width="164" height="47" rx="8" fill="#00000008"/><rect x="138" y="283" width="164" height="47" rx="8" fill="#e8f5e9" stroke="#66bb6a" stroke-width="1"/><text x="220" y="301" text-anchor="middle" font-size="10" fill="#888">2025-02-01</text><text x="220" y="315" text-anchor="middle" font-size="13" font-weight="500" fill="#333">デザインシステム導入</text><circle cx="360" cy="223" r="6" fill="#5b9bd5" stroke="white" stroke-width="2"/><line x1="360" y1="217" x2="360" y2="163" stroke="#5b9bd5" stroke-width="1.5" stroke-dasharray="4,3"/><rect x="280" y="118" width="164" height="47" rx="8" fill="#00000008"/><rect x="278" y="116" width="164" height="47" rx="8" fill="#e3f2fd" stroke="#5b9bd5" stroke-width="1"/><text x="360" y="134" text-anchor="middle" font-size="10" fill="#888">2025-03-20</text><text x="360" y="148" text-anchor="middle" font-size="13" font-weight="500" fill="#333">マイクロサービス移行</text><circle cx="500" cy="223" r="6" fill="#ffa726" stroke="white" stroke-width="2"/><line x1="500" y1="229" x2="500" y2="283" stroke="#ffa726" stroke-width="1.5" stroke-dasharray="4,3"/><rect x="436" y="285" width="132" height="47" rx="8" fill="#00000008"/><rect x="434" y="283" width="132" height="47" rx="8" fill="#fff8e1" stroke="#ffa726" stroke-width="1"/><text x="500" y="301" text-anchor="middle" font-size="10" fill="#888">2025-04-01</text><text x="500" y="315" text-anchor="middle" font-size="13" font-weight="500" fill="#333">Kubernetes移行</text><circle cx="640" cy="223" r="6" fill="#66bb6a" stroke="white" stroke-width="2"/><line x1="640" y1="217" x2="640" y2="163" stroke="#66bb6a" stroke-width="1.5" stroke-dasharray="4,3"/><rect x="574" y="118" width="136" height="47" rx="8" fill="#00000008"/><rect x="572" y="116" width="136" height="47" rx="8" fill="#e8f5e9" stroke="#66bb6a" stroke-width="1"/><text x="640" y="134" text-anchor="middle" font-size="10" fill="#888">2025-05-15</text><text x="640" y="148" text-anchor="middle" font-size="13" font-weight="500" fill="#333">Next.js移行完了</text><circle cx="780" cy="223" r="6" fill="#ffa726" stroke="white" stroke-width="2"/><line x1="780" y1="229" x2="780" y2="283" stroke="#ffa726" stroke-width="1.5" stroke-dasharray="4,3"/><rect x="700" y="285" width="164" height="47" rx="8" fill="#00000008"/><rect x="698" y="283" width="164" height="47" rx="8" fill="#fff8e1" stroke="#ffa726" stroke-width="1"/><text x="780" y="301" text-anchor="middle" font-size="10" fill="#888">2025-06-15</text><text x="780" y="315" text-anchor="middle" font-size="13" font-weight="500" fill="#333">マルチリージョン対応</text><circle cx="920" cy="223" r="6" fill="#5b9bd5" stroke="white" stroke-width="2"/><line x1="920" y1="217" x2="920" y2="163" stroke="#5b9bd5" stroke-width="1.5" stroke-dasharray="4,3"/><rect x="847" y="118" width="150" height="47" rx="8" fill="#00000008"/><rect x="845" y="116" width="150" height="47" rx="8" fill="#e3f2fd" stroke="#5b9bd5" stroke-width="1"/><text x="920" y="134" text-anchor="middle" font-size="10" fill="#888">2025-07-01</text><text x="920" y="148" text-anchor="middle" font-size="13" font-weight="500" fill="#333">パフォーマンス改善</text><circle cx="1060" cy="223" r="6" fill="#66bb6a" stroke="white" stroke-width="2"/><line x1="1060" y1="229" x2="1060" y2="283" stroke="#66bb6a" stroke-width="1.5" stroke-dasharray="4,3"/><rect x="1019.2307692307693" y="285" width="85.53846153846155" height="47" rx="8" fill="#00000008"/><rect x="1017.2307692307693" y="283" width="85.53846153846155" height="47" rx="8" fill="#e8f5e9" stroke="#66bb6a" stroke-width="1"/><text x="1060" y="301" text-anchor="middle" font-size="10" fill="#888">2025-08-01</text><text x="1060" y="315" text-anchor="middle" font-size="13" font-weight="500" fill="#333">PWA対応</text></svg>