<svg xmlns="http://www.w3.org/2000/svg" width="580" height="350" viewBox="0 0 580 350"><rect width="580" height="350" fill="white"/><style>text { font-family: -apple-system, 'Segoe UI', sans-serif; font-size: 13px; }</style><text x="40" y="58" font-size="16" font-weight="600" fill="#333">プロジェクト概要</text><line x1="60" y1="193" x2="520" y2="193" stroke="#ccc" stroke-width="2"/><polygon points="520,193 512,188 512,198" fill="#ccc"/><circle cx="80" cy="193" r="6" fill="#5b9bd5" stroke="white" stroke-width="2"/><line x1="80" y1="187" x2="80" y2="133" stroke="#5b9bd5" stroke-width="1.5" stroke-dasharray="4,3"/><rect x="39.230769230769226" y="88" width="85.53846153846155" height="47" rx="8" fill="#00000008"/><rect x="37.230769230769226" y="86" width="85.53846153846155" height="47" rx="8" fill="#e3f2fd" stroke="#5b9bd5" stroke-width="1"/><text x="80" y="104" text-anchor="middle" font-size="10" fill="#888">2025-01-15</text><text x="80" y="118" text-anchor="middle" font-size="13" font-weight="500" fill="#333">企画開始</text><circle cx="220" cy="193" r="6" fill="#5b9bd5" stroke="white" stroke-width="2"/><line x1="220" y1="199" x2="220" y2="253" stroke="#5b9bd5" stroke-width="1.5" stroke-dasharray="4,3"/><rect x="179.23076923076923" y="255" width="85.53846153846155" height="47" rx="8" fill="#00000008"/><rect x="177.23076923076923" y="253" width="85.53846153846155" height="47" rx="8" fill="#e3f2fd" stroke="#5b9bd5" stroke-width="1"/><text x="220" y="271" text-anchor="middle" font-size="10" fill="#888">2025-03-01</text><text x="220" y="285" text-anchor="middle" font-size="13" font-weight="500" fill="#333">開発着手</text><circle cx="360" cy="193" r="6" fill="#5b9bd5" stroke="white" stroke-width="2"/><line x1="360" y1="187" x2="360" y2="133" stroke="#5b9bd5" stroke-width="1.5" stroke-dasharray="4,3"/><rect x="301" y="88" width="122" height="47" rx="8" fill="#00000008"/><rect x="299" y="86" width="122" height="47" rx="8" fill="#e3f2fd" stroke="#5b9bd5" stroke-width="1"/><text x="360" y="104" text-anchor="middle" font-size="10" fill="#888">2025-06-01</text><text x="360" y="118" text-anchor="middle" font-size="13" font-weight="500" fill="#333">ベータリリース</text><circle cx="500" cy="193" r="6" fill="#5b9bd5" stroke="white" stroke-width="2"/><line x1="500" y1="199" x2="500" y2="253" stroke="#5b9bd5" stroke-width="1.5" stroke-dasharray="4,3"/><rect x="448" y="255" width="108" height="47" rx="8" fill="#00000008"/><rect x="446" y="253" width="108" height="47" rx="8" fill="#e3f2fd" stroke="#5b9bd5" stroke-width="1"/><text x="500" y="271" text-anchor="middle" font-size="10" fill="#888">2025-09-01</text><text x="500" y="285" text-anchor="middle" font-size="13" font-weight="500" fill="#333">正式リリース</text></svg>