<svg xmlns="http://www.w3.org/2000/svg" width="1224.121506177483" height="409.8794558371692" viewBox="0 0 1224.121506177483 409.8794558371692"><rect width="100%" height="100%" fill="white"/><style>text { font-family: sans-serif; font-size: 13px; fill: #333; }</style><line x1="364.684526611353" y1="78" x2="1040.121506177483" y2="279.8794558371692" stroke="#999" stroke-width="1.5"/><line x1="364.684526611353" y1="78" x2="611.3714443076002" y2="279.8794558371692" stroke="#999" stroke-width="1.5"/><line x1="364.684526611353" y1="78" x2="221.9976089151059" y2="279.8794558371692" stroke="#999" stroke-width="1.5"/><line x1="364.684526611353" y1="78" x2="80" y2="279.8794558371692" stroke="#999" stroke-width="1.5"/><rect x="324.684526611353" y="40" width="80" height="38" rx="6" fill="#f0f8ff" stroke="#336699" stroke-width="1.5"/><text x="364.684526611353" y="65.3" text-anchor="middle">src</text><rect x="896.1215061774831" y="279.8794558371692" width="288" height="90" rx="4" fill="#fafafa" stroke="#999" stroke-width="1.5" stroke-dasharray="5,5"/><text x="1040.121506177483" y="299.4794558371692" text-anchor="middle" font-weight="bold">components</text><rect x="908.1215061774831" y="319.8794558371692" width="80" height="38" rx="6" fill="#f0f8ff" stroke="#336699" stroke-width="1.5"/><text x="948.1215061774831" y="345.1794558371692" text-anchor="middle">Header</text><rect x="996.1215061774831" y="319.8794558371692" width="80" height="38" rx="6" fill="#f0f8ff" stroke="#336699" stroke-width="1.5"/><text x="1036.121506177483" y="345.1794558371692" text-anchor="middle">Footer</text><rect x="1084.121506177483" y="319.8794558371692" width="88" height="38" rx="6" fill="#f0f8ff" stroke="#336699" stroke-width="1.5"/><text x="1128.121506177483" y="345.1794558371692" text-anchor="middle">Sidebar</text><rect x="467.3714443076002" y="279.8794558371692" width="288" height="90" rx="4" fill="#fafafa" stroke="#999" stroke-width="1.5" stroke-dasharray="5,5"/><text x="611.3714443076002" y="299.4794558371692" text-anchor="middle" font-weight="bold">pages</text><rect x="479.3714443076002" y="319.8794558371692" width="80" height="38" rx="6" fill="#f0f8ff" stroke="#336699" stroke-width="1.5"/><text x="519.3714443076002" y="345.1794558371692" text-anchor="middle">Home</text><rect x="567.3714443076002" y="319.8794558371692" width="80" height="38" rx="6" fill="#f0f8ff" stroke="#336699" stroke-width="1.5"/><text x="607.3714443076002" y="345.1794558371692" text-anchor="middle">About</text><rect x="655.3714443076002" y="319.8794558371692" width="88" height="38" rx="6" fill="#f0f8ff" stroke="#336699" stroke-width="1.5"/><text x="699.3714443076002" y="345.1794558371692" text-anchor="middle">Contact</text><rect x="181.9976089151059" y="279.8794558371692" width="80" height="38" rx="6" fill="#f0f8ff" stroke="#336699" stroke-width="1.5"/><text x="221.9976089151059" y="305.1794558371692" text-anchor="middle">utils</text><rect x="40" y="279.8794558371692" width="80" height="38" rx="6" fill="#f0f8ff" stroke="#336699" stroke-width="1.5"/><text x="80" y="305.1794558371692" text-anchor="middle">config</text></svg>