<svg xmlns="http://www.w3.org/2000/svg" width="4012.0938395965004" height="777.8012486932865" viewBox="0 0 4012.0938395965004 777.8012486932865"><rect width="100%" height="100%" fill="white"/><style>text { font-family: sans-serif; font-size: 13px; fill: #333; }</style><line x1="2648.6468286912996" y1="78" x2="3816.0938395965004" y2="270.11047455702885" stroke="#999" stroke-width="1.5"/><line x1="2648.6468286912996" y1="78" x2="3326.42089552008" y2="270.11047455702885" stroke="#999" stroke-width="1.5"/><line x1="2648.6468286912996" y1="78" x2="1832.2576114031565" y2="270.11047455702885" stroke="#999" stroke-width="1.5"/><line x1="2648.6468286912996" y1="78" x2="475.1155872341142" y2="270.11047455702885" stroke="#999" stroke-width="1.5"/><line x1="3326.42089552008" y1="360.11047455702885" x2="3700.0360459794438" y2="601.8012486932865" stroke="#999" stroke-width="1.5"/><line x1="3326.42089552008" y1="360.11047455702885" x2="3182.8057450607166" y2="601.8012486932865" stroke="#999" stroke-width="1.5"/><line x1="1832.2576114031565" y1="360.11047455702885" x2="2663.1276883072105" y2="601.8012486932865" stroke="#999" stroke-width="1.5"/><line x1="1832.2576114031565" y1="360.11047455702885" x2="2007.2576114031565" y2="601.8012486932865" stroke="#999" stroke-width="1.5"/><line x1="1832.2576114031565" y1="360.11047455702885" x2="1369.2966371009136" y2="601.8012486932865" stroke="#999" stroke-width="1.5"/><line x1="475.1155872341142" y1="360.11047455702885" x2="936.2311744682283" y2="601.8012486932865" stroke="#999" stroke-width="1.5"/><line x1="475.1155872341142" y1="360.11047455702885" x2="572.1155872341142" y2="601.8012486932865" stroke="#999" stroke-width="1.5"/><line x1="475.1155872341142" y1="360.11047455702885" x2="192" y2="601.8012486932865" stroke="#999" stroke-width="1.5"/><rect x="2597.6468286912996" y="40" width="102" height="38" rx="6" fill="#f0f8ff" stroke="#336699" stroke-width="1.5"/><text x="2648.6468286912996" y="65.3" text-anchor="middle">代表取締役</text><rect x="3660.0938395965004" y="270.11047455702885" width="312" height="90" rx="4" fill="#fafafa" stroke="#999" stroke-width="1.5" stroke-dasharray="5,5"/><text x="3816.0938395965004" y="289.7104745570289" text-anchor="middle" font-weight="bold">経営企画室</text><rect x="3672.0938395965004" y="310.11047455702885" width="80" height="38" rx="6" fill="#f0f8ff" stroke="#336699" stroke-width="1.5"/><text x="3712.0938395965004" y="335.41047455702886" text-anchor="middle">室長</text><rect x="3760.0938395965004" y="310.11047455702885" width="96" height="38" rx="6" fill="#f0f8ff" stroke="#336699" stroke-width="1.5"/><text x="3808.0938395965004" y="335.41047455702886" text-anchor="middle">企画担当A</text><rect x="3864.0938395965004" y="310.11047455702885" width="96" height="38" rx="6" fill="#f0f8ff" stroke="#336699" stroke-width="1.5"/><text x="3912.0938395965004" y="335.41047455702886" text-anchor="middle">企画担当B</text><rect x="3215.42089552008" y="270.11047455702885" width="222" height="90" rx="4" fill="#fafafa" stroke="#999" stroke-width="1.5" stroke-dasharray="5,5"/><text x="3326.42089552008" y="289.7104745570289" text-anchor="middle" font-weight="bold">営業本部</text><rect x="3227.42089552008" y="310.11047455702885" width="102" height="38" rx="6" fill="#f0f8ff" stroke="#336699" stroke-width="1.5"/><text x="3278.42089552008" y="335.41047455702886" text-anchor="middle">営業本部長</text><rect x="3337.42089552008" y="310.11047455702885" width="88" height="38" rx="6" fill="#f0f8ff" stroke="#336699" stroke-width="1.5"/><text x="3381.42089552008" y="335.41047455702886" text-anchor="middle">営業企画</text><rect x="3474.0360459794438" y="601.8012486932865" width="452" height="136" rx="4" fill="#fafafa" stroke="#999" stroke-width="1.5" stroke-dasharray="5,5"/><text x="3700.0360459794438" y="621.4012486932866" text-anchor="middle" font-weight="bold">第一営業部</text><rect x="3486.0360459794438" y="641.8012486932865" width="116" height="38" rx="6" fill="#f0f8ff" stroke="#336699" stroke-width="1.5"/><text x="3544.0360459794438" y="667.1012486932865" text-anchor="middle">第一営業部長</text><rect x="3610.0360459794438" y="641.8012486932865" width="96" height="38" rx="6" fill="#f0f8ff" stroke="#336699" stroke-width="1.5"/><text x="3658.0360459794438" y="667.1012486932865" text-anchor="middle">営業1課長</text><rect x="3714.0360459794438" y="641.8012486932865" width="96" height="38" rx="6" fill="#f0f8ff" stroke="#336699" stroke-width="1.5"/><text x="3762.0360459794438" y="667.1012486932865" text-anchor="middle">営業担当A</text><rect x="3818.0360459794438" y="641.8012486932865" width="96" height="38" rx="6" fill="#f0f8ff" stroke="#336699" stroke-width="1.5"/><text x="3866.0360459794438" y="667.1012486932865" text-anchor="middle">営業担当B</text><rect x="3496.0360459794438" y="687.8012486932865" width="96" height="38" rx="6" fill="#f0f8ff" stroke="#336699" stroke-width="1.5"/><text x="3544.0360459794438" y="713.1012486932865" text-anchor="middle">営業担当C</text><rect x="2956.8057450607166" y="601.8012486932865" width="452" height="90" rx="4" fill="#fafafa" stroke="#999" stroke-width="1.5" stroke-dasharray="5,5"/><text x="3182.8057450607166" y="621.4012486932866" text-anchor="middle" font-weight="bold">第二営業部</text><rect x="2968.8057450607166" y="641.8012486932865" width="116" height="38" rx="6" fill="#f0f8ff" stroke="#336699" stroke-width="1.5"/><text x="3026.8057450607166" y="667.1012486932865" text-anchor="middle">第二営業部長</text><rect x="3092.8057450607166" y="641.8012486932865" width="96" height="38" rx="6" fill="#f0f8ff" stroke="#336699" stroke-width="1.5"/><text x="3140.8057450607166" y="667.1012486932865" text-anchor="middle">営業2課長</text><rect x="3196.8057450607166" y="641.8012486932865" width="96" height="38" rx="6" fill="#f0f8ff" stroke="#336699" stroke-width="1.5"/><text x="3244.8057450607166" y="667.1012486932865" text-anchor="middle">営業担当D</text><rect x="3300.8057450607166" y="641.8012486932865" width="96" height="38" rx="6" fill="#f0f8ff" stroke="#336699" stroke-width="1.5"/><text x="3348.8057450607166" y="667.1012486932865" text-anchor="middle">営業担当E</text><rect x="1721.2576114031565" y="270.11047455702885" width="222" height="90" rx="4" fill="#fafafa" stroke="#999" stroke-width="1.5" stroke-dasharray="5,5"/><text x="1832.2576114031565" y="289.7104745570289" text-anchor="middle" font-weight="bold">開発本部</text><rect x="1733.2576114031565" y="310.11047455702885" width="102" height="38" rx="6" fill="#f0f8ff" stroke="#336699" stroke-width="1.5"/><text x="1784.2576114031565" y="335.41047455702886" text-anchor="middle">開発本部長</text><rect x="1843.2576114031565" y="310.11047455702885" width="88" height="38" rx="6" fill="#f0f8ff" stroke="#336699" stroke-width="1.5"/><text x="1887.2576114031565" y="335.41047455702886" text-anchor="middle">技術企画</text><rect x="2370.1276883072105" y="601.8012486932865" width="586" height="90" rx="4" fill="#fafafa" stroke="#999" stroke-width="1.5" stroke-dasharray="5,5"/><text x="2663.1276883072105" y="621.4012486932866" text-anchor="middle" font-weight="bold">プラットフォーム部</text><rect x="2382.1276883072105" y="641.8012486932865" width="80" height="38" rx="6" fill="#f0f8ff" stroke="#336699" stroke-width="1.5"/><text x="2422.1276883072105" y="667.1012486932865" text-anchor="middle">PF部長</text><rect x="2470.1276883072105" y="641.8012486932865" width="166" height="38" rx="6" fill="#f0f8ff" stroke="#336699" stroke-width="1.5"/><text x="2553.1276883072105" y="667.1012486932865" text-anchor="middle">インフラエンジニアA</text><rect x="2644.1276883072105" y="641.8012486932865" width="166" height="38" rx="6" fill="#f0f8ff" stroke="#336699" stroke-width="1.5"/><text x="2727.1276883072105" y="667.1012486932865" text-anchor="middle">インフラエンジニアB</text><rect x="2818.1276883072105" y="641.8012486932865" width="126" height="38" rx="6" fill="#f0f8ff" stroke="#336699" stroke-width="1.5"/><text x="2881.1276883072105" y="667.1012486932865" text-anchor="middle">SREエンジニア</text><rect x="1721.2576114031565" y="601.8012486932865" width="572" height="136" rx="4" fill="#fafafa" stroke="#999" stroke-width="1.5" stroke-dasharray="5,5"/><text x="2007.2576114031565" y="621.4012486932866" text-anchor="middle" font-weight="bold">プロダクト開発部</text><rect x="1755.2576114031565" y="641.8012486932865" width="80" height="38" rx="6" fill="#f0f8ff" stroke="#336699" stroke-width="1.5"/><text x="1795.2576114031565" y="667.1012486932865" text-anchor="middle">PD部長</text><rect x="1865.2576114031565" y="641.8012486932865" width="138" height="38" rx="6" fill="#f0f8ff" stroke="#336699" stroke-width="1.5"/><text x="1934.2576114031565" y="667.1012486932865" text-anchor="middle">フロントエンドA</text><rect x="2011.2576114031565" y="641.8012486932865" width="138" height="38" rx="6" fill="#f0f8ff" stroke="#336699" stroke-width="1.5"/><text x="2080.2576114031563" y="667.1012486932865" text-anchor="middle">フロントエンドB</text><rect x="2157.2576114031563" y="641.8012486932865" width="124" height="38" rx="6" fill="#f0f8ff" stroke="#336699" stroke-width="1.5"/><text x="2219.2576114031563" y="667.1012486932865" text-anchor="middle">バックエンドA</text><rect x="1733.2576114031565" y="687.8012486932865" width="124" height="38" rx="6" fill="#f0f8ff" stroke="#336699" stroke-width="1.5"/><text x="1795.2576114031565" y="713.1012486932865" text-anchor="middle">バックエンドB</text><rect x="1872.2576114031565" y="687.8012486932865" width="124" height="38" rx="6" fill="#f0f8ff" stroke="#336699" stroke-width="1.5"/><text x="1934.2576114031565" y="713.1012486932865" text-anchor="middle">バックエンドC</text><rect x="1183.2966371009136" y="601.8012486932865" width="372" height="90" rx="4" fill="#fafafa" stroke="#999" stroke-width="1.5" stroke-dasharray="5,5"/><text x="1369.2966371009136" y="621.4012486932866" text-anchor="middle" font-weight="bold">QA部</text><rect x="1195.2966371009136" y="641.8012486932865" width="80" height="38" rx="6" fill="#f0f8ff" stroke="#336699" stroke-width="1.5"/><text x="1235.2966371009136" y="667.1012486932865" text-anchor="middle">QA部長</text><rect x="1283.2966371009136" y="641.8012486932865" width="126" height="38" rx="6" fill="#f0f8ff" stroke="#336699" stroke-width="1.5"/><text x="1346.2966371009136" y="667.1012486932865" text-anchor="middle">QAエンジニアA</text><rect x="1417.2966371009136" y="641.8012486932865" width="126" height="38" rx="6" fill="#f0f8ff" stroke="#336699" stroke-width="1.5"/><text x="1480.2966371009136" y="667.1012486932865" text-anchor="middle">QAエンジニアB</text><rect x="412.1155872341142" y="270.11047455702885" width="126" height="90" rx="4" fill="#fafafa" stroke="#999" stroke-width="1.5" stroke-dasharray="5,5"/><text x="475.1155872341142" y="289.7104745570289" text-anchor="middle" font-weight="bold">管理本部</text><rect x="424.1155872341142" y="310.11047455702885" width="102" height="38" rx="6" fill="#f0f8ff" stroke="#336699" stroke-width="1.5"/><text x="475.1155872341142" y="335.41047455702886" text-anchor="middle">管理本部長</text><rect x="784.2311744682283" y="601.8012486932865" width="304" height="90" rx="4" fill="#fafafa" stroke="#999" stroke-width="1.5" stroke-dasharray="5,5"/><text x="936.2311744682283" y="621.4012486932866" text-anchor="middle" font-weight="bold">人事部</text><rect x="796.2311744682283" y="641.8012486932865" width="88" height="38" rx="6" fill="#f0f8ff" stroke="#336699" stroke-width="1.5"/><text x="840.2311744682283" y="667.1012486932865" text-anchor="middle">人事部長</text><rect x="892.2311744682283" y="641.8012486932865" width="88" height="38" rx="6" fill="#f0f8ff" stroke="#336699" stroke-width="1.5"/><text x="936.2311744682283" y="667.1012486932865" text-anchor="middle">採用担当</text><rect x="988.2311744682283" y="641.8012486932865" width="88" height="38" rx="6" fill="#f0f8ff" stroke="#336699" stroke-width="1.5"/><text x="1032.2311744682283" y="667.1012486932865" text-anchor="middle">労務担当</text><rect x="412.1155872341142" y="601.8012486932865" width="320" height="90" rx="4" fill="#fafafa" stroke="#999" stroke-width="1.5" stroke-dasharray="5,5"/><text x="572.1155872341142" y="621.4012486932866" text-anchor="middle" font-weight="bold">経理部</text><rect x="424.1155872341142" y="641.8012486932865" width="88" height="38" rx="6" fill="#f0f8ff" stroke="#336699" stroke-width="1.5"/><text x="468.1155872341142" y="667.1012486932865" text-anchor="middle">経理部長</text><rect x="520.1155872341142" y="641.8012486932865" width="96" height="38" rx="6" fill="#f0f8ff" stroke="#336699" stroke-width="1.5"/><text x="568.1155872341142" y="667.1012486932865" text-anchor="middle">経理担当A</text><rect x="624.1155872341142" y="641.8012486932865" width="96" height="38" rx="6" fill="#f0f8ff" stroke="#336699" stroke-width="1.5"/><text x="672.1155872341142" y="667.1012486932865" text-anchor="middle">経理担当B</text><rect x="40" y="601.8012486932865" width="304" height="90" rx="4" fill="#fafafa" stroke="#999" stroke-width="1.5" stroke-dasharray="5,5"/><text x="192" y="621.4012486932866" text-anchor="middle" font-weight="bold">総務部</text><rect x="52" y="641.8012486932865" width="88" height="38" rx="6" fill="#f0f8ff" stroke="#336699" stroke-width="1.5"/><text x="96" y="667.1012486932865" text-anchor="middle">総務部長</text><rect x="148" y="641.8012486932865" width="88" height="38" rx="6" fill="#f0f8ff" stroke="#336699" stroke-width="1.5"/><text x="192" y="667.1012486932865" text-anchor="middle">総務担当</text><rect x="244" y="641.8012486932865" width="88" height="38" rx="6" fill="#f0f8ff" stroke="#336699" stroke-width="1.5"/><text x="288" y="667.1012486932865" text-anchor="middle">法務担当</text></svg>