<svg xmlns="http://www.w3.org/2000/svg" width="853.0558606890618" height="742.5462203077606" viewBox="0 0 853.0558606890618 742.5462203077606"><rect width="100%" height="100%" fill="white"/><style>text { font-family: sans-serif; font-size: 13px; fill: #333; }</style><line x1="308.5279303445309" y1="78" x2="630.0558606890618" y2="262.030469466761" stroke="#999" stroke-width="1.5"/><line x1="308.5279303445309" y1="78" x2="161" y2="262.030469466761" stroke="#999" stroke-width="1.5"/><line x1="315.71321033824063" y1="428.5157508409996" x2="619.4264206764813" y2="612.5462203077606" stroke="#999" stroke-width="1.5"/><line x1="315.71321033824063" y1="428.5157508409996" x2="223" y2="612.5462203077606" stroke="#999" stroke-width="1.5"/><rect x="243.52793034453092" y="40" width="130" height="38" rx="6" fill="#f0f8ff" stroke="#336699" stroke-width="1.5"/><text x="308.5279303445309" y="65.3" text-anchor="middle">フロントエンド</text><rect x="447.0558606890618" y="262.030469466761" width="366" height="90" rx="4" fill="#fafafa" stroke="#999" stroke-width="1.5" stroke-dasharray="5,5"/><text x="630.0558606890618" y="281.63046946676104" text-anchor="middle" font-weight="bold">React</text><rect x="459.0558606890618" y="302.030469466761" width="130" height="38" rx="6" fill="#f0f8ff" stroke="#336699" stroke-width="1.5"/><text x="524.0558606890618" y="327.33046946676103" text-anchor="middle">コンポーネント</text><rect x="597.0558606890618" y="302.030469466761" width="80" height="38" rx="6" fill="#f0f8ff" stroke="#336699" stroke-width="1.5"/><text x="637.0558606890618" y="327.33046946676103" text-anchor="middle">フック</text><rect x="685.0558606890618" y="302.030469466761" width="116" height="38" rx="6" fill="#f0f8ff" stroke="#336699" stroke-width="1.5"/><text x="743.0558606890618" y="327.33046946676103" text-anchor="middle">ルーティング</text><rect x="40" y="262.030469466761" width="242" height="90" rx="4" fill="#fafafa" stroke="#999" stroke-width="1.5" stroke-dasharray="5,5"/><text x="161" y="281.63046946676104" text-anchor="middle" font-weight="bold">Vue</text><rect x="52" y="302.030469466761" width="130" height="38" rx="6" fill="#f0f8ff" stroke="#336699" stroke-width="1.5"/><text x="117" y="327.33046946676103" text-anchor="middle">コンポーネント</text><rect x="190" y="302.030469466761" width="80" height="38" rx="6" fill="#f0f8ff" stroke="#336699" stroke-width="1.5"/><text x="230" y="327.33046946676103" text-anchor="middle">ストア</text><rect x="257.71321033824063" y="390.5157508409996" width="116" height="38" rx="6" fill="#f0f8ff" stroke="#336699" stroke-width="1.5"/><text x="315.71321033824063" y="415.8157508409996" text-anchor="middle">バックエンド</text><rect x="475.42642067648126" y="612.5462203077606" width="288" height="90" rx="4" fill="#fafafa" stroke="#999" stroke-width="1.5" stroke-dasharray="5,5"/><text x="619.4264206764813" y="632.1462203077606" text-anchor="middle" font-weight="bold">API</text><rect x="487.42642067648126" y="652.5462203077606" width="80" height="38" rx="6" fill="#f0f8ff" stroke="#336699" stroke-width="1.5"/><text x="527.4264206764813" y="677.8462203077605" text-anchor="middle">認証</text><rect x="575.4264206764813" y="652.5462203077606" width="88" height="38" rx="6" fill="#f0f8ff" stroke="#336699" stroke-width="1.5"/><text x="619.4264206764813" y="677.8462203077605" text-anchor="middle">ユーザー</text><rect x="671.4264206764813" y="652.5462203077606" width="80" height="38" rx="6" fill="#f0f8ff" stroke="#336699" stroke-width="1.5"/><text x="711.4264206764813" y="677.8462203077605" text-anchor="middle">注文</text><rect x="40" y="612.5462203077606" width="366" height="90" rx="4" fill="#fafafa" stroke="#999" stroke-width="1.5" stroke-dasharray="5,5"/><text x="223" y="632.1462203077606" text-anchor="middle" font-weight="bold">インフラ</text><rect x="52" y="652.5462203077606" width="80" height="38" rx="6" fill="#f0f8ff" stroke="#336699" stroke-width="1.5"/><text x="92" y="677.8462203077605" text-anchor="middle">DB</text><rect x="140" y="652.5462203077606" width="102" height="38" rx="6" fill="#f0f8ff" stroke="#336699" stroke-width="1.5"/><text x="191" y="677.8462203077605" text-anchor="middle">キャッシュ</text><rect x="250" y="652.5462203077606" width="144" height="38" rx="6" fill="#f0f8ff" stroke="#336699" stroke-width="1.5"/><text x="322" y="677.8462203077605" text-anchor="middle">メッセージキュー</text></svg>