<svg xmlns="http://www.w3.org/2000/svg" width="1590.2690716493353" height="429.69507017803676" viewBox="0 0 1590.2690716493353 429.69507017803676"><rect width="100%" height="100%" fill="white"/><style>text { font-family: sans-serif; font-size: 13px; fill: #333; }</style><line x1="631.8520241283281" y1="78" x2="1390.2690716493353" y2="299.69507017803676" stroke="#999" stroke-width="1.5"/><line x1="631.8520241283281" y1="78" x2="824.8520241283281" y2="299.69507017803676" stroke="#999" stroke-width="1.5"/><line x1="631.8520241283281" y1="78" x2="144" y2="299.69507017803676" stroke="#999" stroke-width="1.5"/><rect x="591.8520241283281" y="40" width="80" height="38" rx="6" fill="#f0f8ff" stroke="#336699" stroke-width="1.5"/><text x="631.8520241283281" y="65.3" text-anchor="middle">社長</text><rect x="1230.2690716493353" y="299.69507017803676" width="320" height="90" rx="4" fill="#fafafa" stroke="#999" stroke-width="1.5" stroke-dasharray="5,5"/><text x="1390.2690716493353" y="319.2950701780368" text-anchor="middle" font-weight="bold">営業部</text><rect x="1242.2690716493353" y="339.69507017803676" width="88" height="38" rx="6" fill="#f0f8ff" stroke="#336699" stroke-width="1.5"/><text x="1286.2690716493353" y="364.99507017803677" text-anchor="middle">営業部長</text><rect x="1338.2690716493353" y="339.69507017803676" width="96" height="38" rx="6" fill="#f0f8ff" stroke="#336699" stroke-width="1.5"/><text x="1386.2690716493353" y="364.99507017803677" text-anchor="middle">営業担当A</text><rect x="1442.2690716493353" y="339.69507017803676" width="96" height="38" rx="6" fill="#f0f8ff" stroke="#336699" stroke-width="1.5"/><text x="1490.2690716493353" y="364.99507017803677" text-anchor="middle">営業担当B</text><rect x="591.8520241283281" y="299.69507017803676" width="466" height="90" rx="4" fill="#fafafa" stroke="#999" stroke-width="1.5" stroke-dasharray="5,5"/><text x="824.8520241283281" y="319.2950701780368" text-anchor="middle" font-weight="bold">開発部</text><rect x="603.8520241283281" y="339.69507017803676" width="88" height="38" rx="6" fill="#f0f8ff" stroke="#336699" stroke-width="1.5"/><text x="647.8520241283281" y="364.99507017803677" text-anchor="middle">開発部長</text><rect x="699.8520241283281" y="339.69507017803676" width="110" height="38" rx="6" fill="#f0f8ff" stroke="#336699" stroke-width="1.5"/><text x="754.8520241283281" y="364.99507017803677" text-anchor="middle">エンジニアA</text><rect x="817.8520241283281" y="339.69507017803676" width="110" height="38" rx="6" fill="#f0f8ff" stroke="#336699" stroke-width="1.5"/><text x="872.8520241283281" y="364.99507017803677" text-anchor="middle">エンジニアB</text><rect x="935.8520241283281" y="339.69507017803676" width="110" height="38" rx="6" fill="#f0f8ff" stroke="#336699" stroke-width="1.5"/><text x="990.8520241283281" y="364.99507017803677" text-anchor="middle">エンジニアC</text><rect x="40" y="299.69507017803676" width="208" height="90" rx="4" fill="#fafafa" stroke="#999" stroke-width="1.5" stroke-dasharray="5,5"/><text x="144" y="319.2950701780368" text-anchor="middle" font-weight="bold">管理部</text><rect x="52" y="339.69507017803676" width="88" height="38" rx="6" fill="#f0f8ff" stroke="#336699" stroke-width="1.5"/><text x="96" y="364.99507017803677" text-anchor="middle">管理部長</text><rect x="148" y="339.69507017803676" width="88" height="38" rx="6" fill="#f0f8ff" stroke="#336699" stroke-width="1.5"/><text x="192" y="364.99507017803677" text-anchor="middle">経理担当</text></svg>