<svg xmlns="http://www.w3.org/2000/svg" width="420" height="290" viewBox="0 0 420 290"><rect width="100%" height="100%" fill="white"/><style>text { font-family: sans-serif; fill: #333; }</style><path d="M150,220 L190,170 L230,120 L270,70" fill="none" stroke="#999" stroke-width="2" stroke-dasharray="6,4"/><rect x="40" y="190" width="220" height="60" rx="8" fill="#e3f2fd" stroke="#1565c0" stroke-width="1.5"/><circle cx="64" cy="216" r="14" fill="#1565c0" /><text x="64" y="220.55" text-anchor="middle" font-size="13" font-weight="bold" fill="white">1</text><text x="88" y="218" font-size="13" font-weight="bold">Beginner</text><text x="88" y="234" font-size="11" fill="#666">Learn the basics</text><rect x="80" y="140" width="220" height="60" rx="8" fill="#e8f5e9" stroke="#2e7d32" stroke-width="1.5"/><circle cx="104" cy="166" r="14" fill="#2e7d32" /><text x="104" y="170.55" text-anchor="middle" font-size="13" font-weight="bold" fill="white">2</text><text x="128" y="168" font-size="13" font-weight="bold">Intermediate</text><text x="128" y="184" font-size="11" fill="#666">Build small projects</text><rect x="120" y="90" width="220" height="60" rx="8" fill="#fff8e1" stroke="#f57f17" stroke-width="1.5"/><circle cx="144" cy="116" r="14" fill="#f57f17" /><text x="144" y="120.55" text-anchor="middle" font-size="13" font-weight="bold" fill="white">3</text><text x="168" y="118" font-size="13" font-weight="bold">Advanced</text><text x="168" y="134" font-size="11" fill="#666">Contribute to open source</text><rect x="160" y="40" width="220" height="60" rx="8" fill="#f3e5f5" stroke="#7b1fa2" stroke-width="1.5"/><circle cx="184" cy="66" r="14" fill="#7b1fa2" /><text x="184" y="70.55" text-anchor="middle" font-size="13" font-weight="bold" fill="white">4</text><text x="208" y="68" font-size="13" font-weight="bold">Expert</text><text x="208" y="84" font-size="11" fill="#666">Lead and mentor others</text></svg>