<svg xmlns="http://www.w3.org/2000/svg" width="456" height="340" viewBox="0 0 456 340"><rect width="100%" height="100%" fill="white"/><style>text { font-family: sans-serif; fill: #333; }</style><path d="M148,270 L188,220 L228,170 L268,120 L308,70" fill="none" stroke="#999" stroke-width="2" stroke-dasharray="6,4"/><rect x="40" y="240" width="216" height="60" rx="8" fill="#e3f2fd" stroke="#1565c0" stroke-width="1.5"/><circle cx="64" cy="266" r="14" fill="#1565c0" /><text x="64" y="270.55" text-anchor="middle" font-size="13" font-weight="bold" fill="white">1</text><text x="88" y="268" font-size="13" font-weight="bold">要件定義</text><text x="88" y="284" font-size="11" fill="#666">ユーザー要件を収集・分析</text><rect x="80" y="190" width="216" height="60" rx="8" fill="#e8f5e9" stroke="#2e7d32" stroke-width="1.5"/><circle cx="104" cy="216" r="14" fill="#2e7d32" /><text x="104" y="220.55" text-anchor="middle" font-size="13" font-weight="bold" fill="white">2</text><text x="128" y="218" font-size="13" font-weight="bold">設計</text><text x="128" y="234" font-size="11" fill="#666">アーキテクチャとUIを設計</text><rect x="120" y="140" width="216" height="60" rx="8" fill="#fff8e1" stroke="#f57f17" stroke-width="1.5"/><circle cx="144" cy="166" r="14" fill="#f57f17" /><text x="144" y="170.55" text-anchor="middle" font-size="13" font-weight="bold" fill="white">3</text><text x="168" y="168" font-size="13" font-weight="bold">実装</text><text x="168" y="184" font-size="11" fill="#666">コーディングとユニットテスト</text><rect x="160" y="90" width="216" height="60" rx="8" fill="#f3e5f5" stroke="#7b1fa2" stroke-width="1.5"/><circle cx="184" cy="116" r="14" fill="#7b1fa2" /><text x="184" y="120.55" text-anchor="middle" font-size="13" font-weight="bold" fill="white">4</text><text x="208" y="118" font-size="13" font-weight="bold">テスト</text><text x="208" y="134" font-size="11" fill="#666">結合テストと受入テスト</text><rect x="200" y="40" width="216" height="60" rx="8" fill="#e0f2f1" stroke="#00695c" stroke-width="1.5"/><circle cx="224" cy="66" r="14" fill="#00695c" /><text x="224" y="70.55" text-anchor="middle" font-size="13" font-weight="bold" fill="white">5</text><text x="248" y="68" font-size="13" font-weight="bold">リリース</text><text x="248" y="84" font-size="11" fill="#666">本番環境へデプロイ</text></svg>