<svg xmlns="http://www.w3.org/2000/svg" width="456" height="340" viewBox="0 0 456 340"><rect width="100%" height="100%" fill="white"/><style>text { font-family: sans-serif; fill: #333; }</style><path d="M148,270 L188,220 L228,170 L268,120 L308,70" fill="none" stroke="#999" stroke-width="2" stroke-dasharray="6,4"/><rect x="40" y="240" width="216" height="60" rx="8" fill="#f0f7ff" stroke="#90caf9" stroke-width="1.5"/><circle cx="64" cy="266" r="14" fill="#90caf9" /><text x="64" y="270.55" text-anchor="middle" font-size="13" font-weight="bold" fill="#1565c0">1</text><text x="88" y="268" font-size="13" font-weight="bold">要件定義</text><text x="88" y="284" font-size="11" fill="#666">ユーザー要件を収集・分析</text><rect x="80" y="190" width="216" height="60" rx="8" fill="#f0f9f1" stroke="#a5d6a7" stroke-width="1.5"/><circle cx="104" cy="216" r="14" fill="#a5d6a7" /><text x="104" y="220.55" text-anchor="middle" font-size="13" font-weight="bold" fill="#2e7d32">2</text><text x="128" y="218" font-size="13" font-weight="bold">設計</text><text x="128" y="234" font-size="11" fill="#666">アーキテクチャとUIを設計</text><rect x="120" y="140" width="216" height="60" rx="8" fill="#fffef2" stroke="#ffe082" stroke-width="1.5"/><circle cx="144" cy="166" r="14" fill="#ffe082" /><text x="144" y="170.55" text-anchor="middle" font-size="13" font-weight="bold" fill="#f57f17">3</text><text x="168" y="168" font-size="13" font-weight="bold">実装</text><text x="168" y="184" font-size="11" fill="#666">コーディングとユニットテスト</text><rect x="160" y="90" width="216" height="60" rx="8" fill="#faf2fc" stroke="#ce93d8" stroke-width="1.5"/><circle cx="184" cy="116" r="14" fill="#ce93d8" /><text x="184" y="120.55" text-anchor="middle" font-size="13" font-weight="bold" fill="#7b1fa2">4</text><text x="208" y="118" font-size="13" font-weight="bold">テスト</text><text x="208" y="134" font-size="11" fill="#666">結合テストと受入テスト</text><rect x="200" y="40" width="216" height="60" rx="8" fill="#f0faf9" stroke="#80cbc4" stroke-width="1.5"/><circle cx="224" cy="66" r="14" fill="#80cbc4" /><text x="224" y="70.55" text-anchor="middle" font-size="13" font-weight="bold" fill="#00695c">5</text><text x="248" y="68" font-size="13" font-weight="bold">リリース</text><text x="248" y="84" font-size="11" fill="#666">本番環境へデプロイ</text></svg>