<svg xmlns="http://www.w3.org/2000/svg" width="566" height="606" viewBox="0 0 566 606"><rect width="100%" height="100%" fill="white"/><style>text { font-family: sans-serif; font-size: 12px; fill: #333; }</style><text x="283" y="46" text-anchor="middle" font-size="16" font-weight="bold">エンジニアスキル比較</text><circle cx="283" cy="323" r="28" fill="none" stroke="#e0e0e0" stroke-width="0.5"/><circle cx="283" cy="323" r="56" fill="none" stroke="#e0e0e0" stroke-width="0.5"/><circle cx="283" cy="323" r="84" fill="none" stroke="#e0e0e0" stroke-width="0.5"/><circle cx="283" cy="323" r="112" fill="none" stroke="#e0e0e0" stroke-width="0.5"/><circle cx="283" cy="323" r="140" fill="none" stroke="#e0e0e0" stroke-width="0.5"/><line x1="283" y1="323" x2="283" y2="183" stroke="#ccc" stroke-width="0.5"/><text x="283" y="173" text-anchor="middle" font-size="12">フロントエンド</text><line x1="283" y1="323" x2="416.1479122813215" y2="279.73762078750735" stroke="#ccc" stroke-width="0.5"/><text x="429.4627035094536" y="279.4113828662581" text-anchor="start" font-size="12">バックエンド</text><line x1="283" y1="323" x2="365.28993532094626" y2="436.26237921249265" stroke="#ccc" stroke-width="0.5"/><text x="373.51892885304085" y="451.5886171337419" text-anchor="start" font-size="12">インフラ</text><line x1="283" y1="323" x2="200.71006467905377" y2="436.26237921249265" stroke="#ccc" stroke-width="0.5"/><text x="192.48107114695915" y="451.5886171337419" text-anchor="end" font-size="12">セキュリティ</text><line x1="283" y1="323" x2="149.8520877186785" y2="279.73762078750735" stroke="#ccc" stroke-width="0.5"/><text x="136.53729649054634" y="279.4113828662581" text-anchor="end" font-size="12">コミュニケーション</text><polygon points="283,197 376.20353859692506,292.71633455125516 324.1449676604731,379.6311896062463 233.62603880743228,390.9574275274956 176.4816701749428,288.3900966300059" fill="rgba(21,101,192,0.15)" stroke="#1565c0" stroke-width="2"/><circle cx="283" cy="197" r="3" fill="#1565c0"/><circle cx="376.20353859692506" cy="292.71633455125516" r="3" fill="#1565c0"/><circle cx="324.1449676604731" cy="379.6311896062463" r="3" fill="#1565c0"/><circle cx="233.62603880743228" cy="390.9574275274956" r="3" fill="#1565c0"/><circle cx="176.4816701749428" cy="288.3900966300059" r="3" fill="#1565c0"/><polygon points="283,239 402.83312105318936,284.06385870875664 348.83194825675696,413.60990336999413 225.39704527533763,402.28366544874484 203.1112526312071,297.04257247250445" fill="rgba(198,40,40,0.15)" stroke="#c62828" stroke-width="2"/><circle cx="283" cy="239" r="3" fill="#c62828"/><circle cx="402.83312105318936" cy="284.06385870875664" r="3" fill="#c62828"/><circle cx="348.83194825675696" cy="413.60990336999413" r="3" fill="#c62828"/><circle cx="225.39704527533763" cy="402.28366544874484" r="3" fill="#c62828"/><circle cx="203.1112526312071" cy="297.04257247250445" r="3" fill="#c62828"/><rect x="223" y="483" width="12" height="12" rx="2" fill="#1565c0"/><text x="239" y="493" font-size="11">田中</text><rect x="223" y="501" width="12" height="12" rx="2" fill="#c62828"/><text x="239" y="511" font-size="11">鈴木</text></svg>