<svg xmlns="http://www.w3.org/2000/svg" width="220" height="527.4758026741252" viewBox="0 0 220 527.4758026741252"><rect width="100%" height="100%" fill="white"/><style>text { font-family: sans-serif; font-size: 13px; fill: #333; }</style><defs><marker id="arrow" viewBox="0 0 10 10" refX="10" refY="5" markerWidth="8" markerHeight="8" orient="auto"><polygon points="0,1 10,5 0,9" fill="#666"/></marker></defs><circle cx="109.94140625" cy="52" r="10" fill="none" stroke="#333" stroke-width="2"/><line x1="109.94140625" y1="62" x2="109.94140625" y2="85" stroke="#333" stroke-width="2"/><line x1="94.94140625" y1="72" x2="124.94140625" y2="72" stroke="#333" stroke-width="2"/><line x1="109.94140625" y1="85" x2="97.94140625" y2="100" stroke="#333" stroke-width="2"/><line x1="109.94140625" y1="85" x2="121.94140625" y2="100" stroke="#333" stroke-width="2"/><text x="109.94140625" y="115" text-anchor="middle">User</text><circle cx="109.970703125" cy="268.7379013370626" r="40" fill="#f0f8ff" stroke="#336699" stroke-width="1.5"/><path d="M142.4976150595812,236.21098940248143 A46,46 0 1 1 77.4437911904188,301.2648132716438" fill="none" stroke="#336699" stroke-width="1.5" marker-end="url(#arrow)"/><text x="109.970703125" y="273.2379013370626" text-anchor="middle" font-weight="bold">Web App</text><rect x="40" y="427.47580267412525" width="140" height="32" fill="#f0fff0" stroke="none"/><line x1="40" y1="427.47580267412525" x2="40" y2="459.47580267412525" stroke="#339966" stroke-width="1.5"/><line x1="180" y1="427.47580267412525" x2="180" y2="459.47580267412525" stroke="#339966" stroke-width="1.5"/><ellipse cx="110" cy="427.47580267412525" rx="70" ry="10" fill="#f0fff0" stroke="#339966" stroke-width="1.5"/><path d="M40,459.47580267412525 A70,10 0 0 0 180,459.47580267412525" fill="#f0fff0" stroke="#339966" stroke-width="1.5"/><path d="M40,432.47580267412525 A70,10 0 0 0 180,432.47580267412525" fill="none" stroke="#339966" stroke-width="0.8" opacity="0.4"/><text x="110" y="445.47580267412525" text-anchor="middle" font-weight="bold">DB</text><path d="M109.94761525726192,120 L109.96449411781289,228.73790181895976" fill="none" stroke="#666" stroke-width="1.5" marker-end="url(#arrow)"/><rect x="90.9560546875374" y="162.36895090947988" width="38" height="16" rx="3" fill="white" opacity="0.85"/><text x="109.9560546875374" y="174.36895090947988" text-anchor="middle" font-size="11" fill="#666">HTTP</text><path d="M109.9774095978062,308.7379007748529 L109.99564079261471,417.47580267412525" fill="none" stroke="#666" stroke-width="1.5" marker-end="url(#arrow)"/><rect x="86.98652519521045" y="351.10685172448905" width="46" height="16" rx="3" fill="white" opacity="0.85"/><text x="109.98652519521045" y="363.10685172448905" text-anchor="middle" font-size="11" fill="#666">query</text></svg>