<svg xmlns="http://www.w3.org/2000/svg" width="1442.6102368060926" height="984" viewBox="0 0 1442.6102368060926 984"><rect width="100%" height="100%" fill="white"/><style>text { font-family: sans-serif; font-size: 13px; fill: #333; }</style><defs><marker id="arrow" viewBox="0 0 10 10" refX="10" refY="5" markerWidth="8" markerHeight="8" orient="auto"><polygon points="0,1 10,5 0,9" fill="#666"/></marker></defs><circle cx="424.762390670554" cy="52" r="10" fill="none" stroke="#333" stroke-width="2"/><line x1="424.762390670554" y1="62" x2="424.762390670554" y2="85" stroke="#333" stroke-width="2"/><line x1="409.762390670554" y1="72" x2="439.762390670554" y2="72" stroke="#333" stroke-width="2"/><line x1="424.762390670554" y1="85" x2="412.762390670554" y2="100" stroke="#333" stroke-width="2"/><line x1="424.762390670554" y1="85" x2="436.762390670554" y2="100" stroke="#333" stroke-width="2"/><text x="424.762390670554" y="115" text-anchor="middle">ユーザー</text><circle cx="578.7092669720951" cy="52" r="10" fill="none" stroke="#333" stroke-width="2"/><line x1="578.7092669720951" y1="62" x2="578.7092669720951" y2="85" stroke="#333" stroke-width="2"/><line x1="563.7092669720951" y1="72" x2="593.7092669720951" y2="72" stroke="#333" stroke-width="2"/><line x1="578.7092669720951" y1="85" x2="566.7092669720951" y2="100" stroke="#333" stroke-width="2"/><line x1="578.7092669720951" y1="85" x2="590.7092669720951" y2="100" stroke="#333" stroke-width="2"/><text x="578.7092669720951" y="115" text-anchor="middle">管理者</text><rect x="344.762390670554" y="189" width="313.94687630154107" height="178" rx="6" fill="#fff8f8" stroke="#cc3333" stroke-width="1.5" stroke-dasharray="8,4"/><text x="352.762390670554" y="209" font-weight="bold" font-size="13" fill="#cc3333">フロントエンド</text><circle cx="424.762390670554" cy="297" r="40" fill="#f0f8ff" stroke="#336699" stroke-width="1.5"/><path d="M457.28930260513516,264.47308806541884 A46,46 0 1 1 392.23547873597283,329.52691193458116" fill="none" stroke="#336699" stroke-width="1.5" marker-end="url(#arrow)"/><text x="424.762390670554" y="301.5" text-anchor="middle" font-weight="bold">Web App</text><circle cx="578.7092669720951" cy="297" r="40" fill="#f0f8ff" stroke="#336699" stroke-width="1.5"/><path d="M611.2361789066763,264.47308806541884 A46,46 0 1 1 546.1823550375138,329.52691193458116" fill="none" stroke="#336699" stroke-width="1.5" marker-end="url(#arrow)"/><text x="578.7092669720951" y="301.5" text-anchor="middle" font-weight="bold">管理画面</text><rect x="40" y="406" width="656.2102368060927" height="403" rx="6" fill="#fff8f8" stroke="#cc3333" stroke-width="1.5" stroke-dasharray="8,4"/><text x="48" y="426" font-weight="bold" font-size="13" fill="#cc3333">バックエンド</text><circle cx="612.2102368060927" cy="518" r="44" fill="#f0f8ff" stroke="#336699" stroke-width="1.5"/><path d="M647.56557586542,482.6446609406726 A50,50 0 1 1 576.8548977467653,553.3553390593274" fill="none" stroke="#336699" stroke-width="1.5" marker-end="url(#arrow)"/><text x="612.2102368060927" y="513.5" text-anchor="middle" font-weight="bold">A P</text><text x="612.2102368060927" y="531.5" text-anchor="middle" font-weight="bold">Iサーバー</text><ellipse cx="212" cy="724" rx="12" ry="25" fill="#f3e5f5" stroke="#7b1fa2" stroke-width="1" opacity="0.25"/><ellipse cx="204" cy="724" rx="12" ry="25" fill="#f3e5f5" stroke="#7b1fa2" stroke-width="1" opacity="0.45"/><rect x="92" y="699" width="104" height="50" fill="#f3e5f5" stroke="none"/><line x1="92" y1="699" x2="196" y2="699" stroke="#7b1fa2" stroke-width="1.5"/><line x1="92" y1="749" x2="196" y2="749" stroke="#7b1fa2" stroke-width="1.5"/><ellipse cx="92" cy="724" rx="12" ry="25" fill="#f3e5f5" stroke="#7b1fa2" stroke-width="1.5"/><ellipse cx="196" cy="724" rx="12" ry="25" fill="#f3e5f5" stroke="#7b1fa2" stroke-width="1.5"/><text x="144" y="728.5" text-anchor="middle" font-weight="bold">Event Bus</text><path d="M273.2,699 L385.2,699 L397.2,711 L397.2,741 L273.2,741 Z" fill="#fffde7" stroke="#f9a825" stroke-width="1.5"/><path d="M385.2,699 L385.2,711 L397.2,711" fill="none" stroke="#f9a825" stroke-width="1"/><text x="335.2" y="724.5" text-anchor="middle" font-weight="bold">ログファイル</text><rect x="736.2102368060927" y="631" width="409.19999999999993" height="178" rx="6" fill="#fff8f8" stroke="#cc3333" stroke-width="1.5" stroke-dasharray="8,4"/><text x="744.2102368060927" y="651" font-weight="bold" font-size="13" fill="#cc3333">データ層</text><rect x="776.2102368060927" y="709" width="140" height="86" fill="#f0fff0" stroke="none"/><line x1="776.2102368060927" y1="709" x2="776.2102368060927" y2="795" stroke="#339966" stroke-width="1.5"/><line x1="916.2102368060927" y1="709" x2="916.2102368060927" y2="795" stroke="#339966" stroke-width="1.5"/><ellipse cx="846.2102368060927" cy="709" rx="70" ry="10" fill="#f0fff0" stroke="#339966" stroke-width="1.5"/><path d="M776.2102368060927,795 A70,10 0 0 0 916.2102368060927,795" fill="#f0fff0" stroke="#339966" stroke-width="1.5"/><path d="M776.2102368060927,714 A70,10 0 0 0 916.2102368060927,714" fill="none" stroke="#339966" stroke-width="0.8" opacity="0.4"/><text x="846.2102368060927" y="727" text-anchor="middle" font-weight="bold">UserDB</text><line x1="780.2102368060927" y1="733" x2="912.2102368060927" y2="733" stroke="#339966" stroke-width="0.5" stroke-dasharray="3,3"/><text x="826.2102368060927" y="746.5" font-size="11" fill="#555">id</text><text x="826.2102368060927" y="764.5" font-size="11" fill="#555">name</text><text x="826.2102368060927" y="782.5" font-size="11" fill="#555">email</text><rect x="965.4102368060927" y="709" width="140" height="86" fill="#f0fff0" stroke="none"/><line x1="965.4102368060927" y1="709" x2="965.4102368060927" y2="795" stroke="#339966" stroke-width="1.5"/><line x1="1105.4102368060926" y1="709" x2="1105.4102368060926" y2="795" stroke="#339966" stroke-width="1.5"/><ellipse cx="1035.4102368060926" cy="709" rx="70" ry="10" fill="#f0fff0" stroke="#339966" stroke-width="1.5"/><path d="M965.4102368060927,795 A70,10 0 0 0 1105.4102368060926,795" fill="#f0fff0" stroke="#339966" stroke-width="1.5"/><path d="M965.4102368060927,714 A70,10 0 0 0 1105.4102368060926,714" fill="none" stroke="#339966" stroke-width="0.8" opacity="0.4"/><text x="1035.4102368060926" y="727" text-anchor="middle" font-weight="bold">OrderDB</text><line x1="969.4102368060927" y1="733" x2="1101.4102368060926" y2="733" stroke="#339966" stroke-width="0.5" stroke-dasharray="3,3"/><text x="1003.4102368060927" y="746.5" font-size="11" fill="#555">order_id</text><text x="1003.4102368060927" y="764.5" font-size="11" fill="#555">user_id</text><text x="1003.4102368060927" y="782.5" font-size="11" fill="#555">amount</text><rect x="1250.6102368060926" y="699" width="152" height="42" rx="4" fill="#fff5ee" stroke="#996633" stroke-width="1.5"/><rect x="1253.6102368060926" y="702" width="146" height="36" rx="2" fill="none" stroke="#996633" stroke-width="1"/><text x="1326.6102368060926" y="724.5" text-anchor="middle" font-weight="bold">決済ゲートウェイ</text><rect x="92" y="874" width="120" height="42" rx="4" fill="#fff5ee" stroke="#996633" stroke-width="1.5"/><rect x="95" y="877" width="114" height="36" rx="2" fill="none" stroke="#996633" stroke-width="1"/><text x="152" y="899.5" text-anchor="middle" font-weight="bold">メール配信</text><path d="M424.762390670554,110 L424.762390670554,252" fill="none" stroke="#666" stroke-width="1.5" marker-end="url(#arrow)"/><rect x="407.762390670554" y="169" width="34" height="16" rx="3" fill="white" opacity="0.85"/><text x="424.762390670554" y="181" text-anchor="middle" font-size="11" fill="#666">操作</text><path d="M578.7092669720951,110 L578.7092669720951,252" fill="none" stroke="#666" stroke-width="1.5" marker-end="url(#arrow)"/><rect x="561.7092669720951" y="169" width="34" height="16" rx="3" fill="white" opacity="0.85"/><text x="578.7092669720951" y="181" text-anchor="middle" font-size="11" fill="#666">操作</text><path d="M450.91028187658753,322.2702458773865 L583.4475564794558,475.70272953487483" fill="none" stroke="#666" stroke-width="1.5" marker-end="url(#arrow)"/><rect x="482.1789191780217" y="386.9864877061307" width="70" height="16" rx="3" fill="white" opacity="0.85"/><text x="517.1789191780217" y="398.9864877061307" text-anchor="middle" font-size="11" fill="#666">REST API</text><path d="M584.8122601225695,331.5316768504103 L605.4969443405708,465.5151554645487" fill="none" stroke="#666" stroke-width="1.5" marker-end="url(#arrow)"/><rect x="560.1546022315702" y="386.52341615747946" width="70" height="16" rx="3" fill="white" opacity="0.85"/><text x="595.1546022315702" y="398.52341615747946" text-anchor="middle" font-size="11" fill="#666">REST API</text><path d="M643.9268916617743,539.4967835150785 L809.8102368060927,699" fill="none" stroke="#666" stroke-width="1.5" marker-end="url(#arrow)"/><rect x="707.8685642339335" y="607.2483917575393" width="38" height="16" rx="3" fill="white" opacity="0.85"/><text x="726.8685642339335" y="619.2483917575393" text-anchor="middle" font-size="11" fill="#666">CRUD</text><path d="M651.0606703024805,529.6553580734576 L969.5791256949815,699" fill="none" stroke="#666" stroke-width="1.5" marker-end="url(#arrow)"/><rect x="791.319897998731" y="602.3276790367288" width="38" height="16" rx="3" fill="white" opacity="0.85"/><text x="810.319897998731" y="614.3276790367288" text-anchor="middle" font-size="11" fill="#666">CRUD</text><path d="M572.6816072005681,528.3258231780499 L223.58825905872553,699" fill="none" stroke="#666" stroke-width="1.5" marker-end="url(#arrow)"/><rect x="353.1349331296468" y="601.6629115890249" width="90" height="16" rx="3" fill="white" opacity="0.85"/><text x="398.1349331296468" y="613.6629115890249" text-anchor="middle" font-size="11" fill="#666">イベント発行</text><path d="M654.1779832118256,522.2177252817607 L1250.6102368060926,710.063829787234" fill="none" stroke="#666" stroke-width="1.5" marker-end="url(#arrow)"/><rect x="900.3941100089592" y="604.1407775344974" width="104" height="16" rx="3" fill="white" opacity="0.85"/><text x="952.3941100089592" y="616.1407775344974" text-anchor="middle" font-size="11" fill="#666">決済リクエスト</text><path d="M152,769 L152,874" fill="none" stroke="#666" stroke-width="1.5" marker-end="url(#arrow)"/><rect x="135" y="809.5" width="34" height="16" rx="3" fill="white" opacity="0.85"/><text x="152" y="821.5" text-anchor="middle" font-size="11" fill="#666">通知</text><path d="M578.0569480265809,536.7408158773904 L378.29048128094774,699" fill="none" stroke="#666" stroke-width="1.5" marker-end="url(#arrow)"/><rect x="447.17371465376436" y="605.8704079386953" width="62" height="16" rx="3" fill="white" opacity="0.85"/><text x="478.17371465376436" y="617.8704079386953" text-anchor="middle" font-size="11" fill="#666">書き込み</text></svg>