<svg xmlns="http://www.w3.org/2000/svg" width="1971.9293558371364" height="1305.5562942219851" viewBox="0 0 1971.9293558371364 1305.5562942219851"><rect width="100%" height="100%" fill="white"/><style>text { font-family: sans-serif; font-size: 13px; fill: #333; }</style><defs><marker id="arrow" viewBox="0 0 10 10" refX="10" refY="5" markerWidth="8" markerHeight="8" orient="auto"><polygon points="0,1 10,5 0,9" fill="#666"/></marker></defs><circle cx="504.0193859261423" cy="52" r="10" fill="none" stroke="#333" stroke-width="2"/><line x1="504.0193859261423" y1="62" x2="504.0193859261423" y2="85" stroke="#333" stroke-width="2"/><line x1="489.0193859261423" y1="72" x2="519.0193859261424" y2="72" stroke="#333" stroke-width="2"/><line x1="504.0193859261423" y1="85" x2="492.0193859261423" y2="100" stroke="#333" stroke-width="2"/><line x1="504.0193859261423" y1="85" x2="516.0193859261424" y2="100" stroke="#333" stroke-width="2"/><text x="504.0193859261423" y="115" text-anchor="middle">ユーザー</text><circle cx="809.3733397168573" cy="52" r="10" fill="none" stroke="#333" stroke-width="2"/><line x1="809.3733397168573" y1="62" x2="809.3733397168573" y2="85" stroke="#333" stroke-width="2"/><line x1="794.3733397168573" y1="72" x2="824.3733397168573" y2="72" stroke="#333" stroke-width="2"/><line x1="809.3733397168573" y1="85" x2="797.3733397168573" y2="100" stroke="#333" stroke-width="2"/><line x1="809.3733397168573" y1="85" x2="821.3733397168573" y2="100" stroke="#333" stroke-width="2"/><text x="809.3733397168573" y="115" text-anchor="middle">管理者</text><rect x="424.0193859261423" y="269.3890735554963" width="465.353953790715" height="178" rx="6" fill="#fff8f8" stroke="#cc3333" stroke-width="1.5" stroke-dasharray="8,4"/><text x="432.0193859261423" y="289.3890735554963" font-weight="bold" font-size="13" fill="#cc3333">フロントエンド</text><circle cx="504.0193859261423" cy="377.3890735554963" r="40" fill="#f0f8ff" stroke="#336699" stroke-width="1.5"/><path d="M536.5462978607235,344.8621616209151 A46,46 0 1 1 471.49247399156116,409.91598549007745" fill="none" stroke="#336699" stroke-width="1.5" marker-end="url(#arrow)"/><text x="504.0193859261423" y="381.8890735554963" text-anchor="middle" font-weight="bold">Web App</text><circle cx="809.3733397168573" cy="377.3890735554963" r="40" fill="#f0f8ff" stroke="#336699" stroke-width="1.5"/><path d="M841.9002516514386,344.8621616209151 A46,46 0 1 1 776.8464277822761,409.91598549007745" fill="none" stroke="#336699" stroke-width="1.5" marker-end="url(#arrow)"/><text x="809.3733397168573" y="381.8890735554963" text-anchor="middle" font-weight="bold">管理画面</text><rect x="40" y="566.7781471109926" width="895.5866254023902" height="483.38907355549634" rx="6" fill="#fff8f8" stroke="#cc3333" stroke-width="1.5" stroke-dasharray="8,4"/><text x="48" y="586.7781471109926" font-weight="bold" font-size="13" fill="#cc3333">バックエンド</text><circle cx="851.5866254023902" cy="678.7781471109926" r="44" fill="#f0f8ff" stroke="#336699" stroke-width="1.5"/><path d="M886.9419644617176,643.4228080516652 A50,50 0 1 1 816.2312863430628,714.1334861703199" fill="none" stroke="#336699" stroke-width="1.5" marker-end="url(#arrow)"/><text x="851.5866254023902" y="674.2781471109926" text-anchor="middle" font-weight="bold">A P</text><text x="851.5866254023902" y="692.2781471109926" text-anchor="middle" font-weight="bold">Iサーバー</text><ellipse cx="212" cy="965.1672206664889" rx="12" ry="25" fill="#f3e5f5" stroke="#7b1fa2" stroke-width="1" opacity="0.25"/><ellipse cx="204" cy="965.1672206664889" rx="12" ry="25" fill="#f3e5f5" stroke="#7b1fa2" stroke-width="1" opacity="0.45"/><rect x="92" y="940.1672206664889" width="104" height="50" fill="#f3e5f5" stroke="none"/><line x1="92" y1="940.1672206664889" x2="196" y2="940.1672206664889" stroke="#7b1fa2" stroke-width="1.5"/><line x1="92" y1="990.1672206664889" x2="196" y2="990.1672206664889" stroke="#7b1fa2" stroke-width="1.5"/><ellipse cx="92" cy="965.1672206664889" rx="12" ry="25" fill="#f3e5f5" stroke="#7b1fa2" stroke-width="1.5"/><ellipse cx="196" cy="965.1672206664889" rx="12" ry="25" fill="#f3e5f5" stroke="#7b1fa2" stroke-width="1.5"/><text x="144" y="969.6672206664889" text-anchor="middle" font-weight="bold">Event Bus</text><path d="M418.1713652173731,940.1672206664889 L506.171365217373,940.1672206664889 L518.171365217373,952.1672206664889 L518.171365217373,970.1672206664889 L418.1713652173731,970.1672206664889 Z" fill="#fffde7" stroke="#f9a825" stroke-width="1.5"/><path d="M506.171365217373,940.1672206664889 L506.171365217373,952.1672206664889 L518.171365217373,952.1672206664889" fill="none" stroke="#f9a825" stroke-width="1"/><text x="468.1713652173731" y="959.6672206664889" text-anchor="middle" font-weight="bold">ログファイル</text><rect x="975.5866254023902" y="872.1672206664889" width="554.1713652173732" height="178" rx="6" fill="#fff8f8" stroke="#cc3333" stroke-width="1.5" stroke-dasharray="8,4"/><text x="983.5866254023902" y="892.1672206664889" font-weight="bold" font-size="13" fill="#cc3333">データ層</text><rect x="1015.5866254023902" y="950.1672206664889" width="140" height="86" fill="#f0fff0" stroke="none"/><line x1="1015.5866254023902" y1="950.1672206664889" x2="1015.5866254023902" y2="1036.167220666489" stroke="#339966" stroke-width="1.5"/><line x1="1155.5866254023902" y1="950.1672206664889" x2="1155.5866254023902" y2="1036.167220666489" stroke="#339966" stroke-width="1.5"/><ellipse cx="1085.5866254023902" cy="950.1672206664889" rx="70" ry="10" fill="#f0fff0" stroke="#339966" stroke-width="1.5"/><path d="M1015.5866254023902,1036.167220666489 A70,10 0 0 0 1155.5866254023902,1036.167220666489" fill="#f0fff0" stroke="#339966" stroke-width="1.5"/><path d="M1015.5866254023902,955.1672206664889 A70,10 0 0 0 1155.5866254023902,955.1672206664889" fill="none" stroke="#339966" stroke-width="0.8" opacity="0.4"/><text x="1085.5866254023902" y="968.1672206664889" text-anchor="middle" font-weight="bold">UserDB</text><line x1="1019.5866254023902" y1="974.1672206664889" x2="1151.5866254023902" y2="974.1672206664889" stroke="#339966" stroke-width="0.5" stroke-dasharray="3,3"/><text x="1065.5866254023902" y="987.6672206664889" font-size="11" fill="#555">id</text><text x="1065.5866254023902" y="1005.6672206664889" font-size="11" fill="#555">name</text><text x="1065.5866254023902" y="1023.6672206664889" font-size="11" fill="#555">email</text><rect x="1349.7579906197634" y="950.1672206664889" width="140" height="86" fill="#f0fff0" stroke="none"/><line x1="1349.7579906197634" y1="950.1672206664889" x2="1349.7579906197634" y2="1036.167220666489" stroke="#339966" stroke-width="1.5"/><line x1="1489.7579906197634" y1="950.1672206664889" x2="1489.7579906197634" y2="1036.167220666489" stroke="#339966" stroke-width="1.5"/><ellipse cx="1419.7579906197634" cy="950.1672206664889" rx="70" ry="10" fill="#f0fff0" stroke="#339966" stroke-width="1.5"/><path d="M1349.7579906197634,1036.167220666489 A70,10 0 0 0 1489.7579906197634,1036.167220666489" fill="#f0fff0" stroke="#339966" stroke-width="1.5"/><path d="M1349.7579906197634,955.1672206664889 A70,10 0 0 0 1489.7579906197634,955.1672206664889" fill="none" stroke="#339966" stroke-width="0.8" opacity="0.4"/><text x="1419.7579906197634" y="968.1672206664889" text-anchor="middle" font-weight="bold">OrderDB</text><line x1="1353.7579906197634" y1="974.1672206664889" x2="1485.7579906197634" y2="974.1672206664889" stroke="#339966" stroke-width="0.5" stroke-dasharray="3,3"/><text x="1387.7579906197634" y="987.6672206664889" font-size="11" fill="#555">order_id</text><text x="1387.7579906197634" y="1005.6672206664889" font-size="11" fill="#555">user_id</text><text x="1387.7579906197634" y="1023.6672206664889" font-size="11" fill="#555">amount</text><rect x="1779.9293558371364" y="940.1672206664889" width="152" height="42" rx="4" fill="#fff5ee" stroke="#996633" stroke-width="1.5"/><rect x="1782.9293558371364" y="943.1672206664889" width="146" height="36" rx="2" fill="none" stroke="#996633" stroke-width="1"/><text x="1855.9293558371364" y="965.6672206664889" text-anchor="middle" font-weight="bold">決済ゲートウェイ</text><rect x="92" y="1195.5562942219851" width="120" height="42" rx="4" fill="#fff5ee" stroke="#996633" stroke-width="1.5"/><rect x="95" y="1198.5562942219851" width="114" height="36" rx="2" fill="none" stroke="#996633" stroke-width="1"/><text x="152" y="1221.0562942219851" text-anchor="middle" font-weight="bold">メール配信</text><path d="M504.0193859261423,120 L504.0193859261423,337.3890735554963" fill="none" stroke="#666" stroke-width="1.5" marker-end="url(#arrow)"/><rect x="487.0193859261423" y="216.69453677774814" width="34" height="16" rx="3" fill="white" opacity="0.85"/><text x="504.0193859261423" y="228.69453677774814" text-anchor="middle" font-size="11" fill="#666">操作</text><path d="M809.3733397168573,120 L809.3733397168573,337.3890735554963" fill="none" stroke="#666" stroke-width="1.5" marker-end="url(#arrow)"/><rect x="792.3733397168573" y="216.69453677774814" width="34" height="16" rx="3" fill="white" opacity="0.85"/><text x="809.3733397168573" y="228.69453677774814" text-anchor="middle" font-size="11" fill="#666">操作</text><path d="M534.2398850247367,403.59444388739297 L818.3440763939362,649.9522397459062" fill="none" stroke="#666" stroke-width="1.5" marker-end="url(#arrow)"/><rect x="641.2919807093365" y="514.7733418166496" width="70" height="16" rx="3" fill="white" opacity="0.85"/><text x="676.2919807093365" y="526.7733418166496" text-anchor="middle" font-size="11" fill="#666">REST API</text><path d="M814.9216789650412,417.0024037814071 L845.4834522293879,635.2034838624907" fill="none" stroke="#666" stroke-width="1.5" marker-end="url(#arrow)"/><rect x="795.2025655972145" y="514.1029438219489" width="70" height="16" rx="3" fill="white" opacity="0.85"/><text x="830.2025655972145" y="526.1029438219489" text-anchor="middle" font-size="11" fill="#666">REST API</text><path d="M877.857703099722,714.0744709510294 L1046.1386895700693,940.1672206664889" fill="none" stroke="#666" stroke-width="1.5" marker-end="url(#arrow)"/><rect x="942.9981963348957" y="815.1208458087592" width="38" height="16" rx="3" fill="white" opacity="0.85"/><text x="961.9981963348957" y="827.1208458087592" text-anchor="middle" font-size="11" fill="#666">CRUD</text><path d="M890.0857836218748,700.081076871734 L1349.7579906197634,954.4337742168159" fill="none" stroke="#666" stroke-width="1.5" marker-end="url(#arrow)"/><rect x="1100.921887120819" y="815.257425544275" width="38" height="16" rx="3" fill="white" opacity="0.85"/><text x="1119.921887120819" y="827.257425544275" text-anchor="middle" font-size="11" fill="#666">CRUD</text><path d="M810.866528780783,695.447692129588 L213.0695981446744,940.1672206664889" fill="none" stroke="#666" stroke-width="1.5" marker-end="url(#arrow)"/><rect x="466.9680634627287" y="805.8074563980384" width="90" height="16" rx="3" fill="white" opacity="0.85"/><text x="511.9680634627287" y="817.8074563980384" text-anchor="middle" font-size="11" fill="#666">イベント発行</text><path d="M893.9441715064706,690.6877351828233 L1781.2409230533349,940.1672206664889" fill="none" stroke="#666" stroke-width="1.5" marker-end="url(#arrow)"/><rect x="1285.5925472799026" y="803.4274779246562" width="104" height="16" rx="3" fill="white" opacity="0.85"/><text x="1337.5925472799026" y="815.4274779246562" text-anchor="middle" font-size="11" fill="#666">決済リクエスト</text><path d="M152,990.1672206664889 L152,1195.5562942219851" fill="none" stroke="#666" stroke-width="1.5" marker-end="url(#arrow)"/><rect x="135" y="1080.861757444237" width="34" height="16" rx="3" fill="white" opacity="0.85"/><text x="152" y="1092.861757444237" text-anchor="middle" font-size="11" fill="#666">通知</text><path d="M815.8936910193863,704.5077882886419 L488.9798176963039,940.1672206664889" fill="none" stroke="#666" stroke-width="1.5" marker-end="url(#arrow)"/><rect x="621.4367543578451" y="810.3375044775654" width="62" height="16" rx="3" fill="white" opacity="0.85"/><text x="652.4367543578451" y="822.3375044775654" text-anchor="middle" font-size="11" fill="#666">書き込み</text></svg>