<svg xmlns="http://www.w3.org/2000/svg" width="798" height="530" viewBox="0 0 798 530"><rect width="100%" height="100%" fill="white"/><style>text { font-family: sans-serif; font-size: 12px; fill: #333; }</style><defs><marker id="arrow" viewBox="0 0 10 10" refX="10" refY="5" markerWidth="7" markerHeight="7" orient="auto"><polygon points="0,1 10,5 0,9" fill="#888"/></marker></defs><rect x="206" y="30" width="220" height="470" fill="#fafafa" stroke="#e0e0e0" stroke-width="0.5"/><rect x="206" y="30" width="220" height="44" fill="#e8eaf6"/><line x1="206" y1="74" x2="426" y2="74" stroke="#e0e0e0" stroke-width="1"/><circle cx="286" cy="46" r="5" fill="none" stroke="#333" stroke-width="1.5"/><line x1="286" y1="51" x2="286" y2="60" stroke="#333" stroke-width="1.5"/><line x1="279" y1="55" x2="293" y2="55" stroke="#333" stroke-width="1.5"/><line x1="286" y1="60" x2="281" y2="66" stroke="#333" stroke-width="1.5"/><line x1="286" y1="60" x2="291" y2="66" stroke="#333" stroke-width="1.5"/><text x="300" y="57" font-weight="bold" fill="#333">ユーザー</text><line x1="316" y1="82" x2="316" y2="500" stroke="#ddd" stroke-width="1" stroke-dasharray="4,4"/><rect x="432" y="30" width="160" height="470" fill="#f5f5f5" stroke="#e0e0e0" stroke-width="0.5"/><rect x="432" y="30" width="160" height="44" fill="#e8eaf6"/><line x1="432" y1="74" x2="592" y2="74" stroke="#e0e0e0" stroke-width="1"/><circle cx="482" cy="46" r="5" fill="none" stroke="#333" stroke-width="1.5"/><line x1="482" y1="51" x2="482" y2="60" stroke="#333" stroke-width="1.5"/><line x1="475" y1="55" x2="489" y2="55" stroke="#333" stroke-width="1.5"/><line x1="482" y1="60" x2="477" y2="66" stroke="#333" stroke-width="1.5"/><line x1="482" y1="60" x2="487" y2="66" stroke="#333" stroke-width="1.5"/><text x="496" y="57" font-weight="bold" fill="#333">社員</text><line x1="512" y1="82" x2="512" y2="500" stroke="#ddd" stroke-width="1" stroke-dasharray="4,4"/><rect x="635" y="452" width="130" height="32" fill="#f0fff0" stroke="none"/><line x1="635" y1="452" x2="765" y2="452" stroke="#339966" stroke-width="1.5"/><line x1="635" y1="484" x2="765" y2="484" stroke="#339966" stroke-width="1.5"/><text x="700" y="472" text-anchor="middle" font-size="11" font-weight="bold" fill="#339966">ユーザーDB</text><rect x="33" y="446" width="130" height="32" fill="#f0fff0" stroke="none"/><line x1="33" y1="446" x2="163" y2="446" stroke="#339966" stroke-width="1.5"/><line x1="33" y1="478" x2="163" y2="478" stroke="#339966" stroke-width="1.5"/><text x="98" y="466" text-anchor="middle" font-size="11" font-weight="bold" fill="#339966">契約DB</text><rect x="632" y="104" width="136" height="32" rx="4" fill="#f3e5f5" stroke="#7b1fa2" stroke-width="1.5"/><text x="700" y="124" text-anchor="middle" font-size="11" font-weight="bold" fill="#7b1fa2">メール送信キュー</text><ellipse cx="316" cy="126" rx="86" ry="22" fill="#f0f8ff" stroke="#336699" stroke-width="1.5"/><text x="316" y="122" text-anchor="middle" font-size="10" font-weight="bold" fill="#336699">1</text><text x="316" y="136" text-anchor="middle" font-size="10" fill="#336699">会員登録フォーム送信</text><path d="M402,126 C470.1,126 560.9,468 629,468" fill="none" stroke="#339966" stroke-width="1" marker-end="url(#arrow)" opacity="0.7"/><rect x="492.5" y="280" width="46" height="13" rx="2" fill="white" opacity="0.9"/><text x="515.5" y="289" text-anchor="middle" font-size="9" fill="#339966">仮登録</text><path d="M402,126 C469.2,126 558.8,120 626,120" fill="none" stroke="#7b1fa2" stroke-width="1" marker-end="url(#arrow)" opacity="0.7"/><rect x="463" y="106" width="102" height="13" rx="2" fill="white" opacity="0.9"/><text x="514" y="115" text-anchor="middle" font-size="9" fill="#7b1fa2">確認メール依頼</text><ellipse cx="316" cy="210" rx="100" ry="22" fill="#f0f8ff" stroke="#336699" stroke-width="1.5"/><text x="316" y="206" text-anchor="middle" font-size="10" font-weight="bold" fill="#336699">2</text><text x="316" y="220" text-anchor="middle" font-size="10" fill="#336699">メール認証リンククリック</text><line x1="316" y1="150" x2="316" y2="182" stroke="#336699" stroke-width="1.5" marker-end="url(#arrow)"/><path d="M416,210 C479.9,210 565.1,468 629,468" fill="none" stroke="#339966" stroke-width="1" marker-end="url(#arrow)" opacity="0.7"/><rect x="478.5" y="322" width="88" height="13" rx="2" fill="white" opacity="0.9"/><text x="522.5" y="331" text-anchor="middle" font-size="9" fill="#339966">認証済み更新</text><ellipse cx="512" cy="294" rx="58" ry="22" fill="#f0f8ff" stroke="#336699" stroke-width="1.5"/><text x="512" y="290" text-anchor="middle" font-size="10" font-weight="bold" fill="#336699">3</text><text x="512" y="304" text-anchor="middle" font-size="10" fill="#336699">会員審査実施</text><path d="M316,234 C316,252 512,252 512,266" fill="none" stroke="#336699" stroke-width="1.5" marker-end="url(#arrow)"/><path d="M570,294 C587.7,294 611.3,468 629,468" fill="none" stroke="#339966" stroke-width="1" marker-end="url(#arrow)" opacity="0.7"/><rect x="576.5" y="364" width="46" height="13" rx="2" fill="white" opacity="0.9"/><text x="599.5" y="373" text-anchor="middle" font-size="9" fill="#339966">本登録</text><path d="M570,294 C586.8,294 609.2,120 626,120" fill="none" stroke="#7b1fa2" stroke-width="1" marker-end="url(#arrow)" opacity="0.7"/><rect x="547" y="190" width="102" height="13" rx="2" fill="white" opacity="0.9"/><text x="598" y="199" text-anchor="middle" font-size="9" fill="#7b1fa2">登録完了メール</text><ellipse cx="316" cy="378" rx="44" ry="22" fill="#f0f8ff" stroke="#336699" stroke-width="1.5"/><text x="316" y="374" text-anchor="middle" font-size="10" font-weight="bold" fill="#336699">4</text><text x="316" y="388" text-anchor="middle" font-size="10" fill="#336699">ログイン</text><path d="M512,318 C512,336 316,336 316,350" fill="none" stroke="#336699" stroke-width="1.5" marker-end="url(#arrow)"/><path d="M360,378 C440.7,378 548.3,468 629,468" fill="none" stroke="#339966" stroke-width="1" marker-end="url(#arrow)" opacity="0.7"/><rect x="464.5" y="406" width="60" height="13" rx="2" fill="white" opacity="0.9"/><text x="494.5" y="415" text-anchor="middle" font-size="9" fill="#339966">認証確認</text><ellipse cx="316" cy="462" rx="86" ry="22" fill="#f0f8ff" stroke="#336699" stroke-width="1.5"/><text x="316" y="458" text-anchor="middle" font-size="10" font-weight="bold" fill="#336699">5</text><text x="316" y="472" text-anchor="middle" font-size="10" fill="#336699">プラン選択・契約開始</text><line x1="316" y1="402" x2="316" y2="434" stroke="#336699" stroke-width="1.5" marker-end="url(#arrow)"/><path d="M230,462 C211.7,462 187.3,462 169,462" fill="none" stroke="#339966" stroke-width="1" marker-end="url(#arrow)" opacity="0.7"/><rect x="169.5" y="445" width="60" height="13" rx="2" fill="white" opacity="0.9"/><text x="199.5" y="454" text-anchor="middle" font-size="9" fill="#339966">契約作成</text></svg>