<svg xmlns="http://www.w3.org/2000/svg" width="1000" height="620" viewBox="0 0 1000 620"><rect width="100%" height="100%" fill="white"/><style>text { font-family: sans-serif; font-size: 12px; fill: #333; }</style><defs><marker id="arrow" viewBox="0 0 10 10" refX="10" refY="5" markerWidth="7" markerHeight="7" orient="auto"><polygon points="0,1 10,5 0,9" fill="#888"/></marker></defs><rect x="246" y="30" width="244" height="560" fill="#fafafa" stroke="#e0e0e0" stroke-width="0.5"/><rect x="246" y="30" width="244" height="44" fill="#e8eaf6"/><line x1="246" y1="74" x2="490" y2="74" stroke="#e0e0e0" stroke-width="1"/><circle cx="338" cy="46" r="5" fill="none" stroke="#333" stroke-width="1.5"/><line x1="338" y1="51" x2="338" y2="60" stroke="#333" stroke-width="1.5"/><line x1="331" y1="55" x2="345" y2="55" stroke="#333" stroke-width="1.5"/><line x1="338" y1="60" x2="333" y2="66" stroke="#333" stroke-width="1.5"/><line x1="338" y1="60" x2="343" y2="66" stroke="#333" stroke-width="1.5"/><text x="352" y="57" font-weight="bold" fill="#333">ユーザー</text><line x1="368" y1="82" x2="368" y2="590" stroke="#ddd" stroke-width="1" stroke-dasharray="4,4"/><rect x="510" y="30" width="244" height="560" fill="#f5f5f5" stroke="#e0e0e0" stroke-width="0.5"/><rect x="510" y="30" width="244" height="44" fill="#e8eaf6"/><line x1="510" y1="74" x2="754" y2="74" stroke="#e0e0e0" stroke-width="1"/><circle cx="602" cy="46" r="5" fill="none" stroke="#333" stroke-width="1.5"/><line x1="602" y1="51" x2="602" y2="60" stroke="#333" stroke-width="1.5"/><line x1="595" y1="55" x2="609" y2="55" stroke="#333" stroke-width="1.5"/><line x1="602" y1="60" x2="597" y2="66" stroke="#333" stroke-width="1.5"/><line x1="602" y1="60" x2="607" y2="66" stroke="#333" stroke-width="1.5"/><text x="616" y="57" font-weight="bold" fill="#333">社員</text><line x1="632" y1="82" x2="632" y2="590" stroke="#ddd" stroke-width="1" stroke-dasharray="4,4"/><rect x="837" y="542" width="130" height="32" fill="#f0fff0" stroke="none"/><line x1="837" y1="542" x2="967" y2="542" stroke="#339966" stroke-width="1.5"/><line x1="837" y1="574" x2="967" y2="574" stroke="#339966" stroke-width="1.5"/><text x="902" y="562" text-anchor="middle" font-size="11" font-weight="bold" fill="#339966">ユーザーDB</text><rect x="33" y="534" width="130" height="32" fill="#f0fff0" stroke="none"/><line x1="33" y1="534" x2="163" y2="534" stroke="#339966" stroke-width="1.5"/><line x1="33" y1="566" x2="163" y2="566" stroke="#339966" stroke-width="1.5"/><text x="98" y="554" text-anchor="middle" font-size="11" font-weight="bold" fill="#339966">契約DB</text><rect x="834" y="110" width="136" height="32" rx="4" fill="#f3e5f5" stroke="#7b1fa2" stroke-width="1.5"/><text x="902" y="130" text-anchor="middle" font-size="11" font-weight="bold" fill="#7b1fa2">メール送信キュー</text><ellipse cx="368" cy="134" rx="88" ry="24" fill="#f0f8ff" stroke="#336699" stroke-width="1.5"/><text x="368" y="130" text-anchor="middle" font-size="10" font-weight="bold" fill="#336699">1</text><text x="368" y="144" text-anchor="middle" font-size="10" fill="#336699">会員登録フォーム送信</text><path d="M456,134 C568.5,134 718.5,558 831,558" fill="none" stroke="#339966" stroke-width="1" marker-end="url(#arrow)" opacity="0.7"/><rect x="620.5" y="329" width="46" height="13" rx="2" fill="white" opacity="0.9"/><text x="643.5" y="338" text-anchor="middle" font-size="9" fill="#339966">仮登録</text><path d="M456,134 C567.6,134 716.4,126 828,126" fill="none" stroke="#7b1fa2" stroke-width="1" marker-end="url(#arrow)" opacity="0.7"/><rect x="591" y="113" width="102" height="13" rx="2" fill="white" opacity="0.9"/><text x="642" y="122" text-anchor="middle" font-size="9" fill="#7b1fa2">確認メール依頼</text><ellipse cx="368" cy="238" rx="102" ry="24" fill="#f0f8ff" stroke="#336699" stroke-width="1.5"/><text x="368" y="234" text-anchor="middle" font-size="10" font-weight="bold" fill="#336699">2</text><text x="368" y="248" text-anchor="middle" font-size="10" fill="#336699">メール認証リンククリック</text><line x1="368" y1="160" x2="368" y2="208" stroke="#336699" stroke-width="1.5" marker-end="url(#arrow)"/><path d="M470,238 C578.3,238 722.7,558 831,558" fill="none" stroke="#339966" stroke-width="1" marker-end="url(#arrow)" opacity="0.7"/><rect x="606.5" y="381" width="88" height="13" rx="2" fill="white" opacity="0.9"/><text x="650.5" y="390" text-anchor="middle" font-size="9" fill="#339966">認証済み更新</text><ellipse cx="632" cy="342" rx="60" ry="24" fill="#f0f8ff" stroke="#336699" stroke-width="1.5"/><text x="632" y="338" text-anchor="middle" font-size="10" font-weight="bold" fill="#336699">3</text><text x="632" y="352" text-anchor="middle" font-size="10" fill="#336699">会員審査実施</text><path d="M368,264 C368,290 632,290 632,312" fill="none" stroke="#336699" stroke-width="1.5" marker-end="url(#arrow)"/><path d="M692,342 C733.7,342 789.3,558 831,558" fill="none" stroke="#339966" stroke-width="1" marker-end="url(#arrow)" opacity="0.7"/><rect x="738.5" y="433" width="46" height="13" rx="2" fill="white" opacity="0.9"/><text x="761.5" y="442" text-anchor="middle" font-size="9" fill="#339966">本登録</text><path d="M692,342 C732.8,342 787.2,126 828,126" fill="none" stroke="#7b1fa2" stroke-width="1" marker-end="url(#arrow)" opacity="0.7"/><rect x="709" y="217" width="102" height="13" rx="2" fill="white" opacity="0.9"/><text x="760" y="226" text-anchor="middle" font-size="9" fill="#7b1fa2">登録完了メール</text><ellipse cx="368" cy="446" rx="46" ry="24" fill="#f0f8ff" stroke="#336699" stroke-width="1.5"/><text x="368" y="442" text-anchor="middle" font-size="10" font-weight="bold" fill="#336699">4</text><text x="368" y="456" text-anchor="middle" font-size="10" fill="#336699">ログイン</text><path d="M632,368 C632,394 368,394 368,416" fill="none" stroke="#336699" stroke-width="1.5" marker-end="url(#arrow)"/><path d="M414,446 C539.1,446 705.9,558 831,558" fill="none" stroke="#339966" stroke-width="1" marker-end="url(#arrow)" opacity="0.7"/><rect x="592.5" y="485" width="60" height="13" rx="2" fill="white" opacity="0.9"/><text x="622.5" y="494" text-anchor="middle" font-size="9" fill="#339966">認証確認</text><ellipse cx="368" cy="550" rx="88" ry="24" fill="#f0f8ff" stroke="#336699" stroke-width="1.5"/><text x="368" y="546" text-anchor="middle" font-size="10" font-weight="bold" fill="#336699">5</text><text x="368" y="560" text-anchor="middle" font-size="10" fill="#336699">プラン選択・契約開始</text><line x1="368" y1="472" x2="368" y2="520" stroke="#336699" stroke-width="1.5" marker-end="url(#arrow)"/><path d="M280,550 C246.7,550 202.3,550 169,550" fill="none" stroke="#339966" stroke-width="1" marker-end="url(#arrow)" opacity="0.7"/><rect x="194.5" y="533" width="60" height="13" rx="2" fill="white" opacity="0.9"/><text x="224.5" y="542" text-anchor="middle" font-size="9" fill="#339966">契約作成</text></svg>