<svg xmlns="http://www.w3.org/2000/svg" width="1292" height="620" viewBox="0 0 1292 620"><rect width="100%" height="100%" fill="white"/><style>text { font-family: sans-serif; font-size: 12px; fill: #333; }</style><defs><marker id="arrow" viewBox="0 0 10 10" refX="10" refY="5" markerWidth="7" markerHeight="7" orient="auto"><polygon points="0,1 10,5 0,9" fill="#888"/></marker></defs><rect x="326" y="30" width="300" height="560" fill="#fafafa" stroke="#e0e0e0" stroke-width="0.5"/><rect x="326" y="30" width="300" height="44" fill="#e8eaf6"/><line x1="326" y1="74" x2="626" y2="74" stroke="#e0e0e0" stroke-width="1"/><circle cx="446" cy="46" r="5" fill="none" stroke="#333" stroke-width="1.5"/><line x1="446" y1="51" x2="446" y2="60" stroke="#333" stroke-width="1.5"/><line x1="439" y1="55" x2="453" y2="55" stroke="#333" stroke-width="1.5"/><line x1="446" y1="60" x2="441" y2="66" stroke="#333" stroke-width="1.5"/><line x1="446" y1="60" x2="451" y2="66" stroke="#333" stroke-width="1.5"/><text x="460" y="57" font-weight="bold" fill="#333">ユーザー</text><line x1="476" y1="82" x2="476" y2="590" stroke="#ddd" stroke-width="1" stroke-dasharray="4,4"/><rect x="666" y="30" width="300" height="560" fill="#f5f5f5" stroke="#e0e0e0" stroke-width="0.5"/><rect x="666" y="30" width="300" height="44" fill="#e8eaf6"/><line x1="666" y1="74" x2="966" y2="74" stroke="#e0e0e0" stroke-width="1"/><circle cx="786" cy="46" r="5" fill="none" stroke="#333" stroke-width="1.5"/><line x1="786" y1="51" x2="786" y2="60" stroke="#333" stroke-width="1.5"/><line x1="779" y1="55" x2="793" y2="55" stroke="#333" stroke-width="1.5"/><line x1="786" y1="60" x2="781" y2="66" stroke="#333" stroke-width="1.5"/><line x1="786" y1="60" x2="791" y2="66" stroke="#333" stroke-width="1.5"/><text x="800" y="57" font-weight="bold" fill="#333">社員</text><line x1="816" y1="82" x2="816" y2="590" stroke="#ddd" stroke-width="1" stroke-dasharray="4,4"/><rect x="1129" y="542" width="130" height="32" fill="#f0fff0" stroke="none"/><line x1="1129" y1="542" x2="1259" y2="542" stroke="#339966" stroke-width="1.5"/><line x1="1129" y1="574" x2="1259" y2="574" stroke="#339966" stroke-width="1.5"/><text x="1194" y="562" text-anchor="middle" font-size="11" font-weight="bold" fill="#339966">ユーザーDB</text><rect x="33" y="534" width="130" height="32" fill="#f0fff0" stroke="none"/><line x1="33" y1="534" x2="163" y2="534" stroke="#339966" stroke-width="1.5"/><line x1="33" y1="566" x2="163" y2="566" stroke="#339966" stroke-width="1.5"/><text x="98" y="554" text-anchor="middle" font-size="11" font-weight="bold" fill="#339966">契約DB</text><rect x="1126" y="110" width="136" height="32" rx="4" fill="#f3e5f5" stroke="#7b1fa2" stroke-width="1.5"/><text x="1194" y="130" text-anchor="middle" font-size="11" font-weight="bold" fill="#7b1fa2">メール送信キュー</text><ellipse cx="476" cy="134" rx="88" ry="24" fill="#f0f8ff" stroke="#336699" stroke-width="1.5"/><text x="476" y="130" text-anchor="middle" font-size="10" font-weight="bold" fill="#336699">1</text><text x="476" y="144" text-anchor="middle" font-size="10" fill="#336699">会員登録フォーム送信</text><path d="M564,134 C731.7,134 955.3,558 1123,558" fill="none" stroke="#339966" stroke-width="1" marker-end="url(#arrow)" opacity="0.7"/><rect x="820.5" y="329" width="46" height="13" rx="2" fill="white" opacity="0.9"/><text x="843.5" y="338" text-anchor="middle" font-size="9" fill="#339966">仮登録</text><path d="M564,134 C730.8,134 953.2,126 1120,126" fill="none" stroke="#7b1fa2" stroke-width="1" marker-end="url(#arrow)" opacity="0.7"/><rect x="791" y="113" width="102" height="13" rx="2" fill="white" opacity="0.9"/><text x="842" y="122" text-anchor="middle" font-size="9" fill="#7b1fa2">確認メール依頼</text><ellipse cx="476" cy="238" rx="102" ry="24" fill="#f0f8ff" stroke="#336699" stroke-width="1.5"/><text x="476" y="234" text-anchor="middle" font-size="10" font-weight="bold" fill="#336699">2</text><text x="476" y="248" text-anchor="middle" font-size="10" fill="#336699">メール認証リンククリック</text><line x1="476" y1="160" x2="476" y2="208" stroke="#336699" stroke-width="1.5" marker-end="url(#arrow)"/><path d="M578,238 C741.5,238 959.5,558 1123,558" fill="none" stroke="#339966" stroke-width="1" marker-end="url(#arrow)" opacity="0.7"/><rect x="806.5" y="381" width="88" height="13" rx="2" fill="white" opacity="0.9"/><text x="850.5" y="390" text-anchor="middle" font-size="9" fill="#339966">認証済み更新</text><ellipse cx="816" cy="342" rx="60" ry="24" fill="#f0f8ff" stroke="#336699" stroke-width="1.5"/><text x="816" y="338" text-anchor="middle" font-size="10" font-weight="bold" fill="#336699">3</text><text x="816" y="352" text-anchor="middle" font-size="10" fill="#336699">会員審査実施</text><path d="M476,264 C476,290 816,290 816,312" fill="none" stroke="#336699" stroke-width="1.5" marker-end="url(#arrow)"/><path d="M876,342 C950.1,342 1048.9,558 1123,558" fill="none" stroke="#339966" stroke-width="1" marker-end="url(#arrow)" opacity="0.7"/><rect x="976.5" y="433" width="46" height="13" rx="2" fill="white" opacity="0.9"/><text x="999.5" y="442" text-anchor="middle" font-size="9" fill="#339966">本登録</text><path d="M876,342 C949.2,342 1046.8,126 1120,126" fill="none" stroke="#7b1fa2" stroke-width="1" marker-end="url(#arrow)" opacity="0.7"/><rect x="947" y="217" width="102" height="13" rx="2" fill="white" opacity="0.9"/><text x="998" y="226" text-anchor="middle" font-size="9" fill="#7b1fa2">登録完了メール</text><ellipse cx="476" cy="446" rx="46" ry="24" fill="#f0f8ff" stroke="#336699" stroke-width="1.5"/><text x="476" y="442" text-anchor="middle" font-size="10" font-weight="bold" fill="#336699">4</text><text x="476" y="456" text-anchor="middle" font-size="10" fill="#336699">ログイン</text><path d="M816,368 C816,394 476,394 476,416" fill="none" stroke="#336699" stroke-width="1.5" marker-end="url(#arrow)"/><path d="M522,446 C702.3,446 942.7,558 1123,558" fill="none" stroke="#339966" stroke-width="1" marker-end="url(#arrow)" opacity="0.7"/><rect x="792.5" y="485" width="60" height="13" rx="2" fill="white" opacity="0.9"/><text x="822.5" y="494" text-anchor="middle" font-size="9" fill="#339966">認証確認</text><ellipse cx="476" cy="550" rx="88" ry="24" fill="#f0f8ff" stroke="#336699" stroke-width="1.5"/><text x="476" y="546" text-anchor="middle" font-size="10" font-weight="bold" fill="#336699">5</text><text x="476" y="560" text-anchor="middle" font-size="10" fill="#336699">プラン選択・契約開始</text><line x1="476" y1="472" x2="476" y2="520" stroke="#336699" stroke-width="1.5" marker-end="url(#arrow)"/><path d="M388,550 C322.3,550 234.7,550 169,550" fill="none" stroke="#339966" stroke-width="1" marker-end="url(#arrow)" opacity="0.7"/><rect x="248.5" y="533" width="60" height="13" rx="2" fill="white" opacity="0.9"/><text x="278.5" y="542" text-anchor="middle" font-size="9" fill="#339966">契約作成</text></svg>