<svg xmlns="http://www.w3.org/2000/svg" width="960" height="1176" viewBox="0 0 960 1176"><rect width="100%" height="100%" fill="white"/><style>text { font-family: sans-serif; font-size: 13px; fill: #333; }</style><defs><marker id="arrow" viewBox="0 0 10 10" refX="10" refY="5" markerWidth="8" markerHeight="8" orient="auto"><polygon points="0,1 10,5 0,9" fill="#666"/></marker></defs><circle cx="392.929725265503" cy="52" r="10" fill="none" stroke="#333" stroke-width="2"/><line x1="392.929725265503" y1="62" x2="392.929725265503" y2="85" stroke="#333" stroke-width="2"/><line x1="377.929725265503" y1="72" x2="407.929725265503" y2="72" stroke="#333" stroke-width="2"/><line x1="392.929725265503" y1="85" x2="380.929725265503" y2="100" stroke="#333" stroke-width="2"/><line x1="392.929725265503" y1="85" x2="404.929725265503" y2="100" stroke="#333" stroke-width="2"/><text x="392.929725265503" y="115" text-anchor="middle">ユーザー</text><circle cx="425.6000000000001" cy="564" r="10" fill="none" stroke="#333" stroke-width="2"/><line x1="425.6000000000001" y1="574" x2="425.6000000000001" y2="597" stroke="#333" stroke-width="2"/><line x1="410.6000000000001" y1="584" x2="440.6000000000001" y2="584" stroke="#333" stroke-width="2"/><line x1="425.6000000000001" y1="597" x2="413.6000000000001" y2="612" stroke="#333" stroke-width="2"/><line x1="425.6000000000001" y1="597" x2="437.6000000000001" y2="612" stroke="#333" stroke-width="2"/><text x="425.6000000000001" y="627" text-anchor="middle">社員</text><circle cx="108" cy="329" r="68" fill="#f0f8ff" stroke="#336699" stroke-width="1.5"/><path d="M160.3259018078045,276.6740981921955 A74,74 0 1 1 55.67409819219549,381.32590180780454" fill="none" stroke="#336699" stroke-width="1.5" marker-end="url(#arrow)"/><text x="108" y="333.5" text-anchor="middle" font-weight="bold">会員登録フォーム</text><circle cx="787.4000000000001" cy="336" r="75" fill="#f0f8ff" stroke="#336699" stroke-width="1.5"/><path d="M844.6756492761104,278.72435072388964 A81,81 0 1 1 730.1243507238897,393.27564927611036" fill="none" stroke="#336699" stroke-width="1.5" marker-end="url(#arrow)"/><text x="787.4000000000001" y="340.5" text-anchor="middle" font-weight="bold">メール認証サービス</text><circle cx="342.62057189941413" cy="871" r="54" fill="#f0f8ff" stroke="#336699" stroke-width="1.5"/><path d="M385.046978770607,828.5735931288071 A60,60 0 1 1 300.1941650282213,913.4264068711929" fill="none" stroke="#336699" stroke-width="1.5" marker-end="url(#arrow)"/><text x="342.62057189941413" y="875.5" text-anchor="middle" font-weight="bold">会員審査画面</text><circle cx="336.8" cy="315" r="54" fill="#f0f8ff" stroke="#336699" stroke-width="1.5"/><path d="M379.22640687119286,272.57359312880715 A60,60 0 1 1 294.37359312880716,357.42640687119285" fill="none" stroke="#336699" stroke-width="1.5" marker-end="url(#arrow)"/><text x="336.8" y="319.5" text-anchor="middle" font-weight="bold">ログイン処理</text><circle cx="551.6" cy="315" r="54" fill="#f0f8ff" stroke="#336699" stroke-width="1.5"/><path d="M594.0264068711929,272.57359312880715 A60,60 0 1 1 509.17359312880717,357.42640687119285" fill="none" stroke="#336699" stroke-width="1.5" marker-end="url(#arrow)"/><text x="551.6" y="319.5" text-anchor="middle" font-weight="bold">契約開始処理</text><rect x="495.67841978073125" y="1076" width="140" height="104" fill="#f0fff0" stroke="none"/><line x1="495.67841978073125" y1="1076" x2="495.67841978073125" y2="1180" stroke="#339966" stroke-width="1.5"/><line x1="635.6784197807312" y1="1076" x2="635.6784197807312" y2="1180" stroke="#339966" stroke-width="1.5"/><ellipse cx="565.6784197807312" cy="1076" rx="70" ry="10" fill="#f0fff0" stroke="#339966" stroke-width="1.5"/><path d="M495.67841978073125,1180 A70,10 0 0 0 635.6784197807312,1180" fill="#f0fff0" stroke="#339966" stroke-width="1.5"/><path d="M495.67841978073125,1081 A70,10 0 0 0 635.6784197807312,1081" fill="none" stroke="#339966" stroke-width="0.8" opacity="0.4"/><text x="565.6784197807312" y="1094" text-anchor="middle" font-weight="bold">ユーザーDB</text><line x1="499.67841978073125" y1="1100" x2="631.6784197807312" y2="1100" stroke="#339966" stroke-width="0.5" stroke-dasharray="3,3"/><text x="521.6784197807312" y="1113.5" font-size="11" fill="#555">id</text><text x="521.6784197807312" y="1131.5" font-size="11" fill="#555">email</text><text x="521.6784197807312" y="1149.5" font-size="11" fill="#555">status</text><text x="521.6784197807312" y="1167.5" font-size="11" fill="#555">verified_at</text><rect x="780" y="562" width="140" height="104" fill="#f0fff0" stroke="none"/><line x1="780" y1="562" x2="780" y2="666" stroke="#339966" stroke-width="1.5"/><line x1="920" y1="562" x2="920" y2="666" stroke="#339966" stroke-width="1.5"/><ellipse cx="850" cy="562" rx="70" ry="10" fill="#f0fff0" stroke="#339966" stroke-width="1.5"/><path d="M780,666 A70,10 0 0 0 920,666" fill="#f0fff0" stroke="#339966" stroke-width="1.5"/><path d="M780,567 A70,10 0 0 0 920,567" fill="none" stroke="#339966" stroke-width="0.8" opacity="0.4"/><text x="850" y="580" text-anchor="middle" font-weight="bold">契約DB</text><line x1="784" y1="586" x2="916" y2="586" stroke="#339966" stroke-width="0.5" stroke-dasharray="3,3"/><text x="806" y="599.5" font-size="11" fill="#555">contract_id</text><text x="806" y="617.5" font-size="11" fill="#555">user_id</text><text x="806" y="635.5" font-size="11" fill="#555">plan</text><text x="806" y="653.5" font-size="11" fill="#555">started_at</text><ellipse cx="374.28365669250496" cy="1091" rx="12" ry="25" fill="#f3e5f5" stroke="#7b1fa2" stroke-width="1" opacity="0.25"/><ellipse cx="366.28365669250496" cy="1091" rx="12" ry="25" fill="#f3e5f5" stroke="#7b1fa2" stroke-width="1" opacity="0.45"/><rect x="222.28365669250496" y="1066" width="136" height="50" fill="#f3e5f5" stroke="none"/><line x1="222.28365669250496" y1="1066" x2="358.28365669250496" y2="1066" stroke="#7b1fa2" stroke-width="1.5"/><line x1="222.28365669250496" y1="1116" x2="358.28365669250496" y2="1116" stroke="#7b1fa2" stroke-width="1.5"/><ellipse cx="222.28365669250496" cy="1091" rx="12" ry="25" fill="#f3e5f5" stroke="#7b1fa2" stroke-width="1.5"/><ellipse cx="358.28365669250496" cy="1091" rx="12" ry="25" fill="#f3e5f5" stroke="#7b1fa2" stroke-width="1.5"/><text x="290.28365669250496" y="1095.5" text-anchor="middle" font-weight="bold">メール送信キュー</text><rect x="148.80000000000007" y="552" width="140" height="88" fill="#e0f2f1" stroke="none"/><line x1="148.80000000000007" y1="552" x2="288.80000000000007" y2="552" stroke="#00897b" stroke-width="1.5"/><line x1="148.80000000000007" y1="640" x2="288.80000000000007" y2="640" stroke="#00897b" stroke-width="1.5"/><line x1="148.80000000000007" y1="552" x2="148.80000000000007" y2="640" stroke="#00897b" stroke-width="1" stroke-dasharray="4,3"/><line x1="288.80000000000007" y1="552" x2="288.80000000000007" y2="640" stroke="#00897b" stroke-width="1" stroke-dasharray="4,3"/><text x="218.80000000000007" y="570" text-anchor="middle" font-weight="bold">セッション</text><line x1="148.80000000000007" y1="576" x2="288.80000000000007" y2="576" stroke="#00897b" stroke-width="0.5" stroke-dasharray="3,3"/><text x="190.80000000000007" y="589.5" font-size="11" fill="#555">user_id</text><text x="190.80000000000007" y="607.5" font-size="11" fill="#555">token</text><path d="M362.929725265503,98.26889549281682 L161.73183309554364,254.32398636874393" fill="none" stroke="#666" stroke-width="1.5" marker-end="url(#arrow)"/><rect x="184.33077918052334" y="164.29644093078036" width="156" height="16" rx="3" fill="white" opacity="0.85"/><text x="262.33077918052334" y="176.29644093078036" text-anchor="middle" font-size="11" fill="#666">1. メールアドレス入力</text><path d="M165.30049117221154,332.61493836432487 Q563.4000000000001,587 535.204725265503,719.5 Q507.00945053100594,852 557.4317775167136,1066" fill="none" stroke="#666" stroke-width="1.5" marker-end="url(#arrow)"/><rect x="322.51049955363305" y="540.350627580947" width="208" height="16" rx="3" fill="white" opacity="0.85"/><text x="426.51049955363305" y="552.350627580947" text-anchor="middle" font-size="11" fill="#666">2. 仮登録 (status=pending)</text><path d="M92.74281781703515,362.26626888422055 Q41.00000000000006,587 104.40472526550298,719.5 Q167.8094505310059,852 279.943908838479,1066" fill="none" stroke="#666" stroke-width="1.5" marker-end="url(#arrow)"/><rect x="6.377215208138139" y="475.67325831579416" width="128" height="16" rx="3" fill="white" opacity="0.85"/><text x="70.37721520813814" y="487.67325831579416" text-anchor="middle" font-size="11" fill="#666">3. 確認メール依頼</text><path d="M313.7928616412673,1066 Q408.62057189941413,852 339.7102859497071,574 Q270.8,296 373.5879135718713,110" fill="none" stroke="#666" stroke-width="1.5" marker-end="url(#arrow)"/><rect x="296.9164743212728" y="941.3648235576338" width="128" height="16" rx="3" fill="white" opacity="0.85"/><text x="360.9164743212728" y="953.3648235576338" text-anchor="middle" font-size="11" fill="#666">4. 確認メール送信</text><path d="M422.929725265503,91.80735007083209 L721.9688840126914,259.34254426920285" fill="none" stroke="#666" stroke-width="1.5" marker-end="url(#arrow)"/><rect x="494.44930463909725" y="163.57494717001748" width="156" height="16" rx="3" fill="white" opacity="0.85"/><text x="572.4493046390972" y="175.57494717001748" text-anchor="middle" font-size="11" fill="#666">5. 確認リンククリック</text><path d="M835.1671354985452,353.8212829870077 Q1027.8,587 911.6209141731263,719.5 Q795.4418283462525,852 597.974481225684,1066" fill="none" stroke="#666" stroke-width="1.5" marker-end="url(#arrow)"/><rect x="789.0124976644516" y="476.3508958293778" width="272" height="16" rx="3" fill="white" opacity="0.85"/><text x="925.0124976644516" y="488.3508958293778" text-anchor="middle" font-size="11" fill="#666">6. メール認証済み (status=verified)</text><path d="M728.957962260461,343.00561907740706 L455.6000000000001,562.8706467661691" fill="none" stroke="#666" stroke-width="1.5" marker-end="url(#arrow)"/><rect x="535.2789811302306" y="440.9381329217881" width="114" height="16" rx="3" fill="white" opacity="0.85"/><text x="592.2789811302306" y="452.9381329217881" text-anchor="middle" font-size="11" fill="#666">7. 審査依頼通知</text><path d="M414.6404528923755,622 L358.75699218206466,800.4673313279657" fill="none" stroke="#666" stroke-width="1.5" marker-end="url(#arrow)"/><rect x="343.6987225372201" y="699.2336656639828" width="86" height="16" rx="3" fill="white" opacity="0.85"/><text x="386.6987225372201" y="711.2336656639828" text-anchor="middle" font-size="11" fill="#666">8. 審査実施</text><path d="M378.6515643648561,892.2214815982114 L534.3249070263292,1066" fill="none" stroke="#666" stroke-width="1.5" marker-end="url(#arrow)"/><rect x="356.48823569559266" y="967.1107407991058" width="200" height="16" rx="3" fill="white" opacity="0.85"/><text x="456.48823569559266" y="979.1107407991058" text-anchor="middle" font-size="11" fill="#666">9. 本登録 (status=active)</text><path d="M333.15423297953066,905.1637886860399 L304.5157532075324,1066" fill="none" stroke="#666" stroke-width="1.5" marker-end="url(#arrow)"/><rect x="236.83499309353152" y="973.5818943430199" width="164" height="16" rx="3" fill="white" opacity="0.85"/><text x="318.8349930935315" y="985.5818943430199" text-anchor="middle" font-size="11" fill="#666">10. 登録完了メール依頼</text><path d="M313.7928616412673,1066 Q408.62057189941413,852 339.7102859497071,574 Q270.8,296 373.5879135718713,110" fill="none" stroke="#666" stroke-width="1.5" marker-end="url(#arrow)"/><rect x="292.9164743212728" y="941.3648235576338" width="136" height="16" rx="3" fill="white" opacity="0.85"/><text x="360.9164743212728" y="953.3648235576338" text-anchor="middle" font-size="11" fill="#666">11. 登録完了メール</text><path d="M384.0404022596541,110 L350.09291752698925,243.66169334396974" fill="none" stroke="#666" stroke-width="1.5" marker-end="url(#arrow)"/><rect x="320.0666598933217" y="164.8308466719849" width="94" height="16" rx="3" fill="white" opacity="0.85"/><text x="367.0666598933217" y="176.8308466719849" text-anchor="middle" font-size="11" fill="#666">12. ログイン</text><path d="M377.5879443819425,331.3884669503437 Q672.2,587 644.9209141731262,719.5 Q617.6418283462525,852 572.9825133541981,1066" fill="none" stroke="#666" stroke-width="1.5" marker-end="url(#arrow)"/><rect x="510.6037267149609" y="516.5490217118445" width="94" height="16" rx="3" fill="white" opacity="0.85"/><text x="557.6037267149609" y="528.5490217118445" text-anchor="middle" font-size="11" fill="#666">13. 認証確認</text><path d="M316.5079324944221,346.0423020688404 L232.99243986254302,552" fill="none" stroke="#666" stroke-width="1.5" marker-end="url(#arrow)"/><rect x="263.7501861784826" y="437.0211510344202" width="22" height="16" rx="3" fill="white" opacity="0.85"/><text x="274.7501861784826" y="449.0211510344202" text-anchor="middle" font-size="11" fill="#666">14</text><path d="M240.93058419243994,552 Q402.8,296 394.49289094743693,110" fill="none" stroke="#666" stroke-width="1.5" marker-end="url(#arrow)"/><rect x="338.95496706999427" y="329.49646068314877" width="22" height="16" rx="3" fill="white" opacity="0.85"/><text x="349.95496706999427" y="341.49646068314877" text-anchor="middle" font-size="11" fill="#666">15</text><path d="M419.5502419531244,110 L521.3271070718357,251.2836500398355" fill="none" stroke="#666" stroke-width="1.5" marker-end="url(#arrow)"/><rect x="416.43867451248" y="168.64182501991775" width="108" height="16" rx="3" fill="white" opacity="0.85"/><text x="470.43867451248" y="180.64182501991775" text-anchor="middle" font-size="11" fill="#666">16. プラン選択</text><path d="M590.2601218379872,333.70139227498083 L814.1099656357388,552" fill="none" stroke="#666" stroke-width="1.5" marker-end="url(#arrow)"/><rect x="655.185043736863" y="430.85069613749044" width="94" height="16" rx="3" fill="white" opacity="0.85"/><text x="702.185043736863" y="442.85069613749044" text-anchor="middle" font-size="11" fill="#666">17. 契約作成</text><path d="M521.3271070718357,251.2836500398355 L419.5502419531244,110" fill="none" stroke="#666" stroke-width="1.5" marker-end="url(#arrow)"/><rect x="423.43867451248" y="168.64182501991775" width="94" height="16" rx="3" fill="white" opacity="0.85"/><text x="470.43867451248" y="180.64182501991775" text-anchor="middle" font-size="11" fill="#666">18. 利用開始</text></svg>