<svg xmlns="http://www.w3.org/2000/svg" width="220" height="440.66666666666674" viewBox="0 0 220 440.66666666666674"><rect width="100%" height="100%" fill="white"/><style>text { font-family: sans-serif; font-size: 13px; fill: #333; }</style><defs><marker id="arrow" viewBox="0 0 10 10" refX="10" refY="5" markerWidth="8" markerHeight="8" orient="auto"><polygon points="0,1 10,5 0,9" fill="#666"/></marker></defs><circle cx="109.94140625" cy="52" r="10" fill="none" stroke="#333" stroke-width="2"/><line x1="109.94140625" y1="62" x2="109.94140625" y2="85" stroke="#333" stroke-width="2"/><line x1="94.94140625" y1="72" x2="124.94140625" y2="72" stroke="#333" stroke-width="2"/><line x1="109.94140625" y1="85" x2="97.94140625" y2="100" stroke="#333" stroke-width="2"/><line x1="109.94140625" y1="85" x2="121.94140625" y2="100" stroke="#333" stroke-width="2"/><text x="109.94140625" y="115" text-anchor="middle">ユーザー</text><circle cx="109.970703125" cy="225.33333333333334" r="40" fill="#f0f8ff" stroke="#336699" stroke-width="1.5"/><path d="M142.4976150595812,192.80642139875215 A46,46 0 1 1 77.4437911904188,257.86024526791454" fill="none" stroke="#336699" stroke-width="1.5" marker-end="url(#arrow)"/><text x="109.970703125" y="229.83333333333334" text-anchor="middle" font-weight="bold">Web App</text><rect x="40" y="340.66666666666674" width="140" height="32" fill="#f0fff0" stroke="none"/><line x1="40" y1="340.66666666666674" x2="40" y2="372.66666666666674" stroke="#339966" stroke-width="1.5"/><line x1="180" y1="340.66666666666674" x2="180" y2="372.66666666666674" stroke="#339966" stroke-width="1.5"/><ellipse cx="110" cy="340.66666666666674" rx="70" ry="10" fill="#f0fff0" stroke="#339966" stroke-width="1.5"/><path d="M40,372.66666666666674 A70,10 0 0 0 180,372.66666666666674" fill="#f0fff0" stroke="#339966" stroke-width="1.5"/><path d="M40,345.66666666666674 A70,10 0 0 0 180,345.66666666666674" fill="none" stroke="#339966" stroke-width="0.8" opacity="0.4"/><text x="110" y="358.66666666666674" text-anchor="middle" font-weight="bold">DB</text><path d="M111.75467317706529,110 L112.02412741682238,180.38607499589855" fill="none" stroke="#666" stroke-width="1.5" marker-end="url(#arrow)"/><rect x="61.88940029694383" y="133.19303749794926" width="100" height="16" rx="3" fill="white" opacity="0.85"/><text x="111.88940029694383" y="145.19303749794926" text-anchor="middle" font-size="11" fill="#666">1. リクエスト</text><path d="M112.0402327057142,260.2797605492252 L111.7991184678232,330.66666666666674" fill="none" stroke="#666" stroke-width="1.5" marker-end="url(#arrow)"/><rect x="75.9196755867687" y="283.473213607946" width="72" height="16" rx="3" fill="white" opacity="0.85"/><text x="111.9196755867687" y="295.473213607946" text-anchor="middle" font-size="11" fill="#666">2. クエリ</text><path d="M111.7991184678232,330.66666666666674 L112.0402327057142,260.2797605492252" fill="none" stroke="#666" stroke-width="1.5" marker-end="url(#arrow)"/><rect x="82.9196755867687" y="283.473213607946" width="58" height="16" rx="3" fill="white" opacity="0.85"/><text x="111.9196755867687" y="295.473213607946" text-anchor="middle" font-size="11" fill="#666">3. 結果</text><path d="M112.02412741682238,180.38607499589855 L111.75467317706529,110" fill="none" stroke="#666" stroke-width="1.5" marker-end="url(#arrow)"/><rect x="61.88940029694383" y="133.19303749794926" width="100" height="16" rx="3" fill="white" opacity="0.85"/><text x="111.88940029694383" y="145.19303749794926" text-anchor="middle" font-size="11" fill="#666">4. レスポンス</text></svg>