<svg xmlns="http://www.w3.org/2000/svg" width="650" height="292" viewBox="0 0 650 292"><rect width="100%" height="100%" fill="white"/><style>text { font-family: sans-serif; font-size: 12px; fill: #333; }</style><defs><marker id="arrow" viewBox="0 0 10 10" refX="10" refY="5" markerWidth="7" markerHeight="7" orient="auto"><polygon points="0,1 10,5 0,9" fill="#888"/></marker></defs><rect x="30" y="30" width="300" height="232" fill="#fafafa" stroke="#e0e0e0" stroke-width="0.5"/><rect x="30" y="30" width="300" height="44" fill="#e8eaf6"/><line x1="30" y1="74" x2="330" y2="74" stroke="#e0e0e0" stroke-width="1"/><circle cx="150" cy="46" r="5" fill="none" stroke="#333" stroke-width="1.5"/><line x1="150" y1="51" x2="150" y2="60" stroke="#333" stroke-width="1.5"/><line x1="143" y1="55" x2="157" y2="55" stroke="#333" stroke-width="1.5"/><line x1="150" y1="60" x2="145" y2="66" stroke="#333" stroke-width="1.5"/><line x1="150" y1="60" x2="155" y2="66" stroke="#333" stroke-width="1.5"/><text x="164" y="57" font-weight="bold" fill="#333">ユーザー</text><line x1="180" y1="82" x2="180" y2="262" stroke="#ddd" stroke-width="1" stroke-dasharray="4,4"/><rect x="490" y="118" width="130" height="32" fill="#f0fff0" stroke="none"/><line x1="490" y1="118" x2="620" y2="118" stroke="#339966" stroke-width="1.5"/><line x1="490" y1="150" x2="620" y2="150" stroke="#339966" stroke-width="1.5"/><text x="555" y="138" text-anchor="middle" font-size="11" font-weight="bold" fill="#339966">DB</text><ellipse cx="180" cy="134" rx="67" ry="24" fill="#f0f8ff" stroke="#336699" stroke-width="1.5"/><text x="180" y="130" text-anchor="middle" font-size="10" font-weight="bold" fill="#336699">1</text><text x="180" y="144" text-anchor="middle" font-size="10" fill="#336699">リクエスト送信</text><path d="M247,134 C318.1,134 412.9,134 484,134" fill="none" stroke="#339966" stroke-width="1" marker-end="url(#arrow)" opacity="0.7"/><rect x="342.5" y="117" width="46" height="13" rx="2" fill="white" opacity="0.9"/><text x="365.5" y="126" text-anchor="middle" font-size="9" fill="#339966">クエリ</text><ellipse cx="180" cy="238" rx="67" ry="24" fill="#f0f8ff" stroke="#336699" stroke-width="1.5"/><text x="180" y="234" text-anchor="middle" font-size="10" font-weight="bold" fill="#336699">2</text><text x="180" y="248" text-anchor="middle" font-size="10" fill="#336699">レスポンス受信</text><line x1="180" y1="160" x2="180" y2="208" stroke="#336699" stroke-width="1.5" marker-end="url(#arrow)"/></svg>