<svg xmlns="http://www.w3.org/2000/svg" width="390" height="262" viewBox="0 0 390 262"><rect width="100%" height="100%" fill="white"/><style>text { font-family: sans-serif; font-size: 12px; fill: #333; }</style><defs><marker id="arrow" viewBox="0 0 10 10" refX="10" refY="5" markerWidth="7" markerHeight="7" orient="auto"><polygon points="0,1 10,5 0,9" fill="#888"/></marker></defs><rect x="30" y="30" width="160" height="202" fill="#fafafa" stroke="#e0e0e0" stroke-width="0.5"/><rect x="30" y="30" width="160" height="44" fill="#e8eaf6"/><line x1="30" y1="74" x2="190" y2="74" stroke="#e0e0e0" stroke-width="1"/><circle cx="80" cy="46" r="5" fill="none" stroke="#333" stroke-width="1.5"/><line x1="80" y1="51" x2="80" y2="60" stroke="#333" stroke-width="1.5"/><line x1="73" y1="55" x2="87" y2="55" stroke="#333" stroke-width="1.5"/><line x1="80" y1="60" x2="75" y2="66" stroke="#333" stroke-width="1.5"/><line x1="80" y1="60" x2="85" y2="66" stroke="#333" stroke-width="1.5"/><text x="94" y="57" font-weight="bold" fill="#333">ユーザー</text><line x1="110" y1="82" x2="110" y2="232" stroke="#ddd" stroke-width="1" stroke-dasharray="4,4"/><rect x="230" y="110" width="130" height="32" fill="#f0fff0" stroke="none"/><line x1="230" y1="110" x2="360" y2="110" stroke="#339966" stroke-width="1.5"/><line x1="230" y1="142" x2="360" y2="142" stroke="#339966" stroke-width="1.5"/><text x="295" y="130" text-anchor="middle" font-size="11" font-weight="bold" fill="#339966">DB</text><ellipse cx="110" cy="126" rx="65" ry="22" fill="#f0f8ff" stroke="#336699" stroke-width="1.5"/><text x="110" y="122" text-anchor="middle" font-size="10" font-weight="bold" fill="#336699">1</text><text x="110" y="136" text-anchor="middle" font-size="10" fill="#336699">リクエスト送信</text><path d="M175,126 C189.7,126 209.3,126 224,126" fill="none" stroke="#339966" stroke-width="1" marker-end="url(#arrow)" opacity="0.7"/><rect x="176.5" y="109" width="46" height="13" rx="2" fill="white" opacity="0.9"/><text x="199.5" y="118" text-anchor="middle" font-size="9" fill="#339966">クエリ</text><ellipse cx="110" cy="210" rx="65" ry="22" fill="#f0f8ff" stroke="#336699" stroke-width="1.5"/><text x="110" y="206" text-anchor="middle" font-size="10" font-weight="bold" fill="#336699">2</text><text x="110" y="220" text-anchor="middle" font-size="10" fill="#336699">レスポンス受信</text><line x1="110" y1="150" x2="110" y2="182" stroke="#336699" stroke-width="1.5" marker-end="url(#arrow)"/></svg>