<svg xmlns="http://www.w3.org/2000/svg" width="448" height="424" viewBox="0 0 448 424"><rect width="100%" height="100%" fill="white"/><style>text { font-family: sans-serif; font-size: 13px; fill: #333; }</style><text x="24" y="42" font-size="18" font-weight="bold">リリースノート</text><rect x="24" y="64" width="400" height="160" rx="8" fill="#fafafa" stroke="#e8e8e8" stroke-width="1"/><text x="38" y="88" font-size="15" font-weight="bold">v2.1.0</text><text x="105.38461538461539" y="87" font-size="12" fill="#999">2025-06-01</text><rect x="38" y="114" width="30" height="18" rx="3" fill="#e8f5e9"/><text x="44" y="127" font-size="10" font-weight="bold" fill="#2e7d32">ADD</text><text x="76" y="127" font-size="12">ダークモード対応</text><rect x="38" y="138" width="30" height="18" rx="3" fill="#e8f5e9"/><text x="44" y="151" font-size="10" font-weight="bold" fill="#2e7d32">ADD</text><text x="76" y="151" font-size="12">多言語サポート</text><rect x="38" y="162" width="30" height="18" rx="3" fill="#e3f2fd"/><text x="44" y="175" font-size="10" font-weight="bold" fill="#1565c0">IMP</text><text x="76" y="175" font-size="12">パフォーマンス最適化</text><rect x="38" y="186" width="30" height="18" rx="3" fill="#fce4ec"/><text x="44" y="199" font-size="10" font-weight="bold" fill="#c62828">FIX</text><text x="76" y="199" font-size="12">ログイン時のエラー修正</text><rect x="24" y="240" width="400" height="160" rx="8" fill="#fafafa" stroke="#e8e8e8" stroke-width="1"/><text x="38" y="264" font-size="15" font-weight="bold">v2.0.0</text><text x="105.38461538461539" y="263" font-size="12" fill="#999">2025-05-01</text><rect x="38" y="290" width="30" height="18" rx="3" fill="#e8f5e9"/><text x="44" y="303" font-size="10" font-weight="bold" fill="#2e7d32">ADD</text><text x="76" y="303" font-size="12">新しいダッシュボード</text><rect x="38" y="314" width="30" height="18" rx="3" fill="#f5f5f5"/><text x="44" y="327" font-size="10" font-weight="bold" fill="#616161">CHG</text><text x="76" y="327" font-size="12">API v2 に移行</text><rect x="38" y="338" width="30" height="18" rx="3" fill="#fff3e0"/><text x="44" y="351" font-size="10" font-weight="bold" fill="#e65100">DEL</text><text x="76" y="351" font-size="12">旧API廃止</text><rect x="38" y="362" width="30" height="18" rx="3" fill="#fff8e1"/><text x="44" y="375" font-size="10" font-weight="bold" fill="#f57f17">SEC</text><text x="76" y="375" font-size="12">XSS脆弱性の修正</text></svg>