<svg xmlns="http://www.w3.org/2000/svg" width="480" height="386" viewBox="0 0 480 386"><rect width="100%" height="100%" fill="white"/><style>text { font-family: sans-serif; font-size: 13px; fill: #333; }</style><text x="240" y="58" text-anchor="middle" font-size="16" font-weight="bold">営業ファネル</text><polygon points="40,80 440,80 344,130 136,130" fill="#e3f2fd" stroke="white" stroke-width="1"/><text x="220" y="109.66666666666667" text-anchor="middle" font-size="14" fill="#1565c0">リード獲得</text><text x="428" y="109.66666666666667" text-anchor="end" font-size="12" fill="#1565c0" opacity="0.7">1000</text><polygon points="136,134 344,134 312,184 168,184" fill="#e8f5e9" stroke="white" stroke-width="1"/><text x="224" y="163.66666666666666" text-anchor="middle" font-size="14" fill="#2e7d32">商談化</text><text x="332" y="163.66666666666666" text-anchor="end" font-size="12" fill="#2e7d32" opacity="0.7">400</text><polygon points="168,188 312,188 296,238 184,238" fill="#fff8e1" stroke="white" stroke-width="1"/><text x="224" y="217.66666666666666" text-anchor="middle" font-size="14" fill="#f57f17">提案</text><text x="300" y="217.66666666666666" text-anchor="end" font-size="12" fill="#f57f17" opacity="0.7">200</text><polygon points="184,242 296,242 286.4,292 193.6,292" fill="#f3e5f5" stroke="white" stroke-width="1"/><text x="224" y="271.6666666666667" text-anchor="middle" font-size="14" fill="#7b1fa2">見積</text><text x="284" y="271.6666666666667" text-anchor="end" font-size="12" fill="#7b1fa2" opacity="0.7">100</text><polygon points="193.6,296 286.4,296 272.48,346 207.52,346" fill="#e0f2f1" stroke="white" stroke-width="1"/><text x="228" y="325.6666666666667" text-anchor="middle" font-size="14" fill="#00695c">受注</text><text x="274.4" y="325.6666666666667" text-anchor="end" font-size="12" fill="#00695c" opacity="0.7">40</text></svg>