<svg xmlns="http://www.w3.org/2000/svg" width="666" height="292" viewBox="0 0 666 292"><rect width="100%" height="100%" fill="white"/><style>text { font-family: sans-serif; font-size: 13px; fill: #333; }</style><polygon points="40,40 440,40 405,90 75,90" fill="#e3f2fd" stroke="white" stroke-width="1"/><text x="240" y="69.66666666666667" text-anchor="middle" font-size="14" fill="#1565c0">認知</text><line x1="440" y1="65" x2="462" y2="65" stroke="#ccc" stroke-width="1"/><circle cx="440" cy="65" r="2.5" fill="#1565c0"/><text x="470" y="69.2" font-size="12" fill="#666">広告・SNSで知る</text><polygon points="75,94 405,94 370,144 110,144" fill="#e8f5e9" stroke="white" stroke-width="1"/><text x="240" y="123.66666666666667" text-anchor="middle" font-size="14" fill="#2e7d32">興味</text><line x1="405" y1="119" x2="462" y2="119" stroke="#ccc" stroke-width="1"/><circle cx="405" cy="119" r="2.5" fill="#2e7d32"/><text x="470" y="123.2" font-size="12" fill="#666">サイト訪問・資料請求</text><polygon points="110,148 370,148 335,198 145,198" fill="#fff8e1" stroke="white" stroke-width="1"/><text x="240" y="177.66666666666666" text-anchor="middle" font-size="14" fill="#f57f17">検討</text><line x1="370" y1="173" x2="462" y2="173" stroke="#ccc" stroke-width="1"/><circle cx="370" cy="173" r="2.5" fill="#f57f17"/><text x="470" y="177.2" font-size="12" fill="#666">比較・評価</text><polygon points="145,202 335,202 306.5,252 173.5,252" fill="#f3e5f5" stroke="white" stroke-width="1"/><text x="240" y="231.66666666666666" text-anchor="middle" font-size="14" fill="#7b1fa2">購入</text><line x1="335" y1="227" x2="462" y2="227" stroke="#ccc" stroke-width="1"/><circle cx="335" cy="227" r="2.5" fill="#7b1fa2"/><text x="470" y="231.2" font-size="12" fill="#666">契約・導入</text></svg>