<svg xmlns="http://www.w3.org/2000/svg" width="550" height="590" viewBox="0 0 550 590"><rect width="100%" height="100%" fill="white"/><style>text { font-family: sans-serif; font-size: 13px; fill: #333; }</style><text x="275" y="78" text-anchor="middle" font-size="16" font-weight="bold">アイゼンハワー・マトリクス</text><rect x="90" y="100" width="200" height="200" fill="#e3f2fd"/><rect x="290" y="100" width="200" height="200" fill="#e8f5e9"/><rect x="90" y="300" width="200" height="200" fill="#fff8e1"/><rect x="290" y="300" width="200" height="200" fill="#fce4ec"/><rect x="90" y="100" width="400" height="400" fill="none" stroke="#bdbdbd" stroke-width="1"/><line x1="290" y1="100" x2="290" y2="500" stroke="#bdbdbd" stroke-width="1"/><line x1="90" y1="300" x2="490" y2="300" stroke="#bdbdbd" stroke-width="1"/><text x="102" y="124">• 計画</text><text x="102" y="144">• 戦略立案</text><text x="302" y="124">• 即実行</text><text x="302" y="144">• 危機対応</text><text x="102" y="324">• 削除</text><text x="102" y="344">• 時間の浪費</text><text x="302" y="324">• 委任</text><text x="302" y="344">• 割り込み作業</text><text x="190" y="520" text-anchor="middle">緊急でない</text><text x="390" y="520" text-anchor="middle">緊急</text><text x="80" y="200" text-anchor="middle" transform="rotate(-90, 80, 200)">重要</text><text x="80" y="400" text-anchor="middle" transform="rotate(-90, 80, 400)">重要でない</text></svg>