<svg xmlns="http://www.w3.org/2000/svg" width="628" height="220" viewBox="0 0 628 220"><rect width="100%" height="100%" fill="white"/><style>text { font-family: sans-serif; font-size: 13px; fill: #333; }</style><rect x="20" y="20" width="100" height="36" fill="#455a64"/><rect x="120" y="20" width="80" height="36" fill="#455a64"/><text x="160" y="43" text-anchor="middle" font-weight="bold" fill="#fff">認証</text><rect x="200" y="20" width="80" height="36" fill="#455a64"/><text x="240" y="43" text-anchor="middle" font-weight="bold" fill="#fff">注文</text><rect x="280" y="20" width="80" height="36" fill="#455a64"/><text x="320" y="43" text-anchor="middle" font-weight="bold" fill="#fff">在庫</text><rect x="360" y="20" width="80" height="36" fill="#455a64"/><text x="400" y="43" text-anchor="middle" font-weight="bold" fill="#fff">決済</text><rect x="440" y="20" width="80" height="36" fill="#455a64"/><text x="480" y="43" text-anchor="middle" font-weight="bold" fill="#fff">通知</text><rect x="520" y="20" width="88" height="36" fill="#455a64"/><text x="564" y="43" text-anchor="middle" font-weight="bold" fill="#fff">管理画面</text><rect x="20" y="56" width="100" height="36" fill="#eceff1"/><text x="36" y="79" font-weight="bold">チームA</text><rect x="120" y="56" width="80" height="36" fill="#bbdefb"/><text x="160" y="79" text-anchor="middle" font-weight="bold" fill="#0d47a1">○</text><rect x="200" y="56" width="80" height="36" fill="#bbdefb"/><text x="240" y="79" text-anchor="middle" font-weight="bold" fill="#0d47a1">○</text><rect x="280" y="56" width="80" height="36" fill="#f5f5f5"/><text x="320" y="79" text-anchor="middle" font-weight="bold" fill="#9e9e9e">-</text><rect x="360" y="56" width="80" height="36" fill="#f5f5f5"/><text x="400" y="79" text-anchor="middle" font-weight="bold" fill="#9e9e9e">-</text><rect x="440" y="56" width="80" height="36" fill="#f5f5f5"/><text x="480" y="79" text-anchor="middle" font-weight="bold" fill="#9e9e9e">-</text><rect x="520" y="56" width="88" height="36" fill="#f5f5f5"/><text x="564" y="79" text-anchor="middle" font-weight="bold" fill="#9e9e9e">-</text><rect x="20" y="92" width="100" height="36" fill="#eceff1"/><text x="36" y="115" font-weight="bold">チームB</text><rect x="120" y="92" width="80" height="36" fill="#f5f5f5"/><text x="160" y="115" text-anchor="middle" font-weight="bold" fill="#9e9e9e">-</text><rect x="200" y="92" width="80" height="36" fill="#f5f5f5"/><text x="240" y="115" text-anchor="middle" font-weight="bold" fill="#9e9e9e">-</text><rect x="280" y="92" width="80" height="36" fill="#bbdefb"/><text x="320" y="115" text-anchor="middle" font-weight="bold" fill="#0d47a1">○</text><rect x="360" y="92" width="80" height="36" fill="#bbdefb"/><text x="400" y="115" text-anchor="middle" font-weight="bold" fill="#0d47a1">○</text><rect x="440" y="92" width="80" height="36" fill="#f5f5f5"/><text x="480" y="115" text-anchor="middle" font-weight="bold" fill="#9e9e9e">-</text><rect x="520" y="92" width="88" height="36" fill="#f5f5f5"/><text x="564" y="115" text-anchor="middle" font-weight="bold" fill="#9e9e9e">-</text><rect x="20" y="128" width="100" height="36" fill="#eceff1"/><text x="36" y="151" font-weight="bold">チームC</text><rect x="120" y="128" width="80" height="36" fill="#f5f5f5"/><text x="160" y="151" text-anchor="middle" font-weight="bold" fill="#9e9e9e">-</text><rect x="200" y="128" width="80" height="36" fill="#f5f5f5"/><text x="240" y="151" text-anchor="middle" font-weight="bold" fill="#9e9e9e">-</text><rect x="280" y="128" width="80" height="36" fill="#f5f5f5"/><text x="320" y="151" text-anchor="middle" font-weight="bold" fill="#9e9e9e">-</text><rect x="360" y="128" width="80" height="36" fill="#f5f5f5"/><text x="400" y="151" text-anchor="middle" font-weight="bold" fill="#9e9e9e">-</text><rect x="440" y="128" width="80" height="36" fill="#bbdefb"/><text x="480" y="151" text-anchor="middle" font-weight="bold" fill="#0d47a1">○</text><rect x="520" y="128" width="88" height="36" fill="#fff9c4"/><text x="564" y="151" text-anchor="middle" font-weight="bold" fill="#f57f17">△</text><rect x="20" y="164" width="100" height="36" fill="#eceff1"/><text x="36" y="187" font-weight="bold">チームD</text><rect x="120" y="164" width="80" height="36" fill="#fff9c4"/><text x="160" y="187" text-anchor="middle" font-weight="bold" fill="#f57f17">△</text><rect x="200" y="164" width="80" height="36" fill="#f5f5f5"/><text x="240" y="187" text-anchor="middle" font-weight="bold" fill="#9e9e9e">-</text><rect x="280" y="164" width="80" height="36" fill="#f5f5f5"/><text x="320" y="187" text-anchor="middle" font-weight="bold" fill="#9e9e9e">-</text><rect x="360" y="164" width="80" height="36" fill="#f5f5f5"/><text x="400" y="187" text-anchor="middle" font-weight="bold" fill="#9e9e9e">-</text><rect x="440" y="164" width="80" height="36" fill="#f5f5f5"/><text x="480" y="187" text-anchor="middle" font-weight="bold" fill="#9e9e9e">-</text><rect x="520" y="164" width="88" height="36" fill="#bbdefb"/><text x="564" y="187" text-anchor="middle" font-weight="bold" fill="#0d47a1">○</text><line x1="20" y1="20" x2="608" y2="20" stroke="#ccc" stroke-width="1"/><line x1="20" y1="56" x2="608" y2="56" stroke="#ccc" stroke-width="1"/><line x1="20" y1="92" x2="608" y2="92" stroke="#ccc" stroke-width="1"/><line x1="20" y1="128" x2="608" y2="128" stroke="#ccc" stroke-width="1"/><line x1="20" y1="164" x2="608" y2="164" stroke="#ccc" stroke-width="1"/><line x1="20" y1="200" x2="608" y2="200" stroke="#ccc" stroke-width="1"/><line x1="20" y1="20" x2="20" y2="200" stroke="#ccc" stroke-width="1"/><line x1="120" y1="20" x2="120" y2="200" stroke="#ccc" stroke-width="1"/><line x1="200" y1="20" x2="200" y2="200" stroke="#ccc" stroke-width="1"/><line x1="280" y1="20" x2="280" y2="200" stroke="#ccc" stroke-width="1"/><line x1="360" y1="20" x2="360" y2="200" stroke="#ccc" stroke-width="1"/><line x1="440" y1="20" x2="440" y2="200" stroke="#ccc" stroke-width="1"/><line x1="520" y1="20" x2="520" y2="200" stroke="#ccc" stroke-width="1"/><line x1="608" y1="20" x2="608" y2="200" stroke="#ccc" stroke-width="1"/></svg>