<svg xmlns="http://www.w3.org/2000/svg" width="696" height="220" viewBox="0 0 696 220"><rect width="100%" height="100%" fill="white"/><style>text { font-family: sans-serif; font-size: 13px; fill: #333; }</style><rect x="20" y="20" width="116" height="36" fill="#e8eaf6"/><rect x="136" y="20" width="116" height="36" fill="#e8eaf6"/><text x="194" y="43" text-anchor="middle" font-weight="bold" fill="#333">ユーザー管理</text><rect x="252" y="20" width="88" height="36" fill="#e8eaf6"/><text x="296" y="43" text-anchor="middle" font-weight="bold" fill="#333">注文管理</text><rect x="340" y="20" width="88" height="36" fill="#e8eaf6"/><text x="384" y="43" text-anchor="middle" font-weight="bold" fill="#333">商品管理</text><rect x="428" y="20" width="88" height="36" fill="#e8eaf6"/><text x="472" y="43" text-anchor="middle" font-weight="bold" fill="#333">レポート</text><rect x="516" y="20" width="80" height="36" fill="#e8eaf6"/><text x="556" y="43" text-anchor="middle" font-weight="bold" fill="#333">設定</text><rect x="596" y="20" width="80" height="36" fill="#e8eaf6"/><text x="636" y="43" text-anchor="middle" font-weight="bold" fill="#333">請求</text><rect x="20" y="56" width="116" height="36" fill="#f5f5f5"/><text x="36" y="79" font-weight="bold">管理者</text><rect x="136" y="56" width="116" height="36" fill="#fff"/><text x="194" y="79" text-anchor="middle" font-weight="bold" fill="#2e7d32">○</text><rect x="252" y="56" width="88" height="36" fill="#fff"/><text x="296" y="79" text-anchor="middle" font-weight="bold" fill="#2e7d32">○</text><rect x="340" y="56" width="88" height="36" fill="#fff"/><text x="384" y="79" text-anchor="middle" font-weight="bold" fill="#2e7d32">○</text><rect x="428" y="56" width="88" height="36" fill="#fff"/><text x="472" y="79" text-anchor="middle" font-weight="bold" fill="#2e7d32">○</text><rect x="516" y="56" width="80" height="36" fill="#fff"/><text x="556" y="79" text-anchor="middle" font-weight="bold" fill="#2e7d32">○</text><rect x="596" y="56" width="80" height="36" fill="#fff"/><text x="636" y="79" text-anchor="middle" font-weight="bold" fill="#2e7d32">○</text><rect x="20" y="92" width="116" height="36" fill="#f5f5f5"/><text x="36" y="115" font-weight="bold">マネージャー</text><rect x="136" y="92" width="116" height="36" fill="#fff"/><text x="194" y="115" text-anchor="middle" font-weight="bold" fill="#f57f17">△</text><rect x="252" y="92" width="88" height="36" fill="#fff"/><text x="296" y="115" text-anchor="middle" font-weight="bold" fill="#2e7d32">○</text><rect x="340" y="92" width="88" height="36" fill="#fff"/><text x="384" y="115" text-anchor="middle" font-weight="bold" fill="#2e7d32">○</text><rect x="428" y="92" width="88" height="36" fill="#fff"/><text x="472" y="115" text-anchor="middle" font-weight="bold" fill="#2e7d32">○</text><rect x="516" y="92" width="80" height="36" fill="#fff"/><text x="556" y="115" text-anchor="middle" font-weight="bold" fill="#f57f17">△</text><rect x="596" y="92" width="80" height="36" fill="#fff"/><text x="636" y="115" text-anchor="middle" font-weight="bold" fill="#2e7d32">○</text><rect x="20" y="128" width="116" height="36" fill="#f5f5f5"/><text x="36" y="151" font-weight="bold">オペレーター</text><rect x="136" y="128" width="116" height="36" fill="#fff"/><text x="194" y="151" text-anchor="middle" font-weight="bold" fill="#bdbdbd">×</text><rect x="252" y="128" width="88" height="36" fill="#fff"/><text x="296" y="151" text-anchor="middle" font-weight="bold" fill="#2e7d32">○</text><rect x="340" y="128" width="88" height="36" fill="#fff"/><text x="384" y="151" text-anchor="middle" font-weight="bold" fill="#f57f17">△</text><rect x="428" y="128" width="88" height="36" fill="#fff"/><text x="472" y="151" text-anchor="middle" font-weight="bold" fill="#f57f17">△</text><rect x="516" y="128" width="80" height="36" fill="#fff"/><text x="556" y="151" text-anchor="middle" font-weight="bold" fill="#bdbdbd">×</text><rect x="596" y="128" width="80" height="36" fill="#fff"/><text x="636" y="151" text-anchor="middle" font-weight="bold" fill="#bdbdbd">×</text><rect x="20" y="164" width="116" height="36" fill="#f5f5f5"/><text x="36" y="187" font-weight="bold">閲覧者</text><rect x="136" y="164" width="116" height="36" fill="#fff"/><text x="194" y="187" text-anchor="middle" font-weight="bold" fill="#bdbdbd">×</text><rect x="252" y="164" width="88" height="36" fill="#fff"/><text x="296" y="187" text-anchor="middle" font-weight="bold" fill="#bdbdbd">×</text><rect x="340" y="164" width="88" height="36" fill="#fff"/><text x="384" y="187" text-anchor="middle" font-weight="bold" fill="#bdbdbd">×</text><rect x="428" y="164" width="88" height="36" fill="#fff"/><text x="472" y="187" text-anchor="middle" font-weight="bold" fill="#2e7d32">○</text><rect x="516" y="164" width="80" height="36" fill="#fff"/><text x="556" y="187" text-anchor="middle" font-weight="bold" fill="#bdbdbd">×</text><rect x="596" y="164" width="80" height="36" fill="#fff"/><text x="636" y="187" text-anchor="middle" font-weight="bold" fill="#bdbdbd">×</text><line x1="20" y1="20" x2="676" y2="20" stroke="#ddd" stroke-width="1"/><line x1="20" y1="56" x2="676" y2="56" stroke="#ddd" stroke-width="1"/><line x1="20" y1="92" x2="676" y2="92" stroke="#ddd" stroke-width="1"/><line x1="20" y1="128" x2="676" y2="128" stroke="#ddd" stroke-width="1"/><line x1="20" y1="164" x2="676" y2="164" stroke="#ddd" stroke-width="1"/><line x1="20" y1="200" x2="676" y2="200" stroke="#ddd" stroke-width="1"/><line x1="20" y1="20" x2="20" y2="200" stroke="#ddd" stroke-width="1"/><line x1="136" y1="20" x2="136" y2="200" stroke="#ddd" stroke-width="1"/><line x1="252" y1="20" x2="252" y2="200" stroke="#ddd" stroke-width="1"/><line x1="340" y1="20" x2="340" y2="200" stroke="#ddd" stroke-width="1"/><line x1="428" y1="20" x2="428" y2="200" stroke="#ddd" stroke-width="1"/><line x1="516" y1="20" x2="516" y2="200" stroke="#ddd" stroke-width="1"/><line x1="596" y1="20" x2="596" y2="200" stroke="#ddd" stroke-width="1"/><line x1="676" y1="20" x2="676" y2="200" stroke="#ddd" stroke-width="1"/></svg>