<svg xmlns="http://www.w3.org/2000/svg" width="688" height="292" viewBox="0 0 688 292"><rect width="100%" height="100%" fill="white"/><style>text { font-family: sans-serif; font-size: 13px; fill: #333; }</style><rect x="20" y="20" width="144" height="36" fill="#e8eaf6"/><rect x="164" y="20" width="88" height="36" fill="#e8eaf6"/><text x="208" y="43" text-anchor="middle" font-weight="bold" fill="#333">要件定義</text><rect x="252" y="20" width="88" height="36" fill="#e8eaf6"/><text x="296" y="43" text-anchor="middle" font-weight="bold" fill="#333">基本設計</text><rect x="340" y="20" width="80" height="36" fill="#e8eaf6"/><text x="380" y="43" text-anchor="middle" font-weight="bold" fill="#333">実装</text><rect x="420" y="20" width="80" height="36" fill="#e8eaf6"/><text x="460" y="43" text-anchor="middle" font-weight="bold" fill="#333">テスト</text><rect x="500" y="20" width="88" height="36" fill="#e8eaf6"/><text x="544" y="43" text-anchor="middle" font-weight="bold" fill="#333">デプロイ</text><rect x="588" y="20" width="80" height="36" fill="#e8eaf6"/><text x="628" y="43" text-anchor="middle" font-weight="bold" fill="#333">運用</text><rect x="20" y="56" width="144" height="36" fill="#f5f5f5"/><text x="36" y="79" font-weight="bold">PM</text><rect x="164" y="56" width="88" height="36" fill="#fff"/><text x="208" y="79" text-anchor="middle" font-weight="bold" fill="#1565c0">R</text><rect x="252" y="56" width="88" height="36" fill="#fff"/><text x="296" y="79" text-anchor="middle" font-weight="bold" fill="#c62828">A</text><rect x="340" y="56" width="80" height="36" fill="#fff"/><text x="380" y="79" text-anchor="middle" font-weight="bold" fill="#2e7d32">I</text><rect x="420" y="56" width="80" height="36" fill="#fff"/><text x="460" y="79" text-anchor="middle" font-weight="bold" fill="#2e7d32">I</text><rect x="500" y="56" width="88" height="36" fill="#fff"/><text x="544" y="79" text-anchor="middle" font-weight="bold" fill="#c62828">A</text><rect x="588" y="56" width="80" height="36" fill="#fff"/><text x="628" y="79" text-anchor="middle" font-weight="bold" fill="#2e7d32">I</text><rect x="20" y="92" width="144" height="36" fill="#f5f5f5"/><text x="36" y="115" font-weight="bold">リードエンジニア</text><rect x="164" y="92" width="88" height="36" fill="#fff"/><text x="208" y="115" text-anchor="middle" font-weight="bold" fill="#c62828">A</text><rect x="252" y="92" width="88" height="36" fill="#fff"/><text x="296" y="115" text-anchor="middle" font-weight="bold" fill="#1565c0">R</text><rect x="340" y="92" width="80" height="36" fill="#fff"/><text x="380" y="115" text-anchor="middle" font-weight="bold" fill="#c62828">A</text><rect x="420" y="92" width="80" height="36" fill="#fff"/><text x="460" y="115" text-anchor="middle" font-weight="bold" fill="#c62828">A</text><rect x="500" y="92" width="88" height="36" fill="#fff"/><text x="544" y="115" text-anchor="middle" font-weight="bold" fill="#1565c0">R</text><rect x="588" y="92" width="80" height="36" fill="#fff"/><text x="628" y="115" text-anchor="middle" font-weight="bold" fill="#f57f17">C</text><rect x="20" y="128" width="144" height="36" fill="#f5f5f5"/><text x="36" y="151" font-weight="bold">フロントエンド</text><rect x="164" y="128" width="88" height="36" fill="#fff"/><text x="208" y="151" text-anchor="middle" font-weight="bold" fill="#f57f17">C</text><rect x="252" y="128" width="88" height="36" fill="#fff"/><text x="296" y="151" text-anchor="middle" font-weight="bold" fill="#f57f17">C</text><rect x="340" y="128" width="80" height="36" fill="#fff"/><text x="380" y="151" text-anchor="middle" font-weight="bold" fill="#1565c0">R</text><rect x="420" y="128" width="80" height="36" fill="#fff"/><text x="460" y="151" text-anchor="middle" font-weight="bold" fill="#1565c0">R</text><rect x="500" y="128" width="88" height="36" fill="#fff"/><text x="544" y="151" text-anchor="middle" font-weight="bold" fill="#2e7d32">I</text><rect x="588" y="128" width="80" height="36" fill="#fff"/><text x="628" y="151" text-anchor="middle" font-weight="bold" fill="#2e7d32">I</text><rect x="20" y="164" width="144" height="36" fill="#f5f5f5"/><text x="36" y="187" font-weight="bold">バックエンド</text><rect x="164" y="164" width="88" height="36" fill="#fff"/><text x="208" y="187" text-anchor="middle" font-weight="bold" fill="#f57f17">C</text><rect x="252" y="164" width="88" height="36" fill="#fff"/><text x="296" y="187" text-anchor="middle" font-weight="bold" fill="#f57f17">C</text><rect x="340" y="164" width="80" height="36" fill="#fff"/><text x="380" y="187" text-anchor="middle" font-weight="bold" fill="#1565c0">R</text><rect x="420" y="164" width="80" height="36" fill="#fff"/><text x="460" y="187" text-anchor="middle" font-weight="bold" fill="#1565c0">R</text><rect x="500" y="164" width="88" height="36" fill="#fff"/><text x="544" y="187" text-anchor="middle" font-weight="bold" fill="#2e7d32">I</text><rect x="588" y="164" width="80" height="36" fill="#fff"/><text x="628" y="187" text-anchor="middle" font-weight="bold" fill="#2e7d32">I</text><rect x="20" y="200" width="144" height="36" fill="#f5f5f5"/><text x="36" y="223" font-weight="bold">QA</text><rect x="164" y="200" width="88" height="36" fill="#fff"/><text x="208" y="223" text-anchor="middle" font-weight="bold" fill="#2e7d32">I</text><rect x="252" y="200" width="88" height="36" fill="#fff"/><text x="296" y="223" text-anchor="middle" font-weight="bold" fill="#f57f17">C</text><rect x="340" y="200" width="80" height="36" fill="#fff"/><text x="380" y="223" text-anchor="middle" font-weight="bold" fill="#2e7d32">I</text><rect x="420" y="200" width="80" height="36" fill="#fff"/><text x="460" y="223" text-anchor="middle" font-weight="bold" fill="#1565c0">R</text><rect x="500" y="200" width="88" height="36" fill="#fff"/><text x="544" y="223" text-anchor="middle" font-weight="bold" fill="#f57f17">C</text><rect x="588" y="200" width="80" height="36" fill="#fff"/><text x="628" y="223" text-anchor="middle" font-weight="bold" fill="#2e7d32">I</text><rect x="20" y="236" width="144" height="36" fill="#f5f5f5"/><text x="36" y="259" font-weight="bold">インフラ</text><rect x="164" y="236" width="88" height="36" fill="#fff"/><text x="208" y="259" text-anchor="middle" font-weight="bold" fill="#2e7d32">I</text><rect x="252" y="236" width="88" height="36" fill="#fff"/><text x="296" y="259" text-anchor="middle" font-weight="bold" fill="#f57f17">C</text><rect x="340" y="236" width="80" height="36" fill="#fff"/><text x="380" y="259" text-anchor="middle" font-weight="bold" fill="#2e7d32">I</text><rect x="420" y="236" width="80" height="36" fill="#fff"/><text x="460" y="259" text-anchor="middle" font-weight="bold" fill="#f57f17">C</text><rect x="500" y="236" width="88" height="36" fill="#fff"/><text x="544" y="259" text-anchor="middle" font-weight="bold" fill="#1565c0">R</text><rect x="588" y="236" width="80" height="36" fill="#fff"/><text x="628" y="259" text-anchor="middle" font-weight="bold" fill="#1565c0">R</text><line x1="20" y1="20" x2="668" y2="20" stroke="#ddd" stroke-width="1"/><line x1="20" y1="56" x2="668" y2="56" stroke="#ddd" stroke-width="1"/><line x1="20" y1="92" x2="668" y2="92" stroke="#ddd" stroke-width="1"/><line x1="20" y1="128" x2="668" y2="128" stroke="#ddd" stroke-width="1"/><line x1="20" y1="164" x2="668" y2="164" stroke="#ddd" stroke-width="1"/><line x1="20" y1="200" x2="668" y2="200" stroke="#ddd" stroke-width="1"/><line x1="20" y1="236" x2="668" y2="236" stroke="#ddd" stroke-width="1"/><line x1="20" y1="272" x2="668" y2="272" stroke="#ddd" stroke-width="1"/><line x1="20" y1="20" x2="20" y2="272" stroke="#ddd" stroke-width="1"/><line x1="164" y1="20" x2="164" y2="272" stroke="#ddd" stroke-width="1"/><line x1="252" y1="20" x2="252" y2="272" stroke="#ddd" stroke-width="1"/><line x1="340" y1="20" x2="340" y2="272" stroke="#ddd" stroke-width="1"/><line x1="420" y1="20" x2="420" y2="272" stroke="#ddd" stroke-width="1"/><line x1="500" y1="20" x2="500" y2="272" stroke="#ddd" stroke-width="1"/><line x1="588" y1="20" x2="588" y2="272" stroke="#ddd" stroke-width="1"/><line x1="668" y1="20" x2="668" y2="272" stroke="#ddd" stroke-width="1"/></svg>