<svg xmlns="http://www.w3.org/2000/svg" width="448" height="314" viewBox="0 0 448 314"><rect width="100%" height="100%" fill="#f5f8fa"/><style>text { font-family: -apple-system, BlinkMacSystemFont, sans-serif; font-size: 14px; }</style><rect x="24" y="24" width="400" height="125" rx="12" fill="#fff" stroke="#e1e8ed" stroke-width="1"/><circle cx="64" cy="60" r="20" fill="#e3f2fd"/><text x="64" y="66" text-anchor="middle" font-size="16" font-weight="bold" fill="#1565c0">A</text><text x="96" y="54" font-size="14" font-weight="bold" fill="#14171a">Alice</text><text x="142" y="53" font-size="13" fill="#657786">@alice</text><text x="96" y="78" font-size="14" fill="#14171a">Hello world! This is my first post.</text><line x1="44" y1="102" x2="404" y2="102" stroke="#e1e8ed" stroke-width="1"/><g transform="translate(96,110.6)"><path d="M7,3 C7,1.3 5.7,0 4,0 C2.3,0 1,1.3 1,3 C1,6 4,8.5 7,11 C10,8.5 13,6 13,3 C13,1.3 11.7,0 10,0 C8.3,0 7,1.3 7,3Z" fill="#e0245e" opacity="0.8"/></g><text x="114" y="124" font-size="12" fill="#657786">42</text><rect x="24" y="165" width="400" height="125" rx="12" fill="#fff" stroke="#e1e8ed" stroke-width="1"/><circle cx="64" cy="201" r="20" fill="#e8f5e9"/><text x="64" y="207" text-anchor="middle" font-size="16" font-weight="bold" fill="#2e7d32">B</text><text x="96" y="195" font-size="14" font-weight="bold" fill="#14171a">Bob</text><text x="126" y="194" font-size="13" fill="#657786">@bob</text><text x="96" y="219" font-size="14" fill="#14171a">Welcome to the platform!</text><line x1="44" y1="243" x2="404" y2="243" stroke="#e1e8ed" stroke-width="1"/><g transform="translate(96,251.60000000000002)"><path d="M7,3 C7,1.3 5.7,0 4,0 C2.3,0 1,1.3 1,3 C1,6 4,8.5 7,11 C10,8.5 13,6 13,3 C13,1.3 11.7,0 10,0 C8.3,0 7,1.3 7,3Z" fill="#e0245e" opacity="0.8"/></g><text x="114" y="265" font-size="12" fill="#657786">5</text></svg>