<svg xmlns="http://www.w3.org/2000/svg" width="448" height="414" viewBox="0 0 448 414"><rect width="100%" height="100%" fill="#f5f8fa"/><style>text { font-family: -apple-system, BlinkMacSystemFont, sans-serif; font-size: 14px; }</style><rect x="24" y="24" width="400" height="185" rx="12" fill="#fff" stroke="#e1e8ed" stroke-width="1"/><circle cx="64" cy="60" r="20" fill="#e3f2fd"/><text x="64" y="66" text-anchor="middle" font-size="16" font-weight="bold" fill="#1565c0">田</text><text x="96" y="54" font-size="14" font-weight="bold" fill="#14171a">田中太郎</text><text x="158" y="53" font-size="13" fill="#657786">@tanaka_dev</text><text x="96" y="78" font-size="14" fill="#14171a">Rust で CLI ツールを作ってみた。</text><text x="96" y="98" font-size="14" fill="#14171a">パフォーマンスが驚くほど良い。</text><text x="96" y="118" font-size="14" fill="#14171a">型安全で安心感がある。</text><text x="96" y="144" font-size="12" fill="#657786">2025-06-07 10:30</text><line x1="44" y1="162" x2="404" y2="162" stroke="#e1e8ed" stroke-width="1"/><g transform="translate(96,170.8)" fill="none" stroke="#17bf63" stroke-width="1.5" stroke-linecap="round"><polyline points="0,4 4,0 8,4"/><line x1="4" y1="0" x2="4" y2="10"/><polyline points="10,8 14,12 18,8"/><line x1="14" y1="2" x2="14" y2="12"/></g><text x="120" y="184" font-size="12" fill="#657786">34</text><g transform="translate(157.71428571428572,170.6)"><path d="M7,3 C7,1.3 5.7,0 4,0 C2.3,0 1,1.3 1,3 C1,6 4,8.5 7,11 C10,8.5 13,6 13,3 C13,1.3 11.7,0 10,0 C8.3,0 7,1.3 7,3Z" fill="#e0245e" opacity="0.8"/></g><text x="175.71428571428572" y="184" font-size="12" fill="#657786">128</text><rect x="24" y="225" width="400" height="165" rx="12" fill="#fff" stroke="#e1e8ed" stroke-width="1"/><circle cx="64" cy="261" r="20" fill="#e8f5e9"/><text x="64" y="267" text-anchor="middle" font-size="16" font-weight="bold" fill="#2e7d32">鈴</text><text x="96" y="255" font-size="14" font-weight="bold" fill="#14171a">鈴木花子</text><text x="158" y="254" font-size="13" fill="#657786">@suzuki_design</text><text x="96" y="279" font-size="14" fill="#14171a">UIデザインのトレンドが変わってきた。</text><text x="96" y="299" font-size="14" fill="#14171a">ミニマルからリッチへ。</text><text x="96" y="325" font-size="12" fill="#657786">2025-06-07 11:45</text><line x1="44" y1="343" x2="404" y2="343" stroke="#e1e8ed" stroke-width="1"/><g transform="translate(96,351.8)" fill="none" stroke="#17bf63" stroke-width="1.5" stroke-linecap="round"><polyline points="0,4 4,0 8,4"/><line x1="4" y1="0" x2="4" y2="10"/><polyline points="10,8 14,12 18,8"/><line x1="14" y1="2" x2="14" y2="12"/></g><text x="120" y="365" font-size="12" fill="#657786">89</text><g transform="translate(157.71428571428572,351.6)"><path d="M7,3 C7,1.3 5.7,0 4,0 C2.3,0 1,1.3 1,3 C1,6 4,8.5 7,11 C10,8.5 13,6 13,3 C13,1.3 11.7,0 10,0 C8.3,0 7,1.3 7,3Z" fill="#e0245e" opacity="0.8"/></g><text x="175.71428571428572" y="365" font-size="12" fill="#657786">256</text></svg>